<?xml version="1.0" encoding="UTF-8"?><svg xmlns="http://www.w3.org/2000/svg" viewBox="0 0 254.67 262"><defs><style>.c,.d{fill:#afa57d;}.d{font-family:Teko-Light, Teko;font-size:139px;}.e{fill:#777159;}</style></defs><g id="a"><text class="d" transform="translate(32.68 174.44)"><tspan x="0" y="0">BLOG</tspan></text></g><g id="b"><g><path class="c" d="M120.44,154.44h0s13.05-1.23,7.11-13.45c-13.5,2.09-7.11,13.45-7.11,13.45Z"/><path class="e" d="M120.69,153.41s1.41-1.74,2.97-4.2c1.56-2.45,3.28-5.62,3.92-8.47l-.21-.04c-.62,2.82-2.34,5.98-3.89,8.42-.78,1.22-1.52,2.27-2.06,3.01-.27,.37-.5,.66-.65,.86-.16,.2-.24,.31-.24,.31l.18,.1h0Z"/><polygon class="e" points="120.92 150.31 123.11 149.87 123.78 152.19 123.99 152.15 123.27 149.65 120.86 150.14 120.92 150.31 120.92 150.31"/><polygon class="e" points="122.15 148.3 124.25 147.88 125.12 149.93 125.33 149.87 124.38 147.66 122.1 148.13 122.15 148.3 122.15 148.3"/><polygon class="e" points="123.34 146.51 125.44 146.08 126.32 148.14 126.52 148.07 125.58 145.86 123.29 146.33 123.34 146.51 123.34 146.51"/><polygon class="e" points="124.4 144.25 126.5 143.82 127.38 145.88 127.58 145.82 126.64 143.61 124.35 144.07 124.4 144.25 124.4 144.25"/></g><g><path class="c" d="M65.47,168.08h0s3.65-13.45-13.04-13.44c-2.82,14.3,13.03,13.44,13.03,13.44Z"/><path class="e" d="M64.35,167.34s-1.5-2.22-3.77-4.93c-2.27-2.71-5.32-5.92-8.43-7.91l-.12,.19c3.07,1.96,6.11,5.16,8.38,7.86,1.13,1.35,2.07,2.58,2.73,3.47,.33,.45,.59,.81,.76,1.06,.18,.25,.27,.39,.27,.39l.19-.12h0Z"/><polygon class="e" points="60.8 165.64 61.13 163.26 64.13 163.71 64.16 163.49 60.93 163 60.57 165.6 60.8 165.64 60.8 165.64"/><polygon class="e" points="58.92 163.46 59.24 161.19 62 161.31 62 161.08 59.03 160.95 58.69 163.43 58.92 163.46 58.92 163.46"/><polygon class="e" points="57.27 161.43 57.59 159.15 60.35 159.27 60.36 159.05 57.39 158.92 57.04 161.39 57.27 161.43 57.27 161.43"/><polygon class="e" points="55.03 159.3 55.35 157.03 58.11 157.15 58.12 156.92 55.15 156.79 54.81 159.27 55.03 159.3 55.03 159.3"/></g><g><path class="c" d="M111.96,150.13h0s8.99-10.64-6.14-17.69c-8.6,11.77,6.13,17.69,6.13,17.69Z"/><path class="e" d="M111.26,148.99s-.42-2.65-1.33-6.07c-.91-3.42-2.32-7.62-4.3-10.73l-.19,.12c1.96,3.08,3.36,7.26,4.27,10.67,.46,1.7,.79,3.22,1.01,4.3,.11,.54,.19,.98,.24,1.28,.05,.3,.08,.46,.08,.46l.23-.03h0Z"/><polygon class="e" points="108.76 145.95 110.07 143.94 112.6 145.62 112.72 145.43 110 143.62 108.57 145.82 108.76 145.95 108.76 145.95"/><polygon class="e" points="107.98 143.19 109.22 141.26 111.68 142.54 111.78 142.33 109.14 140.96 107.78 143.06 107.98 143.19 107.98 143.19"/><polygon class="e" points="107.35 140.64 108.59 138.72 111.05 139.99 111.15 139.79 108.51 138.42 107.15 140.52 107.35 140.64 107.35 140.64"/><polygon class="e" points="106.21 137.78 107.46 135.85 109.91 137.12 110.02 136.92 107.38 135.55 106.02 137.65 106.21 137.78 106.21 137.78"/></g><g><path class="c" d="M84.7,152h0s8.12-11.32-7.52-17.14c-7.64,12.41,7.52,17.14,7.52,17.14Z"/><path class="e" d="M83.92,150.91s-.63-2.6-1.81-5.94c-1.18-3.34-2.91-7.41-5.13-10.36l-.18,.14c2.19,2.91,3.92,6.97,5.1,10.29,.59,1.66,1.04,3.14,1.34,4.21,.15,.53,.27,.96,.34,1.25,.08,.29,.12,.46,.12,.46l.22-.05h0Z"/><polygon class="e" points="81.19 148.08 82.32 145.97 84.98 147.44 85.09 147.24 82.23 145.66 80.98 147.97 81.19 148.08 81.19 148.08"/><polygon class="e" points="80.18 145.39 81.27 143.37 83.82 144.44 83.9 144.23 81.17 143.07 79.98 145.27 80.18 145.39 80.18 145.39"/><polygon class="e" points="79.35 142.9 80.44 140.88 82.99 141.96 83.07 141.75 80.34 140.59 79.15 142.79 79.35 142.9 79.35 142.9"/><polygon class="e" points="78 140.13 79.09 138.11 81.63 139.19 81.72 138.98 78.98 137.82 77.79 140.02 78 140.13 78 140.13"/></g><g><path class="c" d="M25.4,146.21h0s9.62,10.08,18.24-4.2c-10.77-9.81-18.24,4.2-18.24,4.2Z"/><path class="e" d="M26.61,145.64s2.68-.13,6.17-.68c3.5-.54,7.82-1.49,11.13-3.12l-.1-.2c-3.27,1.61-7.58,2.56-11.06,3.1-1.74,.27-3.28,.44-4.38,.54-.55,.05-.99,.08-1.3,.11-.3,.02-.47,.03-.47,.03v.23h0Z"/><polygon class="e" points="29.9 143.48 31.76 144.99 29.82 147.33 30 147.47 32.09 144.96 30.05 143.3 29.9 143.48 29.9 143.48"/><polygon class="e" points="32.73 143 34.52 144.44 32.99 146.75 33.18 146.87 34.82 144.4 32.88 142.82 32.73 143 32.73 143"/><polygon class="e" points="35.33 142.64 37.11 144.09 35.58 146.39 35.77 146.51 37.42 144.04 35.48 142.47 35.33 142.64 35.33 142.64"/><polygon class="e" points="38.3 141.83 40.09 143.27 38.55 145.57 38.75 145.7 40.39 143.22 38.45 141.65 38.3 141.83 38.3 141.83"/></g><g><path class="c" d="M121.02,172.47h0s-.77-13.49-16.24-8.39c1.8,14.02,16.24,8.39,16.24,8.39Z"/><path class="e" d="M119.76,172.13s-2.08-1.59-5.02-3.39c-2.95-1.8-6.76-3.83-10.26-4.71l-.06,.21c3.46,.87,7.26,2.88,10.2,4.68,1.47,.9,2.72,1.74,3.6,2.36,.44,.31,.79,.56,1.03,.74,.24,.18,.37,.27,.37,.27l.14-.17h0Z"/><polygon class="e" points="115.94 171.65 115.51 169.36 118.44 168.86 118.39 168.64 115.25 169.18 115.72 171.69 115.94 171.65 115.94 171.65"/><polygon class="e" points="113.52 170.22 113.11 168.03 115.71 167.3 115.65 167.09 112.86 167.88 113.3 170.26 113.52 170.22 113.52 170.22"/><polygon class="e" points="111.37 168.85 110.96 166.66 113.56 165.93 113.49 165.72 110.7 166.5 111.14 168.89 111.37 168.85 111.37 168.85"/><polygon class="e" points="108.64 167.58 108.23 165.39 110.82 164.66 110.76 164.45 107.97 165.23 108.41 167.62 108.64 167.58 108.64 167.58"/></g><g><path class="c" d="M145.96,146.08h0s14.74,3.28,13.48-14.04c-15.6-2.38-13.49,14.04-13.49,14.04Z"/><path class="e" d="M146.67,144.9s2.28-1.64,5.03-4.1c2.75-2.46,5.98-5.75,7.88-9.05l-.21-.12c-1.88,3.27-5.1,6.54-7.84,9-1.37,1.23-2.62,2.25-3.53,2.97-.45,.36-.82,.64-1.08,.83-.26,.19-.4,.29-.4,.29l.15,.19h0Z"/><polygon class="e" points="148.23 141.15 150.81 141.4 150.55 144.53 150.8 144.55 151.08 141.18 148.25 140.91 148.23 141.15 148.23 141.15"/><polygon class="e" points="150.43 139.11 152.9 139.35 152.98 142.22 153.22 142.22 153.14 139.14 150.45 138.87 150.43 139.11 150.43 139.11"/><polygon class="e" points="152.5 137.32 154.97 137.57 155.05 140.44 155.29 140.43 155.21 137.35 152.52 137.09 152.5 137.32 152.5 137.32"/><polygon class="e" points="154.62 134.92 157.09 135.16 157.16 138.03 157.41 138.03 157.33 134.94 154.64 134.68 154.62 134.92 154.62 134.92"/></g><g><path class="c" d="M174.5,164.79h0s4.22-12.97-11.46-13.34c-3.49,13.82,11.45,13.34,11.45,13.34Z"/><path class="e" d="M173.5,164.05s-1.28-2.19-3.25-4.87c-1.98-2.69-4.65-5.87-7.45-7.87l-.13,.18c2.77,1.98,5.44,5.15,7.41,7.82,.98,1.34,1.8,2.55,2.36,3.43,.28,.44,.5,.8,.65,1.04,.15,.25,.23,.38,.23,.38l.19-.12h0Z"/><polygon class="e" points="170.26 162.32 170.71 160.02 173.51 160.53 173.55 160.31 170.54 159.76 170.05 162.28 170.26 162.32 170.26 162.32"/><polygon class="e" points="168.62 160.17 169.05 157.97 171.64 158.14 171.66 157.92 168.88 157.73 168.41 160.13 168.62 160.17 168.62 160.17"/><polygon class="e" points="167.2 158.15 167.63 155.95 170.21 156.13 170.23 155.91 167.45 155.72 166.98 158.11 167.2 158.15 167.2 158.15"/><polygon class="e" points="165.22 156.04 165.65 153.84 168.24 154.02 168.26 153.8 165.48 153.61 165.01 156 165.22 156.04 165.22 156.04"/></g><g><path class="c" d="M87.79,167.3h0s9.36,4.36,11.07-7.39c-10.06-3.88-11.07,7.39-11.07,7.39Z"/><path class="e" d="M88.44,166.61s1.76-.76,3.96-2c2.2-1.24,4.83-2.96,6.59-4.88l-.13-.11c-1.74,1.9-4.36,3.62-6.55,4.85-1.1,.62-2.08,1.12-2.79,1.46-.36,.17-.64,.31-.84,.4-.2,.09-.31,.14-.31,.14l.07,.15h0Z"/><polygon class="e" points="90.04 164.34 91.72 164.88 91.09 166.94 91.25 166.99 91.93 164.78 90.08 164.18 90.04 164.34 90.04 164.34"/><polygon class="e" points="91.8 163.3 93.42 163.82 93.05 165.75 93.21 165.79 93.61 163.71 91.85 163.14 91.8 163.3 91.8 163.3"/><polygon class="e" points="93.45 162.41 95.06 162.94 94.69 164.86 94.85 164.9 95.25 162.83 93.5 162.26 93.45 162.41 93.45 162.41"/><polygon class="e" points="95.21 161.12 96.83 161.64 96.46 163.57 96.62 163.6 97.02 161.53 95.26 160.96 95.21 161.12 95.21 161.12"/></g><g><path class="c" d="M224.64,169.28h0s-1.39-10.23-12.2-5.32c2.17,10.56,12.2,5.32,12.2,5.32Z"/><path class="e" d="M223.71,169.11s-1.59-1.07-3.82-2.25c-2.23-1.18-5.1-2.47-7.67-2.91l-.03,.17c2.54,.43,5.4,1.72,7.62,2.89,1.11,.59,2.06,1.15,2.74,1.56,.34,.21,.6,.38,.79,.5,.18,.12,.28,.18,.28,.18l.09-.14h0Z"/><polygon class="e" points="220.93 168.99 220.48 167.28 222.55 166.7 222.51 166.54 220.28 167.16 220.77 169.04 220.93 168.99 220.93 168.99"/><polygon class="e" points="219.11 168.07 218.68 166.43 220.5 165.7 220.44 165.54 218.48 166.32 218.95 168.11 219.11 168.07 219.11 168.07"/><polygon class="e" points="217.47 167.16 217.04 165.52 218.86 164.79 218.8 164.64 216.84 165.42 217.31 167.21 217.47 167.16 217.47 167.16"/><polygon class="e" points="215.43 166.38 215 164.73 216.82 164 216.76 163.85 214.8 164.63 215.27 166.42 215.43 166.38 215.43 166.38"/></g><g><path class="c" d="M192.35,176.38h0s13.54-2.01,6.85-16.26c-13.97,3.05-6.86,16.26-6.86,16.26Z"/><path class="e" d="M192.57,175.14s1.39-2.13,2.92-5.1c1.53-2.98,3.19-6.8,3.73-10.22l-.22-.03c-.53,3.37-2.19,7.19-3.71,10.15-.76,1.48-1.49,2.75-2.03,3.66-.27,.45-.49,.81-.64,1.05-.15,.24-.24,.38-.24,.38l.19,.12h0Z"/><polygon class="e" points="192.67 171.47 194.94 170.84 195.74 173.58 195.95 173.52 195.09 170.57 192.61 171.26 192.67 171.47 192.67 171.47"/><polygon class="e" points="193.87 169.03 196.04 168.43 197.04 170.84 197.25 170.75 196.18 168.17 193.81 168.82 193.87 169.03 193.87 169.03"/><polygon class="e" points="195.05 166.85 197.22 166.25 198.21 168.65 198.42 168.57 197.35 165.99 194.99 166.64 195.05 166.85 195.05 166.85"/><polygon class="e" points="196.06 164.13 198.23 163.53 199.22 165.93 199.43 165.85 198.36 163.27 196 163.92 196.06 164.13 196.06 164.13"/></g><g><path class="c" d="M199.92,143.28h0s4.35-12.39-10.72-13.09c-3.67,13.21,10.72,13.09,10.72,13.09Z"/><path class="e" d="M198.97,142.55s-1.18-2.14-3.02-4.76c-1.84-2.63-4.34-5.75-6.99-7.74l-.13,.17c2.62,1.96,5.12,5.08,6.95,7.7,.92,1.31,1.67,2.5,2.19,3.36,.26,.43,.47,.78,.6,1.02,.14,.24,.21,.37,.21,.37l.18-.11h0Z"/><polygon class="e" points="195.89 140.81 196.38 138.61 199.05 139.16 199.1 138.95 196.22 138.36 195.69 140.77 195.89 140.81 195.89 140.81"/><polygon class="e" points="194.36 138.7 194.83 136.59 197.31 136.82 197.34 136.61 194.67 136.36 194.16 138.66 194.36 138.7 194.36 138.7"/><polygon class="e" points="193.04 136.73 193.5 134.62 195.99 134.85 196.01 134.64 193.34 134.39 192.83 136.69 193.04 136.73 193.04 136.73"/><polygon class="e" points="191.18 134.65 191.65 132.54 194.13 132.78 194.15 132.56 191.48 132.32 190.98 134.61 191.18 134.65 191.18 134.65"/></g><g><path class="c" d="M155.8,182.14h0s5.38-13.47-11.23-14.95c-4.67,14.41,11.22,14.95,11.22,14.95Z"/><path class="e" d="M154.78,181.28s-1.2-2.41-3.11-5.4c-1.91-2.99-4.52-6.55-7.36-8.87l-.15,.18c2.8,2.29,5.41,5.84,7.31,8.81,.95,1.49,1.73,2.83,2.27,3.81,.27,.49,.48,.88,.62,1.15,.14,.27,.22,.42,.22,.42l.21-.11h0Z"/><polygon class="e" points="151.47 179.22 152.11 176.82 155.04 177.55 155.1 177.32 151.95 176.53 151.25 179.17 151.47 179.23 151.47 179.22"/><polygon class="e" points="149.88 176.83 150.49 174.52 153.23 174.89 153.26 174.66 150.33 174.26 149.66 176.77 149.88 176.83 149.88 176.83"/><polygon class="e" points="148.51 174.59 149.12 172.29 151.85 172.66 151.89 172.42 148.95 172.03 148.29 174.53 148.51 174.59 148.51 174.59"/><polygon class="e" points="146.56 172.21 147.17 169.91 149.9 170.28 149.94 170.05 147 169.65 146.34 172.16 146.56 172.21 146.56 172.21"/></g><g><path class="c" d="M230.79,142.27h0s.15-13.85-15.16-9.45c.81,14.45,15.15,9.45,15.15,9.45Z"/><path class="e" d="M229.59,141.85s-1.9-1.73-4.63-3.74c-2.73-2-6.29-4.28-9.62-5.36l-.07,.21c3.29,1.07,6.83,3.34,9.56,5.33,1.36,1,2.52,1.93,3.33,2.61,.41,.34,.73,.62,.95,.81,.22,.19,.34,.3,.34,.3l.15-.17h0Z"/><polygon class="e" points="225.93 141.16 225.67 138.8 228.53 138.44 228.51 138.21 225.43 138.6 225.72 141.19 225.93 141.16 225.93 141.16"/><polygon class="e" points="223.69 139.57 223.44 137.31 226 136.7 225.95 136.48 223.2 137.14 223.47 139.6 223.69 139.57 223.69 139.57"/><polygon class="e" points="221.7 138.05 221.44 135.79 224.01 135.18 223.96 134.96 221.2 135.62 221.48 138.08 221.7 138.05 221.7 138.05"/><polygon class="e" points="219.14 136.61 218.89 134.34 221.45 133.73 221.4 133.51 218.65 134.17 218.92 136.63 219.14 136.61 219.14 136.61"/></g></g></svg>