<?xml version="1.0" encoding="UTF-8"?><svg xmlns="http://www.w3.org/2000/svg" viewBox="0 0 254.67 262"><defs><style>.c,.d{fill:#afa57d;}.d{font-family:Teko-Light, Teko;font-size:139px;}.e{fill:#777159;}</style></defs><g id="a"><text class="d" transform="translate(32.68 174.44)"><tspan x="0" y="0">BLOG</tspan></text></g><g id="b"><g><path class="c" d="M123.76,131.02h0s13.05-1.23,7.11-13.45c-13.5,2.09-7.11,13.45-7.11,13.45Z"/><path class="e" d="M124.01,129.99s1.41-1.74,2.97-4.2c1.56-2.45,3.28-5.62,3.92-8.47l-.21-.04c-.62,2.82-2.34,5.98-3.89,8.42-.78,1.22-1.52,2.27-2.06,3.01-.27,.37-.5,.66-.65,.86-.16,.2-.24,.31-.24,.31l.18,.1h0Z"/><polygon class="e" points="124.23 126.89 126.43 126.45 127.1 128.77 127.31 128.73 126.58 126.23 124.18 126.72 124.23 126.89 124.23 126.89"/><polygon class="e" points="125.46 124.88 127.56 124.46 128.44 126.51 128.64 126.45 127.7 124.24 125.41 124.71 125.46 124.88 125.46 124.88"/><polygon class="e" points="126.66 123.09 128.76 122.66 129.64 124.71 129.84 124.65 128.89 122.44 126.61 122.91 126.66 123.09 126.66 123.09"/><polygon class="e" points="127.72 120.83 129.82 120.4 130.69 122.46 130.89 122.4 129.95 120.19 127.66 120.65 127.72 120.83 127.72 120.83"/></g><g><path class="c" d="M62.3,152.11h0s3.65-13.45-13.04-13.44c-2.82,14.3,13.03,13.44,13.03,13.44Z"/><path class="e" d="M61.19,151.37s-1.5-2.22-3.77-4.93c-2.27-2.71-5.32-5.92-8.43-7.91l-.12,.19c3.07,1.96,6.11,5.16,8.38,7.86,1.13,1.35,2.07,2.58,2.73,3.47,.33,.45,.59,.81,.76,1.06,.18,.25,.27,.39,.27,.39l.19-.12h0Z"/><polygon class="e" points="57.64 149.67 57.97 147.3 60.97 147.75 61 147.53 57.77 147.04 57.41 149.64 57.64 149.67 57.64 149.67"/><polygon class="e" points="55.76 147.5 56.07 145.23 58.83 145.35 58.84 145.12 55.87 144.99 55.53 147.47 55.76 147.5 55.76 147.5"/><polygon class="e" points="54.11 145.46 54.43 143.19 57.19 143.31 57.19 143.08 54.23 142.95 53.88 145.43 54.11 145.46 54.11 145.46"/><polygon class="e" points="51.87 143.34 52.19 141.07 54.95 141.19 54.96 140.96 51.99 140.83 51.64 143.31 51.87 143.34 51.87 143.34"/></g><g><path class="c" d="M109.25,118.34h0s8.99-10.64-6.14-17.69c-8.6,11.77,6.13,17.69,6.13,17.69Z"/><path class="e" d="M108.55,117.2s-.42-2.65-1.33-6.07c-.91-3.42-2.32-7.62-4.3-10.73l-.19,.12c1.96,3.08,3.36,7.26,4.27,10.67,.46,1.7,.79,3.22,1.01,4.3,.11,.54,.19,.98,.24,1.28,.05,.3,.08,.46,.08,.46l.23-.03h0Z"/><polygon class="e" points="106.05 114.16 107.35 112.14 109.88 113.82 110 113.63 107.28 111.83 105.86 114.03 106.05 114.16 106.05 114.16"/><polygon class="e" points="105.26 111.39 106.51 109.47 108.96 110.74 109.06 110.54 106.43 109.17 105.07 111.27 105.26 111.39 105.26 111.39"/><polygon class="e" points="104.63 108.85 105.88 106.92 108.33 108.2 108.43 108 105.8 106.62 104.44 108.72 104.63 108.85 104.63 108.85"/><polygon class="e" points="103.5 105.98 104.75 104.05 107.2 105.33 107.3 105.13 104.66 103.76 103.31 105.85 103.5 105.98 103.5 105.98"/></g><g><path class="c" d="M83.47,120.22h0s8.12-11.32-7.52-17.14c-7.64,12.41,7.52,17.14,7.52,17.14Z"/><path class="e" d="M82.68,119.13s-.63-2.6-1.81-5.94c-1.18-3.34-2.91-7.41-5.13-10.36l-.18,.14c2.19,2.91,3.92,6.97,5.1,10.29,.59,1.66,1.04,3.14,1.34,4.21,.15,.53,.27,.96,.34,1.25,.08,.29,.12,.46,.12,.46l.22-.05h0Z"/><polygon class="e" points="79.95 116.3 81.09 114.19 83.74 115.66 83.85 115.46 81 113.88 79.75 116.19 79.95 116.3 79.95 116.3"/><polygon class="e" points="78.95 113.61 80.04 111.59 82.58 112.66 82.67 112.45 79.93 111.29 78.75 113.49 78.95 113.61 78.95 113.61"/><polygon class="e" points="78.12 111.12 79.21 109.1 81.75 110.18 81.84 109.97 79.1 108.81 77.92 111.01 78.12 111.12 78.12 111.12"/><polygon class="e" points="76.76 108.35 77.85 106.33 80.4 107.41 80.48 107.2 77.75 106.04 76.56 108.24 76.76 108.35 76.76 108.35"/></g><g><path class="c" d="M27.57,114.95h0s9.62,10.08,18.24-4.2c-10.77-9.81-18.24,4.2-18.24,4.2Z"/><path class="e" d="M28.79,114.38s2.68-.13,6.17-.68c3.5-.54,7.82-1.49,11.13-3.12l-.1-.2c-3.27,1.61-7.58,2.56-11.06,3.1-1.74,.27-3.28,.44-4.38,.54-.55,.05-.99,.08-1.3,.11-.3,.02-.47,.03-.47,.03v.23h0Z"/><polygon class="e" points="32.08 112.22 33.94 113.73 32 116.07 32.17 116.21 34.26 113.7 32.22 112.05 32.08 112.22 32.08 112.22"/><polygon class="e" points="34.91 111.74 36.69 113.19 35.16 115.49 35.35 115.61 37 113.14 35.06 111.56 34.91 111.74 34.91 111.74"/><polygon class="e" points="37.5 111.38 39.29 112.83 37.75 115.13 37.95 115.25 39.59 112.78 37.65 111.21 37.5 111.38 37.5 111.38"/><polygon class="e" points="40.48 110.57 42.26 112.01 40.73 114.31 40.92 114.44 42.57 111.96 40.63 110.39 40.48 110.57 40.48 110.57"/></g><g><path class="c" d="M117.79,148.14h0s-.77-13.49-16.24-8.39c1.8,14.02,16.24,8.39,16.24,8.39Z"/><path class="e" d="M116.52,147.8s-2.08-1.59-5.02-3.39c-2.95-1.8-6.76-3.83-10.26-4.71l-.06,.21c3.46,.87,7.26,2.88,10.2,4.68,1.47,.9,2.72,1.74,3.6,2.36,.44,.31,.79,.56,1.03,.74,.24,.18,.37,.27,.37,.27l.14-.17h0Z"/><polygon class="e" points="112.7 147.32 112.28 145.03 115.2 144.53 115.16 144.32 112.01 144.86 112.48 147.36 112.7 147.32 112.7 147.32"/><polygon class="e" points="110.29 145.9 109.88 143.71 112.48 142.97 112.41 142.76 109.62 143.55 110.06 145.93 110.29 145.9 110.29 145.9"/><polygon class="e" points="108.13 144.52 107.72 142.33 110.32 141.6 110.25 141.39 107.46 142.18 107.91 144.56 108.13 144.52 108.13 144.52"/><polygon class="e" points="105.4 143.25 104.99 141.06 107.59 140.33 107.52 140.12 104.73 140.91 105.18 143.29 105.4 143.25 105.4 143.25"/></g><g><path class="c" d="M144.06,117.39h0s14.74,3.28,13.48-14.04c-15.6-2.38-13.49,14.04-13.49,14.04Z"/><path class="e" d="M144.78,116.2s2.28-1.64,5.03-4.1c2.75-2.46,5.98-5.75,7.88-9.05l-.21-.12c-1.88,3.27-5.1,6.54-7.84,9-1.37,1.23-2.62,2.25-3.53,2.97-.45,.36-.82,.64-1.08,.83-.26,.19-.4,.29-.4,.29l.15,.19h0Z"/><polygon class="e" points="146.34 112.45 148.92 112.7 148.66 115.84 148.9 115.86 149.18 112.49 146.36 112.21 146.34 112.45 146.34 112.45"/><polygon class="e" points="148.54 110.42 151.01 110.66 151.09 113.53 151.33 113.53 151.25 110.44 148.56 110.18 148.54 110.42 148.54 110.42"/><polygon class="e" points="150.61 108.63 153.08 108.87 153.15 111.74 153.4 111.74 153.32 108.65 150.63 108.39 150.61 108.63 150.61 108.63"/><polygon class="e" points="152.72 106.23 155.19 106.47 155.27 109.34 155.52 109.33 155.43 106.25 152.74 105.99 152.72 106.23 152.72 106.23"/></g><g><path class="c" d="M173.76,140.17h0s4.22-12.97-11.46-13.34c-3.49,13.82,11.45,13.34,11.45,13.34Z"/><path class="e" d="M172.75,139.42s-1.28-2.19-3.25-4.87c-1.98-2.69-4.65-5.87-7.45-7.87l-.13,.18c2.77,1.98,5.44,5.15,7.41,7.82,.98,1.34,1.8,2.55,2.36,3.43,.28,.44,.5,.8,.65,1.04,.15,.25,.23,.38,.23,.38l.19-.12h0Z"/><polygon class="e" points="169.52 137.69 169.97 135.39 172.76 135.9 172.8 135.68 169.79 135.14 169.3 137.65 169.52 137.69 169.52 137.69"/><polygon class="e" points="167.88 135.54 168.31 133.34 170.89 133.52 170.91 133.3 168.13 133.11 167.66 135.5 167.88 135.54 167.88 135.54"/><polygon class="e" points="166.45 133.52 166.88 131.32 169.47 131.5 169.49 131.28 166.71 131.09 166.24 133.49 166.45 133.52 166.45 133.52"/><polygon class="e" points="164.47 131.41 164.9 129.21 167.49 129.39 167.51 129.17 164.73 128.98 164.26 131.38 164.47 131.41 164.47 131.41"/></g><g><path class="c" d="M85.33,147.05h0s9.36,4.36,11.07-7.39c-10.06-3.88-11.07,7.39-11.07,7.39Z"/><path class="e" d="M85.98,146.36s1.76-.76,3.96-2c2.2-1.24,4.83-2.96,6.59-4.88l-.13-.11c-1.74,1.9-4.36,3.62-6.55,4.85-1.1,.62-2.08,1.12-2.79,1.46-.36,.17-.64,.31-.84,.4-.2,.09-.31,.14-.31,.14l.07,.15h0Z"/><polygon class="e" points="87.58 144.09 89.26 144.63 88.63 146.69 88.79 146.74 89.47 144.53 87.63 143.93 87.58 144.09 87.58 144.09"/><polygon class="e" points="89.35 143.05 90.96 143.58 90.59 145.5 90.75 145.54 91.15 143.47 89.39 142.9 89.35 143.05 89.35 143.05"/><polygon class="e" points="90.99 142.16 92.6 142.69 92.23 144.61 92.4 144.65 92.8 142.58 91.04 142.01 90.99 142.16 90.99 142.16"/><polygon class="e" points="92.76 140.87 94.37 141.39 94 143.32 94.16 143.36 94.56 141.28 92.8 140.71 92.76 140.87 92.76 140.87"/></g><g><path class="c" d="M225.79,148.14h0s-1.39-10.23-12.2-5.32c2.17,10.56,12.2,5.32,12.2,5.32Z"/><path class="e" d="M224.86,147.96s-1.59-1.07-3.82-2.25c-2.23-1.18-5.1-2.47-7.67-2.91l-.03,.17c2.54,.43,5.4,1.72,7.62,2.89,1.11,.59,2.06,1.15,2.74,1.56,.34,.21,.6,.38,.79,.5,.18,.12,.28,.18,.28,.18l.09-.14h0Z"/><polygon class="e" points="222.08 147.85 221.63 146.13 223.7 145.56 223.66 145.4 221.43 146.02 221.92 147.89 222.08 147.85 222.08 147.85"/><polygon class="e" points="220.26 146.92 219.83 145.28 221.65 144.55 221.59 144.39 219.63 145.18 220.1 146.97 220.26 146.92 220.26 146.92"/><polygon class="e" points="218.62 146.02 218.19 144.38 220.01 143.65 219.95 143.49 217.99 144.27 218.46 146.06 218.62 146.02 218.62 146.02"/><polygon class="e" points="216.58 145.23 216.15 143.59 217.97 142.86 217.91 142.7 215.95 143.49 216.42 145.27 216.58 145.23 216.58 145.23"/></g><g><path class="c" d="M195.92,156.65h0s13.54-2.01,6.85-16.26c-13.97,3.05-6.86,16.26-6.86,16.26Z"/><path class="e" d="M196.14,155.42s1.39-2.13,2.92-5.1c1.53-2.98,3.19-6.8,3.73-10.22l-.22-.03c-.53,3.37-2.19,7.19-3.71,10.15-.76,1.48-1.49,2.75-2.03,3.66-.27,.45-.49,.81-.64,1.05-.15,.24-.24,.38-.24,.38l.19,.12h0Z"/><polygon class="e" points="196.25 151.74 198.51 151.11 199.31 153.85 199.52 153.79 198.67 150.84 196.19 151.53 196.25 151.74 196.25 151.74"/><polygon class="e" points="197.45 149.3 199.62 148.7 200.61 151.11 200.82 151.03 199.75 148.44 197.39 149.09 197.45 149.3 197.45 149.3"/><polygon class="e" points="198.62 147.12 200.79 146.52 201.78 148.92 201.99 148.84 200.92 146.26 198.56 146.91 198.62 147.12 198.62 147.12"/><polygon class="e" points="199.63 144.4 201.8 143.8 202.79 146.2 203 146.12 201.93 143.54 199.57 144.19 199.63 144.4 199.63 144.4"/></g><g><path class="c" d="M198.7,118.84h0s4.35-12.39-10.72-13.09c-3.67,13.21,10.72,13.09,10.72,13.09Z"/><path class="e" d="M197.75,118.1s-1.18-2.14-3.02-4.76c-1.84-2.63-4.34-5.75-6.99-7.74l-.13,.17c2.62,1.96,5.12,5.08,6.95,7.7,.92,1.31,1.67,2.5,2.19,3.36,.26,.43,.47,.78,.6,1.02,.14,.24,.21,.37,.21,.37l.18-.11h0Z"/><polygon class="e" points="194.67 116.36 195.16 114.16 197.83 114.71 197.88 114.5 195 113.91 194.47 116.32 194.67 116.36 194.67 116.36"/><polygon class="e" points="193.15 114.25 193.61 112.14 196.09 112.37 196.12 112.16 193.45 111.91 192.94 114.21 193.15 114.25 193.15 114.25"/><polygon class="e" points="191.82 112.28 192.28 110.17 194.77 110.4 194.79 110.19 192.12 109.94 191.61 112.24 191.82 112.28 191.82 112.28"/><polygon class="e" points="189.96 110.2 190.43 108.1 192.91 108.33 192.94 108.12 190.26 107.87 189.76 110.16 189.96 110.2 189.96 110.2"/></g><g><path class="c" d="M149.64,161.73h0s5.38-13.47-11.23-14.95c-4.67,14.41,11.22,14.95,11.22,14.95Z"/><path class="e" d="M148.62,160.87s-1.2-2.41-3.11-5.4c-1.91-2.99-4.52-6.55-7.36-8.87l-.15,.18c2.8,2.29,5.41,5.84,7.31,8.81,.95,1.49,1.73,2.83,2.27,3.81,.27,.49,.48,.88,.62,1.15,.14,.27,.22,.42,.22,.42l.21-.11h0Z"/><polygon class="e" points="145.31 158.81 145.95 156.4 148.87 157.13 148.93 156.9 145.78 156.12 145.09 158.75 145.31 158.81 145.31 158.81"/><polygon class="e" points="143.72 156.41 144.33 154.1 147.06 154.47 147.1 154.24 144.16 153.84 143.5 156.35 143.72 156.41 143.72 156.41"/><polygon class="e" points="142.35 154.17 142.96 151.87 145.69 152.24 145.72 152 142.79 151.61 142.12 154.12 142.35 154.17 142.35 154.17"/><polygon class="e" points="140.4 151.8 141.01 149.49 143.74 149.86 143.77 149.63 140.84 149.23 140.17 151.74 140.4 151.8 140.4 151.8"/></g><g><path class="c" d="M229.19,111.36h0s.15-13.85-15.16-9.45c.81,14.45,15.15,9.45,15.15,9.45Z"/><path class="e" d="M227.99,110.95s-1.9-1.73-4.63-3.74c-2.73-2-6.29-4.28-9.62-5.36l-.07,.21c3.29,1.07,6.83,3.34,9.56,5.33,1.36,1,2.52,1.93,3.33,2.61,.41,.34,.73,.62,.95,.81,.22,.19,.34,.3,.34,.3l.15-.17h0Z"/><polygon class="e" points="224.33 110.25 224.07 107.89 226.93 107.53 226.9 107.31 223.82 107.69 224.11 110.28 224.33 110.25 224.33 110.25"/><polygon class="e" points="222.09 108.66 221.84 106.4 224.4 105.79 224.35 105.57 221.59 106.23 221.87 108.69 222.09 108.66 222.09 108.66"/><polygon class="e" points="220.09 107.15 219.84 104.88 222.4 104.27 222.35 104.05 219.6 104.71 219.87 107.17 220.09 107.15 220.09 107.15"/><polygon class="e" points="217.53 105.7 217.28 103.44 219.84 102.82 219.8 102.61 217.04 103.26 217.32 105.73 217.53 105.7 217.53 105.7"/></g></g></svg>