<?xml version="1.0" encoding="UTF-8"?><svg xmlns="http://www.w3.org/2000/svg" viewBox="0 0 381.5 262"><defs><style>.c{fill:#afa57d;}.d{fill:#777159;}</style></defs><g id="a"><g><path class="c" d="M140.64,88.03v8.2h-13.9v78.26h-9.45V96.23h-13.9v-8.2h37.25Z"/><path class="c" d="M177.2,88.03h9.59v86.46h-9.59v-39.06h-18.63v39.06h-9.59V88.03h9.59v39.2h18.63v-39.2Z"/><path class="c" d="M211.67,133.62v32.67h23.77v8.2h-33.36V88.03h32.39v8.2h-22.79v29.19h18.62v8.2h-18.62Zm23.91-67.55l-13.62,17.65h-8.62l10.84-17.65h11.4Z"/><path class="c" d="M268.52,161.98v-23.63c0-1.85-.28-3.03-.83-3.54-.55-.51-1.71-.76-3.47-.76h-9.45c-7.32,0-10.98-3.66-10.98-10.98v-24.05c0-7.32,3.66-10.98,10.98-10.98h12.23c7.32,0,10.98,3.66,10.98,10.98v13.34h-9.59v-11.82c0-1.85-.26-3.03-.76-3.54-.51-.51-1.69-.76-3.54-.76h-6.39c-1.85,0-3.04,.26-3.54,.76-.51,.51-.76,1.69-.76,3.54v20.99c0,1.76,.25,2.92,.76,3.48,.51,.56,1.69,.83,3.54,.83h9.45c7.32,0,10.98,3.66,10.98,10.98v26.69c0,7.32-3.66,10.98-10.98,10.98h-12.09c-7.32,0-10.98-3.66-10.98-10.98v-13.34h9.59v11.82c0,1.85,.26,3.04,.77,3.54,.51,.51,1.69,.76,3.54,.76h6.25c1.76,0,2.92-.25,3.47-.76,.56-.51,.83-1.69,.83-3.54Z"/></g></g><g id="b"><g><path class="c" d="M143.48,106.09h0s6.1-11.9-9.01-14.7c-5.53,12.83,9.01,14.7,9.01,14.7Z"/><path class="d" d="M142.62,105.21s-.9-2.32-2.39-5.23c-1.5-2.91-3.59-6.41-5.99-8.78l-.15,.16c2.38,2.34,4.46,5.83,5.95,8.73,.74,1.45,1.34,2.75,1.75,3.69,.2,.47,.36,.85,.47,1.11,.11,.26,.16,.4,.16,.4l.2-.08h0Z"/><polygon class="d" points="139.76 103.04 140.55 100.88 143.18 101.81 143.25 101.6 140.43 100.61 139.56 102.97 139.76 103.04 139.76 103.04"/><polygon class="d" points="138.51 100.7 139.27 98.64 141.74 99.21 141.8 99 139.13 98.38 138.31 100.63 138.51 100.7 138.51 100.7"/><polygon class="d" points="137.44 98.53 138.2 96.46 140.68 97.04 140.73 96.83 138.07 96.21 137.24 98.45 137.44 98.53 137.44 98.53"/><polygon class="d" points="135.85 96.17 136.61 94.11 139.09 94.69 139.14 94.48 136.48 93.86 135.65 96.1 135.85 96.17 135.85 96.17"/></g><g><path class="c" d="M112.28,134.34h0s13.72-6.55,1.98-19.5c-13.85,7.79-1.99,19.5-1.99,19.5Z"/><path class="d" d="M112.11,132.95s.79-2.71,1.44-6.37c.65-3.66,1.17-8.27,.64-12.07l-.24,.04c.53,3.76,.02,8.35-.64,12-.33,1.82-.68,3.41-.96,4.54-.14,.57-.26,1.02-.34,1.33-.08,.31-.13,.48-.13,.48l.24,.06h0Z"/><polygon class="d" points="111.02 129.01 113.23 127.61 114.96 130.25 115.17 130.12 113.3 127.27 110.89 128.81 111.02 129.01 111.02 129.01"/><polygon class="d" points="111.5 126.03 113.61 124.69 115.46 126.92 115.65 126.76 113.67 124.37 111.37 125.83 111.5 126.03 111.5 126.03"/><polygon class="d" points="112.04 123.33 114.15 121.99 115.99 124.22 116.18 124.06 114.2 121.67 111.91 123.13 112.04 123.33 112.04 123.33"/><polygon class="d" points="112.23 120.11 114.34 118.77 116.18 121 116.37 120.84 114.39 118.45 112.09 119.91 112.23 120.11 112.23 120.11"/></g><g><path class="c" d="M168.03,106.75h0s6.02-12.55-9.78-15.04c-5.4,13.5,9.78,15.04,9.78,15.04Z"/><path class="d" d="M167.11,105.86s-1-2.39-2.63-5.37c-1.64-2.98-3.91-6.57-6.48-8.97l-.15,.17c2.54,2.37,4.8,5.94,6.43,8.91,.81,1.49,1.47,2.82,1.92,3.79,.23,.48,.4,.87,.52,1.14,.12,.27,.18,.42,.18,.42l.21-.09h0Z"/><polygon class="d" points="164.07 103.67 164.84 101.41 167.59 102.3 167.66 102.08 164.7 101.13 163.86 103.6 164.07 103.67 164.07 103.67"/><polygon class="d" points="162.7 101.27 163.44 99.11 166.03 99.64 166.08 99.42 163.29 98.85 162.49 101.21 162.7 101.27 162.7 101.27"/><polygon class="d" points="161.53 99.04 162.27 96.87 164.86 97.41 164.91 97.19 162.12 96.61 161.32 98.97 161.53 99.04 161.53 99.04"/><polygon class="d" points="159.82 96.64 160.55 94.47 163.14 95 163.19 94.78 160.41 94.21 159.61 96.57 159.82 96.64 159.82 96.64"/></g><g><path class="c" d="M139.33,139.66h0s14.12-1.73,7.56-16.72c-14.6,2.79-7.56,16.72-7.56,16.72Z"/><path class="d" d="M139.59,138.38s1.51-2.17,3.17-5.23c1.67-3.05,3.5-6.99,4.15-10.52l-.23-.04c-.64,3.49-2.47,7.41-4.13,10.45-.83,1.52-1.62,2.82-2.2,3.75-.29,.46-.53,.83-.7,1.08-.17,.25-.26,.38-.26,.38l.19,.13h0Z"/><polygon class="d" points="139.8 134.56 142.17 133.97 142.92 136.84 143.15 136.78 142.33 133.7 139.74 134.34 139.8 134.56 139.8 134.56"/><polygon class="d" points="141.11 132.06 143.38 131.5 144.35 134.02 144.57 133.94 143.52 131.23 141.05 131.84 141.11 132.06 141.11 132.06"/><polygon class="d" points="142.38 129.82 144.65 129.26 145.63 131.78 145.84 131.71 144.8 128.99 142.33 129.6 142.38 129.82 142.38 129.82"/><polygon class="d" points="143.51 127.02 145.78 126.46 146.75 128.98 146.97 128.9 145.92 126.19 143.45 126.8 143.51 127.02 143.51 127.02"/></g><g><path class="c" d="M193.43,135.97h0s8.54-11.48-6.91-17.1c-8.11,12.56,6.91,17.1,6.91,17.1Z"/><path class="d" d="M192.68,134.89s-.54-2.6-1.6-5.94c-1.06-3.33-2.65-7.39-4.77-10.32l-.19,.14c2.09,2.89,3.68,6.94,4.74,10.26,.53,1.66,.93,3.14,1.19,4.2,.13,.53,.23,.96,.3,1.25,.07,.29,.1,.46,.1,.46l.23-.05h0Z"/><polygon class="d" points="190.04 132.09 191.26 129.95 193.87 131.39 193.98 131.19 191.18 129.64 189.84 131.98 190.04 132.09 190.04 132.09"/><polygon class="d" points="189.13 129.4 190.3 127.35 192.81 128.4 192.9 128.19 190.21 127.06 188.94 129.29 189.13 129.4 189.13 129.4"/><polygon class="d" points="188.39 126.91 189.56 124.87 192.07 125.92 192.16 125.71 189.46 124.58 188.19 126.8 188.39 126.91 188.39 126.91"/><polygon class="d" points="187.14 124.15 188.3 122.11 190.81 123.16 190.91 122.94 188.21 121.82 186.94 124.04 187.14 124.15 187.14 124.15"/></g><g><path class="c" d="M244.9,103.96h0s4.7-13.1-11.99-14.47c-3.94,14.02,11.99,14.47,11.99,14.47Z"/><path class="d" d="M243.84,103.13s-1.33-2.34-3.39-5.23c-2.06-2.89-4.86-6.34-7.82-8.58l-.14,.18c2.92,2.21,5.71,5.65,7.77,8.53,1.03,1.44,1.87,2.74,2.46,3.69,.29,.47,.52,.85,.68,1.11,.16,.26,.24,.41,.24,.41l.2-.11h0Z"/><polygon class="d" points="240.43 101.14 240.94 98.8 243.91 99.5 243.96 99.28 240.76 98.53 240.2 101.09 240.43 101.14 240.43 101.14"/><polygon class="d" points="238.71 98.82 239.21 96.58 241.96 96.93 241.98 96.7 239.03 96.33 238.49 98.77 238.71 98.82 238.71 98.82"/><polygon class="d" points="237.23 96.65 237.72 94.41 240.47 94.76 240.5 94.54 237.54 94.16 237 96.6 237.23 96.65 237.23 96.65"/><polygon class="d" points="235.15 94.35 235.65 92.11 238.4 92.46 238.42 92.24 235.46 91.86 234.93 94.3 235.15 94.35 235.15 94.35"/></g><g><path class="c" d="M169.23,153.65h0s13.42-.22,8.74-14.93c-13.97,1.17-8.75,14.93-8.75,14.93Z"/><path class="d" d="M169.6,152.48s1.63-1.89,3.49-4.59c1.87-2.7,3.97-6.21,4.94-9.46l-.21-.06c-.95,3.21-3.05,6.71-4.91,9.4-.93,1.34-1.8,2.49-2.44,3.29-.32,.4-.58,.72-.76,.94-.18,.22-.28,.33-.28,.34l.17,.14h0Z"/><polygon class="d" points="170.17 148.92 172.46 148.6 172.88 151.36 173.1 151.33 172.64 148.36 170.14 148.71 170.17 148.92 170.17 148.92"/><polygon class="d" points="171.65 146.7 173.84 146.4 174.5 148.86 174.71 148.81 174 146.16 171.62 146.49 171.65 146.7 171.65 146.7"/><polygon class="d" points="173.07 144.73 175.26 144.42 175.92 146.89 176.13 146.84 175.42 144.19 173.04 144.52 173.07 144.73 173.07 144.73"/><polygon class="d" points="174.4 142.21 176.59 141.91 177.25 144.37 177.46 144.32 176.75 141.67 174.37 142 174.4 142.21 174.4 142.21"/></g><g><path class="c" d="M133.91,163.48h0s9.03-12.59-7.81-18.38c-8.54,13.75,7.81,18.38,7.81,18.38Z"/><path class="d" d="M133.08,162.33s-.63-2.81-1.84-6.4c-1.22-3.59-3.01-7.96-5.36-11.09l-.2,.15c2.32,3.09,4.12,7.44,5.33,11.02,.61,1.79,1.06,3.38,1.37,4.53,.15,.57,.27,1.03,.35,1.35,.08,.32,.12,.49,.12,.49l.24-.06h0Z"/><polygon class="d" points="130.17 159.34 131.45 157.01 134.3 158.52 134.42 158.3 131.36 156.67 129.96 159.23 130.17 159.34 130.17 159.34"/><polygon class="d" points="129.14 156.45 130.36 154.21 133.1 155.3 133.2 155.06 130.26 153.9 128.92 156.33 129.14 156.45 129.14 156.45"/><polygon class="d" points="128.29 153.77 129.51 151.54 132.25 152.62 132.35 152.39 129.4 151.23 128.07 153.66 128.29 153.77 128.29 153.77"/><polygon class="d" points="126.88 150.81 128.1 148.57 130.84 149.66 130.93 149.43 127.99 148.26 126.66 150.69 126.88 150.81 126.88 150.81"/></g><g><path class="c" d="M193.09,106.14h0s15.08,.77,10.96-16.09c-15.78,.25-10.96,16.09-10.96,16.09Z"/><path class="d" d="M193.6,104.84s1.97-2,4.27-4.88c2.3-2.89,4.93-6.66,6.26-10.24l-.23-.08c-1.31,3.53-3.93,7.3-6.23,10.17-1.15,1.44-2.21,2.66-2.99,3.51-.39,.43-.71,.77-.93,1-.22,.23-.34,.35-.34,.35l.18,.17h0Z"/><polygon class="d" points="194.51 100.89 197.1 100.71 197.37 103.84 197.61 103.82 197.33 100.45 194.49 100.65 194.51 100.89 194.51 100.89"/><polygon class="d" points="196.34 98.51 198.82 98.34 199.37 101.16 199.61 101.11 199.02 98.09 196.32 98.28 196.34 98.51 196.34 98.51"/><polygon class="d" points="198.09 96.41 200.56 96.23 201.12 99.05 201.36 99.01 200.76 95.98 198.07 96.17 198.09 96.41 198.09 96.41"/><polygon class="d" points="199.77 93.68 202.25 93.51 202.8 96.33 203.04 96.29 202.45 93.26 199.75 93.45 199.77 93.68 199.77 93.68"/></g><g><path class="c" d="M223.41,121.59h0s3.38-13.21-12.28-12.58c-2.6,14.01,12.28,12.58,12.28,12.58Z"/><path class="d" d="M222.36,120.91s-1.42-2.1-3.56-4.66c-2.14-2.55-5.01-5.56-7.94-7.38l-.12,.19c2.89,1.79,5.76,4.79,7.89,7.33,1.07,1.27,1.95,2.43,2.57,3.27,.31,.42,.55,.76,.72,1,.17,.24,.25,.37,.25,.37l.18-.13h0Z"/><polygon class="d" points="219.02 119.39 219.32 117.07 222.14 117.4 222.17 117.18 219.14 116.82 218.81 119.37 219.02 119.39 219.02 119.39"/><polygon class="d" points="217.25 117.35 217.54 115.12 220.13 115.14 220.14 114.92 217.35 114.9 217.03 117.32 217.25 117.35 217.25 117.35"/><polygon class="d" points="215.7 115.43 215.99 113.2 218.58 113.22 218.58 113 215.8 112.98 215.48 115.4 215.7 115.43 215.7 115.43"/><polygon class="d" points="213.59 113.45 213.88 111.22 216.47 111.24 216.48 111.02 213.69 111 213.37 113.42 213.59 113.45 213.59 113.45"/></g><g><path class="c" d="M198.67,149.28h0s10.2-1.6,5.07-12.3c-10.52,2.38-5.07,12.3-5.07,12.3Z"/><path class="d" d="M198.83,148.34s1.04-1.61,2.17-3.87c1.13-2.25,2.37-5.15,2.75-7.73l-.17-.02c-.38,2.55-1.61,5.43-2.74,7.68-.57,1.12-1.11,2.09-1.51,2.77-.2,.34-.36,.61-.48,.8-.11,.19-.18,.29-.18,.29l.14,.09h0Z"/><polygon class="d" points="198.88 145.57 200.59 145.08 201.21 147.14 201.37 147.09 200.7 144.88 198.84 145.41 198.88 145.57 198.88 145.57"/><polygon class="d" points="199.77 143.72 201.41 143.26 202.17 145.07 202.33 145 201.5 143.06 199.73 143.57 199.77 143.72 199.77 143.72"/><polygon class="d" points="200.64 142.07 202.28 141.61 203.04 143.41 203.2 143.35 202.37 141.41 200.6 141.91 200.64 142.07 200.64 142.07"/><polygon class="d" points="201.39 140.01 203.02 139.55 203.79 141.35 203.94 141.29 203.12 139.35 201.34 139.85 201.39 140.01 201.39 140.01"/></g><g><path class="c" d="M237.55,137.2h0s-1.39-10.23-12.2-5.32c2.17,10.56,12.2,5.32,12.2,5.32Z"/><path class="d" d="M236.62,137.03s-1.59-1.07-3.82-2.25c-2.23-1.18-5.1-2.47-7.67-2.91l-.03,.17c2.54,.43,5.4,1.72,7.62,2.89,1.11,.59,2.06,1.15,2.74,1.56,.34,.21,.6,.38,.79,.5,.18,.12,.28,.18,.28,.18l.09-.14h0Z"/><polygon class="d" points="233.84 136.91 233.39 135.2 235.46 134.62 235.42 134.46 233.19 135.08 233.69 136.96 233.84 136.91 233.84 136.91"/><polygon class="d" points="232.02 135.99 231.59 134.34 233.41 133.61 233.35 133.46 231.39 134.24 231.86 136.03 232.02 135.99 232.02 135.99"/><polygon class="d" points="230.38 135.08 229.95 133.44 231.77 132.71 231.71 132.55 229.76 133.34 230.22 135.13 230.38 135.08 230.38 135.08"/><polygon class="d" points="228.34 134.29 227.91 132.65 229.73 131.92 229.67 131.77 227.71 132.55 228.18 134.34 228.34 134.29 228.34 134.29"/></g><g><path class="c" d="M289.55,101.13h0s.34-14.18-15.38-9.87c.64,14.8,15.38,9.87,15.38,9.87Z"/><path class="d" d="M288.32,100.69s-1.92-1.8-4.69-3.89c-2.77-2.09-6.38-4.46-9.77-5.62l-.07,.22c3.35,1.14,6.95,3.51,9.71,5.59,1.38,1.04,2.55,2.01,3.37,2.72,.41,.35,.74,.64,.96,.84,.22,.2,.34,.31,.34,.31l.15-.17h0Z"/><polygon class="d" points="284.59 99.93 284.35 97.5 287.28 97.18 287.26 96.95 284.1 97.3 284.36 99.95 284.59 99.93 284.59 99.93"/><polygon class="d" points="282.31 98.27 282.09 95.95 284.72 95.36 284.67 95.13 281.84 95.77 282.09 98.3 282.31 98.27 282.31 98.27"/><polygon class="d" points="280.29 96.69 280.07 94.37 282.7 93.78 282.65 93.55 279.82 94.19 280.07 96.71 280.29 96.69 280.29 96.69"/><polygon class="d" points="277.69 95.18 277.47 92.86 280.1 92.26 280.05 92.04 277.22 92.68 277.47 95.2 277.69 95.18 277.69 95.18"/></g><g><path class="c" d="M243.19,81.39h0s2.68-13.43-12.99-11.95c-1.85,14.18,12.99,11.95,12.99,11.95Z"/><path class="d" d="M242.1,80.77s-1.53-2.03-3.82-4.47c-2.29-2.44-5.32-5.3-8.36-6.97l-.11,.2c3,1.64,6.03,4.49,8.3,6.92,1.14,1.22,2.09,2.33,2.76,3.14,.33,.41,.59,.73,.77,.96,.18,.23,.27,.35,.27,.35l.17-.14h0Z"/><polygon class="d" points="238.68 79.43 238.85 77.08 241.7 77.26 241.71 77.04 238.65 76.85 238.46 79.41 238.68 79.43 238.68 79.43"/><polygon class="d" points="236.79 77.47 236.96 75.23 239.56 75.11 239.55 74.88 236.76 75.02 236.57 77.46 236.79 77.47 236.79 77.47"/><polygon class="d" points="235.13 75.63 235.3 73.39 237.9 73.26 237.89 73.04 235.1 73.18 234.91 75.62 235.13 75.63 235.13 75.63"/><polygon class="d" points="232.91 73.76 233.08 71.52 235.68 71.39 235.67 71.17 232.88 71.31 232.69 73.75 232.91 73.76 232.91 73.76"/></g><g><path class="c" d="M267.29,117.74h0s-1.77-13.01-15.51-6.77c2.76,13.44,15.51,6.77,15.51,6.77Z"/><path class="d" d="M266.11,117.51s-2.02-1.36-4.86-2.86c-2.84-1.5-6.49-3.14-9.76-3.7l-.03,.21c3.23,.55,6.87,2.18,9.69,3.68,1.41,.75,2.62,1.46,3.48,1.99,.43,.26,.77,.48,1,.63,.23,.15,.36,.23,.36,.23l.11-.18h0Z"/><polygon class="d" points="262.58 117.37 262.01 115.19 264.64 114.46 264.58 114.25 261.75 115.04 262.38 117.42 262.58 117.37 262.58 117.37"/><polygon class="d" points="260.26 116.19 259.71 114.1 262.03 113.17 261.95 112.97 259.46 113.97 260.06 116.24 260.26 116.19 260.26 116.19"/><polygon class="d" points="258.18 115.04 257.63 112.95 259.94 112.02 259.87 111.82 257.38 112.82 257.98 115.09 258.18 115.04 258.18 115.04"/><polygon class="d" points="255.58 114.04 255.03 111.95 257.35 111.02 257.27 110.82 254.78 111.82 255.38 114.09 255.58 114.04 255.58 114.04"/></g><g><path class="c" d="M233.51,134.67h0s13.43,5.48,15.03-11.12c-14.38-4.77-15.03,11.12-15.03,11.12Z"/><path class="d" d="M234.38,133.65s2.42-1.19,5.42-3.07c3-1.89,6.58-4.48,8.92-7.3l-.18-.15c-2.31,2.79-5.88,5.37-8.87,7.25-1.49,.94-2.85,1.71-3.82,2.24-.49,.27-.88,.47-1.16,.61-.27,.14-.42,.21-.42,.21l.11,.21h0Z"/><polygon class="d" points="236.46 130.36 238.87 131.01 238.11 133.94 238.34 134 239.15 130.85 236.52 130.14 236.46 130.36 236.46 130.36"/><polygon class="d" points="238.87 128.79 241.17 129.41 240.78 132.14 241.02 132.18 241.43 129.25 238.93 128.56 238.87 128.79 238.87 128.79"/><polygon class="d" points="241.12 127.43 243.42 128.06 243.03 130.78 243.26 130.82 243.68 127.89 241.18 127.21 241.12 127.43 241.12 127.43"/><polygon class="d" points="243.51 125.49 245.81 126.12 245.42 128.85 245.65 128.89 246.07 125.95 243.57 125.27 243.51 125.49 243.51 125.49"/></g><g><path class="c" d="M289.55,145.65h0s-1.82-13.38-15.95-6.96c2.84,13.82,15.95,6.96,15.95,6.96Z"/><path class="d" d="M288.33,145.42s-2.08-1.4-5-2.94c-2.92-1.54-6.67-3.23-10.03-3.8l-.04,.22c3.32,.57,7.06,2.25,9.97,3.78,1.45,.77,2.7,1.5,3.58,2.04,.44,.27,.79,.49,1.03,.65,.24,.15,.37,.24,.37,.24l.12-.18h0Z"/><polygon class="d" points="284.7 145.27 284.12 143.03 286.82 142.28 286.77 142.07 283.85 142.88 284.5 145.33 284.7 145.27 284.7 145.27"/><polygon class="d" points="282.32 144.06 281.75 141.91 284.14 140.96 284.06 140.76 281.5 141.78 282.11 144.12 282.32 144.06 282.32 144.06"/><polygon class="d" points="280.18 142.88 279.61 140.73 282 139.78 281.92 139.57 279.36 140.6 279.97 142.94 280.18 142.88 280.18 142.88"/><polygon class="d" points="277.51 141.85 276.94 139.7 279.32 138.75 279.25 138.54 276.69 139.57 277.3 141.91 277.51 141.85 277.51 141.85"/></g><g><path class="c" d="M255.25,156.8h0s11.6,7.57,16.11-7.71c-12.63-7.08-16.11,7.71-16.11,7.71Z"/><path class="d" d="M256.25,156.01s2.48-.67,5.64-1.9c3.16-1.23,6.99-3.01,9.69-5.23l-.14-.17c-2.67,2.2-6.49,3.97-9.63,5.2-1.57,.61-2.98,1.09-3.99,1.41-.51,.16-.91,.28-1.19,.36-.28,.08-.43,.12-.43,.12l.06,.21h0Z"/><polygon class="d" points="258.8 153.29 260.93 154.34 259.7 156.95 259.9 157.05 261.23 154.24 258.89 153.09 258.8 153.29 258.8 153.29"/><polygon class="d" points="261.34 152.25 263.39 153.26 262.53 155.75 262.74 155.83 263.66 153.15 261.44 152.06 261.34 152.25 261.34 152.25"/><polygon class="d" points="263.7 151.39 265.74 152.39 264.88 154.88 265.09 154.96 266.02 152.28 263.79 151.19 263.7 151.39 263.7 151.39"/><polygon class="d" points="266.29 150.01 268.33 151.01 267.47 153.5 267.69 153.58 268.61 150.9 266.38 149.81 266.29 150.01 266.29 150.01"/></g><g><path class="c" d="M242.85,167.55h0s12.41-6.84,.77-18.25c-12.45,8-.78,18.25-.78,18.25Z"/><path class="d" d="M242.61,166.27s.58-2.57,.99-6.01c.41-3.44,.64-7.75-.07-11.26l-.23,.05c.7,3.47,.47,7.76,.07,11.19-.2,1.71-.45,3.21-.65,4.28-.1,.53-.18,.96-.24,1.25-.06,.29-.1,.45-.1,.45l.22,.05h0Z"/><polygon class="d" points="241.39 162.67 243.36 161.24 245.12 163.61 245.31 163.47 243.41 160.93 241.25 162.48 241.39 162.67 241.39 162.67"/><polygon class="d" points="241.67 159.87 243.56 158.51 245.4 160.48 245.57 160.32 243.59 158.2 241.54 159.69 241.67 159.87 241.67 159.87"/><polygon class="d" points="242.02 157.33 243.91 155.96 245.74 157.94 245.92 157.78 243.94 155.66 241.89 157.15 242.02 157.33 242.02 157.33"/><polygon class="d" points="242.02 154.32 243.91 152.96 245.74 154.93 245.91 154.78 243.94 152.66 241.88 154.14 242.02 154.32 242.02 154.32"/></g></g></svg>