<?xml version="1.0" encoding="UTF-8"?><svg xmlns="http://www.w3.org/2000/svg" viewBox="0 0 381.5 262"><defs><style>.c{fill:#afa57d;}.d{fill:#777159;}</style></defs><g id="a"><g><path class="c" d="M140.64,88.03v8.2h-13.9v78.26h-9.45V96.23h-13.9v-8.2h37.25Z"/><path class="c" d="M177.2,88.03h9.59v86.46h-9.59v-39.06h-18.63v39.06h-9.59V88.03h9.59v39.2h18.63v-39.2Z"/><path class="c" d="M211.67,133.62v32.67h23.77v8.2h-33.36V88.03h32.39v8.2h-22.79v29.19h18.62v8.2h-18.62Zm23.91-67.55l-13.62,17.65h-8.62l10.84-17.65h11.4Z"/><path class="c" d="M268.52,161.98v-23.63c0-1.85-.28-3.03-.83-3.54-.55-.51-1.71-.76-3.47-.76h-9.45c-7.32,0-10.98-3.66-10.98-10.98v-24.05c0-7.32,3.66-10.98,10.98-10.98h12.23c7.32,0,10.98,3.66,10.98,10.98v13.34h-9.59v-11.82c0-1.85-.26-3.03-.76-3.54-.51-.51-1.69-.76-3.54-.76h-6.39c-1.85,0-3.04,.26-3.54,.76-.51,.51-.76,1.69-.76,3.54v20.99c0,1.76,.25,2.92,.76,3.48,.51,.56,1.69,.83,3.54,.83h9.45c7.32,0,10.98,3.66,10.98,10.98v26.69c0,7.32-3.66,10.98-10.98,10.98h-12.09c-7.32,0-10.98-3.66-10.98-10.98v-13.34h9.59v11.82c0,1.85,.26,3.04,.77,3.54,.51,.51,1.69,.76,3.54,.76h6.25c1.76,0,2.92-.25,3.47-.76,.56-.51,.83-1.69,.83-3.54Z"/></g></g><g id="b"><g><path class="c" d="M134.3,121.71h0s12.28-8.31-.86-18.89c-12.22,9.51,.86,18.89,.86,18.89Z"/><path class="d" d="M133.94,120.42s.37-2.71,.48-6.29c.11-3.59-.05-8.06-1.1-11.6l-.23,.07c1.05,3.5,1.2,7.96,1.09,11.53-.05,1.79-.17,3.36-.28,4.48-.05,.56-.1,1.01-.14,1.32-.04,.31-.06,.48-.06,.48l.24,.02h0Z"/><polygon class="d" points="132.33 116.82 134.25 115.16 136.3 117.42 136.48 117.26 134.28 114.83 132.17 116.65 132.33 116.82 132.33 116.82"/><polygon class="d" points="132.37 113.91 134.21 112.31 136.3 114.16 136.46 113.99 134.22 112 132.21 113.74 132.37 113.91 132.37 113.91"/><polygon class="d" points="132.5 111.26 134.34 109.66 136.43 111.51 136.59 111.33 134.35 109.34 132.34 111.08 132.5 111.26 132.5 111.26"/><polygon class="d" points="132.22 108.16 134.06 106.56 136.15 108.41 136.31 108.23 134.07 106.25 132.07 107.99 132.22 108.16 132.22 108.16"/></g><g><path class="c" d="M110.84,147.55h0s13.72-6.55,1.98-19.5c-13.85,7.79-1.99,19.5-1.99,19.5Z"/><path class="d" d="M110.67,146.16s.79-2.71,1.44-6.37c.65-3.66,1.17-8.27,.64-12.07l-.24,.04c.53,3.76,.02,8.35-.64,12-.33,1.82-.68,3.41-.96,4.54-.14,.57-.26,1.02-.34,1.33-.08,.31-.13,.48-.13,.48l.24,.06h0Z"/><polygon class="d" points="109.58 142.22 111.78 140.82 113.52 143.46 113.73 143.33 111.86 140.48 109.45 142.02 109.58 142.22 109.58 142.22"/><polygon class="d" points="110.06 139.24 112.17 137.9 114.01 140.13 114.21 139.97 112.23 137.58 109.93 139.04 110.06 139.24 110.06 139.24"/><polygon class="d" points="110.6 136.54 112.7 135.2 114.55 137.43 114.74 137.27 112.76 134.88 110.46 136.34 110.6 136.54 110.6 136.54"/><polygon class="d" points="110.78 133.32 112.89 131.98 114.73 134.21 114.93 134.05 112.95 131.66 110.65 133.12 110.78 133.32 110.78 133.32"/></g><g><path class="c" d="M168.09,120.76h0s9.47-10.2-4.88-17.27c-9.16,11.29,4.88,17.27,4.88,17.27Z"/><path class="d" d="M167.48,119.64s-.24-2.58-.92-5.91c-.68-3.33-1.78-7.43-3.52-10.49l-.2,.11c1.72,3.02,2.82,7.1,3.5,10.42,.34,1.66,.57,3.13,.71,4.19,.07,.53,.12,.95,.16,1.24,.03,.29,.05,.45,.05,.45l.22-.03h0Z"/><polygon class="d" points="165.23 116.65 166.63 114.71 169 116.38 169.13 116.2 166.58 114.4 165.05 116.52 165.23 116.65 165.23 116.65"/><polygon class="d" points="164.64 113.95 165.98 112.1 168.3 113.38 168.41 113.18 165.92 111.81 164.45 113.82 164.64 113.95 164.64 113.95"/><polygon class="d" points="164.18 111.47 165.52 109.62 167.84 110.9 167.95 110.7 165.46 109.33 164 111.35 164.18 111.47 164.18 111.47"/><polygon class="d" points="163.26 108.67 164.6 106.82 166.92 108.09 167.03 107.9 164.54 106.53 163.07 108.54 163.26 108.67 163.26 108.67"/></g><g><path class="c" d="M138.8,155.44h0s14.12-1.73,7.56-16.72c-14.6,2.79-7.56,16.72-7.56,16.72Z"/><path class="d" d="M139.06,154.16s1.51-2.17,3.17-5.23c1.67-3.05,3.5-6.99,4.15-10.52l-.23-.04c-.64,3.49-2.47,7.41-4.13,10.45-.83,1.52-1.62,2.82-2.2,3.75-.29,.46-.53,.83-.7,1.08-.17,.25-.26,.38-.26,.38l.19,.13h0Z"/><polygon class="d" points="139.27 150.34 141.64 149.75 142.39 152.62 142.62 152.56 141.81 149.48 139.21 150.12 139.27 150.34 139.27 150.34"/><polygon class="d" points="140.58 147.84 142.85 147.28 143.82 149.8 144.04 149.72 142.99 147.01 140.52 147.62 140.58 147.84 140.58 147.84"/><polygon class="d" points="141.85 145.6 144.12 145.04 145.1 147.56 145.31 147.49 144.27 144.77 141.8 145.38 141.85 145.6 141.85 145.6"/><polygon class="d" points="142.98 142.8 145.25 142.24 146.22 144.76 146.44 144.68 145.39 141.97 142.92 142.58 142.98 142.8 142.98 142.8"/></g><g><path class="c" d="M190.31,156h0s12.45-7.05,.57-18.43c-12.48,8.22-.58,18.43-.58,18.43Z"/><path class="d" d="M190.06,154.72s.56-2.6,.93-6.08c.37-3.48,.56-7.84-.2-11.37l-.23,.05c.75,3.49,.57,7.83,.2,11.3-.18,1.73-.42,3.25-.6,4.33-.09,.54-.17,.97-.23,1.27-.06,.3-.09,.46-.09,.46l.23,.04h0Z"/><polygon class="d" points="188.78 151.09 190.75 149.63 192.56 152 192.74 151.86 190.8 149.31 188.64 150.91 188.78 151.09 188.78 151.09"/><polygon class="d" points="189.03 148.26 190.92 146.86 192.8 148.83 192.97 148.68 190.95 146.56 188.9 148.08 189.03 148.26 189.03 148.26"/><polygon class="d" points="189.36 145.69 191.25 144.29 193.12 146.26 193.29 146.11 191.28 143.99 189.22 145.51 189.36 145.69 189.36 145.69"/><polygon class="d" points="189.32 142.66 191.21 141.26 193.08 143.23 193.26 143.07 191.24 140.95 189.18 142.48 189.32 142.66 189.32 142.66"/></g><g><path class="c" d="M244.02,114.65h0s4.7-13.1-11.99-14.47c-3.94,14.02,11.99,14.47,11.99,14.47Z"/><path class="d" d="M242.96,113.82s-1.33-2.34-3.39-5.23c-2.06-2.89-4.86-6.34-7.82-8.58l-.14,.18c2.92,2.21,5.71,5.65,7.77,8.53,1.03,1.44,1.87,2.74,2.46,3.69,.29,.47,.52,.85,.68,1.11,.16,.26,.24,.41,.24,.41l.2-.11h0Z"/><polygon class="d" points="239.54 111.83 240.06 109.49 243.02 110.19 243.07 109.97 239.88 109.22 239.31 111.78 239.54 111.83 239.54 111.83"/><polygon class="d" points="237.83 109.51 238.32 107.27 241.07 107.62 241.1 107.39 238.14 107.02 237.6 109.46 237.83 109.51 237.83 109.51"/><polygon class="d" points="236.34 107.34 236.83 105.1 239.59 105.45 239.61 105.22 236.65 104.85 236.11 107.29 236.34 107.34 236.34 107.34"/><polygon class="d" points="234.27 105.04 234.76 102.8 237.51 103.15 237.54 102.92 234.58 102.55 234.04 104.99 234.27 105.04 234.27 105.04"/></g><g><path class="c" d="M166.77,169.35h0s13.42-.22,8.74-14.93c-13.97,1.17-8.75,14.93-8.75,14.93Z"/><path class="d" d="M167.14,168.17s1.63-1.89,3.49-4.59c1.87-2.7,3.97-6.21,4.94-9.46l-.21-.06c-.95,3.21-3.05,6.71-4.91,9.4-.93,1.34-1.8,2.49-2.44,3.29-.32,.4-.58,.72-.76,.94-.18,.22-.28,.33-.28,.34l.17,.14h0Z"/><polygon class="d" points="167.72 164.61 170 164.29 170.42 167.05 170.64 167.02 170.19 164.05 167.69 164.4 167.72 164.61 167.72 164.61"/><polygon class="d" points="169.2 162.39 171.38 162.09 172.04 164.55 172.26 164.5 171.54 161.85 169.16 162.18 169.2 162.39 169.2 162.39"/><polygon class="d" points="170.62 160.42 172.8 160.12 173.46 162.58 173.67 162.53 172.96 159.88 170.58 160.21 170.62 160.42 170.62 160.42"/><polygon class="d" points="171.95 157.9 174.13 157.6 174.79 160.06 175 160.01 174.29 157.36 171.91 157.69 171.95 157.9 171.95 157.9"/></g><g><path class="c" d="M135.21,175.15h0s9.03-12.59-7.81-18.38c-8.54,13.75,7.81,18.38,7.81,18.38Z"/><path class="d" d="M134.38,174s-.63-2.81-1.84-6.4c-1.22-3.59-3.01-7.96-5.36-11.09l-.2,.15c2.32,3.09,4.12,7.44,5.33,11.02,.61,1.79,1.06,3.38,1.37,4.53,.15,.57,.27,1.03,.35,1.35,.08,.32,.12,.49,.12,.49l.24-.06h0Z"/><polygon class="d" points="131.47 171.01 132.75 168.68 135.6 170.19 135.72 169.97 132.66 168.34 131.26 170.9 131.47 171.01 131.47 171.01"/><polygon class="d" points="130.44 168.12 131.66 165.88 134.4 166.97 134.5 166.74 131.55 165.57 130.22 168 130.44 168.12 130.44 168.12"/><polygon class="d" points="129.59 165.45 130.81 163.21 133.55 164.3 133.65 164.06 130.7 162.9 129.37 165.33 129.59 165.45 129.59 165.45"/><polygon class="d" points="128.17 162.48 129.4 160.25 132.14 161.33 132.23 161.1 129.29 159.93 127.96 162.36 128.17 162.48 128.17 162.48"/></g><g><path class="c" d="M192.64,127.05h0s15.08,.77,10.96-16.09c-15.78,.25-10.96,16.09-10.96,16.09Z"/><path class="d" d="M193.15,125.75s1.97-2,4.27-4.88c2.3-2.89,4.93-6.66,6.26-10.24l-.23-.08c-1.31,3.53-3.93,7.3-6.23,10.17-1.15,1.44-2.21,2.66-2.99,3.51-.39,.43-.71,.77-.93,1-.22,.23-.34,.35-.34,.35l.18,.17h0Z"/><polygon class="d" points="194.06 121.8 196.65 121.62 196.92 124.75 197.16 124.73 196.88 121.36 194.04 121.56 194.06 121.8 194.06 121.8"/><polygon class="d" points="195.89 119.42 198.37 119.25 198.92 122.07 199.16 122.02 198.57 119 195.87 119.19 195.89 119.42 195.89 119.42"/><polygon class="d" points="197.64 117.32 200.11 117.14 200.67 119.96 200.91 119.92 200.31 116.89 197.62 117.08 197.64 117.32 197.64 117.32"/><polygon class="d" points="199.32 114.59 201.8 114.42 202.35 117.24 202.59 117.2 202 114.17 199.3 114.36 199.32 114.59 199.32 114.59"/></g><g><path class="c" d="M226.36,145.06h0s3.38-13.21-12.28-12.58c-2.6,14.01,12.28,12.58,12.28,12.58Z"/><path class="d" d="M225.3,144.38s-1.42-2.1-3.56-4.66c-2.14-2.55-5.01-5.56-7.94-7.38l-.12,.19c2.89,1.79,5.76,4.79,7.89,7.33,1.07,1.27,1.95,2.43,2.57,3.27,.31,.42,.55,.76,.72,1,.17,.24,.25,.37,.25,.37l.18-.13h0Z"/><polygon class="d" points="221.97 142.87 222.27 140.54 225.09 140.87 225.12 140.65 222.08 140.3 221.75 142.84 221.97 142.87 221.97 142.87"/><polygon class="d" points="220.19 140.82 220.48 138.6 223.07 138.61 223.08 138.39 220.29 138.38 219.98 140.8 220.19 140.82 220.19 140.82"/><polygon class="d" points="218.64 138.9 218.93 136.68 221.52 136.69 221.53 136.47 218.74 136.46 218.42 138.88 218.64 138.9 218.64 138.9"/><polygon class="d" points="216.53 136.92 216.82 134.7 219.41 134.71 219.42 134.49 216.63 134.48 216.32 136.9 216.53 136.92 216.53 136.92"/></g><g><path class="c" d="M194.36,162.25h0s9.36,4.36,11.07-7.39c-10.06-3.88-11.07,7.39-11.07,7.39Z"/><path class="d" d="M195.01,161.56s1.76-.76,3.96-2c2.2-1.24,4.83-2.96,6.59-4.88l-.13-.11c-1.74,1.9-4.36,3.62-6.55,4.85-1.1,.62-2.08,1.12-2.79,1.46-.36,.17-.64,.31-.84,.4-.2,.09-.31,.14-.31,.14l.07,.15h0Z"/><polygon class="d" points="196.6 159.29 198.29 159.84 197.65 161.89 197.81 161.94 198.5 159.73 196.65 159.13 196.6 159.29 196.6 159.29"/><polygon class="d" points="198.37 158.25 199.98 158.78 199.61 160.71 199.78 160.74 200.17 158.67 198.42 158.1 198.37 158.25 198.37 158.25"/><polygon class="d" points="200.01 157.37 201.63 157.89 201.26 159.82 201.42 159.85 201.82 157.78 200.06 157.21 200.01 157.37 200.01 157.37"/><polygon class="d" points="201.78 156.07 203.39 156.6 203.02 158.52 203.19 158.56 203.58 156.49 201.83 155.92 201.78 156.07 201.78 156.07"/></g><g><path class="c" d="M237.44,155.98h0s-1.39-10.23-12.2-5.32c2.17,10.56,12.2,5.32,12.2,5.32Z"/><path class="d" d="M236.51,155.81s-1.59-1.07-3.82-2.25c-2.23-1.18-5.1-2.47-7.67-2.91l-.03,.17c2.54,.43,5.4,1.72,7.62,2.89,1.11,.59,2.06,1.15,2.74,1.56,.34,.21,.6,.38,.79,.5,.18,.12,.28,.18,.28,.18l.09-.14h0Z"/><polygon class="d" points="233.74 155.69 233.29 153.98 235.36 153.41 235.32 153.24 233.09 153.86 233.58 155.74 233.74 155.69 233.74 155.69"/><polygon class="d" points="231.91 154.77 231.48 153.13 233.3 152.4 233.24 152.24 231.29 153.02 231.75 154.81 231.91 154.77 231.91 154.77"/><polygon class="d" points="230.28 153.86 229.85 152.22 231.67 151.49 231.61 151.34 229.65 152.12 230.12 153.91 230.28 153.86 230.28 153.86"/><polygon class="d" points="228.23 153.08 227.8 151.43 229.63 150.71 229.57 150.55 227.61 151.33 228.08 153.12 228.23 153.08 228.23 153.08"/></g><g><path class="c" d="M289.35,123.62h0s6.55-12.57-9.46-15.64c-5.95,13.57,9.46,15.64,9.46,15.64Z"/><path class="d" d="M288.45,122.69s-.94-2.46-2.5-5.56c-1.57-3.09-3.76-6.82-6.29-9.35l-.16,.16c2.5,2.5,4.69,6.21,6.25,9.29,.78,1.54,1.4,2.92,1.83,3.92,.21,.5,.38,.9,.49,1.18,.11,.28,.17,.43,.17,.43l.21-.09h0Z"/><polygon class="d" points="285.43 120.36 286.29 118.08 289.06 119.08 289.14 118.86 286.16 117.79 285.22 120.28 285.43 120.36 285.43 120.36"/><polygon class="d" points="284.12 117.87 284.94 115.69 287.56 116.31 287.62 116.09 284.8 115.42 283.91 117.79 284.12 117.87 284.12 117.87"/><polygon class="d" points="283 115.56 283.82 113.38 286.44 114 286.5 113.78 283.68 113.11 282.79 115.48 283 115.56 283 115.56"/><polygon class="d" points="281.34 113.06 282.16 110.87 284.78 111.5 284.83 111.28 282.02 110.6 281.13 112.98 281.34 113.06 281.34 113.06"/></g><g><path class="c" d="M246.51,95.68h0s2.68-13.43-12.99-11.95c-1.85,14.18,12.99,11.95,12.99,11.95Z"/><path class="d" d="M245.42,95.06s-1.53-2.03-3.82-4.47c-2.29-2.44-5.32-5.3-8.36-6.97l-.11,.2c3,1.64,6.03,4.49,8.3,6.92,1.14,1.22,2.09,2.33,2.76,3.14,.33,.41,.59,.73,.77,.96,.18,.23,.27,.35,.27,.35l.17-.14h0Z"/><polygon class="d" points="242 93.72 242.17 91.37 245.02 91.55 245.03 91.33 241.97 91.14 241.78 93.7 242 93.72 242 93.72"/><polygon class="d" points="240.11 91.77 240.28 89.52 242.88 89.4 242.87 89.17 240.08 89.31 239.89 91.75 240.11 91.77 240.11 91.77"/><polygon class="d" points="238.45 89.93 238.62 87.68 241.22 87.56 241.21 87.33 238.42 87.47 238.23 89.91 238.45 89.93 238.45 89.93"/><polygon class="d" points="236.23 88.05 236.4 85.81 239 85.68 238.99 85.46 236.2 85.6 236.01 88.04 236.23 88.05 236.23 88.05"/></g><g><path class="c" d="M267.27,125.47h0s-1.77-13.01-15.51-6.77c2.76,13.44,15.51,6.77,15.51,6.77Z"/><path class="d" d="M266.08,125.25s-2.02-1.36-4.86-2.86c-2.84-1.5-6.49-3.14-9.76-3.7l-.03,.21c3.23,.55,6.87,2.18,9.69,3.68,1.41,.75,2.62,1.46,3.48,1.99,.43,.26,.77,.48,1,.63,.23,.15,.36,.23,.36,.23l.11-.18h0Z"/><polygon class="d" points="262.56 125.1 261.99 122.92 264.62 122.19 264.56 121.98 261.73 122.77 262.36 125.16 262.56 125.1 262.56 125.1"/><polygon class="d" points="260.24 123.92 259.69 121.84 262 120.91 261.93 120.71 259.44 121.71 260.03 123.98 260.24 123.92 260.24 123.92"/><polygon class="d" points="258.16 122.77 257.61 120.69 259.92 119.76 259.85 119.56 257.36 120.56 257.95 122.83 258.16 122.77 258.16 122.77"/><polygon class="d" points="255.56 121.77 255.01 119.68 257.33 118.76 257.25 118.56 254.76 119.55 255.36 121.83 255.56 121.77 255.56 121.77"/></g><g><path class="c" d="M235.62,139.92h0s13.43,5.48,15.03-11.12c-14.38-4.77-15.03,11.12-15.03,11.12Z"/><path class="d" d="M236.49,138.91s2.42-1.19,5.42-3.07c3-1.89,6.58-4.48,8.92-7.3l-.18-.15c-2.31,2.79-5.88,5.37-8.87,7.25-1.49,.94-2.85,1.71-3.82,2.24-.49,.27-.88,.47-1.16,.61-.27,.14-.42,.21-.42,.21l.11,.21h0Z"/><polygon class="d" points="238.57 135.62 240.98 136.27 240.22 139.19 240.45 139.26 241.26 136.11 238.63 135.39 238.57 135.62 238.57 135.62"/><polygon class="d" points="240.98 134.04 243.28 134.67 242.89 137.4 243.13 137.44 243.54 134.5 241.04 133.82 240.98 134.04 240.98 134.04"/><polygon class="d" points="243.23 132.69 245.53 133.31 245.14 136.04 245.37 136.08 245.79 133.15 243.29 132.46 243.23 132.69 243.23 132.69"/><polygon class="d" points="245.62 130.75 247.92 131.38 247.53 134.11 247.76 134.15 248.18 131.21 245.68 130.53 245.62 130.75 245.62 130.75"/></g><g><path class="c" d="M293.12,160.86h0s-1.82-13.38-15.95-6.96c2.84,13.82,15.95,6.96,15.95,6.96Z"/><path class="d" d="M291.91,160.63s-2.08-1.4-5-2.94c-2.92-1.54-6.67-3.23-10.03-3.8l-.04,.22c3.32,.57,7.06,2.25,9.97,3.78,1.45,.77,2.7,1.5,3.58,2.04,.44,.27,.79,.49,1.03,.65,.24,.15,.37,.24,.37,.24l.12-.18h0Z"/><polygon class="d" points="288.28 160.48 287.69 158.24 290.4 157.49 290.34 157.28 287.43 158.09 288.07 160.54 288.28 160.48 288.28 160.48"/><polygon class="d" points="285.89 159.27 285.33 157.12 287.71 156.17 287.63 155.97 285.07 156.99 285.69 159.33 285.89 159.27 285.89 159.27"/><polygon class="d" points="283.75 158.09 283.19 155.94 285.57 154.99 285.49 154.78 282.93 155.81 283.55 158.15 283.75 158.09 283.75 158.09"/><polygon class="d" points="281.08 157.06 280.52 154.91 282.9 153.96 282.82 153.75 280.26 154.78 280.88 157.12 281.08 157.06 281.08 157.06"/></g><g><path class="c" d="M255.97,168.43h0s11.6,7.57,16.11-7.71c-12.63-7.08-16.11,7.71-16.11,7.71Z"/><path class="d" d="M256.96,167.64s2.48-.67,5.64-1.9c3.16-1.23,6.99-3.01,9.69-5.23l-.14-.17c-2.67,2.2-6.49,3.97-9.63,5.2-1.57,.61-2.98,1.09-3.99,1.41-.51,.16-.91,.28-1.19,.36-.28,.08-.43,.12-.43,.12l.06,.21h0Z"/><polygon class="d" points="259.51 164.92 261.65 165.97 260.41 168.58 260.62 168.68 261.94 165.87 259.61 164.72 259.51 164.92 259.51 164.92"/><polygon class="d" points="262.06 163.88 264.1 164.89 263.24 167.38 263.45 167.46 264.38 164.78 262.15 163.69 262.06 163.88 262.06 163.88"/><polygon class="d" points="264.41 163.02 266.46 164.02 265.6 166.51 265.81 166.59 266.73 163.91 264.51 162.82 264.41 163.02 264.41 163.02"/><polygon class="d" points="267 161.64 269.05 162.64 268.19 165.13 268.4 165.21 269.32 162.53 267.1 161.44 267 161.64 267 161.64"/></g><g><path class="c" d="M231.98,172.58h0s10.75,9.23,17.37-5.65c-11.85-8.87-17.37,5.65-17.37,5.65Z"/><path class="d" d="M233.1,171.92s2.61-.35,5.97-1.17c3.36-.82,7.49-2.11,10.53-4l-.12-.19c-3,1.87-7.11,3.16-10.46,3.98-1.68,.41-3.17,.7-4.23,.89-.53,.09-.96,.16-1.26,.21-.3,.05-.46,.07-.46,.07l.04,.23h0Z"/><polygon class="d" points="236.05 169.51 238.08 170.86 236.47 173.33 236.67 173.46 238.39 170.79 236.17 169.32 236.05 169.51 236.05 169.51"/><polygon class="d" points="238.77 168.79 240.71 170.09 239.5 172.49 239.71 172.6 241 170.01 238.89 168.61 238.77 168.79 238.77 168.79"/><polygon class="d" points="241.27 168.23 243.21 169.52 242.01 171.93 242.21 172.04 243.51 169.45 241.4 168.04 241.27 168.23 241.27 168.23"/><polygon class="d" points="244.09 167.18 246.03 168.47 244.82 170.88 245.02 170.99 246.32 168.4 244.21 166.99 244.09 167.18 244.09 167.18"/></g></g></svg>