<?xml version="1.0" encoding="UTF-8"?><svg xmlns="http://www.w3.org/2000/svg" viewBox="0 0 381.5 262"><defs><style>.c{fill:#afa57d;}.d{fill:#777159;}</style></defs><g id="a"><g><path class="c" d="M140.64,88.03v8.2h-13.9v78.26h-9.45V96.23h-13.9v-8.2h37.25Z"/><path class="c" d="M177.2,88.03h9.59v86.46h-9.59v-39.06h-18.63v39.06h-9.59V88.03h9.59v39.2h18.63v-39.2Z"/><path class="c" d="M211.67,133.62v32.67h23.77v8.2h-33.36V88.03h32.39v8.2h-22.79v29.19h18.62v8.2h-18.62Zm23.91-67.55l-13.62,17.65h-8.62l10.84-17.65h11.4Z"/><path class="c" d="M268.52,161.98v-23.63c0-1.85-.28-3.03-.83-3.54-.55-.51-1.71-.76-3.47-.76h-9.45c-7.32,0-10.98-3.66-10.98-10.98v-24.05c0-7.32,3.66-10.98,10.98-10.98h12.23c7.32,0,10.98,3.66,10.98,10.98v13.34h-9.59v-11.82c0-1.85-.26-3.03-.76-3.54-.51-.51-1.69-.76-3.54-.76h-6.39c-1.85,0-3.04,.26-3.54,.76-.51,.51-.76,1.69-.76,3.54v20.99c0,1.76,.25,2.92,.76,3.48,.51,.56,1.69,.83,3.54,.83h9.45c7.32,0,10.98,3.66,10.98,10.98v26.69c0,7.32-3.66,10.98-10.98,10.98h-12.09c-7.32,0-10.98-3.66-10.98-10.98v-13.34h9.59v11.82c0,1.85,.26,3.04,.77,3.54,.51,.51,1.69,.76,3.54,.76h6.25c1.76,0,2.92-.25,3.47-.76,.56-.51,.83-1.69,.83-3.54Z"/></g></g><g id="b"><g><path class="c" d="M135.48,134.34h0s12.28-8.31-.86-18.89c-12.22,9.51,.86,18.89,.86,18.89Z"/><path class="d" d="M135.11,133.05s.37-2.71,.48-6.29c.11-3.59-.05-8.06-1.1-11.6l-.23,.07c1.05,3.5,1.2,7.96,1.09,11.53-.05,1.79-.17,3.36-.28,4.48-.05,.56-.1,1.01-.14,1.32-.04,.31-.06,.48-.06,.48l.24,.02h0Z"/><polygon class="d" points="133.51 129.45 135.43 127.79 137.48 130.05 137.66 129.89 135.46 127.46 133.35 129.28 133.51 129.45 133.51 129.45"/><polygon class="d" points="133.55 126.54 135.39 124.94 137.48 126.79 137.64 126.62 135.39 124.63 133.39 126.37 133.55 126.54 133.55 126.54"/><polygon class="d" points="133.68 123.89 135.52 122.29 137.61 124.14 137.77 123.96 135.52 121.97 133.52 123.71 133.68 123.89 133.68 123.89"/><polygon class="d" points="133.4 120.79 135.24 119.19 137.33 121.04 137.49 120.86 135.25 118.88 133.24 120.62 133.4 120.79 133.4 120.79"/></g><g><path class="c" d="M108.93,154.43h0s13.72-6.55,1.98-19.5c-13.85,7.79-1.99,19.5-1.99,19.5Z"/><path class="d" d="M108.75,153.04s.79-2.71,1.44-6.37c.65-3.66,1.17-8.27,.64-12.07l-.24,.04c.53,3.76,.02,8.35-.64,12-.33,1.82-.68,3.41-.96,4.54-.14,.57-.26,1.02-.34,1.33-.08,.31-.13,.48-.13,.48l.24,.06h0Z"/><polygon class="d" points="107.67 149.1 109.87 147.7 111.61 150.34 111.82 150.21 109.95 147.36 107.54 148.9 107.67 149.1 107.67 149.1"/><polygon class="d" points="108.15 146.12 110.26 144.78 112.1 147.01 112.29 146.85 110.31 144.46 108.02 145.92 108.15 146.12 108.15 146.12"/><polygon class="d" points="108.68 143.42 110.79 142.08 112.63 144.31 112.83 144.15 110.85 141.76 108.55 143.22 108.68 143.42 108.68 143.42"/><polygon class="d" points="108.87 140.2 110.98 138.86 112.82 141.09 113.02 140.93 111.04 138.54 108.74 140 108.87 140.2 108.87 140.2"/></g><g><path class="c" d="M169.94,135.55h0s9.47-10.2-4.88-17.27c-9.16,11.29,4.88,17.27,4.88,17.27Z"/><path class="d" d="M169.32,134.43s-.24-2.58-.92-5.91c-.68-3.33-1.78-7.43-3.52-10.49l-.2,.11c1.72,3.02,2.82,7.1,3.5,10.42,.34,1.66,.57,3.13,.71,4.19,.07,.53,.12,.95,.16,1.24,.03,.29,.05,.45,.05,.45l.22-.03h0Z"/><polygon class="d" points="167.07 131.44 168.48 129.5 170.84 131.17 170.98 130.99 168.43 129.19 166.89 131.31 167.07 131.44 167.07 131.44"/><polygon class="d" points="166.48 128.74 167.82 126.89 170.14 128.17 170.25 127.97 167.76 126.6 166.3 128.62 166.48 128.74 166.48 128.74"/><polygon class="d" points="166.02 126.26 167.37 124.41 169.68 125.69 169.8 125.49 167.3 124.12 165.84 126.14 166.02 126.26 166.02 126.26"/><polygon class="d" points="165.1 123.46 166.44 121.61 168.76 122.89 168.87 122.69 166.38 121.32 164.92 123.33 165.1 123.46 165.1 123.46"/></g><g><path class="c" d="M137.06,165h0s14.12-1.73,7.56-16.72c-14.6,2.79-7.56,16.72-7.56,16.72Z"/><path class="d" d="M137.32,163.72s1.51-2.17,3.17-5.23c1.67-3.05,3.5-6.99,4.15-10.52l-.23-.04c-.64,3.49-2.47,7.41-4.13,10.45-.83,1.52-1.62,2.82-2.2,3.75-.29,.46-.53,.83-.7,1.08-.17,.25-.26,.38-.26,.38l.19,.13h0Z"/><polygon class="d" points="137.53 159.9 139.9 159.31 140.65 162.17 140.88 162.12 140.07 159.03 137.47 159.68 137.53 159.9 137.53 159.9"/><polygon class="d" points="138.84 157.4 141.11 156.83 142.08 159.36 142.3 159.28 141.26 156.57 138.78 157.18 138.84 157.4 138.84 157.4"/><polygon class="d" points="140.12 155.16 142.39 154.6 143.36 157.12 143.58 157.04 142.53 154.33 140.06 154.94 140.12 155.16 140.12 155.16"/><polygon class="d" points="141.24 152.36 143.51 151.79 144.48 154.32 144.7 154.24 143.65 151.53 141.18 152.14 141.24 152.36 141.24 152.36"/></g><g><path class="c" d="M181.3,161.84h0s13.45,4.88,14.38-11.54c-14.36-4.14-14.38,11.54-14.38,11.54Z"/><path class="d" d="M182.12,160.82s2.34-1.26,5.22-3.24c2.88-1.98,6.32-4.67,8.51-7.54l-.19-.14c-2.17,2.84-5.59,5.52-8.46,7.49-1.44,.99-2.74,1.79-3.68,2.35-.47,.28-.85,.5-1.12,.65-.26,.15-.41,.23-.41,.23l.11,.2h0Z"/><polygon class="d" points="184.04 157.49 186.44 158.04 185.81 160.95 186.03 161 186.71 157.87 184.09 157.26 184.04 157.49 184.04 157.49"/><polygon class="d" points="186.36 155.84 188.65 156.37 188.37 159.08 188.6 159.1 188.9 156.19 186.4 155.62 186.36 155.84 186.36 155.84"/><polygon class="d" points="188.52 154.42 190.81 154.94 190.53 157.65 190.76 157.68 191.06 154.77 188.57 154.19 188.52 154.42 188.52 154.42"/><polygon class="d" points="190.8 152.42 193.09 152.94 192.81 155.65 193.04 155.68 193.34 152.77 190.85 152.19 190.8 152.42 190.8 152.42"/></g><g><path class="c" d="M244.36,126.2h0s4.7-13.1-11.99-14.47c-3.94,14.02,11.99,14.47,11.99,14.47Z"/><path class="d" d="M243.3,125.37s-1.33-2.34-3.39-5.23c-2.06-2.89-4.86-6.34-7.82-8.58l-.14,.18c2.92,2.21,5.71,5.65,7.77,8.53,1.03,1.44,1.87,2.74,2.46,3.69,.29,.47,.52,.85,.68,1.11,.16,.26,.24,.41,.24,.41l.2-.11h0Z"/><polygon class="d" points="239.89 123.38 240.4 121.04 243.37 121.74 243.42 121.52 240.22 120.76 239.66 123.33 239.89 123.38 239.89 123.38"/><polygon class="d" points="238.17 121.06 238.67 118.82 241.42 119.17 241.44 118.94 238.49 118.57 237.95 121 238.17 121.06 238.17 121.06"/><polygon class="d" points="236.69 118.89 237.18 116.65 239.93 117 239.96 116.77 237 116.4 236.46 118.84 236.69 118.89 236.69 118.89"/><polygon class="d" points="234.61 116.59 235.11 114.35 237.86 114.7 237.88 114.47 234.92 114.1 234.39 116.54 234.61 116.59 234.61 116.59"/></g><g><path class="c" d="M162.25,173.87h0s11.83,6.35,14.91-8.77c-12.77-5.79-14.92,8.77-14.92,8.77Z"/><path class="d" d="M163.15,173.02s2.34-.86,5.29-2.3c2.95-1.45,6.5-3.48,8.92-5.85l-.15-.15c-2.4,2.34-5.93,4.37-8.87,5.81-1.47,.72-2.79,1.29-3.74,1.69-.48,.2-.86,.35-1.12,.45-.26,.1-.41,.16-.41,.16l.08,.2h0Z"/><polygon class="d" points="165.38 170.19 167.53 171.03 166.56 173.64 166.76 173.72 167.81 170.91 165.46 169.99 165.38 170.19 165.38 170.19"/><polygon class="d" points="167.76 168.98 169.81 169.78 169.19 172.25 169.4 172.31 170.07 169.65 167.83 168.78 167.75 168.98 167.76 168.98"/><polygon class="d" points="169.96 167.95 172.01 168.75 171.39 171.22 171.6 171.28 172.27 168.62 170.03 167.75 169.96 167.95 169.96 167.95"/><polygon class="d" points="172.34 166.4 174.4 167.2 173.78 169.67 173.99 169.73 174.66 167.07 172.42 166.2 172.34 166.4 172.34 166.4"/></g><g><path class="c" d="M145.29,175.29h0s-8.14-13.19-19.97,.13c9.41,13.17,19.97-.13,19.97-.13Z"/><path class="d" d="M143.91,175.62s-2.84-.5-6.61-.76c-3.78-.26-8.5-.28-12.3,.68l.06,.24c3.75-.95,8.45-.93,12.22-.67,1.88,.13,3.53,.32,4.71,.48,.59,.08,1.06,.15,1.38,.2,.32,.05,.5,.08,.5,.08l.04-.25h0Z"/><polygon class="d" points="140.03 177.15 138.37 175.07 140.86 173.02 140.7 172.83 138.03 175.03 139.84 177.31 140.03 177.15 140.03 177.15"/><polygon class="d" points="136.96 176.99 135.37 175 137.43 172.89 137.25 172.71 135.04 174.98 136.77 177.15 136.96 176.99 136.96 176.99"/><polygon class="d" points="134.17 176.75 132.58 174.76 134.63 172.65 134.46 172.47 132.25 174.74 133.98 176.9 134.17 176.75 134.17 176.75"/><polygon class="d" points="130.89 176.91 129.3 174.92 131.35 172.81 131.18 172.63 128.97 174.9 130.7 177.07 130.89 176.91 130.89 176.91"/></g><g><path class="c" d="M193.67,139.25h0s15.08,.77,10.96-16.09c-15.78,.25-10.96,16.09-10.96,16.09Z"/><path class="d" d="M194.18,137.95s1.97-2,4.27-4.88c2.3-2.89,4.93-6.66,6.26-10.24l-.23-.08c-1.31,3.53-3.93,7.3-6.23,10.17-1.15,1.44-2.21,2.66-2.99,3.51-.39,.43-.71,.77-.93,1-.22,.23-.34,.35-.34,.35l.18,.17h0Z"/><polygon class="d" points="195.1 134 197.68 133.82 197.95 136.95 198.19 136.93 197.91 133.56 195.08 133.76 195.1 134 195.1 134"/><polygon class="d" points="196.93 131.62 199.4 131.45 199.96 134.27 200.2 134.23 199.6 131.2 196.91 131.39 196.93 131.62 196.93 131.62"/><polygon class="d" points="198.67 129.52 201.15 129.34 201.7 132.16 201.94 132.12 201.34 129.09 198.65 129.28 198.67 129.52 198.67 129.52"/><polygon class="d" points="200.35 126.8 202.83 126.62 203.39 129.44 203.63 129.4 203.03 126.37 200.33 126.56 200.35 126.8 200.35 126.8"/></g><g><path class="c" d="M224.94,155.94h0s3.38-13.21-12.28-12.58c-2.6,14.01,12.28,12.58,12.28,12.58Z"/><path class="d" d="M223.88,155.26s-1.42-2.1-3.56-4.66c-2.14-2.55-5.01-5.56-7.94-7.38l-.12,.19c2.89,1.79,5.76,4.79,7.89,7.33,1.07,1.27,1.95,2.43,2.57,3.27,.31,.42,.55,.76,.72,1,.17,.24,.25,.37,.25,.37l.18-.13h0Z"/><polygon class="d" points="220.55 153.74 220.85 151.42 223.67 151.75 223.7 151.53 220.66 151.18 220.33 153.72 220.55 153.74 220.55 153.74"/><polygon class="d" points="218.77 151.7 219.06 149.48 221.66 149.49 221.66 149.27 218.87 149.25 218.56 151.67 218.77 151.7 218.77 151.7"/><polygon class="d" points="217.22 149.78 217.51 147.56 220.1 147.57 220.11 147.35 217.32 147.33 217.01 149.75 217.22 149.78 217.22 149.78"/><polygon class="d" points="215.11 147.8 215.4 145.58 217.99 145.59 218 145.37 215.21 145.35 214.9 147.77 215.11 147.8 215.11 147.8"/></g><g><path class="c" d="M192.89,174.31h0s9.36,4.36,11.07-7.39c-10.06-3.88-11.07,7.39-11.07,7.39Z"/><path class="d" d="M193.55,173.62s1.76-.76,3.96-2c2.2-1.24,4.83-2.96,6.59-4.88l-.13-.11c-1.74,1.9-4.36,3.62-6.55,4.85-1.1,.62-2.08,1.12-2.79,1.46-.36,.17-.64,.31-.84,.4-.2,.09-.31,.14-.31,.14l.07,.15h0Z"/><polygon class="d" points="195.14 171.35 196.83 171.9 196.19 173.95 196.35 174 197.03 171.79 195.19 171.19 195.14 171.35 195.14 171.35"/><polygon class="d" points="196.91 170.31 198.52 170.84 198.15 172.76 198.31 172.8 198.71 170.73 196.96 170.16 196.91 170.31 196.91 170.31"/><polygon class="d" points="198.55 169.43 200.16 169.95 199.79 171.88 199.96 171.91 200.36 169.84 198.6 169.27 198.55 169.43 198.55 169.43"/><polygon class="d" points="200.32 168.13 201.93 168.66 201.56 170.58 201.72 170.62 202.12 168.55 200.37 167.98 200.32 168.13 200.32 168.13"/></g><g><path class="c" d="M240.45,161.48h0s-1.39-10.23-12.2-5.32c2.17,10.56,12.2,5.32,12.2,5.32Z"/><path class="d" d="M239.52,161.3s-1.59-1.07-3.82-2.25c-2.23-1.18-5.1-2.47-7.67-2.91l-.03,.17c2.54,.43,5.4,1.72,7.62,2.89,1.11,.59,2.06,1.15,2.74,1.56,.34,.21,.6,.38,.79,.5,.18,.12,.28,.18,.28,.18l.09-.14h0Z"/><polygon class="d" points="236.74 161.19 236.29 159.47 238.36 158.9 238.32 158.74 236.09 159.36 236.59 161.23 236.74 161.19 236.74 161.19"/><polygon class="d" points="234.92 160.26 234.49 158.62 236.31 157.89 236.25 157.73 234.29 158.52 234.76 160.31 234.92 160.26 234.92 160.26"/><polygon class="d" points="233.28 159.36 232.85 157.72 234.67 156.99 234.61 156.83 232.66 157.61 233.12 159.4 233.28 159.36 233.28 159.36"/><polygon class="d" points="231.24 158.57 230.81 156.93 232.63 156.2 232.57 156.04 230.61 156.83 231.08 158.61 231.24 158.57 231.24 158.57"/></g><g><path class="c" d="M291.83,140.08h0s6.55-12.57-9.46-15.64c-5.95,13.57,9.46,15.64,9.46,15.64Z"/><path class="d" d="M290.93,139.14s-.94-2.46-2.5-5.56c-1.57-3.09-3.76-6.82-6.29-9.35l-.16,.16c2.5,2.5,4.69,6.21,6.25,9.29,.78,1.54,1.4,2.92,1.83,3.92,.21,.5,.38,.9,.49,1.18,.11,.28,.17,.43,.17,.43l.21-.09h0Z"/><polygon class="d" points="287.91 136.82 288.77 134.54 291.54 135.54 291.62 135.32 288.64 134.25 287.7 136.74 287.91 136.82 287.91 136.82"/><polygon class="d" points="286.6 134.33 287.42 132.15 290.04 132.77 290.1 132.55 287.28 131.88 286.39 134.25 286.6 134.33 286.6 134.33"/><polygon class="d" points="285.48 132.02 286.3 129.84 288.92 130.46 288.98 130.24 286.16 129.57 285.27 131.94 285.48 132.02 285.48 132.02"/><polygon class="d" points="283.82 129.51 284.64 127.33 287.26 127.96 287.31 127.74 284.5 127.06 283.6 129.44 283.82 129.51 283.82 129.51"/></g><g><path class="c" d="M248.38,101.78h0s2.68-13.43-12.99-11.95c-1.85,14.18,12.99,11.95,12.99,11.95Z"/><path class="d" d="M247.28,101.16s-1.53-2.03-3.82-4.47c-2.29-2.44-5.32-5.3-8.36-6.97l-.11,.2c3,1.64,6.03,4.49,8.3,6.92,1.14,1.22,2.09,2.33,2.76,3.14,.33,.41,.59,.73,.77,.96,.18,.23,.27,.35,.27,.35l.17-.14h0Z"/><polygon class="d" points="243.86 99.81 244.04 97.47 246.88 97.65 246.9 97.42 243.84 97.24 243.64 99.8 243.86 99.81 243.86 99.81"/><polygon class="d" points="241.97 97.86 242.14 95.62 244.74 95.49 244.73 95.27 241.94 95.41 241.75 97.85 241.97 97.86 241.97 97.86"/><polygon class="d" points="240.31 96.02 240.48 93.78 243.08 93.65 243.07 93.43 240.28 93.57 240.1 96.01 240.31 96.02 240.31 96.02"/><polygon class="d" points="238.09 94.15 238.26 91.91 240.86 91.78 240.85 91.56 238.06 91.69 237.88 94.14 238.09 94.15 238.09 94.15"/></g><g><path class="c" d="M262.12,138.86h0s9.16-9.41-4.22-16.39c-8.89,10.45,4.22,16.39,4.22,16.39Z"/><path class="d" d="M261.56,137.79s-.17-2.43-.74-5.59c-.57-3.16-1.52-7.05-3.09-9.97l-.19,.1c1.55,2.88,2.51,6.76,3.07,9.9,.28,1.57,.47,2.97,.58,3.97,.06,.5,.1,.9,.12,1.18,.02,.28,.04,.43,.04,.43l.21-.02h0Z"/><polygon class="d" points="259.51 134.92 260.87 133.13 263.07 134.75 263.2 134.58 260.83 132.84 259.34 134.8 259.51 134.92 259.51 134.92"/><polygon class="d" points="259.01 132.37 260.31 130.65 262.47 131.91 262.58 131.72 260.26 130.38 258.84 132.24 259.01 132.37 259.01 132.37"/><polygon class="d" points="258.63 130.02 259.94 128.3 262.1 129.56 262.21 129.38 259.89 128.03 258.46 129.9 258.63 130.02 258.63 130.02"/><polygon class="d" points="257.82 127.36 259.13 125.64 261.29 126.9 261.4 126.71 259.08 125.36 257.65 127.23 257.82 127.36 257.82 127.36"/></g><g><path class="c" d="M236.17,145.65h0s13.43,5.48,15.03-11.12c-14.38-4.77-15.03,11.12-15.03,11.12Z"/><path class="d" d="M237.04,144.64s2.42-1.19,5.42-3.07c3-1.89,6.58-4.48,8.92-7.3l-.18-.15c-2.31,2.79-5.88,5.37-8.87,7.25-1.49,.94-2.85,1.71-3.82,2.24-.49,.27-.88,.47-1.16,.61-.27,.14-.42,.21-.42,.21l.11,.21h0Z"/><polygon class="d" points="239.12 141.35 241.52 142 240.77 144.92 241 144.98 241.81 141.84 239.18 141.12 239.12 141.35 239.12 141.35"/><polygon class="d" points="241.53 139.77 243.83 140.4 243.44 143.13 243.67 143.17 244.09 140.23 241.59 139.55 241.53 139.77 241.53 139.77"/><polygon class="d" points="243.78 138.42 246.08 139.04 245.69 141.77 245.92 141.81 246.34 138.87 243.84 138.19 243.78 138.42 243.78 138.42"/><polygon class="d" points="246.17 136.48 248.47 137.11 248.08 139.84 248.31 139.87 248.73 136.94 246.23 136.26 246.17 136.48 246.17 136.48"/></g><g><path class="c" d="M294.64,168.21h0s-1.82-13.38-15.95-6.96c2.84,13.82,15.95,6.96,15.95,6.96Z"/><path class="d" d="M293.42,167.98s-2.08-1.4-5-2.94c-2.92-1.54-6.67-3.23-10.03-3.8l-.04,.22c3.32,.57,7.06,2.25,9.97,3.78,1.45,.77,2.7,1.5,3.58,2.04,.44,.27,.79,.49,1.03,.65,.24,.15,.37,.24,.37,.24l.12-.18h0Z"/><polygon class="d" points="289.8 167.84 289.21 165.59 291.91 164.84 291.86 164.63 288.95 165.44 289.59 167.89 289.8 167.84 289.8 167.84"/><polygon class="d" points="287.41 166.62 286.85 164.48 289.23 163.52 289.15 163.32 286.59 164.34 287.2 166.68 287.41 166.62 287.41 166.62"/><polygon class="d" points="285.27 165.44 284.71 163.29 287.09 162.34 287.01 162.14 284.45 163.16 285.06 165.5 285.27 165.44 285.27 165.44"/><polygon class="d" points="282.6 164.41 282.03 162.26 284.42 161.31 284.34 161.11 281.78 162.13 282.39 164.47 282.6 164.41 282.6 164.41"/></g><g><path class="c" d="M255.01,178.97h0s11.6,7.57,16.11-7.71c-12.63-7.08-16.11,7.71-16.11,7.71Z"/><path class="d" d="M256.01,178.18s2.48-.67,5.64-1.9c3.16-1.23,6.99-3.01,9.69-5.23l-.14-.17c-2.67,2.2-6.49,3.97-9.63,5.2-1.57,.61-2.98,1.09-3.99,1.41-.51,.16-.91,.28-1.19,.36-.28,.08-.43,.12-.43,.12l.06,.21h0Z"/><polygon class="d" points="258.56 175.47 260.69 176.52 259.46 179.12 259.66 179.22 260.99 176.42 258.65 175.27 258.56 175.47 258.56 175.47"/><polygon class="d" points="261.1 174.43 263.15 175.43 262.29 177.92 262.5 178 263.42 175.33 261.2 174.23 261.1 174.43 261.1 174.43"/><polygon class="d" points="263.46 173.56 265.5 174.57 264.64 177.06 264.85 177.13 265.78 174.46 263.55 173.37 263.46 173.56 263.46 173.56"/><polygon class="d" points="266.05 172.18 268.09 173.19 267.23 175.68 267.44 175.75 268.37 173.08 266.14 171.98 266.05 172.18 266.05 172.18"/></g><g><path class="c" d="M232.97,177.91h0s10.75,9.23,17.37-5.65c-11.85-8.87-17.37,5.65-17.37,5.65Z"/><path class="d" d="M234.09,177.24s2.61-.35,5.97-1.17c3.36-.82,7.49-2.11,10.53-4l-.12-.19c-3,1.87-7.11,3.16-10.46,3.98-1.68,.41-3.17,.7-4.23,.89-.53,.09-.96,.16-1.26,.21-.3,.05-.46,.07-.46,.07l.04,.23h0Z"/><polygon class="d" points="237.04 174.83 239.06 176.18 237.46 178.66 237.65 178.79 239.38 176.12 237.16 174.64 237.04 174.83 237.04 174.83"/><polygon class="d" points="239.76 174.12 241.7 175.41 240.49 177.82 240.69 177.93 241.99 175.34 239.88 173.93 239.76 174.12 239.76 174.12"/><polygon class="d" points="242.26 173.56 244.2 174.85 242.99 177.26 243.2 177.37 244.49 174.78 242.38 173.37 242.26 173.56 242.26 173.56"/><polygon class="d" points="245.07 172.51 247.01 173.8 245.81 176.21 246.01 176.31 247.31 173.72 245.2 172.32 245.07 172.51 245.07 172.51"/></g></g></svg>