<?xml version="1.0" encoding="UTF-8"?><svg xmlns="http://www.w3.org/2000/svg" viewBox="0 0 381.5 262"><defs><style>.c{fill:#afa57d;}.d{fill:#777159;}</style></defs><g id="a"><g><path class="c" d="M140.64,88.03v8.2h-13.9v78.26h-9.45V96.23h-13.9v-8.2h37.25Z"/><path class="c" d="M177.2,88.03h9.59v86.46h-9.59v-39.06h-18.63v39.06h-9.59V88.03h9.59v39.2h18.63v-39.2Z"/><path class="c" d="M211.67,133.62v32.67h23.77v8.2h-33.36V88.03h32.39v8.2h-22.79v29.19h18.62v8.2h-18.62Zm23.91-67.55l-13.62,17.65h-8.62l10.84-17.65h11.4Z"/><path class="c" d="M268.52,161.98v-23.63c0-1.85-.28-3.03-.83-3.54-.55-.51-1.71-.76-3.47-.76h-9.45c-7.32,0-10.98-3.66-10.98-10.98v-24.05c0-7.32,3.66-10.98,10.98-10.98h12.23c7.32,0,10.98,3.66,10.98,10.98v13.34h-9.59v-11.82c0-1.85-.26-3.03-.76-3.54-.51-.51-1.69-.76-3.54-.76h-6.39c-1.85,0-3.04,.26-3.54,.76-.51,.51-.76,1.69-.76,3.54v20.99c0,1.76,.25,2.92,.76,3.48,.51,.56,1.69,.83,3.54,.83h9.45c7.32,0,10.98,3.66,10.98,10.98v26.69c0,7.32-3.66,10.98-10.98,10.98h-12.09c-7.32,0-10.98-3.66-10.98-10.98v-13.34h9.59v11.82c0,1.85,.26,3.04,.77,3.54,.51,.51,1.69,.76,3.54,.76h6.25c1.76,0,2.92-.25,3.47-.76,.56-.51,.83-1.69,.83-3.54Z"/></g></g><g id="b"><g><path class="c" d="M145.3,97.83h0s-1.39-10.23-12.2-5.32c2.17,10.56,12.2,5.32,12.2,5.32Z"/><path class="d" d="M144.37,97.65s-1.59-1.07-3.82-2.25c-2.23-1.18-5.1-2.47-7.67-2.91l-.03,.17c2.54,.43,5.4,1.72,7.62,2.89,1.11,.59,2.06,1.15,2.74,1.56,.34,.21,.6,.38,.79,.5,.18,.12,.28,.18,.28,.18l.09-.14h0Z"/><polygon class="d" points="141.6 97.54 141.15 95.82 143.21 95.25 143.17 95.09 140.94 95.7 141.44 97.58 141.6 97.54 141.6 97.54"/><polygon class="d" points="139.77 96.61 139.34 94.97 141.16 94.24 141.1 94.08 139.14 94.87 139.61 96.65 139.77 96.61 139.77 96.61"/><polygon class="d" points="138.13 95.71 137.7 94.07 139.52 93.34 139.47 93.18 137.51 93.96 137.98 95.75 138.13 95.71 138.13 95.71"/><polygon class="d" points="136.09 94.92 135.66 93.28 137.48 92.55 137.42 92.39 135.46 93.18 135.93 94.96 136.09 94.92 136.09 94.92"/></g><g><path class="c" d="M110.4,126.62h0s10.25,1.21,8.2-10.48c-10.77-.54-8.2,10.48-8.2,10.48Z"/><path class="d" d="M110.8,125.76s1.43-1.27,3.13-3.14c1.7-1.87,3.67-4.32,4.73-6.7l-.15-.07c-1.05,2.35-3.01,4.8-4.71,6.66-.85,.93-1.63,1.71-2.2,2.26-.28,.27-.52,.49-.68,.64-.16,.15-.25,.23-.25,.23l.11,.12h0Z"/><polygon class="d" points="111.61 123.11 113.38 123.1 113.42 125.25 113.58 125.25 113.54 122.94 111.6 122.94 111.61 123.11 111.61 123.11"/><polygon class="d" points="112.96 121.57 114.66 121.56 114.91 123.51 115.07 123.49 114.8 121.4 112.96 121.41 112.96 121.57 112.96 121.57"/><polygon class="d" points="114.24 120.21 115.94 120.21 116.19 122.15 116.36 122.13 116.09 120.04 114.24 120.05 114.24 120.21 114.24 120.21"/><polygon class="d" points="115.52 118.43 117.21 118.43 117.46 120.37 117.63 120.35 117.36 118.26 115.51 118.27 115.52 118.43 115.52 118.43"/></g><g><path class="c" d="M168.86,97.14h0s-1.39-10.23-12.2-5.32c2.17,10.56,12.2,5.32,12.2,5.32Z"/><path class="d" d="M167.92,96.96s-1.59-1.07-3.82-2.25c-2.23-1.18-5.1-2.47-7.67-2.91l-.03,.17c2.54,.43,5.4,1.72,7.62,2.89,1.11,.59,2.06,1.15,2.74,1.56,.34,.21,.6,.38,.79,.5,.18,.12,.28,.18,.28,.18l.09-.14h0Z"/><polygon class="d" points="165.15 96.85 164.7 95.14 166.77 94.56 166.73 94.4 164.5 95.02 164.99 96.89 165.15 96.85 165.15 96.85"/><polygon class="d" points="163.33 95.92 162.89 94.28 164.72 93.55 164.66 93.4 162.7 94.18 163.17 95.97 163.33 95.92 163.33 95.92"/><polygon class="d" points="161.69 95.02 161.26 93.38 163.08 92.65 163.02 92.49 161.06 93.28 161.53 95.06 161.69 95.02 161.69 95.02"/><polygon class="d" points="159.65 94.23 159.22 92.59 161.04 91.86 160.98 91.71 159.02 92.49 159.49 94.28 159.65 94.23 159.65 94.23"/></g><g><path class="c" d="M140.71,134.37h0s10.09,2.17,9.15-9.66c-10.67-1.56-9.15,9.66-9.15,9.66Z"/><path class="d" d="M141.2,133.55s1.55-1.13,3.42-2.83c1.87-1.7,4.06-3.96,5.35-6.22l-.15-.08c-1.27,2.24-3.45,4.49-5.32,6.18-.93,.84-1.78,1.55-2.4,2.04-.31,.25-.56,.44-.73,.57-.17,.13-.27,.2-.27,.2l.1,.13h0Z"/><polygon class="d" points="142.25 130.98 144.01 131.14 143.85 133.29 144.02 133.3 144.19 131 142.26 130.82 142.25 130.98 142.25 130.98"/><polygon class="d" points="143.74 129.58 145.43 129.74 145.5 131.7 145.66 131.7 145.59 129.59 143.75 129.42 143.74 129.58 143.74 129.58"/><polygon class="d" points="145.15 128.35 146.84 128.51 146.9 130.47 147.07 130.47 147 128.36 145.16 128.19 145.15 128.35 145.15 128.35"/><polygon class="d" points="146.58 126.7 148.27 126.85 148.34 128.82 148.51 128.81 148.44 126.7 146.6 126.54 146.58 126.7 146.58 126.7"/></g><g><path class="c" d="M191.57,126.45h0s6.16-8.28-4.99-12.34c-5.85,9.06,4.98,12.34,4.98,12.34Z"/><path class="d" d="M191.02,125.67s-.39-1.88-1.15-4.28c-.77-2.4-1.91-5.33-3.44-7.45l-.14,.1c1.51,2.09,2.65,5.01,3.42,7.4,.38,1.2,.67,2.26,.86,3.03,.1,.38,.17,.69,.22,.91,.05,.21,.07,.33,.07,.33l.16-.04h0Z"/><polygon class="d" points="189.12 123.65 190 122.11 191.88 123.15 191.97 123 189.94 121.88 188.98 123.57 189.12 123.65 189.12 123.65"/><polygon class="d" points="188.47 121.71 189.31 120.23 191.12 120.99 191.19 120.83 189.24 120.02 188.33 121.63 188.47 121.71 188.47 121.71"/><polygon class="d" points="187.93 119.92 188.77 118.44 190.59 119.2 190.65 119.04 188.71 118.23 187.79 119.84 187.93 119.92 187.93 119.92"/><polygon class="d" points="187.03 117.92 187.87 116.45 189.68 117.2 189.75 117.05 187.8 116.24 186.88 117.84 187.03 117.92 187.03 117.92"/></g><g><path class="c" d="M243.77,94.48h0s-1.39-10.23-12.2-5.32c2.17,10.56,12.2,5.32,12.2,5.32Z"/><path class="d" d="M242.84,94.3s-1.59-1.07-3.82-2.25c-2.23-1.18-5.1-2.47-7.67-2.91l-.03,.17c2.54,.43,5.4,1.72,7.62,2.89,1.11,.59,2.06,1.15,2.74,1.56,.34,.21,.6,.38,.79,.5,.18,.12,.28,.18,.28,.18l.09-.14h0Z"/><polygon class="d" points="240.07 94.19 239.62 92.48 241.69 91.9 241.65 91.74 239.42 92.36 239.91 94.23 240.07 94.19 240.07 94.19"/><polygon class="d" points="238.24 93.26 237.81 91.62 239.63 90.89 239.58 90.74 237.62 91.52 238.09 93.31 238.24 93.26 238.24 93.26"/><polygon class="d" points="236.61 92.36 236.18 90.72 238 89.99 237.94 89.83 235.98 90.62 236.45 92.4 236.61 92.36 236.61 92.36"/><polygon class="d" points="234.57 91.57 234.13 89.93 235.96 89.2 235.9 89.05 233.94 89.83 234.41 91.62 234.57 91.57 234.57 91.57"/></g><g><path class="c" d="M171.13,145.68h0s10.3,.7,7.66-10.88c-10.78,0-7.67,10.88-7.67,10.88Z"/><path class="d" d="M171.49,144.8s1.37-1.34,2.97-3.29c1.6-1.95,3.45-4.5,4.39-6.93l-.16-.06c-.94,2.4-2.77,4.94-4.37,6.88-.8,.97-1.54,1.79-2.08,2.37-.27,.29-.49,.52-.64,.67-.15,.16-.24,.24-.24,.24l.12,.12h0Z"/><polygon class="d" points="172.16 142.11 173.93 142.02 174.07 144.16 174.24 144.15 174.08 141.84 172.15 141.95 172.16 142.11 172.16 142.11"/><polygon class="d" points="173.43 140.51 175.13 140.42 175.48 142.35 175.64 142.32 175.27 140.25 173.42 140.35 173.43 140.51 173.43 140.51"/><polygon class="d" points="174.65 139.09 176.34 139 176.69 140.93 176.86 140.9 176.48 138.83 174.64 138.93 174.65 139.09 174.65 139.09"/><polygon class="d" points="175.83 137.25 177.53 137.16 177.87 139.09 178.04 139.06 177.66 136.98 175.82 137.08 175.83 137.25 175.83 137.25"/></g><g><path class="c" d="M131.06,157.41h0s6.02-8.39-5.2-12.25c-5.69,9.16,5.2,12.25,5.2,12.25Z"/><path class="d" d="M130.51,156.65s-.42-1.87-1.23-4.26c-.81-2.39-2.01-5.3-3.57-7.39l-.13,.1c1.55,2.06,2.74,4.96,3.55,7.34,.4,1.19,.71,2.25,.91,3.02,.1,.38,.18,.69,.23,.9,.05,.21,.08,.33,.08,.33l.16-.04h0Z"/><polygon class="d" points="128.57 154.66 129.43 153.1 131.32 154.11 131.4 153.96 129.36 152.88 128.43 154.58 128.57 154.66 128.57 154.66"/><polygon class="d" points="127.88 152.73 128.7 151.24 130.52 151.96 130.59 151.81 128.63 151.03 127.74 152.65 127.88 152.73 127.88 152.73"/><polygon class="d" points="127.32 150.95 128.13 149.46 129.96 150.18 130.02 150.03 128.06 149.25 127.17 150.87 127.32 150.95 127.32 150.95"/><polygon class="d" points="126.38 148.97 127.19 147.48 129.02 148.21 129.08 148.05 127.12 147.27 126.23 148.89 126.38 148.97 126.38 148.97"/></g><g><path class="c" d="M196.63,100.72h0s10.03,2.43,9.4-9.42c-10.63-1.83-9.4,9.42-9.4,9.42Z"/><path class="d" d="M197.14,99.92s1.58-1.09,3.49-2.74c1.91-1.65,4.16-3.85,5.5-6.08l-.14-.09c-1.33,2.21-3.57,4.4-5.47,6.04-.95,.82-1.82,1.5-2.45,1.98-.32,.24-.57,.43-.75,.55-.18,.13-.27,.19-.27,.2l.1,.13h0Z"/><polygon class="d" points="198.25 97.38 200.02 97.58 199.8 99.72 199.96 99.74 200.2 97.44 198.27 97.21 198.25 97.38 198.25 97.38"/><polygon class="d" points="199.78 96.01 201.47 96.21 201.48 98.17 201.65 98.17 201.64 96.06 199.8 95.85 199.78 96.01 199.78 96.01"/><polygon class="d" points="201.22 94.82 202.91 95.02 202.92 96.98 203.09 96.98 203.07 94.87 201.24 94.66 201.22 94.82 201.22 94.82"/><polygon class="d" points="202.7 93.2 204.38 93.4 204.4 95.36 204.57 95.36 204.55 93.26 202.72 93.04 202.7 93.2 202.7 93.2"/></g><g><path class="c" d="M221.35,116.61h0s-1.39-10.23-12.2-5.32c2.17,10.56,12.2,5.32,12.2,5.32Z"/><path class="d" d="M220.42,116.44s-1.59-1.07-3.82-2.25c-2.23-1.18-5.1-2.47-7.67-2.91l-.03,.17c2.54,.43,5.4,1.72,7.62,2.89,1.11,.59,2.06,1.15,2.74,1.56,.34,.21,.6,.38,.79,.5,.18,.12,.28,.18,.28,.18l.09-.14h0Z"/><polygon class="d" points="217.64 116.32 217.19 114.61 219.26 114.04 219.22 113.87 216.99 114.49 217.49 116.37 217.64 116.32 217.64 116.32"/><polygon class="d" points="215.82 115.4 215.39 113.76 217.21 113.03 217.15 112.87 215.19 113.65 215.66 115.44 215.82 115.4 215.82 115.4"/><polygon class="d" points="214.18 114.49 213.75 112.85 215.57 112.12 215.51 111.97 213.56 112.75 214.03 114.54 214.18 114.49 214.18 114.49"/><polygon class="d" points="212.14 113.71 211.71 112.06 213.53 111.34 213.47 111.18 211.51 111.96 211.98 113.75 212.14 113.71 212.14 113.71"/></g><g><path class="c" d="M198.67,149.28h0s10.2-1.6,5.07-12.3c-10.52,2.38-5.07,12.3-5.07,12.3Z"/><path class="d" d="M198.83,148.34s1.04-1.61,2.17-3.87c1.13-2.25,2.37-5.15,2.75-7.73l-.17-.02c-.38,2.55-1.61,5.43-2.74,7.68-.57,1.12-1.11,2.09-1.51,2.77-.2,.34-.36,.61-.48,.8-.11,.19-.18,.29-.18,.29l.14,.09h0Z"/><polygon class="d" points="198.88 145.57 200.59 145.08 201.21 147.14 201.37 147.09 200.7 144.88 198.84 145.41 198.88 145.57 198.88 145.57"/><polygon class="d" points="199.77 143.72 201.41 143.26 202.17 145.07 202.33 145 201.5 143.06 199.73 143.57 199.77 143.72 199.77 143.72"/><polygon class="d" points="200.64 142.07 202.28 141.61 203.04 143.41 203.2 143.35 202.37 141.41 200.6 141.91 200.64 142.07 200.64 142.07"/><polygon class="d" points="201.39 140.01 203.02 139.55 203.79 141.35 203.94 141.29 203.12 139.35 201.34 139.85 201.39 140.01 201.39 140.01"/></g><g><path class="c" d="M237.55,137.2h0s-1.39-10.23-12.2-5.32c2.17,10.56,12.2,5.32,12.2,5.32Z"/><path class="d" d="M236.62,137.03s-1.59-1.07-3.82-2.25c-2.23-1.18-5.1-2.47-7.67-2.91l-.03,.17c2.54,.43,5.4,1.72,7.62,2.89,1.11,.59,2.06,1.15,2.74,1.56,.34,.21,.6,.38,.79,.5,.18,.12,.28,.18,.28,.18l.09-.14h0Z"/><polygon class="d" points="233.84 136.91 233.39 135.2 235.46 134.62 235.42 134.46 233.19 135.08 233.69 136.96 233.84 136.91 233.84 136.91"/><polygon class="d" points="232.02 135.99 231.59 134.34 233.41 133.61 233.35 133.46 231.39 134.24 231.86 136.03 232.02 135.99 232.02 135.99"/><polygon class="d" points="230.38 135.08 229.95 133.44 231.77 132.71 231.71 132.55 229.76 133.34 230.22 135.13 230.38 135.08 230.38 135.08"/><polygon class="d" points="228.34 134.29 227.91 132.65 229.73 131.92 229.67 131.77 227.71 132.55 228.18 134.34 228.34 134.29 228.34 134.29"/></g><g><path class="c" d="M285.59,97.33h0s-1.39-10.23-12.2-5.32c2.17,10.56,12.2,5.32,12.2,5.32Z"/><path class="d" d="M284.66,97.16s-1.59-1.07-3.82-2.25c-2.23-1.18-5.1-2.47-7.67-2.91l-.03,.17c2.54,.43,5.4,1.72,7.62,2.89,1.11,.59,2.06,1.15,2.74,1.56,.34,.21,.6,.38,.79,.5,.18,.12,.28,.18,.28,.18l.09-.14h0Z"/><polygon class="d" points="281.88 97.04 281.43 95.33 283.5 94.75 283.46 94.59 281.23 95.21 281.73 97.09 281.88 97.04 281.88 97.04"/><polygon class="d" points="280.06 96.11 279.63 94.47 281.45 93.74 281.39 93.59 279.43 94.37 279.9 96.16 280.06 96.11 280.06 96.11"/><polygon class="d" points="278.42 95.21 277.99 93.57 279.81 92.84 279.75 92.68 277.8 93.47 278.27 95.25 278.42 95.21 278.42 95.21"/><polygon class="d" points="276.38 94.42 275.95 92.78 277.77 92.05 277.71 91.9 275.75 92.68 276.22 94.47 276.38 94.42 276.38 94.42"/></g><g><path class="c" d="M241.66,72.72h0s-1.39-10.23-12.2-5.32c2.17,10.56,12.2,5.32,12.2,5.32Z"/><path class="d" d="M240.73,72.55s-1.59-1.07-3.82-2.25c-2.23-1.18-5.1-2.47-7.67-2.91l-.03,.17c2.54,.43,5.4,1.72,7.62,2.89,1.11,.59,2.06,1.15,2.74,1.56,.34,.21,.6,.38,.79,.5,.18,.12,.28,.18,.28,.18l.09-.14h0Z"/><polygon class="d" points="237.96 72.43 237.51 70.72 239.58 70.14 239.54 69.98 237.31 70.6 237.8 72.48 237.96 72.43 237.96 72.43"/><polygon class="d" points="236.13 71.51 235.7 69.86 237.52 69.14 237.46 68.98 235.51 69.76 235.97 71.55 236.13 71.51 236.13 71.51"/><polygon class="d" points="234.5 70.6 234.07 68.96 235.89 68.23 235.83 68.08 233.87 68.86 234.34 70.65 234.5 70.6 234.5 70.6"/><polygon class="d" points="232.45 69.81 232.02 68.17 233.84 67.44 233.79 67.29 231.83 68.07 232.3 69.86 232.45 69.81 232.45 69.81"/></g><g><path class="c" d="M263.91,115.93h0s-1.39-10.23-12.2-5.32c2.17,10.56,12.2,5.32,12.2,5.32Z"/><path class="d" d="M262.97,115.75s-1.59-1.07-3.82-2.25c-2.23-1.18-5.1-2.47-7.67-2.91l-.03,.17c2.54,.43,5.4,1.72,7.62,2.89,1.11,.59,2.06,1.15,2.74,1.56,.34,.21,.6,.38,.79,.5,.18,.12,.28,.18,.28,.18l.09-.14h0Z"/><polygon class="d" points="260.2 115.64 259.75 113.92 261.82 113.35 261.78 113.19 259.55 113.8 260.04 115.68 260.2 115.64 260.2 115.64"/><polygon class="d" points="258.38 114.71 257.94 113.07 259.77 112.34 259.71 112.18 257.75 112.97 258.22 114.75 258.38 114.71 258.38 114.71"/><polygon class="d" points="256.74 113.81 256.31 112.16 258.13 111.44 258.07 111.28 256.11 112.06 256.58 113.85 256.74 113.81 256.74 113.81"/><polygon class="d" points="254.7 113.02 254.27 111.38 256.09 110.65 256.03 110.49 254.07 111.28 254.54 113.06 254.7 113.02 254.7 113.02"/></g><g><path class="c" d="M238.36,131.64h0s9.56,3.9,10.7-7.91c-10.24-3.39-10.7,7.91-10.7,7.91Z"/><path class="d" d="M238.98,130.92s1.72-.84,3.86-2.19c2.14-1.34,4.69-3.19,6.35-5.19l-.13-.11c-1.64,1.98-4.18,3.82-6.31,5.16-1.06,.67-2.03,1.22-2.72,1.59-.35,.19-.63,.34-.82,.44-.19,.1-.3,.15-.3,.15l.08,.15h0Z"/><polygon class="d" points="240.46 128.58 242.17 129.04 241.64 131.12 241.8 131.17 242.38 128.93 240.5 128.42 240.46 128.58 240.46 128.58"/><polygon class="d" points="242.18 127.46 243.82 127.9 243.54 129.85 243.7 129.87 244 127.78 242.22 127.3 242.18 127.46 242.18 127.46"/><polygon class="d" points="243.78 126.49 245.41 126.94 245.14 128.88 245.3 128.91 245.6 126.82 243.82 126.33 243.78 126.49 243.78 126.49"/><polygon class="d" points="245.48 125.11 247.12 125.56 246.84 127.5 247 127.53 247.3 125.44 245.52 124.96 245.48 125.11 245.48 125.11"/></g><g><path class="c" d="M285.72,143.61h0s-1.39-10.23-12.2-5.32c2.17,10.56,12.2,5.32,12.2,5.32Z"/><path class="d" d="M284.78,143.43s-1.59-1.07-3.82-2.25c-2.23-1.18-5.1-2.47-7.67-2.91l-.03,.17c2.54,.43,5.4,1.72,7.62,2.89,1.11,.59,2.06,1.15,2.74,1.56,.34,.21,.6,.38,.79,.5,.18,.12,.28,.18,.28,.18l.09-.14h0Z"/><polygon class="d" points="282.01 143.32 281.56 141.6 283.63 141.03 283.59 140.86 281.36 141.48 281.85 143.36 282.01 143.32 282.01 143.32"/><polygon class="d" points="280.19 142.39 279.76 140.75 281.58 140.02 281.52 139.86 279.56 140.64 280.03 142.43 280.19 142.39 280.19 142.39"/><polygon class="d" points="278.55 141.48 278.12 139.84 279.94 139.11 279.88 138.96 277.92 139.74 278.39 141.53 278.55 141.48 278.55 141.48"/><polygon class="d" points="276.51 140.7 276.08 139.06 277.9 138.33 277.84 138.17 275.88 138.95 276.35 140.74 276.51 140.7 276.51 140.7"/></g><g><path class="c" d="M258.73,154.18h0s8.65,5.64,12-5.74c-9.41-5.27-12,5.74-12,5.74Z"/><path class="d" d="M259.47,153.59s1.85-.5,4.2-1.42c2.35-.92,5.21-2.24,7.22-3.9l-.11-.13c-1.99,1.64-4.83,2.96-7.18,3.87-1.17,.46-2.22,.81-2.97,1.05-.38,.12-.68,.21-.89,.27-.21,.06-.32,.09-.32,.09l.05,.16h0Z"/><polygon class="d" points="261.37 151.56 262.96 152.35 262.04 154.29 262.2 154.36 263.19 152.27 261.44 151.42 261.37 151.56 261.37 151.56"/><polygon class="d" points="263.27 150.79 264.79 151.54 264.15 153.39 264.31 153.45 265 151.46 263.34 150.64 263.27 150.79 263.27 150.79"/><polygon class="d" points="265.02 150.15 266.55 150.89 265.91 152.75 266.06 152.81 266.75 150.81 265.09 150 265.02 150.15 265.02 150.15"/><polygon class="d" points="266.96 149.12 268.48 149.86 267.84 151.72 268 151.78 268.68 149.78 267.03 148.97 266.96 149.12 266.96 149.12"/></g><g><path class="c" d="M243.49,162.33h0s9.04-4.99,.56-13.29c-9.07,5.83-.57,13.29-.57,13.29Z"/><path class="d" d="M243.32,161.4s.43-1.87,.72-4.38c.3-2.51,.47-5.65-.05-8.2l-.16,.03c.51,2.52,.34,5.66,.05,8.15-.15,1.25-.33,2.34-.47,3.12-.07,.39-.13,.7-.18,.91-.04,.21-.07,.33-.07,.33l.16,.03h0Z"/><polygon class="d" points="242.43 158.77 243.86 157.73 245.14 159.46 245.28 159.36 243.9 157.5 242.33 158.64 242.43 158.77 242.43 158.77"/><polygon class="d" points="242.63 156.73 244.01 155.74 245.35 157.18 245.47 157.06 244.03 155.52 242.54 156.6 242.63 156.73 242.63 156.73"/><polygon class="d" points="242.89 154.88 244.26 153.89 245.6 155.33 245.72 155.21 244.29 153.67 242.79 154.75 242.89 154.88 242.89 154.88"/><polygon class="d" points="242.89 152.69 244.26 151.7 245.6 153.14 245.72 153.02 244.29 151.48 242.79 152.56 242.89 152.69 242.89 152.69"/></g></g></svg>