<?xml version="1.0" encoding="UTF-8"?><svg xmlns="http://www.w3.org/2000/svg" viewBox="0 0 381.5 262"><defs><style>.c{fill:#afa57d;}</style></defs><g id="a"><g><path class="c" d="M140.64,88.03v8.2h-13.9v78.26h-9.45V96.23h-13.9v-8.2h37.25Z"/><path class="c" d="M177.2,88.03h9.59v86.46h-9.59v-39.06h-18.63v39.06h-9.59V88.03h9.59v39.2h18.63v-39.2Z"/><path class="c" d="M211.67,133.62v32.67h23.77v8.2h-33.36V88.03h32.39v8.2h-22.79v29.19h18.62v8.2h-18.62Zm23.91-67.55l-13.62,17.65h-8.62l10.84-17.65h11.4Z"/><path class="c" d="M268.52,161.98v-23.63c0-1.85-.28-3.03-.83-3.54-.55-.51-1.71-.76-3.47-.76h-9.45c-7.32,0-10.98-3.66-10.98-10.98v-24.05c0-7.32,3.66-10.98,10.98-10.98h12.23c7.32,0,10.98,3.66,10.98,10.98v13.34h-9.59v-11.82c0-1.85-.26-3.03-.76-3.54-.51-.51-1.69-.76-3.54-.76h-6.39c-1.85,0-3.04,.26-3.54,.76-.51,.51-.76,1.69-.76,3.54v20.99c0,1.76,.25,2.92,.76,3.48,.51,.56,1.69,.83,3.54,.83h9.45c7.32,0,10.98,3.66,10.98,10.98v26.69c0,7.32-3.66,10.98-10.98,10.98h-12.09c-7.32,0-10.98-3.66-10.98-10.98v-13.34h9.59v11.82c0,1.85,.26,3.04,.77,3.54,.51,.51,1.69,.76,3.54,.76h6.25c1.76,0,2.92-.25,3.47-.76,.56-.51,.83-1.69,.83-3.54Z"/></g></g><g id="b"/></svg>