<?xml version="1.0" encoding="UTF-8"?><svg xmlns="http://www.w3.org/2000/svg" viewBox="0 0 381.5 262"><defs><style>.c{fill:#afa57d;}.d{fill:#777159;}</style></defs><g id="a"><g><path class="c" d="M140.64,88.03v8.2h-13.9v78.26h-9.45V96.23h-13.9v-8.2h37.25Z"/><path class="c" d="M177.2,88.03h9.59v86.46h-9.59v-39.06h-18.63v39.06h-9.59V88.03h9.59v39.2h18.63v-39.2Z"/><path class="c" d="M211.67,133.62v32.67h23.77v8.2h-33.36V88.03h32.39v8.2h-22.79v29.19h18.62v8.2h-18.62Zm23.91-67.55l-13.62,17.65h-8.62l10.84-17.65h11.4Z"/><path class="c" d="M268.52,161.98v-23.63c0-1.85-.28-3.03-.83-3.54-.55-.51-1.71-.76-3.47-.76h-9.45c-7.32,0-10.98-3.66-10.98-10.98v-24.05c0-7.32,3.66-10.98,10.98-10.98h12.23c7.32,0,10.98,3.66,10.98,10.98v13.34h-9.59v-11.82c0-1.85-.26-3.03-.76-3.54-.51-.51-1.69-.76-3.54-.76h-6.39c-1.85,0-3.04,.26-3.54,.76-.51,.51-.76,1.69-.76,3.54v20.99c0,1.76,.25,2.92,.76,3.48,.51,.56,1.69,.83,3.54,.83h9.45c7.32,0,10.98,3.66,10.98,10.98v26.69c0,7.32-3.66,10.98-10.98,10.98h-12.09c-7.32,0-10.98-3.66-10.98-10.98v-13.34h9.59v11.82c0,1.85,.26,3.04,.77,3.54,.51,.51,1.69,.76,3.54,.76h6.25c1.76,0,2.92-.25,3.47-.76,.56-.51,.83-1.69,.83-3.54Z"/></g></g><g id="b"><g><path class="c" d="M129.4,179.47h0s12.28-8.31-.86-18.89c-12.22,9.51,.86,18.89,.86,18.89Z"/><path class="d" d="M129.04,178.18s.37-2.71,.48-6.29c.11-3.59-.05-8.06-1.1-11.6l-.23,.07c1.05,3.5,1.2,7.96,1.09,11.53-.05,1.79-.17,3.36-.28,4.48-.05,.56-.1,1.01-.14,1.32-.04,.31-.06,.48-.06,.48l.24,.02h0Z"/><polygon class="d" points="127.43 174.58 129.35 172.91 131.4 175.18 131.58 175.02 129.38 172.58 127.28 174.41 127.43 174.58 127.43 174.58"/><polygon class="d" points="127.47 171.67 129.31 170.07 131.4 171.92 131.56 171.75 129.32 169.76 127.32 171.5 127.47 171.67 127.47 171.67"/><polygon class="d" points="127.6 169.02 129.44 167.42 131.53 169.27 131.69 169.09 129.45 167.1 127.44 168.84 127.6 169.02 127.6 169.02"/><polygon class="d" points="127.32 165.92 129.16 164.32 131.25 166.17 131.42 165.99 129.17 164.01 127.17 165.74 127.32 165.92 127.32 165.92"/></g><g><path class="c" d="M108.9,180.98h0s13.72-6.55,1.98-19.5c-13.85,7.79-1.99,19.5-1.99,19.5Z"/><path class="d" d="M108.73,179.59s.79-2.71,1.44-6.37c.65-3.66,1.17-8.27,.64-12.07l-.24,.04c.53,3.76,.02,8.35-.64,12-.33,1.82-.68,3.41-.96,4.54-.14,.57-.26,1.02-.34,1.33-.08,.31-.13,.48-.13,.48l.24,.06h0Z"/><polygon class="d" points="107.64 175.65 109.84 174.25 111.58 176.89 111.79 176.76 109.92 173.91 107.51 175.45 107.64 175.65 107.64 175.65"/><polygon class="d" points="108.12 172.67 110.23 171.33 112.07 173.56 112.27 173.4 110.29 171.01 107.99 172.47 108.12 172.67 108.12 172.67"/><polygon class="d" points="108.66 169.97 110.77 168.63 112.61 170.86 112.8 170.7 110.82 168.31 108.52 169.77 108.66 169.97 108.66 169.97"/><polygon class="d" points="108.84 166.75 110.95 165.41 112.79 167.64 112.99 167.48 111.01 165.09 108.71 166.55 108.84 166.75 108.84 166.75"/></g><g><path class="c" d="M163.95,175.88h0s9.41-10.27-5.42-17.92c-9.07,11.41,5.41,17.92,5.41,17.92Z"/><path class="d" d="M163.29,174.71s-.31-2.66-1.09-6.11c-.77-3.45-2.01-7.7-3.86-10.9l-.2,.11c1.83,3.15,3.06,7.39,3.83,10.83,.39,1.72,.66,3.24,.83,4.34,.09,.55,.15,.99,.19,1.29,.04,.3,.06,.47,.06,.47l.23-.02h0Z"/><polygon class="d" points="160.92 171.57 162.3 169.62 164.76 171.39 164.89 171.21 162.25 169.3 160.73 171.44 160.92 171.57 160.92 171.57"/><polygon class="d" points="160.25 168.78 161.57 166.91 163.97 168.28 164.08 168.08 161.5 166.6 160.06 168.65 160.25 168.78 160.25 168.78"/><polygon class="d" points="159.72 166.21 161.04 164.34 163.44 165.71 163.55 165.51 160.97 164.04 159.53 166.08 159.72 166.21 159.72 166.21"/><polygon class="d" points="158.71 163.3 160.03 161.43 162.43 162.8 162.54 162.6 159.96 161.12 158.52 163.17 158.71 163.3 158.71 163.3"/></g><g><path class="c" d="M141.49,179.15h0s14.12-1.73,7.56-16.72c-14.6,2.79-7.56,16.72-7.56,16.72Z"/><path class="d" d="M141.75,177.87s1.51-2.17,3.17-5.23c1.67-3.05,3.5-6.99,4.15-10.52l-.23-.04c-.64,3.49-2.47,7.41-4.13,10.45-.83,1.52-1.62,2.82-2.2,3.75-.29,.46-.53,.83-.7,1.08-.17,.25-.26,.38-.26,.38l.19,.13h0Z"/><polygon class="d" points="141.96 174.05 144.33 173.46 145.09 176.32 145.31 176.27 144.5 173.19 141.9 173.83 141.96 174.05 141.96 174.05"/><polygon class="d" points="143.27 171.55 145.54 170.99 146.51 173.51 146.73 173.43 145.69 170.72 143.21 171.33 143.27 171.55 143.27 171.55"/><polygon class="d" points="144.55 169.31 146.82 168.75 147.79 171.27 148.01 171.19 146.96 168.48 144.49 169.09 144.55 169.31 144.55 169.31"/><polygon class="d" points="145.67 166.51 147.94 165.95 148.91 168.47 149.13 168.39 148.09 165.68 145.61 166.29 145.67 166.51 145.67 166.51"/></g><g><path class="c" d="M180.67,175.54h0s10.23,8.83,17.32-5.84c-11.33-8.45-17.32,5.84-17.32,5.84Z"/><path class="d" d="M181.79,174.87s2.58-.39,5.93-1.26c3.35-.86,7.45-2.2,10.52-4.1l-.11-.19c-3.03,1.88-7.12,3.22-10.46,4.08-1.67,.43-3.14,.74-4.2,.95-.53,.1-.96,.18-1.25,.23-.29,.05-.45,.07-.45,.07l.03,.22h0Z"/><polygon class="d" points="184.79 172.46 186.74 173.74 185.06 176.19 185.25 176.31 187.05 173.68 184.92 172.27 184.79 172.46 184.79 172.46"/><polygon class="d" points="187.5 171.72 189.36 172.94 188.08 175.32 188.27 175.42 189.65 172.87 187.63 171.53 187.5 171.72 187.5 171.72"/><polygon class="d" points="189.98 171.12 191.84 172.35 190.56 174.72 190.76 174.82 192.14 172.27 190.11 170.93 189.98 171.12 189.98 171.12"/><polygon class="d" points="192.8 170.04 194.66 171.27 193.38 173.64 193.57 173.74 194.95 171.19 192.92 169.85 192.8 170.04 192.8 170.04"/></g><g><path class="c" d="M235.87,175.04h0s10.39-9.26-3.62-18.44c-10.16,10.43,3.62,18.44,3.62,18.44Z"/><path class="d" d="M235.34,173.8s-.05-2.69-.48-6.21c-.43-3.53-1.24-7.89-2.76-11.27l-.21,.09c1.51,3.34,2.32,7.69,2.74,11.2,.21,1.76,.33,3.31,.4,4.41,.03,.55,.05,1,.06,1.3,.01,.31,.01,.47,.01,.47h.23Z"/><polygon class="d" points="233.29 170.43 234.86 168.62 237.13 170.65 237.28 170.48 234.83 168.29 233.11 170.27 233.29 170.43 233.29 170.43"/><polygon class="d" points="232.89 167.57 234.4 165.84 236.65 167.46 236.78 167.27 234.36 165.53 232.72 167.41 232.89 167.57 232.89 167.57"/><polygon class="d" points="232.62 164.95 234.12 163.22 236.38 164.84 236.51 164.66 234.08 162.91 232.45 164.8 232.62 164.95 232.62 164.95"/><polygon class="d" points="231.9 161.94 233.4 160.21 235.65 161.83 235.78 161.64 233.36 159.9 231.72 161.79 231.9 161.94 231.9 161.94"/></g><g><path class="c" d="M163.29,174.92h0s5.35,12.32,17.14,2.37c-6.43-12.46-17.14-2.37-17.14-2.37Z"/><path class="d" d="M164.51,174.81s2.37,.78,5.58,1.47c3.21,.69,7.25,1.3,10.63,.94l-.02-.22c-3.33,.35-7.36-.25-10.56-.94-1.6-.34-2.99-.71-3.98-.99-.49-.14-.89-.26-1.16-.34-.27-.08-.42-.13-.42-.13l-.06,.21h0Z"/><polygon class="d" points="168.02 173.98 169.19 175.97 166.8 177.42 166.91 177.6 169.48 176.05 168.21 173.87 168.02 173.98 168.02 173.98"/><polygon class="d" points="170.64 174.5 171.75 176.4 169.73 177.96 169.86 178.13 172.03 176.46 170.82 174.39 170.64 174.5 170.64 174.5"/><polygon class="d" points="173 175.06 174.12 176.96 172.1 178.51 172.22 178.69 174.4 177.02 173.18 174.94 173 175.06 173 175.06"/><polygon class="d" points="175.84 175.32 176.95 177.22 174.93 178.78 175.06 178.95 177.23 177.28 176.02 175.21 175.84 175.32 175.84 175.32"/></g><g><path class="c" d="M145.29,175.29h0s-8.14-13.19-19.97,.13c9.41,13.17,19.97-.13,19.97-.13Z"/><path class="d" d="M143.91,175.62s-2.84-.5-6.61-.76c-3.78-.26-8.5-.28-12.3,.68l.06,.24c3.75-.95,8.45-.93,12.22-.67,1.88,.13,3.53,.32,4.71,.48,.59,.08,1.06,.15,1.38,.2,.32,.05,.5,.08,.5,.08l.04-.25h0Z"/><polygon class="d" points="140.03 177.15 138.37 175.07 140.86 173.02 140.7 172.83 138.03 175.03 139.84 177.31 140.03 177.15 140.03 177.15"/><polygon class="d" points="136.96 176.99 135.37 175 137.43 172.89 137.25 172.71 135.04 174.98 136.77 177.15 136.96 176.99 136.96 176.99"/><polygon class="d" points="134.17 176.75 132.58 174.76 134.63 172.65 134.46 172.47 132.25 174.74 133.98 176.9 134.17 176.75 134.17 176.75"/><polygon class="d" points="130.89 176.91 129.3 174.92 131.35 172.81 131.18 172.63 128.97 174.9 130.7 177.07 130.89 176.91 130.89 176.91"/></g><g><path class="c" d="M195.09,176.72h0s15.08,.77,10.96-16.09c-15.78,.25-10.96,16.09-10.96,16.09Z"/><path class="d" d="M195.6,175.43s1.97-2,4.27-4.88c2.3-2.89,4.93-6.66,6.26-10.24l-.23-.08c-1.31,3.53-3.93,7.3-6.23,10.17-1.15,1.44-2.21,2.66-2.99,3.51-.39,.43-.71,.77-.93,1-.22,.23-.34,.35-.34,.35l.18,.17h0Z"/><polygon class="d" points="196.52 171.47 199.1 171.29 199.37 174.42 199.61 174.4 199.33 171.03 196.5 171.23 196.52 171.47 196.52 171.47"/><polygon class="d" points="198.34 169.1 200.82 168.92 201.37 171.74 201.62 171.7 201.02 168.67 198.32 168.86 198.34 169.1 198.34 169.1"/><polygon class="d" points="200.09 166.99 202.56 166.82 203.12 169.63 203.36 169.59 202.76 166.56 200.07 166.75 200.09 166.99 200.09 166.99"/><polygon class="d" points="201.77 164.27 204.25 164.09 204.8 166.91 205.05 166.87 204.45 163.84 201.75 164.03 201.77 164.27 201.77 164.27"/></g><g><path class="c" d="M224.94,179.44h0s3.38-13.21-12.28-12.58c-2.6,14.01,12.28,12.58,12.28,12.58Z"/><path class="d" d="M223.88,178.76s-1.42-2.1-3.56-4.66c-2.14-2.55-5.01-5.56-7.94-7.38l-.12,.19c2.89,1.79,5.76,4.79,7.89,7.33,1.07,1.27,1.95,2.43,2.57,3.27,.31,.42,.55,.76,.72,1,.17,.24,.25,.37,.25,.37l.18-.13h0Z"/><polygon class="d" points="220.55 177.24 220.85 174.92 223.67 175.24 223.7 175.02 220.66 174.67 220.33 177.22 220.55 177.24 220.55 177.24"/><polygon class="d" points="218.77 175.2 219.06 172.97 221.66 172.99 221.66 172.77 218.87 172.75 218.56 175.17 218.77 175.2 218.77 175.2"/><polygon class="d" points="217.22 173.28 217.51 171.05 220.1 171.07 220.11 170.85 217.32 170.83 217.01 173.25 217.22 173.28 217.22 173.28"/><polygon class="d" points="215.11 171.3 215.4 169.07 217.99 169.09 218 168.87 215.21 168.85 214.9 171.27 215.11 171.3 215.11 171.3"/></g><g><path class="c" d="M192.89,174.31h0s9.36,4.36,11.07-7.39c-10.06-3.88-11.07,7.39-11.07,7.39Z"/><path class="d" d="M193.55,173.62s1.76-.76,3.96-2c2.2-1.24,4.83-2.96,6.59-4.88l-.13-.11c-1.74,1.9-4.36,3.62-6.55,4.85-1.1,.62-2.08,1.12-2.79,1.46-.36,.17-.64,.31-.84,.4-.2,.09-.31,.14-.31,.14l.07,.15h0Z"/><polygon class="d" points="195.14 171.35 196.83 171.9 196.19 173.95 196.35 174 197.03 171.79 195.19 171.19 195.14 171.35 195.14 171.35"/><polygon class="d" points="196.91 170.31 198.52 170.84 198.15 172.76 198.31 172.8 198.71 170.73 196.96 170.16 196.91 170.31 196.91 170.31"/><polygon class="d" points="198.55 169.43 200.16 169.95 199.79 171.88 199.96 171.91 200.36 169.84 198.6 169.27 198.55 169.43 198.55 169.43"/><polygon class="d" points="200.32 168.13 201.93 168.66 201.56 170.58 201.72 170.62 202.12 168.55 200.37 167.98 200.32 168.13 200.32 168.13"/></g><g><path class="c" d="M244.43,176.42h0s-1.39-10.23-12.2-5.32c2.17,10.56,12.2,5.32,12.2,5.32Z"/><path class="d" d="M243.5,176.24s-1.59-1.07-3.82-2.25c-2.23-1.18-5.1-2.47-7.67-2.91l-.03,.17c2.54,.43,5.4,1.72,7.62,2.89,1.11,.59,2.06,1.15,2.74,1.56,.34,.21,.6,.38,.79,.5,.18,.12,.28,.18,.28,.18l.09-.14h0Z"/><polygon class="d" points="240.73 176.13 240.28 174.41 242.35 173.84 242.3 173.68 240.08 174.3 240.57 176.17 240.73 176.13 240.73 176.13"/><polygon class="d" points="238.9 175.2 238.47 173.56 240.29 172.83 240.23 172.67 238.28 173.46 238.74 175.25 238.9 175.2 238.9 175.2"/><polygon class="d" points="237.27 174.3 236.84 172.66 238.66 171.93 238.6 171.77 236.64 172.55 237.11 174.34 237.27 174.3 237.27 174.3"/><polygon class="d" points="235.22 173.51 234.79 171.87 236.61 171.14 236.56 170.98 234.6 171.77 235.07 173.55 235.22 173.51 235.22 173.51"/></g><g><path class="c" d="M283.06,172.21h0s11.29,8.58,17.01-6.68c-12.37-8.15-17.01,6.68-17.01,6.68Z"/><path class="d" d="M284.14,171.48s2.59-.51,5.9-1.53c3.31-1.02,7.35-2.56,10.27-4.63l-.14-.19c-2.89,2.05-6.91,3.58-10.21,4.6-1.65,.51-3.12,.89-4.18,1.14-.53,.13-.95,.22-1.25,.28-.29,.06-.45,.09-.45,.09l.05,.22h0Z"/><polygon class="d" points="286.94 168.9 289.04 170.12 287.59 172.69 287.79 172.81 289.35 170.04 287.05 168.7 286.94 168.9 286.94 168.9"/><polygon class="d" points="289.61 168.02 291.63 169.2 290.57 171.67 290.78 171.77 291.91 169.11 289.72 167.83 289.61 168.02 289.61 168.02"/><polygon class="d" points="292.08 167.31 294.09 168.49 293.03 170.96 293.24 171.06 294.38 168.39 292.19 167.11 292.08 167.31 292.08 167.31"/><polygon class="d" points="294.83 166.09 296.84 167.27 295.78 169.74 295.99 169.84 297.13 167.17 294.94 165.89 294.83 166.09 294.83 166.09"/></g><g><path class="c" d="M240.78,156.39h0s13.66,.91,10.15-14.43c-14.3,.01-10.15,14.43-10.15,14.43Z"/><path class="d" d="M241.26,155.23s1.81-1.78,3.94-4.37c2.12-2.59,4.56-5.97,5.82-9.19l-.21-.08c-1.24,3.18-3.67,6.56-5.78,9.14-1.06,1.29-2.04,2.38-2.76,3.14-.36,.38-.65,.69-.85,.89-.2,.21-.31,.32-.31,.32l.16,.15h0Z"/><polygon class="d" points="242.14 151.66 244.49 151.53 244.69 154.37 244.91 154.36 244.7 151.3 242.13 151.44 242.14 151.66 242.14 151.66"/><polygon class="d" points="243.83 149.53 246.08 149.41 246.54 151.97 246.76 151.93 246.27 149.18 243.82 149.32 243.83 149.53 243.83 149.53"/><polygon class="d" points="245.44 147.65 247.69 147.52 248.15 150.08 248.37 150.05 247.87 147.3 245.43 147.43 245.44 147.65 245.44 147.65"/><polygon class="d" points="247.01 145.2 249.25 145.08 249.72 147.64 249.94 147.6 249.44 144.85 246.99 144.99 247.01 145.2 247.01 145.2"/></g><g><path class="c" d="M267.12,180.23h0s9.16-9.41-4.22-16.39c-8.89,10.45,4.22,16.39,4.22,16.39Z"/><path class="d" d="M266.57,179.15s-.17-2.43-.74-5.59c-.57-3.16-1.52-7.05-3.09-9.97l-.19,.1c1.55,2.88,2.51,6.76,3.07,9.9,.28,1.57,.47,2.97,.58,3.97,.06,.5,.1,.9,.12,1.18,.02,.28,.04,.43,.04,.43l.21-.02h0Z"/><polygon class="d" points="264.51 176.29 265.88 174.49 268.07 176.12 268.2 175.95 265.84 174.2 264.34 176.16 264.51 176.29 264.51 176.29"/><polygon class="d" points="264.01 173.73 265.32 172.01 267.47 173.27 267.58 173.09 265.27 171.74 263.84 173.61 264.01 173.73 264.01 173.73"/><polygon class="d" points="263.63 171.38 264.94 169.67 267.1 170.92 267.21 170.74 264.89 169.39 263.47 171.26 263.63 171.38 263.63 171.38"/><polygon class="d" points="262.82 168.72 264.13 167 266.29 168.26 266.4 168.08 264.08 166.73 262.66 168.6 262.82 168.72 262.82 168.72"/></g><g><path class="c" d="M240.23,177.15h0s13.43,5.48,15.03-11.12c-14.38-4.77-15.03,11.12-15.03,11.12Z"/><path class="d" d="M241.1,176.14s2.42-1.19,5.42-3.07c3-1.89,6.58-4.48,8.92-7.3l-.18-.15c-2.31,2.79-5.88,5.37-8.87,7.25-1.49,.94-2.85,1.71-3.82,2.24-.49,.27-.88,.47-1.16,.61-.27,.14-.42,.21-.42,.21l.11,.21h0Z"/><polygon class="d" points="243.18 172.84 245.58 173.49 244.83 176.42 245.06 176.48 245.87 173.33 243.24 172.62 243.18 172.84 243.18 172.84"/><polygon class="d" points="245.59 171.27 247.89 171.89 247.5 174.62 247.73 174.66 248.15 171.73 245.65 171.04 245.59 171.27 245.59 171.27"/><polygon class="d" points="247.84 169.91 250.14 170.54 249.75 173.27 249.98 173.3 250.4 170.37 247.89 169.69 247.84 169.91 247.84 169.91"/><polygon class="d" points="250.23 167.98 252.53 168.6 252.14 171.33 252.37 171.37 252.79 168.43 250.28 167.75 250.23 167.98 250.23 167.98"/></g><g><path class="c" d="M292.56,177.5h0s-1.82-13.38-15.95-6.96c2.84,13.82,15.95,6.96,15.95,6.96Z"/><path class="d" d="M291.34,177.27s-2.08-1.4-5-2.94c-2.92-1.54-6.67-3.23-10.03-3.8l-.04,.22c3.32,.57,7.06,2.25,9.97,3.78,1.45,.77,2.7,1.5,3.58,2.04,.44,.27,.79,.49,1.03,.65,.24,.15,.37,.24,.37,.24l.12-.18h0Z"/><polygon class="d" points="287.71 177.12 287.12 174.88 289.83 174.13 289.78 173.91 286.86 174.72 287.51 177.18 287.71 177.12 287.71 177.12"/><polygon class="d" points="285.33 175.91 284.76 173.76 287.14 172.81 287.07 172.6 284.51 173.63 285.12 175.96 285.33 175.91 285.33 175.91"/><polygon class="d" points="283.19 174.73 282.62 172.58 285.01 171.63 284.93 171.42 282.37 172.45 282.98 174.78 283.19 174.73 283.19 174.73"/><polygon class="d" points="280.52 173.7 279.95 171.55 282.33 170.6 282.26 170.39 279.7 171.42 280.31 173.75 280.52 173.7 280.52 173.7"/></g><g><path class="c" d="M255.01,178.97h0s11.6,7.57,16.11-7.71c-12.63-7.08-16.11,7.71-16.11,7.71Z"/><path class="d" d="M256.01,178.18s2.48-.67,5.64-1.9c3.16-1.23,6.99-3.01,9.69-5.23l-.14-.17c-2.67,2.2-6.49,3.97-9.63,5.2-1.57,.61-2.98,1.09-3.99,1.41-.51,.16-.91,.28-1.19,.36-.28,.08-.43,.12-.43,.12l.06,.21h0Z"/><polygon class="d" points="258.56 175.47 260.69 176.52 259.46 179.12 259.66 179.22 260.99 176.42 258.65 175.27 258.56 175.47 258.56 175.47"/><polygon class="d" points="261.1 174.43 263.15 175.43 262.29 177.92 262.5 178 263.42 175.33 261.2 174.23 261.1 174.43 261.1 174.43"/><polygon class="d" points="263.46 173.56 265.5 174.57 264.64 177.06 264.85 177.13 265.78 174.46 263.55 173.37 263.46 173.56 263.46 173.56"/><polygon class="d" points="266.05 172.18 268.09 173.19 267.23 175.68 267.44 175.75 268.37 173.08 266.14 171.98 266.05 172.18 266.05 172.18"/></g><g><path class="c" d="M232.97,177.91h0s10.75,9.23,17.37-5.65c-11.85-8.87-17.37,5.65-17.37,5.65Z"/><path class="d" d="M234.09,177.24s2.61-.35,5.97-1.17c3.36-.82,7.49-2.11,10.53-4l-.12-.19c-3,1.87-7.11,3.16-10.46,3.98-1.68,.41-3.17,.7-4.23,.89-.53,.09-.96,.16-1.26,.21-.3,.05-.46,.07-.46,.07l.04,.23h0Z"/><polygon class="d" points="237.04 174.83 239.06 176.18 237.46 178.66 237.65 178.79 239.38 176.12 237.16 174.64 237.04 174.83 237.04 174.83"/><polygon class="d" points="239.76 174.12 241.7 175.41 240.49 177.82 240.69 177.93 241.99 175.34 239.88 173.93 239.76 174.12 239.76 174.12"/><polygon class="d" points="242.26 173.56 244.2 174.85 242.99 177.26 243.2 177.37 244.49 174.78 242.38 173.37 242.26 173.56 242.26 173.56"/><polygon class="d" points="245.07 172.51 247.01 173.8 245.81 176.21 246.01 176.31 247.31 173.72 245.2 172.32 245.07 172.51 245.07 172.51"/></g></g></svg>