<?xml version="1.0" encoding="UTF-8"?><svg xmlns="http://www.w3.org/2000/svg" viewBox="0 0 555.26 262"><defs><style>.c{fill:#afa57d;}.d{fill:#777159;}</style></defs><g id="a"><g><path class="c" d="M67.05,174.49l-3.61-21.96h-17.51l-3.2,21.96h-9.59l13.48-86.46h15.15l14.87,86.46h-9.59Zm-20.02-30.16h15.15l-8.06-49.62-7.09,49.62Z"/><path class="c" d="M121.12,113.61h-9.59v-13.07c0-1.85-.28-3.03-.83-3.54-.56-.51-1.72-.76-3.47-.76h-7.65c-1.85,0-3.04,.26-3.54,.76s-.76,1.69-.76,3.54v61.58c0,1.76,.25,2.92,.76,3.48,.51,.56,1.69,.83,3.54,.83h7.65c1.76,0,2.92-.28,3.47-.83,.56-.56,.83-1.71,.83-3.48v-13.07h9.59v14.6c0,7.32-3.66,10.98-10.98,10.98h-13.48c-7.32,0-10.98-3.66-10.98-10.98V99.01c0-7.32,3.66-10.98,10.98-10.98h13.48c7.32,0,10.98,3.66,10.98,10.98v14.6Z"/><path class="c" d="M169.07,113.61h-9.59v-13.07c0-1.85-.28-3.03-.83-3.54-.56-.51-1.72-.76-3.47-.76h-7.65c-1.85,0-3.04,.26-3.54,.76s-.76,1.69-.76,3.54v61.58c0,1.76,.25,2.92,.76,3.48,.51,.56,1.69,.83,3.54,.83h7.65c1.76,0,2.92-.28,3.47-.83,.56-.56,.83-1.71,.83-3.48v-13.07h9.59v14.6c0,7.32-3.66,10.98-10.98,10.98h-13.48c-7.32,0-10.98-3.66-10.98-10.98V99.01c0-7.32,3.66-10.98,10.98-10.98h13.48c7.32,0,10.98,3.66,10.98,10.98v14.6Z"/><path class="c" d="M191.87,166.29h23.77v8.2h-33.36V88.03h32.39v8.2h-22.8v29.19h18.63v8.2h-18.63v32.67Z"/><path class="c" d="M248.72,161.98v-23.63c0-1.85-.28-3.03-.83-3.54-.56-.51-1.72-.76-3.47-.76h-9.45c-7.32,0-10.98-3.66-10.98-10.98v-24.05c0-7.32,3.66-10.98,10.98-10.98h12.23c7.32,0,10.98,3.66,10.98,10.98v13.34h-9.59v-11.82c0-1.85-.26-3.03-.76-3.54-.51-.51-1.69-.76-3.54-.76h-6.39c-1.85,0-3.04,.26-3.54,.76-.51,.51-.76,1.69-.76,3.54v20.99c0,1.76,.25,2.92,.76,3.48,.51,.56,1.69,.83,3.54,.83h9.45c7.32,0,10.98,3.66,10.98,10.98v26.69c0,7.32-3.66,10.98-10.98,10.98h-12.09c-7.32,0-10.98-3.66-10.98-10.98v-13.34h9.59v11.82c0,1.85,.25,3.04,.76,3.54,.51,.51,1.69,.76,3.54,.76h6.25c1.76,0,2.92-.25,3.47-.76,.56-.51,.83-1.69,.83-3.54Z"/><path class="c" d="M294.17,161.98v-23.63c0-1.85-.28-3.03-.83-3.54-.56-.51-1.72-.76-3.47-.76h-9.45c-7.32,0-10.98-3.66-10.98-10.98v-24.05c0-7.32,3.66-10.98,10.98-10.98h12.23c7.32,0,10.98,3.66,10.98,10.98v13.34h-9.59v-11.82c0-1.85-.26-3.03-.76-3.54-.51-.51-1.69-.76-3.54-.76h-6.39c-1.85,0-3.04,.26-3.54,.76-.51,.51-.76,1.69-.76,3.54v20.99c0,1.76,.25,2.92,.76,3.48,.51,.56,1.69,.83,3.54,.83h9.45c7.32,0,10.98,3.66,10.98,10.98v26.69c0,7.32-3.66,10.98-10.98,10.98h-12.09c-7.32,0-10.98-3.66-10.98-10.98v-13.34h9.59v11.82c0,1.85,.25,3.04,.76,3.54,.51,.51,1.69,.76,3.54,.76h6.25c1.76,0,2.92-.25,3.47-.76,.56-.51,.83-1.69,.83-3.54Z"/><path class="c" d="M327.25,88.03h14.18c7.32,0,10.98,3.66,10.98,10.98v64.5c0,7.32-3.66,10.98-10.98,10.98h-14.18c-7.32,0-10.98-3.66-10.98-10.98V99.01c0-7.32,3.66-10.98,10.98-10.98Zm15.71,73.95v-61.44c0-1.85-.28-3.03-.83-3.54-.56-.51-1.72-.76-3.47-.76h-8.62c-1.76,0-2.92,.26-3.47,.76-.56,.51-.83,1.69-.83,3.54v61.44c0,1.85,.28,3.04,.83,3.54,.56,.51,1.71,.76,3.47,.76h8.62c1.76,0,2.92-.25,3.47-.76,.56-.51,.83-1.69,.83-3.54Z"/><path class="c" d="M368.39,88.03h9.45v86.46h-9.45V88.03Z"/><path class="c" d="M403.98,138.35v36.14h-9.45V88.03h25.16c7.32,0,10.98,3.66,10.98,10.98v28.36c0,6.58-2.87,10.19-8.62,10.84l13.07,36.28h-10.29l-12.65-36.14h-8.2Zm0-42.12v33.92h12.93c1.85,0,3.03-.25,3.54-.76,.51-.51,.76-1.69,.76-3.54v-25.3c0-1.85-.26-3.03-.76-3.54-.51-.51-1.69-.76-3.54-.76h-12.93Z"/><path class="c" d="M454.71,166.29h23.77v8.2h-33.36V88.03h32.39v8.2h-22.8v29.19h18.63v8.2h-18.63v32.67Z"/><path class="c" d="M511.56,161.98v-23.63c0-1.85-.28-3.03-.83-3.54-.56-.51-1.72-.76-3.47-.76h-9.45c-7.32,0-10.98-3.66-10.98-10.98v-24.05c0-7.32,3.66-10.98,10.98-10.98h12.23c7.32,0,10.98,3.66,10.98,10.98v13.34h-9.59v-11.82c0-1.85-.26-3.03-.76-3.54-.51-.51-1.69-.76-3.54-.76h-6.39c-1.85,0-3.04,.26-3.54,.76-.51,.51-.76,1.69-.76,3.54v20.99c0,1.76,.25,2.92,.76,3.48,.51,.56,1.69,.83,3.54,.83h9.45c7.32,0,10.98,3.66,10.98,10.98v26.69c0,7.32-3.66,10.98-10.98,10.98h-12.09c-7.32,0-10.98-3.66-10.98-10.98v-13.34h9.59v11.82c0,1.85,.25,3.04,.76,3.54,.51,.51,1.69,.76,3.54,.76h6.25c1.76,0,2.92-.25,3.47-.76,.56-.51,.83-1.69,.83-3.54Z"/></g></g><g id="b"><g><path class="c" d="M157.31,137.8h0s5.67-13.7-11.13-15.3c-4.96,14.67,11.12,15.3,11.12,15.3Z"/><path class="d" d="M156.29,136.92s-1.18-2.46-3.06-5.52c-1.89-3.05-4.47-6.7-7.31-9.08l-.15,.19c2.8,2.35,5.39,5.98,7.26,9.02,.94,1.52,1.7,2.9,2.23,3.89,.26,.5,.47,.9,.61,1.18,.14,.28,.21,.43,.21,.43l.21-.11h0Z"/><polygon class="d" points="152.97 134.8 153.66 132.35 156.61 133.11 156.67 132.88 153.5 132.06 152.75 134.74 152.97 134.8 152.97 134.8"/><polygon class="d" points="151.4 132.35 152.06 130 154.82 130.39 154.86 130.16 151.89 129.74 151.18 132.29 151.4 132.35 151.4 132.35"/><polygon class="d" points="150.05 130.06 150.7 127.72 153.46 128.11 153.5 127.87 150.54 127.45 149.82 130 150.05 130.06 150.05 130.06"/><polygon class="d" points="148.11 127.63 148.76 125.28 151.53 125.67 151.57 125.44 148.6 125.02 147.88 127.57 148.11 127.63 148.11 127.63"/></g><g><path class="c" d="M70.72,122.48h0s12.02-9.32-2.21-19.48c-11.88,10.55,2.2,19.48,2.2,19.48Z"/><path class="d" d="M70.26,121.16s.19-2.82,.05-6.53c-.14-3.72-.61-8.33-1.94-11.93l-.23,.09c1.32,3.56,1.79,8.15,1.93,11.86,.07,1.85,.06,3.48,.03,4.64-.02,.58-.04,1.05-.05,1.37-.02,.32-.03,.49-.03,.5h.25Z"/><polygon class="d" points="68.36 117.54 70.22 115.7 72.47 117.92 72.65 117.75 70.22 115.36 68.19 117.37 68.36 117.54 68.36 117.54"/><polygon class="d" points="68.2 114.53 69.98 112.77 72.25 114.56 72.4 114.37 69.96 112.45 68.03 114.36 68.2 114.53 68.2 114.53"/><polygon class="d" points="68.15 111.78 69.92 110.02 72.2 111.8 72.35 111.61 69.91 109.69 67.97 111.61 68.15 111.78 68.15 111.78"/><polygon class="d" points="67.65 108.59 69.42 106.83 71.69 108.62 71.85 108.43 69.41 106.51 67.47 108.42 67.65 108.59 67.65 108.59"/></g><g><path class="c" d="M235.54,156.24h0s13.77-2.12,6.99-17.37c-14.21,3.23-6.99,17.37-6.99,17.37Z"/><path class="d" d="M235.76,154.92s1.42-2.27,2.98-5.45c1.56-3.18,3.25-7.27,3.81-10.92l-.22-.04c-.55,3.61-2.23,7.68-3.79,10.85-.78,1.58-1.52,2.94-2.06,3.9-.27,.48-.5,.86-.66,1.12-.16,.26-.24,.4-.24,.4l.19,.12h0Z"/><polygon class="d" points="235.88 150.99 238.18 150.32 238.99 153.25 239.2 153.19 238.34 150.04 235.81 150.76 235.88 150.99 235.88 150.99"/><polygon class="d" points="237.1 148.38 239.3 147.75 240.32 150.32 240.53 150.24 239.44 147.47 237.04 148.16 237.1 148.38 237.1 148.38"/><polygon class="d" points="238.29 146.05 240.5 145.42 241.51 147.99 241.72 147.9 240.63 145.14 238.23 145.83 238.29 146.05 238.29 146.05"/><polygon class="d" points="239.32 143.15 241.53 142.51 242.54 145.08 242.75 145 241.66 142.23 239.26 142.92 239.32 143.15 239.32 143.15"/></g><g><path class="c" d="M94.85,119.44h0s13.73,3.75,13.33-12.6c-14.57-2.95-13.33,12.6-13.33,12.6Z"/><path class="d" d="M95.57,118.35s2.22-1.44,4.92-3.63c2.7-2.19,5.89-5.14,7.83-8.16l-.2-.12c-1.92,2.99-5.09,5.92-7.78,8.11-1.35,1.09-2.57,2-3.46,2.63-.44,.32-.8,.56-1.05,.73-.25,.17-.39,.26-.39,.26l.13,.19h0Z"/><polygon class="d" points="97.21 114.89 99.63 115.25 99.24 118.18 99.47 118.22 99.89 115.06 97.24 114.67 97.21 114.89 97.21 114.89"/><polygon class="d" points="99.37 113.08 101.69 113.42 101.63 116.12 101.86 116.13 101.92 113.22 99.4 112.85 99.37 113.08 99.37 113.08"/><polygon class="d" points="101.4 111.49 103.72 111.83 103.66 114.53 103.89 114.54 103.95 111.64 101.43 111.27 101.4 111.49 101.4 111.49"/><polygon class="d" points="103.5 109.32 105.82 109.66 105.76 112.37 105.99 112.38 106.05 109.47 103.53 109.1 103.5 109.32 103.5 109.32"/></g><g><path class="c" d="M308.82,125.69h0s13.42-1.6,7.36-16.73c-13.88,2.67-7.37,16.73-7.37,16.73Z"/><path class="d" d="M309.08,124.41s1.45-2.17,3.07-5.22c1.62-3.05,3.4-6.99,4.06-10.54l-.22-.04c-.65,3.5-2.43,7.43-4.04,10.47-.81,1.52-1.57,2.82-2.13,3.74-.28,.46-.51,.83-.67,1.08-.16,.25-.25,.38-.25,.38l.18,.13h0Z"/><polygon class="d" points="309.32 120.57 311.58 120 312.26 122.89 312.47 122.83 311.74 119.73 309.27 120.35 309.32 120.57 309.32 120.57"/><polygon class="d" points="310.6 118.07 312.76 117.53 313.65 120.07 313.86 120 312.9 117.26 310.54 117.85 310.6 118.07 310.6 118.07"/><polygon class="d" points="311.83 115.83 313.99 115.29 314.89 117.84 315.09 117.76 314.13 115.02 311.78 115.61 311.83 115.83 311.83 115.83"/><polygon class="d" points="312.93 113.03 315.09 112.48 315.98 115.03 316.19 114.95 315.23 112.22 312.88 112.81 312.93 113.03 312.93 113.03"/></g><g><path class="c" d="M439.07,137.24h0s7.35-11.82-8.68-16.67c-6.8,12.87,8.67,16.67,8.67,16.67Z"/><path class="d" d="M438.21,136.2s-.81-2.56-2.21-5.83c-1.41-3.26-3.42-7.22-5.83-10.04l-.17,.15c2.39,2.78,4.39,6.72,5.8,9.97,.7,1.63,1.25,3.08,1.63,4.12,.19,.52,.33,.94,.43,1.23,.1,.29,.15,.45,.15,.45l.22-.06h0Z"/><polygon class="d" points="435.28 133.54 436.28 131.36 439.03 132.67 439.13 132.46 436.16 131.06 435.07 133.44 435.28 133.54 435.28 133.54"/><polygon class="d" points="434.1 130.91 435.05 128.82 437.67 129.74 437.74 129.53 434.93 128.54 433.89 130.81 434.1 130.91 434.1 130.91"/><polygon class="d" points="433.1 128.48 434.05 126.39 436.67 127.31 436.74 127.1 433.93 126.11 432.89 128.38 433.1 128.48 433.1 128.48"/><polygon class="d" points="431.56 125.79 432.51 123.71 435.13 124.63 435.2 124.41 432.39 123.42 431.35 125.69 431.56 125.79 431.56 125.79"/></g><g><path class="c" d="M257.58,128.79h0s11.14-7.48-.77-17.29c-11.09,8.58,.77,17.29,.77,17.29Z"/><path class="d" d="M257.25,127.6s.34-2.47,.44-5.75c.1-3.28-.04-7.37-.99-10.62l-.21,.06c.95,3.21,1.09,7.29,.98,10.56-.05,1.63-.16,3.07-.26,4.09-.05,.51-.09,.92-.13,1.2-.03,.28-.05,.43-.05,.43l.22,.02h0Z"/><polygon class="d" points="255.8 124.3 257.54 122.79 259.4 124.88 259.56 124.74 257.56 122.49 255.66 124.14 255.8 124.3 255.8 124.3"/><polygon class="d" points="255.83 121.64 257.5 120.19 259.4 121.9 259.55 121.74 257.51 119.91 255.69 121.48 255.83 121.64 255.83 121.64"/><polygon class="d" points="255.95 119.21 257.62 117.77 259.52 119.48 259.67 119.32 257.63 117.48 255.81 119.05 255.95 119.21 255.95 119.21"/><polygon class="d" points="255.7 116.37 257.37 114.93 259.27 116.64 259.42 116.48 257.38 114.64 255.56 116.21 255.7 116.37 255.7 116.37"/></g><g><path class="c" d="M206.58,124.66h0s10.38-11.5-5.71-19.14c-10.02,12.72,5.71,19.14,5.71,19.14Z"/><path class="d" d="M205.88,123.42s-.31-2.86-1.12-6.56c-.81-3.7-2.11-8.24-4.09-11.61l-.22,.13c1.96,3.33,3.26,7.86,4.06,11.54,.4,1.84,.68,3.48,.86,4.65,.09,.59,.15,1.06,.2,1.38,.04,.32,.06,.5,.06,.5l.25-.03h0Z"/><polygon class="d" points="203.33 120.13 204.86 117.96 207.52 119.77 207.67 119.57 204.8 117.61 203.13 119.99 203.33 120.13 203.33 120.13"/><polygon class="d" points="202.63 117.14 204.09 115.06 206.69 116.44 206.81 116.22 204.02 114.73 202.42 117 202.63 117.14 202.63 117.14"/><polygon class="d" points="202.08 114.39 203.54 112.31 206.14 113.69 206.27 113.47 203.47 111.98 201.87 114.25 202.08 114.39 202.08 114.39"/><polygon class="d" points="201 111.28 202.47 109.2 205.07 110.58 205.19 110.36 202.39 108.88 200.8 111.15 201 111.28 201 111.28"/></g><g><path class="c" d="M329.99,128.19h0s15.08,.77,10.96-16.09c-15.78,.25-10.96,16.09-10.96,16.09Z"/><path class="d" d="M330.5,126.9s1.97-2,4.27-4.88c2.3-2.89,4.93-6.66,6.26-10.24l-.23-.08c-1.31,3.53-3.93,7.3-6.23,10.17-1.15,1.44-2.21,2.66-2.99,3.51-.39,.43-.71,.77-.93,1-.22,.23-.34,.35-.34,.35l.18,.17h0Z"/><polygon class="d" points="331.42 122.94 334 122.76 334.27 125.89 334.51 125.87 334.23 122.5 331.4 122.7 331.42 122.94 331.42 122.94"/><polygon class="d" points="333.24 120.57 335.72 120.39 336.28 123.21 336.52 123.17 335.92 120.14 333.22 120.33 333.24 120.57 333.24 120.57"/><polygon class="d" points="334.99 118.46 337.46 118.29 338.02 121.11 338.26 121.06 337.66 118.03 334.97 118.22 334.99 118.46 334.99 118.46"/><polygon class="d" points="336.67 115.74 339.15 115.56 339.7 118.38 339.95 118.34 339.35 115.31 336.65 115.5 336.67 115.74 336.67 115.74"/></g><g><path class="c" d="M291.88,114.67h0s4.22-12.97-11.46-13.34c-3.49,13.82,11.45,13.34,11.45,13.34Z"/><path class="d" d="M290.87,113.93s-1.28-2.19-3.25-4.87c-1.98-2.69-4.65-5.87-7.45-7.87l-.13,.18c2.77,1.98,5.44,5.15,7.41,7.82,.98,1.34,1.8,2.55,2.36,3.43,.28,.44,.5,.8,.65,1.04,.15,.25,.23,.38,.23,.38l.19-.12h0Z"/><polygon class="d" points="287.64 112.2 288.09 109.9 290.88 110.41 290.92 110.19 287.92 109.64 287.42 112.16 287.64 112.2 287.64 112.2"/><polygon class="d" points="286 110.05 286.43 107.85 289.02 108.03 289.04 107.8 286.25 107.61 285.79 110.01 286 110.05 286 110.05"/><polygon class="d" points="284.57 108.03 285 105.83 287.59 106.01 287.61 105.79 284.83 105.6 284.36 107.99 284.57 108.03 284.57 108.03"/><polygon class="d" points="282.59 105.92 283.02 103.72 285.61 103.9 285.63 103.68 282.85 103.49 282.38 105.88 282.59 105.92 282.59 105.92"/></g><g><path class="c" d="M277.76,148.68h0s9.36,4.36,11.07-7.39c-10.06-3.88-11.07,7.39-11.07,7.39Z"/><path class="d" d="M278.41,147.99s1.76-.76,3.96-2c2.2-1.24,4.83-2.96,6.59-4.88l-.13-.11c-1.74,1.9-4.36,3.62-6.55,4.85-1.1,.62-2.08,1.12-2.79,1.46-.36,.17-.64,.31-.84,.4-.2,.09-.31,.14-.31,.14l.07,.15h0Z"/><polygon class="d" points="280 145.72 281.69 146.27 281.05 148.32 281.21 148.37 281.9 146.16 280.05 145.56 280 145.72 280 145.72"/><polygon class="d" points="281.77 144.68 283.38 145.21 283.01 147.13 283.18 147.17 283.58 145.1 281.82 144.53 281.77 144.68 281.77 144.68"/><polygon class="d" points="283.41 143.79 285.03 144.32 284.66 146.25 284.82 146.28 285.22 144.21 283.46 143.64 283.41 143.79 283.41 143.79"/><polygon class="d" points="285.18 142.5 286.79 143.03 286.42 144.95 286.59 144.99 286.99 142.92 285.23 142.34 285.18 142.5 285.18 142.5"/></g><g><path class="c" d="M311.76,161.82h0s-1.39-10.23-12.2-5.32c2.17,10.56,12.2,5.32,12.2,5.32Z"/><path class="d" d="M310.83,161.64s-1.59-1.07-3.82-2.25c-2.23-1.18-5.1-2.47-7.67-2.91l-.03,.17c2.54,.43,5.4,1.72,7.62,2.89,1.11,.59,2.06,1.15,2.74,1.56,.34,.21,.6,.38,.79,.5,.18,.12,.28,.18,.28,.18l.09-.14h0Z"/><polygon class="d" points="308.06 161.53 307.61 159.81 309.68 159.24 309.63 159.08 307.41 159.69 307.9 161.57 308.06 161.53 308.06 161.53"/><polygon class="d" points="306.23 160.6 305.8 158.96 307.62 158.23 307.56 158.07 305.6 158.86 306.07 160.64 306.23 160.6 306.23 160.6"/><polygon class="d" points="304.6 159.7 304.16 158.05 305.99 157.32 305.93 157.17 303.97 157.95 304.44 159.74 304.6 159.7 304.6 159.7"/><polygon class="d" points="302.55 158.91 302.12 157.27 303.94 156.54 303.88 156.38 301.93 157.16 302.4 158.95 302.55 158.91 302.55 158.91"/></g><g><path class="c" d="M341.62,178.79h0s13.66,.91,10.15-14.43c-14.3,.01-10.15,14.43-10.15,14.43Z"/><path class="d" d="M342.1,177.63s1.81-1.78,3.94-4.37c2.12-2.59,4.56-5.97,5.82-9.19l-.21-.08c-1.24,3.18-3.67,6.56-5.78,9.14-1.06,1.29-2.04,2.38-2.76,3.14-.36,.38-.65,.69-.85,.89-.2,.21-.31,.32-.31,.32l.16,.15h0Z"/><polygon class="d" points="342.98 174.05 345.33 173.92 345.52 176.77 345.75 176.75 345.53 173.69 342.97 173.84 342.98 174.05 342.98 174.05"/><polygon class="d" points="344.67 171.93 346.92 171.8 347.38 174.36 347.6 174.33 347.1 171.58 344.66 171.71 344.67 171.93 344.67 171.93"/><polygon class="d" points="346.28 170.04 348.53 169.92 348.99 172.48 349.21 172.44 348.71 169.69 346.26 169.83 346.28 170.04 346.28 170.04"/><polygon class="d" points="347.84 167.6 350.09 167.47 350.55 170.03 350.77 170 350.28 167.25 347.83 167.38 347.84 167.6 347.84 167.6"/></g><g><path class="c" d="M383.96,119.53h0s12.98,1.98,10.87-12.97c-13.67-1.15-10.88,12.97-10.88,12.97Z"/><path class="d" d="M384.51,118.45s1.88-1.56,4.12-3.85c2.24-2.3,4.85-5.33,6.31-8.31l-.19-.09c-1.44,2.94-4.04,5.97-6.27,8.26-1.12,1.14-2.14,2.1-2.89,2.78-.37,.34-.68,.6-.89,.78-.21,.18-.33,.28-.33,.28l.14,.16h0Z"/><polygon class="d" points="385.65 115.11 387.9 115.18 387.86 117.91 388.07 117.92 388.12 114.98 385.65 114.9 385.65 115.11 385.65 115.11"/><polygon class="d" points="387.44 113.22 389.6 113.28 389.83 115.77 390.04 115.75 389.79 113.08 387.44 113.01 387.44 113.22 387.44 113.22"/><polygon class="d" points="389.13 111.55 391.29 111.61 391.52 114.1 391.73 114.08 391.48 111.41 389.13 111.34 389.13 111.55 389.13 111.55"/><polygon class="d" points="390.82 109.34 392.98 109.4 393.22 111.89 393.43 111.87 393.18 109.2 390.83 109.13 390.82 109.34 390.82 109.34"/></g><g><path class="c" d="M353.28,130.35h0s12.94,6.54,15.87-9.87c-13.95-5.91-15.88,9.87-15.88,9.87Z"/><path class="d" d="M354.22,129.42s2.51-.99,5.65-2.63c3.14-1.64,6.92-3.93,9.48-6.56l-.17-.16c-2.53,2.59-6.29,4.88-9.42,6.51-1.57,.82-2.97,1.47-3.99,1.92-.51,.23-.92,.4-1.2,.52-.28,.12-.44,.18-.44,.18l.09,.22h0Z"/><polygon class="d" points="356.56 126.3 358.91 127.15 357.92 130 358.14 130.08 359.2 127.01 356.64 126.08 356.56 126.3 356.56 126.3"/><polygon class="d" points="359.09 124.93 361.33 125.74 360.73 128.42 360.95 128.48 361.61 125.59 359.17 124.71 359.09 124.93 359.09 124.93"/><polygon class="d" points="361.44 123.75 363.68 124.56 363.07 127.25 363.3 127.31 363.96 124.42 361.52 123.54 361.44 123.75 361.44 123.75"/><polygon class="d" points="363.98 122.02 366.22 122.83 365.61 125.52 365.84 125.57 366.5 122.68 364.05 121.8 363.98 122.02 363.98 122.02"/></g><g><path class="c" d="M416.67,122.38h0s9.12-9.96-4.86-16.71c-8.81,11.02,4.85,16.71,4.85,16.71Z"/><path class="d" d="M416.06,121.3s-.25-2.5-.93-5.73c-.68-3.23-1.78-7.19-3.49-10.15l-.19,.11c1.69,2.92,2.79,6.87,3.47,10.08,.34,1.61,.57,3.04,.72,4.06,.07,.51,.13,.92,.16,1.21,.03,.28,.05,.44,.05,.44l.22-.03h0Z"/><polygon class="d" points="413.86 118.41 415.21 116.53 417.51 118.13 417.64 117.95 415.16 116.23 413.68 118.29 413.86 118.41 413.86 118.41"/><polygon class="d" points="413.26 115.8 414.55 114 416.81 115.22 416.92 115.03 414.49 113.72 413.09 115.68 413.26 115.8 413.26 115.8"/><polygon class="d" points="412.8 113.4 414.09 111.6 416.35 112.82 416.46 112.63 414.03 111.32 412.63 113.28 412.8 113.4 412.8 113.4"/><polygon class="d" points="411.89 110.69 413.18 108.89 415.43 110.11 415.54 109.92 413.12 108.6 411.71 110.57 411.89 110.69 411.89 110.69"/></g><g><path class="c" d="M383.57,152.65h0s7.47-11.67-7.85-16.04c-6.97,12.69,7.85,16.04,7.85,16.04Z"/><path class="d" d="M382.77,151.66s-.7-2.48-1.95-5.62c-1.26-3.15-3.07-6.96-5.31-9.64l-.17,.15c2.22,2.65,4.03,6.45,5.28,9.58,.63,1.57,1.11,2.97,1.44,3.98,.16,.5,.29,.91,.38,1.19,.08,.28,.13,.43,.13,.43l.21-.07h0Z"/><polygon class="d" points="380.03 149.14 381.06 146.99 383.68 148.21 383.78 148 380.96 146.7 379.84 149.05 380.03 149.14 380.03 149.14"/><polygon class="d" points="378.97 146.6 379.96 144.55 382.46 145.39 382.53 145.18 379.85 144.27 378.77 146.51 378.97 146.6 378.97 146.6"/><polygon class="d" points="378.09 144.26 379.07 142.2 381.57 143.04 381.65 142.83 378.96 141.93 377.89 144.16 378.09 144.26 378.09 144.26"/><polygon class="d" points="376.68 141.68 377.67 139.62 380.17 140.46 380.24 140.25 377.56 139.35 376.48 141.58 376.68 141.68 376.68 141.68"/></g><g><path class="c" d="M84.73,167.83h0s2.9-13.87-13.33-12.48c-2.05,14.66,13.33,12.48,13.33,12.48Z"/><path class="d" d="M83.6,167.18s-1.57-2.12-3.91-4.67c-2.34-2.55-5.46-5.54-8.59-7.29l-.11,.2c3.09,1.73,6.2,4.7,8.53,7.24,1.17,1.27,2.14,2.43,2.82,3.28,.34,.42,.61,.77,.79,1,.18,.24,.28,.37,.28,.37l.18-.14h0Z"/><polygon class="d" points="80.07 165.76 80.27 163.33 83.22 163.54 83.23 163.31 80.07 163.09 79.84 165.74 80.07 165.76 80.07 165.76"/><polygon class="d" points="78.13 163.72 78.33 161.4 81.02 161.29 81.02 161.06 78.12 161.17 77.91 163.7 78.13 163.72 78.13 163.72"/><polygon class="d" points="76.43 161.8 76.63 159.48 79.32 159.37 79.32 159.14 76.42 159.25 76.21 161.78 76.43 161.8 76.43 161.8"/><polygon class="d" points="74.15 159.84 74.35 157.52 77.04 157.41 77.04 157.18 74.14 157.3 73.93 159.82 74.15 159.84 74.15 159.84"/></g><g><path class="c" d="M32.38,140.13h0s15.14-3.27,6.54-18.87c-15.56,4.47-6.54,18.87-6.54,18.87Z"/><path class="d" d="M32.53,138.72s1.42-2.51,2.92-5.98c1.51-3.48,3.1-7.92,3.46-11.82l-.25-.02c-.35,3.85-1.94,8.28-3.44,11.74-.75,1.73-1.48,3.22-2.02,4.28-.27,.53-.49,.95-.65,1.24-.16,.29-.24,.44-.24,.44l.22,.12h0Z"/><polygon class="d" points="32.38 134.56 34.89 133.68 35.99 136.71 36.23 136.63 35.05 133.37 32.3 134.33 32.38 134.56 32.38 134.56"/><polygon class="d" points="33.56 131.72 35.96 130.88 37.27 133.52 37.49 133.42 36.09 130.58 33.47 131.49 33.56 131.72 33.56 131.72"/><polygon class="d" points="34.72 129.16 37.12 128.33 38.43 130.97 38.65 130.86 37.25 128.02 34.63 128.93 34.72 129.16 34.72 129.16"/><polygon class="d" points="35.66 126.02 38.07 125.18 39.37 127.82 39.6 127.71 38.19 124.87 35.58 125.78 35.66 126.02 35.66 126.02"/></g><g><path class="c" d="M170.96,155.24h0s12.46,.26,10.18-17.97c-13.11,.88-10.18,17.97-10.18,17.97Z"/><path class="d" d="M171.47,153.82s1.77-2.25,3.88-5.49c2.1-3.24,4.55-7.46,5.89-11.4l-.19-.08c-1.33,3.9-3.76,8.11-5.86,11.33-1.05,1.61-2.01,2.98-2.72,3.95-.35,.48-.64,.86-.84,1.12-.2,.26-.31,.4-.31,.4l.14,.18h0Z"/><polygon class="d" points="172.49 149.47 174.65 149.17 174.66 152.57 174.86 152.54 174.86 148.88 172.49 149.21 172.49 149.47 172.49 149.47"/><polygon class="d" points="174.17 146.81 176.24 146.52 176.51 149.57 176.71 149.52 176.42 146.24 174.17 146.55 174.17 146.81 174.17 146.81"/><polygon class="d" points="175.76 144.45 177.83 144.16 178.1 147.21 178.3 147.15 178.01 143.87 175.76 144.19 175.76 144.45 175.76 144.45"/><polygon class="d" points="177.35 141.41 179.41 141.13 179.68 144.18 179.88 144.12 179.59 140.84 177.34 141.15 177.35 141.41 177.35 141.41"/></g><g><path class="c" d="M75.71,141.03h0s13.66,.91,10.15-14.43c-14.3,.01-10.15,14.43-10.15,14.43Z"/><path class="d" d="M76.19,139.87s1.81-1.78,3.94-4.37c2.12-2.59,4.56-5.97,5.82-9.19l-.21-.08c-1.24,3.18-3.67,6.56-5.78,9.14-1.06,1.29-2.04,2.38-2.76,3.14-.36,.38-.65,.69-.85,.89-.2,.21-.31,.32-.31,.32l.16,.15h0Z"/><polygon class="d" points="77.07 136.3 79.42 136.17 79.62 139.01 79.84 139 79.63 135.94 77.06 136.08 77.07 136.3 77.07 136.3"/><polygon class="d" points="78.76 134.17 81.01 134.05 81.47 136.61 81.69 136.57 81.2 133.82 78.75 133.95 78.76 134.17 78.76 134.17"/><polygon class="d" points="80.37 132.29 82.62 132.16 83.08 134.72 83.3 134.69 82.8 131.93 80.36 132.07 80.37 132.29 80.37 132.29"/><polygon class="d" points="81.94 129.84 84.18 129.72 84.65 132.28 84.87 132.24 84.37 129.49 81.92 129.62 81.94 129.84 81.94 129.84"/></g><g><path class="c" d="M435.23,152.48h0s12.85,4.7,13.79-11c-13.73-4-13.79,11-13.79,11Z"/><path class="d" d="M436.01,151.49s2.24-1.2,5.01-3.09c2.77-1.88,6.06-4.45,8.16-7.19l-.18-.13c-2.08,2.71-5.36,5.27-8.11,7.14-1.38,.94-2.63,1.71-3.53,2.24-.45,.27-.82,.48-1.07,.62-.25,.14-.39,.22-.39,.22l.11,.19h0Z"/><polygon class="d" points="437.87 148.31 440.15 148.85 439.55 151.63 439.76 151.68 440.42 148.69 437.91 148.1 437.87 148.31 437.87 148.31"/><polygon class="d" points="440.08 146.75 442.27 147.26 442 149.85 442.22 149.87 442.52 147.09 440.13 146.53 440.08 146.75 440.08 146.75"/><polygon class="d" points="442.16 145.39 444.35 145.9 444.07 148.49 444.29 148.51 444.59 145.73 442.2 145.18 442.16 145.39 442.16 145.39"/><polygon class="d" points="444.35 143.48 446.54 143.99 446.26 146.58 446.48 146.61 446.78 143.83 444.39 143.27 444.35 143.48 444.35 143.48"/></g><g><path class="c" d="M480.04,119.13h0s1.56-13.6-13.93-10.83c-.67,14.28,13.93,10.83,13.93,10.83Z"/><path class="d" d="M478.9,118.6s-1.69-1.9-4.17-4.14c-2.48-2.25-5.75-4.84-8.9-6.25l-.09,.2c3.12,1.39,6.38,3.98,8.85,6.21,1.24,1.12,2.28,2.15,3.01,2.9,.37,.38,.65,.68,.85,.89,.2,.21,.3,.33,.3,.33l.16-.15h0Z"/><polygon class="d" points="475.37 117.55 475.36 115.2 478.2 115.14 478.2 114.91 475.14 114.98 475.16 117.55 475.37 117.55 475.37 117.55"/><polygon class="d" points="473.33 115.76 473.31 113.51 475.89 113.17 475.87 112.95 473.1 113.31 473.11 115.76 473.33 115.76 473.33 115.76"/><polygon class="d" points="471.52 114.06 471.51 111.81 474.09 111.47 474.06 111.25 471.29 111.62 471.31 114.07 471.52 114.06 471.52 114.06"/><polygon class="d" points="469.16 112.38 469.14 110.13 471.72 109.79 471.7 109.57 468.92 109.94 468.94 112.38 469.16 112.38 469.16 112.38"/></g><g><path class="c" d="M500.15,143.66h0s13.66,.91,10.15-14.43c-14.3,.01-10.15,14.43-10.15,14.43Z"/><path class="d" d="M500.62,142.5s1.81-1.78,3.94-4.37c2.12-2.59,4.56-5.97,5.82-9.19l-.21-.08c-1.24,3.18-3.67,6.56-5.78,9.14-1.06,1.29-2.04,2.38-2.76,3.14-.36,.38-.65,.69-.85,.89-.2,.21-.31,.32-.31,.32l.16,.15h0Z"/><polygon class="d" points="501.51 138.93 503.85 138.8 504.05 141.64 504.27 141.63 504.06 138.57 501.49 138.71 501.51 138.93 501.51 138.93"/><polygon class="d" points="503.2 136.8 505.44 136.68 505.91 139.24 506.13 139.2 505.63 136.45 503.18 136.58 503.2 136.8 503.2 136.8"/><polygon class="d" points="504.81 134.91 507.05 134.79 507.52 137.35 507.74 137.32 507.24 134.56 504.79 134.7 504.81 134.91 504.81 134.91"/><polygon class="d" points="506.37 132.47 508.62 132.35 509.08 134.91 509.3 134.87 508.8 132.12 506.36 132.25 506.37 132.47 506.37 132.47"/></g><g><path class="c" d="M524.39,121.8h0s9.92-9.43-3.75-17.24c-9.68,10.53,3.74,17.24,3.74,17.24Z"/><path class="d" d="M523.85,120.67s-.08-2.54-.55-5.86c-.46-3.31-1.3-7.4-2.82-10.51l-.2,.1c1.5,3.07,2.34,7.14,2.8,10.44,.23,1.65,.37,3.11,.44,4.16,.04,.52,.06,.94,.08,1.23,.01,.29,.02,.45,.02,.45h.22Z"/><polygon class="d" points="521.82 117.6 523.32 115.78 525.54 117.56 525.68 117.39 523.29 115.47 521.65 117.46 521.82 117.6 521.82 117.6"/><polygon class="d" points="521.4 114.91 522.84 113.18 525.03 114.57 525.16 114.38 522.79 112.89 521.24 114.78 521.4 114.91 521.4 114.91"/><polygon class="d" points="521.11 112.45 522.54 110.72 524.74 112.11 524.86 111.92 522.5 110.43 520.94 112.32 521.11 112.45 521.11 112.45"/><polygon class="d" points="520.37 109.64 521.8 107.91 524 109.3 524.12 109.12 521.76 107.62 520.2 109.51 520.37 109.64 520.37 109.64"/></g></g></svg>