<?xml version="1.0" encoding="UTF-8"?><svg id="a" xmlns="http://www.w3.org/2000/svg" viewBox="0 0 555.26 262"><defs><style>.c{fill:#afa57d;}</style></defs><g id="b"><g><path class="c" d="M67.05,174.49l-3.61-21.96h-17.51l-3.2,21.96h-9.59l13.48-86.46h15.15l14.87,86.46h-9.59Zm-20.02-30.16h15.15l-8.06-49.62-7.09,49.62Z"/><path class="c" d="M121.12,113.61h-9.59v-13.07c0-1.85-.28-3.03-.83-3.54-.56-.51-1.72-.76-3.47-.76h-7.65c-1.85,0-3.04,.26-3.54,.76s-.76,1.69-.76,3.54v61.58c0,1.76,.25,2.92,.76,3.48s1.69,.83,3.54,.83h7.65c1.76,0,2.92-.28,3.47-.83s.83-1.71,.83-3.48v-13.07h9.59v14.6c0,7.32-3.66,10.98-10.98,10.98h-13.48c-7.32,0-10.98-3.66-10.98-10.98V99.01c0-7.32,3.66-10.98,10.98-10.98h13.48c7.32,0,10.98,3.66,10.98,10.98v14.6Z"/><path class="c" d="M169.07,113.61h-9.59v-13.07c0-1.85-.28-3.03-.83-3.54-.56-.51-1.72-.76-3.47-.76h-7.65c-1.85,0-3.04,.26-3.54,.76s-.76,1.69-.76,3.54v61.58c0,1.76,.25,2.92,.76,3.48s1.69,.83,3.54,.83h7.65c1.76,0,2.92-.28,3.47-.83s.83-1.71,.83-3.48v-13.07h9.59v14.6c0,7.32-3.66,10.98-10.98,10.98h-13.48c-7.32,0-10.98-3.66-10.98-10.98V99.01c0-7.32,3.66-10.98,10.98-10.98h13.48c7.32,0,10.98,3.66,10.98,10.98v14.6Z"/><path class="c" d="M191.87,166.29h23.77v8.2h-33.36V88.03h32.39v8.2h-22.8v29.19h18.63v8.2h-18.63v32.67Z"/><path class="c" d="M248.72,161.98v-23.63c0-1.85-.28-3.03-.83-3.54-.56-.51-1.72-.76-3.47-.76h-9.45c-7.32,0-10.98-3.66-10.98-10.98v-24.05c0-7.32,3.66-10.98,10.98-10.98h12.23c7.32,0,10.98,3.66,10.98,10.98v13.34h-9.59v-11.82c0-1.85-.26-3.03-.76-3.54-.51-.51-1.69-.76-3.54-.76h-6.39c-1.85,0-3.04,.26-3.54,.76-.51,.51-.76,1.69-.76,3.54v20.99c0,1.76,.25,2.92,.76,3.48,.51,.56,1.69,.83,3.54,.83h9.45c7.32,0,10.98,3.66,10.98,10.98v26.69c0,7.32-3.66,10.98-10.98,10.98h-12.09c-7.32,0-10.98-3.66-10.98-10.98v-13.34h9.59v11.82c0,1.85,.25,3.04,.76,3.54,.51,.51,1.69,.76,3.54,.76h6.25c1.76,0,2.92-.25,3.47-.76,.56-.51,.83-1.69,.83-3.54h0Z"/><path class="c" d="M294.17,161.98v-23.63c0-1.85-.28-3.03-.83-3.54-.56-.51-1.72-.76-3.47-.76h-9.45c-7.32,0-10.98-3.66-10.98-10.98v-24.05c0-7.32,3.66-10.98,10.98-10.98h12.23c7.32,0,10.98,3.66,10.98,10.98v13.34h-9.59v-11.82c0-1.85-.26-3.03-.76-3.54-.51-.51-1.69-.76-3.54-.76h-6.39c-1.85,0-3.04,.26-3.54,.76-.51,.51-.76,1.69-.76,3.54v20.99c0,1.76,.25,2.92,.76,3.48,.51,.56,1.69,.83,3.54,.83h9.45c7.32,0,10.98,3.66,10.98,10.98v26.69c0,7.32-3.66,10.98-10.98,10.98h-12.09c-7.32,0-10.98-3.66-10.98-10.98v-13.34h9.59v11.82c0,1.85,.25,3.04,.76,3.54,.51,.51,1.69,.76,3.54,.76h6.25c1.76,0,2.92-.25,3.47-.76,.56-.51,.83-1.69,.83-3.54h0Z"/><path class="c" d="M327.25,88.03h14.18c7.32,0,10.98,3.66,10.98,10.98v64.5c0,7.32-3.66,10.98-10.98,10.98h-14.18c-7.32,0-10.98-3.66-10.98-10.98V99.01c0-7.32,3.66-10.98,10.98-10.98Zm15.71,73.95v-61.44c0-1.85-.28-3.03-.83-3.54-.56-.51-1.72-.76-3.47-.76h-8.62c-1.76,0-2.92,.26-3.47,.76-.56,.51-.83,1.69-.83,3.54v61.44c0,1.85,.28,3.04,.83,3.54,.56,.51,1.71,.76,3.47,.76h8.62c1.76,0,2.92-.25,3.47-.76,.56-.51,.83-1.69,.83-3.54Z"/><path class="c" d="M368.39,88.03h9.45v86.46h-9.45V88.03Z"/><path class="c" d="M403.98,138.35v36.14h-9.45V88.03h25.16c7.32,0,10.98,3.66,10.98,10.98v28.36c0,6.58-2.87,10.19-8.62,10.84l13.07,36.28h-10.29l-12.65-36.14h-8.2Zm0-42.12v33.92h12.93c1.85,0,3.03-.25,3.54-.76s.76-1.69,.76-3.54v-25.3c0-1.85-.26-3.03-.76-3.54-.51-.51-1.69-.76-3.54-.76h-12.93v-.02Z"/><path class="c" d="M454.71,166.29h23.77v8.2h-33.36V88.03h32.39v8.2h-22.8v29.19h18.63v8.2h-18.63v32.67h0Z"/><path class="c" d="M511.56,161.98v-23.63c0-1.85-.28-3.03-.83-3.54-.56-.51-1.72-.76-3.47-.76h-9.45c-7.32,0-10.98-3.66-10.98-10.98v-24.05c0-7.32,3.66-10.98,10.98-10.98h12.23c7.32,0,10.98,3.66,10.98,10.98v13.34h-9.59v-11.82c0-1.85-.26-3.03-.76-3.54-.51-.51-1.69-.76-3.54-.76h-6.39c-1.85,0-3.04,.26-3.54,.76-.51,.51-.76,1.69-.76,3.54v20.99c0,1.76,.25,2.92,.76,3.48,.51,.56,1.69,.83,3.54,.83h9.45c7.32,0,10.98,3.66,10.98,10.98v26.69c0,7.32-3.66,10.98-10.98,10.98h-12.09c-7.32,0-10.98-3.66-10.98-10.98v-13.34h9.59v11.82c0,1.85,.25,3.04,.76,3.54,.51,.51,1.69,.76,3.54,.76h6.25c1.76,0,2.92-.25,3.47-.76,.56-.51,.83-1.69,.83-3.54h0Z"/></g></g></svg>