<?xml version="1.0" encoding="UTF-8"?><svg xmlns="http://www.w3.org/2000/svg" viewBox="0 0 555.26 262"><defs><style>.c{fill:#afa57d;}.d{fill:#777159;}</style></defs><g id="a"><g><path class="c" d="M67.05,174.49l-3.61-21.96h-17.51l-3.2,21.96h-9.59l13.48-86.46h15.15l14.87,86.46h-9.59Zm-20.02-30.16h15.15l-8.06-49.62-7.09,49.62Z"/><path class="c" d="M121.12,113.61h-9.59v-13.07c0-1.85-.28-3.03-.83-3.54-.56-.51-1.72-.76-3.47-.76h-7.65c-1.85,0-3.04,.26-3.54,.76s-.76,1.69-.76,3.54v61.58c0,1.76,.25,2.92,.76,3.48,.51,.56,1.69,.83,3.54,.83h7.65c1.76,0,2.92-.28,3.47-.83,.56-.56,.83-1.71,.83-3.48v-13.07h9.59v14.6c0,7.32-3.66,10.98-10.98,10.98h-13.48c-7.32,0-10.98-3.66-10.98-10.98V99.01c0-7.32,3.66-10.98,10.98-10.98h13.48c7.32,0,10.98,3.66,10.98,10.98v14.6Z"/><path class="c" d="M169.07,113.61h-9.59v-13.07c0-1.85-.28-3.03-.83-3.54-.56-.51-1.72-.76-3.47-.76h-7.65c-1.85,0-3.04,.26-3.54,.76s-.76,1.69-.76,3.54v61.58c0,1.76,.25,2.92,.76,3.48,.51,.56,1.69,.83,3.54,.83h7.65c1.76,0,2.92-.28,3.47-.83,.56-.56,.83-1.71,.83-3.48v-13.07h9.59v14.6c0,7.32-3.66,10.98-10.98,10.98h-13.48c-7.32,0-10.98-3.66-10.98-10.98V99.01c0-7.32,3.66-10.98,10.98-10.98h13.48c7.32,0,10.98,3.66,10.98,10.98v14.6Z"/><path class="c" d="M191.87,166.29h23.77v8.2h-33.36V88.03h32.39v8.2h-22.8v29.19h18.63v8.2h-18.63v32.67Z"/><path class="c" d="M248.72,161.98v-23.63c0-1.85-.28-3.03-.83-3.54-.56-.51-1.72-.76-3.47-.76h-9.45c-7.32,0-10.98-3.66-10.98-10.98v-24.05c0-7.32,3.66-10.98,10.98-10.98h12.23c7.32,0,10.98,3.66,10.98,10.98v13.34h-9.59v-11.82c0-1.85-.26-3.03-.76-3.54-.51-.51-1.69-.76-3.54-.76h-6.39c-1.85,0-3.04,.26-3.54,.76-.51,.51-.76,1.69-.76,3.54v20.99c0,1.76,.25,2.92,.76,3.48,.51,.56,1.69,.83,3.54,.83h9.45c7.32,0,10.98,3.66,10.98,10.98v26.69c0,7.32-3.66,10.98-10.98,10.98h-12.09c-7.32,0-10.98-3.66-10.98-10.98v-13.34h9.59v11.82c0,1.85,.25,3.04,.76,3.54,.51,.51,1.69,.76,3.54,.76h6.25c1.76,0,2.92-.25,3.47-.76,.56-.51,.83-1.69,.83-3.54Z"/><path class="c" d="M294.17,161.98v-23.63c0-1.85-.28-3.03-.83-3.54-.56-.51-1.72-.76-3.47-.76h-9.45c-7.32,0-10.98-3.66-10.98-10.98v-24.05c0-7.32,3.66-10.98,10.98-10.98h12.23c7.32,0,10.98,3.66,10.98,10.98v13.34h-9.59v-11.82c0-1.85-.26-3.03-.76-3.54-.51-.51-1.69-.76-3.54-.76h-6.39c-1.85,0-3.04,.26-3.54,.76-.51,.51-.76,1.69-.76,3.54v20.99c0,1.76,.25,2.92,.76,3.48,.51,.56,1.69,.83,3.54,.83h9.45c7.32,0,10.98,3.66,10.98,10.98v26.69c0,7.32-3.66,10.98-10.98,10.98h-12.09c-7.32,0-10.98-3.66-10.98-10.98v-13.34h9.59v11.82c0,1.85,.25,3.04,.76,3.54,.51,.51,1.69,.76,3.54,.76h6.25c1.76,0,2.92-.25,3.47-.76,.56-.51,.83-1.69,.83-3.54Z"/><path class="c" d="M327.25,88.03h14.18c7.32,0,10.98,3.66,10.98,10.98v64.5c0,7.32-3.66,10.98-10.98,10.98h-14.18c-7.32,0-10.98-3.66-10.98-10.98V99.01c0-7.32,3.66-10.98,10.98-10.98Zm15.71,73.95v-61.44c0-1.85-.28-3.03-.83-3.54-.56-.51-1.72-.76-3.47-.76h-8.62c-1.76,0-2.92,.26-3.47,.76-.56,.51-.83,1.69-.83,3.54v61.44c0,1.85,.28,3.04,.83,3.54,.56,.51,1.71,.76,3.47,.76h8.62c1.76,0,2.92-.25,3.47-.76,.56-.51,.83-1.69,.83-3.54Z"/><path class="c" d="M368.39,88.03h9.45v86.46h-9.45V88.03Z"/><path class="c" d="M403.98,138.35v36.14h-9.45V88.03h25.16c7.32,0,10.98,3.66,10.98,10.98v28.36c0,6.58-2.87,10.19-8.62,10.84l13.07,36.28h-10.29l-12.65-36.14h-8.2Zm0-42.12v33.92h12.93c1.85,0,3.03-.25,3.54-.76,.51-.51,.76-1.69,.76-3.54v-25.3c0-1.85-.26-3.03-.76-3.54-.51-.51-1.69-.76-3.54-.76h-12.93Z"/><path class="c" d="M454.71,166.29h23.77v8.2h-33.36V88.03h32.39v8.2h-22.8v29.19h18.63v8.2h-18.63v32.67Z"/><path class="c" d="M511.56,161.98v-23.63c0-1.85-.28-3.03-.83-3.54-.56-.51-1.72-.76-3.47-.76h-9.45c-7.32,0-10.98-3.66-10.98-10.98v-24.05c0-7.32,3.66-10.98,10.98-10.98h12.23c7.32,0,10.98,3.66,10.98,10.98v13.34h-9.59v-11.82c0-1.85-.26-3.03-.76-3.54-.51-.51-1.69-.76-3.54-.76h-6.39c-1.85,0-3.04,.26-3.54,.76-.51,.51-.76,1.69-.76,3.54v20.99c0,1.76,.25,2.92,.76,3.48,.51,.56,1.69,.83,3.54,.83h9.45c7.32,0,10.98,3.66,10.98,10.98v26.69c0,7.32-3.66,10.98-10.98,10.98h-12.09c-7.32,0-10.98-3.66-10.98-10.98v-13.34h9.59v11.82c0,1.85,.25,3.04,.76,3.54,.51,.51,1.69,.76,3.54,.76h6.25c1.76,0,2.92-.25,3.47-.76,.56-.51,.83-1.69,.83-3.54Z"/></g></g><g id="b"><g><path class="c" d="M153.88,150.57h0s13.31-6.53,1.76-18.83c-13.42,7.73-1.77,18.83-1.77,18.83Z"/><path class="d" d="M153.7,149.24s.74-2.63,1.35-6.17c.6-3.54,1.07-7.99,.52-11.64l-.24,.04c.55,3.61,.09,8.05-.51,11.57-.3,1.76-.64,3.3-.9,4.39-.13,.55-.24,.99-.32,1.29-.08,.3-.12,.46-.12,.46l.23,.06h0Z"/><polygon class="d" points="152.61 145.45 154.74 144.07 156.46 146.59 156.66 146.46 154.81 143.74 152.48 145.26 152.61 145.45 152.61 145.45"/><polygon class="d" points="153.05 142.57 155.1 141.25 156.91 143.37 157.09 143.22 155.15 140.94 152.92 142.38 153.05 142.57 153.05 142.57"/><polygon class="d" points="153.55 139.96 155.59 138.64 157.4 140.75 157.59 140.6 155.64 138.33 153.42 139.77 153.55 139.96 153.55 139.96"/><polygon class="d" points="153.7 136.86 155.75 135.53 157.56 137.65 157.75 137.5 155.8 135.22 153.57 136.66 153.7 136.86 153.7 136.86"/></g><g><path class="c" d="M72.11,138.37h0s12.02-9.32-2.21-19.48c-11.88,10.55,2.2,19.48,2.2,19.48Z"/><path class="d" d="M71.64,137.05s.19-2.82,.05-6.53c-.14-3.72-.61-8.33-1.94-11.93l-.23,.09c1.32,3.56,1.79,8.15,1.93,11.86,.07,1.85,.06,3.48,.03,4.64-.02,.58-.04,1.05-.05,1.37-.02,.32-.03,.49-.03,.5h.25Z"/><polygon class="d" points="69.75 133.43 71.6 131.59 73.86 133.81 74.04 133.64 71.6 131.25 69.57 133.26 69.75 133.43 69.75 133.43"/><polygon class="d" points="69.58 130.42 71.36 128.66 73.63 130.45 73.79 130.25 71.35 128.33 69.41 130.25 69.58 130.42 69.58 130.42"/><polygon class="d" points="69.53 127.67 71.31 125.91 73.58 127.69 73.74 127.5 71.29 125.58 69.36 127.5 69.53 127.67 69.53 127.67"/><polygon class="d" points="69.03 124.48 70.81 122.72 73.08 124.51 73.24 124.32 70.79 122.39 68.86 124.31 69.03 124.48 69.03 124.48"/></g><g><path class="c" d="M234.71,168.42h0s13.77-2.12,6.99-17.37c-14.21,3.23-6.99,17.37-6.99,17.37Z"/><path class="d" d="M234.94,167.09s1.42-2.27,2.98-5.45c1.56-3.18,3.25-7.27,3.81-10.92l-.22-.04c-.55,3.61-2.23,7.68-3.79,10.85-.78,1.58-1.52,2.94-2.06,3.9-.27,.48-.5,.86-.66,1.12-.16,.26-.24,.4-.24,.4l.19,.12h0Z"/><polygon class="d" points="235.05 163.16 237.35 162.5 238.16 165.42 238.38 165.36 237.51 162.21 234.99 162.94 235.05 163.16 235.05 163.16"/><polygon class="d" points="236.27 160.56 238.48 159.92 239.49 162.5 239.7 162.41 238.61 159.64 236.21 160.34 236.27 160.56 236.27 160.56"/><polygon class="d" points="237.47 158.23 239.67 157.59 240.68 160.16 240.89 160.08 239.81 157.31 237.4 158 237.47 158.23 237.47 158.23"/><polygon class="d" points="238.5 155.32 240.7 154.69 241.71 157.26 241.92 157.17 240.84 154.41 238.44 155.1 238.5 155.32 238.5 155.32"/></g><g><path class="c" d="M103.64,132.66h0s12.02-7.61-.33-18.34c-12,8.78,.33,18.34,.33,18.34Z"/><path class="d" d="M103.33,131.39s.43-2.61,.63-6.08c.2-3.47,.17-7.81-.75-11.29l-.22,.06c.91,3.43,.94,7.76,.75,11.22-.1,1.73-.26,3.25-.39,4.33-.07,.54-.13,.97-.17,1.27-.04,.3-.07,.46-.07,.46l.23,.03h0Z"/><polygon class="d" points="101.88 127.85 103.77 126.3 105.68 128.57 105.86 128.42 103.81 125.98 101.74 127.68 101.88 127.85 101.88 127.85"/><polygon class="d" points="102 125.03 103.81 123.55 105.77 125.41 105.93 125.25 103.82 123.24 101.85 124.85 102 125.03 102 125.03"/><polygon class="d" points="102.19 122.46 104 120.98 105.96 122.84 106.12 122.68 104.02 120.67 102.05 122.29 102.19 122.46 102.19 122.46"/><polygon class="d" points="102.01 119.45 103.82 117.96 105.78 119.83 105.94 119.67 103.83 117.66 101.86 119.27 102.01 119.45 102.01 119.45"/></g><g><path class="c" d="M309.74,147.98h0s13.42-1.6,7.36-16.73c-13.88,2.67-7.37,16.73-7.37,16.73Z"/><path class="d" d="M310,146.69s1.45-2.17,3.07-5.22c1.62-3.05,3.4-6.99,4.06-10.54l-.22-.04c-.65,3.5-2.43,7.43-4.04,10.47-.81,1.52-1.57,2.82-2.13,3.74-.28,.46-.51,.83-.67,1.08-.16,.25-.25,.38-.25,.38l.18,.13h0Z"/><polygon class="d" points="310.24 142.85 312.5 142.28 313.18 145.17 313.39 145.12 312.66 142.01 310.19 142.63 310.24 142.85 310.24 142.85"/><polygon class="d" points="311.52 140.35 313.68 139.81 314.57 142.36 314.77 142.28 313.82 139.54 311.46 140.13 311.52 140.35 311.52 140.35"/><polygon class="d" points="312.75 138.12 314.91 137.57 315.8 140.12 316.01 140.04 315.05 137.3 312.7 137.9 312.75 138.12 312.75 138.12"/><polygon class="d" points="313.85 135.31 316.01 134.77 316.9 137.31 317.11 137.24 316.15 134.5 313.8 135.09 313.85 135.31 313.85 135.31"/></g><g><path class="c" d="M438.45,146.37h0s7.35-11.82-8.68-16.67c-6.8,12.87,8.67,16.67,8.67,16.67Z"/><path class="d" d="M437.59,145.33s-.81-2.56-2.21-5.83c-1.41-3.26-3.42-7.22-5.83-10.04l-.17,.15c2.39,2.78,4.39,6.72,5.8,9.97,.7,1.63,1.25,3.08,1.63,4.12,.19,.52,.33,.94,.43,1.23,.1,.29,.15,.45,.15,.45l.22-.06h0Z"/><polygon class="d" points="434.67 142.67 435.67 140.49 438.42 141.8 438.51 141.59 435.55 140.18 434.46 142.57 434.67 142.67 434.67 142.67"/><polygon class="d" points="433.48 140.04 434.44 137.95 437.06 138.87 437.13 138.66 434.31 137.67 433.27 139.94 433.48 140.04 433.48 140.04"/><polygon class="d" points="432.49 137.61 433.44 135.52 436.06 136.44 436.13 136.23 433.32 135.24 432.28 137.51 432.49 137.61 432.49 137.61"/><polygon class="d" points="430.94 134.92 431.9 132.84 434.52 133.76 434.59 133.54 431.77 132.55 430.73 134.82 430.94 134.92 430.94 134.92"/></g><g><path class="c" d="M260.05,153.75h0s11.14-7.48-.77-17.29c-11.09,8.58,.77,17.29,.77,17.29Z"/><path class="d" d="M259.73,152.56s.34-2.47,.44-5.75c.1-3.28-.04-7.37-.99-10.62l-.21,.06c.95,3.21,1.09,7.29,.98,10.56-.05,1.63-.16,3.07-.26,4.09-.05,.51-.09,.92-.13,1.2-.03,.28-.05,.43-.05,.43l.22,.02h0Z"/><polygon class="d" points="258.27 149.26 260.02 147.75 261.87 149.84 262.04 149.7 260.04 147.45 258.13 149.1 258.27 149.26 258.27 149.26"/><polygon class="d" points="258.31 146.6 259.98 145.16 261.87 146.87 262.02 146.71 259.99 144.87 258.17 146.44 258.31 146.6 258.31 146.6"/><polygon class="d" points="258.43 144.17 260.1 142.73 261.99 144.44 262.14 144.28 260.11 142.44 258.29 144.01 258.43 144.17 258.43 144.17"/><polygon class="d" points="258.18 141.34 259.85 139.89 261.74 141.6 261.89 141.44 259.86 139.61 258.04 141.18 258.18 141.34 258.18 141.34"/></g><g><path class="c" d="M212.76,152.8h0s10.38-11.5-5.71-19.14c-10.02,12.72,5.71,19.14,5.71,19.14Z"/><path class="d" d="M212.06,151.56s-.31-2.86-1.12-6.56c-.81-3.7-2.11-8.24-4.09-11.61l-.22,.13c1.96,3.33,3.26,7.86,4.06,11.54,.4,1.84,.68,3.48,.86,4.65,.09,.59,.15,1.06,.2,1.38,.04,.32,.06,.5,.06,.5l.25-.03h0Z"/><polygon class="d" points="209.5 148.27 211.03 146.1 213.7 147.91 213.84 147.71 210.97 145.75 209.3 148.13 209.5 148.27 209.5 148.27"/><polygon class="d" points="208.8 145.28 210.26 143.2 212.86 144.58 212.99 144.36 210.19 142.87 208.59 145.14 208.8 145.28 208.8 145.28"/><polygon class="d" points="208.25 142.53 209.71 140.44 212.32 141.83 212.44 141.61 209.64 140.12 208.05 142.39 208.25 142.53 208.25 142.53"/><polygon class="d" points="207.17 139.42 208.64 137.34 211.24 138.72 211.36 138.5 208.57 137.02 206.97 139.28 207.17 139.42 207.17 139.42"/></g><g><path class="c" d="M332.77,150.6h0s15.08,.77,10.96-16.09c-15.78,.25-10.96,16.09-10.96,16.09Z"/><path class="d" d="M333.28,149.31s1.97-2,4.27-4.88c2.3-2.89,4.93-6.66,6.26-10.24l-.23-.08c-1.31,3.53-3.93,7.3-6.23,10.17-1.15,1.44-2.21,2.66-2.99,3.51-.39,.43-.71,.77-.93,1-.22,.23-.34,.35-.34,.35l.18,.17h0Z"/><polygon class="d" points="334.19 145.35 336.78 145.17 337.04 148.3 337.29 148.29 337 144.92 334.17 145.12 334.19 145.35 334.19 145.35"/><polygon class="d" points="336.02 142.98 338.5 142.81 339.05 145.62 339.29 145.58 338.7 142.55 336 142.74 336.02 142.98 336.02 142.98"/><polygon class="d" points="337.76 140.87 340.24 140.7 340.79 143.52 341.04 143.47 340.44 140.45 337.74 140.64 337.76 140.87 337.76 140.87"/><polygon class="d" points="339.45 138.15 341.93 137.98 342.48 140.79 342.72 140.75 342.13 137.72 339.43 137.91 339.45 138.15 339.45 138.15"/></g><g><path class="c" d="M293.04,130.17h0s4.22-12.97-11.46-13.34c-3.49,13.82,11.45,13.34,11.45,13.34Z"/><path class="d" d="M292.04,129.42s-1.28-2.19-3.25-4.87c-1.98-2.69-4.65-5.87-7.45-7.87l-.13,.18c2.77,1.98,5.44,5.15,7.41,7.82,.98,1.34,1.8,2.55,2.36,3.43,.28,.44,.5,.8,.65,1.04,.15,.25,.23,.38,.23,.38l.19-.12h0Z"/><polygon class="d" points="288.8 127.69 289.25 125.39 292.05 125.9 292.09 125.68 289.08 125.14 288.59 127.65 288.8 127.69 288.8 127.69"/><polygon class="d" points="287.16 125.54 287.59 123.34 290.18 123.52 290.2 123.3 287.42 123.1 286.95 125.5 287.16 125.54 287.16 125.54"/><polygon class="d" points="285.74 123.52 286.17 121.32 288.75 121.5 288.77 121.28 285.99 121.09 285.52 123.49 285.74 123.52 285.74 123.52"/><polygon class="d" points="283.76 121.41 284.19 119.21 286.78 119.39 286.8 119.17 284.02 118.98 283.55 121.37 283.76 121.41 283.76 121.41"/></g><g><path class="c" d="M277.07,158.87h0s9.36,4.36,11.07-7.39c-10.06-3.88-11.07,7.39-11.07,7.39Z"/><path class="d" d="M277.72,158.18s1.76-.76,3.96-2c2.2-1.24,4.83-2.96,6.59-4.88l-.13-.11c-1.74,1.9-4.36,3.62-6.55,4.85-1.1,.62-2.08,1.12-2.79,1.46-.36,.17-.64,.31-.84,.4-.2,.09-.31,.14-.31,.14l.07,.15h0Z"/><polygon class="d" points="279.32 155.91 281 156.46 280.37 158.51 280.53 158.56 281.21 156.35 279.37 155.75 279.32 155.91 279.32 155.91"/><polygon class="d" points="281.08 154.87 282.7 155.4 282.33 157.32 282.49 157.36 282.89 155.29 281.13 154.72 281.08 154.87 281.08 154.87"/><polygon class="d" points="282.73 153.98 284.34 154.51 283.97 156.44 284.13 156.47 284.53 154.4 282.78 153.83 282.73 153.98 282.73 153.98"/><polygon class="d" points="284.49 152.69 286.11 153.22 285.74 155.14 285.9 155.18 286.3 153.11 284.54 152.54 284.49 152.69 284.49 152.69"/></g><g><path class="c" d="M310.19,169.92h0s-1.39-10.23-12.2-5.32c2.17,10.56,12.2,5.32,12.2,5.32Z"/><path class="d" d="M309.26,169.75s-1.59-1.07-3.82-2.25c-2.23-1.18-5.1-2.47-7.67-2.91l-.03,.17c2.54,.43,5.4,1.72,7.62,2.89,1.11,.59,2.06,1.15,2.74,1.56,.34,.21,.6,.38,.79,.5,.18,.12,.28,.18,.28,.18l.09-.14h0Z"/><polygon class="d" points="306.49 169.63 306.04 167.92 308.11 167.34 308.07 167.18 305.84 167.8 306.33 169.68 306.49 169.63 306.49 169.63"/><polygon class="d" points="304.66 168.7 304.23 167.06 306.05 166.33 305.99 166.18 304.04 166.96 304.51 168.75 304.66 168.7 304.66 168.7"/><polygon class="d" points="303.03 167.8 302.6 166.16 304.42 165.43 304.36 165.27 302.4 166.06 302.87 167.84 303.03 167.8 303.03 167.8"/><polygon class="d" points="300.99 167.01 300.55 165.37 302.38 164.64 302.32 164.49 300.36 165.27 300.83 167.06 300.99 167.01 300.99 167.01"/></g><g><path class="c" d="M341.62,178.79h0s13.66,.91,10.15-14.43c-14.3,.01-10.15,14.43-10.15,14.43Z"/><path class="d" d="M342.1,177.63s1.81-1.78,3.94-4.37c2.12-2.59,4.56-5.97,5.82-9.19l-.21-.08c-1.24,3.18-3.67,6.56-5.78,9.14-1.06,1.29-2.04,2.38-2.76,3.14-.36,.38-.65,.69-.85,.89-.2,.21-.31,.32-.31,.32l.16,.15h0Z"/><polygon class="d" points="342.98 174.05 345.33 173.92 345.52 176.77 345.75 176.75 345.53 173.69 342.97 173.84 342.98 174.05 342.98 174.05"/><polygon class="d" points="344.67 171.93 346.92 171.8 347.38 174.36 347.6 174.33 347.1 171.58 344.66 171.71 344.67 171.93 344.67 171.93"/><polygon class="d" points="346.28 170.04 348.53 169.92 348.99 172.48 349.21 172.44 348.71 169.69 346.26 169.83 346.28 170.04 346.28 170.04"/><polygon class="d" points="347.84 167.6 350.09 167.47 350.55 170.03 350.77 170 350.28 167.25 347.83 167.38 347.84 167.6 347.84 167.6"/></g><g><path class="c" d="M386.69,139.29h0s12.98,1.98,10.87-12.97c-13.67-1.15-10.88,12.97-10.88,12.97Z"/><path class="d" d="M387.24,138.22s1.88-1.56,4.12-3.85c2.24-2.3,4.85-5.33,6.31-8.31l-.19-.09c-1.44,2.94-4.04,5.97-6.27,8.26-1.12,1.14-2.14,2.1-2.89,2.78-.37,.34-.68,.6-.89,.78-.21,.18-.33,.28-.33,.28l.14,.16h0Z"/><polygon class="d" points="388.38 134.88 390.63 134.95 390.59 137.68 390.8 137.69 390.85 134.75 388.38 134.67 388.38 134.88 388.38 134.88"/><polygon class="d" points="390.16 132.99 392.32 133.05 392.56 135.54 392.77 135.52 392.52 132.85 390.17 132.78 390.16 132.99 390.16 132.99"/><polygon class="d" points="391.85 131.32 394.01 131.38 394.25 133.86 394.46 133.85 394.21 131.18 391.86 131.11 391.85 131.32 391.85 131.32"/><polygon class="d" points="393.55 129.11 395.71 129.17 395.94 131.66 396.15 131.64 395.9 128.97 393.55 128.9 393.55 129.11 393.55 129.11"/></g><g><path class="c" d="M354.66,142.3h0s12.94,6.54,15.87-9.87c-13.95-5.91-15.88,9.87-15.88,9.87Z"/><path class="d" d="M355.61,141.37s2.51-.99,5.65-2.63c3.14-1.64,6.92-3.93,9.48-6.56l-.17-.16c-2.53,2.59-6.29,4.88-9.42,6.51-1.57,.82-2.97,1.47-3.99,1.92-.51,.23-.92,.4-1.2,.52-.28,.12-.44,.18-.44,.18l.09,.22h0Z"/><polygon class="d" points="357.95 138.25 360.29 139.1 359.31 141.95 359.53 142.03 360.59 138.96 358.02 138.03 357.95 138.25 357.95 138.25"/><polygon class="d" points="360.48 136.88 362.72 137.69 362.11 140.38 362.34 140.43 362.99 137.54 360.55 136.66 360.48 136.88 360.48 136.88"/><polygon class="d" points="362.83 135.7 365.07 136.51 364.46 139.2 364.69 139.26 365.34 136.37 362.9 135.49 362.83 135.7 362.83 135.7"/><polygon class="d" points="365.37 133.97 367.61 134.78 367 137.47 367.23 137.52 367.88 134.63 365.44 133.75 365.37 133.97 365.37 133.97"/></g><g><path class="c" d="M415.67,147.9h0s9.12-9.96-4.86-16.71c-8.81,11.02,4.85,16.71,4.85,16.71Z"/><path class="d" d="M415.07,146.82s-.25-2.5-.93-5.73c-.68-3.23-1.78-7.19-3.49-10.15l-.19,.11c1.69,2.92,2.79,6.87,3.47,10.08,.34,1.61,.57,3.04,.72,4.06,.07,.51,.13,.92,.16,1.21,.03,.28,.05,.44,.05,.44l.22-.03h0Z"/><polygon class="d" points="412.87 143.93 414.21 142.05 416.52 143.65 416.65 143.47 414.17 141.75 412.69 143.81 412.87 143.93 412.87 143.93"/><polygon class="d" points="412.27 141.32 413.56 139.52 415.82 140.74 415.93 140.55 413.5 139.23 412.1 141.2 412.27 141.32 412.27 141.32"/><polygon class="d" points="411.81 138.92 413.1 137.12 415.36 138.34 415.47 138.15 413.04 136.83 411.64 138.8 411.81 138.92 411.81 138.92"/><polygon class="d" points="410.9 136.21 412.19 134.4 414.44 135.63 414.55 135.44 412.12 134.12 410.72 136.09 410.9 136.21 410.9 136.21"/></g><g><path class="c" d="M382.72,165.62h0s7.47-11.67-7.85-16.04c-6.97,12.69,7.85,16.04,7.85,16.04Z"/><path class="d" d="M381.92,164.63s-.7-2.48-1.95-5.62c-1.26-3.15-3.07-6.96-5.31-9.64l-.17,.15c2.22,2.65,4.03,6.45,5.28,9.58,.63,1.57,1.11,2.97,1.44,3.98,.16,.5,.29,.91,.38,1.19,.08,.28,.13,.43,.13,.43l.21-.07h0Z"/><polygon class="d" points="379.18 162.1 380.21 159.96 382.83 161.17 382.93 160.97 380.11 159.66 378.98 162.01 379.18 162.1 379.18 162.1"/><polygon class="d" points="378.12 159.57 379.11 157.51 381.6 158.35 381.68 158.14 379 157.24 377.92 159.47 378.12 159.57 378.12 159.57"/><polygon class="d" points="377.23 157.22 378.22 155.17 380.72 156.01 380.79 155.79 378.11 154.89 377.04 157.13 377.23 157.22 377.23 157.22"/><polygon class="d" points="375.83 154.64 376.82 152.59 379.31 153.43 379.39 153.21 376.7 152.31 375.63 154.55 375.83 154.64 375.83 154.64"/></g><g><path class="c" d="M83.8,172.54h0s2.9-13.87-13.33-12.48c-2.05,14.66,13.33,12.48,13.33,12.48Z"/><path class="d" d="M82.68,171.88s-1.57-2.12-3.91-4.67c-2.34-2.55-5.46-5.54-8.59-7.29l-.11,.2c3.09,1.73,6.2,4.7,8.53,7.24,1.17,1.27,2.14,2.43,2.82,3.28,.34,.42,.61,.77,.79,1,.18,.24,.28,.37,.28,.37l.18-.14h0Z"/><polygon class="d" points="79.15 170.46 79.35 168.04 82.29 168.24 82.31 168.01 79.15 167.79 78.92 170.44 79.15 170.46 79.15 170.46"/><polygon class="d" points="77.21 168.42 77.41 166.1 80.1 165.99 80.09 165.76 77.2 165.88 76.99 168.41 77.21 168.42 77.21 168.42"/><polygon class="d" points="75.51 166.5 75.71 164.18 78.4 164.07 78.39 163.84 75.5 163.96 75.29 166.48 75.51 166.5 75.51 166.5"/><polygon class="d" points="73.23 164.54 73.43 162.22 76.12 162.12 76.11 161.89 73.22 162 73 164.53 73.23 164.54 73.23 164.54"/></g><g><path class="c" d="M31.34,151.55h0s15.14-3.27,6.54-18.87c-15.56,4.47-6.54,18.87-6.54,18.87Z"/><path class="d" d="M31.49,150.13s1.42-2.51,2.92-5.98c1.51-3.48,3.1-7.92,3.46-11.82l-.25-.02c-.35,3.85-1.94,8.28-3.44,11.74-.75,1.73-1.48,3.22-2.02,4.28-.27,.53-.49,.95-.65,1.24-.16,.29-.24,.44-.24,.44l.22,.12h0Z"/><polygon class="d" points="31.34 145.97 33.86 145.1 34.96 148.13 35.19 148.04 34.01 144.78 31.26 145.74 31.34 145.97 31.34 145.97"/><polygon class="d" points="32.52 143.13 34.92 142.29 36.23 144.93 36.45 144.83 35.05 141.99 32.43 142.9 32.52 143.13 32.52 143.13"/><polygon class="d" points="33.68 140.57 36.09 139.74 37.39 142.38 37.62 142.27 36.22 139.43 33.6 140.34 33.68 140.57 33.68 140.57"/><polygon class="d" points="34.62 137.43 37.03 136.59 38.33 139.23 38.56 139.13 37.16 136.29 34.54 137.2 34.62 137.43 34.62 137.43"/></g><g><path class="c" d="M171.62,168.56h0s12.46,.26,10.18-17.97c-13.11,.88-10.18,17.97-10.18,17.97Z"/><path class="d" d="M172.13,167.13s1.77-2.25,3.88-5.49c2.1-3.24,4.55-7.46,5.89-11.4l-.19-.08c-1.33,3.9-3.76,8.11-5.86,11.33-1.05,1.61-2.01,2.98-2.72,3.95-.35,.48-.64,.86-.84,1.12-.2,.26-.31,.4-.31,.4l.14,.18h0Z"/><polygon class="d" points="173.16 162.78 175.31 162.48 175.32 165.89 175.53 165.86 175.52 162.2 173.16 162.52 173.16 162.78 173.16 162.78"/><polygon class="d" points="174.83 160.12 176.9 159.84 177.17 162.89 177.37 162.83 177.08 159.55 174.83 159.87 174.83 160.12 174.83 160.12"/><polygon class="d" points="176.42 157.76 178.49 157.47 178.76 160.52 178.96 160.47 178.67 157.19 176.42 157.5 176.42 157.76 176.42 157.76"/><polygon class="d" points="178.01 154.73 180.07 154.44 180.34 157.49 180.54 157.43 180.26 154.16 178.01 154.47 178.01 154.73 178.01 154.73"/></g><g><path class="c" d="M76.84,152.72h0s13.66,.91,10.15-14.43c-14.3,.01-10.15,14.43-10.15,14.43Z"/><path class="d" d="M77.32,151.56s1.81-1.78,3.94-4.37c2.12-2.59,4.56-5.97,5.82-9.19l-.21-.08c-1.24,3.18-3.67,6.56-5.78,9.14-1.06,1.29-2.04,2.38-2.76,3.14-.36,.38-.65,.69-.85,.89-.2,.21-.31,.32-.31,.32l.16,.15h0Z"/><polygon class="d" points="78.2 147.99 80.55 147.86 80.74 150.7 80.97 150.69 80.75 147.63 78.18 147.77 78.2 147.99 78.2 147.99"/><polygon class="d" points="79.89 145.86 82.14 145.74 82.6 148.3 82.82 148.26 82.32 145.51 79.87 145.64 79.89 145.86 79.89 145.86"/><polygon class="d" points="81.5 143.98 83.74 143.85 84.21 146.41 84.43 146.38 83.93 143.62 81.48 143.76 81.5 143.98 81.5 143.98"/><polygon class="d" points="83.06 141.53 85.31 141.41 85.77 143.97 85.99 143.93 85.49 141.18 83.05 141.31 83.06 141.53 83.06 141.53"/></g><g><path class="c" d="M438.58,161.26h0s12.85,4.7,13.79-11c-13.73-4-13.79,11-13.79,11Z"/><path class="d" d="M439.37,160.28s2.24-1.2,5.01-3.09c2.77-1.88,6.06-4.45,8.16-7.19l-.18-.13c-2.08,2.71-5.36,5.27-8.11,7.14-1.38,.94-2.63,1.71-3.53,2.24-.45,.27-.82,.48-1.07,.62-.25,.14-.39,.22-.39,.22l.11,.19h0Z"/><polygon class="d" points="441.22 157.1 443.51 157.63 442.9 160.42 443.12 160.47 443.77 157.47 441.27 156.89 441.22 157.1 441.22 157.1"/><polygon class="d" points="443.44 155.53 445.63 156.04 445.36 158.63 445.58 158.66 445.87 155.88 443.48 155.32 443.44 155.53 443.44 155.53"/><polygon class="d" points="445.51 154.17 447.7 154.69 447.43 157.27 447.65 157.3 447.94 154.52 445.56 153.96 445.51 154.17 445.51 154.17"/><polygon class="d" points="447.7 152.27 449.89 152.78 449.62 155.37 449.84 155.39 450.13 152.61 447.75 152.06 447.7 152.27 447.7 152.27"/></g><g><path class="c" d="M477.45,142.85h0s1.56-13.6-13.93-10.83c-.67,14.28,13.93,10.83,13.93,10.83Z"/><path class="d" d="M476.31,142.32s-1.69-1.9-4.17-4.14c-2.48-2.25-5.75-4.84-8.9-6.25l-.09,.2c3.12,1.39,6.38,3.98,8.85,6.21,1.24,1.12,2.28,2.15,3.01,2.9,.37,.38,.65,.68,.85,.89,.2,.21,.3,.33,.3,.33l.16-.15h0Z"/><polygon class="d" points="472.79 141.26 472.77 138.91 475.62 138.85 475.62 138.63 472.55 138.7 472.57 141.27 472.79 141.26 472.79 141.26"/><polygon class="d" points="470.74 139.48 470.73 137.23 473.31 136.88 473.28 136.66 470.51 137.03 470.53 139.48 470.74 139.48 470.74 139.48"/><polygon class="d" points="468.94 137.78 468.92 135.53 471.5 135.19 471.48 134.97 468.7 135.33 468.72 137.78 468.94 137.78 468.94 137.78"/><polygon class="d" points="466.57 136.1 466.56 133.85 469.14 133.51 469.11 133.29 466.34 133.65 466.35 136.1 466.57 136.1 466.57 136.1"/></g><g><path class="c" d="M499.19,160.2h0s13.66,.91,10.15-14.43c-14.3,.01-10.15,14.43-10.15,14.43Z"/><path class="d" d="M499.67,159.03s1.81-1.78,3.94-4.37c2.12-2.59,4.56-5.97,5.82-9.19l-.21-.08c-1.24,3.18-3.67,6.56-5.78,9.14-1.06,1.29-2.04,2.38-2.76,3.14-.36,.38-.65,.69-.85,.89-.2,.21-.31,.32-.31,.32l.16,.15h0Z"/><polygon class="d" points="500.55 155.46 502.9 155.33 503.09 158.17 503.32 158.16 503.1 155.1 500.54 155.24 500.55 155.46 500.55 155.46"/><polygon class="d" points="502.24 153.33 504.49 153.21 504.95 155.77 505.17 155.74 504.67 152.98 502.22 153.12 502.24 153.33 502.24 153.33"/><polygon class="d" points="503.85 151.45 506.1 151.33 506.56 153.89 506.78 153.85 506.28 151.1 503.83 151.23 503.85 151.45 503.85 151.45"/><polygon class="d" points="505.41 149.01 507.66 148.88 508.12 151.44 508.34 151.41 507.84 148.65 505.4 148.79 505.41 149.01 505.41 149.01"/></g><g><path class="c" d="M527.04,151.24h0s9.92-9.43-3.75-17.24c-9.68,10.53,3.74,17.24,3.74,17.24Z"/><path class="d" d="M526.51,150.1s-.08-2.54-.55-5.86c-.46-3.31-1.3-7.4-2.82-10.51l-.2,.1c1.5,3.07,2.34,7.14,2.8,10.44,.23,1.65,.37,3.11,.44,4.16,.04,.52,.06,.94,.08,1.23,.01,.29,.02,.45,.02,.45h.22Z"/><polygon class="d" points="524.48 147.03 525.97 145.22 528.2 147 528.34 146.83 525.94 144.91 524.31 146.9 524.48 147.03 524.48 147.03"/><polygon class="d" points="524.06 144.35 525.49 142.61 527.69 144.01 527.81 143.82 525.45 142.32 523.89 144.21 524.06 144.35 524.06 144.35"/><polygon class="d" points="523.76 141.89 525.19 140.15 527.39 141.55 527.51 141.36 525.15 139.86 523.59 141.75 523.76 141.89 523.76 141.89"/><polygon class="d" points="523.02 139.08 524.45 137.34 526.65 138.74 526.77 138.55 524.41 137.05 522.85 138.95 523.02 139.08 523.02 139.08"/></g></g></svg>