<?xml version="1.0" encoding="UTF-8"?><svg xmlns="http://www.w3.org/2000/svg" viewBox="0 0 555.26 262"><defs><style>.c{fill:#afa57d;}.d{fill:#777159;}</style></defs><g id="a"><g><path class="c" d="M67.05,174.49l-3.61-21.96h-17.51l-3.2,21.96h-9.59l13.48-86.46h15.15l14.87,86.46h-9.59Zm-20.02-30.16h15.15l-8.06-49.62-7.09,49.62Z"/><path class="c" d="M121.12,113.61h-9.59v-13.07c0-1.85-.28-3.03-.83-3.54-.56-.51-1.72-.76-3.47-.76h-7.65c-1.85,0-3.04,.26-3.54,.76s-.76,1.69-.76,3.54v61.58c0,1.76,.25,2.92,.76,3.48,.51,.56,1.69,.83,3.54,.83h7.65c1.76,0,2.92-.28,3.47-.83,.56-.56,.83-1.71,.83-3.48v-13.07h9.59v14.6c0,7.32-3.66,10.98-10.98,10.98h-13.48c-7.32,0-10.98-3.66-10.98-10.98V99.01c0-7.32,3.66-10.98,10.98-10.98h13.48c7.32,0,10.98,3.66,10.98,10.98v14.6Z"/><path class="c" d="M169.07,113.61h-9.59v-13.07c0-1.85-.28-3.03-.83-3.54-.56-.51-1.72-.76-3.47-.76h-7.65c-1.85,0-3.04,.26-3.54,.76s-.76,1.69-.76,3.54v61.58c0,1.76,.25,2.92,.76,3.48,.51,.56,1.69,.83,3.54,.83h7.65c1.76,0,2.92-.28,3.47-.83,.56-.56,.83-1.71,.83-3.48v-13.07h9.59v14.6c0,7.32-3.66,10.98-10.98,10.98h-13.48c-7.32,0-10.98-3.66-10.98-10.98V99.01c0-7.32,3.66-10.98,10.98-10.98h13.48c7.32,0,10.98,3.66,10.98,10.98v14.6Z"/><path class="c" d="M191.87,166.29h23.77v8.2h-33.36V88.03h32.39v8.2h-22.8v29.19h18.63v8.2h-18.63v32.67Z"/><path class="c" d="M248.72,161.98v-23.63c0-1.85-.28-3.03-.83-3.54-.56-.51-1.72-.76-3.47-.76h-9.45c-7.32,0-10.98-3.66-10.98-10.98v-24.05c0-7.32,3.66-10.98,10.98-10.98h12.23c7.32,0,10.98,3.66,10.98,10.98v13.34h-9.59v-11.82c0-1.85-.26-3.03-.76-3.54-.51-.51-1.69-.76-3.54-.76h-6.39c-1.85,0-3.04,.26-3.54,.76-.51,.51-.76,1.69-.76,3.54v20.99c0,1.76,.25,2.92,.76,3.48,.51,.56,1.69,.83,3.54,.83h9.45c7.32,0,10.98,3.66,10.98,10.98v26.69c0,7.32-3.66,10.98-10.98,10.98h-12.09c-7.32,0-10.98-3.66-10.98-10.98v-13.34h9.59v11.82c0,1.85,.25,3.04,.76,3.54,.51,.51,1.69,.76,3.54,.76h6.25c1.76,0,2.92-.25,3.47-.76,.56-.51,.83-1.69,.83-3.54Z"/><path class="c" d="M294.17,161.98v-23.63c0-1.85-.28-3.03-.83-3.54-.56-.51-1.72-.76-3.47-.76h-9.45c-7.32,0-10.98-3.66-10.98-10.98v-24.05c0-7.32,3.66-10.98,10.98-10.98h12.23c7.32,0,10.98,3.66,10.98,10.98v13.34h-9.59v-11.82c0-1.85-.26-3.03-.76-3.54-.51-.51-1.69-.76-3.54-.76h-6.39c-1.85,0-3.04,.26-3.54,.76-.51,.51-.76,1.69-.76,3.54v20.99c0,1.76,.25,2.92,.76,3.48,.51,.56,1.69,.83,3.54,.83h9.45c7.32,0,10.98,3.66,10.98,10.98v26.69c0,7.32-3.66,10.98-10.98,10.98h-12.09c-7.32,0-10.98-3.66-10.98-10.98v-13.34h9.59v11.82c0,1.85,.25,3.04,.76,3.54,.51,.51,1.69,.76,3.54,.76h6.25c1.76,0,2.92-.25,3.47-.76,.56-.51,.83-1.69,.83-3.54Z"/><path class="c" d="M327.25,88.03h14.18c7.32,0,10.98,3.66,10.98,10.98v64.5c0,7.32-3.66,10.98-10.98,10.98h-14.18c-7.32,0-10.98-3.66-10.98-10.98V99.01c0-7.32,3.66-10.98,10.98-10.98Zm15.71,73.95v-61.44c0-1.85-.28-3.03-.83-3.54-.56-.51-1.72-.76-3.47-.76h-8.62c-1.76,0-2.92,.26-3.47,.76-.56,.51-.83,1.69-.83,3.54v61.44c0,1.85,.28,3.04,.83,3.54,.56,.51,1.71,.76,3.47,.76h8.62c1.76,0,2.92-.25,3.47-.76,.56-.51,.83-1.69,.83-3.54Z"/><path class="c" d="M368.39,88.03h9.45v86.46h-9.45V88.03Z"/><path class="c" d="M403.98,138.35v36.14h-9.45V88.03h25.16c7.32,0,10.98,3.66,10.98,10.98v28.36c0,6.58-2.87,10.19-8.62,10.84l13.07,36.28h-10.29l-12.65-36.14h-8.2Zm0-42.12v33.92h12.93c1.85,0,3.03-.25,3.54-.76,.51-.51,.76-1.69,.76-3.54v-25.3c0-1.85-.26-3.03-.76-3.54-.51-.51-1.69-.76-3.54-.76h-12.93Z"/><path class="c" d="M454.71,166.29h23.77v8.2h-33.36V88.03h32.39v8.2h-22.8v29.19h18.63v8.2h-18.63v32.67Z"/><path class="c" d="M511.56,161.98v-23.63c0-1.85-.28-3.03-.83-3.54-.56-.51-1.72-.76-3.47-.76h-9.45c-7.32,0-10.98-3.66-10.98-10.98v-24.05c0-7.32,3.66-10.98,10.98-10.98h12.23c7.32,0,10.98,3.66,10.98,10.98v13.34h-9.59v-11.82c0-1.85-.26-3.03-.76-3.54-.51-.51-1.69-.76-3.54-.76h-6.39c-1.85,0-3.04,.26-3.54,.76-.51,.51-.76,1.69-.76,3.54v20.99c0,1.76,.25,2.92,.76,3.48,.51,.56,1.69,.83,3.54,.83h9.45c7.32,0,10.98,3.66,10.98,10.98v26.69c0,7.32-3.66,10.98-10.98,10.98h-12.09c-7.32,0-10.98-3.66-10.98-10.98v-13.34h9.59v11.82c0,1.85,.25,3.04,.76,3.54,.51,.51,1.69,.76,3.54,.76h6.25c1.76,0,2.92-.25,3.47-.76,.56-.51,.83-1.69,.83-3.54Z"/></g></g><g id="b"><g><path class="c" d="M157.31,135.8h0s5.67-13.7-11.13-15.3c-4.96,14.67,11.12,15.3,11.12,15.3Z"/><path class="d" d="M156.29,134.92s-1.18-2.46-3.06-5.52c-1.89-3.05-4.47-6.7-7.31-9.08l-.15,.19c2.8,2.35,5.39,5.98,7.26,9.02,.94,1.52,1.7,2.9,2.23,3.89,.26,.5,.47,.9,.61,1.18,.14,.28,.21,.43,.21,.43l.21-.11h0Z"/><polygon class="d" points="152.97 132.8 153.66 130.35 156.61 131.11 156.67 130.88 153.5 130.06 152.75 132.74 152.97 132.8 152.97 132.8"/><polygon class="d" points="151.4 130.35 152.06 128 154.82 128.39 154.86 128.16 151.89 127.74 151.18 130.29 151.4 130.35 151.4 130.35"/><polygon class="d" points="150.05 128.06 150.7 125.72 153.46 126.11 153.5 125.87 150.54 125.45 149.82 128 150.05 128.06 150.05 128.06"/><polygon class="d" points="148.11 125.63 148.76 123.28 151.53 123.67 151.57 123.44 148.6 123.02 147.88 125.57 148.11 125.63 148.11 125.63"/></g><g><path class="c" d="M75.21,118.79h0s6.28-13.85-11.04-16.2c-5.58,14.88,11.04,16.2,11.04,16.2Z"/><path class="d" d="M74.19,117.84s-1.15-2.58-3-5.8c-1.86-3.22-4.42-7.08-7.28-9.65l-.16,.19c2.83,2.53,5.39,6.38,7.24,9.59,.93,1.6,1.67,3.05,2.19,4.1,.26,.52,.46,.94,.59,1.24,.14,.29,.21,.45,.21,.45l.22-.11h0Z"/><polygon class="d" points="70.82 115.52 71.6 113.03 74.63 113.94 74.71 113.7 71.45 112.73 70.59 115.45 70.82 115.52 70.82 115.52"/><polygon class="d" points="69.27 112.93 70.02 110.55 72.86 111.07 72.91 110.83 69.86 110.27 69.04 112.86 69.27 112.93 69.27 112.93"/><polygon class="d" points="67.94 110.52 68.69 108.14 71.53 108.66 71.58 108.42 68.52 107.86 67.71 110.45 67.94 110.52 67.94 110.52"/><polygon class="d" points="66.01 107.94 66.76 105.55 69.6 106.07 69.65 105.83 66.59 105.27 65.78 107.87 66.01 107.94 66.01 107.94"/></g><g><path class="c" d="M235.54,154.24h0s13.77-2.12,6.99-17.37c-14.21,3.23-6.99,17.37-6.99,17.37Z"/><path class="d" d="M235.76,152.92s1.42-2.27,2.98-5.45c1.56-3.18,3.25-7.27,3.81-10.92l-.22-.04c-.55,3.61-2.23,7.68-3.79,10.85-.78,1.58-1.52,2.94-2.06,3.9-.27,.48-.5,.86-.66,1.12-.16,.26-.24,.4-.24,.4l.19,.12h0Z"/><polygon class="d" points="235.88 148.99 238.18 148.32 238.99 151.25 239.2 151.19 238.34 148.04 235.81 148.76 235.88 148.99 235.88 148.99"/><polygon class="d" points="237.1 146.38 239.3 145.75 240.32 148.32 240.53 148.24 239.44 145.47 237.04 146.16 237.1 146.38 237.1 146.38"/><polygon class="d" points="238.29 144.05 240.5 143.42 241.51 145.99 241.72 145.9 240.63 143.14 238.23 143.83 238.29 144.05 238.29 144.05"/><polygon class="d" points="239.32 141.15 241.53 140.51 242.54 143.08 242.75 143 241.66 140.23 239.26 140.92 239.32 141.15 239.32 141.15"/></g><g><path class="c" d="M94.85,117.44h0s13.73,3.75,13.33-12.6c-14.57-2.95-13.33,12.6-13.33,12.6Z"/><path class="d" d="M95.57,116.35s2.22-1.44,4.92-3.63c2.7-2.19,5.89-5.14,7.83-8.16l-.2-.12c-1.92,2.99-5.09,5.92-7.78,8.11-1.35,1.09-2.57,2-3.46,2.63-.44,.32-.8,.56-1.05,.73-.25,.17-.39,.26-.39,.26l.13,.19h0Z"/><polygon class="d" points="97.21 112.89 99.63 113.25 99.24 116.18 99.47 116.22 99.89 113.06 97.24 112.67 97.21 112.89 97.21 112.89"/><polygon class="d" points="99.37 111.08 101.69 111.42 101.63 114.12 101.86 114.13 101.92 111.22 99.4 110.85 99.37 111.08 99.37 111.08"/><polygon class="d" points="101.4 109.49 103.72 109.83 103.66 112.53 103.89 112.54 103.95 109.64 101.43 109.27 101.4 109.49 101.4 109.49"/><polygon class="d" points="103.5 107.32 105.82 107.66 105.76 110.37 105.99 110.38 106.05 107.47 103.53 107.1 103.5 107.32 103.5 107.32"/></g><g><path class="c" d="M309.82,123.69h0s13.42-1.6,7.36-16.73c-13.88,2.67-7.37,16.73-7.37,16.73Z"/><path class="d" d="M310.08,122.41s1.45-2.17,3.07-5.22c1.62-3.05,3.4-6.99,4.06-10.54l-.22-.04c-.65,3.5-2.43,7.43-4.04,10.47-.81,1.52-1.57,2.82-2.13,3.74-.28,.46-.51,.83-.67,1.08-.16,.25-.25,.38-.25,.38l.18,.13h0Z"/><polygon class="d" points="310.32 118.57 312.58 118 313.26 120.89 313.47 120.83 312.74 117.73 310.27 118.35 310.32 118.57 310.32 118.57"/><polygon class="d" points="311.6 116.07 313.76 115.53 314.65 118.07 314.86 118 313.9 115.26 311.54 115.85 311.6 116.07 311.6 116.07"/><polygon class="d" points="312.83 113.83 314.99 113.29 315.89 115.84 316.09 115.76 315.13 113.02 312.78 113.61 312.83 113.83 312.83 113.83"/><polygon class="d" points="313.93 111.03 316.09 110.48 316.98 113.03 317.19 112.95 316.23 110.22 313.88 110.81 313.93 111.03 313.93 111.03"/></g><g><path class="c" d="M437.96,128.77h0s7.35-11.82-8.68-16.67c-6.8,12.87,8.67,16.67,8.67,16.67Z"/><path class="d" d="M437.1,127.73s-.81-2.56-2.21-5.83c-1.41-3.26-3.42-7.22-5.83-10.04l-.17,.15c2.39,2.78,4.39,6.72,5.8,9.97,.7,1.63,1.25,3.08,1.63,4.12,.19,.52,.33,.94,.43,1.23,.1,.29,.15,.45,.15,.45l.22-.06h0Z"/><polygon class="d" points="434.18 125.07 435.18 122.89 437.93 124.2 438.02 123.99 435.06 122.59 433.97 124.97 434.18 125.07 434.18 125.07"/><polygon class="d" points="432.99 122.44 433.95 120.35 436.57 121.27 436.64 121.06 433.82 120.07 432.78 122.34 432.99 122.44 432.99 122.44"/><polygon class="d" points="432 120.01 432.95 117.92 435.57 118.84 435.64 118.63 432.82 117.64 431.79 119.91 432 120.01 432 120.01"/><polygon class="d" points="430.45 117.32 431.41 115.24 434.02 116.16 434.1 115.94 431.28 114.95 430.24 117.22 430.45 117.32 430.45 117.32"/></g><g><path class="c" d="M257.05,122.75h0s11.14-7.48-.77-17.29c-11.09,8.58,.77,17.29,.77,17.29Z"/><path class="d" d="M256.72,121.56s.34-2.47,.44-5.75c.1-3.28-.04-7.37-.99-10.62l-.21,.06c.95,3.21,1.09,7.29,.98,10.56-.05,1.63-.16,3.07-.26,4.09-.05,.51-.09,.92-.13,1.2-.03,.28-.05,.43-.05,.43l.22,.02h0Z"/><polygon class="d" points="255.27 118.26 257.01 116.75 258.87 118.84 259.03 118.69 257.04 116.45 255.13 118.1 255.27 118.26 255.27 118.26"/><polygon class="d" points="255.31 115.59 256.98 114.15 258.87 115.86 259.02 115.7 256.98 113.86 255.17 115.43 255.31 115.59 255.31 115.59"/><polygon class="d" points="255.43 113.17 257.1 111.72 258.99 113.43 259.14 113.27 257.1 111.44 255.29 113.01 255.43 113.17 255.43 113.17"/><polygon class="d" points="255.18 110.33 256.85 108.89 258.74 110.6 258.89 110.44 256.85 108.6 255.04 110.17 255.18 110.33 255.18 110.33"/></g><g><path class="c" d="M204.03,116.04h0s10.38-11.5-5.71-19.14c-10.02,12.72,5.71,19.14,5.71,19.14Z"/><path class="d" d="M203.33,114.8s-.31-2.86-1.12-6.56c-.81-3.7-2.11-8.24-4.09-11.61l-.22,.13c1.96,3.33,3.26,7.86,4.06,11.54,.4,1.84,.68,3.48,.86,4.65,.09,.59,.15,1.06,.2,1.38,.04,.32,.06,.5,.06,.5l.25-.03h0Z"/><polygon class="d" points="200.77 111.51 202.3 109.33 204.97 111.15 205.11 110.95 202.25 108.99 200.57 111.37 200.77 111.51 200.77 111.51"/><polygon class="d" points="200.07 108.52 201.53 106.43 204.14 107.82 204.26 107.6 201.46 106.11 199.87 108.38 200.07 108.52 200.07 108.52"/><polygon class="d" points="199.52 105.77 200.99 103.68 203.59 105.07 203.71 104.85 200.91 103.36 199.32 105.63 199.52 105.77 199.52 105.77"/><polygon class="d" points="198.45 102.66 199.91 100.58 202.51 101.96 202.63 101.74 199.84 100.26 198.24 102.52 198.45 102.66 198.45 102.66"/></g><g><path class="c" d="M329.99,126.19h0s15.08,.77,10.96-16.09c-15.78,.25-10.96,16.09-10.96,16.09Z"/><path class="d" d="M330.5,124.9s1.97-2,4.27-4.88c2.3-2.89,4.93-6.66,6.26-10.24l-.23-.08c-1.31,3.53-3.93,7.3-6.23,10.17-1.15,1.44-2.21,2.66-2.99,3.51-.39,.43-.71,.77-.93,1-.22,.23-.34,.35-.34,.35l.18,.17h0Z"/><polygon class="d" points="331.42 120.94 334 120.76 334.27 123.89 334.51 123.87 334.23 120.5 331.4 120.7 331.42 120.94 331.42 120.94"/><polygon class="d" points="333.24 118.57 335.72 118.39 336.28 121.21 336.52 121.17 335.92 118.14 333.22 118.33 333.24 118.57 333.24 118.57"/><polygon class="d" points="334.99 116.46 337.46 116.29 338.02 119.11 338.26 119.06 337.66 116.03 334.97 116.22 334.99 116.46 334.99 116.46"/><polygon class="d" points="336.67 113.74 339.15 113.56 339.7 116.38 339.95 116.34 339.35 113.31 336.65 113.5 336.67 113.74 336.67 113.74"/></g><g><path class="c" d="M290.88,112.67h0s4.22-12.97-11.46-13.34c-3.49,13.82,11.45,13.34,11.45,13.34Z"/><path class="d" d="M289.87,111.93s-1.28-2.19-3.25-4.87c-1.98-2.69-4.65-5.87-7.45-7.87l-.13,.18c2.77,1.98,5.44,5.15,7.41,7.82,.98,1.34,1.8,2.55,2.36,3.43,.28,.44,.5,.8,.65,1.04,.15,.25,.23,.38,.23,.38l.19-.12h0Z"/><polygon class="d" points="286.64 110.2 287.09 107.9 289.88 108.41 289.92 108.19 286.92 107.64 286.42 110.16 286.64 110.2 286.64 110.2"/><polygon class="d" points="285 108.05 285.43 105.85 288.02 106.03 288.04 105.8 285.25 105.61 284.79 108.01 285 108.05 285 108.05"/><polygon class="d" points="283.57 106.03 284 103.83 286.59 104.01 286.61 103.79 283.83 103.6 283.36 105.99 283.57 106.03 283.57 106.03"/><polygon class="d" points="281.59 103.92 282.02 101.72 284.61 101.9 284.63 101.68 281.85 101.49 281.38 103.88 281.59 103.92 281.59 103.92"/></g><g><path class="c" d="M277.76,146.68h0s9.36,4.36,11.07-7.39c-10.06-3.88-11.07,7.39-11.07,7.39Z"/><path class="d" d="M278.41,145.99s1.76-.76,3.96-2c2.2-1.24,4.83-2.96,6.59-4.88l-.13-.11c-1.74,1.9-4.36,3.62-6.55,4.85-1.1,.62-2.08,1.12-2.79,1.46-.36,.17-.64,.31-.84,.4-.2,.09-.31,.14-.31,.14l.07,.15h0Z"/><polygon class="d" points="280 143.72 281.69 144.27 281.05 146.32 281.21 146.37 281.9 144.16 280.05 143.56 280 143.72 280 143.72"/><polygon class="d" points="281.77 142.68 283.38 143.21 283.01 145.13 283.18 145.17 283.58 143.1 281.82 142.53 281.77 142.68 281.77 142.68"/><polygon class="d" points="283.41 141.79 285.03 142.32 284.66 144.25 284.82 144.28 285.22 142.21 283.46 141.64 283.41 141.79 283.41 141.79"/><polygon class="d" points="285.18 140.5 286.79 141.03 286.42 142.95 286.59 142.99 286.99 140.92 285.23 140.34 285.18 140.5 285.18 140.5"/></g><g><path class="c" d="M311.76,159.82h0s-1.39-10.23-12.2-5.32c2.17,10.56,12.2,5.32,12.2,5.32Z"/><path class="d" d="M310.83,159.64s-1.59-1.07-3.82-2.25c-2.23-1.18-5.1-2.47-7.67-2.91l-.03,.17c2.54,.43,5.4,1.72,7.62,2.89,1.11,.59,2.06,1.15,2.74,1.56,.34,.21,.6,.38,.79,.5,.18,.12,.28,.18,.28,.18l.09-.14h0Z"/><polygon class="d" points="308.06 159.53 307.61 157.81 309.68 157.24 309.63 157.08 307.41 157.69 307.9 159.57 308.06 159.53 308.06 159.53"/><polygon class="d" points="306.23 158.6 305.8 156.96 307.62 156.23 307.56 156.07 305.6 156.86 306.07 158.64 306.23 158.6 306.23 158.6"/><polygon class="d" points="304.6 157.7 304.16 156.05 305.99 155.32 305.93 155.17 303.97 155.95 304.44 157.74 304.6 157.7 304.6 157.7"/><polygon class="d" points="302.55 156.91 302.12 155.27 303.94 154.54 303.88 154.38 301.93 155.16 302.4 156.95 302.55 156.91 302.55 156.91"/></g><g><path class="c" d="M341.62,178.79h0s13.66,.91,10.15-14.43c-14.3,.01-10.15,14.43-10.15,14.43Z"/><path class="d" d="M342.1,177.63s1.81-1.78,3.94-4.37c2.12-2.59,4.56-5.97,5.82-9.19l-.21-.08c-1.24,3.18-3.67,6.56-5.78,9.14-1.06,1.29-2.04,2.38-2.76,3.14-.36,.38-.65,.69-.85,.89-.2,.21-.31,.32-.31,.32l.16,.15h0Z"/><polygon class="d" points="342.98 174.05 345.33 173.92 345.52 176.77 345.75 176.75 345.53 173.69 342.97 173.84 342.98 174.05 342.98 174.05"/><polygon class="d" points="344.67 171.93 346.92 171.8 347.38 174.36 347.6 174.33 347.1 171.58 344.66 171.71 344.67 171.93 344.67 171.93"/><polygon class="d" points="346.28 170.04 348.53 169.92 348.99 172.48 349.21 172.44 348.71 169.69 346.26 169.83 346.28 170.04 346.28 170.04"/><polygon class="d" points="347.84 167.6 350.09 167.47 350.55 170.03 350.77 170 350.28 167.25 347.83 167.38 347.84 167.6 347.84 167.6"/></g><g><path class="c" d="M383.96,117.53h0s12.98,1.98,10.87-12.97c-13.67-1.15-10.88,12.97-10.88,12.97Z"/><path class="d" d="M384.51,116.45s1.88-1.56,4.12-3.85c2.24-2.3,4.85-5.33,6.31-8.31l-.19-.09c-1.44,2.94-4.04,5.97-6.27,8.26-1.12,1.14-2.14,2.1-2.89,2.78-.37,.34-.68,.6-.89,.78-.21,.18-.33,.28-.33,.28l.14,.16h0Z"/><polygon class="d" points="385.65 113.11 387.9 113.18 387.86 115.91 388.07 115.92 388.12 112.98 385.65 112.9 385.65 113.11 385.65 113.11"/><polygon class="d" points="387.44 111.22 389.6 111.28 389.83 113.77 390.04 113.75 389.79 111.08 387.44 111.01 387.44 111.22 387.44 111.22"/><polygon class="d" points="389.13 109.55 391.29 109.61 391.52 112.1 391.73 112.08 391.48 109.41 389.13 109.34 389.13 109.55 389.13 109.55"/><polygon class="d" points="390.82 107.34 392.98 107.4 393.22 109.89 393.43 109.87 393.18 107.2 390.83 107.13 390.82 107.34 390.82 107.34"/></g><g><path class="c" d="M353.28,128.35h0s12.94,6.54,15.87-9.87c-13.95-5.91-15.88,9.87-15.88,9.87Z"/><path class="d" d="M354.22,127.42s2.51-.99,5.65-2.63c3.14-1.64,6.92-3.93,9.48-6.56l-.17-.16c-2.53,2.59-6.29,4.88-9.42,6.51-1.57,.82-2.97,1.47-3.99,1.92-.51,.23-.92,.4-1.2,.52-.28,.12-.44,.18-.44,.18l.09,.22h0Z"/><polygon class="d" points="356.56 124.3 358.91 125.15 357.92 128 358.14 128.08 359.2 125.01 356.64 124.08 356.56 124.3 356.56 124.3"/><polygon class="d" points="359.09 122.93 361.33 123.74 360.73 126.42 360.95 126.48 361.61 123.59 359.17 122.71 359.09 122.93 359.09 122.93"/><polygon class="d" points="361.44 121.75 363.68 122.56 363.07 125.25 363.3 125.31 363.96 122.42 361.52 121.54 361.44 121.75 361.44 121.75"/><polygon class="d" points="363.98 120.02 366.22 120.83 365.61 123.52 365.84 123.57 366.5 120.68 364.05 119.8 363.98 120.02 363.98 120.02"/></g><g><path class="c" d="M416.67,119.38h0s9.12-9.96-4.86-16.71c-8.81,11.02,4.85,16.71,4.85,16.71Z"/><path class="d" d="M416.06,118.3s-.25-2.5-.93-5.73c-.68-3.23-1.78-7.19-3.49-10.15l-.19,.11c1.69,2.92,2.79,6.87,3.47,10.08,.34,1.61,.57,3.04,.72,4.06,.07,.51,.13,.92,.16,1.21,.03,.28,.05,.44,.05,.44l.22-.03h0Z"/><polygon class="d" points="413.86 115.41 415.21 113.53 417.51 115.13 417.64 114.95 415.16 113.23 413.68 115.29 413.86 115.41 413.86 115.41"/><polygon class="d" points="413.26 112.8 414.55 111 416.81 112.22 416.92 112.03 414.49 110.72 413.09 112.68 413.26 112.8 413.26 112.8"/><polygon class="d" points="412.8 110.4 414.09 108.6 416.35 109.82 416.46 109.63 414.03 108.32 412.63 110.28 412.8 110.4 412.8 110.4"/><polygon class="d" points="411.89 107.69 413.18 105.89 415.43 107.11 415.54 106.92 413.12 105.6 411.71 107.57 411.89 107.69 411.89 107.69"/></g><g><path class="c" d="M383.57,150.65h0s7.47-11.67-7.85-16.04c-6.97,12.69,7.85,16.04,7.85,16.04Z"/><path class="d" d="M382.77,149.66s-.7-2.48-1.95-5.62c-1.26-3.15-3.07-6.96-5.31-9.64l-.17,.15c2.22,2.65,4.03,6.45,5.28,9.58,.63,1.57,1.11,2.97,1.44,3.98,.16,.5,.29,.91,.38,1.19,.08,.28,.13,.43,.13,.43l.21-.07h0Z"/><polygon class="d" points="380.03 147.14 381.06 144.99 383.68 146.21 383.78 146 380.96 144.7 379.84 147.05 380.03 147.14 380.03 147.14"/><polygon class="d" points="378.97 144.6 379.96 142.55 382.46 143.39 382.53 143.18 379.85 142.27 378.77 144.51 378.97 144.6 378.97 144.6"/><polygon class="d" points="378.09 142.26 379.07 140.2 381.57 141.04 381.65 140.83 378.96 139.93 377.89 142.16 378.09 142.26 378.09 142.26"/><polygon class="d" points="376.68 139.68 377.67 137.62 380.17 138.46 380.24 138.25 377.56 137.35 376.48 139.58 376.68 139.68 376.68 139.68"/></g><g><path class="c" d="M84.73,165.83h0s2.9-13.87-13.33-12.48c-2.05,14.66,13.33,12.48,13.33,12.48Z"/><path class="d" d="M83.6,165.18s-1.57-2.12-3.91-4.67c-2.34-2.55-5.46-5.54-8.59-7.29l-.11,.2c3.09,1.73,6.2,4.7,8.53,7.24,1.17,1.27,2.14,2.43,2.82,3.28,.34,.42,.61,.77,.79,1,.18,.24,.28,.37,.28,.37l.18-.14h0Z"/><polygon class="d" points="80.07 163.76 80.27 161.33 83.22 161.54 83.23 161.31 80.07 161.09 79.84 163.74 80.07 163.76 80.07 163.76"/><polygon class="d" points="78.13 161.72 78.33 159.4 81.02 159.29 81.02 159.06 78.12 159.17 77.91 161.7 78.13 161.72 78.13 161.72"/><polygon class="d" points="76.43 159.8 76.63 157.48 79.32 157.37 79.32 157.14 76.42 157.25 76.21 159.78 76.43 159.8 76.43 159.8"/><polygon class="d" points="74.15 157.84 74.35 155.52 77.04 155.41 77.04 155.18 74.14 155.3 73.93 157.82 74.15 157.84 74.15 157.84"/></g><g><path class="c" d="M31.76,136.98h0s15.17,3.14,13.62-14.6c-16.04-2.21-13.63,14.6-13.63,14.6Z"/><path class="d" d="M32.47,135.75s2.31-1.72,5.1-4.28c2.78-2.57,6.05-5.99,7.95-9.4l-.22-.12c-1.88,3.38-5.13,6.78-7.91,9.34-1.39,1.28-2.66,2.35-3.58,3.09-.46,.37-.84,.67-1.09,.87-.26,.2-.4,.31-.4,.31l.15,.2h0Z"/><polygon class="d" points="34.02 131.88 36.67 132.1 36.45 135.32 36.7 135.34 36.94 131.88 34.04 131.64 34.02 131.88 34.02 131.88"/><polygon class="d" points="36.25 129.76 38.78 129.97 38.91 132.91 39.16 132.91 39.03 129.75 36.26 129.52 36.25 129.76 36.25 129.76"/><polygon class="d" points="38.34 127.9 40.88 128.11 41 131.05 41.25 131.05 41.12 127.88 38.36 127.65 38.34 127.9 38.34 127.9"/><polygon class="d" points="40.48 125.4 43.02 125.61 43.14 128.55 43.39 128.55 43.26 125.38 40.5 125.16 40.48 125.4 40.48 125.4"/></g><g><path class="c" d="M170.96,153.24h0s12.46,.26,10.18-17.97c-13.11,.88-10.18,17.97-10.18,17.97Z"/><path class="d" d="M171.47,151.82s1.77-2.25,3.88-5.49c2.1-3.24,4.55-7.46,5.89-11.4l-.19-.08c-1.33,3.9-3.76,8.11-5.86,11.33-1.05,1.61-2.01,2.98-2.72,3.95-.35,.48-.64,.86-.84,1.12-.2,.26-.31,.4-.31,.4l.14,.18h0Z"/><polygon class="d" points="172.49 147.47 174.65 147.17 174.66 150.57 174.86 150.54 174.86 146.88 172.49 147.21 172.49 147.47 172.49 147.47"/><polygon class="d" points="174.17 144.81 176.24 144.52 176.51 147.57 176.71 147.52 176.42 144.24 174.17 144.55 174.17 144.81 174.17 144.81"/><polygon class="d" points="175.76 142.45 177.83 142.16 178.1 145.21 178.3 145.15 178.01 141.87 175.76 142.19 175.76 142.45 175.76 142.45"/><polygon class="d" points="177.35 139.41 179.41 139.13 179.68 142.18 179.88 142.12 179.59 138.84 177.34 139.15 177.35 139.41 177.35 139.41"/></g><g><path class="c" d="M75.71,139.03h0s13.66,.91,10.15-14.43c-14.3,.01-10.15,14.43-10.15,14.43Z"/><path class="d" d="M76.19,137.87s1.81-1.78,3.94-4.37c2.12-2.59,4.56-5.97,5.82-9.19l-.21-.08c-1.24,3.18-3.67,6.56-5.78,9.14-1.06,1.29-2.04,2.38-2.76,3.14-.36,.38-.65,.69-.85,.89-.2,.21-.31,.32-.31,.32l.16,.15h0Z"/><polygon class="d" points="77.07 134.3 79.42 134.17 79.62 137.01 79.84 137 79.63 133.94 77.06 134.08 77.07 134.3 77.07 134.3"/><polygon class="d" points="78.76 132.17 81.01 132.05 81.47 134.61 81.69 134.57 81.2 131.82 78.75 131.95 78.76 132.17 78.76 132.17"/><polygon class="d" points="80.37 130.29 82.62 130.16 83.08 132.72 83.3 132.69 82.8 129.93 80.36 130.07 80.37 130.29 80.37 130.29"/><polygon class="d" points="81.94 127.84 84.18 127.72 84.65 130.28 84.87 130.24 84.37 127.49 81.92 127.62 81.94 127.84 81.94 127.84"/></g><g><path class="c" d="M434.89,147.57h0s12.85,4.7,13.79-11c-13.73-4-13.79,11-13.79,11Z"/><path class="d" d="M435.68,146.59s2.24-1.2,5.01-3.09c2.77-1.88,6.06-4.45,8.16-7.19l-.18-.13c-2.08,2.71-5.36,5.27-8.11,7.14-1.38,.94-2.63,1.71-3.53,2.24-.45,.27-.82,.48-1.07,.62-.25,.14-.39,.22-.39,.22l.11,.19h0Z"/><polygon class="d" points="437.53 143.41 439.82 143.95 439.21 146.73 439.43 146.78 440.08 143.78 437.57 143.2 437.53 143.41 437.53 143.41"/><polygon class="d" points="439.75 141.85 441.94 142.36 441.66 144.94 441.88 144.97 442.18 142.19 439.79 141.63 439.75 141.85 439.75 141.85"/><polygon class="d" points="441.82 140.49 444.01 141 443.74 143.59 443.96 143.61 444.25 140.83 441.87 140.28 441.82 140.49 441.82 140.49"/><polygon class="d" points="444.01 138.58 446.2 139.09 445.93 141.68 446.15 141.71 446.44 138.93 444.05 138.37 444.01 138.58 444.01 138.58"/></g><g><path class="c" d="M480.63,113.46h0s1.56-13.6-13.93-10.83c-.67,14.28,13.93,10.83,13.93,10.83Z"/><path class="d" d="M479.49,112.93s-1.69-1.9-4.17-4.14c-2.48-2.25-5.75-4.84-8.9-6.25l-.09,.2c3.12,1.39,6.38,3.98,8.85,6.21,1.24,1.12,2.28,2.15,3.01,2.9,.37,.38,.65,.68,.85,.89,.2,.21,.3,.33,.3,.33l.16-.15h0Z"/><polygon class="d" points="475.97 111.88 475.95 109.53 478.8 109.47 478.79 109.25 475.73 109.31 475.75 111.88 475.97 111.88 475.97 111.88"/><polygon class="d" points="473.92 110.09 473.91 107.84 476.49 107.5 476.46 107.28 473.69 107.64 473.71 110.09 473.92 110.09 473.92 110.09"/><polygon class="d" points="472.12 108.39 472.1 106.14 474.68 105.8 474.66 105.58 471.88 105.95 471.9 108.4 472.12 108.39 472.12 108.39"/><polygon class="d" points="469.75 106.71 469.73 104.46 472.31 104.12 472.29 103.9 469.52 104.27 469.53 106.72 469.75 106.71 469.75 106.71"/></g><g><path class="c" d="M502.2,131.61h0s13.66,.91,10.15-14.43c-14.3,.01-10.15,14.43-10.15,14.43Z"/><path class="d" d="M502.67,130.45s1.81-1.78,3.94-4.37c2.12-2.59,4.56-5.97,5.82-9.19l-.21-.08c-1.24,3.18-3.67,6.56-5.78,9.14-1.06,1.29-2.04,2.38-2.76,3.14-.36,.38-.65,.69-.85,.89-.2,.21-.31,.32-.31,.32l.16,.15h0Z"/><polygon class="d" points="503.56 126.88 505.9 126.75 506.1 129.59 506.32 129.58 506.11 126.52 503.54 126.66 503.56 126.88 503.56 126.88"/><polygon class="d" points="505.25 124.75 507.49 124.63 507.96 127.19 508.18 127.15 507.68 124.4 505.23 124.54 505.25 124.75 505.25 124.75"/><polygon class="d" points="506.85 122.87 509.1 122.74 509.56 125.3 509.78 125.27 509.29 122.52 506.84 122.65 506.85 122.87 506.85 122.87"/><polygon class="d" points="508.42 120.42 510.67 120.3 511.13 122.86 511.35 122.82 510.85 120.07 508.4 120.21 508.42 120.42 508.42 120.42"/></g><g><path class="c" d="M523.03,113.64h0s9.92-9.43-3.75-17.24c-9.68,10.53,3.74,17.24,3.74,17.24Z"/><path class="d" d="M522.5,112.5s-.08-2.54-.55-5.86c-.46-3.31-1.3-7.4-2.82-10.51l-.2,.1c1.5,3.07,2.34,7.14,2.8,10.44,.23,1.65,.37,3.11,.44,4.16,.04,.52,.06,.94,.08,1.23,.01,.29,.02,.45,.02,.45h.22Z"/><polygon class="d" points="520.47 109.43 521.97 107.61 524.19 109.39 524.33 109.22 521.94 107.31 520.3 109.29 520.47 109.43 520.47 109.43"/><polygon class="d" points="520.05 106.74 521.48 105.01 523.68 106.4 523.8 106.22 521.44 104.72 519.88 106.61 520.05 106.74 520.05 106.74"/><polygon class="d" points="519.76 104.28 521.19 102.55 523.38 103.94 523.51 103.76 521.14 102.26 519.59 104.15 519.76 104.28 519.76 104.28"/><polygon class="d" points="519.02 101.48 520.45 99.74 522.65 101.13 522.77 100.95 520.41 99.45 518.85 101.34 519.02 101.48 519.02 101.48"/></g></g></svg>