<?xml version="1.0" encoding="UTF-8"?><svg xmlns="http://www.w3.org/2000/svg" viewBox="0 0 555.26 262"><defs><style>.c{fill:#afa57d;}.d{fill:#777159;}</style></defs><g id="a"><g><path class="c" d="M67.05,174.49l-3.61-21.96h-17.51l-3.2,21.96h-9.59l13.48-86.46h15.15l14.87,86.46h-9.59Zm-20.02-30.16h15.15l-8.06-49.62-7.09,49.62Z"/><path class="c" d="M121.12,113.61h-9.59v-13.07c0-1.85-.28-3.03-.83-3.54-.56-.51-1.72-.76-3.47-.76h-7.65c-1.85,0-3.04,.26-3.54,.76s-.76,1.69-.76,3.54v61.58c0,1.76,.25,2.92,.76,3.48,.51,.56,1.69,.83,3.54,.83h7.65c1.76,0,2.92-.28,3.47-.83,.56-.56,.83-1.71,.83-3.48v-13.07h9.59v14.6c0,7.32-3.66,10.98-10.98,10.98h-13.48c-7.32,0-10.98-3.66-10.98-10.98V99.01c0-7.32,3.66-10.98,10.98-10.98h13.48c7.32,0,10.98,3.66,10.98,10.98v14.6Z"/><path class="c" d="M169.07,113.61h-9.59v-13.07c0-1.85-.28-3.03-.83-3.54-.56-.51-1.72-.76-3.47-.76h-7.65c-1.85,0-3.04,.26-3.54,.76s-.76,1.69-.76,3.54v61.58c0,1.76,.25,2.92,.76,3.48,.51,.56,1.69,.83,3.54,.83h7.65c1.76,0,2.92-.28,3.47-.83,.56-.56,.83-1.71,.83-3.48v-13.07h9.59v14.6c0,7.32-3.66,10.98-10.98,10.98h-13.48c-7.32,0-10.98-3.66-10.98-10.98V99.01c0-7.32,3.66-10.98,10.98-10.98h13.48c7.32,0,10.98,3.66,10.98,10.98v14.6Z"/><path class="c" d="M191.87,166.29h23.77v8.2h-33.36V88.03h32.39v8.2h-22.8v29.19h18.63v8.2h-18.63v32.67Z"/><path class="c" d="M248.72,161.98v-23.63c0-1.85-.28-3.03-.83-3.54-.56-.51-1.72-.76-3.47-.76h-9.45c-7.32,0-10.98-3.66-10.98-10.98v-24.05c0-7.32,3.66-10.98,10.98-10.98h12.23c7.32,0,10.98,3.66,10.98,10.98v13.34h-9.59v-11.82c0-1.85-.26-3.03-.76-3.54-.51-.51-1.69-.76-3.54-.76h-6.39c-1.85,0-3.04,.26-3.54,.76-.51,.51-.76,1.69-.76,3.54v20.99c0,1.76,.25,2.92,.76,3.48,.51,.56,1.69,.83,3.54,.83h9.45c7.32,0,10.98,3.66,10.98,10.98v26.69c0,7.32-3.66,10.98-10.98,10.98h-12.09c-7.32,0-10.98-3.66-10.98-10.98v-13.34h9.59v11.82c0,1.85,.25,3.04,.76,3.54,.51,.51,1.69,.76,3.54,.76h6.25c1.76,0,2.92-.25,3.47-.76,.56-.51,.83-1.69,.83-3.54Z"/><path class="c" d="M294.17,161.98v-23.63c0-1.85-.28-3.03-.83-3.54-.56-.51-1.72-.76-3.47-.76h-9.45c-7.32,0-10.98-3.66-10.98-10.98v-24.05c0-7.32,3.66-10.98,10.98-10.98h12.23c7.32,0,10.98,3.66,10.98,10.98v13.34h-9.59v-11.82c0-1.85-.26-3.03-.76-3.54-.51-.51-1.69-.76-3.54-.76h-6.39c-1.85,0-3.04,.26-3.54,.76-.51,.51-.76,1.69-.76,3.54v20.99c0,1.76,.25,2.92,.76,3.48,.51,.56,1.69,.83,3.54,.83h9.45c7.32,0,10.98,3.66,10.98,10.98v26.69c0,7.32-3.66,10.98-10.98,10.98h-12.09c-7.32,0-10.98-3.66-10.98-10.98v-13.34h9.59v11.82c0,1.85,.25,3.04,.76,3.54,.51,.51,1.69,.76,3.54,.76h6.25c1.76,0,2.92-.25,3.47-.76,.56-.51,.83-1.69,.83-3.54Z"/><path class="c" d="M327.25,88.03h14.18c7.32,0,10.98,3.66,10.98,10.98v64.5c0,7.32-3.66,10.98-10.98,10.98h-14.18c-7.32,0-10.98-3.66-10.98-10.98V99.01c0-7.32,3.66-10.98,10.98-10.98Zm15.71,73.95v-61.44c0-1.85-.28-3.03-.83-3.54-.56-.51-1.72-.76-3.47-.76h-8.62c-1.76,0-2.92,.26-3.47,.76-.56,.51-.83,1.69-.83,3.54v61.44c0,1.85,.28,3.04,.83,3.54,.56,.51,1.71,.76,3.47,.76h8.62c1.76,0,2.92-.25,3.47-.76,.56-.51,.83-1.69,.83-3.54Z"/><path class="c" d="M368.39,88.03h9.45v86.46h-9.45V88.03Z"/><path class="c" d="M403.98,138.35v36.14h-9.45V88.03h25.16c7.32,0,10.98,3.66,10.98,10.98v28.36c0,6.58-2.87,10.19-8.62,10.84l13.07,36.28h-10.29l-12.65-36.14h-8.2Zm0-42.12v33.92h12.93c1.85,0,3.03-.25,3.54-.76,.51-.51,.76-1.69,.76-3.54v-25.3c0-1.85-.26-3.03-.76-3.54-.51-.51-1.69-.76-3.54-.76h-12.93Z"/><path class="c" d="M454.71,166.29h23.77v8.2h-33.36V88.03h32.39v8.2h-22.8v29.19h18.63v8.2h-18.63v32.67Z"/><path class="c" d="M511.56,161.98v-23.63c0-1.85-.28-3.03-.83-3.54-.56-.51-1.72-.76-3.47-.76h-9.45c-7.32,0-10.98-3.66-10.98-10.98v-24.05c0-7.32,3.66-10.98,10.98-10.98h12.23c7.32,0,10.98,3.66,10.98,10.98v13.34h-9.59v-11.82c0-1.85-.26-3.03-.76-3.54-.51-.51-1.69-.76-3.54-.76h-6.39c-1.85,0-3.04,.26-3.54,.76-.51,.51-.76,1.69-.76,3.54v20.99c0,1.76,.25,2.92,.76,3.48,.51,.56,1.69,.83,3.54,.83h9.45c7.32,0,10.98,3.66,10.98,10.98v26.69c0,7.32-3.66,10.98-10.98,10.98h-12.09c-7.32,0-10.98-3.66-10.98-10.98v-13.34h9.59v11.82c0,1.85,.25,3.04,.76,3.54,.51,.51,1.69,.76,3.54,.76h6.25c1.76,0,2.92-.25,3.47-.76,.56-.51,.83-1.69,.83-3.54Z"/></g></g><g id="b"><g><path class="c" d="M157.34,117.66h0s-.88-14.8-16.69-8.9c1.94,15.36,16.69,8.9,16.69,8.9Z"/><path class="d" d="M156.04,117.31s-2.14-1.7-5.17-3.63c-3.03-1.92-6.95-4.07-10.54-4.97l-.06,.23c3.55,.89,7.46,3.03,10.48,4.95,1.51,.96,2.8,1.86,3.71,2.53,.45,.33,.82,.6,1.06,.79,.25,.19,.38,.29,.38,.29l.14-.19h0Z"/><polygon class="d" points="152.13 116.86 151.68 114.35 154.67 113.75 154.62 113.51 151.41 114.16 151.91 116.9 152.13 116.86 152.13 116.86"/><polygon class="d" points="149.65 115.34 149.21 112.94 151.87 112.09 151.8 111.86 148.95 112.77 149.42 115.38 149.65 115.34 149.65 115.34"/><polygon class="d" points="147.43 113.87 147 111.47 149.65 110.62 149.58 110.39 146.73 111.31 147.2 113.92 147.43 113.87 147.43 113.87"/><polygon class="d" points="144.63 112.53 144.19 110.13 146.84 109.28 146.78 109.05 143.92 109.97 144.4 112.58 144.63 112.53 144.63 112.53"/></g><g><path class="c" d="M76.64,100.78h0s-1.02-15.18-17.4-9.04c2.13,15.75,17.39,9.04,17.39,9.04Z"/><path class="d" d="M75.29,100.42s-2.23-1.73-5.39-3.69c-3.16-1.96-7.25-4.14-10.98-5.05l-.06,.24c3.69,.89,7.77,3.07,10.91,5.02,1.57,.98,2.92,1.9,3.87,2.57,.47,.34,.85,.61,1.11,.81,.26,.19,.4,.3,.4,.3l.15-.2h0Z"/><polygon class="d" points="71.22 99.98 70.73 97.41 73.83 96.78 73.79 96.53 70.45 97.22 70.99 100.03 71.22 99.98 71.22 99.98"/><polygon class="d" points="68.63 98.43 68.16 95.98 70.92 95.09 70.84 94.85 67.89 95.81 68.4 98.48 68.63 98.43 68.63 98.43"/><polygon class="d" points="66.32 96.94 65.85 94.48 68.6 93.59 68.53 93.36 65.57 94.31 66.08 96.99 66.32 96.94 66.32 96.94"/><polygon class="d" points="63.4 95.58 62.93 93.12 65.68 92.23 65.61 92 62.65 92.95 63.16 95.63 63.4 95.58 63.4 95.58"/></g><g><path class="c" d="M233.87,145.83h0s13.13,4.65,14.37-11.99c-14.05-3.88-14.37,11.99-14.37,11.99Z"/><path class="d" d="M234.69,144.77s2.33-1.33,5.2-3.39c2.88-2.06,6.3-4.86,8.52-7.82l-.18-.14c-2.19,2.92-5.6,5.71-8.47,7.77-1.43,1.03-2.73,1.87-3.67,2.46-.47,.29-.85,.52-1.11,.68-.26,.16-.41,.24-.41,.24l.11,.2h0Z"/><polygon class="d" points="236.65 141.36 238.99 141.87 238.32 144.83 238.54 144.87 239.27 141.69 236.7 141.13 236.65 141.36 236.65 141.36"/><polygon class="d" points="238.96 139.65 241.2 140.13 240.88 142.88 241.1 142.9 241.45 139.95 239.01 139.42 238.96 139.65 238.96 139.65"/><polygon class="d" points="241.11 138.16 243.36 138.64 243.03 141.39 243.26 141.41 243.61 138.46 241.16 137.93 241.11 138.16 241.11 138.16"/><polygon class="d" points="243.4 136.08 245.64 136.57 245.31 139.31 245.54 139.34 245.89 136.39 243.45 135.86 243.4 136.08 243.4 136.08"/></g><g><path class="c" d="M98.79,109.99h0s13.73,3.75,13.33-12.6c-14.57-2.95-13.33,12.6-13.33,12.6Z"/><path class="d" d="M99.51,108.91s2.22-1.44,4.92-3.63c2.7-2.19,5.89-5.14,7.83-8.16l-.2-.12c-1.92,2.99-5.09,5.92-7.78,8.11-1.35,1.09-2.57,2-3.46,2.63-.44,.32-.8,.56-1.05,.73-.25,.17-.39,.26-.39,.26l.13,.19h0Z"/><polygon class="d" points="101.15 105.45 103.57 105.81 103.18 108.74 103.41 108.77 103.83 105.61 101.18 105.23 101.15 105.45 101.15 105.45"/><polygon class="d" points="103.31 103.64 105.63 103.97 105.57 106.68 105.8 106.69 105.86 103.78 103.34 103.41 103.31 103.64 103.31 103.64"/><polygon class="d" points="105.34 102.05 107.66 102.39 107.6 105.09 107.83 105.1 107.89 102.19 105.37 101.82 105.34 102.05 105.34 102.05"/><polygon class="d" points="107.44 99.88 109.76 100.22 109.7 102.92 109.93 102.93 109.99 100.03 107.47 99.66 107.44 99.88 107.44 99.88"/></g><g><path class="c" d="M310.14,115.07h0s13.42-1.6,7.36-16.73c-13.88,2.67-7.37,16.73-7.37,16.73Z"/><path class="d" d="M310.4,113.79s1.45-2.17,3.07-5.22c1.62-3.05,3.4-6.99,4.06-10.54l-.22-.04c-.65,3.5-2.43,7.43-4.04,10.47-.81,1.52-1.57,2.82-2.13,3.74-.28,.46-.51,.83-.67,1.08-.16,.25-.25,.38-.25,.38l.18,.13h0Z"/><polygon class="d" points="310.64 109.95 312.9 109.38 313.58 112.26 313.8 112.21 313.06 109.1 310.59 109.73 310.64 109.95 310.64 109.95"/><polygon class="d" points="311.92 107.45 314.08 106.9 314.97 109.45 315.18 109.37 314.22 106.63 311.87 107.23 311.92 107.45 311.92 107.45"/><polygon class="d" points="313.16 105.21 315.32 104.66 316.21 107.21 316.41 107.13 315.46 104.4 313.1 104.99 313.16 105.21 313.16 105.21"/><polygon class="d" points="314.25 102.4 316.41 101.86 317.31 104.41 317.51 104.33 316.55 101.59 314.2 102.18 314.25 102.4 314.25 102.4"/></g><g><path class="c" d="M435.93,121.56h0s7.35-11.82-8.68-16.67c-6.8,12.87,8.67,16.67,8.67,16.67Z"/><path class="d" d="M435.07,120.52s-.81-2.56-2.21-5.83c-1.41-3.26-3.42-7.22-5.83-10.04l-.17,.15c2.39,2.78,4.39,6.72,5.8,9.97,.7,1.63,1.25,3.08,1.63,4.12,.19,.52,.33,.94,.43,1.23,.1,.29,.15,.45,.15,.45l.22-.06h0Z"/><polygon class="d" points="432.15 117.86 433.14 115.68 435.9 116.99 435.99 116.78 433.03 115.37 431.94 117.76 432.15 117.86 432.15 117.86"/><polygon class="d" points="430.96 115.23 431.91 113.14 434.53 114.06 434.6 113.85 431.79 112.86 430.75 115.13 430.96 115.23 430.96 115.23"/><polygon class="d" points="429.96 112.8 430.92 110.71 433.53 111.63 433.61 111.42 430.79 110.43 429.75 112.7 429.96 112.8 429.96 112.8"/><polygon class="d" points="428.42 110.11 429.37 108.03 431.99 108.95 432.06 108.73 429.25 107.74 428.21 110.01 428.42 110.11 428.42 110.11"/></g><g><path class="c" d="M259.94,120.1h0s9.95-9-3.25-17c-9.75,10.08,3.24,17,3.24,17Z"/><path class="d" d="M259.45,118.97s-.02-2.49-.39-5.75c-.37-3.26-1.09-7.29-2.51-10.37l-.2,.09c1.4,3.04,2.12,7.06,2.49,10.31,.19,1.62,.28,3.06,.33,4.09,.03,.51,.04,.93,.05,1.21,0,.28,0,.44,0,.44h.22Z"/><polygon class="d" points="257.53 115.91 259.04 114.17 261.18 115.97 261.32 115.8 259.02 113.87 257.37 115.77 257.53 115.91 257.53 115.91"/><polygon class="d" points="257.19 113.27 258.63 111.6 260.75 113.02 260.88 112.84 258.6 111.32 257.02 113.13 257.19 113.27 257.19 113.27"/><polygon class="d" points="256.96 110.85 258.4 109.18 260.52 110.6 260.65 110.43 258.37 108.9 256.79 110.71 256.96 110.85 256.96 110.85"/><polygon class="d" points="256.3 108.08 257.75 106.41 259.87 107.83 259.99 107.65 257.71 106.13 256.14 107.94 256.3 108.08 256.3 108.08"/></g><g><path class="c" d="M202.6,111.47h0s6.86-13.89-10.7-16.87c-6.18,14.96,10.7,16.87,10.7,16.87Z"/><path class="d" d="M201.59,110.47s-1.08-2.67-2.86-6.01c-1.78-3.34-4.27-7.36-7.09-10.07l-.17,.18c2.79,2.67,5.27,6.67,7.05,10.01,.89,1.67,1.6,3.16,2.09,4.24,.25,.54,.44,.98,.56,1.28,.13,.3,.19,.47,.2,.47l.23-.1h0Z"/><polygon class="d" points="198.24 108 199.12 105.49 202.18 106.51 202.26 106.28 198.97 105.17 198.01 107.92 198.24 108 198.24 108"/><polygon class="d" points="196.75 105.31 197.59 102.91 200.47 103.53 200.53 103.29 197.43 102.62 196.52 105.23 196.75 105.31 196.75 105.31"/><polygon class="d" points="195.47 102.81 196.32 100.41 199.2 101.03 199.25 100.79 196.16 100.12 195.24 102.73 195.47 102.81 195.47 102.81"/><polygon class="d" points="193.6 100.12 194.44 97.71 197.32 98.34 197.38 98.09 194.28 97.42 193.36 100.04 193.6 100.12 193.6 100.12"/></g><g><path class="c" d="M332.06,114.95h0s15.08,.77,10.96-16.09c-15.78,.25-10.96,16.09-10.96,16.09Z"/><path class="d" d="M332.56,113.66s1.97-2,4.27-4.88c2.3-2.89,4.93-6.66,6.26-10.24l-.23-.08c-1.31,3.53-3.93,7.3-6.23,10.17-1.15,1.44-2.21,2.66-2.99,3.51-.39,.43-.71,.77-.93,1-.22,.23-.34,.35-.34,.35l.18,.17h0Z"/><polygon class="d" points="333.48 109.7 336.07 109.52 336.33 112.65 336.58 112.64 336.29 109.27 333.46 109.47 333.48 109.7 333.48 109.7"/><polygon class="d" points="335.31 107.33 337.79 107.16 338.34 109.97 338.58 109.93 337.99 106.9 335.29 107.09 335.31 107.33 335.31 107.33"/><polygon class="d" points="337.05 105.22 339.53 105.05 340.08 107.87 340.32 107.82 339.73 104.8 337.03 104.99 337.05 105.22 337.05 105.22"/><polygon class="d" points="338.74 102.5 341.22 102.33 341.77 105.14 342.01 105.1 341.41 102.07 338.72 102.26 338.74 102.5 338.74 102.5"/></g><g><path class="c" d="M289.68,109.36h0s4.22-12.97-11.46-13.34c-3.49,13.82,11.45,13.34,11.45,13.34Z"/><path class="d" d="M288.68,108.62s-1.28-2.19-3.25-4.87c-1.98-2.69-4.65-5.87-7.45-7.87l-.13,.18c2.77,1.98,5.44,5.15,7.41,7.82,.98,1.34,1.8,2.55,2.36,3.43,.28,.44,.5,.8,.65,1.04,.15,.25,.23,.38,.23,.38l.19-.12h0Z"/><polygon class="d" points="285.44 106.89 285.89 104.59 288.69 105.09 288.73 104.88 285.72 104.33 285.23 106.85 285.44 106.89 285.44 106.89"/><polygon class="d" points="283.81 104.73 284.24 102.53 286.82 102.71 286.84 102.49 284.06 102.3 283.59 104.69 283.81 104.73 283.81 104.73"/><polygon class="d" points="282.38 102.72 282.81 100.52 285.4 100.7 285.42 100.48 282.63 100.28 282.17 102.68 282.38 102.72 282.38 102.72"/><polygon class="d" points="280.4 100.61 280.83 98.41 283.42 98.59 283.44 98.37 280.66 98.17 280.19 100.57 280.4 100.61 280.4 100.61"/></g><g><path class="c" d="M279.04,140.29h0s9.36,4.36,11.07-7.39c-10.06-3.88-11.07,7.39-11.07,7.39Z"/><path class="d" d="M279.69,139.6s1.76-.76,3.96-2c2.2-1.24,4.83-2.96,6.59-4.88l-.13-.11c-1.74,1.9-4.36,3.62-6.55,4.85-1.1,.62-2.08,1.12-2.79,1.46-.36,.17-.64,.31-.84,.4-.2,.09-.31,.14-.31,.14l.07,.15h0Z"/><polygon class="d" points="281.28 137.33 282.97 137.87 282.33 139.93 282.49 139.98 283.18 137.77 281.33 137.17 281.28 137.33 281.28 137.33"/><polygon class="d" points="283.05 136.29 284.66 136.81 284.29 138.74 284.46 138.78 284.86 136.7 283.1 136.13 283.05 136.29 283.05 136.29"/><polygon class="d" points="284.69 135.4 286.31 135.93 285.94 137.85 286.1 137.89 286.5 135.82 284.74 135.25 284.69 135.4 284.69 135.4"/><polygon class="d" points="286.46 134.11 288.07 134.63 287.7 136.56 287.87 136.59 288.27 134.52 286.51 133.95 286.46 134.11 286.46 134.11"/></g><g><path class="c" d="M312.19,153.08h0s-1.39-10.23-12.2-5.32c2.17,10.56,12.2,5.32,12.2,5.32Z"/><path class="d" d="M311.26,152.91s-1.59-1.07-3.82-2.25c-2.23-1.18-5.1-2.47-7.67-2.91l-.03,.17c2.54,.43,5.4,1.72,7.62,2.89,1.11,.59,2.06,1.15,2.74,1.56,.34,.21,.6,.38,.79,.5,.18,.12,.28,.18,.28,.18l.09-.14h0Z"/><polygon class="d" points="308.49 152.79 308.04 151.08 310.11 150.51 310.07 150.34 307.84 150.96 308.33 152.84 308.49 152.79 308.49 152.79"/><polygon class="d" points="306.66 151.87 306.23 150.23 308.05 149.5 307.99 149.34 306.04 150.12 306.51 151.91 306.66 151.87 306.66 151.87"/><polygon class="d" points="305.03 150.96 304.6 149.32 306.42 148.59 306.36 148.44 304.4 149.22 304.87 151.01 305.03 150.96 305.03 150.96"/><polygon class="d" points="302.98 150.18 302.55 148.53 304.38 147.81 304.32 147.65 302.36 148.43 302.83 150.22 302.98 150.18 302.98 150.18"/></g><g><path class="c" d="M341.62,178.79h0s13.66,.91,10.15-14.43c-14.3,.01-10.15,14.43-10.15,14.43Z"/><path class="d" d="M342.1,177.63s1.81-1.78,3.94-4.37c2.12-2.59,4.56-5.97,5.82-9.19l-.21-.08c-1.24,3.18-3.67,6.56-5.78,9.14-1.06,1.29-2.04,2.38-2.76,3.14-.36,.38-.65,.69-.85,.89-.2,.21-.31,.32-.31,.32l.16,.15h0Z"/><polygon class="d" points="342.98 174.05 345.33 173.92 345.52 176.77 345.75 176.75 345.53 173.69 342.97 173.84 342.98 174.05 342.98 174.05"/><polygon class="d" points="344.67 171.93 346.92 171.8 347.38 174.36 347.6 174.33 347.1 171.58 344.66 171.71 344.67 171.93 344.67 171.93"/><polygon class="d" points="346.28 170.04 348.53 169.92 348.99 172.48 349.21 172.44 348.71 169.69 346.26 169.83 346.28 170.04 346.28 170.04"/><polygon class="d" points="347.84 167.6 350.09 167.47 350.55 170.03 350.77 170 350.28 167.25 347.83 167.38 347.84 167.6 347.84 167.6"/></g><g><path class="c" d="M385.85,104.79h0s12.98,1.98,10.87-12.97c-13.67-1.15-10.88,12.97-10.88,12.97Z"/><path class="d" d="M386.4,103.72s1.88-1.56,4.12-3.85c2.24-2.3,4.85-5.33,6.31-8.31l-.19-.09c-1.44,2.94-4.04,5.97-6.27,8.26-1.12,1.14-2.14,2.1-2.89,2.78-.37,.34-.68,.6-.89,.78-.21,.18-.33,.28-.33,.28l.14,.16h0Z"/><polygon class="d" points="387.54 100.38 389.79 100.45 389.75 103.18 389.96 103.18 390.01 100.24 387.54 100.17 387.54 100.38 387.54 100.38"/><polygon class="d" points="389.32 98.48 391.48 98.55 391.72 101.03 391.93 101.02 391.68 98.35 389.33 98.28 389.32 98.48 389.32 98.48"/><polygon class="d" points="391.02 96.81 393.17 96.88 393.41 99.36 393.62 99.35 393.37 96.68 391.02 96.61 391.02 96.81 391.02 96.81"/><polygon class="d" points="392.71 94.61 394.87 94.67 395.1 97.15 395.31 97.14 395.06 94.47 392.71 94.4 392.71 94.61 392.71 94.61"/></g><g><path class="c" d="M354.66,103.89h0s11.37,9,17.53-6.49c-12.48-8.59-17.53,6.49-17.53,6.49Z"/><path class="d" d="M355.77,103.16s2.65-.47,6.06-1.44c3.41-.98,7.57-2.47,10.6-4.52l-.13-.19c-2.99,2.03-7.14,3.52-10.54,4.49-1.7,.49-3.21,.85-4.29,1.08-.54,.12-.98,.21-1.28,.27-.3,.06-.46,.09-.46,.09l.05,.23h0Z"/><polygon class="d" points="358.69 100.57 360.82 101.87 359.28 104.47 359.48 104.59 361.13 101.8 358.81 100.38 358.69 100.57 358.69 100.57"/><polygon class="d" points="361.44 99.74 363.48 100.98 362.34 103.49 362.56 103.59 363.78 100.89 361.56 99.54 361.44 99.74 361.44 99.74"/><polygon class="d" points="363.98 99.06 366.01 100.3 364.88 102.81 365.09 102.91 366.31 100.21 364.1 98.86 363.98 99.06 363.98 99.06"/><polygon class="d" points="366.81 97.87 368.85 99.11 367.71 101.62 367.93 101.72 369.15 99.02 366.93 97.67 366.81 97.87 366.81 97.87"/></g><g><path class="c" d="M417.26,111.19h0s9.12-9.96-4.86-16.71c-8.81,11.02,4.85,16.71,4.85,16.71Z"/><path class="d" d="M416.66,110.11s-.25-2.5-.93-5.73c-.68-3.23-1.78-7.19-3.49-10.15l-.19,.11c1.69,2.92,2.79,6.87,3.47,10.08,.34,1.61,.57,3.04,.72,4.06,.07,.51,.13,.92,.16,1.21,.03,.28,.05,.44,.05,.44l.22-.03h0Z"/><polygon class="d" points="414.45 107.23 415.8 105.34 418.11 106.94 418.24 106.76 415.75 105.04 414.28 107.11 414.45 107.23 414.45 107.23"/><polygon class="d" points="413.86 104.62 415.15 102.81 417.41 104.03 417.51 103.84 415.09 102.53 413.68 104.49 413.86 104.62 413.86 104.62"/><polygon class="d" points="413.4 102.22 414.69 100.41 416.95 101.63 417.05 101.44 414.63 100.13 413.22 102.09 413.4 102.22 413.4 102.22"/><polygon class="d" points="412.48 99.5 413.77 97.7 416.03 98.92 416.14 98.73 413.71 97.42 412.31 99.38 412.48 99.5 412.48 99.5"/></g><g><path class="c" d="M384.42,143.29h0s7.47-11.67-7.85-16.04c-6.97,12.69,7.85,16.04,7.85,16.04Z"/><path class="d" d="M383.62,142.3s-.7-2.48-1.95-5.62c-1.26-3.15-3.07-6.96-5.31-9.64l-.17,.15c2.22,2.65,4.03,6.45,5.28,9.58,.63,1.57,1.11,2.97,1.44,3.98,.16,.5,.29,.91,.38,1.19,.08,.28,.13,.43,.13,.43l.21-.07h0Z"/><polygon class="d" points="380.89 139.77 381.92 137.63 384.53 138.84 384.63 138.64 381.81 137.33 380.69 139.68 380.89 139.77 380.89 139.77"/><polygon class="d" points="379.83 137.24 380.81 135.18 383.31 136.02 383.38 135.81 380.7 134.91 379.63 137.14 379.83 137.24 379.83 137.24"/><polygon class="d" points="378.94 134.89 379.92 132.84 382.42 133.68 382.5 133.46 379.81 132.56 378.74 134.8 378.94 134.89 378.94 134.89"/><polygon class="d" points="377.53 132.31 378.52 130.26 381.02 131.09 381.09 130.88 378.41 129.98 377.34 132.22 377.53 132.31 377.53 132.31"/></g><g><path class="c" d="M82.13,145.27h0s2.9-13.87-13.33-12.48c-2.05,14.66,13.33,12.48,13.33,12.48Z"/><path class="d" d="M81,144.62s-1.57-2.12-3.91-4.67c-2.34-2.55-5.46-5.54-8.59-7.29l-.11,.2c3.09,1.73,6.2,4.7,8.53,7.24,1.17,1.27,2.14,2.43,2.82,3.28,.34,.42,.61,.77,.79,1,.18,.24,.28,.37,.28,.37l.18-.14h0Z"/><polygon class="d" points="77.47 143.2 77.68 140.77 80.62 140.98 80.64 140.75 77.47 140.53 77.25 143.18 77.47 143.2 77.47 143.2"/><polygon class="d" points="75.53 141.16 75.73 138.84 78.42 138.73 78.42 138.5 75.52 138.61 75.31 141.14 75.53 141.16 75.53 141.16"/><polygon class="d" points="73.83 139.24 74.03 136.92 76.72 136.81 76.72 136.58 73.82 136.69 73.61 139.22 73.83 139.24 73.83 139.24"/><polygon class="d" points="71.55 137.28 71.75 134.96 74.44 134.85 74.44 134.62 71.54 134.74 71.33 137.26 71.55 137.28 71.55 137.28"/></g><g><path class="c" d="M30.62,119.85h0s13.82,7,16.97-10.53c-14.9-6.33-16.97,10.53-16.97,10.53Z"/><path class="d" d="M31.63,118.85s2.68-1.05,6.04-2.8c3.36-1.75,7.4-4.19,10.14-6.99l-.18-.17c-2.7,2.77-6.73,5.21-10.07,6.95-1.67,.87-3.18,1.57-4.26,2.05-.54,.24-.98,.43-1.28,.55-.3,.13-.47,.19-.47,.19l.1,.23h0Z"/><polygon class="d" points="34.13 115.53 36.64 116.43 35.58 119.48 35.82 119.56 36.95 116.28 34.21 115.29 34.13 115.53 34.13 115.53"/><polygon class="d" points="36.84 114.06 39.23 114.93 38.58 117.8 38.82 117.86 39.52 114.77 36.92 113.83 36.84 114.06 36.84 114.06"/><polygon class="d" points="39.35 112.81 41.74 113.68 41.09 116.55 41.33 116.61 42.04 113.52 39.43 112.58 39.35 112.81 39.35 112.81"/><polygon class="d" points="42.06 110.96 44.46 111.83 43.8 114.7 44.05 114.76 44.75 111.67 42.14 110.73 42.06 110.96 42.06 110.96"/></g><g><path class="c" d="M173.1,141.3h0s12.46,.26,10.18-17.97c-13.11,.88-10.18,17.97-10.18,17.97Z"/><path class="d" d="M173.61,139.87s1.77-2.25,3.88-5.49c2.1-3.24,4.55-7.46,5.89-11.4l-.19-.08c-1.33,3.9-3.76,8.11-5.86,11.33-1.05,1.61-2.01,2.98-2.72,3.95-.35,.48-.64,.86-.84,1.12-.2,.26-.31,.4-.31,.4l.14,.18h0Z"/><polygon class="d" points="174.63 135.53 176.79 135.23 176.8 138.63 177 138.6 177 134.94 174.63 135.27 174.63 135.53 174.63 135.53"/><polygon class="d" points="176.31 132.87 178.38 132.58 178.65 135.63 178.85 135.57 178.56 132.3 176.31 132.61 176.31 132.87 176.31 132.87"/><polygon class="d" points="177.9 130.5 179.97 130.22 180.24 133.27 180.44 133.21 180.15 129.93 177.9 130.24 177.9 130.5 177.9 130.5"/><polygon class="d" points="179.49 127.47 181.55 127.18 181.82 130.23 182.02 130.18 181.73 126.9 179.48 127.21 179.49 127.47 179.49 127.47"/></g><g><path class="c" d="M77.25,124.82h0s13.66,.91,10.15-14.43c-14.3,.01-10.15,14.43-10.15,14.43Z"/><path class="d" d="M77.72,123.66s1.81-1.78,3.94-4.37c2.12-2.59,4.56-5.97,5.82-9.19l-.21-.08c-1.24,3.18-3.67,6.56-5.78,9.14-1.06,1.29-2.04,2.38-2.76,3.14-.36,.38-.65,.69-.85,.89-.2,.21-.31,.32-.31,.32l.16,.15h0Z"/><polygon class="d" points="78.61 120.09 80.95 119.96 81.15 122.8 81.37 122.79 81.16 119.73 78.59 119.87 78.61 120.09 78.61 120.09"/><polygon class="d" points="80.3 117.96 82.54 117.84 83.01 120.4 83.23 120.36 82.73 117.61 80.28 117.75 80.3 117.96 80.3 117.96"/><polygon class="d" points="81.91 116.08 84.15 115.95 84.62 118.51 84.84 118.48 84.34 115.73 81.89 115.86 81.91 116.08 81.91 116.08"/><polygon class="d" points="83.47 113.63 85.72 113.51 86.18 116.07 86.4 116.03 85.9 113.28 83.46 113.42 83.47 113.63 83.47 113.63"/></g><g><path class="c" d="M436.55,138.78h0s13.66,.91,10.15-14.43c-14.3,.01-10.15,14.43-10.15,14.43Z"/><path class="d" d="M437.03,137.62s1.81-1.78,3.94-4.37c2.12-2.59,4.56-5.97,5.82-9.19l-.21-.08c-1.24,3.18-3.67,6.56-5.78,9.14-1.06,1.29-2.04,2.38-2.76,3.14-.36,.38-.65,.69-.85,.89-.2,.21-.31,.32-.31,.32l.16,.15h0Z"/><polygon class="d" points="437.91 134.04 440.26 133.92 440.45 136.76 440.68 136.74 440.46 133.69 437.9 133.83 437.91 134.04 437.91 134.04"/><polygon class="d" points="439.6 131.92 441.85 131.79 442.31 134.36 442.53 134.32 442.03 131.57 439.58 131.7 439.6 131.92 439.6 131.92"/><polygon class="d" points="441.21 130.03 443.45 129.91 443.92 132.47 444.14 132.43 443.64 129.68 441.19 129.82 441.21 130.03 441.21 130.03"/><polygon class="d" points="442.77 127.59 445.02 127.46 445.48 130.03 445.7 129.99 445.2 127.24 442.76 127.37 442.77 127.59 442.77 127.59"/></g><g><path class="c" d="M477.57,108.16h0s5.4-12.58-10.23-14.38c-4.75,13.49,10.23,14.38,10.23,14.38Z"/><path class="d" d="M476.64,107.33s-1.08-2.3-2.81-5.17c-1.73-2.86-4.11-6.29-6.73-8.55l-.14,.17c2.59,2.23,4.96,5.64,6.69,8.5,.86,1.43,1.56,2.72,2.04,3.65,.24,.47,.43,.84,.56,1.1,.13,.26,.19,.4,.19,.4l.2-.1h0Z"/><polygon class="d" points="473.56 105.3 474.22 103.05 476.97 103.81 477.03 103.59 474.07 102.77 473.35 105.24 473.56 105.3 473.56 105.3"/><polygon class="d" points="472.12 103 472.75 100.84 475.32 101.26 475.36 101.04 472.6 100.59 471.91 102.94 472.12 103 472.12 103"/><polygon class="d" points="470.88 100.86 471.51 98.7 474.08 99.11 474.12 98.89 471.36 98.45 470.67 100.8 470.88 100.86 470.88 100.86"/><polygon class="d" points="469.1 98.57 469.73 96.41 472.3 96.82 472.34 96.6 469.57 96.16 468.89 98.51 469.1 98.57 469.1 98.57"/></g><g><path class="c" d="M504.54,120.68h0s13.66,.91,10.15-14.43c-14.3,.01-10.15,14.43-10.15,14.43Z"/><path class="d" d="M505.02,119.51s1.81-1.78,3.94-4.37c2.12-2.59,4.56-5.97,5.82-9.19l-.21-.08c-1.24,3.18-3.67,6.56-5.78,9.14-1.06,1.29-2.04,2.38-2.76,3.14-.36,.38-.65,.69-.85,.89-.2,.21-.31,.32-.31,.32l.16,.15h0Z"/><polygon class="d" points="505.9 115.94 508.25 115.81 508.45 118.65 508.67 118.64 508.46 115.58 505.89 115.72 505.9 115.94 505.9 115.94"/><polygon class="d" points="507.59 113.81 509.84 113.69 510.3 116.25 510.52 116.22 510.02 113.46 507.58 113.6 507.59 113.81 507.59 113.81"/><polygon class="d" points="509.2 111.93 511.45 111.81 511.91 114.37 512.13 114.33 511.63 111.58 509.19 111.71 509.2 111.93 509.2 111.93"/><polygon class="d" points="510.77 109.49 513.01 109.36 513.48 111.92 513.7 111.89 513.2 109.13 510.75 109.27 510.77 109.49 510.77 109.49"/></g><g><path class="c" d="M523.03,109.64h0s9.92-9.43-3.75-17.24c-9.68,10.53,3.74,17.24,3.74,17.24Z"/><path class="d" d="M522.5,108.5s-.08-2.54-.55-5.86c-.46-3.31-1.3-7.4-2.82-10.51l-.2,.1c1.5,3.07,2.34,7.14,2.8,10.44,.23,1.65,.37,3.11,.44,4.16,.04,.52,.06,.94,.08,1.23,.01,.29,.02,.45,.02,.45h.22Z"/><polygon class="d" points="520.47 105.43 521.97 103.61 524.19 105.39 524.33 105.22 521.94 103.31 520.3 105.29 520.47 105.43 520.47 105.43"/><polygon class="d" points="520.05 102.74 521.48 101.01 523.68 102.4 523.8 102.22 521.44 100.72 519.88 102.61 520.05 102.74 520.05 102.74"/><polygon class="d" points="519.76 100.28 521.19 98.55 523.38 99.94 523.51 99.76 521.14 98.26 519.59 100.15 519.76 100.28 519.76 100.28"/><polygon class="d" points="519.02 97.48 520.45 95.74 522.65 97.13 522.77 96.95 520.41 95.45 518.85 97.34 519.02 97.48 519.02 97.48"/></g></g></svg>