<?xml version="1.0" encoding="UTF-8"?><svg xmlns="http://www.w3.org/2000/svg" viewBox="0 0 381.5 262"><defs><style>.c{fill:#afa57d;}.d{fill:#777159;}</style></defs><g id="a"><path class="c" d="M120.14,88.03h9.59v86.46h-9.59v-39.06h-18.63v39.06h-9.59V88.03h9.59v39.2h18.63v-39.2Z"/><path class="c" d="M155.31,88.03h14.18c7.32,0,10.98,3.66,10.98,10.98v64.5c0,7.32-3.66,10.98-10.98,10.98h-14.18c-7.32,0-10.98-3.66-10.98-10.98V99.01c0-7.32,3.66-10.98,10.98-10.98Zm15.71,73.95v-61.44c0-1.85-.28-3.03-.83-3.54-.56-.51-1.72-.76-3.47-.76h-8.62c-1.76,0-2.92,.26-3.47,.76-.56,.51-.83,1.69-.83,3.54v61.44c0,1.85,.28,3.04,.83,3.54,.56,.51,1.71,.76,3.47,.76h8.62c1.76,0,2.92-.25,3.47-.76,.56-.51,.83-1.69,.83-3.54Z"/><path class="c" d="M203.26,174.49h-8.2V88.03h10.43l14.87,55.6,15.01-55.6h10.42v86.46h-8.2V109.02l-12.09,46.7h-10.15l-12.09-46.7v65.47Z"/><path class="c" d="M270.67,166.29h23.77v8.2h-33.36V88.03h32.39v8.2h-22.8v29.19h18.63v8.2h-18.63v32.67Z"/></g><g id="b"><g><path class="c" d="M136.8,140.56h0s9.36-11.5-6.28-17.84c-8.96,12.63,6.28,17.84,6.28,17.84Z"/><path class="d" d="M136.08,139.43s-.42-2.7-1.36-6.17c-.93-3.47-2.37-7.7-4.4-10.79l-.2,.14c2.01,3.05,3.45,7.27,4.37,10.73,.46,1.73,.8,3.26,1.02,4.37,.11,.55,.19,1,.25,1.3,.05,.31,.08,.47,.08,.47l.23-.05h0Z"/><polygon class="d" points="133.5 136.45 134.86 134.3 137.47 135.87 137.6 135.67 134.79 133.97 133.31 136.33 133.5 136.45 133.5 136.45"/><polygon class="d" points="132.7 133.65 134 131.59 136.54 132.75 136.64 132.54 133.92 131.28 132.5 133.53 132.7 133.65 132.7 133.65"/><polygon class="d" points="132.06 131.07 133.36 129.01 135.89 130.17 136 129.96 133.28 128.7 131.86 130.95 132.06 131.07 132.06 131.07"/><polygon class="d" points="130.9 128.18 132.2 126.12 134.73 127.29 134.84 127.07 132.12 125.82 130.7 128.06 130.9 128.18 130.9 128.18"/></g><g><path class="c" d="M89.07,144.53h0s9.79-11.63-6.25-18.58c-9.4,12.81,6.25,18.58,6.25,18.58Z"/><path class="d" d="M88.34,143.34s-.4-2.8-1.32-6.4c-.92-3.6-2.35-8.01-4.41-11.26l-.21,.13c2.04,3.2,3.46,7.6,4.38,11.19,.46,1.8,.79,3.39,1,4.54,.11,.57,.19,1.03,.24,1.35,.05,.32,.08,.49,.08,.49l.24-.04h0Z"/><polygon class="d" points="85.73 140.19 87.15 138.01 89.83 139.7 89.96 139.49 87.08 137.67 85.52 140.06 85.73 140.19 85.73 140.19"/><polygon class="d" points="84.93 137.28 86.3 135.19 88.9 136.46 89.01 136.24 86.22 134.87 84.73 137.15 84.93 137.28 84.93 137.28"/><polygon class="d" points="84.3 134.6 85.67 132.51 88.27 133.78 88.38 133.56 85.59 132.19 84.1 134.47 84.3 134.6 84.3 134.6"/><polygon class="d" points="83.14 131.59 84.51 129.5 87.11 130.77 87.22 130.55 84.43 129.18 82.94 131.46 83.14 131.59 83.14 131.59"/></g><g><path class="c" d="M159.37,141.21h0s13.13,4.65,14.37-11.99c-14.05-3.88-14.37,11.99-14.37,11.99Z"/><path class="d" d="M160.2,140.15s2.33-1.33,5.2-3.39c2.88-2.06,6.3-4.86,8.52-7.82l-.18-.14c-2.19,2.92-5.6,5.71-8.47,7.77-1.43,1.03-2.73,1.87-3.67,2.46-.47,.29-.85,.52-1.11,.68-.26,.16-.41,.24-.41,.24l.11,.2h0Z"/><polygon class="d" points="162.16 136.74 164.5 137.25 163.82 140.21 164.05 140.26 164.77 137.07 162.21 136.52 162.16 136.74 162.16 136.74"/><polygon class="d" points="164.46 135.03 166.71 135.51 166.38 138.26 166.61 138.28 166.96 135.33 164.51 134.8 164.46 135.03 164.46 135.03"/><polygon class="d" points="166.62 133.54 168.86 134.02 168.54 136.77 168.76 136.79 169.11 133.84 166.67 133.31 166.62 133.54 166.62 133.54"/><polygon class="d" points="168.9 131.47 171.15 131.95 170.82 134.7 171.05 134.72 171.4 131.77 168.95 131.24 168.9 131.47 168.9 131.47"/></g><g><path class="c" d="M98.01,176.75h0s13.73,3.75,13.33-12.6c-14.57-2.95-13.33,12.6-13.33,12.6Z"/><path class="d" d="M98.74,175.66s2.22-1.44,4.92-3.63c2.7-2.19,5.89-5.14,7.83-8.16l-.2-.12c-1.92,2.99-5.09,5.92-7.78,8.11-1.35,1.09-2.57,2-3.46,2.63-.44,.32-.8,.56-1.05,.73-.25,.17-.39,.26-.39,.26l.13,.19h0Z"/><polygon class="d" points="100.38 172.2 102.8 172.56 102.41 175.49 102.64 175.53 103.06 172.37 100.41 171.98 100.38 172.2 100.38 172.2"/><polygon class="d" points="102.54 170.39 104.86 170.73 104.8 173.43 105.03 173.44 105.09 170.53 102.57 170.16 102.54 170.39 102.54 170.39"/><polygon class="d" points="104.57 168.8 106.89 169.14 106.83 171.84 107.06 171.85 107.12 168.94 104.6 168.57 104.57 168.8 104.57 168.8"/><polygon class="d" points="106.67 166.63 108.99 166.97 108.93 169.68 109.16 169.68 109.22 166.78 106.7 166.41 106.67 166.63 106.67 166.63"/></g><g><path class="c" d="M195.01,142.61h0s13.5,.47,9.84-15.41c-14.13,.51-9.84,15.41-9.84,15.41Z"/><path class="d" d="M195.47,141.38s1.77-1.92,3.83-4.69c2.07-2.77,4.43-6.39,5.63-9.79l-.21-.07c-1.18,3.36-3.54,6.97-5.59,9.73-1.03,1.38-1.98,2.55-2.68,3.37-.35,.41-.63,.74-.83,.96-.2,.22-.31,.34-.31,.34l.16,.15h0Z"/><polygon class="d" points="196.29 137.63 198.61 137.41 198.84 140.36 199.06 140.34 198.81 137.16 196.28 137.4 196.29 137.63 196.29 137.63"/><polygon class="d" points="197.94 135.35 200.15 135.14 200.65 137.8 200.86 137.75 200.33 134.9 197.92 135.12 197.94 135.35 197.94 135.35"/><polygon class="d" points="199.5 133.33 201.72 133.12 202.21 135.77 202.43 135.73 201.9 132.88 199.48 133.1 199.5 133.33 199.5 133.33"/><polygon class="d" points="201.02 130.72 203.23 130.52 203.72 133.17 203.94 133.12 203.41 130.27 201 130.5 201.02 130.72 201.02 130.72"/></g><g><path class="c" d="M249.12,147.53h0s10.39-9.26-3.62-18.44c-10.16,10.43,3.62,18.44,3.62,18.44Z"/><path class="d" d="M248.59,146.29s-.05-2.69-.48-6.21c-.43-3.53-1.24-7.89-2.76-11.27l-.21,.09c1.51,3.34,2.32,7.69,2.74,11.2,.21,1.76,.33,3.31,.4,4.41,.03,.55,.05,1,.06,1.3,.01,.31,.01,.47,.01,.47h.23Z"/><polygon class="d" points="246.54 142.91 248.11 141.1 250.38 143.13 250.53 142.96 248.08 140.78 246.36 142.76 246.54 142.91 246.54 142.91"/><polygon class="d" points="246.14 140.06 247.65 138.32 249.9 139.94 250.03 139.76 247.61 138.01 245.97 139.9 246.14 140.06 246.14 140.06"/><polygon class="d" points="245.87 137.44 247.37 135.71 249.63 137.33 249.76 137.14 247.34 135.4 245.7 137.29 245.87 137.44 245.87 137.44"/><polygon class="d" points="245.15 134.43 246.65 132.7 248.9 134.32 249.03 134.13 246.61 132.39 244.98 134.27 245.15 134.43 245.15 134.43"/></g><g><path class="c" d="M184.38,148.78h0s9.95-9-3.25-17c-9.75,10.08,3.24,17,3.24,17Z"/><path class="d" d="M183.88,147.65s-.02-2.49-.39-5.75c-.37-3.26-1.09-7.29-2.51-10.37l-.2,.09c1.4,3.04,2.12,7.06,2.49,10.31,.19,1.62,.28,3.06,.33,4.09,.03,.51,.04,.93,.05,1.21,0,.28,0,.44,0,.44h.22Z"/><polygon class="d" points="181.97 144.59 183.48 142.85 185.61 144.65 185.76 144.48 183.46 142.55 181.81 144.45 181.97 144.59 181.97 144.59"/><polygon class="d" points="181.62 141.95 183.07 140.28 185.19 141.7 185.31 141.52 183.03 140 181.46 141.81 181.62 141.95 181.62 141.95"/><polygon class="d" points="181.39 139.53 182.84 137.86 184.96 139.28 185.08 139.11 182.8 137.58 181.23 139.39 181.39 139.53 181.39 139.53"/><polygon class="d" points="180.74 136.76 182.18 135.09 184.3 136.51 184.43 136.34 182.15 134.81 180.57 136.62 180.74 136.76 180.74 136.76"/></g><g><path class="c" d="M127.74,163.13h0s14.88,4.31,14.72-13.5c-15.82-3.45-14.72,13.5-14.72,13.5Z"/><path class="d" d="M128.55,161.96s2.44-1.53,5.41-3.88c2.98-2.34,6.49-5.5,8.66-8.75l-.21-.14c-2.14,3.22-5.64,6.36-8.61,8.7-1.48,1.17-2.83,2.13-3.81,2.81-.49,.34-.89,.6-1.16,.78-.27,.18-.42,.27-.42,.27l.14,.21h0Z"/><polygon class="d" points="130.39 158.22 133.02 158.65 132.55 161.83 132.8 161.88 133.31 158.44 130.43 157.98 130.39 158.22 130.39 158.22"/><polygon class="d" points="132.78 156.28 135.29 156.69 135.18 159.63 135.44 159.64 135.55 156.48 132.81 156.04 132.78 156.28 132.78 156.28"/><polygon class="d" points="135.01 154.58 137.53 154.99 137.42 157.94 137.67 157.95 137.79 154.78 135.05 154.34 135.01 154.58 135.01 154.58"/><polygon class="d" points="137.34 152.26 139.85 152.67 139.74 155.61 139.99 155.63 140.11 152.46 137.37 152.02 137.34 152.26 137.34 152.26"/></g><g><path class="c" d="M222.57,151.62h0s15.08,.77,10.96-16.09c-15.78,.25-10.96,16.09-10.96,16.09Z"/><path class="d" d="M223.08,150.33s1.97-2,4.27-4.88c2.3-2.89,4.93-6.66,6.26-10.24l-.23-.08c-1.31,3.53-3.93,7.3-6.23,10.17-1.15,1.44-2.21,2.66-2.99,3.51-.39,.43-.71,.77-.93,1-.22,.23-.34,.35-.34,.35l.18,.17h0Z"/><polygon class="d" points="223.99 146.38 226.58 146.19 226.84 149.32 227.09 149.31 226.8 145.94 223.97 146.14 223.99 146.38 223.99 146.38"/><polygon class="d" points="225.82 144 228.3 143.83 228.85 146.64 229.09 146.6 228.5 143.57 225.8 143.76 225.82 144 225.82 144"/><polygon class="d" points="227.56 141.9 230.04 141.72 230.59 144.54 230.84 144.5 230.24 141.47 227.54 141.66 227.56 141.9 227.56 141.9"/><polygon class="d" points="229.25 139.17 231.73 139 232.28 141.81 232.52 141.77 231.93 138.74 229.23 138.93 229.25 139.17 229.25 139.17"/></g><g><path class="c" d="M214.71,172.02h0s4.22-12.97-11.46-13.34c-3.49,13.82,11.45,13.34,11.45,13.34Z"/><path class="d" d="M213.7,171.27s-1.28-2.19-3.25-4.87c-1.98-2.69-4.65-5.87-7.45-7.87l-.13,.18c2.77,1.98,5.44,5.15,7.41,7.82,.98,1.34,1.8,2.55,2.36,3.43,.28,.44,.5,.8,.65,1.04,.15,.25,.23,.38,.23,.38l.19-.12h0Z"/><polygon class="d" points="210.47 169.54 210.92 167.25 213.71 167.75 213.75 167.53 210.75 166.99 210.25 169.51 210.47 169.54 210.47 169.54"/><polygon class="d" points="208.83 167.39 209.26 165.19 211.84 165.37 211.86 165.15 209.08 164.96 208.61 167.35 208.83 167.39 208.83 167.39"/><polygon class="d" points="207.4 165.38 207.83 163.18 210.42 163.36 210.44 163.14 207.66 162.94 207.19 165.34 207.4 165.38 207.4 165.38"/><polygon class="d" points="205.42 163.27 205.85 161.07 208.44 161.24 208.46 161.02 205.68 160.83 205.21 163.23 205.42 163.27 205.42 163.27"/></g><g><path class="c" d="M187.76,163.82h0s9.36,4.36,11.07-7.39c-10.06-3.88-11.07,7.39-11.07,7.39Z"/><path class="d" d="M188.41,163.13s1.76-.76,3.96-2c2.2-1.24,4.83-2.96,6.59-4.88l-.13-.11c-1.74,1.9-4.36,3.62-6.55,4.85-1.1,.62-2.08,1.12-2.79,1.46-.36,.17-.64,.31-.84,.4-.2,.09-.31,.14-.31,.14l.07,.15h0Z"/><polygon class="d" points="190.01 160.86 191.69 161.41 191.06 163.46 191.22 163.51 191.9 161.3 190.06 160.71 190.01 160.86 190.01 160.86"/><polygon class="d" points="191.77 159.83 193.39 160.35 193.02 162.28 193.18 162.31 193.58 160.24 191.82 159.67 191.77 159.83 191.77 159.83"/><polygon class="d" points="193.42 158.94 195.03 159.46 194.66 161.39 194.83 161.42 195.22 159.35 193.47 158.78 193.42 158.94 193.42 158.94"/><polygon class="d" points="195.18 157.64 196.8 158.17 196.43 160.1 196.59 160.13 196.99 158.06 195.23 157.49 195.18 157.64 195.18 157.64"/></g><g><path class="c" d="M237.9,179.79h0s-1.39-10.23-12.2-5.32c2.17,10.56,12.2,5.32,12.2,5.32Z"/><path class="d" d="M236.96,179.62s-1.59-1.07-3.82-2.25c-2.23-1.18-5.1-2.47-7.67-2.91l-.03,.17c2.54,.43,5.4,1.72,7.62,2.89,1.11,.59,2.06,1.15,2.74,1.56,.34,.21,.6,.38,.79,.5,.18,.12,.28,.18,.28,.18l.09-.14h0Z"/><polygon class="d" points="234.19 179.5 233.74 177.79 235.81 177.22 235.77 177.05 233.54 177.67 234.03 179.55 234.19 179.5 234.19 179.5"/><polygon class="d" points="232.37 178.58 231.93 176.94 233.76 176.21 233.7 176.05 231.74 176.83 232.21 178.62 232.37 178.58 232.37 178.58"/><polygon class="d" points="230.73 177.67 230.3 176.03 232.12 175.3 232.06 175.15 230.1 175.93 230.57 177.72 230.73 177.67 230.73 177.67"/><polygon class="d" points="228.69 176.89 228.26 175.24 230.08 174.52 230.02 174.36 228.06 175.14 228.53 176.93 228.69 176.89 228.69 176.89"/></g><g><path class="c" d="M295.81,182.05h0s7.59-11.98-8.11-16.38c-7.07,13.01,8.1,16.38,8.1,16.38Z"/><path class="c" d="M294.99,181.04s-.72-2.53-2.02-5.75c-1.3-3.21-3.17-7.11-5.48-9.84l-.17,.15c2.28,2.7,4.15,6.58,5.45,9.78,.65,1.6,1.15,3.03,1.49,4.06,.17,.52,.3,.93,.39,1.22,.09,.29,.13,.44,.13,.44l.22-.07h0Z"/><polygon class="c" points="292.18 178.47 293.22 176.27 295.9 177.5 296 177.29 293.12 175.97 291.97 178.38 292.18 178.47 292.18 178.47"/><polygon class="c" points="291.08 175.88 292.08 173.77 294.64 174.62 294.72 174.4 291.96 173.49 290.88 175.79 291.08 175.88 291.08 175.88"/><polygon class="c" points="290.16 173.48 291.16 171.38 293.72 172.22 293.8 172.01 291.05 171.1 289.96 173.39 290.16 173.48 290.16 173.48"/><polygon class="c" points="288.71 170.85 289.71 168.74 292.27 169.59 292.35 169.37 289.6 168.46 288.51 170.75 288.71 170.85 288.71 170.85"/></g><g><path class="c" d="M253.32,146.43h0s13.66,.91,10.15-14.43c-14.3,.01-10.15,14.43-10.15,14.43Z"/><path class="d" d="M253.8,145.27s1.81-1.78,3.94-4.37c2.12-2.59,4.56-5.97,5.82-9.19l-.21-.08c-1.24,3.18-3.67,6.56-5.78,9.14-1.06,1.29-2.04,2.38-2.76,3.14-.36,.38-.65,.69-.85,.89-.2,.21-.31,.32-.31,.32l.16,.15h0Z"/><polygon class="d" points="254.68 141.69 257.03 141.57 257.23 144.41 257.45 144.39 257.24 141.34 254.67 141.48 254.68 141.69 254.68 141.69"/><polygon class="d" points="256.37 139.57 258.62 139.44 259.08 142.01 259.3 141.97 258.8 139.22 256.36 139.35 256.37 139.57 256.37 139.57"/><polygon class="d" points="257.98 137.68 260.23 137.56 260.69 140.12 260.91 140.08 260.41 137.33 257.97 137.47 257.98 137.68 257.98 137.68"/><polygon class="d" points="259.55 135.24 261.79 135.12 262.26 137.68 262.48 137.64 261.98 134.89 259.53 135.02 259.55 135.24 259.55 135.24"/></g><g><path class="c" d="M274.64,151.08h0s10.78-7.49-1.02-16.89c-10.72,8.56,1.02,16.89,1.02,16.89Z"/><path class="d" d="M274.3,149.92s.29-2.42,.34-5.63c.05-3.21-.15-7.21-1.13-10.37l-.2,.07c.98,3.13,1.17,7.11,1.12,10.31-.02,1.6-.11,3-.19,4-.04,.5-.08,.9-.11,1.18-.03,.28-.05,.43-.05,.43l.21,.02h0Z"/><polygon class="d" points="272.83 146.71 274.51 145.21 276.35 147.22 276.51 147.08 274.53 144.92 272.68 146.56 272.83 146.71 272.83 146.71"/><polygon class="d" points="272.82 144.11 274.43 142.67 276.31 144.31 276.45 144.16 274.43 142.39 272.68 143.95 272.82 144.11 272.82 144.11"/><polygon class="d" points="272.9 141.73 274.51 140.3 276.39 141.94 276.53 141.78 274.51 140.01 272.76 141.58 272.9 141.73 272.9 141.73"/><polygon class="d" points="272.61 138.96 274.22 137.53 276.1 139.17 276.25 139.01 274.23 137.25 272.47 138.81 272.61 138.96 272.61 138.96"/></g><g><path class="c" d="M248.85,168.22h0s13.53-5.21,3.33-18.39c-13.74,6.38-3.34,18.39-3.34,18.39Z"/><path class="d" d="M248.79,166.89s.95-2.52,1.84-5.95c.89-3.43,1.73-7.77,1.5-11.43l-.24,.02c.23,3.61-.6,7.94-1.49,11.36-.44,1.71-.9,3.19-1.25,4.25-.17,.53-.32,.95-.42,1.24-.1,.29-.16,.44-.16,.44l.22,.08h0Z"/><polygon class="d" points="248.05 163.06 250.25 161.89 251.7 164.54 251.91 164.42 250.34 161.58 247.94 162.86 248.05 163.06 248.05 163.06"/><polygon class="d" points="248.72 160.26 250.83 159.15 252.41 161.4 252.61 161.27 250.91 158.84 248.61 160.06 248.72 160.26 248.72 160.26"/><polygon class="d" points="249.43 157.74 251.54 156.62 253.12 158.87 253.32 158.74 251.61 156.32 249.32 157.53 249.43 157.74 249.43 157.74"/><polygon class="d" points="249.85 154.69 251.95 153.57 253.54 155.83 253.73 155.69 252.03 153.27 249.74 154.49 249.85 154.69 249.85 154.69"/></g><g><path class="c" d="M301.3,158.8h0s9.12-9.96-4.86-16.71c-8.81,11.02,4.85,16.71,4.85,16.71Z"/><path class="d" d="M300.7,157.72s-.25-2.5-.93-5.73c-.68-3.23-1.78-7.19-3.49-10.15l-.19,.11c1.69,2.92,2.79,6.87,3.47,10.08,.34,1.61,.57,3.04,.72,4.06,.07,.51,.13,.92,.16,1.21,.03,.28,.05,.44,.05,.44l.22-.03h0Z"/><polygon class="d" points="298.5 154.83 299.84 152.95 302.15 154.55 302.28 154.37 299.79 152.65 298.32 154.71 298.5 154.83 298.5 154.83"/><polygon class="d" points="297.9 152.22 299.19 150.42 301.45 151.64 301.56 151.45 299.13 150.13 297.73 152.1 297.9 152.22 297.9 152.22"/><polygon class="d" points="297.44 149.82 298.73 148.02 300.99 149.24 301.1 149.05 298.67 147.73 297.27 149.7 297.44 149.82 297.44 149.82"/><polygon class="d" points="296.53 147.11 297.81 145.3 300.07 146.53 300.18 146.33 297.75 145.02 296.35 146.99 296.53 147.11 296.53 147.11"/></g><g><path class="c" d="M285.25,140.34h0s13.82,.97,10.33-14.57c-14.47-.04-10.33,14.57-10.33,14.57Z"/><path class="d" d="M285.73,139.16s1.84-1.8,4-4.41c2.16-2.61,4.64-6.03,5.92-9.28l-.21-.08c-1.26,3.22-3.73,6.63-5.89,9.22-1.08,1.3-2.07,2.4-2.8,3.17-.36,.39-.66,.69-.87,.9-.21,.21-.32,.32-.32,.32l.16,.16h0Z"/><polygon class="d" points="286.64 135.55 289.02 135.43 289.21 138.31 289.43 138.3 289.23 135.2 286.63 135.33 286.64 135.55 286.64 135.55"/><polygon class="d" points="288.36 133.41 290.63 133.29 291.09 135.88 291.32 135.85 290.82 133.06 288.35 133.19 288.36 133.41 288.36 133.41"/><polygon class="d" points="290 131.51 292.27 131.39 292.73 133.98 292.95 133.95 292.46 131.16 289.98 131.29 290 131.51 290 131.51"/><polygon class="d" points="291.59 129.04 293.86 128.92 294.32 131.51 294.54 131.48 294.05 128.69 291.57 128.82 291.59 129.04 291.59 129.04"/></g><g><path class="c" d="M150.25,166.48h0s14.16,.53,10.06-15.24c-14.8,.44-10.07,15.24-10.07,15.24Z"/><path class="d" d="M150.71,165.26s1.82-1.9,3.94-4.64c2.12-2.74,4.54-6.32,5.74-9.69l-.22-.08c-1.18,3.33-3.59,6.9-5.71,9.63-1.06,1.36-2.04,2.52-2.76,3.33-.36,.41-.65,.73-.85,.95-.2,.22-.32,.34-.32,.34l.17,.15h0Z"/><polygon class="d" points="151.52 161.54 153.94 161.34 154.23 164.27 154.46 164.25 154.15 161.09 151.5 161.32 151.52 161.54 151.52 161.54"/><polygon class="d" points="153.2 159.29 155.52 159.09 156.08 161.73 156.31 161.69 155.71 158.85 153.18 159.07 153.2 159.29 153.2 159.29"/><polygon class="d" points="154.81 157.29 157.13 157.1 157.69 159.73 157.91 159.69 157.31 156.85 154.79 157.07 154.81 157.29 154.81 157.29"/><polygon class="d" points="156.36 154.71 158.68 154.52 159.23 157.15 159.46 157.11 158.86 154.28 156.33 154.49 156.36 154.71 156.36 154.71"/></g></g></svg>