<?xml version="1.0" encoding="UTF-8"?><svg xmlns="http://www.w3.org/2000/svg" viewBox="0 0 381.5 262"><defs><style>.c{fill:#afa57d;}.d{fill:#777159;}</style></defs><g id="a"><path class="c" d="M120.14,88.03h9.59v86.46h-9.59v-39.06h-18.63v39.06h-9.59V88.03h9.59v39.2h18.63v-39.2Z"/><path class="c" d="M155.31,88.03h14.18c7.32,0,10.98,3.66,10.98,10.98v64.5c0,7.32-3.66,10.98-10.98,10.98h-14.18c-7.32,0-10.98-3.66-10.98-10.98V99.01c0-7.32,3.66-10.98,10.98-10.98Zm15.71,73.95v-61.44c0-1.85-.28-3.03-.83-3.54-.56-.51-1.72-.76-3.47-.76h-8.62c-1.76,0-2.92,.26-3.47,.76-.56,.51-.83,1.69-.83,3.54v61.44c0,1.85,.28,3.04,.83,3.54,.56,.51,1.71,.76,3.47,.76h8.62c1.76,0,2.92-.25,3.47-.76,.56-.51,.83-1.69,.83-3.54Z"/><path class="c" d="M203.26,174.49h-8.2V88.03h10.43l14.87,55.6,15.01-55.6h10.42v86.46h-8.2V109.02l-12.09,46.7h-10.15l-12.09-46.7v65.47Z"/><path class="c" d="M270.67,166.29h23.77v8.2h-33.36V88.03h32.39v8.2h-22.8v29.19h18.63v8.2h-18.63v32.67Z"/></g><g id="b"><g><path class="c" d="M130.86,151.44h0s9.36-11.5-6.28-17.84c-8.96,12.63,6.28,17.84,6.28,17.84Z"/><path class="d" d="M130.14,150.3s-.42-2.7-1.36-6.17c-.93-3.47-2.37-7.7-4.4-10.79l-.2,.14c2.01,3.05,3.45,7.27,4.37,10.73,.46,1.73,.8,3.26,1.02,4.37,.11,.55,.19,1,.25,1.3,.05,.31,.08,.47,.08,.47l.23-.05h0Z"/><polygon class="d" points="127.57 147.32 128.92 145.17 131.54 146.74 131.66 146.54 128.85 144.85 127.37 147.2 127.57 147.32 127.57 147.32"/><polygon class="d" points="126.76 144.52 128.06 142.46 130.6 143.63 130.7 143.41 127.98 142.16 126.56 144.4 126.76 144.52 126.76 144.52"/><polygon class="d" points="126.12 141.94 127.42 139.88 129.95 141.05 130.06 140.83 127.34 139.58 125.92 141.82 126.12 141.94 126.12 141.94"/><polygon class="d" points="124.96 139.06 126.26 137 128.8 138.16 128.9 137.95 126.18 136.69 124.76 138.94 124.96 139.06 124.96 139.06"/></g><g><path class="c" d="M90.37,158.93h0s9.79-11.63-6.25-18.58c-9.4,12.81,6.25,18.58,6.25,18.58Z"/><path class="d" d="M89.64,157.74s-.4-2.8-1.32-6.4c-.92-3.6-2.35-8.01-4.41-11.26l-.21,.13c2.04,3.2,3.46,7.6,4.38,11.19,.46,1.8,.79,3.39,1,4.54,.11,.57,.19,1.03,.24,1.35,.05,.32,.08,.49,.08,.49l.24-.04h0Z"/><polygon class="d" points="87.02 154.6 88.45 152.41 91.12 154.1 91.26 153.9 88.38 152.08 86.82 154.47 87.02 154.6 87.02 154.6"/><polygon class="d" points="86.23 151.69 87.59 149.59 90.19 150.86 90.3 150.64 87.51 149.28 86.02 151.56 86.23 151.69 86.23 151.69"/><polygon class="d" points="85.6 149.01 86.96 146.91 89.56 148.18 89.67 147.96 86.88 146.6 85.39 148.88 85.6 149.01 85.6 149.01"/><polygon class="d" points="84.44 146 85.8 143.9 88.4 145.17 88.51 144.95 85.72 143.59 84.23 145.87 84.44 146 84.44 146"/></g><g><path class="c" d="M161.84,154.78h0s13.13,4.65,14.37-11.99c-14.05-3.88-14.37,11.99-14.37,11.99Z"/><path class="d" d="M162.66,153.72s2.33-1.33,5.2-3.39c2.88-2.06,6.3-4.86,8.52-7.82l-.18-.14c-2.19,2.92-5.6,5.71-8.47,7.77-1.43,1.03-2.73,1.87-3.67,2.46-.47,.29-.85,.52-1.11,.68-.26,.16-.41,.24-.41,.24l.11,.2h0Z"/><polygon class="d" points="164.62 150.31 166.97 150.82 166.29 153.78 166.51 153.82 167.24 150.64 164.67 150.09 164.62 150.31 164.62 150.31"/><polygon class="d" points="166.93 148.6 169.18 149.08 168.85 151.83 169.08 151.85 169.43 148.9 166.98 148.37 166.93 148.6 166.93 148.6"/><polygon class="d" points="169.09 147.11 171.33 147.59 171 150.34 171.23 150.36 171.58 147.41 169.14 146.88 169.09 147.11 169.09 147.11"/><polygon class="d" points="171.37 145.04 173.61 145.52 173.29 148.26 173.51 148.29 173.86 145.34 171.42 144.81 171.37 145.04 171.37 145.04"/></g><g><path class="c" d="M98.01,176.75h0s13.73,3.75,13.33-12.6c-14.57-2.95-13.33,12.6-13.33,12.6Z"/><path class="d" d="M98.74,175.66s2.22-1.44,4.92-3.63c2.7-2.19,5.89-5.14,7.83-8.16l-.2-.12c-1.92,2.99-5.09,5.92-7.78,8.11-1.35,1.09-2.57,2-3.46,2.63-.44,.32-.8,.56-1.05,.73-.25,.17-.39,.26-.39,.26l.13,.19h0Z"/><polygon class="d" points="100.38 172.2 102.8 172.56 102.41 175.49 102.64 175.53 103.06 172.37 100.41 171.98 100.38 172.2 100.38 172.2"/><polygon class="d" points="102.54 170.39 104.86 170.73 104.8 173.43 105.03 173.44 105.09 170.53 102.57 170.16 102.54 170.39 102.54 170.39"/><polygon class="d" points="104.57 168.8 106.89 169.14 106.83 171.84 107.06 171.85 107.12 168.94 104.6 168.57 104.57 168.8 104.57 168.8"/><polygon class="d" points="106.67 166.63 108.99 166.97 108.93 169.68 109.16 169.68 109.22 166.78 106.7 166.41 106.67 166.63 106.67 166.63"/></g><g><path class="c" d="M199.72,150.52h0s7.77,11.06,18.22-1.44c-8.93-10.96-18.22,1.44-18.22,1.44Z"/><path class="d" d="M200.97,150.14s2.6,.25,6.06,.23c3.46-.02,7.77-.32,11.2-1.42l-.06-.21c-3.4,1.09-7.69,1.38-11.13,1.41-1.72,.01-3.23-.05-4.31-.1-.54-.03-.97-.06-1.27-.08-.3-.02-.46-.04-.46-.04l-.03,.22h0Z"/><polygon class="d" points="204.47 148.54 206.04 150.25 203.82 152.22 203.97 152.38 206.36 150.27 204.64 148.39 204.47 148.54 204.47 148.54"/><polygon class="d" points="207.27 148.47 208.78 150.12 206.96 152.11 207.12 152.26 209.08 150.11 207.44 148.32 207.27 148.47 207.27 148.47"/><polygon class="d" points="209.83 148.5 211.33 150.15 209.51 152.14 209.68 152.28 211.64 150.14 210 148.35 209.83 148.5 209.83 148.5"/><polygon class="d" points="212.82 148.14 214.33 149.78 212.51 151.78 212.67 151.92 214.63 149.78 212.99 147.99 212.82 148.14 212.82 148.14"/></g><g><path class="c" d="M249.4,159.75h0s10.39-9.26-3.62-18.44c-10.16,10.43,3.62,18.44,3.62,18.44Z"/><path class="d" d="M248.87,158.51s-.05-2.69-.48-6.21c-.43-3.53-1.24-7.89-2.76-11.27l-.21,.09c1.51,3.34,2.32,7.69,2.74,11.2,.21,1.76,.33,3.31,.4,4.41,.03,.55,.05,1,.06,1.3,.01,.31,.01,.47,.01,.47h.23Z"/><polygon class="d" points="246.81 155.13 248.38 153.32 250.66 155.35 250.81 155.18 248.36 153 246.64 154.98 246.81 155.13 246.81 155.13"/><polygon class="d" points="246.42 152.27 247.92 150.54 250.17 152.16 250.3 151.98 247.88 150.23 246.25 152.12 246.42 152.27 246.42 152.27"/><polygon class="d" points="246.15 149.66 247.65 147.93 249.9 149.55 250.03 149.36 247.61 147.62 245.97 149.51 246.15 149.66 246.15 149.66"/><polygon class="d" points="245.43 146.65 246.93 144.92 249.18 146.54 249.31 146.35 246.89 144.61 245.25 146.49 245.43 146.65 245.43 146.65"/></g><g><path class="c" d="M184.14,174.3h0s9.95-9-3.25-17c-9.75,10.08,3.24,17,3.24,17Z"/><path class="d" d="M183.64,173.17s-.02-2.49-.39-5.75c-.37-3.26-1.09-7.29-2.51-10.37l-.2,.09c1.4,3.04,2.12,7.06,2.49,10.31,.19,1.62,.28,3.06,.33,4.09,.03,.51,.04,.93,.05,1.21,0,.28,0,.44,0,.44h.22Z"/><polygon class="d" points="181.73 170.11 183.24 168.37 185.37 170.17 185.52 170 183.22 168.06 181.56 169.97 181.73 170.11 181.73 170.11"/><polygon class="d" points="181.38 167.47 182.83 165.8 184.95 167.22 185.07 167.04 182.79 165.51 181.22 167.33 181.38 167.47 181.38 167.47"/><polygon class="d" points="181.15 165.05 182.6 163.38 184.72 164.8 184.84 164.62 182.56 163.1 180.99 164.91 181.15 165.05 181.15 165.05"/><polygon class="d" points="180.5 162.28 181.94 160.61 184.06 162.03 184.19 161.85 181.91 160.33 180.33 162.14 180.5 162.28 180.5 162.28"/></g><g><path class="c" d="M124.09,169.51h0s6.4,14.11,19.83,2.41c-7.66-14.26-19.83-2.41-19.83-2.41Z"/><path class="d" d="M125.5,169.36s2.75,.86,6.46,1.59c3.72,.74,8.4,1.36,12.28,.89l-.03-.25c-3.84,.47-8.5-.15-12.21-.88-1.85-.37-3.46-.76-4.61-1.07-.57-.15-1.03-.28-1.35-.37-.31-.09-.48-.14-.48-.14l-.07,.24h0Z"/><polygon class="d" points="129.54 168.34 130.93 170.61 128.2 172.32 128.33 172.54 131.26 170.69 129.75 168.21 129.54 168.34 129.54 168.34"/><polygon class="d" points="132.57 168.89 133.89 171.06 131.58 172.89 131.74 173.09 134.22 171.12 132.77 168.76 132.57 168.89 132.57 168.89"/><polygon class="d" points="135.31 169.48 136.63 171.66 134.33 173.49 134.48 173.69 136.96 171.72 135.51 169.35 135.31 169.48 135.31 169.48"/><polygon class="d" points="138.58 169.74 139.91 171.91 137.6 173.74 137.75 173.94 140.23 171.97 138.79 169.61 138.58 169.74 138.58 169.74"/></g><g><path class="c" d="M227.26,169.01h0s15.08,.77,10.96-16.09c-15.78,.25-10.96,16.09-10.96,16.09Z"/><path class="d" d="M227.76,167.72s1.97-2,4.27-4.88c2.3-2.89,4.93-6.66,6.26-10.24l-.23-.08c-1.31,3.53-3.93,7.3-6.23,10.17-1.15,1.44-2.21,2.66-2.99,3.51-.39,.43-.71,.77-.93,1-.22,.23-.34,.35-.34,.35l.18,.17h0Z"/><polygon class="d" points="228.68 163.76 231.27 163.58 231.53 166.71 231.78 166.69 231.49 163.32 228.66 163.52 228.68 163.76 228.68 163.76"/><polygon class="d" points="230.51 161.39 232.98 161.21 233.54 164.03 233.78 163.99 233.18 160.96 230.49 161.15 230.51 161.39 230.51 161.39"/><polygon class="d" points="232.25 159.28 234.73 159.11 235.28 161.92 235.52 161.88 234.93 158.85 232.23 159.04 232.25 159.28 232.25 159.28"/><polygon class="d" points="233.94 156.56 236.41 156.38 236.97 159.2 237.21 159.16 236.61 156.13 233.92 156.32 233.94 156.56 233.94 156.56"/></g><g><path class="c" d="M212.09,179.84h0s4.22-12.97-11.46-13.34c-3.49,13.82,11.45,13.34,11.45,13.34Z"/><path class="d" d="M211.08,179.09s-1.28-2.19-3.25-4.87c-1.98-2.69-4.65-5.87-7.45-7.87l-.13,.18c2.77,1.98,5.44,5.15,7.41,7.82,.98,1.34,1.8,2.55,2.36,3.43,.28,.44,.5,.8,.65,1.04,.15,.25,.23,.38,.23,.38l.19-.12h0Z"/><polygon class="d" points="207.85 177.36 208.3 175.06 211.09 175.57 211.13 175.35 208.13 174.81 207.64 177.32 207.85 177.36 207.85 177.36"/><polygon class="d" points="206.21 175.21 206.64 173.01 209.23 173.19 209.25 172.97 206.47 172.78 206 175.17 206.21 175.21 206.21 175.21"/><polygon class="d" points="204.78 173.19 205.21 170.99 207.8 171.17 207.82 170.95 205.04 170.76 204.57 173.16 204.78 173.19 204.78 173.19"/><polygon class="d" points="202.81 171.08 203.24 168.88 205.82 169.06 205.84 168.84 203.06 168.65 202.59 171.05 202.81 171.08 202.81 171.08"/></g><g><path class="c" d="M185.99,172.82h0s9.36,4.36,11.07-7.39c-10.06-3.88-11.07,7.39-11.07,7.39Z"/><path class="d" d="M186.65,172.13s1.76-.76,3.96-2c2.2-1.24,4.83-2.96,6.59-4.88l-.13-.11c-1.74,1.9-4.36,3.62-6.55,4.85-1.1,.62-2.08,1.12-2.79,1.46-.36,.17-.64,.31-.84,.4-.2,.09-.31,.14-.31,.14l.07,.15h0Z"/><polygon class="d" points="188.24 169.86 189.93 170.41 189.29 172.46 189.45 172.51 190.13 170.3 188.29 169.7 188.24 169.86 188.24 169.86"/><polygon class="d" points="190.01 168.82 191.62 169.35 191.25 171.28 191.41 171.31 191.81 169.24 190.05 168.67 190.01 168.82 190.01 168.82"/><polygon class="d" points="191.65 167.94 193.26 168.46 192.89 170.39 193.06 170.42 193.46 168.35 191.7 167.78 191.65 167.94 191.65 167.94"/><polygon class="d" points="193.42 166.64 195.03 167.17 194.66 169.09 194.82 169.13 195.22 167.06 193.46 166.49 193.42 166.64 193.42 166.64"/></g><g><path class="c" d="M237.9,179.79h0s-1.39-10.23-12.2-5.32c2.17,10.56,12.2,5.32,12.2,5.32Z"/><path class="d" d="M236.96,179.62s-1.59-1.07-3.82-2.25c-2.23-1.18-5.1-2.47-7.67-2.91l-.03,.17c2.54,.43,5.4,1.72,7.62,2.89,1.11,.59,2.06,1.15,2.74,1.56,.34,.21,.6,.38,.79,.5,.18,.12,.28,.18,.28,.18l.09-.14h0Z"/><polygon class="d" points="234.19 179.5 233.74 177.79 235.81 177.22 235.77 177.05 233.54 177.67 234.03 179.55 234.19 179.5 234.19 179.5"/><polygon class="d" points="232.37 178.58 231.93 176.94 233.76 176.21 233.7 176.05 231.74 176.83 232.21 178.62 232.37 178.58 232.37 178.58"/><polygon class="d" points="230.73 177.67 230.3 176.03 232.12 175.3 232.06 175.15 230.1 175.93 230.57 177.72 230.73 177.67 230.73 177.67"/><polygon class="d" points="228.69 176.89 228.26 175.24 230.08 174.52 230.02 174.36 228.06 175.14 228.53 176.93 228.69 176.89 228.69 176.89"/></g><g><path class="c" d="M295.81,182.05h0s7.59-11.98-8.11-16.38c-7.07,13.01,8.1,16.38,8.1,16.38Z"/><path class="c" d="M294.99,181.04s-.72-2.53-2.02-5.75c-1.3-3.21-3.17-7.11-5.48-9.84l-.17,.15c2.28,2.7,4.15,6.58,5.45,9.78,.65,1.6,1.15,3.03,1.49,4.06,.17,.52,.3,.93,.39,1.22,.09,.29,.13,.44,.13,.44l.22-.07h0Z"/><polygon class="c" points="292.18 178.47 293.22 176.27 295.9 177.5 296 177.29 293.12 175.97 291.97 178.38 292.18 178.47 292.18 178.47"/><polygon class="c" points="291.08 175.88 292.08 173.77 294.64 174.62 294.72 174.4 291.96 173.49 290.88 175.79 291.08 175.88 291.08 175.88"/><polygon class="c" points="290.16 173.48 291.16 171.38 293.72 172.22 293.8 172.01 291.05 171.1 289.96 173.39 290.16 173.48 290.16 173.48"/><polygon class="c" points="288.71 170.85 289.71 168.74 292.27 169.59 292.35 169.37 289.6 168.46 288.51 170.75 288.71 170.85 288.71 170.85"/></g><g><path class="c" d="M254.45,163.53h0s13.66,.91,10.15-14.43c-14.3,.01-10.15,14.43-10.15,14.43Z"/><path class="d" d="M254.92,162.36s1.81-1.78,3.94-4.37c2.12-2.59,4.56-5.97,5.82-9.19l-.21-.08c-1.24,3.18-3.67,6.56-5.78,9.14-1.06,1.29-2.04,2.38-2.76,3.14-.36,.38-.65,.69-.85,.89-.2,.21-.31,.32-.31,.32l.16,.15h0Z"/><polygon class="d" points="255.81 158.79 258.16 158.66 258.35 161.5 258.57 161.49 258.36 158.43 255.79 158.57 255.81 158.79 255.81 158.79"/><polygon class="d" points="257.5 156.66 259.74 156.54 260.21 159.1 260.43 159.06 259.93 156.31 257.48 156.45 257.5 156.66 257.5 156.66"/><polygon class="d" points="259.11 154.78 261.35 154.65 261.82 157.22 262.04 157.18 261.54 154.43 259.09 154.56 259.11 154.78 259.11 154.78"/><polygon class="d" points="260.67 152.33 262.92 152.21 263.38 154.77 263.6 154.73 263.1 151.98 260.66 152.12 260.67 152.33 260.67 152.33"/></g><g><path class="c" d="M270.98,160.44h0s12.98,1.98,10.87-12.97c-13.67-1.15-10.88,12.97-10.88,12.97Z"/><path class="d" d="M271.53,159.36s1.88-1.56,4.12-3.85c2.24-2.3,4.85-5.33,6.31-8.31l-.19-.09c-1.44,2.94-4.04,5.97-6.27,8.26-1.12,1.14-2.14,2.1-2.89,2.78-.37,.34-.68,.6-.89,.78-.21,.18-.33,.28-.33,.28l.14,.16h0Z"/><polygon class="d" points="272.66 156.02 274.92 156.09 274.87 158.82 275.09 158.83 275.13 155.89 272.67 155.81 272.66 156.02 272.66 156.02"/><polygon class="d" points="274.45 154.13 276.61 154.19 276.84 156.68 277.06 156.66 276.8 153.99 274.46 153.92 274.45 154.13 274.45 154.13"/><polygon class="d" points="276.14 152.46 278.3 152.52 278.53 155.01 278.75 154.99 278.49 152.32 276.15 152.25 276.14 152.46 276.14 152.46"/><polygon class="d" points="277.84 150.25 280 150.31 280.23 152.8 280.44 152.78 280.19 150.11 277.84 150.04 277.84 150.25 277.84 150.25"/></g><g><path class="c" d="M237.09,178.41h0s11.37,9,17.53-6.49c-12.48-8.59-17.53,6.49-17.53,6.49Z"/><path class="d" d="M238.21,177.68s2.65-.47,6.06-1.44c3.41-.98,7.57-2.47,10.6-4.52l-.13-.19c-2.99,2.03-7.14,3.52-10.54,4.49-1.7,.49-3.21,.85-4.29,1.08-.54,.12-.98,.21-1.28,.27-.3,.06-.46,.09-.46,.09l.05,.23h0Z"/><polygon class="d" points="241.12 175.1 243.25 176.4 241.71 178.99 241.91 179.12 243.57 176.32 241.24 174.9 241.12 175.1 241.12 175.1"/><polygon class="d" points="243.88 174.26 245.91 175.5 244.78 178.01 244.99 178.12 246.21 175.41 243.99 174.06 243.88 174.26 243.88 174.26"/><polygon class="d" points="246.41 173.58 248.45 174.82 247.31 177.34 247.53 177.44 248.74 174.74 246.53 173.38 246.41 173.58 246.41 173.58"/><polygon class="d" points="249.25 172.39 251.28 173.63 250.15 176.14 250.36 176.25 251.58 173.54 249.36 172.19 249.25 172.39 249.25 172.39"/></g><g><path class="c" d="M302.74,173.49h0s9.12-9.96-4.86-16.71c-8.81,11.02,4.85,16.71,4.85,16.71Z"/><path class="d" d="M302.14,172.41s-.25-2.5-.93-5.73c-.68-3.23-1.78-7.19-3.49-10.15l-.19,.11c1.69,2.92,2.79,6.87,3.47,10.08,.34,1.61,.57,3.04,.72,4.06,.07,.51,.13,.92,.16,1.21,.03,.28,.05,.44,.05,.44l.22-.03h0Z"/><polygon class="d" points="299.94 169.53 301.28 167.64 303.59 169.24 303.72 169.06 301.23 167.34 299.76 169.41 299.94 169.53 299.94 169.53"/><polygon class="d" points="299.34 166.92 300.63 165.11 302.89 166.33 303 166.14 300.57 164.83 299.17 166.79 299.34 166.92 299.34 166.92"/><polygon class="d" points="298.88 164.52 300.17 162.71 302.43 163.93 302.54 163.74 300.11 162.43 298.71 164.39 298.88 164.52 298.88 164.52"/><polygon class="d" points="297.96 161.8 299.25 160 301.51 161.22 301.62 161.03 299.19 159.72 297.79 161.68 297.96 161.8 297.96 161.8"/></g><g><path class="c" d="M285.98,151.99h0s13.82,.97,10.33-14.57c-14.47-.04-10.33,14.57-10.33,14.57Z"/><path class="d" d="M286.46,150.81s1.84-1.8,4-4.41c2.16-2.61,4.64-6.03,5.92-9.28l-.21-.08c-1.26,3.22-3.73,6.63-5.89,9.22-1.08,1.3-2.07,2.4-2.8,3.17-.36,.39-.66,.69-.87,.9-.21,.21-.32,.32-.32,.32l.16,.16h0Z"/><polygon class="d" points="287.37 147.2 289.75 147.08 289.94 149.95 290.16 149.94 289.96 146.85 287.36 146.98 287.37 147.2 287.37 147.2"/><polygon class="d" points="289.09 145.05 291.36 144.94 291.82 147.53 292.05 147.5 291.55 144.71 289.08 144.84 289.09 145.05 289.09 145.05"/><polygon class="d" points="290.73 143.15 293 143.04 293.46 145.63 293.68 145.59 293.19 142.81 290.71 142.93 290.73 143.15 290.73 143.15"/><polygon class="d" points="292.32 140.68 294.59 140.57 295.05 143.16 295.27 143.13 294.78 140.34 292.3 140.47 292.32 140.68 292.32 140.68"/></g><g><path class="c" d="M151.26,176.38h0s14.16,.53,10.06-15.24c-14.8,.44-10.07,15.24-10.07,15.24Z"/><path class="d" d="M151.72,175.16s1.82-1.9,3.94-4.64c2.12-2.74,4.54-6.32,5.74-9.69l-.22-.08c-1.18,3.33-3.59,6.9-5.71,9.63-1.06,1.36-2.04,2.52-2.76,3.33-.36,.41-.65,.73-.85,.95-.2,.22-.32,.34-.32,.34l.17,.15h0Z"/><polygon class="d" points="152.53 171.44 154.95 171.24 155.24 174.17 155.47 174.15 155.16 170.99 152.5 171.22 152.53 171.44 152.53 171.44"/><polygon class="d" points="154.21 169.19 156.53 168.99 157.09 171.63 157.31 171.59 156.71 168.75 154.19 168.97 154.21 169.19 154.21 169.19"/><polygon class="d" points="155.82 167.19 158.14 167 158.69 169.63 158.92 169.59 158.32 166.75 155.79 166.97 155.82 167.19 155.82 167.19"/><polygon class="d" points="157.36 164.62 159.68 164.42 160.24 167.05 160.47 167.01 159.87 164.18 157.34 164.39 157.36 164.62 157.36 164.62"/></g></g></svg>