<?xml version="1.0" encoding="UTF-8"?><svg xmlns="http://www.w3.org/2000/svg" viewBox="0 0 381.5 262"><defs><style>.c{fill:#afa57d;}.d{fill:#777159;}</style></defs><g id="a"><path class="c" d="M120.14,88.03h9.59v86.46h-9.59v-39.06h-18.63v39.06h-9.59V88.03h9.59v39.2h18.63v-39.2Z"/><path class="c" d="M155.31,88.03h14.18c7.32,0,10.98,3.66,10.98,10.98v64.5c0,7.32-3.66,10.98-10.98,10.98h-14.18c-7.32,0-10.98-3.66-10.98-10.98V99.01c0-7.32,3.66-10.98,10.98-10.98Zm15.71,73.95v-61.44c0-1.85-.28-3.03-.83-3.54-.56-.51-1.72-.76-3.47-.76h-8.62c-1.76,0-2.92,.26-3.47,.76-.56,.51-.83,1.69-.83,3.54v61.44c0,1.85,.28,3.04,.83,3.54,.56,.51,1.71,.76,3.47,.76h8.62c1.76,0,2.92-.25,3.47-.76,.56-.51,.83-1.69,.83-3.54Z"/><path class="c" d="M203.26,174.49h-8.2V88.03h10.43l14.87,55.6,15.01-55.6h10.42v86.46h-8.2V109.02l-12.09,46.7h-10.15l-12.09-46.7v65.47Z"/><path class="c" d="M270.67,166.29h23.77v8.2h-33.36V88.03h32.39v8.2h-22.8v29.19h18.63v8.2h-18.63v32.67Z"/></g><g id="b"><g><path class="c" d="M130.84,174.12h0s-.88-14.8-16.69-8.9c1.94,15.36,16.69,8.9,16.69,8.9Z"/><path class="d" d="M129.54,173.77s-2.14-1.7-5.17-3.63c-3.03-1.92-6.95-4.07-10.54-4.97l-.06,.23c3.55,.89,7.46,3.03,10.48,4.95,1.51,.96,2.8,1.86,3.71,2.53,.45,.33,.82,.6,1.06,.79,.25,.19,.38,.29,.38,.29l.14-.19h0Z"/><polygon class="d" points="125.63 173.32 125.18 170.81 128.17 170.21 128.12 169.97 124.91 170.62 125.41 173.36 125.63 173.32 125.63 173.32"/><polygon class="d" points="123.15 171.8 122.71 169.4 125.37 168.55 125.3 168.32 122.45 169.23 122.92 171.84 123.15 171.8 123.15 171.8"/><polygon class="d" points="120.93 170.33 120.5 167.93 123.15 167.08 123.08 166.85 120.23 167.77 120.7 170.38 120.93 170.33 120.93 170.33"/><polygon class="d" points="118.13 168.99 117.69 166.59 120.34 165.74 120.28 165.51 117.42 166.42 117.9 169.03 118.13 168.99 118.13 168.99"/></g><g><path class="c" d="M96.3,177.32h0s-1.02-15.18-17.4-9.04c2.13,15.75,17.39,9.04,17.39,9.04Z"/><path class="d" d="M94.95,176.97s-2.23-1.73-5.39-3.69c-3.16-1.96-7.25-4.14-10.98-5.05l-.06,.24c3.69,.89,7.77,3.07,10.91,5.02,1.57,.98,2.92,1.9,3.87,2.57,.47,.34,.85,.61,1.11,.81,.26,.19,.4,.3,.4,.3l.15-.2h0Z"/><polygon class="d" points="90.88 176.52 90.39 173.96 93.49 173.32 93.44 173.08 90.11 173.76 90.64 176.57 90.88 176.52 90.88 176.52"/><polygon class="d" points="88.29 174.97 87.82 172.52 90.57 171.63 90.5 171.39 87.54 172.35 88.05 175.02 88.29 174.97 88.29 174.97"/><polygon class="d" points="85.98 173.48 85.51 171.03 88.26 170.14 88.19 169.9 85.23 170.86 85.74 173.53 85.98 173.48 85.98 173.48"/><polygon class="d" points="83.05 172.12 82.58 169.66 85.34 168.77 85.26 168.54 82.31 169.49 82.82 172.17 83.05 172.12 83.05 172.12"/></g><g><path class="c" d="M160.91,178.44h0s13.13,4.65,14.37-11.99c-14.05-3.88-14.37,11.99-14.37,11.99Z"/><path class="d" d="M161.73,177.38s2.33-1.33,5.2-3.39c2.88-2.06,6.3-4.86,8.52-7.82l-.18-.14c-2.19,2.92-5.6,5.71-8.47,7.77-1.43,1.03-2.73,1.87-3.67,2.46-.47,.29-.85,.52-1.11,.68-.26,.16-.41,.24-.41,.24l.11,.2h0Z"/><polygon class="d" points="163.69 173.97 166.03 174.48 165.36 177.43 165.58 177.48 166.31 174.3 163.74 173.74 163.69 173.97 163.69 173.97"/><polygon class="d" points="166 172.26 168.24 172.74 167.91 175.49 168.14 175.51 168.49 172.56 166.05 172.03 166 172.26 166 172.26"/><polygon class="d" points="168.15 170.77 170.4 171.25 170.07 174 170.3 174.02 170.65 171.07 168.2 170.54 168.15 170.77 168.15 170.77"/><polygon class="d" points="170.44 168.69 172.68 169.18 172.35 171.92 172.58 171.95 172.93 169 170.49 168.47 170.44 168.69 170.44 168.69"/></g><g><path class="c" d="M98.01,176.75h0s13.73,3.75,13.33-12.6c-14.57-2.95-13.33,12.6-13.33,12.6Z"/><path class="d" d="M98.74,175.66s2.22-1.44,4.92-3.63c2.7-2.19,5.89-5.14,7.83-8.16l-.2-.12c-1.92,2.99-5.09,5.92-7.78,8.11-1.35,1.09-2.57,2-3.46,2.63-.44,.32-.8,.56-1.05,.73-.25,.17-.39,.26-.39,.26l.13,.19h0Z"/><polygon class="d" points="100.38 172.2 102.8 172.56 102.41 175.49 102.64 175.53 103.06 172.37 100.41 171.98 100.38 172.2 100.38 172.2"/><polygon class="d" points="102.54 170.39 104.86 170.73 104.8 173.43 105.03 173.44 105.09 170.53 102.57 170.16 102.54 170.39 102.54 170.39"/><polygon class="d" points="104.57 168.8 106.89 169.14 106.83 171.84 107.06 171.85 107.12 168.94 104.6 168.57 104.57 168.8 104.57 168.8"/><polygon class="d" points="106.67 166.63 108.99 166.97 108.93 169.68 109.16 169.68 109.22 166.78 106.7 166.41 106.67 166.63 106.67 166.63"/></g><g><path class="c" d="M201.88,175.75h0s7.77,11.06,18.22-1.44c-8.93-10.96-18.22,1.44-18.22,1.44Z"/><path class="d" d="M203.13,175.37s2.6,.25,6.06,.23c3.46-.02,7.77-.32,11.2-1.42l-.06-.21c-3.4,1.09-7.69,1.38-11.13,1.41-1.72,.01-3.23-.05-4.31-.1-.54-.03-.97-.06-1.27-.08-.3-.02-.46-.04-.46-.04l-.03,.22h0Z"/><polygon class="d" points="206.63 173.77 208.2 175.48 205.98 177.45 206.13 177.61 208.52 175.49 206.8 173.62 206.63 173.77 206.63 173.77"/><polygon class="d" points="209.43 173.7 210.94 175.35 209.12 177.34 209.28 177.48 211.24 175.34 209.6 173.55 209.43 173.7 209.43 173.7"/><polygon class="d" points="211.99 173.73 213.49 175.37 211.67 177.37 211.84 177.51 213.8 175.37 212.16 173.58 211.99 173.73 211.99 173.73"/><polygon class="d" points="214.98 173.37 216.48 175.01 214.66 177 214.83 177.15 216.79 175.01 215.15 173.22 214.98 173.37 214.98 173.37"/></g><g><path class="c" d="M250.1,182.33h0s10.39-9.26-3.62-18.44c-10.16,10.43,3.62,18.44,3.62,18.44Z"/><path class="d" d="M249.56,181.09s-.05-2.69-.48-6.21c-.43-3.53-1.24-7.89-2.76-11.27l-.21,.09c1.51,3.34,2.32,7.69,2.74,11.2,.21,1.76,.33,3.31,.4,4.41,.03,.55,.05,1,.06,1.3,.01,.31,.01,.47,.01,.47h.23Z"/><polygon class="d" points="247.51 177.71 249.08 175.91 251.35 177.94 251.5 177.77 249.06 175.58 247.34 177.56 247.51 177.71 247.51 177.71"/><polygon class="d" points="247.11 174.86 248.62 173.12 250.87 174.75 251 174.56 248.58 172.82 246.94 174.7 247.11 174.86 247.11 174.86"/><polygon class="d" points="246.84 172.24 248.35 170.51 250.6 172.13 250.73 171.94 248.31 170.2 246.67 172.09 246.84 172.24 246.84 172.24"/><polygon class="d" points="246.12 169.23 247.63 167.5 249.88 169.12 250.01 168.93 247.59 167.19 245.95 169.08 246.12 169.23 246.12 169.23"/></g><g><path class="c" d="M181.97,179h0s9.95-9-3.25-17c-9.75,10.08,3.24,17,3.24,17Z"/><path class="d" d="M181.47,177.87s-.02-2.49-.39-5.75c-.37-3.26-1.09-7.29-2.51-10.37l-.2,.09c1.4,3.04,2.12,7.06,2.49,10.31,.19,1.62,.28,3.06,.33,4.09,.03,.51,.04,.93,.05,1.21,0,.28,0,.44,0,.44h.22Z"/><polygon class="d" points="179.56 174.81 181.07 173.07 183.2 174.87 183.35 174.7 181.05 172.77 179.4 174.67 179.56 174.81 179.56 174.81"/><polygon class="d" points="179.21 172.17 180.66 170.5 182.78 171.92 182.9 171.74 180.62 170.22 179.05 172.03 179.21 172.17 179.21 172.17"/><polygon class="d" points="178.98 169.75 180.43 168.08 182.55 169.5 182.67 169.32 180.39 167.8 178.82 169.61 178.98 169.75 178.98 169.75"/><polygon class="d" points="178.33 166.98 179.77 165.31 181.89 166.73 182.02 166.55 179.74 165.03 178.17 166.84 178.33 166.98 178.33 166.98"/></g><g><path class="c" d="M124.09,169.51h0s6.4,14.11,19.83,2.41c-7.66-14.26-19.83-2.41-19.83-2.41Z"/><path class="d" d="M125.5,169.36s2.75,.86,6.46,1.59c3.72,.74,8.4,1.36,12.28,.89l-.03-.25c-3.84,.47-8.5-.15-12.21-.88-1.85-.37-3.46-.76-4.61-1.07-.57-.15-1.03-.28-1.35-.37-.31-.09-.48-.14-.48-.14l-.07,.24h0Z"/><polygon class="d" points="129.54 168.34 130.93 170.61 128.2 172.32 128.33 172.54 131.26 170.69 129.75 168.21 129.54 168.34 129.54 168.34"/><polygon class="d" points="132.57 168.89 133.89 171.06 131.58 172.89 131.74 173.09 134.22 171.12 132.77 168.76 132.57 168.89 132.57 168.89"/><polygon class="d" points="135.31 169.48 136.63 171.66 134.33 173.49 134.48 173.69 136.96 171.72 135.51 169.35 135.31 169.48 135.31 169.48"/><polygon class="d" points="138.58 169.74 139.91 171.91 137.6 173.74 137.75 173.94 140.23 171.97 138.79 169.61 138.58 169.74 138.58 169.74"/></g><g><path class="c" d="M228.29,180.54h0s15.08,.77,10.96-16.09c-15.78,.25-10.96,16.09-10.96,16.09Z"/><path class="d" d="M228.8,179.24s1.97-2,4.27-4.88c2.3-2.89,4.93-6.66,6.26-10.24l-.23-.08c-1.31,3.53-3.93,7.3-6.23,10.17-1.15,1.44-2.21,2.66-2.99,3.51-.39,.43-.71,.77-.93,1-.22,.23-.34,.35-.34,.35l.18,.17h0Z"/><polygon class="d" points="229.71 175.29 232.3 175.11 232.56 178.24 232.81 178.22 232.52 174.85 229.69 175.05 229.71 175.29 229.71 175.29"/><polygon class="d" points="231.54 172.91 234.02 172.74 234.57 175.56 234.81 175.51 234.22 172.49 231.52 172.68 231.54 172.91 231.54 172.91"/><polygon class="d" points="233.28 170.81 235.76 170.63 236.31 173.45 236.56 173.41 235.96 170.38 233.26 170.57 233.28 170.81 233.28 170.81"/><polygon class="d" points="234.97 168.08 237.45 167.91 238 170.73 238.24 170.68 237.65 167.66 234.95 167.85 234.97 168.08 234.97 168.08"/></g><g><path class="c" d="M212.09,179.84h0s4.22-12.97-11.46-13.34c-3.49,13.82,11.45,13.34,11.45,13.34Z"/><path class="d" d="M211.08,179.09s-1.28-2.19-3.25-4.87c-1.98-2.69-4.65-5.87-7.45-7.87l-.13,.18c2.77,1.98,5.44,5.15,7.41,7.82,.98,1.34,1.8,2.55,2.36,3.43,.28,.44,.5,.8,.65,1.04,.15,.25,.23,.38,.23,.38l.19-.12h0Z"/><polygon class="d" points="207.85 177.36 208.3 175.06 211.09 175.57 211.13 175.35 208.13 174.81 207.64 177.32 207.85 177.36 207.85 177.36"/><polygon class="d" points="206.21 175.21 206.64 173.01 209.23 173.19 209.25 172.97 206.47 172.78 206 175.17 206.21 175.21 206.21 175.21"/><polygon class="d" points="204.78 173.19 205.21 170.99 207.8 171.17 207.82 170.95 205.04 170.76 204.57 173.16 204.78 173.19 204.78 173.19"/><polygon class="d" points="202.81 171.08 203.24 168.88 205.82 169.06 205.84 168.84 203.06 168.65 202.59 171.05 202.81 171.08 202.81 171.08"/></g><g><path class="c" d="M185.31,178.06h0s9.36,4.36,11.07-7.39c-10.06-3.88-11.07,7.39-11.07,7.39Z"/><path class="d" d="M185.96,177.38s1.76-.76,3.96-2c2.2-1.24,4.83-2.96,6.59-4.88l-.13-.11c-1.74,1.9-4.36,3.62-6.55,4.85-1.1,.62-2.08,1.12-2.79,1.46-.36,.17-.64,.31-.84,.4-.2,.09-.31,.14-.31,.14l.07,.15h0Z"/><polygon class="d" points="187.55 175.1 189.24 175.65 188.6 177.7 188.76 177.76 189.45 175.55 187.6 174.95 187.55 175.1 187.55 175.1"/><polygon class="d" points="189.32 174.07 190.93 174.59 190.56 176.52 190.73 176.56 191.13 174.48 189.37 173.91 189.32 174.07 189.32 174.07"/><polygon class="d" points="190.96 173.18 192.58 173.71 192.21 175.63 192.37 175.67 192.77 173.6 191.01 173.02 190.96 173.18 190.96 173.18"/><polygon class="d" points="192.73 171.89 194.34 172.41 193.97 174.34 194.14 174.37 194.54 172.3 192.78 171.73 192.73 171.89 192.73 171.89"/></g><g><path class="c" d="M237.9,179.79h0s-1.39-10.23-12.2-5.32c2.17,10.56,12.2,5.32,12.2,5.32Z"/><path class="d" d="M236.96,179.62s-1.59-1.07-3.82-2.25c-2.23-1.18-5.1-2.47-7.67-2.91l-.03,.17c2.54,.43,5.4,1.72,7.62,2.89,1.11,.59,2.06,1.15,2.74,1.56,.34,.21,.6,.38,.79,.5,.18,.12,.28,.18,.28,.18l.09-.14h0Z"/><polygon class="d" points="234.19 179.5 233.74 177.79 235.81 177.22 235.77 177.05 233.54 177.67 234.03 179.55 234.19 179.5 234.19 179.5"/><polygon class="d" points="232.37 178.58 231.93 176.94 233.76 176.21 233.7 176.05 231.74 176.83 232.21 178.62 232.37 178.58 232.37 178.58"/><polygon class="d" points="230.73 177.67 230.3 176.03 232.12 175.3 232.06 175.15 230.1 175.93 230.57 177.72 230.73 177.67 230.73 177.67"/><polygon class="d" points="228.69 176.89 228.26 175.24 230.08 174.52 230.02 174.36 228.06 175.14 228.53 176.93 228.69 176.89 228.69 176.89"/></g><g><path class="c" d="M295.81,182.05h0s7.59-11.98-8.11-16.38c-7.07,13.01,8.1,16.38,8.1,16.38Z"/><path class="c" d="M294.99,181.04s-.72-2.53-2.02-5.75c-1.3-3.21-3.17-7.11-5.48-9.84l-.17,.15c2.28,2.7,4.15,6.58,5.45,9.78,.65,1.6,1.15,3.03,1.49,4.06,.17,.52,.3,.93,.39,1.22,.09,.29,.13,.44,.13,.44l.22-.07h0Z"/><polygon class="c" points="292.18 178.47 293.22 176.27 295.9 177.5 296 177.29 293.12 175.97 291.97 178.38 292.18 178.47 292.18 178.47"/><polygon class="c" points="291.08 175.88 292.08 173.77 294.64 174.62 294.72 174.4 291.96 173.49 290.88 175.79 291.08 175.88 291.08 175.88"/><polygon class="c" points="290.16 173.48 291.16 171.38 293.72 172.22 293.8 172.01 291.05 171.1 289.96 173.39 290.16 173.48 290.16 173.48"/><polygon class="c" points="288.71 170.85 289.71 168.74 292.27 169.59 292.35 169.37 289.6 168.46 288.51 170.75 288.71 170.85 288.71 170.85"/></g><g><path class="c" d="M253.49,178.79h0s13.66,.91,10.15-14.43c-14.3,.01-10.15,14.43-10.15,14.43Z"/><path class="d" d="M253.97,177.63s1.81-1.78,3.94-4.37c2.12-2.59,4.56-5.97,5.82-9.19l-.21-.08c-1.24,3.18-3.67,6.56-5.78,9.14-1.06,1.29-2.04,2.38-2.76,3.14-.36,.38-.65,.69-.85,.89-.2,.21-.31,.32-.31,.32l.16,.15h0Z"/><polygon class="d" points="254.85 174.05 257.2 173.92 257.39 176.77 257.62 176.75 257.41 173.69 254.84 173.84 254.85 174.05 254.85 174.05"/><polygon class="d" points="256.54 171.93 258.79 171.8 259.25 174.36 259.47 174.33 258.97 171.58 256.53 171.71 256.54 171.93 256.54 171.93"/><polygon class="d" points="258.15 170.04 260.4 169.92 260.86 172.48 261.08 172.44 260.58 169.69 258.13 169.83 258.15 170.04 258.15 170.04"/><polygon class="d" points="259.71 167.6 261.96 167.47 262.42 170.03 262.64 170 262.15 167.25 259.7 167.38 259.71 167.6 259.71 167.6"/></g><g><path class="c" d="M265.95,175.4h0s12.98,1.98,10.87-12.97c-13.67-1.15-10.88,12.97-10.88,12.97Z"/><path class="d" d="M266.5,174.32s1.88-1.56,4.12-3.85c2.24-2.3,4.85-5.33,6.31-8.31l-.19-.09c-1.44,2.94-4.04,5.97-6.27,8.26-1.12,1.14-2.14,2.1-2.89,2.78-.37,.34-.68,.6-.89,.78-.21,.18-.33,.28-.33,.28l.14,.16h0Z"/><polygon class="d" points="267.64 170.98 269.89 171.05 269.85 173.78 270.06 173.79 270.11 170.85 267.64 170.77 267.64 170.98 267.64 170.98"/><polygon class="d" points="269.43 169.09 271.58 169.15 271.82 171.64 272.03 171.62 271.78 168.95 269.43 168.88 269.43 169.09 269.43 169.09"/><polygon class="d" points="271.12 167.42 273.27 167.48 273.51 169.97 273.72 169.95 273.47 167.28 271.12 167.21 271.12 167.42 271.12 167.42"/><polygon class="d" points="272.81 165.21 274.97 165.27 275.2 167.76 275.42 167.74 275.16 165.07 272.82 165 272.81 165.21 272.81 165.21"/></g><g><path class="c" d="M237.09,178.41h0s11.37,9,17.53-6.49c-12.48-8.59-17.53,6.49-17.53,6.49Z"/><path class="d" d="M238.21,177.68s2.65-.47,6.06-1.44c3.41-.98,7.57-2.47,10.6-4.52l-.13-.19c-2.99,2.03-7.14,3.52-10.54,4.49-1.7,.49-3.21,.85-4.29,1.08-.54,.12-.98,.21-1.28,.27-.3,.06-.46,.09-.46,.09l.05,.23h0Z"/><polygon class="d" points="241.12 175.1 243.25 176.4 241.71 178.99 241.91 179.12 243.57 176.32 241.24 174.9 241.12 175.1 241.12 175.1"/><polygon class="d" points="243.88 174.26 245.91 175.5 244.78 178.01 244.99 178.12 246.21 175.41 243.99 174.06 243.88 174.26 243.88 174.26"/><polygon class="d" points="246.41 173.58 248.45 174.82 247.31 177.34 247.53 177.44 248.74 174.74 246.53 173.38 246.41 173.58 246.41 173.58"/><polygon class="d" points="249.25 172.39 251.28 173.63 250.15 176.14 250.36 176.25 251.58 173.54 249.36 172.19 249.25 172.39 249.25 172.39"/></g><g><path class="c" d="M300.23,179.04h0s9.12-9.96-4.86-16.71c-8.81,11.02,4.85,16.71,4.85,16.71Z"/><path class="d" d="M299.63,177.96s-.25-2.5-.93-5.73c-.68-3.23-1.78-7.19-3.49-10.15l-.19,.11c1.69,2.92,2.79,6.87,3.47,10.08,.34,1.61,.57,3.04,.72,4.06,.07,.51,.13,.92,.16,1.21,.03,.28,.05,.44,.05,.44l.22-.03h0Z"/><polygon class="d" points="297.43 175.08 298.77 173.19 301.08 174.79 301.21 174.61 298.72 172.89 297.25 174.96 297.43 175.08 297.43 175.08"/><polygon class="d" points="296.83 172.47 298.12 170.66 300.38 171.88 300.49 171.69 298.06 170.38 296.65 172.34 296.83 172.47 296.83 172.47"/><polygon class="d" points="296.37 170.07 297.66 168.26 299.92 169.48 300.03 169.29 297.6 167.98 296.2 169.94 296.37 170.07 296.37 170.07"/><polygon class="d" points="295.45 167.35 296.74 165.55 299 166.77 299.11 166.58 296.68 165.27 295.28 167.23 295.45 167.35 295.45 167.35"/></g><g><path class="c" d="M274.4,177.28h0s13.82,.97,10.33-14.57c-14.47-.04-10.33,14.57-10.33,14.57Z"/><path class="d" d="M274.89,176.1s1.84-1.8,4-4.41c2.16-2.61,4.64-6.03,5.92-9.28l-.21-.08c-1.26,3.22-3.73,6.63-5.89,9.22-1.08,1.3-2.07,2.4-2.8,3.17-.36,.39-.66,.69-.87,.9-.21,.21-.32,.32-.32,.32l.16,.16h0Z"/><polygon class="d" points="275.8 172.49 278.17 172.37 278.36 175.24 278.59 175.23 278.38 172.14 275.78 172.27 275.8 172.49 275.8 172.49"/><polygon class="d" points="277.52 170.34 279.79 170.23 280.25 172.82 280.47 172.79 279.98 170 277.5 170.13 277.52 170.34 277.52 170.34"/><polygon class="d" points="279.15 168.44 281.42 168.33 281.88 170.92 282.11 170.88 281.61 168.1 279.14 168.22 279.15 168.44 279.15 168.44"/><polygon class="d" points="280.74 165.97 283.02 165.86 283.48 168.45 283.7 168.42 283.21 165.63 280.73 165.76 280.74 165.97 280.74 165.97"/></g><g><path class="c" d="M146.03,170.65h0s3.92,13.62,17.62,4.81c-5.04-13.92-17.62-4.81-17.62-4.81Z"/><path class="d" d="M147.33,170.71s2.37,1.14,5.64,2.3c3.26,1.16,7.42,2.34,10.99,2.43v-.23c-3.53-.09-7.67-1.26-10.92-2.42-1.63-.58-3.03-1.15-4.03-1.58-.5-.21-.9-.39-1.17-.52-.27-.12-.42-.19-.42-.19l-.09,.21h0Z"/><polygon class="d" points="151.12 170.31 152.07 172.55 149.38 173.74 149.47 173.95 152.37 172.67 151.33 170.22 151.12 170.31 151.12 170.31"/><polygon class="d" points="153.79 171.21 154.7 173.35 152.37 174.71 152.48 174.91 154.98 173.45 153.99 171.12 153.79 171.21 153.79 171.21"/><polygon class="d" points="156.19 172.11 157.1 174.26 154.77 175.61 154.88 175.81 157.38 174.36 156.39 172.02 156.19 172.11 156.19 172.11"/><polygon class="d" points="159.12 172.78 160.03 174.92 157.7 176.27 157.81 176.47 160.31 175.02 159.32 172.69 159.12 172.78 159.12 172.78"/></g></g></svg>