<?xml version="1.0" encoding="UTF-8"?><svg xmlns="http://www.w3.org/2000/svg" viewBox="0 0 381.5 262"><defs><style>.c{fill:#afa57d;}.d{fill:#777159;}</style></defs><g id="a"><path class="c" d="M120.14,88.03h9.59v86.46h-9.59v-39.06h-18.63v39.06h-9.59V88.03h9.59v39.2h18.63v-39.2Z"/><path class="c" d="M155.31,88.03h14.18c7.32,0,10.98,3.66,10.98,10.98v64.5c0,7.32-3.66,10.98-10.98,10.98h-14.18c-7.32,0-10.98-3.66-10.98-10.98V99.01c0-7.32,3.66-10.98,10.98-10.98Zm15.71,73.95v-61.44c0-1.85-.28-3.03-.83-3.54-.56-.51-1.72-.76-3.47-.76h-8.62c-1.76,0-2.92,.26-3.47,.76-.56,.51-.83,1.69-.83,3.54v61.44c0,1.85,.28,3.04,.83,3.54,.56,.51,1.71,.76,3.47,.76h8.62c1.76,0,2.92-.25,3.47-.76,.56-.51,.83-1.69,.83-3.54Z"/><path class="c" d="M203.26,174.49h-8.2V88.03h10.43l14.87,55.6,15.01-55.6h10.42v86.46h-8.2V109.02l-12.09,46.7h-10.15l-12.09-46.7v65.47Z"/><path class="c" d="M270.67,166.29h23.77v8.2h-33.36V88.03h32.39v8.2h-22.8v29.19h18.63v8.2h-18.63v32.67Z"/></g><g id="b"><g><path class="c" d="M127.56,127.65h0s14.76,1.43,11.39-15.1c-15.48-.47-11.39,15.1-11.39,15.1Z"/><path class="d" d="M128.11,126.42s2.01-1.85,4.39-4.54c2.37-2.69,5.11-6.23,6.56-9.64l-.22-.09c-1.43,3.36-4.15,6.89-6.52,9.58-1.18,1.34-2.28,2.47-3.07,3.27-.4,.4-.72,.71-.95,.93-.22,.21-.35,.33-.35,.33l.17,.17h0Z"/><polygon class="d" points="129.17 122.63 131.71 122.57 131.85 125.62 132.09 125.61 131.94 122.33 129.16 122.4 129.17 122.63 129.17 122.63"/><polygon class="d" points="131.06 120.41 133.49 120.36 133.92 123.11 134.16 123.08 133.7 120.12 131.05 120.18 131.06 120.41 131.06 120.41"/><polygon class="d" points="132.85 118.45 135.29 118.39 135.72 121.15 135.95 121.12 135.49 118.16 132.84 118.22 132.85 118.45 132.85 118.45"/><polygon class="d" points="134.61 115.89 137.05 115.83 137.48 118.59 137.72 118.56 137.26 115.59 134.6 115.66 134.61 115.89 134.61 115.89"/></g><g><path class="c" d="M83.44,135.51h0s12.99-7.9,0-19.6c-12.99,9.14-.01,19.6-.01,19.6Z"/><path class="d" d="M83.13,134.15s.51-2.78,.79-6.49c.28-3.71,.33-8.34-.58-12.07l-.24,.06c.91,3.68,.86,8.3,.58,12-.14,1.85-.34,3.46-.5,4.62-.08,.58-.15,1.04-.21,1.36-.05,.32-.08,.49-.08,.49l.24,.04h0Z"/><polygon class="d" points="81.66 130.34 83.71 128.72 85.7 131.18 85.89 131.02 83.75 128.38 81.5 130.15 81.66 130.34 81.66 130.34"/><polygon class="d" points="81.83 127.32 83.8 125.78 85.85 127.81 86.03 127.64 83.82 125.45 81.68 127.14 81.83 127.32 81.83 127.32"/><polygon class="d" points="82.09 124.58 84.06 123.04 86.11 125.07 86.29 124.9 84.08 122.71 81.94 124.4 82.09 124.58 82.09 124.58"/><polygon class="d" points="81.95 121.36 83.92 119.81 85.97 121.85 86.15 121.67 83.94 119.49 81.8 121.17 81.95 121.36 81.95 121.36"/></g><g><path class="c" d="M156.91,125.29h0s13.13,4.65,14.37-11.99c-14.05-3.88-14.37,11.99-14.37,11.99Z"/><path class="d" d="M157.73,124.23s2.33-1.33,5.2-3.39c2.88-2.06,6.3-4.86,8.52-7.82l-.18-.14c-2.19,2.92-5.6,5.71-8.47,7.77-1.43,1.03-2.73,1.87-3.67,2.46-.47,.29-.85,.52-1.11,.68-.26,.16-.41,.24-.41,.24l.11,.2h0Z"/><polygon class="d" points="159.69 120.82 162.03 121.33 161.36 124.28 161.58 124.33 162.3 121.15 159.74 120.59 159.69 120.82 159.69 120.82"/><polygon class="d" points="162 119.11 164.24 119.59 163.91 122.33 164.14 122.36 164.49 119.41 162.05 118.88 162 119.11 162 119.11"/><polygon class="d" points="164.15 117.62 166.39 118.1 166.07 120.85 166.29 120.87 166.64 117.92 164.2 117.39 164.15 117.62 164.15 117.62"/><polygon class="d" points="166.43 115.54 168.68 116.03 168.35 118.77 168.58 118.8 168.93 115.85 166.48 115.32 166.43 115.54 166.43 115.54"/></g><g><path class="c" d="M100.21,170.06h0s13.73,3.75,13.33-12.6c-14.57-2.95-13.33,12.6-13.33,12.6Z"/><path class="d" d="M100.93,168.97s2.22-1.44,4.92-3.63c2.7-2.19,5.89-5.14,7.83-8.16l-.2-.12c-1.92,2.99-5.09,5.92-7.78,8.11-1.35,1.09-2.57,2-3.46,2.63-.44,.32-.8,.56-1.05,.73-.25,.17-.39,.26-.39,.26l.13,.19h0Z"/><polygon class="d" points="102.58 165.51 104.99 165.87 104.61 168.8 104.83 168.84 105.25 165.68 102.61 165.29 102.58 165.51 102.58 165.51"/><polygon class="d" points="104.74 163.7 107.05 164.04 106.99 166.74 107.22 166.75 107.29 163.84 104.77 163.47 104.74 163.7 104.74 163.7"/><polygon class="d" points="106.77 162.11 109.08 162.45 109.02 165.15 109.25 165.16 109.32 162.25 106.8 161.88 106.77 162.11 106.77 162.11"/><polygon class="d" points="108.87 159.94 111.18 160.28 111.12 162.99 111.35 162.99 111.42 160.09 108.9 159.72 108.87 159.94 108.87 159.94"/></g><g><path class="c" d="M187.07,135.58h0s13.5,.47,9.84-15.41c-14.13,.51-9.84,15.41-9.84,15.41Z"/><path class="d" d="M187.52,134.35s1.77-1.92,3.83-4.69c2.07-2.77,4.43-6.39,5.63-9.79l-.21-.07c-1.18,3.36-3.54,6.97-5.59,9.73-1.03,1.38-1.98,2.55-2.68,3.37-.35,.41-.63,.74-.83,.96-.2,.22-.31,.34-.31,.34l.16,.15h0Z"/><polygon class="d" points="188.35 130.59 190.67 130.37 190.9 133.33 191.12 133.31 190.87 130.13 188.33 130.36 188.35 130.59 188.35 130.59"/><polygon class="d" points="189.99 128.31 192.21 128.11 192.7 130.76 192.92 130.72 192.39 127.86 189.98 128.09 189.99 128.31 189.99 128.31"/><polygon class="d" points="191.56 126.29 193.78 126.08 194.27 128.74 194.48 128.69 193.95 125.84 191.54 126.07 191.56 126.29 191.56 126.29"/><polygon class="d" points="193.07 123.69 195.29 123.48 195.78 126.13 196 126.09 195.47 123.24 193.05 123.46 193.07 123.69 193.07 123.69"/></g><g><path class="c" d="M248.7,132.6h0s10.39-9.26-3.62-18.44c-10.16,10.43,3.62,18.44,3.62,18.44Z"/><path class="d" d="M248.16,131.36s-.05-2.69-.48-6.21c-.43-3.53-1.24-7.89-2.76-11.27l-.21,.09c1.51,3.34,2.32,7.69,2.74,11.2,.21,1.76,.33,3.31,.4,4.41,.03,.55,.05,1,.06,1.3,.01,.31,.01,.47,.01,.47h.23Z"/><polygon class="d" points="246.11 127.98 247.68 126.17 249.96 128.2 250.1 128.03 247.66 125.85 245.94 127.83 246.11 127.98 246.11 127.98"/><polygon class="d" points="245.72 125.13 247.22 123.39 249.47 125.01 249.6 124.83 247.18 123.08 245.54 124.97 245.72 125.13 245.72 125.13"/><polygon class="d" points="245.45 122.51 246.95 120.78 249.2 122.4 249.33 122.21 246.91 120.47 245.27 122.36 245.45 122.51 245.45 122.51"/><polygon class="d" points="244.72 119.5 246.23 117.77 248.48 119.39 248.61 119.2 246.19 117.46 244.55 119.34 244.72 119.5 244.72 119.5"/></g><g><path class="c" d="M186.04,134.08h0s9.95-9-3.25-17c-9.75,10.08,3.24,17,3.24,17Z"/><path class="d" d="M185.55,132.95s-.02-2.49-.39-5.75c-.37-3.26-1.09-7.29-2.51-10.37l-.2,.09c1.4,3.04,2.12,7.06,2.49,10.31,.19,1.62,.28,3.06,.33,4.09,.03,.51,.04,.93,.05,1.21,0,.28,0,.44,0,.44h.22Z"/><polygon class="d" points="183.63 129.89 185.14 128.15 187.28 129.95 187.42 129.78 185.12 127.85 183.47 129.75 183.63 129.89 183.63 129.89"/><polygon class="d" points="183.29 127.25 184.73 125.58 186.85 127 186.98 126.82 184.7 125.3 183.13 127.11 183.29 127.25 183.29 127.25"/><polygon class="d" points="183.06 124.83 184.5 123.16 186.62 124.58 186.75 124.4 184.47 122.88 182.89 124.69 183.06 124.83 183.06 124.83"/><polygon class="d" points="182.4 122.06 183.85 120.39 185.97 121.81 186.09 121.63 183.81 120.11 182.24 121.92 182.4 122.06 182.4 122.06"/></g><g><path class="c" d="M129.57,159.88h0s15.48,.71,11.15-16.57c-16.18,.35-11.15,16.57-11.15,16.57Z"/><path class="d" d="M130.08,158.55s2.01-2.06,4.36-5.04c2.34-2.98,5.02-6.86,6.37-10.54l-.24-.08c-1.33,3.63-3.99,7.51-6.33,10.47-1.17,1.48-2.25,2.74-3.05,3.62-.4,.44-.72,.79-.94,1.03-.22,.24-.35,.37-.35,.37l.18,.17h0Z"/><polygon class="d" points="131 154.49 133.65 154.29 133.94 157.5 134.19 157.48 133.88 154.02 130.98 154.24 131 154.49 131 154.49"/><polygon class="d" points="132.86 152.04 135.4 151.85 135.99 154.74 136.23 154.69 135.6 151.59 132.84 151.8 132.86 152.04 132.86 152.04"/><polygon class="d" points="134.64 149.87 137.18 149.68 137.76 152.57 138.01 152.52 137.38 149.42 134.62 149.63 134.64 149.87 134.64 149.87"/><polygon class="d" points="136.35 147.07 138.89 146.88 139.48 149.76 139.72 149.72 139.09 146.61 136.33 146.82 136.35 147.07 136.35 147.07"/></g><g><path class="c" d="M212.6,134.38h0s15.08,.77,10.96-16.09c-15.78,.25-10.96,16.09-10.96,16.09Z"/><path class="d" d="M213.1,133.09s1.97-2,4.27-4.88c2.3-2.89,4.93-6.66,6.26-10.24l-.23-.08c-1.31,3.53-3.93,7.3-6.23,10.17-1.15,1.44-2.21,2.66-2.99,3.51-.39,.43-.71,.77-.93,1-.22,.23-.34,.35-.34,.35l.18,.17h0Z"/><polygon class="d" points="214.02 129.13 216.61 128.95 216.87 132.08 217.12 132.06 216.83 128.69 214 128.89 214.02 129.13 214.02 129.13"/><polygon class="d" points="215.85 126.76 218.33 126.58 218.88 129.4 219.12 129.36 218.53 126.33 215.83 126.52 215.85 126.76 215.85 126.76"/><polygon class="d" points="217.59 124.65 220.07 124.48 220.62 127.3 220.86 127.25 220.27 124.22 217.57 124.41 217.59 124.65 217.59 124.65"/><polygon class="d" points="219.28 121.93 221.76 121.76 222.31 124.57 222.55 124.53 221.96 121.5 219.26 121.69 219.28 121.93 219.28 121.93"/></g><g><path class="c" d="M215.22,157.73h0s4.22-12.97-11.46-13.34c-3.49,13.82,11.45,13.34,11.45,13.34Z"/><path class="d" d="M214.22,156.99s-1.28-2.19-3.25-4.87c-1.98-2.69-4.65-5.87-7.45-7.87l-.13,.18c2.77,1.98,5.44,5.15,7.41,7.82,.98,1.34,1.8,2.55,2.36,3.43,.28,.44,.5,.8,.65,1.04,.15,.25,.23,.38,.23,.38l.19-.12h0Z"/><polygon class="d" points="210.98 155.26 211.43 152.96 214.23 153.47 214.27 153.25 211.26 152.7 210.77 155.22 210.98 155.26 210.98 155.26"/><polygon class="d" points="209.34 153.11 209.77 150.91 212.36 151.09 212.38 150.87 209.6 150.67 209.13 153.07 209.34 153.11 209.34 153.11"/><polygon class="d" points="207.92 151.09 208.35 148.89 210.93 149.07 210.95 148.85 208.17 148.66 207.7 151.05 207.92 151.09 207.92 151.09"/><polygon class="d" points="205.94 148.98 206.37 146.78 208.96 146.96 208.98 146.74 206.2 146.55 205.73 148.94 205.94 148.98 205.94 148.98"/></g><g><path class="c" d="M182.16,156.18h0s9.36,4.36,11.07-7.39c-10.06-3.88-11.07,7.39-11.07,7.39Z"/><path class="d" d="M182.81,155.5s1.76-.76,3.96-2c2.2-1.24,4.83-2.96,6.59-4.88l-.13-.11c-1.74,1.9-4.36,3.62-6.55,4.85-1.1,.62-2.08,1.12-2.79,1.46-.36,.17-.64,.31-.84,.4-.2,.09-.31,.14-.31,.14l.07,.15h0Z"/><polygon class="d" points="184.41 153.22 186.09 153.77 185.46 155.82 185.62 155.87 186.3 153.67 184.45 153.07 184.41 153.22 184.41 153.22"/><polygon class="d" points="186.17 152.19 187.79 152.71 187.42 154.64 187.58 154.67 187.98 152.6 186.22 152.03 186.17 152.19 186.17 152.19"/><polygon class="d" points="187.82 151.3 189.43 151.82 189.06 153.75 189.22 153.79 189.62 151.71 187.87 151.14 187.82 151.3 187.82 151.3"/><polygon class="d" points="189.58 150.01 191.2 150.53 190.83 152.46 190.99 152.49 191.39 150.42 189.63 149.85 189.58 150.01 189.58 150.01"/></g><g><path class="c" d="M236.03,169.42h0s-1.39-10.23-12.2-5.32c2.17,10.56,12.2,5.32,12.2,5.32Z"/><path class="d" d="M235.09,169.25s-1.59-1.07-3.82-2.25c-2.23-1.18-5.1-2.47-7.67-2.91l-.03,.17c2.54,.43,5.4,1.72,7.62,2.89,1.11,.59,2.06,1.15,2.74,1.56,.34,.21,.6,.38,.79,.5,.18,.12,.28,.18,.28,.18l.09-.14h0Z"/><polygon class="d" points="232.32 169.13 231.87 167.42 233.94 166.85 233.9 166.68 231.67 167.3 232.16 169.18 232.32 169.13 232.32 169.13"/><polygon class="d" points="230.5 168.21 230.06 166.57 231.89 165.84 231.83 165.68 229.87 166.46 230.34 168.25 230.5 168.21 230.5 168.21"/><polygon class="d" points="228.86 167.3 228.43 165.66 230.25 164.93 230.19 164.78 228.23 165.56 228.7 167.35 228.86 167.3 228.86 167.3"/><polygon class="d" points="226.82 166.52 226.39 164.88 228.21 164.15 228.15 163.99 226.19 164.77 226.66 166.56 226.82 166.52 226.82 166.52"/></g><g><path class="c" d="M291.45,171.07h0s7.59-11.98-8.11-16.38c-7.07,13.01,8.1,16.38,8.1,16.38Z"/><path class="c" d="M290.63,170.06s-.72-2.53-2.02-5.75c-1.3-3.21-3.17-7.11-5.48-9.84l-.17,.15c2.28,2.7,4.15,6.58,5.45,9.78,.65,1.6,1.15,3.03,1.49,4.06,.17,.52,.3,.93,.39,1.22,.09,.29,.13,.44,.13,.44l.22-.07h0Z"/><polygon class="c" points="287.82 167.49 288.86 165.29 291.55 166.52 291.64 166.31 288.76 164.99 287.61 167.39 287.82 167.49 287.82 167.49"/><polygon class="c" points="286.72 164.9 287.72 162.79 290.28 163.64 290.36 163.42 287.61 162.51 286.52 164.81 286.72 164.9 286.72 164.9"/><polygon class="c" points="285.8 162.5 286.8 160.4 289.36 161.24 289.44 161.03 286.69 160.12 285.6 162.41 285.8 162.5 285.8 162.5"/><polygon class="c" points="284.35 159.87 285.35 157.76 287.91 158.61 287.99 158.39 285.24 157.48 284.15 159.77 284.35 159.87 284.35 159.87"/></g><g><path class="c" d="M250.82,135.77h0s13.66,.91,10.15-14.43c-14.3,.01-10.15,14.43-10.15,14.43Z"/><path class="d" d="M251.29,134.61s1.81-1.78,3.94-4.37c2.12-2.59,4.56-5.97,5.82-9.19l-.21-.08c-1.24,3.18-3.67,6.56-5.78,9.14-1.06,1.29-2.04,2.38-2.76,3.14-.36,.38-.65,.69-.85,.89-.2,.21-.31,.32-.31,.32l.16,.15h0Z"/><polygon class="d" points="252.18 131.04 254.53 130.91 254.72 133.75 254.94 133.74 254.73 130.68 252.16 130.82 252.18 131.04 252.18 131.04"/><polygon class="d" points="253.87 128.91 256.12 128.79 256.58 131.35 256.8 131.31 256.3 128.56 253.85 128.7 253.87 128.91 253.87 128.91"/><polygon class="d" points="255.48 127.03 257.72 126.9 258.19 129.46 258.41 129.43 257.91 126.68 255.46 126.81 255.48 127.03 255.48 127.03"/><polygon class="d" points="257.04 124.58 259.29 124.46 259.75 127.02 259.97 126.98 259.47 124.23 257.03 124.37 257.04 124.58 257.04 124.58"/></g><g><path class="c" d="M285.83,139.31h0s2.13-12.96-12.84-11.03c-1.31,13.65,12.84,11.03,12.84,11.03Z"/><path class="d" d="M284.76,138.75s-1.53-1.9-3.81-4.16c-2.27-2.27-5.28-4.91-8.24-6.4l-.09,.19c2.92,1.48,5.92,4.11,8.18,6.37,1.13,1.13,2.08,2.17,2.74,2.92,.33,.38,.59,.68,.77,.9,.18,.21,.27,.33,.27,.33l.16-.14h0Z"/><polygon class="d" points="281.43 137.57 281.53 135.32 284.26 135.4 284.27 135.18 281.33 135.1 281.23 137.57 281.43 137.57 281.43 137.57"/><polygon class="d" points="279.56 135.77 279.65 133.61 282.14 133.4 282.13 133.19 279.45 133.41 279.35 135.76 279.56 135.77 279.56 135.77"/><polygon class="d" points="277.91 134.06 278 131.9 280.49 131.69 280.47 131.48 277.8 131.7 277.7 134.05 277.91 134.06 277.91 134.06"/><polygon class="d" points="275.72 132.33 275.81 130.18 278.3 129.97 278.29 129.76 275.61 129.98 275.51 132.33 275.72 132.33 275.72 132.33"/></g><g><path class="c" d="M253.97,161.35h0s13.53-5.21,3.33-18.39c-13.74,6.38-3.34,18.39-3.34,18.39Z"/><path class="d" d="M253.91,160.02s.95-2.52,1.84-5.95c.89-3.43,1.73-7.77,1.5-11.43l-.24,.02c.23,3.61-.6,7.94-1.49,11.36-.44,1.71-.9,3.19-1.25,4.25-.17,.53-.32,.95-.42,1.24-.1,.29-.16,.44-.16,.44l.22,.08h0Z"/><polygon class="d" points="253.17 156.19 255.37 155.02 256.82 157.67 257.03 157.56 255.47 154.71 253.06 155.99 253.17 156.19 253.17 156.19"/><polygon class="d" points="253.85 153.4 255.96 152.28 257.54 154.53 257.74 154.4 256.03 151.98 253.74 153.2 253.85 153.4 253.85 153.4"/><polygon class="d" points="254.56 150.87 256.66 149.75 258.25 152.01 258.44 151.87 256.74 149.45 254.45 150.67 254.56 150.87 254.56 150.87"/><polygon class="d" points="254.97 147.82 257.08 146.7 258.66 148.96 258.86 148.83 257.16 146.4 254.86 147.62 254.97 147.82 254.97 147.82"/></g><g><path class="c" d="M311.21,138.73h0s3.58-13.02-11.93-12.67c-2.83,13.82,11.93,12.67,11.93,12.67Z"/><path class="d" d="M310.18,138.04s-1.36-2.11-3.44-4.67c-2.08-2.57-4.86-5.59-7.73-7.44l-.12,.19c2.83,1.83,5.61,4.84,7.68,7.4,1.03,1.28,1.89,2.44,2.49,3.29,.3,.42,.53,.76,.69,1,.16,.24,.24,.37,.24,.37l.18-.12h0Z"/><polygon class="d" points="306.9 136.48 307.24 134.19 310.03 134.56 310.06 134.34 307.06 133.94 306.69 136.45 306.9 136.48 306.9 136.48"/><polygon class="d" points="305.19 134.43 305.51 132.23 308.08 132.29 308.09 132.07 305.33 132.01 304.97 134.4 305.19 134.43 305.19 134.43"/><polygon class="d" points="303.68 132.5 304.01 130.3 306.57 130.36 306.58 130.14 303.83 130.08 303.47 132.47 303.68 132.5 303.68 132.5"/><polygon class="d" points="301.63 130.5 301.96 128.31 304.52 128.37 304.53 128.15 301.77 128.08 301.42 130.47 301.63 130.5 301.63 130.5"/></g><g><path class="c" d="M282.71,124.48h0s13.82,.97,10.33-14.57c-14.47-.04-10.33,14.57-10.33,14.57Z"/><path class="d" d="M283.2,123.31s1.84-1.8,4-4.41c2.16-2.61,4.64-6.03,5.92-9.28l-.21-.08c-1.26,3.22-3.73,6.63-5.89,9.22-1.08,1.3-2.07,2.4-2.8,3.17-.36,.39-.66,.69-.87,.9-.21,.21-.32,.32-.32,.32l.16,.16h0Z"/><polygon class="d" points="284.11 119.69 286.49 119.57 286.67 122.45 286.9 122.44 286.7 119.34 284.1 119.48 284.11 119.69 284.11 119.69"/><polygon class="d" points="285.83 117.55 288.1 117.43 288.56 120.03 288.78 119.99 288.29 117.2 285.81 117.33 285.83 117.55 285.83 117.55"/><polygon class="d" points="287.46 115.65 289.74 115.53 290.2 118.12 290.42 118.09 289.93 115.3 287.45 115.43 287.46 115.65 287.46 115.65"/><polygon class="d" points="289.06 113.18 291.33 113.06 291.79 115.66 292.01 115.62 291.52 112.83 289.04 112.96 289.06 113.18 289.06 113.18"/></g><g><path class="c" d="M152.57,155.78h0s14.16,.53,10.06-15.24c-14.8,.44-10.07,15.24-10.07,15.24Z"/><path class="d" d="M153.03,154.56s1.82-1.9,3.94-4.64c2.12-2.74,4.54-6.32,5.74-9.69l-.22-.08c-1.18,3.33-3.59,6.9-5.71,9.63-1.06,1.36-2.04,2.52-2.76,3.33-.36,.41-.65,.73-.85,.95-.2,.22-.32,.34-.32,.34l.17,.15h0Z"/><polygon class="d" points="153.84 150.84 156.26 150.63 156.55 153.57 156.78 153.55 156.47 150.39 153.82 150.61 153.84 150.84 153.84 150.84"/><polygon class="d" points="155.52 148.59 157.84 148.39 158.4 151.03 158.63 150.98 158.03 148.15 155.5 148.36 155.52 148.59 155.52 148.59"/><polygon class="d" points="157.13 146.59 159.45 146.39 160.01 149.03 160.23 148.98 159.63 146.15 157.11 146.36 157.13 146.59 157.13 146.59"/><polygon class="d" points="158.67 144.01 161 143.81 161.55 146.45 161.78 146.41 161.18 143.57 158.65 143.79 158.67 144.01 158.67 144.01"/></g></g></svg>