<?xml version="1.0" encoding="UTF-8"?><svg xmlns="http://www.w3.org/2000/svg" viewBox="0 0 381.5 262"><defs><style>.c{fill:#afa57d;}.d{fill:#777159;}</style></defs><g id="a"><path class="c" d="M120.14,88.03h9.59v86.46h-9.59v-39.06h-18.63v39.06h-9.59V88.03h9.59v39.2h18.63v-39.2Z"/><path class="c" d="M155.31,88.03h14.18c7.32,0,10.98,3.66,10.98,10.98v64.5c0,7.32-3.66,10.98-10.98,10.98h-14.18c-7.32,0-10.98-3.66-10.98-10.98V99.01c0-7.32,3.66-10.98,10.98-10.98Zm15.71,73.95v-61.44c0-1.85-.28-3.03-.83-3.54-.56-.51-1.72-.76-3.47-.76h-8.62c-1.76,0-2.92,.26-3.47,.76-.56,.51-.83,1.69-.83,3.54v61.44c0,1.85,.28,3.04,.83,3.54,.56,.51,1.71,.76,3.47,.76h8.62c1.76,0,2.92-.25,3.47-.76,.56-.51,.83-1.69,.83-3.54Z"/><path class="c" d="M203.26,174.49h-8.2V88.03h10.43l14.87,55.6,15.01-55.6h10.42v86.46h-8.2V109.02l-12.09,46.7h-10.15l-12.09-46.7v65.47Z"/><path class="c" d="M270.67,166.29h23.77v8.2h-33.36V88.03h32.39v8.2h-22.8v29.19h18.63v8.2h-18.63v32.67Z"/></g><g id="b"><g><path class="c" d="M137.36,106.34h0s3-14.52-13.8-12.94c-2.12,15.34,13.79,12.94,13.79,12.94Z"/><path class="d" d="M136.2,105.66s-1.62-2.2-4.05-4.85c-2.43-2.65-5.65-5.74-8.88-7.55l-.11,.21c3.19,1.78,6.41,4.86,8.83,7.5,1.21,1.32,2.22,2.53,2.92,3.4,.35,.44,.63,.79,.82,1.04,.19,.25,.29,.38,.29,.38l.19-.15h0Z"/><polygon class="d" points="132.54 104.2 132.75 101.67 135.79 101.86 135.81 101.62 132.54 101.41 132.31 104.19 132.54 104.2 132.54 104.2"/><polygon class="d" points="130.54 102.09 130.74 99.66 133.52 99.53 133.52 99.29 130.53 99.43 130.3 102.07 130.54 102.09 130.54 102.09"/><polygon class="d" points="128.78 100.1 128.98 97.67 131.76 97.54 131.76 97.3 128.77 97.44 128.54 100.08 128.78 100.1 128.78 100.1"/><polygon class="d" points="126.42 98.07 126.62 95.64 129.41 95.51 129.4 95.27 126.41 95.41 126.18 98.05 126.42 98.07 126.42 98.07"/></g><g><path class="c" d="M80.84,109.17h0s15.2,.45,10.68-16.44c-15.88,.59-10.68,16.44-10.68,16.44Z"/><path class="d" d="M81.32,107.86s1.94-2.05,4.2-5.01c2.25-2.96,4.82-6.82,6.08-10.44l-.23-.08c-1.24,3.59-3.8,7.43-6.05,10.38-1.12,1.47-2.17,2.72-2.93,3.6-.38,.44-.69,.79-.91,1.03-.22,.24-.34,.36-.34,.36l.18,.16h0Z"/><polygon class="d" points="82.15 103.85 84.76 103.61 85.09 106.76 85.34 106.74 84.98 103.35 82.13 103.61 82.15 103.85 82.15 103.85"/><polygon class="d" points="83.94 101.43 86.43 101.2 87.05 104.02 87.29 103.97 86.63 100.94 83.92 101.19 83.94 101.43 83.94 101.43"/><polygon class="d" points="85.65 99.27 88.14 99.04 88.76 101.86 89 101.81 88.34 98.78 85.63 99.03 85.65 99.27 85.65 99.27"/><polygon class="d" points="87.29 96.49 89.78 96.26 90.4 99.08 90.64 99.04 89.98 96 87.27 96.25 87.29 96.49 87.29 96.49"/></g><g><path class="c" d="M157.97,114.63h0s12.35-6.45,1.01-18.69c-12.41,7.64-1.01,18.69-1.01,18.69Z"/><path class="d" d="M157.76,113.3s.61-2.61,1.06-6.12c.45-3.51,.73-7.93,.08-11.56l-.22,.04c.65,3.59,.36,7.99-.08,11.49-.22,1.75-.49,3.27-.69,4.36-.1,.54-.19,.98-.26,1.28-.06,.3-.1,.46-.1,.46l.22,.06h0Z"/><polygon class="d" points="156.6 109.55 158.56 108.17 160.27 110.68 160.46 110.55 158.62 107.85 156.47 109.35 156.6 109.55 156.6 109.55"/><polygon class="d" points="156.91 106.69 158.8 105.38 160.58 107.48 160.75 107.33 158.83 105.07 156.78 106.5 156.91 106.69 156.91 106.69"/><polygon class="d" points="157.29 104.1 159.17 102.78 160.96 104.89 161.13 104.74 159.21 102.48 157.16 103.91 157.29 104.1 157.29 104.1"/><polygon class="d" points="157.33 101.01 159.21 99.7 161 101.81 161.17 101.66 159.25 99.39 157.2 100.82 157.33 101.01 157.33 101.01"/></g><g><path class="c" d="M100.73,156.11h0s14.12-1.73,7.56-16.72c-14.6,2.79-7.56,16.72-7.56,16.72Z"/><path class="d" d="M100.98,154.82s1.51-2.17,3.17-5.23c1.67-3.05,3.5-6.99,4.15-10.52l-.23-.04c-.64,3.49-2.47,7.41-4.13,10.45-.83,1.52-1.62,2.82-2.2,3.75-.29,.46-.53,.83-.7,1.08-.17,.25-.26,.38-.26,.38l.19,.13h0Z"/><polygon class="d" points="101.19 151 103.56 150.42 104.32 153.28 104.54 153.22 103.73 150.14 101.14 150.79 101.19 151 101.19 151"/><polygon class="d" points="102.51 148.5 104.78 147.94 105.75 150.47 105.96 150.39 104.92 147.67 102.45 148.29 102.51 148.5 102.51 148.5"/><polygon class="d" points="103.78 146.27 106.05 145.7 107.02 148.23 107.24 148.15 106.2 145.43 103.72 146.05 103.78 146.27 103.78 146.27"/><polygon class="d" points="104.9 143.46 107.17 142.9 108.15 145.43 108.36 145.35 107.32 142.63 104.85 143.25 104.9 143.46 104.9 143.46"/></g><g><path class="c" d="M191.29,116.14h0s13.5,.47,9.84-15.41c-14.13,.51-9.84,15.41-9.84,15.41Z"/><path class="d" d="M191.74,114.91s1.77-1.92,3.83-4.69c2.07-2.77,4.43-6.39,5.63-9.79l-.21-.07c-1.18,3.36-3.54,6.97-5.59,9.73-1.03,1.38-1.98,2.55-2.68,3.37-.35,.41-.63,.74-.83,.96-.2,.22-.31,.34-.31,.34l.16,.15h0Z"/><polygon class="d" points="192.57 111.16 194.88 110.94 195.12 113.9 195.34 113.87 195.09 110.69 192.55 110.93 192.57 111.16 192.57 111.16"/><polygon class="d" points="194.21 108.88 196.43 108.67 196.92 111.33 197.13 111.28 196.61 108.43 194.19 108.65 194.21 108.88 194.21 108.88"/><polygon class="d" points="195.77 106.86 197.99 106.65 198.48 109.3 198.7 109.26 198.17 106.41 195.76 106.63 195.77 106.86 195.77 106.86"/><polygon class="d" points="197.29 104.25 199.51 104.05 200 106.7 200.21 106.66 199.69 103.8 197.27 104.03 197.29 104.25 197.29 104.25"/></g><g><path class="c" d="M248.52,111.11h0s10.39-9.26-3.62-18.44c-10.16,10.43,3.62,18.44,3.62,18.44Z"/><path class="d" d="M247.98,109.87s-.05-2.69-.48-6.21c-.43-3.53-1.24-7.89-2.76-11.27l-.21,.09c1.51,3.34,2.32,7.69,2.74,11.2,.21,1.76,.33,3.31,.4,4.41,.03,.55,.05,1,.06,1.3,.01,.31,.01,.47,.01,.47h.23Z"/><polygon class="d" points="245.93 106.5 247.5 104.69 249.77 106.72 249.92 106.55 247.48 104.36 245.76 106.34 245.93 106.5 245.93 106.5"/><polygon class="d" points="245.54 103.64 247.04 101.91 249.29 103.53 249.42 103.34 247 101.6 245.36 103.48 245.54 103.64 245.54 103.64"/><polygon class="d" points="245.26 101.02 246.77 99.29 249.02 100.91 249.15 100.73 246.73 98.98 245.09 100.87 245.26 101.02 245.26 101.02"/><polygon class="d" points="244.54 98.01 246.05 96.28 248.3 97.9 248.43 97.71 246.01 95.97 244.37 97.86 244.54 98.01 244.54 98.01"/></g><g><path class="c" d="M187.02,114.98h0s5.92-12.05-9.31-14.59c-5.32,12.97,9.3,14.59,9.3,14.59Z"/><path class="d" d="M186.14,114.11s-.94-2.31-2.49-5.2c-1.55-2.89-3.71-6.37-6.17-8.7l-.15,.16c2.43,2.31,4.58,5.77,6.13,8.65,.77,1.44,1.39,2.74,1.82,3.67,.21,.47,.38,.85,.49,1.11,.11,.26,.17,.4,.17,.4l.2-.09h0Z"/><polygon class="d" points="183.23 111.98 183.99 109.8 186.64 110.68 186.71 110.47 183.86 109.53 183.03 111.91 183.23 111.98 183.23 111.98"/><polygon class="d" points="181.93 109.65 182.66 107.57 185.15 108.1 185.2 107.89 182.52 107.31 181.73 109.58 181.93 109.65 181.93 109.65"/><polygon class="d" points="180.82 107.49 181.55 105.4 184.04 105.94 184.09 105.73 181.41 105.15 180.62 107.42 180.82 107.49 180.82 107.49"/><polygon class="d" points="179.19 105.16 179.92 103.07 182.41 103.61 182.46 103.4 179.78 102.82 178.99 105.09 179.19 105.16 179.19 105.16"/></g><g><path class="c" d="M135.34,138.99h0s8.45-12.99-8.64-18.01c-7.9,14.13,8.64,18.01,8.64,18.01Z"/><path class="d" d="M134.45,137.88s-.76-2.78-2.13-6.31c-1.38-3.53-3.37-7.81-5.86-10.83l-.19,.16c2.46,2.98,4.45,7.25,5.82,10.76,.69,1.76,1.22,3.33,1.58,4.46,.18,.57,.32,1.02,.41,1.34,.09,.31,.14,.49,.14,.49l.24-.07h0Z"/><polygon class="d" points="131.42 135.03 132.59 132.64 135.5 134.02 135.61 133.79 132.47 132.31 131.19 134.92 131.42 135.03 131.42 135.03"/><polygon class="d" points="130.25 132.18 131.37 129.9 134.16 130.86 134.24 130.62 131.25 129.59 130.03 132.08 130.25 132.18 130.25 132.18"/><polygon class="d" points="129.28 129.55 130.4 127.27 133.19 128.22 133.27 127.99 130.28 126.96 129.06 129.45 129.28 129.55 129.28 129.55"/><polygon class="d" points="127.73 126.65 128.85 124.37 131.64 125.33 131.72 125.09 128.73 124.06 127.51 126.55 127.73 126.65 127.73 126.65"/></g><g><path class="c" d="M222.61,114.88h0s15.08,.77,10.96-16.09c-15.78,.25-10.96,16.09-10.96,16.09Z"/><path class="d" d="M223.11,113.59s1.97-2,4.27-4.88c2.3-2.89,4.93-6.66,6.26-10.24l-.23-.08c-1.31,3.53-3.93,7.3-6.23,10.17-1.15,1.44-2.21,2.66-2.99,3.51-.39,.43-.71,.77-.93,1-.22,.23-.34,.35-.34,.35l.18,.17h0Z"/><polygon class="d" points="224.03 109.63 226.62 109.45 226.88 112.58 227.12 112.57 226.84 109.2 224.01 109.39 224.03 109.63 224.03 109.63"/><polygon class="d" points="225.86 107.26 228.33 107.09 228.89 109.9 229.13 109.86 228.53 106.83 225.84 107.02 225.86 107.26 225.86 107.26"/><polygon class="d" points="227.6 105.15 230.08 104.98 230.63 107.8 230.87 107.75 230.28 104.73 227.58 104.91 227.6 105.15 227.6 105.15"/><polygon class="d" points="229.29 102.43 231.76 102.26 232.32 105.07 232.56 105.03 231.96 102 229.27 102.19 229.29 102.43 229.29 102.43"/></g><g><path class="c" d="M222.67,133.29h0s3.38-13.21-12.28-12.58c-2.6,14.01,12.28,12.58,12.28,12.58Z"/><path class="d" d="M221.61,132.62s-1.42-2.1-3.56-4.66c-2.14-2.55-5.01-5.56-7.94-7.38l-.12,.19c2.89,1.79,5.76,4.79,7.89,7.33,1.07,1.27,1.95,2.43,2.57,3.27,.31,.42,.55,.76,.72,1,.17,.24,.25,.37,.25,.37l.18-.13h0Z"/><polygon class="d" points="218.28 131.1 218.58 128.77 221.4 129.1 221.43 128.88 218.39 128.53 218.06 131.07 218.28 131.1 218.28 131.1"/><polygon class="d" points="216.5 129.05 216.79 126.83 219.39 126.84 219.39 126.62 216.6 126.61 216.29 129.03 216.5 129.05 216.5 129.05"/><polygon class="d" points="214.95 127.13 215.24 124.91 217.83 124.92 217.84 124.7 215.05 124.69 214.74 127.11 214.95 127.13 214.95 127.13"/><polygon class="d" points="212.84 125.15 213.13 122.93 215.73 122.94 215.73 122.72 212.94 122.71 212.63 125.13 212.84 125.15 212.84 125.15"/></g><g><path class="c" d="M185.15,135.6h0s9.36,4.36,11.07-7.39c-10.06-3.88-11.07,7.39-11.07,7.39Z"/><path class="d" d="M185.8,134.92s1.76-.76,3.96-2c2.2-1.24,4.83-2.96,6.59-4.88l-.13-.11c-1.74,1.9-4.36,3.62-6.55,4.85-1.1,.62-2.08,1.12-2.79,1.46-.36,.17-.64,.31-.84,.4-.2,.09-.31,.14-.31,.14l.07,.15h0Z"/><polygon class="d" points="187.39 132.64 189.08 133.19 188.45 135.24 188.6 135.3 189.29 133.09 187.44 132.49 187.39 132.64 187.39 132.64"/><polygon class="d" points="189.16 131.61 190.77 132.13 190.4 134.06 190.57 134.1 190.97 132.02 189.21 131.45 189.16 131.61 189.16 131.61"/><polygon class="d" points="190.81 130.72 192.42 131.25 192.05 133.17 192.21 133.21 192.61 131.14 190.85 130.56 190.81 130.72 190.81 130.72"/><polygon class="d" points="192.57 129.43 194.19 129.95 193.81 131.88 193.98 131.91 194.38 129.84 192.62 129.27 192.57 129.43 192.57 129.43"/></g><g><path class="c" d="M235.91,160.17h0s-1.39-10.23-12.2-5.32c2.17,10.56,12.2,5.32,12.2,5.32Z"/><path class="d" d="M234.98,159.99s-1.59-1.07-3.82-2.25c-2.23-1.18-5.1-2.47-7.67-2.91l-.03,.17c2.54,.43,5.4,1.72,7.62,2.89,1.11,.59,2.06,1.15,2.74,1.56,.34,.21,.6,.38,.79,.5,.18,.12,.28,.18,.28,.18l.09-.14h0Z"/><polygon class="d" points="232.21 159.88 231.76 158.16 233.83 157.59 233.79 157.43 231.56 158.04 232.05 159.92 232.21 159.88 232.21 159.88"/><polygon class="d" points="230.38 158.95 229.95 157.31 231.78 156.58 231.72 156.42 229.76 157.21 230.23 158.99 230.38 158.95 230.38 158.95"/><polygon class="d" points="228.75 158.05 228.32 156.41 230.14 155.68 230.08 155.52 228.12 156.3 228.59 158.09 228.75 158.05 228.75 158.05"/><polygon class="d" points="226.71 157.26 226.28 155.62 228.1 154.89 228.04 154.73 226.08 155.52 226.55 157.3 226.71 157.26 226.71 157.26"/></g><g><path class="c" d="M296.14,144.98h0s7.59-11.98-8.11-16.38c-7.07,13.01,8.1,16.38,8.1,16.38Z"/><path class="c" d="M295.31,143.97s-.72-2.53-2.02-5.75c-1.3-3.21-3.17-7.11-5.48-9.84l-.17,.15c2.28,2.7,4.15,6.58,5.45,9.78,.65,1.6,1.15,3.03,1.49,4.06,.17,.52,.3,.93,.39,1.22,.09,.29,.13,.44,.13,.44l.22-.07h0Z"/><polygon class="c" points="292.5 141.39 293.55 139.19 296.23 140.42 296.33 140.21 293.44 138.89 292.3 141.3 292.5 141.39 292.5 141.39"/><polygon class="c" points="291.41 138.8 292.41 136.7 294.96 137.54 295.04 137.33 292.29 136.42 291.2 138.71 291.41 138.8 291.41 138.8"/><polygon class="c" points="290.49 136.41 291.49 134.3 294.05 135.15 294.12 134.93 291.37 134.02 290.28 136.31 290.49 136.41 290.49 136.41"/><polygon class="c" points="289.04 133.77 290.04 131.67 292.6 132.51 292.67 132.3 289.92 131.39 288.83 133.68 289.04 133.77 289.04 133.77"/></g><g><path class="c" d="M253.47,110.74h0s13.66,.91,10.15-14.43c-14.3,.01-10.15,14.43-10.15,14.43Z"/><path class="d" d="M253.95,109.58s1.81-1.78,3.94-4.37c2.12-2.59,4.56-5.97,5.82-9.19l-.21-.08c-1.24,3.18-3.67,6.56-5.78,9.14-1.06,1.29-2.04,2.38-2.76,3.14-.36,.38-.65,.69-.85,.89-.2,.21-.31,.32-.31,.32l.16,.15h0Z"/><polygon class="d" points="254.84 106 257.18 105.87 257.38 108.72 257.6 108.7 257.39 105.65 254.82 105.79 254.84 106 254.84 106"/><polygon class="d" points="256.52 103.88 258.77 103.75 259.24 106.31 259.45 106.28 258.96 103.53 256.51 103.66 256.52 103.88 256.52 103.88"/><polygon class="d" points="258.13 101.99 260.38 101.87 260.84 104.43 261.06 104.39 260.56 101.64 258.12 101.78 258.13 101.99 258.13 101.99"/><polygon class="d" points="259.7 99.55 261.95 99.42 262.41 101.99 262.63 101.95 262.13 99.2 259.68 99.33 259.7 99.55 259.7 99.55"/></g><g><path class="c" d="M279.14,117.58h0s9.16-9.41-4.22-16.39c-8.89,10.45,4.22,16.39,4.22,16.39Z"/><path class="d" d="M278.59,116.51s-.17-2.43-.74-5.59c-.57-3.16-1.52-7.05-3.09-9.97l-.19,.1c1.55,2.88,2.51,6.76,3.07,9.9,.28,1.57,.47,2.97,.58,3.97,.06,.5,.1,.9,.12,1.18,.02,.28,.04,.43,.04,.43l.21-.02h0Z"/><polygon class="d" points="276.53 113.64 277.9 111.85 280.09 113.47 280.22 113.3 277.86 111.56 276.36 113.52 276.53 113.64 276.53 113.64"/><polygon class="d" points="276.03 111.09 277.34 109.37 279.5 110.63 279.61 110.44 277.29 109.09 275.86 110.96 276.03 111.09 276.03 111.09"/><polygon class="d" points="275.66 108.74 276.96 107.02 279.12 108.28 279.23 108.1 276.91 106.75 275.49 108.62 275.66 108.74 275.66 108.74"/><polygon class="d" points="274.85 106.08 276.15 104.36 278.31 105.61 278.42 105.43 276.1 104.08 274.68 105.95 274.85 106.08 274.85 106.08"/></g><g><path class="c" d="M247.65,135.44h0s13.43,5.48,15.03-11.12c-14.38-4.77-15.03,11.12-15.03,11.12Z"/><path class="d" d="M248.52,134.43s2.42-1.19,5.42-3.07c3-1.89,6.58-4.48,8.92-7.3l-.18-.15c-2.31,2.79-5.88,5.37-8.87,7.25-1.49,.94-2.85,1.71-3.82,2.24-.49,.27-.88,.47-1.16,.61-.27,.14-.42,.21-.42,.21l.11,.21h0Z"/><polygon class="d" points="250.6 131.13 253.01 131.79 252.26 134.71 252.48 134.77 253.29 131.63 250.66 130.91 250.6 131.13 250.6 131.13"/><polygon class="d" points="253.01 129.56 255.31 130.19 254.92 132.92 255.16 132.95 255.58 130.02 253.07 129.34 253.01 129.56 253.01 129.56"/><polygon class="d" points="255.26 128.2 257.56 128.83 257.17 131.56 257.4 131.6 257.82 128.66 255.32 127.98 255.26 128.2 255.26 128.2"/><polygon class="d" points="257.65 126.27 259.95 126.89 259.56 129.62 259.79 129.66 260.21 126.73 257.71 126.04 257.65 126.27 257.65 126.27"/></g><g><path class="c" d="M306.11,98.17h0s-1.82-13.38-15.95-6.96c2.84,13.82,15.95,6.96,15.95,6.96Z"/><path class="d" d="M304.9,97.94s-2.08-1.4-5-2.94c-2.92-1.54-6.67-3.23-10.03-3.8l-.04,.22c3.32,.57,7.06,2.25,9.97,3.78,1.45,.77,2.7,1.5,3.58,2.04,.44,.27,.79,.49,1.03,.65,.24,.15,.37,.24,.37,.24l.12-.18h0Z"/><polygon class="d" points="301.27 97.79 300.68 95.55 303.39 94.8 303.33 94.58 300.42 95.39 301.06 97.85 301.27 97.79 301.27 97.79"/><polygon class="d" points="298.88 96.58 298.32 94.43 300.7 93.48 300.62 93.27 298.06 94.3 298.68 96.63 298.88 96.58 298.88 96.58"/><polygon class="d" points="296.74 95.39 296.18 93.25 298.56 92.29 298.48 92.09 295.92 93.12 296.54 95.45 296.74 95.39 296.74 95.39"/><polygon class="d" points="294.07 94.37 293.51 92.22 295.89 91.26 295.81 91.06 293.25 92.09 293.87 94.42 294.07 94.37 294.07 94.37"/></g><g><path class="c" d="M289.39,111.53h0s11.37-7.91-1.1-17.82c-11.3,9.05,1.1,17.82,1.1,17.82Z"/><path class="d" d="M289.03,110.31s.31-2.56,.35-5.94c.05-3.39-.17-7.6-1.21-10.94l-.21,.07c1.03,3.3,1.25,7.5,1.2,10.88-.02,1.69-.11,3.17-.19,4.23-.04,.53-.08,.95-.11,1.24-.03,.29-.05,.45-.05,.45l.22,.02h0Z"/><polygon class="d" points="287.47 106.93 289.24 105.34 291.19 107.46 291.36 107.31 289.26 105.03 287.32 106.76 287.47 106.93 287.47 106.93"/><polygon class="d" points="287.46 104.18 289.16 102.66 291.14 104.39 291.29 104.22 289.16 102.36 287.31 104.02 287.46 104.18 287.46 104.18"/><polygon class="d" points="287.54 101.67 289.24 100.15 291.22 101.88 291.38 101.72 289.24 99.86 287.39 101.51 287.54 101.67 287.54 101.67"/><polygon class="d" points="287.23 98.75 288.93 97.23 290.92 98.96 291.07 98.8 288.93 96.93 287.09 98.59 287.23 98.75 287.23 98.75"/></g><g><path class="c" d="M158.25,137.93h0s12.13,7.33,16.2-8.44c-13.15-6.79-16.2,8.44-16.2,8.44Z"/><path class="d" d="M159.24,137.09s2.52-.78,5.7-2.14c3.18-1.37,7.04-3.32,9.72-5.69l-.15-.17c-2.65,2.34-6.49,4.29-9.66,5.65-1.59,.68-3.01,1.21-4.03,1.58-.51,.18-.92,.32-1.21,.41-.28,.09-.44,.14-.44,.14l.07,.22h0Z"/><polygon class="d" points="161.75 134.22 163.97 135.22 162.8 137.93 163.01 138.02 164.27 135.11 161.84 134.02 161.75 134.22 161.75 134.22"/><polygon class="d" points="164.32 133.07 166.44 134.03 165.65 136.6 165.87 136.67 166.72 133.91 164.41 132.87 164.32 133.07 164.32 133.07"/><polygon class="d" points="166.69 132.11 168.82 133.06 168.03 135.63 168.25 135.71 169.1 132.94 166.78 131.9 166.69 132.11 166.69 132.11"/><polygon class="d" points="169.3 130.6 171.42 131.56 170.63 134.13 170.85 134.2 171.7 131.44 169.39 130.4 169.3 130.6 169.3 130.6"/></g></g></svg>