<?xml version="1.0" encoding="UTF-8"?><svg xmlns="http://www.w3.org/2000/svg" viewBox="0 0 555.26 262"><defs><style>.c{fill:#afa57d;}.d{fill:#777159;}</style></defs><g id="a"><g><path class="c" d="M67.05,174.49l-3.61-21.96h-17.51l-3.2,21.96h-9.59l13.48-86.46h15.15l14.87,86.46h-9.59Zm-20.02-30.16h15.15l-8.06-49.62-7.09,49.62Z"/><path class="c" d="M121.12,113.61h-9.59v-13.07c0-1.85-.28-3.03-.83-3.54-.56-.51-1.72-.76-3.47-.76h-7.65c-1.85,0-3.04,.26-3.54,.76s-.76,1.69-.76,3.54v61.58c0,1.76,.25,2.92,.76,3.48,.51,.56,1.69,.83,3.54,.83h7.65c1.76,0,2.92-.28,3.47-.83,.56-.56,.83-1.71,.83-3.48v-13.07h9.59v14.6c0,7.32-3.66,10.98-10.98,10.98h-13.48c-7.32,0-10.98-3.66-10.98-10.98V99.01c0-7.32,3.66-10.98,10.98-10.98h13.48c7.32,0,10.98,3.66,10.98,10.98v14.6Z"/><path class="c" d="M169.07,113.61h-9.59v-13.07c0-1.85-.28-3.03-.83-3.54-.56-.51-1.72-.76-3.47-.76h-7.65c-1.85,0-3.04,.26-3.54,.76s-.76,1.69-.76,3.54v61.58c0,1.76,.25,2.92,.76,3.48,.51,.56,1.69,.83,3.54,.83h7.65c1.76,0,2.92-.28,3.47-.83,.56-.56,.83-1.71,.83-3.48v-13.07h9.59v14.6c0,7.32-3.66,10.98-10.98,10.98h-13.48c-7.32,0-10.98-3.66-10.98-10.98V99.01c0-7.32,3.66-10.98,10.98-10.98h13.48c7.32,0,10.98,3.66,10.98,10.98v14.6Z"/><path class="c" d="M191.87,166.29h23.77v8.2h-33.36V88.03h32.39v8.2h-22.8v29.19h18.63v8.2h-18.63v32.67Z"/><path class="c" d="M248.72,161.98v-23.63c0-1.85-.28-3.03-.83-3.54-.56-.51-1.72-.76-3.47-.76h-9.45c-7.32,0-10.98-3.66-10.98-10.98v-24.05c0-7.32,3.66-10.98,10.98-10.98h12.23c7.32,0,10.98,3.66,10.98,10.98v13.34h-9.59v-11.82c0-1.85-.26-3.03-.76-3.54-.51-.51-1.69-.76-3.54-.76h-6.39c-1.85,0-3.04,.26-3.54,.76-.51,.51-.76,1.69-.76,3.54v20.99c0,1.76,.25,2.92,.76,3.48,.51,.56,1.69,.83,3.54,.83h9.45c7.32,0,10.98,3.66,10.98,10.98v26.69c0,7.32-3.66,10.98-10.98,10.98h-12.09c-7.32,0-10.98-3.66-10.98-10.98v-13.34h9.59v11.82c0,1.85,.25,3.04,.76,3.54,.51,.51,1.69,.76,3.54,.76h6.25c1.76,0,2.92-.25,3.47-.76,.56-.51,.83-1.69,.83-3.54Z"/><path class="c" d="M294.17,161.98v-23.63c0-1.85-.28-3.03-.83-3.54-.56-.51-1.72-.76-3.47-.76h-9.45c-7.32,0-10.98-3.66-10.98-10.98v-24.05c0-7.32,3.66-10.98,10.98-10.98h12.23c7.32,0,10.98,3.66,10.98,10.98v13.34h-9.59v-11.82c0-1.85-.26-3.03-.76-3.54-.51-.51-1.69-.76-3.54-.76h-6.39c-1.85,0-3.04,.26-3.54,.76-.51,.51-.76,1.69-.76,3.54v20.99c0,1.76,.25,2.92,.76,3.48,.51,.56,1.69,.83,3.54,.83h9.45c7.32,0,10.98,3.66,10.98,10.98v26.69c0,7.32-3.66,10.98-10.98,10.98h-12.09c-7.32,0-10.98-3.66-10.98-10.98v-13.34h9.59v11.82c0,1.85,.25,3.04,.76,3.54,.51,.51,1.69,.76,3.54,.76h6.25c1.76,0,2.92-.25,3.47-.76,.56-.51,.83-1.69,.83-3.54Z"/><path class="c" d="M327.25,88.03h14.18c7.32,0,10.98,3.66,10.98,10.98v64.5c0,7.32-3.66,10.98-10.98,10.98h-14.18c-7.32,0-10.98-3.66-10.98-10.98V99.01c0-7.32,3.66-10.98,10.98-10.98Zm15.71,73.95v-61.44c0-1.85-.28-3.03-.83-3.54-.56-.51-1.72-.76-3.47-.76h-8.62c-1.76,0-2.92,.26-3.47,.76-.56,.51-.83,1.69-.83,3.54v61.44c0,1.85,.28,3.04,.83,3.54,.56,.51,1.71,.76,3.47,.76h8.62c1.76,0,2.92-.25,3.47-.76,.56-.51,.83-1.69,.83-3.54Z"/><path class="c" d="M368.39,88.03h9.45v86.46h-9.45V88.03Z"/><path class="c" d="M403.98,138.35v36.14h-9.45V88.03h25.16c7.32,0,10.98,3.66,10.98,10.98v28.36c0,6.58-2.87,10.19-8.62,10.84l13.07,36.28h-10.29l-12.65-36.14h-8.2Zm0-42.12v33.92h12.93c1.85,0,3.03-.25,3.54-.76,.51-.51,.76-1.69,.76-3.54v-25.3c0-1.85-.26-3.03-.76-3.54-.51-.51-1.69-.76-3.54-.76h-12.93Z"/><path class="c" d="M454.71,166.29h23.77v8.2h-33.36V88.03h32.39v8.2h-22.8v29.19h18.63v8.2h-18.63v32.67Z"/><path class="c" d="M511.56,161.98v-23.63c0-1.85-.28-3.03-.83-3.54-.56-.51-1.72-.76-3.47-.76h-9.45c-7.32,0-10.98-3.66-10.98-10.98v-24.05c0-7.32,3.66-10.98,10.98-10.98h12.23c7.32,0,10.98,3.66,10.98,10.98v13.34h-9.59v-11.82c0-1.85-.26-3.03-.76-3.54-.51-.51-1.69-.76-3.54-.76h-6.39c-1.85,0-3.04,.26-3.54,.76-.51,.51-.76,1.69-.76,3.54v20.99c0,1.76,.25,2.92,.76,3.48,.51,.56,1.69,.83,3.54,.83h9.45c7.32,0,10.98,3.66,10.98,10.98v26.69c0,7.32-3.66,10.98-10.98,10.98h-12.09c-7.32,0-10.98-3.66-10.98-10.98v-13.34h9.59v11.82c0,1.85,.25,3.04,.76,3.54,.51,.51,1.69,.76,3.54,.76h6.25c1.76,0,2.92-.25,3.47-.76,.56-.51,.83-1.69,.83-3.54Z"/></g></g><g id="b"><g><path class="c" d="M140.39,175.8h0s12.55,7.89,16.95-8.4c-13.63-7.36-16.95,8.4-16.95,8.4Z"/><path class="d" d="M141.43,174.94s2.63-.75,5.96-2.09c3.33-1.35,7.36-3.29,10.18-5.68l-.16-.18c-2.79,2.37-6.8,4.3-10.12,5.64-1.66,.67-3.14,1.19-4.21,1.55-.53,.18-.97,.31-1.26,.4-.3,.09-.46,.14-.46,.14l.07,.23h0Z"/><polygon class="d" points="144.08 172.03 146.38 173.12 145.13 175.9 145.35 176 146.69 173.01 144.17 171.82 144.08 172.03 144.08 172.03"/><polygon class="d" points="146.76 170.89 148.96 171.93 148.11 174.59 148.34 174.67 149.25 171.81 146.86 170.68 146.76 170.89 146.76 170.89"/><polygon class="d" points="149.24 169.94 151.45 170.98 150.6 173.64 150.82 173.72 151.74 170.86 149.34 169.73 149.24 169.94 149.24 169.94"/><polygon class="d" points="151.97 168.44 154.17 169.48 153.32 172.14 153.55 172.22 154.46 169.36 152.06 168.23 151.97 168.44 151.97 168.44"/></g><g><path class="c" d="M56.46,174.33h0s8.28,12.59,19.56-.73c-9.52-12.54-19.56,.73-19.56,.73Z"/><path class="d" d="M57.81,173.97s2.79,.4,6.5,.54c3.71,.14,8.33,.02,12.03-1.03l-.07-.24c-3.65,1.04-8.26,1.16-11.95,1.02-1.85-.07-3.47-.2-4.62-.32-.58-.06-1.04-.11-1.36-.15-.32-.04-.49-.06-.49-.06l-.03,.24h0Z"/><polygon class="d" points="61.57 172.36 63.24 174.34 60.85 176.41 61.01 176.59 63.59 174.36 61.75 172.2 61.57 172.36 61.57 172.36"/><polygon class="d" points="64.58 172.43 66.18 174.32 64.22 176.43 64.4 176.6 66.51 174.32 64.76 172.27 64.58 172.43 64.58 172.43"/><polygon class="d" points="67.32 172.58 68.93 174.47 66.96 176.58 67.14 176.75 69.25 174.48 67.5 172.42 67.32 172.58 67.32 172.58"/><polygon class="d" points="70.53 172.32 72.14 174.21 70.17 176.33 70.35 176.49 72.46 174.22 70.72 172.16 70.53 172.32 70.53 172.32"/></g><g><path class="c" d="M225.46,173.97h0s6.64,12.25,18.71,.72c-7.83-12.29-18.71-.72-18.71-.72Z"/><path class="d" d="M226.78,173.73s2.62,.57,6.14,.96c3.52,.39,7.94,.61,11.56-.1l-.04-.22c-3.58,.7-7.98,.49-11.49,.09-1.75-.2-3.28-.44-4.37-.63-.54-.1-.98-.18-1.28-.24-.3-.06-.46-.09-.46-.09l-.05,.22h0Z"/><polygon class="d" points="230.52 172.51 231.92 174.46 229.44 176.2 229.57 176.39 232.24 174.51 230.71 172.38 230.52 172.51 230.52 172.51"/><polygon class="d" points="233.38 172.78 234.72 174.65 232.64 176.47 232.79 176.63 235.03 174.68 233.57 172.65 233.38 172.78 233.38 172.78"/><polygon class="d" points="235.98 173.12 237.32 174.98 235.24 176.8 235.39 176.97 237.63 175.02 236.17 172.99 235.98 173.12 235.98 173.12"/><polygon class="d" points="239.06 173.11 240.4 174.97 238.32 176.79 238.47 176.96 240.71 175.01 239.25 172.98 239.06 173.11 239.06 173.11"/></g><g><path class="c" d="M110.85,177.55h0s3.3-13.85-13.04-12.91c-2.47,14.66,13.04,12.91,13.04,12.91Z"/><path class="d" d="M109.74,176.86s-1.51-2.17-3.8-4.79c-2.28-2.63-5.33-5.71-8.42-7.56l-.12,.2c3.05,1.82,6.09,4.89,8.36,7.51,1.14,1.31,2.08,2.5,2.74,3.37,.33,.43,.59,.79,.77,1.03,.18,.24,.27,.38,.27,.38l.19-.14h0Z"/><polygon class="d" points="106.23 175.33 106.5 172.9 109.45 173.19 109.47 172.96 106.3 172.65 106 175.31 106.23 175.33 106.23 175.33"/><polygon class="d" points="104.34 173.23 104.6 170.9 107.31 170.87 107.31 170.64 104.4 170.68 104.12 173.21 104.34 173.23 104.34 173.23"/><polygon class="d" points="102.69 171.25 102.95 168.93 105.66 168.9 105.66 168.67 102.75 168.7 102.46 171.23 102.69 171.25 102.69 171.25"/><polygon class="d" points="100.45 169.23 100.72 166.9 103.42 166.87 103.42 166.64 100.51 166.67 100.23 169.2 100.45 169.23 100.45 169.23"/></g><g><path class="c" d="M304.36,172.37h0s8.1,10.82,18.17-1.99c-9.25-10.69-18.17,1.99-18.17,1.99Z"/><path class="d" d="M305.6,171.95s2.61,.17,6.06,.05c3.45-.13,7.75-.55,11.16-1.75l-.07-.21c-3.36,1.19-7.65,1.61-11.09,1.74-1.72,.06-3.23,.05-4.31,.02-.54-.01-.97-.03-1.27-.05-.3-.01-.46-.02-.46-.02l-.02,.22h0Z"/><polygon class="d" points="309.05 170.24 310.67 171.91 308.51 173.94 308.66 174.1 310.99 171.91 309.21 170.08 309.05 170.24 309.05 170.24"/><polygon class="d" points="311.85 170.09 313.4 171.69 311.64 173.74 311.81 173.88 313.7 171.68 312.01 169.94 311.85 170.09 311.85 170.09"/><polygon class="d" points="314.4 170.04 315.96 171.64 314.2 173.69 314.37 173.83 316.26 171.63 314.57 169.89 314.4 170.04 314.4 170.04"/><polygon class="d" points="317.38 169.59 318.93 171.19 317.18 173.24 317.35 173.38 319.24 171.18 317.55 169.44 317.38 169.59 317.38 169.59"/></g><g><path class="c" d="M417.57,175.81h0s11.39,8,17.12-7.74c-12.48-7.5-17.12,7.74-17.12,7.74Z"/><path class="d" d="M418.65,175s2.6-.66,5.94-1.89c3.33-1.23,7.4-3.01,10.34-5.27l-.14-.18c-2.9,2.23-6.96,4.02-10.28,5.24-1.66,.61-3.14,1.08-4.2,1.4-.53,.16-.96,.28-1.25,.36-.29,.08-.46,.12-.46,.12l.05,.22h0Z"/><polygon class="d" points="421.47 172.23 423.59 173.35 422.14 176.03 422.34 176.13 423.9 173.25 421.58 172.03 421.47 172.23 421.47 172.23"/><polygon class="d" points="424.16 171.19 426.19 172.26 425.13 174.82 425.34 174.91 426.48 172.15 424.27 170.99 424.16 171.19 424.16 171.19"/><polygon class="d" points="426.65 170.33 428.68 171.4 427.61 173.96 427.82 174.04 428.97 171.29 426.76 170.13 426.65 170.33 426.65 170.33"/><polygon class="d" points="429.41 168.94 431.44 170.01 430.38 172.57 430.59 172.65 431.73 169.9 429.52 168.73 429.41 168.94 429.41 168.94"/></g><g><path class="c" d="M266.63,175.83h0s-2.98-13.09-16.41-5.49c4.03,13.43,16.41,5.49,16.41,5.49Z"/><path class="d" d="M265.4,175.7s-2.19-1.2-5.21-2.47c-3.03-1.27-6.89-2.61-10.27-2.88l-.02,.22c3.34,.27,7.19,1.6,10.21,2.87,1.51,.63,2.81,1.25,3.73,1.71,.46,.23,.83,.42,1.08,.55,.25,.13,.39,.21,.39,.21l.1-.19h0Z"/><polygon class="d" points="261.79 175.88 261.01 173.71 263.63 172.73 263.55 172.52 260.74 173.58 261.59 175.95 261.79 175.88 261.79 175.88"/><polygon class="d" points="259.32 174.89 258.58 172.81 260.85 171.66 260.76 171.46 258.31 172.7 259.12 174.96 259.32 174.89 259.32 174.89"/><polygon class="d" points="257.1 173.9 256.35 171.83 258.63 170.67 258.53 170.48 256.09 171.72 256.9 173.98 257.1 173.9 257.1 173.9"/><polygon class="d" points="254.36 173.12 253.62 171.04 255.89 169.89 255.8 169.69 253.35 170.93 254.16 173.19 254.36 173.12 254.36 173.12"/></g><g><path class="c" d="M220.59,178.12h0s-.09-15.5-17.12-10.29c1.17,16.15,17.12,10.29,17.12,10.29Z"/><path class="d" d="M219.24,177.68s-2.16-1.9-5.25-4.09c-3.09-2.19-7.11-4.67-10.85-5.82l-.07,.24c3.7,1.14,7.7,3.61,10.78,5.79,1.54,1.09,2.85,2.11,3.77,2.86,.46,.37,.83,.68,1.08,.89,.25,.21,.38,.33,.38,.33l.16-.19h0Z"/><polygon class="d" points="215.13 176.97 214.8 174.33 217.99 173.88 217.96 173.63 214.52 174.12 214.89 177.01 215.13 176.97 215.13 176.97"/><polygon class="d" points="212.6 175.24 212.27 172.71 215.13 171.98 215.07 171.73 212 172.52 212.35 175.27 212.6 175.24 212.6 175.24"/><polygon class="d" points="210.34 173.57 210.01 171.05 212.87 170.32 212.81 170.07 209.74 170.86 210.09 173.61 210.34 173.57 210.34 173.57"/><polygon class="d" points="207.45 172 207.13 169.48 209.98 168.75 209.92 168.5 206.86 169.29 207.21 172.04 207.45 172 207.45 172"/></g><g><path class="c" d="M323.72,176.43h0s11.43,9.88,18.53-5.97c-12.6-9.49-18.53,5.97-18.53,5.97Z"/><path class="d" d="M324.91,175.72s2.78-.37,6.37-1.23c3.59-.86,7.99-2.23,11.23-4.23l-.13-.21c-3.21,1.98-7.59,3.34-11.16,4.2-1.79,.43-3.38,.74-4.52,.94-.57,.1-1.03,.17-1.34,.22-.32,.05-.49,.07-.49,.07l.04,.24h0Z"/><polygon class="d" points="328.07 173.16 330.22 174.61 328.51 177.24 328.71 177.38 330.56 174.54 328.2 172.96 328.07 173.16 328.07 173.16"/><polygon class="d" points="330.97 172.41 333.03 173.8 331.74 176.36 331.95 176.47 333.34 173.72 331.1 172.21 330.97 172.41 330.97 172.41"/><polygon class="d" points="333.64 171.82 335.7 173.2 334.41 175.77 334.62 175.88 336.01 173.13 333.77 171.62 333.64 171.82 333.64 171.82"/><polygon class="d" points="336.64 170.71 338.7 172.09 337.41 174.65 337.63 174.77 339.02 172.01 336.77 170.51 336.64 170.71 336.64 170.71"/></g><g><path class="c" d="M298.5,179.22h0s4.22-12.97-11.46-13.34c-3.49,13.82,11.45,13.34,11.45,13.34Z"/><path class="d" d="M297.49,178.48s-1.28-2.19-3.25-4.87c-1.98-2.69-4.65-5.87-7.45-7.87l-.13,.18c2.77,1.98,5.44,5.15,7.41,7.82,.98,1.34,1.8,2.55,2.36,3.43,.28,.44,.5,.8,.65,1.04,.15,.25,.23,.38,.23,.38l.19-.12h0Z"/><polygon class="d" points="294.26 176.75 294.71 174.45 297.5 174.96 297.54 174.74 294.54 174.19 294.04 176.71 294.26 176.75 294.26 176.75"/><polygon class="d" points="292.62 174.6 293.05 172.4 295.64 172.57 295.66 172.35 292.87 172.16 292.41 174.56 292.62 174.6 292.62 174.6"/><polygon class="d" points="291.19 172.58 291.62 170.38 294.21 170.56 294.23 170.34 291.45 170.15 290.98 172.54 291.19 172.58 291.19 172.58"/><polygon class="d" points="289.21 170.47 289.64 168.27 292.23 168.45 292.25 168.23 289.47 168.04 289 170.43 289.21 170.47 289.21 170.47"/></g><g><path class="c" d="M276.38,176.07h0s9.36,4.36,11.07-7.39c-10.06-3.88-11.07,7.39-11.07,7.39Z"/><path class="d" d="M277.04,175.38s1.76-.76,3.96-2c2.2-1.24,4.83-2.96,6.59-4.88l-.13-.11c-1.74,1.9-4.36,3.62-6.55,4.85-1.1,.62-2.08,1.12-2.79,1.46-.36,.17-.64,.31-.84,.4-.2,.09-.31,.14-.31,.14l.07,.15h0Z"/><polygon class="d" points="278.63 173.11 280.32 173.66 279.68 175.71 279.84 175.76 280.52 173.55 278.68 172.95 278.63 173.11 278.63 173.11"/><polygon class="d" points="280.4 172.07 282.01 172.6 281.64 174.52 281.8 174.56 282.2 172.49 280.45 171.92 280.4 172.07 280.4 172.07"/><polygon class="d" points="282.04 171.19 283.66 171.71 283.28 173.64 283.45 173.67 283.85 171.6 282.09 171.03 282.04 171.19 282.04 171.19"/><polygon class="d" points="283.81 169.89 285.42 170.42 285.05 172.34 285.21 172.38 285.61 170.31 283.86 169.74 283.81 169.89 283.81 169.89"/></g><g><path class="c" d="M307.59,176h0s-1.39-10.23-12.2-5.32c2.17,10.56,12.2,5.32,12.2,5.32Z"/><path class="d" d="M306.66,175.83s-1.59-1.07-3.82-2.25c-2.23-1.18-5.1-2.47-7.67-2.91l-.03,.17c2.54,.43,5.4,1.72,7.62,2.89,1.11,.59,2.06,1.15,2.74,1.56,.34,.21,.6,.38,.79,.5,.18,.12,.28,.18,.28,.18l.09-.14h0Z"/><polygon class="d" points="303.89 175.71 303.44 174 305.51 173.42 305.46 173.26 303.24 173.88 303.73 175.76 303.89 175.71 303.89 175.71"/><polygon class="d" points="302.06 174.79 301.63 173.14 303.45 172.42 303.39 172.26 301.43 173.04 301.9 174.83 302.06 174.79 302.06 174.79"/><polygon class="d" points="300.43 173.88 300 172.24 301.82 171.51 301.76 171.36 299.8 172.14 300.27 173.93 300.43 173.88 300.43 173.88"/><polygon class="d" points="298.38 173.09 297.95 171.45 299.77 170.72 299.71 170.57 297.76 171.35 298.23 173.14 298.38 173.09 298.38 173.09"/></g><g><path class="c" d="M341.62,178.79h0s13.66,.91,10.15-14.43c-14.3,.01-10.15,14.43-10.15,14.43Z"/><path class="d" d="M342.1,177.63s1.81-1.78,3.94-4.37c2.12-2.59,4.56-5.97,5.82-9.19l-.21-.08c-1.24,3.18-3.67,6.56-5.78,9.14-1.06,1.29-2.04,2.38-2.76,3.14-.36,.38-.65,.69-.85,.89-.2,.21-.31,.32-.31,.32l.16,.15h0Z"/><polygon class="d" points="342.98 174.05 345.33 173.92 345.52 176.77 345.75 176.75 345.53 173.69 342.97 173.84 342.98 174.05 342.98 174.05"/><polygon class="d" points="344.67 171.93 346.92 171.8 347.38 174.36 347.6 174.33 347.1 171.58 344.66 171.71 344.67 171.93 344.67 171.93"/><polygon class="d" points="346.28 170.04 348.53 169.92 348.99 172.48 349.21 172.44 348.71 169.69 346.26 169.83 346.28 170.04 346.28 170.04"/><polygon class="d" points="347.84 167.6 350.09 167.47 350.55 170.03 350.77 170 350.28 167.25 347.83 167.38 347.84 167.6 347.84 167.6"/></g><g><path class="c" d="M389.4,177.33h0s12.98,1.98,10.87-12.97c-13.67-1.15-10.88,12.97-10.88,12.97Z"/><path class="d" d="M389.95,176.25s1.88-1.56,4.12-3.85c2.24-2.3,4.85-5.33,6.31-8.31l-.19-.09c-1.44,2.94-4.04,5.97-6.27,8.26-1.12,1.14-2.14,2.1-2.89,2.78-.37,.34-.68,.6-.89,.78-.21,.18-.33,.28-.33,.28l.14,.16h0Z"/><polygon class="d" points="391.08 172.91 393.34 172.98 393.29 175.71 393.51 175.72 393.55 172.78 391.09 172.7 391.08 172.91 391.08 172.91"/><polygon class="d" points="392.87 171.02 395.03 171.08 395.26 173.57 395.47 173.55 395.22 170.88 392.87 170.81 392.87 171.02 392.87 171.02"/><polygon class="d" points="394.56 169.35 396.72 169.41 396.95 171.9 397.17 171.88 396.91 169.21 394.56 169.14 394.56 169.35 394.56 169.35"/><polygon class="d" points="396.26 167.14 398.41 167.2 398.65 169.69 398.86 169.67 398.61 167 396.26 166.93 396.26 167.14 396.26 167.14"/></g><g><path class="c" d="M354.13,178.09h0s12.94,6.54,15.87-9.87c-13.95-5.91-15.88,9.87-15.88,9.87Z"/><path class="d" d="M355.07,177.16s2.51-.99,5.65-2.63c3.14-1.64,6.92-3.93,9.48-6.56l-.17-.16c-2.53,2.59-6.29,4.88-9.42,6.51-1.57,.82-2.97,1.47-3.99,1.92-.51,.23-.92,.4-1.2,.52-.28,.12-.44,.18-.44,.18l.09,.22h0Z"/><polygon class="d" points="357.41 174.04 359.75 174.88 358.77 177.74 358.99 177.82 360.05 174.75 357.49 173.82 357.41 174.04 357.41 174.04"/><polygon class="d" points="359.94 172.66 362.18 173.47 361.57 176.16 361.8 176.22 362.46 173.33 360.02 172.45 359.94 172.66 359.94 172.66"/><polygon class="d" points="362.29 171.49 364.53 172.3 363.92 174.99 364.15 175.05 364.81 172.16 362.36 171.27 362.29 171.49 362.29 171.49"/><polygon class="d" points="364.83 169.76 367.07 170.57 366.46 173.26 366.69 173.31 367.34 170.42 364.9 169.54 364.83 169.76 364.83 169.76"/></g><g><path class="c" d="M416.2,178.72h0s-.25-13.5-15.03-8.77c1.21,14.05,15.03,8.77,15.03,8.77Z"/><path class="d" d="M415.02,178.35s-1.9-1.63-4.62-3.51c-2.72-1.87-6.25-3.98-9.52-4.95l-.06,.21c3.23,.95,6.75,3.05,9.46,4.92,1.35,.93,2.51,1.81,3.32,2.45,.41,.32,.73,.58,.95,.76,.22,.18,.34,.28,.34,.28l.14-.17h0Z"/><polygon class="d" points="411.43 177.78 411.11 175.49 413.89 175.06 413.86 174.84 410.87 175.3 411.22 177.82 411.43 177.78 411.43 177.78"/><polygon class="d" points="409.2 176.3 408.89 174.1 411.37 173.43 411.32 173.22 408.65 173.94 408.99 176.33 409.2 176.3 409.2 176.3"/><polygon class="d" points="407.22 174.88 406.91 172.68 409.38 172.01 409.33 171.8 406.67 172.52 407 174.91 407.22 174.88 407.22 174.88"/><polygon class="d" points="404.68 173.54 404.37 171.35 406.85 170.68 406.8 170.46 404.13 171.18 404.47 173.58 404.68 173.54 404.68 173.54"/></g><g><path class="c" d="M386.09,178.25h0s.15-13.85-15.16-9.45c.81,14.45,15.15,9.45,15.15,9.45Z"/><path class="d" d="M384.89,177.83s-1.9-1.73-4.63-3.74c-2.73-2-6.29-4.28-9.62-5.36l-.07,.21c3.29,1.07,6.83,3.34,9.56,5.33,1.36,1,2.52,1.93,3.33,2.61,.41,.34,.73,.62,.95,.81,.22,.19,.34,.3,.34,.3l.15-.17h0Z"/><polygon class="d" points="381.23 177.14 380.96 174.77 383.83 174.42 383.8 174.19 380.72 174.58 381.01 177.17 381.23 177.14 381.23 177.14"/><polygon class="d" points="378.98 175.55 378.73 173.29 381.29 172.67 381.25 172.46 378.49 173.11 378.77 175.58 378.98 175.55 378.98 175.55"/><polygon class="d" points="376.99 174.03 376.74 171.77 379.3 171.16 379.25 170.94 376.5 171.59 376.77 174.06 376.99 174.03 376.99 174.03"/><polygon class="d" points="374.43 172.59 374.18 170.32 376.74 169.71 376.69 169.49 373.94 170.15 374.21 172.61 374.43 172.59 374.43 172.59"/></g><g><path class="c" d="M82.88,183.01h0s2.9-13.87-13.33-12.48c-2.05,14.66,13.33,12.48,13.33,12.48Z"/><path class="d" d="M81.76,182.36s-1.57-2.12-3.91-4.67c-2.34-2.55-5.46-5.54-8.59-7.29l-.11,.2c3.09,1.73,6.2,4.7,8.53,7.24,1.17,1.27,2.14,2.43,2.82,3.28,.34,.42,.61,.77,.79,1,.18,.24,.28,.37,.28,.37l.18-.14h0Z"/><polygon class="d" points="78.22 180.94 78.43 178.51 81.37 178.72 81.39 178.49 78.22 178.27 78 180.92 78.22 180.94 78.22 180.94"/><polygon class="d" points="76.29 178.9 76.48 176.58 79.17 176.47 79.17 176.24 76.28 176.35 76.06 178.88 76.29 178.9 76.29 178.9"/><polygon class="d" points="74.59 176.98 74.78 174.66 77.47 174.55 77.47 174.32 74.58 174.43 74.36 176.96 74.59 176.98 74.59 176.98"/><polygon class="d" points="72.31 175.02 72.5 172.7 75.19 172.59 75.19 172.36 72.3 172.48 72.08 175 72.31 175.02 72.31 175.02"/></g><g><path class="c" d="M27.11,174.23h0s10.88,11.03,19.44-4.59c-12.12-10.74-19.44,4.59-19.44,4.59Z"/><path class="d" d="M28.38,173.6s2.88-.15,6.62-.74c3.74-.59,8.35-1.63,11.83-3.41l-.12-.22c-3.44,1.77-8.03,2.8-11.76,3.39-1.86,.29-3.51,.48-4.69,.59-.59,.06-1.07,.09-1.39,.11-.33,.02-.5,.03-.5,.03l.02,.25h0Z"/><polygon class="d" points="31.82 171.24 33.9 172.9 31.93 175.45 32.13 175.61 34.25 172.86 31.97 171.05 31.82 171.24 31.82 171.24"/><polygon class="d" points="34.85 170.71 36.84 172.3 35.31 174.81 35.52 174.95 37.17 172.24 35 170.52 34.85 170.71 34.85 170.71"/><polygon class="d" points="37.62 170.33 39.62 171.91 38.09 174.43 38.3 174.56 39.95 171.85 37.77 170.13 37.62 170.33 37.62 170.33"/><polygon class="d" points="40.79 169.43 42.78 171.02 41.25 173.53 41.46 173.67 43.11 170.96 40.94 169.24 40.79 169.43 40.79 169.43"/></g><g><path class="c" d="M162.65,171.56h0s4.09,11.78,20.39,3.3c-5.38-11.98-20.39-3.3-20.39-3.3Z"/><path class="d" d="M164.17,171.54s2.73,.88,6.5,1.73c3.77,.85,8.57,1.67,12.74,1.56v-.2c-4.11,.11-8.9-.71-12.65-1.55-1.88-.42-3.49-.85-4.64-1.18-.57-.16-1.03-.3-1.34-.39-.31-.1-.48-.15-.48-.15l-.12,.19h0Z"/><polygon class="d" points="168.6 171 169.63 172.92 166.44 174.11 166.54 174.29 169.97 173.01 168.84 170.91 168.6 171 168.6 171"/><polygon class="d" points="171.68 171.65 172.66 173.48 169.9 174.8 170.02 174.97 172.99 173.56 171.92 171.55 171.68 171.65 171.68 171.65"/><polygon class="d" points="174.45 172.31 175.43 174.15 172.67 175.46 172.79 175.64 175.76 174.22 174.69 172.22 174.45 172.31 174.45 172.31"/><polygon class="d" points="177.84 172.74 178.83 174.58 176.06 175.89 176.18 176.07 179.16 174.65 178.08 172.65 177.84 172.74 177.84 172.74"/></g><g><path class="c" d="M80.59,179.87h0s13.66,.91,10.15-14.43c-14.3,.01-10.15,14.43-10.15,14.43Z"/><path class="d" d="M81.07,178.71s1.81-1.78,3.94-4.37c2.12-2.59,4.56-5.97,5.82-9.19l-.21-.08c-1.24,3.18-3.67,6.56-5.78,9.14-1.06,1.29-2.04,2.38-2.76,3.14-.36,.38-.65,.69-.85,.89-.2,.21-.31,.32-.31,.32l.16,.15h0Z"/><polygon class="d" points="81.95 175.14 84.3 175.01 84.49 177.85 84.72 177.84 84.51 174.78 81.94 174.92 81.95 175.14 81.95 175.14"/><polygon class="d" points="83.64 173.01 85.89 172.89 86.35 175.45 86.57 175.41 86.07 172.66 83.63 172.8 83.64 173.01 83.64 173.01"/><polygon class="d" points="85.25 171.13 87.5 171 87.96 173.56 88.18 173.53 87.68 170.78 85.23 170.91 85.25 171.13 85.25 171.13"/><polygon class="d" points="86.81 168.68 89.06 168.56 89.53 171.12 89.74 171.08 89.25 168.33 86.8 168.47 86.81 168.68 86.81 168.68"/></g><g><path class="c" d="M436.33,176.08h0s9.22,10.12,17.32-3.37c-10.32-9.9-17.32,3.37-17.32,3.37Z"/><path class="d" d="M437.48,175.57s2.54-.03,5.87-.42c3.32-.39,7.43-1.14,10.56-2.6l-.1-.2c-3.1,1.44-7.19,2.19-10.5,2.58-1.66,.19-3.12,.3-4.16,.36-.52,.03-.94,.04-1.23,.05-.29,0-.45,.01-.45,.01v.22h0Z"/><polygon class="d" points="440.59 173.61 442.37 175.14 440.55 177.33 440.71 177.47 442.68 175.12 440.73 173.44 440.59 173.61 440.59 173.61"/><polygon class="d" points="443.28 173.25 444.99 174.71 443.55 176.88 443.73 177.01 445.28 174.68 443.42 173.08 443.28 173.25 443.28 173.25"/><polygon class="d" points="445.75 173 447.45 174.47 446.01 176.64 446.2 176.76 447.74 174.43 445.89 172.84 445.75 173 445.75 173"/><polygon class="d" points="448.57 172.32 450.28 173.79 448.84 175.96 449.02 176.09 450.57 173.76 448.71 172.16 448.57 172.32 448.57 172.32"/></g><g><path class="c" d="M476.45,177.51h0s1.56-13.6-13.93-10.83c-.67,14.28,13.93,10.83,13.93,10.83Z"/><path class="d" d="M475.31,176.98s-1.69-1.9-4.17-4.14c-2.48-2.25-5.75-4.84-8.9-6.25l-.09,.2c3.12,1.39,6.38,3.98,8.85,6.21,1.24,1.12,2.28,2.15,3.01,2.9,.37,.38,.65,.68,.85,.89,.2,.21,.3,.33,.3,.33l.16-.15h0Z"/><polygon class="d" points="471.79 175.92 471.77 173.57 474.62 173.51 474.62 173.29 471.55 173.36 471.57 175.93 471.79 175.92 471.79 175.92"/><polygon class="d" points="469.75 174.13 469.73 171.88 472.31 171.54 472.28 171.32 469.51 171.69 469.53 174.14 469.75 174.13 469.75 174.13"/><polygon class="d" points="467.94 172.44 467.92 170.19 470.5 169.85 470.48 169.63 467.71 169.99 467.72 172.44 467.94 172.44 467.94 172.44"/><polygon class="d" points="465.57 170.76 465.56 168.51 468.14 168.17 468.11 167.95 465.34 168.31 465.36 170.76 465.57 170.76 465.57 170.76"/></g><g><path class="c" d="M494.38,170.03h0s7.03,11.75,17.64,.13c-8.15-11.75-17.64-.13-17.64-.13Z"/><path class="d" d="M495.6,169.76s2.5,.48,5.83,.75c3.34,.28,7.51,.35,10.87-.45l-.05-.22c-3.32,.79-7.48,.72-10.8,.45-1.66-.14-3.12-.32-4.15-.48-.52-.08-.93-.14-1.22-.19-.29-.05-.44-.08-.44-.08l-.04,.22h0Z"/><polygon class="d" points="499.04 168.46 500.49 170.31 498.26 172.09 498.4 172.27 500.79 170.35 499.21 168.32 499.04 168.46 499.04 168.46"/><polygon class="d" points="501.75 168.64 503.14 170.41 501.29 172.25 501.45 172.41 503.43 170.44 501.92 168.5 501.75 168.64 501.75 168.64"/><polygon class="d" points="504.22 168.89 505.6 170.66 503.76 172.5 503.91 172.66 505.89 170.68 504.39 168.75 504.22 168.89 504.22 168.89"/><polygon class="d" points="507.12 168.78 508.5 170.56 506.66 172.4 506.81 172.56 508.79 170.58 507.29 168.65 507.12 168.78 507.12 168.78"/></g><g><path class="c" d="M530.14,177.49h0s3.38-13.27-12.34-12.61c-2.6,14.06,12.34,12.61,12.34,12.61Z"/><path class="d" d="M529.08,176.81s-1.42-2.11-3.58-4.67c-2.15-2.56-5.04-5.58-7.98-7.4l-.12,.19c2.9,1.8,5.78,4.8,7.93,7.35,1.07,1.28,1.96,2.44,2.59,3.28,.31,.42,.56,.76,.72,1,.17,.24,.25,.37,.25,.37l.18-.13h0Z"/><polygon class="d" points="525.73 175.29 526.03 172.96 528.86 173.28 528.89 173.06 525.84 172.71 525.52 175.26 525.73 175.29 525.73 175.29"/><polygon class="d" points="523.95 173.24 524.24 171.01 526.84 171.02 526.84 170.8 524.05 170.78 523.73 173.21 523.95 173.24 523.95 173.24"/><polygon class="d" points="522.39 171.31 522.68 169.08 525.28 169.09 525.28 168.87 522.49 168.86 522.17 171.29 522.39 171.31 522.39 171.31"/><polygon class="d" points="520.27 169.33 520.56 167.1 523.16 167.11 523.17 166.89 520.37 166.87 520.06 169.3 520.27 169.33 520.27 169.33"/></g></g></svg>