<?xml version="1.0" encoding="UTF-8"?><svg xmlns="http://www.w3.org/2000/svg" viewBox="0 0 555.26 262"><defs><style>.c{fill:#afa57d;}.d{fill:#777159;}</style></defs><g id="a"><g><path class="c" d="M67.05,174.49l-3.61-21.96h-17.51l-3.2,21.96h-9.59l13.48-86.46h15.15l14.87,86.46h-9.59Zm-20.02-30.16h15.15l-8.06-49.62-7.09,49.62Z"/><path class="c" d="M121.12,113.61h-9.59v-13.07c0-1.85-.28-3.03-.83-3.54-.56-.51-1.72-.76-3.47-.76h-7.65c-1.85,0-3.04,.26-3.54,.76s-.76,1.69-.76,3.54v61.58c0,1.76,.25,2.92,.76,3.48,.51,.56,1.69,.83,3.54,.83h7.65c1.76,0,2.92-.28,3.47-.83,.56-.56,.83-1.71,.83-3.48v-13.07h9.59v14.6c0,7.32-3.66,10.98-10.98,10.98h-13.48c-7.32,0-10.98-3.66-10.98-10.98V99.01c0-7.32,3.66-10.98,10.98-10.98h13.48c7.32,0,10.98,3.66,10.98,10.98v14.6Z"/><path class="c" d="M169.07,113.61h-9.59v-13.07c0-1.85-.28-3.03-.83-3.54-.56-.51-1.72-.76-3.47-.76h-7.65c-1.85,0-3.04,.26-3.54,.76s-.76,1.69-.76,3.54v61.58c0,1.76,.25,2.92,.76,3.48,.51,.56,1.69,.83,3.54,.83h7.65c1.76,0,2.92-.28,3.47-.83,.56-.56,.83-1.71,.83-3.48v-13.07h9.59v14.6c0,7.32-3.66,10.98-10.98,10.98h-13.48c-7.32,0-10.98-3.66-10.98-10.98V99.01c0-7.32,3.66-10.98,10.98-10.98h13.48c7.32,0,10.98,3.66,10.98,10.98v14.6Z"/><path class="c" d="M191.87,166.29h23.77v8.2h-33.36V88.03h32.39v8.2h-22.8v29.19h18.63v8.2h-18.63v32.67Z"/><path class="c" d="M248.72,161.98v-23.63c0-1.85-.28-3.03-.83-3.54-.56-.51-1.72-.76-3.47-.76h-9.45c-7.32,0-10.98-3.66-10.98-10.98v-24.05c0-7.32,3.66-10.98,10.98-10.98h12.23c7.32,0,10.98,3.66,10.98,10.98v13.34h-9.59v-11.82c0-1.85-.26-3.03-.76-3.54-.51-.51-1.69-.76-3.54-.76h-6.39c-1.85,0-3.04,.26-3.54,.76-.51,.51-.76,1.69-.76,3.54v20.99c0,1.76,.25,2.92,.76,3.48,.51,.56,1.69,.83,3.54,.83h9.45c7.32,0,10.98,3.66,10.98,10.98v26.69c0,7.32-3.66,10.98-10.98,10.98h-12.09c-7.32,0-10.98-3.66-10.98-10.98v-13.34h9.59v11.82c0,1.85,.25,3.04,.76,3.54,.51,.51,1.69,.76,3.54,.76h6.25c1.76,0,2.92-.25,3.47-.76,.56-.51,.83-1.69,.83-3.54Z"/><path class="c" d="M294.17,161.98v-23.63c0-1.85-.28-3.03-.83-3.54-.56-.51-1.72-.76-3.47-.76h-9.45c-7.32,0-10.98-3.66-10.98-10.98v-24.05c0-7.32,3.66-10.98,10.98-10.98h12.23c7.32,0,10.98,3.66,10.98,10.98v13.34h-9.59v-11.82c0-1.85-.26-3.03-.76-3.54-.51-.51-1.69-.76-3.54-.76h-6.39c-1.85,0-3.04,.26-3.54,.76-.51,.51-.76,1.69-.76,3.54v20.99c0,1.76,.25,2.92,.76,3.48,.51,.56,1.69,.83,3.54,.83h9.45c7.32,0,10.98,3.66,10.98,10.98v26.69c0,7.32-3.66,10.98-10.98,10.98h-12.09c-7.32,0-10.98-3.66-10.98-10.98v-13.34h9.59v11.82c0,1.85,.25,3.04,.76,3.54,.51,.51,1.69,.76,3.54,.76h6.25c1.76,0,2.92-.25,3.47-.76,.56-.51,.83-1.69,.83-3.54Z"/><path class="c" d="M327.25,88.03h14.18c7.32,0,10.98,3.66,10.98,10.98v64.5c0,7.32-3.66,10.98-10.98,10.98h-14.18c-7.32,0-10.98-3.66-10.98-10.98V99.01c0-7.32,3.66-10.98,10.98-10.98Zm15.71,73.95v-61.44c0-1.85-.28-3.03-.83-3.54-.56-.51-1.72-.76-3.47-.76h-8.62c-1.76,0-2.92,.26-3.47,.76-.56,.51-.83,1.69-.83,3.54v61.44c0,1.85,.28,3.04,.83,3.54,.56,.51,1.71,.76,3.47,.76h8.62c1.76,0,2.92-.25,3.47-.76,.56-.51,.83-1.69,.83-3.54Z"/><path class="c" d="M368.39,88.03h9.45v86.46h-9.45V88.03Z"/><path class="c" d="M403.98,138.35v36.14h-9.45V88.03h25.16c7.32,0,10.98,3.66,10.98,10.98v28.36c0,6.58-2.87,10.19-8.62,10.84l13.07,36.28h-10.29l-12.65-36.14h-8.2Zm0-42.12v33.92h12.93c1.85,0,3.03-.25,3.54-.76,.51-.51,.76-1.69,.76-3.54v-25.3c0-1.85-.26-3.03-.76-3.54-.51-.51-1.69-.76-3.54-.76h-12.93Z"/><path class="c" d="M454.71,166.29h23.77v8.2h-33.36V88.03h32.39v8.2h-22.8v29.19h18.63v8.2h-18.63v32.67Z"/><path class="c" d="M511.56,161.98v-23.63c0-1.85-.28-3.03-.83-3.54-.56-.51-1.72-.76-3.47-.76h-9.45c-7.32,0-10.98-3.66-10.98-10.98v-24.05c0-7.32,3.66-10.98,10.98-10.98h12.23c7.32,0,10.98,3.66,10.98,10.98v13.34h-9.59v-11.82c0-1.85-.26-3.03-.76-3.54-.51-.51-1.69-.76-3.54-.76h-6.39c-1.85,0-3.04,.26-3.54,.76-.51,.51-.76,1.69-.76,3.54v20.99c0,1.76,.25,2.92,.76,3.48,.51,.56,1.69,.83,3.54,.83h9.45c7.32,0,10.98,3.66,10.98,10.98v26.69c0,7.32-3.66,10.98-10.98,10.98h-12.09c-7.32,0-10.98-3.66-10.98-10.98v-13.34h9.59v11.82c0,1.85,.25,3.04,.76,3.54,.51,.51,1.69,.76,3.54,.76h6.25c1.76,0,2.92-.25,3.47-.76,.56-.51,.83-1.69,.83-3.54Z"/></g></g><g id="b"><g><path class="c" d="M157.53,121.98h0s-.88-14.8-16.69-8.9c1.94,15.36,16.69,8.9,16.69,8.9Z"/><path class="d" d="M156.23,121.63s-2.14-1.7-5.17-3.63c-3.03-1.92-6.95-4.07-10.54-4.97l-.06,.23c3.55,.89,7.46,3.03,10.48,4.95,1.51,.96,2.8,1.86,3.71,2.53,.45,.33,.82,.6,1.06,.79,.25,.19,.38,.29,.38,.29l.14-.19h0Z"/><polygon class="d" points="152.32 121.17 151.87 118.67 154.86 118.06 154.81 117.83 151.6 118.48 152.09 121.22 152.32 121.17 152.32 121.17"/><polygon class="d" points="149.84 119.65 149.4 117.26 152.06 116.4 151.99 116.17 149.13 117.09 149.61 119.7 149.84 119.65 149.84 119.65"/><polygon class="d" points="147.62 118.19 147.18 115.79 149.84 114.93 149.77 114.7 146.92 115.62 147.39 118.23 147.62 118.19 147.62 118.19"/><polygon class="d" points="144.81 116.84 144.38 114.45 147.03 113.59 146.97 113.36 144.11 114.28 144.59 116.89 144.81 116.84 144.81 116.84"/></g><g><path class="c" d="M78.29,106.62h0s-1.02-15.18-17.4-9.04c2.13,15.75,17.39,9.04,17.39,9.04Z"/><path class="d" d="M76.94,106.26s-2.23-1.73-5.39-3.69c-3.16-1.96-7.25-4.14-10.98-5.05l-.06,.24c3.69,.89,7.77,3.07,10.91,5.02,1.57,.98,2.92,1.9,3.87,2.57,.47,.34,.85,.61,1.11,.81,.26,.19,.4,.3,.4,.3l.15-.2h0Z"/><polygon class="d" points="72.88 105.82 72.39 103.25 75.49 102.62 75.44 102.37 72.1 103.06 72.64 105.87 72.88 105.82 72.88 105.82"/><polygon class="d" points="70.28 104.27 69.82 101.82 72.57 100.93 72.5 100.69 69.54 101.65 70.05 104.32 70.28 104.27 70.28 104.27"/><polygon class="d" points="67.97 102.78 67.5 100.32 70.25 99.43 70.18 99.2 67.22 100.15 67.74 102.83 67.97 102.78 67.97 102.78"/><polygon class="d" points="65.05 101.42 64.58 98.96 67.33 98.07 67.26 97.84 64.3 98.79 64.81 101.46 65.05 101.42 65.05 101.42"/></g><g><path class="c" d="M233.78,149.01h0s13.13,4.65,14.37-11.99c-14.05-3.88-14.37,11.99-14.37,11.99Z"/><path class="d" d="M234.61,147.95s2.33-1.33,5.2-3.39c2.88-2.06,6.3-4.86,8.52-7.82l-.18-.14c-2.19,2.92-5.6,5.71-8.47,7.77-1.43,1.03-2.73,1.87-3.67,2.46-.47,.29-.85,.52-1.11,.68-.26,.16-.41,.24-.41,.24l.11,.2h0Z"/><polygon class="d" points="236.57 144.54 238.91 145.04 238.24 148 238.46 148.05 239.18 144.86 236.62 144.31 236.57 144.54 236.57 144.54"/><polygon class="d" points="238.87 142.82 241.12 143.31 240.79 146.05 241.02 146.07 241.37 143.12 238.93 142.6 238.87 142.82 238.87 142.82"/><polygon class="d" points="241.03 141.33 243.27 141.82 242.95 144.56 243.17 144.59 243.52 141.64 241.08 141.11 241.03 141.33 241.03 141.33"/><polygon class="d" points="243.31 139.26 245.56 139.74 245.23 142.49 245.46 142.51 245.81 139.56 243.36 139.03 243.31 139.26 243.31 139.26"/></g><g><path class="c" d="M98.79,109.99h0s13.73,3.75,13.33-12.6c-14.57-2.95-13.33,12.6-13.33,12.6Z"/><path class="d" d="M99.51,108.91s2.22-1.44,4.92-3.63c2.7-2.19,5.89-5.14,7.83-8.16l-.2-.12c-1.92,2.99-5.09,5.92-7.78,8.11-1.35,1.09-2.57,2-3.46,2.63-.44,.32-.8,.56-1.05,.73-.25,.17-.39,.26-.39,.26l.13,.19h0Z"/><polygon class="d" points="101.15 105.45 103.57 105.81 103.18 108.74 103.41 108.77 103.83 105.61 101.18 105.23 101.15 105.45 101.15 105.45"/><polygon class="d" points="103.31 103.64 105.63 103.97 105.57 106.68 105.8 106.69 105.86 103.78 103.34 103.41 103.31 103.64 103.31 103.64"/><polygon class="d" points="105.34 102.05 107.66 102.39 107.6 105.09 107.83 105.1 107.89 102.19 105.37 101.82 105.34 102.05 105.34 102.05"/><polygon class="d" points="107.44 99.88 109.76 100.22 109.7 102.92 109.93 102.93 109.99 100.03 107.47 99.66 107.44 99.88 107.44 99.88"/></g><g><path class="c" d="M310.14,115.07h0s13.42-1.6,7.36-16.73c-13.88,2.67-7.37,16.73-7.37,16.73Z"/><path class="d" d="M310.4,113.79s1.45-2.17,3.07-5.22c1.62-3.05,3.4-6.99,4.06-10.54l-.22-.04c-.65,3.5-2.43,7.43-4.04,10.47-.81,1.52-1.57,2.82-2.13,3.74-.28,.46-.51,.83-.67,1.08-.16,.25-.25,.38-.25,.38l.18,.13h0Z"/><polygon class="d" points="310.64 109.95 312.9 109.38 313.58 112.26 313.8 112.21 313.06 109.1 310.59 109.73 310.64 109.95 310.64 109.95"/><polygon class="d" points="311.92 107.45 314.08 106.9 314.97 109.45 315.18 109.37 314.22 106.63 311.87 107.23 311.92 107.45 311.92 107.45"/><polygon class="d" points="313.16 105.21 315.32 104.66 316.21 107.21 316.41 107.13 315.46 104.4 313.1 104.99 313.16 105.21 313.16 105.21"/><polygon class="d" points="314.25 102.4 316.41 101.86 317.31 104.41 317.51 104.33 316.55 101.59 314.2 102.18 314.25 102.4 314.25 102.4"/></g><g><path class="c" d="M437.96,121.91h0s7.35-11.82-8.68-16.67c-6.8,12.87,8.67,16.67,8.67,16.67Z"/><path class="d" d="M437.1,120.88s-.81-2.56-2.21-5.83c-1.41-3.26-3.42-7.22-5.83-10.04l-.17,.15c2.39,2.78,4.39,6.72,5.8,9.97,.7,1.63,1.25,3.08,1.63,4.12,.19,.52,.33,.94,.43,1.23,.1,.29,.15,.45,.15,.45l.22-.06h0Z"/><polygon class="d" points="434.18 118.21 435.18 116.03 437.93 117.34 438.02 117.14 435.06 115.73 433.97 118.11 434.18 118.21 434.18 118.21"/><polygon class="d" points="432.99 115.58 433.95 113.5 436.57 114.42 436.64 114.2 433.82 113.21 432.78 115.48 432.99 115.58 432.99 115.58"/><polygon class="d" points="432 113.15 432.95 111.07 435.57 111.99 435.64 111.77 432.82 110.78 431.79 113.05 432 113.15 432 113.15"/><polygon class="d" points="430.45 110.47 431.41 108.38 434.02 109.3 434.1 109.08 431.28 108.1 430.24 110.37 430.45 110.47 430.45 110.47"/></g><g><path class="c" d="M259.94,120.1h0s9.95-9-3.25-17c-9.75,10.08,3.24,17,3.24,17Z"/><path class="d" d="M259.45,118.97s-.02-2.49-.39-5.75c-.37-3.26-1.09-7.29-2.51-10.37l-.2,.09c1.4,3.04,2.12,7.06,2.49,10.31,.19,1.62,.28,3.06,.33,4.09,.03,.51,.04,.93,.05,1.21,0,.28,0,.44,0,.44h.22Z"/><polygon class="d" points="257.53 115.91 259.04 114.17 261.18 115.97 261.32 115.8 259.02 113.87 257.37 115.77 257.53 115.91 257.53 115.91"/><polygon class="d" points="257.19 113.27 258.63 111.6 260.75 113.02 260.88 112.84 258.6 111.32 257.02 113.13 257.19 113.27 257.19 113.27"/><polygon class="d" points="256.96 110.85 258.4 109.18 260.52 110.6 260.65 110.43 258.37 108.9 256.79 110.71 256.96 110.85 256.96 110.85"/><polygon class="d" points="256.3 108.08 257.75 106.41 259.87 107.83 259.99 107.65 257.71 106.13 256.14 107.94 256.3 108.08 256.3 108.08"/></g><g><path class="c" d="M202.6,111.47h0s6.86-13.89-10.7-16.87c-6.18,14.96,10.7,16.87,10.7,16.87Z"/><path class="d" d="M201.59,110.47s-1.08-2.67-2.86-6.01c-1.78-3.34-4.27-7.36-7.09-10.07l-.17,.18c2.79,2.67,5.27,6.67,7.05,10.01,.89,1.67,1.6,3.16,2.09,4.24,.25,.54,.44,.98,.56,1.28,.13,.3,.19,.47,.2,.47l.23-.1h0Z"/><polygon class="d" points="198.24 108 199.12 105.49 202.18 106.51 202.26 106.28 198.97 105.17 198.01 107.92 198.24 108 198.24 108"/><polygon class="d" points="196.75 105.31 197.59 102.91 200.47 103.53 200.53 103.29 197.43 102.62 196.52 105.23 196.75 105.31 196.75 105.31"/><polygon class="d" points="195.47 102.81 196.32 100.41 199.2 101.03 199.25 100.79 196.16 100.12 195.24 102.73 195.47 102.81 195.47 102.81"/><polygon class="d" points="193.6 100.12 194.44 97.71 197.32 98.34 197.38 98.09 194.28 97.42 193.36 100.04 193.6 100.12 193.6 100.12"/></g><g><path class="c" d="M332.25,119.72h0s15.08,.77,10.96-16.09c-15.78,.25-10.96,16.09-10.96,16.09Z"/><path class="d" d="M332.76,118.43s1.97-2,4.27-4.88c2.3-2.89,4.93-6.66,6.26-10.24l-.23-.08c-1.31,3.53-3.93,7.3-6.23,10.17-1.15,1.44-2.21,2.66-2.99,3.51-.39,.43-.71,.77-.93,1-.22,.23-.34,.35-.34,.35l.18,.17h0Z"/><polygon class="d" points="333.68 114.47 336.26 114.29 336.53 117.42 336.77 117.4 336.49 114.03 333.66 114.23 333.68 114.47 333.68 114.47"/><polygon class="d" points="335.5 112.1 337.98 111.92 338.53 114.74 338.78 114.7 338.18 111.67 335.48 111.86 335.5 112.1 335.5 112.1"/><polygon class="d" points="337.25 109.99 339.72 109.82 340.28 112.63 340.52 112.59 339.92 109.56 337.23 109.75 337.25 109.99 337.25 109.99"/><polygon class="d" points="338.93 107.27 341.41 107.09 341.96 109.91 342.21 109.87 341.61 106.84 338.91 107.03 338.93 107.27 338.93 107.27"/></g><g><path class="c" d="M289.68,109.36h0s4.22-12.97-11.46-13.34c-3.49,13.82,11.45,13.34,11.45,13.34Z"/><path class="d" d="M288.68,108.62s-1.28-2.19-3.25-4.87c-1.98-2.69-4.65-5.87-7.45-7.87l-.13,.18c2.77,1.98,5.44,5.15,7.41,7.82,.98,1.34,1.8,2.55,2.36,3.43,.28,.44,.5,.8,.65,1.04,.15,.25,.23,.38,.23,.38l.19-.12h0Z"/><polygon class="d" points="285.44 106.89 285.89 104.59 288.69 105.09 288.73 104.88 285.72 104.33 285.23 106.85 285.44 106.89 285.44 106.89"/><polygon class="d" points="283.81 104.73 284.24 102.53 286.82 102.71 286.84 102.49 284.06 102.3 283.59 104.69 283.81 104.73 283.81 104.73"/><polygon class="d" points="282.38 102.72 282.81 100.52 285.4 100.7 285.42 100.48 282.63 100.28 282.17 102.68 282.38 102.72 282.38 102.72"/><polygon class="d" points="280.4 100.61 280.83 98.41 283.42 98.59 283.44 98.37 280.66 98.17 280.19 100.57 280.4 100.61 280.4 100.61"/></g><g><path class="c" d="M279.25,142.48h0s9.36,4.36,11.07-7.39c-10.06-3.88-11.07,7.39-11.07,7.39Z"/><path class="d" d="M279.91,141.79s1.76-.76,3.96-2c2.2-1.24,4.83-2.96,6.59-4.88l-.13-.11c-1.74,1.9-4.36,3.62-6.55,4.85-1.1,.62-2.08,1.12-2.79,1.46-.36,.17-.64,.31-.84,.4-.2,.09-.31,.14-.31,.14l.07,.15h0Z"/><polygon class="d" points="281.5 139.52 283.19 140.07 282.55 142.12 282.71 142.17 283.39 139.96 281.55 139.37 281.5 139.52 281.5 139.52"/><polygon class="d" points="283.27 138.49 284.88 139.01 284.51 140.94 284.67 140.97 285.07 138.9 283.32 138.33 283.27 138.49 283.27 138.49"/><polygon class="d" points="284.91 137.6 286.53 138.12 286.15 140.05 286.32 140.08 286.72 138.01 284.96 137.44 284.91 137.6 284.91 137.6"/><polygon class="d" points="286.68 136.31 288.29 136.83 287.92 138.76 288.08 138.79 288.48 136.72 286.73 136.15 286.68 136.31 286.68 136.31"/></g><g><path class="c" d="M311.63,154.59h0s-1.39-10.23-12.2-5.32c2.17,10.56,12.2,5.32,12.2,5.32Z"/><path class="d" d="M310.7,154.41s-1.59-1.07-3.82-2.25c-2.23-1.18-5.1-2.47-7.67-2.91l-.03,.17c2.54,.43,5.4,1.72,7.62,2.89,1.11,.59,2.06,1.15,2.74,1.56,.34,.21,.6,.38,.79,.5,.18,.12,.28,.18,.28,.18l.09-.14h0Z"/><polygon class="d" points="307.93 154.3 307.48 152.58 309.55 152.01 309.51 151.85 307.28 152.46 307.77 154.34 307.93 154.3 307.93 154.3"/><polygon class="d" points="306.1 153.37 305.67 151.73 307.49 151 307.44 150.84 305.48 151.63 305.95 153.41 306.1 153.37 306.1 153.37"/><polygon class="d" points="304.47 152.47 304.04 150.82 305.86 150.09 305.8 149.94 303.84 150.72 304.31 152.51 304.47 152.47 304.47 152.47"/><polygon class="d" points="302.43 151.68 301.99 150.04 303.82 149.31 303.76 149.15 301.8 149.93 302.27 151.72 302.43 151.68 302.43 151.68"/></g><g><path class="c" d="M341.62,178.79h0s13.66,.91,10.15-14.43c-14.3,.01-10.15,14.43-10.15,14.43Z"/><path class="d" d="M342.1,177.63s1.81-1.78,3.94-4.37c2.12-2.59,4.56-5.97,5.82-9.19l-.21-.08c-1.24,3.18-3.67,6.56-5.78,9.14-1.06,1.29-2.04,2.38-2.76,3.14-.36,.38-.65,.69-.85,.89-.2,.21-.31,.32-.31,.32l.16,.15h0Z"/><polygon class="d" points="342.98 174.05 345.33 173.92 345.52 176.77 345.75 176.75 345.53 173.69 342.97 173.84 342.98 174.05 342.98 174.05"/><polygon class="d" points="344.67 171.93 346.92 171.8 347.38 174.36 347.6 174.33 347.1 171.58 344.66 171.71 344.67 171.93 344.67 171.93"/><polygon class="d" points="346.28 170.04 348.53 169.92 348.99 172.48 349.21 172.44 348.71 169.69 346.26 169.83 346.28 170.04 346.28 170.04"/><polygon class="d" points="347.84 167.6 350.09 167.47 350.55 170.03 350.77 170 350.28 167.25 347.83 167.38 347.84 167.6 347.84 167.6"/></g><g><path class="c" d="M384.57,110.19h0s12.98,1.98,10.87-12.97c-13.67-1.15-10.88,12.97-10.88,12.97Z"/><path class="d" d="M385.12,109.12s1.88-1.56,4.12-3.85c2.24-2.3,4.85-5.33,6.31-8.31l-.19-.09c-1.44,2.94-4.04,5.97-6.27,8.26-1.12,1.14-2.14,2.1-2.89,2.78-.37,.34-.68,.6-.89,.78-.21,.18-.33,.28-.33,.28l.14,.16h0Z"/><polygon class="d" points="386.26 105.78 388.51 105.85 388.47 108.58 388.68 108.58 388.73 105.64 386.26 105.57 386.26 105.78 386.26 105.78"/><polygon class="d" points="388.04 103.88 390.2 103.95 390.44 106.43 390.65 106.42 390.4 103.75 388.05 103.68 388.04 103.88 388.04 103.88"/><polygon class="d" points="389.74 102.21 391.89 102.28 392.13 104.76 392.34 104.75 392.09 102.08 389.74 102.01 389.74 102.21 389.74 102.21"/><polygon class="d" points="391.43 100.01 393.59 100.07 393.82 102.55 394.03 102.54 393.78 99.87 391.43 99.8 391.43 100.01 391.43 100.01"/></g><g><path class="c" d="M354.53,107.86h0s11.37,9,17.53-6.49c-12.48-8.59-17.53,6.49-17.53,6.49Z"/><path class="d" d="M355.65,107.13s2.65-.47,6.06-1.44c3.41-.98,7.57-2.47,10.6-4.52l-.13-.19c-2.99,2.03-7.14,3.52-10.54,4.49-1.7,.49-3.21,.85-4.29,1.08-.54,.12-.98,.21-1.28,.27-.3,.06-.46,.09-.46,.09l.05,.23h0Z"/><polygon class="d" points="358.57 104.54 360.69 105.84 359.16 108.44 359.36 108.56 361.01 105.77 358.69 104.35 358.57 104.54 358.57 104.54"/><polygon class="d" points="361.32 103.71 363.35 104.95 362.22 107.46 362.43 107.56 363.65 104.86 361.44 103.51 361.32 103.71 361.32 103.71"/><polygon class="d" points="363.86 103.03 365.89 104.27 364.76 106.78 364.97 106.88 366.19 104.18 363.97 102.83 363.86 103.03 363.86 103.03"/><polygon class="d" points="366.69 101.84 368.73 103.08 367.59 105.59 367.8 105.69 369.02 102.99 366.81 101.64 366.69 101.84 366.69 101.84"/></g><g><path class="c" d="M417.26,111.19h0s9.12-9.96-4.86-16.71c-8.81,11.02,4.85,16.71,4.85,16.71Z"/><path class="d" d="M416.66,110.11s-.25-2.5-.93-5.73c-.68-3.23-1.78-7.19-3.49-10.15l-.19,.11c1.69,2.92,2.79,6.87,3.47,10.08,.34,1.61,.57,3.04,.72,4.06,.07,.51,.13,.92,.16,1.21,.03,.28,.05,.44,.05,.44l.22-.03h0Z"/><polygon class="d" points="414.45 107.23 415.8 105.34 418.11 106.94 418.24 106.76 415.75 105.04 414.28 107.11 414.45 107.23 414.45 107.23"/><polygon class="d" points="413.86 104.62 415.15 102.81 417.41 104.03 417.51 103.84 415.09 102.53 413.68 104.49 413.86 104.62 413.86 104.62"/><polygon class="d" points="413.4 102.22 414.69 100.41 416.95 101.63 417.05 101.44 414.63 100.13 413.22 102.09 413.4 102.22 413.4 102.22"/><polygon class="d" points="412.48 99.5 413.77 97.7 416.03 98.92 416.14 98.73 413.71 97.42 412.31 99.38 412.48 99.5 412.48 99.5"/></g><g><path class="c" d="M384.42,143.29h0s7.47-11.67-7.85-16.04c-6.97,12.69,7.85,16.04,7.85,16.04Z"/><path class="d" d="M383.62,142.3s-.7-2.48-1.95-5.62c-1.26-3.15-3.07-6.96-5.31-9.64l-.17,.15c2.22,2.65,4.03,6.45,5.28,9.58,.63,1.57,1.11,2.97,1.44,3.98,.16,.5,.29,.91,.38,1.19,.08,.28,.13,.43,.13,.43l.21-.07h0Z"/><polygon class="d" points="380.89 139.77 381.92 137.63 384.53 138.84 384.63 138.64 381.81 137.33 380.69 139.68 380.89 139.77 380.89 139.77"/><polygon class="d" points="379.83 137.24 380.81 135.18 383.31 136.02 383.38 135.81 380.7 134.91 379.63 137.14 379.83 137.24 379.83 137.24"/><polygon class="d" points="378.94 134.89 379.92 132.84 382.42 133.68 382.5 133.46 379.81 132.56 378.74 134.8 378.94 134.89 378.94 134.89"/><polygon class="d" points="377.53 132.31 378.52 130.26 381.02 131.09 381.09 130.88 378.41 129.98 377.34 132.22 377.53 132.31 377.53 132.31"/></g><g><path class="c" d="M81.21,153.9h0s2.9-13.87-13.33-12.48c-2.05,14.66,13.33,12.48,13.33,12.48Z"/><path class="d" d="M80.08,153.24s-1.57-2.12-3.91-4.67c-2.34-2.55-5.46-5.54-8.59-7.29l-.11,.2c3.09,1.73,6.2,4.7,8.53,7.24,1.17,1.27,2.14,2.43,2.82,3.28,.34,.42,.61,.77,.79,1,.18,.24,.28,.37,.28,.37l.18-.14h0Z"/><polygon class="d" points="76.55 151.82 76.75 149.39 79.69 149.6 79.71 149.37 76.55 149.15 76.32 151.8 76.55 151.82 76.55 151.82"/><polygon class="d" points="74.61 149.78 74.81 147.46 77.5 147.35 77.49 147.12 74.6 147.24 74.39 149.77 74.61 149.78 74.61 149.78"/><polygon class="d" points="72.91 147.86 73.11 145.54 75.8 145.43 75.79 145.2 72.9 145.32 72.69 147.84 72.91 147.86 72.91 147.86"/><polygon class="d" points="70.63 145.9 70.83 143.58 73.52 143.48 73.51 143.25 70.62 143.36 70.41 145.89 70.63 145.9 70.63 145.9"/></g><g><path class="c" d="M31.07,128.08h0s13.82,7,16.97-10.53c-14.9-6.33-16.97,10.53-16.97,10.53Z"/><path class="d" d="M32.08,127.08s2.68-1.05,6.04-2.8c3.36-1.75,7.4-4.19,10.14-6.99l-.18-.17c-2.7,2.77-6.73,5.21-10.07,6.95-1.67,.87-3.18,1.57-4.26,2.05-.54,.24-.98,.43-1.28,.55-.3,.13-.47,.19-.47,.19l.1,.23h0Z"/><polygon class="d" points="34.59 123.76 37.09 124.66 36.04 127.71 36.27 127.79 37.41 124.51 34.67 123.52 34.59 123.76 34.59 123.76"/><polygon class="d" points="37.29 122.29 39.69 123.16 39.04 126.03 39.28 126.09 39.98 123 37.37 122.06 37.29 122.29 37.29 122.29"/><polygon class="d" points="39.8 121.04 42.2 121.91 41.55 124.78 41.79 124.84 42.49 121.75 39.88 120.81 39.8 121.04 39.8 121.04"/><polygon class="d" points="42.52 119.19 44.91 120.06 44.26 122.93 44.51 122.99 45.21 119.9 42.6 118.96 42.52 119.19 42.52 119.19"/></g><g><path class="c" d="M173.33,148.54h0s12.46,.26,10.18-17.97c-13.11,.88-10.18,17.97-10.18,17.97Z"/><path class="d" d="M173.84,147.11s1.77-2.25,3.88-5.49c2.1-3.24,4.55-7.46,5.89-11.4l-.19-.08c-1.33,3.9-3.76,8.11-5.86,11.33-1.05,1.61-2.01,2.98-2.72,3.95-.35,.48-.64,.86-.84,1.12-.2,.26-.31,.4-.31,.4l.14,.18h0Z"/><polygon class="d" points="174.87 142.76 177.02 142.46 177.03 145.87 177.24 145.84 177.23 142.18 174.87 142.5 174.87 142.76 174.87 142.76"/><polygon class="d" points="176.54 140.1 178.61 139.82 178.88 142.87 179.08 142.81 178.79 139.53 176.54 139.85 176.54 140.1 176.54 140.1"/><polygon class="d" points="178.13 137.74 180.2 137.45 180.47 140.5 180.67 140.45 180.38 137.17 178.13 137.48 178.13 137.74 178.13 137.74"/><polygon class="d" points="179.72 134.71 181.78 134.42 182.05 137.47 182.26 137.41 181.97 134.14 179.72 134.45 179.72 134.71 179.72 134.71"/></g><g><path class="c" d="M76.67,132.06h0s13.66,.91,10.15-14.43c-14.3,.01-10.15,14.43-10.15,14.43Z"/><path class="d" d="M77.15,130.89s1.81-1.78,3.94-4.37c2.12-2.59,4.56-5.97,5.82-9.19l-.21-.08c-1.24,3.18-3.67,6.56-5.78,9.14-1.06,1.29-2.04,2.38-2.76,3.14-.36,.38-.65,.69-.85,.89-.2,.21-.31,.32-.31,.32l.16,.15h0Z"/><polygon class="d" points="78.03 127.32 80.38 127.19 80.58 130.03 80.8 130.02 80.59 126.96 78.02 127.1 78.03 127.32 78.03 127.32"/><polygon class="d" points="79.72 125.19 81.97 125.07 82.43 127.63 82.65 127.59 82.15 124.84 79.71 124.98 79.72 125.19 79.72 125.19"/><polygon class="d" points="81.33 123.31 83.58 123.18 84.04 125.75 84.26 125.71 83.76 122.96 81.32 123.09 81.33 123.31 81.33 123.31"/><polygon class="d" points="82.9 120.86 85.14 120.74 85.61 123.3 85.83 123.27 85.33 120.51 82.88 120.65 82.9 120.86 82.9 120.86"/></g><g><path class="c" d="M435.59,145.01h0s13.66,.91,10.15-14.43c-14.3,.01-10.15,14.43-10.15,14.43Z"/><path class="d" d="M436.07,143.85s1.81-1.78,3.94-4.37c2.12-2.59,4.56-5.97,5.82-9.19l-.21-.08c-1.24,3.18-3.67,6.56-5.78,9.14-1.06,1.29-2.04,2.38-2.76,3.14-.36,.38-.65,.69-.85,.89-.2,.21-.31,.32-.31,.32l.16,.15h0Z"/><polygon class="d" points="436.95 140.28 439.3 140.15 439.5 142.99 439.72 142.98 439.51 139.92 436.94 140.06 436.95 140.28 436.95 140.28"/><polygon class="d" points="438.64 138.15 440.89 138.03 441.35 140.59 441.57 140.55 441.07 137.8 438.63 137.93 438.64 138.15 438.64 138.15"/><polygon class="d" points="440.25 136.27 442.5 136.14 442.96 138.7 443.18 138.67 442.68 135.91 440.24 136.05 440.25 136.27 440.25 136.27"/><polygon class="d" points="441.82 133.82 444.06 133.7 444.53 136.26 444.75 136.22 444.25 133.47 441.8 133.6 441.82 133.82 441.82 133.82"/></g><g><path class="c" d="M477.57,108.16h0s5.4-12.58-10.23-14.38c-4.75,13.49,10.23,14.38,10.23,14.38Z"/><path class="d" d="M476.64,107.33s-1.08-2.3-2.81-5.17c-1.73-2.86-4.11-6.29-6.73-8.55l-.14,.17c2.59,2.23,4.96,5.64,6.69,8.5,.86,1.43,1.56,2.72,2.04,3.65,.24,.47,.43,.84,.56,1.1,.13,.26,.19,.4,.19,.4l.2-.1h0Z"/><polygon class="d" points="473.56 105.3 474.22 103.05 476.97 103.81 477.03 103.59 474.07 102.77 473.35 105.24 473.56 105.3 473.56 105.3"/><polygon class="d" points="472.12 103 472.75 100.84 475.32 101.26 475.36 101.04 472.6 100.59 471.91 102.94 472.12 103 472.12 103"/><polygon class="d" points="470.88 100.86 471.51 98.7 474.08 99.11 474.12 98.89 471.36 98.45 470.67 100.8 470.88 100.86 470.88 100.86"/><polygon class="d" points="469.1 98.57 469.73 96.41 472.3 96.82 472.34 96.6 469.57 96.16 468.89 98.51 469.1 98.57 469.1 98.57"/></g><g><path class="c" d="M502.2,128.61h0s13.66,.91,10.15-14.43c-14.3,.01-10.15,14.43-10.15,14.43Z"/><path class="d" d="M502.67,127.45s1.81-1.78,3.94-4.37c2.12-2.59,4.56-5.97,5.82-9.19l-.21-.08c-1.24,3.18-3.67,6.56-5.78,9.14-1.06,1.29-2.04,2.38-2.76,3.14-.36,.38-.65,.69-.85,.89-.2,.21-.31,.32-.31,.32l.16,.15h0Z"/><polygon class="d" points="503.56 123.88 505.9 123.75 506.1 126.59 506.32 126.58 506.11 123.52 503.54 123.66 503.56 123.88 503.56 123.88"/><polygon class="d" points="505.25 121.75 507.49 121.63 507.96 124.19 508.18 124.15 507.68 121.4 505.23 121.54 505.25 121.75 505.25 121.75"/><polygon class="d" points="506.85 119.87 509.1 119.74 509.56 122.3 509.78 122.27 509.29 119.52 506.84 119.65 506.85 119.87 506.85 119.87"/><polygon class="d" points="508.42 117.42 510.67 117.3 511.13 119.86 511.35 119.82 510.85 117.07 508.4 117.21 508.42 117.42 508.42 117.42"/></g><g><path class="c" d="M523.03,109.64h0s9.92-9.43-3.75-17.24c-9.68,10.53,3.74,17.24,3.74,17.24Z"/><path class="d" d="M522.5,108.5s-.08-2.54-.55-5.86c-.46-3.31-1.3-7.4-2.82-10.51l-.2,.1c1.5,3.07,2.34,7.14,2.8,10.44,.23,1.65,.37,3.11,.44,4.16,.04,.52,.06,.94,.08,1.23,.01,.29,.02,.45,.02,.45h.22Z"/><polygon class="d" points="520.47 105.43 521.97 103.61 524.19 105.39 524.33 105.22 521.94 103.31 520.3 105.29 520.47 105.43 520.47 105.43"/><polygon class="d" points="520.05 102.74 521.48 101.01 523.68 102.4 523.8 102.22 521.44 100.72 519.88 102.61 520.05 102.74 520.05 102.74"/><polygon class="d" points="519.76 100.28 521.19 98.55 523.38 99.94 523.51 99.76 521.14 98.26 519.59 100.15 519.76 100.28 519.76 100.28"/><polygon class="d" points="519.02 97.48 520.45 95.74 522.65 97.13 522.77 96.95 520.41 95.45 518.85 97.34 519.02 97.48 519.02 97.48"/></g></g></svg>