<?xml version="1.0" encoding="UTF-8"?><svg xmlns="http://www.w3.org/2000/svg" viewBox="0 0 555.26 262"><defs><style>.c{fill:#afa57d;}.d{fill:#777159;}</style></defs><g id="a"><g><path class="c" d="M67.05,174.49l-3.61-21.96h-17.51l-3.2,21.96h-9.59l13.48-86.46h15.15l14.87,86.46h-9.59Zm-20.02-30.16h15.15l-8.06-49.62-7.09,49.62Z"/><path class="c" d="M121.12,113.61h-9.59v-13.07c0-1.85-.28-3.03-.83-3.54-.56-.51-1.72-.76-3.47-.76h-7.65c-1.85,0-3.04,.26-3.54,.76s-.76,1.69-.76,3.54v61.58c0,1.76,.25,2.92,.76,3.48,.51,.56,1.69,.83,3.54,.83h7.65c1.76,0,2.92-.28,3.47-.83,.56-.56,.83-1.71,.83-3.48v-13.07h9.59v14.6c0,7.32-3.66,10.98-10.98,10.98h-13.48c-7.32,0-10.98-3.66-10.98-10.98V99.01c0-7.32,3.66-10.98,10.98-10.98h13.48c7.32,0,10.98,3.66,10.98,10.98v14.6Z"/><path class="c" d="M169.07,113.61h-9.59v-13.07c0-1.85-.28-3.03-.83-3.54-.56-.51-1.72-.76-3.47-.76h-7.65c-1.85,0-3.04,.26-3.54,.76s-.76,1.69-.76,3.54v61.58c0,1.76,.25,2.92,.76,3.48,.51,.56,1.69,.83,3.54,.83h7.65c1.76,0,2.92-.28,3.47-.83,.56-.56,.83-1.71,.83-3.48v-13.07h9.59v14.6c0,7.32-3.66,10.98-10.98,10.98h-13.48c-7.32,0-10.98-3.66-10.98-10.98V99.01c0-7.32,3.66-10.98,10.98-10.98h13.48c7.32,0,10.98,3.66,10.98,10.98v14.6Z"/><path class="c" d="M191.87,166.29h23.77v8.2h-33.36V88.03h32.39v8.2h-22.8v29.19h18.63v8.2h-18.63v32.67Z"/><path class="c" d="M248.72,161.98v-23.63c0-1.85-.28-3.03-.83-3.54-.56-.51-1.72-.76-3.47-.76h-9.45c-7.32,0-10.98-3.66-10.98-10.98v-24.05c0-7.32,3.66-10.98,10.98-10.98h12.23c7.32,0,10.98,3.66,10.98,10.98v13.34h-9.59v-11.82c0-1.85-.26-3.03-.76-3.54-.51-.51-1.69-.76-3.54-.76h-6.39c-1.85,0-3.04,.26-3.54,.76-.51,.51-.76,1.69-.76,3.54v20.99c0,1.76,.25,2.92,.76,3.48,.51,.56,1.69,.83,3.54,.83h9.45c7.32,0,10.98,3.66,10.98,10.98v26.69c0,7.32-3.66,10.98-10.98,10.98h-12.09c-7.32,0-10.98-3.66-10.98-10.98v-13.34h9.59v11.82c0,1.85,.25,3.04,.76,3.54,.51,.51,1.69,.76,3.54,.76h6.25c1.76,0,2.92-.25,3.47-.76,.56-.51,.83-1.69,.83-3.54Z"/><path class="c" d="M294.17,161.98v-23.63c0-1.85-.28-3.03-.83-3.54-.56-.51-1.72-.76-3.47-.76h-9.45c-7.32,0-10.98-3.66-10.98-10.98v-24.05c0-7.32,3.66-10.98,10.98-10.98h12.23c7.32,0,10.98,3.66,10.98,10.98v13.34h-9.59v-11.82c0-1.85-.26-3.03-.76-3.54-.51-.51-1.69-.76-3.54-.76h-6.39c-1.85,0-3.04,.26-3.54,.76-.51,.51-.76,1.69-.76,3.54v20.99c0,1.76,.25,2.92,.76,3.48,.51,.56,1.69,.83,3.54,.83h9.45c7.32,0,10.98,3.66,10.98,10.98v26.69c0,7.32-3.66,10.98-10.98,10.98h-12.09c-7.32,0-10.98-3.66-10.98-10.98v-13.34h9.59v11.82c0,1.85,.25,3.04,.76,3.54,.51,.51,1.69,.76,3.54,.76h6.25c1.76,0,2.92-.25,3.47-.76,.56-.51,.83-1.69,.83-3.54Z"/><path class="c" d="M327.25,88.03h14.18c7.32,0,10.98,3.66,10.98,10.98v64.5c0,7.32-3.66,10.98-10.98,10.98h-14.18c-7.32,0-10.98-3.66-10.98-10.98V99.01c0-7.32,3.66-10.98,10.98-10.98Zm15.71,73.95v-61.44c0-1.85-.28-3.03-.83-3.54-.56-.51-1.72-.76-3.47-.76h-8.62c-1.76,0-2.92,.26-3.47,.76-.56,.51-.83,1.69-.83,3.54v61.44c0,1.85,.28,3.04,.83,3.54,.56,.51,1.71,.76,3.47,.76h8.62c1.76,0,2.92-.25,3.47-.76,.56-.51,.83-1.69,.83-3.54Z"/><path class="c" d="M368.39,88.03h9.45v86.46h-9.45V88.03Z"/><path class="c" d="M403.98,138.35v36.14h-9.45V88.03h25.16c7.32,0,10.98,3.66,10.98,10.98v28.36c0,6.58-2.87,10.19-8.62,10.84l13.07,36.28h-10.29l-12.65-36.14h-8.2Zm0-42.12v33.92h12.93c1.85,0,3.03-.25,3.54-.76,.51-.51,.76-1.69,.76-3.54v-25.3c0-1.85-.26-3.03-.76-3.54-.51-.51-1.69-.76-3.54-.76h-12.93Z"/><path class="c" d="M454.71,166.29h23.77v8.2h-33.36V88.03h32.39v8.2h-22.8v29.19h18.63v8.2h-18.63v32.67Z"/><path class="c" d="M511.56,161.98v-23.63c0-1.85-.28-3.03-.83-3.54-.56-.51-1.72-.76-3.47-.76h-9.45c-7.32,0-10.98-3.66-10.98-10.98v-24.05c0-7.32,3.66-10.98,10.98-10.98h12.23c7.32,0,10.98,3.66,10.98,10.98v13.34h-9.59v-11.82c0-1.85-.26-3.03-.76-3.54-.51-.51-1.69-.76-3.54-.76h-6.39c-1.85,0-3.04,.26-3.54,.76-.51,.51-.76,1.69-.76,3.54v20.99c0,1.76,.25,2.92,.76,3.48,.51,.56,1.69,.83,3.54,.83h9.45c7.32,0,10.98,3.66,10.98,10.98v26.69c0,7.32-3.66,10.98-10.98,10.98h-12.09c-7.32,0-10.98-3.66-10.98-10.98v-13.34h9.59v11.82c0,1.85,.25,3.04,.76,3.54,.51,.51,1.69,.76,3.54,.76h6.25c1.76,0,2.92-.25,3.47-.76,.56-.51,.83-1.69,.83-3.54Z"/></g></g><g id="b"><g><path class="c" d="M138.88,153.88h0s12.55,7.89,16.95-8.4c-13.63-7.36-16.95,8.4-16.95,8.4Z"/><path class="d" d="M139.92,153.03s2.63-.75,5.96-2.09c3.33-1.35,7.36-3.29,10.18-5.68l-.16-.18c-2.79,2.37-6.8,4.3-10.12,5.64-1.66,.67-3.14,1.19-4.21,1.55-.53,.18-.97,.31-1.26,.4-.3,.09-.46,.14-.46,.14l.07,.23h0Z"/><polygon class="d" points="142.57 150.11 144.87 151.2 143.62 153.98 143.84 154.08 145.18 151.09 142.66 149.9 142.57 150.11 142.57 150.11"/><polygon class="d" points="145.25 148.97 147.45 150.01 146.6 152.67 146.83 152.75 147.74 149.89 145.35 148.76 145.25 148.97 145.25 148.97"/><polygon class="d" points="147.73 148.02 149.94 149.06 149.09 151.72 149.31 151.8 150.23 148.94 147.83 147.81 147.73 148.02 147.73 148.02"/><polygon class="d" points="150.46 146.52 152.66 147.56 151.81 150.22 152.04 150.3 152.95 147.44 150.55 146.31 150.46 146.52 150.46 146.52"/></g><g><path class="c" d="M73.46,158.19h0s12.02-9.32-2.21-19.48c-11.88,10.55,2.2,19.48,2.2,19.48Z"/><path class="d" d="M73,156.88s.19-2.82,.05-6.53c-.14-3.72-.61-8.33-1.94-11.93l-.23,.09c1.32,3.56,1.79,8.15,1.93,11.86,.07,1.85,.06,3.48,.03,4.64-.02,.58-.04,1.05-.05,1.37-.02,.32-.03,.49-.03,.5h.25Z"/><polygon class="d" points="71.1 153.25 72.96 151.42 75.21 153.63 75.39 153.46 72.96 151.07 70.93 153.09 71.1 153.25 71.1 153.25"/><polygon class="d" points="70.94 150.24 72.71 148.48 74.99 150.27 75.14 150.08 72.7 148.16 70.77 150.07 70.94 150.24 70.94 150.24"/><polygon class="d" points="70.89 147.49 72.66 145.73 74.93 147.52 75.09 147.33 72.65 145.41 70.71 147.32 70.89 147.49 70.89 147.49"/><polygon class="d" points="70.38 144.3 72.16 142.54 74.43 144.33 74.59 144.14 72.15 142.22 70.21 144.13 70.38 144.3 70.38 144.3"/></g><g><path class="c" d="M225.46,173.97h0s6.64,12.25,18.71,.72c-7.83-12.29-18.71-.72-18.71-.72Z"/><path class="d" d="M226.78,173.73s2.62,.57,6.14,.96c3.52,.39,7.94,.61,11.56-.1l-.04-.22c-3.58,.7-7.98,.49-11.49,.09-1.75-.2-3.28-.44-4.37-.63-.54-.1-.98-.18-1.28-.24-.3-.06-.46-.09-.46-.09l-.05,.22h0Z"/><polygon class="d" points="230.52 172.51 231.92 174.46 229.44 176.2 229.57 176.39 232.24 174.51 230.71 172.38 230.52 172.51 230.52 172.51"/><polygon class="d" points="233.38 172.78 234.72 174.65 232.64 176.47 232.79 176.63 235.03 174.68 233.57 172.65 233.38 172.78 233.38 172.78"/><polygon class="d" points="235.98 173.12 237.32 174.98 235.24 176.8 235.39 176.97 237.63 175.02 236.17 172.99 235.98 173.12 235.98 173.12"/><polygon class="d" points="239.06 173.11 240.4 174.97 238.32 176.79 238.47 176.96 240.71 175.01 239.25 172.98 239.06 173.11 239.06 173.11"/></g><g><path class="c" d="M106.13,164.84h0s12.02-7.61-.33-18.34c-12,8.78,.33,18.34,.33,18.34Z"/><path class="d" d="M105.82,163.57s.43-2.61,.63-6.08c.2-3.47,.17-7.81-.75-11.29l-.22,.06c.91,3.43,.94,7.76,.75,11.22-.1,1.73-.26,3.25-.39,4.33-.07,.54-.13,.97-.17,1.27-.04,.3-.07,.46-.07,.46l.23,.03h0Z"/><polygon class="d" points="104.37 160.03 106.26 158.48 108.17 160.75 108.35 160.6 106.3 158.16 104.23 159.86 104.37 160.03 104.37 160.03"/><polygon class="d" points="104.49 157.21 106.3 155.73 108.26 157.59 108.42 157.43 106.31 155.42 104.34 157.04 104.49 157.21 104.49 157.21"/><polygon class="d" points="104.68 154.64 106.49 153.16 108.45 155.02 108.61 154.86 106.51 152.85 104.54 154.47 104.68 154.64 104.68 154.64"/><polygon class="d" points="104.5 151.63 106.31 150.15 108.27 152.01 108.43 151.85 106.32 149.84 104.35 151.45 104.5 151.63 104.5 151.63"/></g><g><path class="c" d="M309,164.9h0s13.42-1.6,7.36-16.73c-13.88,2.67-7.37,16.73-7.37,16.73Z"/><path class="d" d="M309.26,163.62s1.45-2.17,3.07-5.22c1.62-3.05,3.4-6.99,4.06-10.54l-.22-.04c-.65,3.5-2.43,7.43-4.04,10.47-.81,1.52-1.57,2.82-2.13,3.74-.28,.46-.51,.83-.67,1.08-.16,.25-.25,.38-.25,.38l.18,.13h0Z"/><polygon class="d" points="309.5 159.78 311.76 159.21 312.44 162.1 312.65 162.04 311.92 158.94 309.45 159.56 309.5 159.78 309.5 159.78"/><polygon class="d" points="310.78 157.28 312.94 156.73 313.83 159.28 314.03 159.2 313.08 156.47 310.72 157.06 310.78 157.28 310.78 157.28"/><polygon class="d" points="312.01 155.04 314.17 154.5 315.06 157.04 315.27 156.97 314.31 154.23 311.96 154.82 312.01 155.04 312.01 155.04"/><polygon class="d" points="313.11 152.24 315.27 151.69 316.16 154.24 316.37 154.16 315.41 151.42 313.06 152.02 313.11 152.24 313.11 152.24"/></g><g><path class="c" d="M428.71,160.72h0s13.82-1.61,7.63-17.17c-14.31,2.7-7.63,17.17-7.63,17.17Z"/><path class="d" d="M428.99,159.4s1.5-2.23,3.18-5.36c1.67-3.13,3.52-7.17,4.21-10.82l-.22-.04c-.68,3.6-2.52,7.63-4.19,10.75-.83,1.56-1.63,2.9-2.21,3.84-.29,.47-.53,.85-.7,1.1-.17,.26-.26,.39-.26,.39l.19,.13h0Z"/><polygon class="d" points="429.25 155.46 431.57 154.88 432.27 157.85 432.49 157.79 431.74 154.6 429.19 155.23 429.25 155.46 429.25 155.46"/><polygon class="d" points="430.57 152.89 432.79 152.34 433.7 154.96 433.92 154.88 432.94 152.06 430.51 152.67 430.57 152.89 430.57 152.89"/><polygon class="d" points="431.85 150.6 434.07 150.04 434.98 152.66 435.2 152.59 434.22 149.77 431.79 150.37 431.85 150.6 431.85 150.6"/><polygon class="d" points="432.98 147.72 435.21 147.16 436.12 149.78 436.34 149.71 435.36 146.89 432.93 147.49 432.98 147.72 432.98 147.72"/></g><g><path class="c" d="M262.53,167.67h0s11.14-7.48-.77-17.29c-11.09,8.58,.77,17.29,.77,17.29Z"/><path class="d" d="M262.2,166.48s.34-2.47,.44-5.75c.1-3.28-.04-7.37-.99-10.62l-.21,.06c.95,3.21,1.09,7.29,.98,10.56-.05,1.63-.16,3.07-.26,4.09-.05,.51-.09,.92-.13,1.2-.03,.28-.05,.43-.05,.43l.22,.02h0Z"/><polygon class="d" points="260.75 163.18 262.49 161.67 264.35 163.76 264.51 163.62 262.51 161.37 260.61 163.02 260.75 163.18 260.75 163.18"/><polygon class="d" points="260.78 160.52 262.45 159.07 264.35 160.78 264.5 160.63 262.46 158.79 260.64 160.36 260.78 160.52 260.78 160.52"/><polygon class="d" points="260.9 158.09 262.57 156.65 264.47 158.36 264.62 158.2 262.58 156.36 260.76 157.93 260.9 158.09 260.9 158.09"/><polygon class="d" points="260.65 155.25 262.32 153.81 264.22 155.52 264.37 155.36 262.33 153.52 260.51 155.09 260.65 155.25 260.65 155.25"/></g><g><path class="c" d="M213.12,169.27h0s10.38-11.5-5.71-19.14c-10.02,12.72,5.71,19.14,5.71,19.14Z"/><path class="d" d="M212.42,168.04s-.31-2.86-1.12-6.56c-.81-3.7-2.11-8.24-4.09-11.61l-.22,.13c1.96,3.33,3.26,7.86,4.06,11.54,.4,1.84,.68,3.48,.86,4.65,.09,.59,.15,1.06,.2,1.38,.04,.32,.06,.5,.06,.5l.25-.03h0Z"/><polygon class="d" points="209.86 164.75 211.39 162.57 214.06 164.39 214.2 164.18 211.33 162.22 209.66 164.61 209.86 164.75 209.86 164.75"/><polygon class="d" points="209.16 161.75 210.62 159.67 213.22 161.05 213.35 160.83 210.55 159.35 208.95 161.62 209.16 161.75 209.16 161.75"/><polygon class="d" points="208.61 159 210.07 156.92 212.68 158.3 212.8 158.08 210 156.6 208.41 158.86 208.61 159 208.61 159"/><polygon class="d" points="207.53 155.9 209 153.81 211.6 155.2 211.72 154.98 208.93 153.49 207.33 155.76 207.53 155.9 207.53 155.9"/></g><g><path class="c" d="M332.77,167.14h0s15.08,.77,10.96-16.09c-15.78,.25-10.96,16.09-10.96,16.09Z"/><path class="d" d="M333.28,165.84s1.97-2,4.27-4.88c2.3-2.89,4.93-6.66,6.26-10.24l-.23-.08c-1.31,3.53-3.93,7.3-6.23,10.17-1.15,1.44-2.21,2.66-2.99,3.51-.39,.43-.71,.77-.93,1-.22,.23-.34,.35-.34,.35l.18,.17h0Z"/><polygon class="d" points="334.19 161.89 336.78 161.71 337.04 164.84 337.29 164.82 337 161.45 334.17 161.65 334.19 161.89 334.19 161.89"/><polygon class="d" points="336.02 159.52 338.5 159.34 339.05 162.16 339.29 162.12 338.7 159.09 336 159.28 336.02 159.52 336.02 159.52"/><polygon class="d" points="337.76 157.41 340.24 157.23 340.79 160.05 341.04 160.01 340.44 156.98 337.74 157.17 337.76 157.41 337.76 157.41"/><polygon class="d" points="339.45 154.69 341.93 154.51 342.48 157.33 342.72 157.29 342.13 154.26 339.43 154.45 339.45 154.69 339.45 154.69"/></g><g><path class="c" d="M291.34,149.3h0s4.22-12.97-11.46-13.34c-3.49,13.82,11.45,13.34,11.45,13.34Z"/><path class="d" d="M290.34,148.55s-1.28-2.19-3.25-4.87c-1.98-2.69-4.65-5.87-7.45-7.87l-.13,.18c2.77,1.98,5.44,5.15,7.41,7.82,.98,1.34,1.8,2.55,2.36,3.43,.28,.44,.5,.8,.65,1.04,.15,.25,.23,.38,.23,.38l.19-.12h0Z"/><polygon class="d" points="287.1 146.82 287.55 144.52 290.35 145.03 290.39 144.81 287.38 144.27 286.89 146.78 287.1 146.82 287.1 146.82"/><polygon class="d" points="285.46 144.67 285.9 142.47 288.48 142.65 288.5 142.43 285.72 142.23 285.25 144.63 285.46 144.67 285.46 144.67"/><polygon class="d" points="284.04 142.65 284.47 140.45 287.06 140.63 287.07 140.41 284.29 140.22 283.82 142.62 284.04 142.65 284.04 142.65"/><polygon class="d" points="282.06 140.54 282.49 138.34 285.08 138.52 285.1 138.3 282.32 138.11 281.85 140.5 282.06 140.54 282.06 140.54"/></g><g><path class="c" d="M276.38,176.07h0s9.36,4.36,11.07-7.39c-10.06-3.88-11.07,7.39-11.07,7.39Z"/><path class="d" d="M277.04,175.38s1.76-.76,3.96-2c2.2-1.24,4.83-2.96,6.59-4.88l-.13-.11c-1.74,1.9-4.36,3.62-6.55,4.85-1.1,.62-2.08,1.12-2.79,1.46-.36,.17-.64,.31-.84,.4-.2,.09-.31,.14-.31,.14l.07,.15h0Z"/><polygon class="d" points="278.63 173.11 280.32 173.66 279.68 175.71 279.84 175.76 280.52 173.55 278.68 172.95 278.63 173.11 278.63 173.11"/><polygon class="d" points="280.4 172.07 282.01 172.6 281.64 174.52 281.8 174.56 282.2 172.49 280.45 171.92 280.4 172.07 280.4 172.07"/><polygon class="d" points="282.04 171.19 283.66 171.71 283.28 173.64 283.45 173.67 283.85 171.6 282.09 171.03 282.04 171.19 282.04 171.19"/><polygon class="d" points="283.81 169.89 285.42 170.42 285.05 172.34 285.21 172.38 285.61 170.31 283.86 169.74 283.81 169.89 283.81 169.89"/></g><g><path class="c" d="M310.19,169.92h0s-1.39-10.23-12.2-5.32c2.17,10.56,12.2,5.32,12.2,5.32Z"/><path class="d" d="M309.26,169.75s-1.59-1.07-3.82-2.25c-2.23-1.18-5.1-2.47-7.67-2.91l-.03,.17c2.54,.43,5.4,1.72,7.62,2.89,1.11,.59,2.06,1.15,2.74,1.56,.34,.21,.6,.38,.79,.5,.18,.12,.28,.18,.28,.18l.09-.14h0Z"/><polygon class="d" points="306.49 169.63 306.04 167.92 308.11 167.34 308.07 167.18 305.84 167.8 306.33 169.68 306.49 169.63 306.49 169.63"/><polygon class="d" points="304.66 168.7 304.23 167.06 306.05 166.33 305.99 166.18 304.04 166.96 304.51 168.75 304.66 168.7 304.66 168.7"/><polygon class="d" points="303.03 167.8 302.6 166.16 304.42 165.43 304.36 165.27 302.4 166.06 302.87 167.84 303.03 167.8 303.03 167.8"/><polygon class="d" points="300.99 167.01 300.55 165.37 302.38 164.64 302.32 164.49 300.36 165.27 300.83 167.06 300.99 167.01 300.99 167.01"/></g><g><path class="c" d="M341.62,178.79h0s13.66,.91,10.15-14.43c-14.3,.01-10.15,14.43-10.15,14.43Z"/><path class="d" d="M342.1,177.63s1.81-1.78,3.94-4.37c2.12-2.59,4.56-5.97,5.82-9.19l-.21-.08c-1.24,3.18-3.67,6.56-5.78,9.14-1.06,1.29-2.04,2.38-2.76,3.14-.36,.38-.65,.69-.85,.89-.2,.21-.31,.32-.31,.32l.16,.15h0Z"/><polygon class="d" points="342.98 174.05 345.33 173.92 345.52 176.77 345.75 176.75 345.53 173.69 342.97 173.84 342.98 174.05 342.98 174.05"/><polygon class="d" points="344.67 171.93 346.92 171.8 347.38 174.36 347.6 174.33 347.1 171.58 344.66 171.71 344.67 171.93 344.67 171.93"/><polygon class="d" points="346.28 170.04 348.53 169.92 348.99 172.48 349.21 172.44 348.71 169.69 346.26 169.83 346.28 170.04 346.28 170.04"/><polygon class="d" points="347.84 167.6 350.09 167.47 350.55 170.03 350.77 170 350.28 167.25 347.83 167.38 347.84 167.6 347.84 167.6"/></g><g><path class="c" d="M388.76,166.05h0s12.98,1.98,10.87-12.97c-13.67-1.15-10.88,12.97-10.88,12.97Z"/><path class="d" d="M389.3,164.98s1.88-1.56,4.12-3.85c2.24-2.3,4.85-5.33,6.31-8.31l-.19-.09c-1.44,2.94-4.04,5.97-6.27,8.26-1.12,1.14-2.14,2.1-2.89,2.78-.37,.34-.68,.6-.89,.78-.21,.18-.33,.28-.33,.28l.14,.16h0Z"/><polygon class="d" points="390.44 161.64 392.69 161.71 392.65 164.44 392.86 164.44 392.91 161.51 390.44 161.43 390.44 161.64 390.44 161.64"/><polygon class="d" points="392.23 159.75 394.39 159.81 394.62 162.29 394.83 162.28 394.58 159.61 392.23 159.54 392.23 159.75 392.23 159.75"/><polygon class="d" points="393.92 158.08 396.08 158.14 396.31 160.62 396.52 160.61 396.27 157.94 393.92 157.87 393.92 158.08 393.92 158.08"/><polygon class="d" points="395.61 155.87 397.77 155.93 398.01 158.42 398.22 158.4 397.97 155.73 395.62 155.66 395.61 155.87 395.61 155.87"/></g><g><path class="c" d="M355.09,154.25h0s12.94,6.54,15.87-9.87c-13.95-5.91-15.88,9.87-15.88,9.87Z"/><path class="d" d="M356.03,153.31s2.51-.99,5.65-2.63c3.14-1.64,6.92-3.93,9.48-6.56l-.17-.16c-2.53,2.59-6.29,4.88-9.42,6.51-1.57,.82-2.97,1.47-3.99,1.92-.51,.23-.92,.4-1.2,.52-.28,.12-.44,.18-.44,.18l.09,.22h0Z"/><polygon class="d" points="358.38 150.2 360.72 151.04 359.73 153.89 359.96 153.97 361.02 150.91 358.45 149.98 358.38 150.2 358.38 150.2"/><polygon class="d" points="360.9 148.82 363.15 149.63 362.54 152.32 362.77 152.38 363.42 149.49 360.98 148.61 360.9 148.82 360.9 148.82"/><polygon class="d" points="363.25 147.65 365.5 148.46 364.89 151.15 365.12 151.21 365.77 148.32 363.33 147.43 363.25 147.65 363.25 147.65"/><polygon class="d" points="365.79 145.92 368.03 146.73 367.43 149.41 367.65 149.47 368.31 146.58 365.87 145.7 365.79 145.92 365.79 145.92"/></g><g><path class="c" d="M412.9,167.57h0s9.12-9.96-4.86-16.71c-8.81,11.02,4.85,16.71,4.85,16.71Z"/><path class="d" d="M412.3,166.49s-.25-2.5-.93-5.73c-.68-3.23-1.78-7.19-3.49-10.15l-.19,.11c1.69,2.92,2.79,6.87,3.47,10.08,.34,1.61,.57,3.04,.72,4.06,.07,.51,.13,.92,.16,1.21,.03,.28,.05,.44,.05,.44l.22-.03h0Z"/><polygon class="d" points="410.09 163.6 411.44 161.72 413.75 163.32 413.88 163.14 411.39 161.42 409.92 163.48 410.09 163.6 410.09 163.6"/><polygon class="d" points="409.5 160.99 410.79 159.19 413.05 160.41 413.15 160.22 410.73 158.9 409.32 160.87 409.5 160.99 409.5 160.99"/><polygon class="d" points="409.04 158.59 410.33 156.79 412.59 158.01 412.7 157.82 410.27 156.5 408.86 158.47 409.04 158.59 409.04 158.59"/><polygon class="d" points="408.12 155.88 409.41 154.07 411.67 155.3 411.78 155.1 409.35 153.79 407.95 155.76 408.12 155.88 408.12 155.88"/></g><g><path class="c" d="M386.09,178.25h0s.15-13.85-15.16-9.45c.81,14.45,15.15,9.45,15.15,9.45Z"/><path class="d" d="M384.89,177.83s-1.9-1.73-4.63-3.74c-2.73-2-6.29-4.28-9.62-5.36l-.07,.21c3.29,1.07,6.83,3.34,9.56,5.33,1.36,1,2.52,1.93,3.33,2.61,.41,.34,.73,.62,.95,.81,.22,.19,.34,.3,.34,.3l.15-.17h0Z"/><polygon class="d" points="381.23 177.14 380.96 174.77 383.83 174.42 383.8 174.19 380.72 174.58 381.01 177.17 381.23 177.14 381.23 177.14"/><polygon class="d" points="378.98 175.55 378.73 173.29 381.29 172.67 381.25 172.46 378.49 173.11 378.77 175.58 378.98 175.55 378.98 175.55"/><polygon class="d" points="376.99 174.03 376.74 171.77 379.3 171.16 379.25 170.94 376.5 171.59 376.77 174.06 376.99 174.03 376.99 174.03"/><polygon class="d" points="374.43 172.59 374.18 170.32 376.74 169.71 376.69 169.49 373.94 170.15 374.21 172.61 374.43 172.59 374.43 172.59"/></g><g><path class="c" d="M82.88,183.01h0s2.9-13.87-13.33-12.48c-2.05,14.66,13.33,12.48,13.33,12.48Z"/><path class="d" d="M81.76,182.36s-1.57-2.12-3.91-4.67c-2.34-2.55-5.46-5.54-8.59-7.29l-.11,.2c3.09,1.73,6.2,4.7,8.53,7.24,1.17,1.27,2.14,2.43,2.82,3.28,.34,.42,.61,.77,.79,1,.18,.24,.28,.37,.28,.37l.18-.14h0Z"/><polygon class="d" points="78.22 180.94 78.43 178.51 81.37 178.72 81.39 178.49 78.22 178.27 78 180.92 78.22 180.94 78.22 180.94"/><polygon class="d" points="76.29 178.9 76.48 176.58 79.17 176.47 79.17 176.24 76.28 176.35 76.06 178.88 76.29 178.9 76.29 178.9"/><polygon class="d" points="74.59 176.98 74.78 174.66 77.47 174.55 77.47 174.32 74.58 174.43 74.36 176.96 74.59 176.98 74.59 176.98"/><polygon class="d" points="72.31 175.02 72.5 172.7 75.19 172.59 75.19 172.36 72.3 172.48 72.08 175 72.31 175.02 72.31 175.02"/></g><g><path class="c" d="M31.34,166.98h0s15.14-3.27,6.54-18.87c-15.56,4.47-6.54,18.87-6.54,18.87Z"/><path class="d" d="M31.49,165.56s1.42-2.51,2.92-5.98c1.51-3.48,3.1-7.92,3.46-11.82l-.25-.02c-.35,3.85-1.94,8.28-3.44,11.74-.75,1.73-1.48,3.22-2.02,4.28-.27,.53-.49,.95-.65,1.24-.16,.29-.24,.44-.24,.44l.22,.12h0Z"/><polygon class="d" points="31.34 161.4 33.86 160.53 34.96 163.56 35.19 163.47 34.01 160.21 31.26 161.17 31.34 161.4 31.34 161.4"/><polygon class="d" points="32.52 158.56 34.92 157.72 36.23 160.36 36.45 160.26 35.05 157.42 32.43 158.33 32.52 158.56 32.52 158.56"/><polygon class="d" points="33.68 156 36.09 155.17 37.39 157.81 37.62 157.7 36.22 154.86 33.6 155.77 33.68 156 33.68 156"/><polygon class="d" points="34.62 152.86 37.03 152.02 38.33 154.66 38.56 154.56 37.16 151.72 34.54 152.63 34.62 152.86 34.62 152.86"/></g><g><path class="c" d="M162.65,171.56h0s4.09,11.78,20.39,3.3c-5.38-11.98-20.39-3.3-20.39-3.3Z"/><path class="d" d="M164.17,171.54s2.73,.88,6.5,1.73c3.77,.85,8.57,1.67,12.74,1.56v-.2c-4.11,.11-8.9-.71-12.65-1.55-1.88-.42-3.49-.85-4.64-1.18-.57-.16-1.03-.3-1.34-.39-.31-.1-.48-.15-.48-.15l-.12,.19h0Z"/><polygon class="d" points="168.6 171 169.63 172.92 166.44 174.11 166.54 174.29 169.97 173.01 168.84 170.91 168.6 171 168.6 171"/><polygon class="d" points="171.68 171.65 172.66 173.48 169.9 174.8 170.02 174.97 172.99 173.56 171.92 171.55 171.68 171.65 171.68 171.65"/><polygon class="d" points="174.45 172.31 175.43 174.15 172.67 175.46 172.79 175.64 175.76 174.22 174.69 172.22 174.45 172.31 174.45 172.31"/><polygon class="d" points="177.84 172.74 178.83 174.58 176.06 175.89 176.18 176.07 179.16 174.65 178.08 172.65 177.84 172.74 177.84 172.74"/></g><g><path class="c" d="M80.59,179.87h0s13.66,.91,10.15-14.43c-14.3,.01-10.15,14.43-10.15,14.43Z"/><path class="d" d="M81.07,178.71s1.81-1.78,3.94-4.37c2.12-2.59,4.56-5.97,5.82-9.19l-.21-.08c-1.24,3.18-3.67,6.56-5.78,9.14-1.06,1.29-2.04,2.38-2.76,3.14-.36,.38-.65,.69-.85,.89-.2,.21-.31,.32-.31,.32l.16,.15h0Z"/><polygon class="d" points="81.95 175.14 84.3 175.01 84.49 177.85 84.72 177.84 84.51 174.78 81.94 174.92 81.95 175.14 81.95 175.14"/><polygon class="d" points="83.64 173.01 85.89 172.89 86.35 175.45 86.57 175.41 86.07 172.66 83.63 172.8 83.64 173.01 83.64 173.01"/><polygon class="d" points="85.25 171.13 87.5 171 87.96 173.56 88.18 173.53 87.68 170.78 85.23 170.91 85.25 171.13 85.25 171.13"/><polygon class="d" points="86.81 168.68 89.06 168.56 89.53 171.12 89.74 171.08 89.25 168.33 86.8 168.47 86.81 168.68 86.81 168.68"/></g><g><path class="c" d="M436.33,176.08h0s9.22,10.12,17.32-3.37c-10.32-9.9-17.32,3.37-17.32,3.37Z"/><path class="d" d="M437.48,175.57s2.54-.03,5.87-.42c3.32-.39,7.43-1.14,10.56-2.6l-.1-.2c-3.1,1.44-7.19,2.19-10.5,2.58-1.66,.19-3.12,.3-4.16,.36-.52,.03-.94,.04-1.23,.05-.29,0-.45,.01-.45,.01v.22h0Z"/><polygon class="d" points="440.59 173.61 442.37 175.14 440.55 177.33 440.71 177.47 442.68 175.12 440.73 173.44 440.59 173.61 440.59 173.61"/><polygon class="d" points="443.28 173.25 444.99 174.71 443.55 176.88 443.73 177.01 445.28 174.68 443.42 173.08 443.28 173.25 443.28 173.25"/><polygon class="d" points="445.75 173 447.45 174.47 446.01 176.64 446.2 176.76 447.74 174.43 445.89 172.84 445.75 173 445.75 173"/><polygon class="d" points="448.57 172.32 450.28 173.79 448.84 175.96 449.02 176.09 450.57 173.76 448.71 172.16 448.57 172.32 448.57 172.32"/></g><g><path class="c" d="M480.44,161.64h0s1.56-13.6-13.93-10.83c-.67,14.28,13.93,10.83,13.93,10.83Z"/><path class="d" d="M479.3,161.11s-1.69-1.9-4.17-4.14c-2.48-2.25-5.75-4.84-8.9-6.25l-.09,.2c3.12,1.39,6.38,3.98,8.85,6.21,1.24,1.12,2.28,2.15,3.01,2.9,.37,.38,.65,.68,.85,.89,.2,.21,.3,.33,.3,.33l.16-.15h0Z"/><polygon class="d" points="475.77 160.06 475.76 157.71 478.6 157.65 478.6 157.42 475.54 157.49 475.56 160.06 475.77 160.06 475.77 160.06"/><polygon class="d" points="473.73 158.27 473.71 156.02 476.29 155.68 476.27 155.46 473.5 155.82 473.51 158.27 473.73 158.27 473.73 158.27"/><polygon class="d" points="471.92 156.57 471.91 154.32 474.49 153.98 474.46 153.76 471.69 154.12 471.71 156.57 471.92 156.57 471.92 156.57"/><polygon class="d" points="469.56 154.89 469.54 152.64 472.12 152.3 472.1 152.08 469.32 152.44 469.34 154.89 469.56 154.89 469.56 154.89"/></g><g><path class="c" d="M494.38,170.03h0s7.03,11.75,17.64,.13c-8.15-11.75-17.64-.13-17.64-.13Z"/><path class="d" d="M495.6,169.76s2.5,.48,5.83,.75c3.34,.28,7.51,.35,10.87-.45l-.05-.22c-3.32,.79-7.48,.72-10.8,.45-1.66-.14-3.12-.32-4.15-.48-.52-.08-.93-.14-1.22-.19-.29-.05-.44-.08-.44-.08l-.04,.22h0Z"/><polygon class="d" points="499.04 168.46 500.49 170.31 498.26 172.09 498.4 172.27 500.79 170.35 499.21 168.32 499.04 168.46 499.04 168.46"/><polygon class="d" points="501.75 168.64 503.14 170.41 501.29 172.25 501.45 172.41 503.43 170.44 501.92 168.5 501.75 168.64 501.75 168.64"/><polygon class="d" points="504.22 168.89 505.6 170.66 503.76 172.5 503.91 172.66 505.89 170.68 504.39 168.75 504.22 168.89 504.22 168.89"/><polygon class="d" points="507.12 168.78 508.5 170.56 506.66 172.4 506.81 172.56 508.79 170.58 507.29 168.65 507.12 168.78 507.12 168.78"/></g><g><path class="c" d="M527.04,168.29h0s9.92-9.43-3.75-17.24c-9.68,10.53,3.74,17.24,3.74,17.24Z"/><path class="d" d="M526.51,167.15s-.08-2.54-.55-5.86c-.46-3.31-1.3-7.4-2.82-10.51l-.2,.1c1.5,3.07,2.34,7.14,2.8,10.44,.23,1.65,.37,3.11,.44,4.16,.04,.52,.06,.94,.08,1.23,.01,.29,.02,.45,.02,.45h.22Z"/><polygon class="d" points="524.48 164.08 525.97 162.27 528.2 164.05 528.34 163.87 525.94 161.96 524.31 163.94 524.48 164.08 524.48 164.08"/><polygon class="d" points="524.06 161.4 525.49 159.66 527.69 161.05 527.81 160.87 525.45 159.37 523.89 161.26 524.06 161.4 524.06 161.4"/><polygon class="d" points="523.76 158.94 525.19 157.2 527.39 158.59 527.51 158.41 525.15 156.91 523.59 158.8 523.76 158.94 523.76 158.94"/><polygon class="d" points="523.02 156.13 524.45 154.39 526.65 155.79 526.77 155.6 524.41 154.1 522.85 155.99 523.02 156.13 523.02 156.13"/></g></g></svg>