<?xml version="1.0" encoding="UTF-8"?><svg xmlns="http://www.w3.org/2000/svg" viewBox="0 0 555.26 262"><defs><style>.c{fill:#afa57d;}.d{fill:#777159;}</style></defs><g id="a"><g><path class="c" d="M67.05,174.49l-3.61-21.96h-17.51l-3.2,21.96h-9.59l13.48-86.46h15.15l14.87,86.46h-9.59Zm-20.02-30.16h15.15l-8.06-49.62-7.09,49.62Z"/><path class="c" d="M121.12,113.61h-9.59v-13.07c0-1.85-.28-3.03-.83-3.54-.56-.51-1.72-.76-3.47-.76h-7.65c-1.85,0-3.04,.26-3.54,.76s-.76,1.69-.76,3.54v61.58c0,1.76,.25,2.92,.76,3.48,.51,.56,1.69,.83,3.54,.83h7.65c1.76,0,2.92-.28,3.47-.83,.56-.56,.83-1.71,.83-3.48v-13.07h9.59v14.6c0,7.32-3.66,10.98-10.98,10.98h-13.48c-7.32,0-10.98-3.66-10.98-10.98V99.01c0-7.32,3.66-10.98,10.98-10.98h13.48c7.32,0,10.98,3.66,10.98,10.98v14.6Z"/><path class="c" d="M169.07,113.61h-9.59v-13.07c0-1.85-.28-3.03-.83-3.54-.56-.51-1.72-.76-3.47-.76h-7.65c-1.85,0-3.04,.26-3.54,.76s-.76,1.69-.76,3.54v61.58c0,1.76,.25,2.92,.76,3.48,.51,.56,1.69,.83,3.54,.83h7.65c1.76,0,2.92-.28,3.47-.83,.56-.56,.83-1.71,.83-3.48v-13.07h9.59v14.6c0,7.32-3.66,10.98-10.98,10.98h-13.48c-7.32,0-10.98-3.66-10.98-10.98V99.01c0-7.32,3.66-10.98,10.98-10.98h13.48c7.32,0,10.98,3.66,10.98,10.98v14.6Z"/><path class="c" d="M191.87,166.29h23.77v8.2h-33.36V88.03h32.39v8.2h-22.8v29.19h18.63v8.2h-18.63v32.67Z"/><path class="c" d="M248.72,161.98v-23.63c0-1.85-.28-3.03-.83-3.54-.56-.51-1.72-.76-3.47-.76h-9.45c-7.32,0-10.98-3.66-10.98-10.98v-24.05c0-7.32,3.66-10.98,10.98-10.98h12.23c7.32,0,10.98,3.66,10.98,10.98v13.34h-9.59v-11.82c0-1.85-.26-3.03-.76-3.54-.51-.51-1.69-.76-3.54-.76h-6.39c-1.85,0-3.04,.26-3.54,.76-.51,.51-.76,1.69-.76,3.54v20.99c0,1.76,.25,2.92,.76,3.48,.51,.56,1.69,.83,3.54,.83h9.45c7.32,0,10.98,3.66,10.98,10.98v26.69c0,7.32-3.66,10.98-10.98,10.98h-12.09c-7.32,0-10.98-3.66-10.98-10.98v-13.34h9.59v11.82c0,1.85,.25,3.04,.76,3.54,.51,.51,1.69,.76,3.54,.76h6.25c1.76,0,2.92-.25,3.47-.76,.56-.51,.83-1.69,.83-3.54Z"/><path class="c" d="M294.17,161.98v-23.63c0-1.85-.28-3.03-.83-3.54-.56-.51-1.72-.76-3.47-.76h-9.45c-7.32,0-10.98-3.66-10.98-10.98v-24.05c0-7.32,3.66-10.98,10.98-10.98h12.23c7.32,0,10.98,3.66,10.98,10.98v13.34h-9.59v-11.82c0-1.85-.26-3.03-.76-3.54-.51-.51-1.69-.76-3.54-.76h-6.39c-1.85,0-3.04,.26-3.54,.76-.51,.51-.76,1.69-.76,3.54v20.99c0,1.76,.25,2.92,.76,3.48,.51,.56,1.69,.83,3.54,.83h9.45c7.32,0,10.98,3.66,10.98,10.98v26.69c0,7.32-3.66,10.98-10.98,10.98h-12.09c-7.32,0-10.98-3.66-10.98-10.98v-13.34h9.59v11.82c0,1.85,.25,3.04,.76,3.54,.51,.51,1.69,.76,3.54,.76h6.25c1.76,0,2.92-.25,3.47-.76,.56-.51,.83-1.69,.83-3.54Z"/><path class="c" d="M327.25,88.03h14.18c7.32,0,10.98,3.66,10.98,10.98v64.5c0,7.32-3.66,10.98-10.98,10.98h-14.18c-7.32,0-10.98-3.66-10.98-10.98V99.01c0-7.32,3.66-10.98,10.98-10.98Zm15.71,73.95v-61.44c0-1.85-.28-3.03-.83-3.54-.56-.51-1.72-.76-3.47-.76h-8.62c-1.76,0-2.92,.26-3.47,.76-.56,.51-.83,1.69-.83,3.54v61.44c0,1.85,.28,3.04,.83,3.54,.56,.51,1.71,.76,3.47,.76h8.62c1.76,0,2.92-.25,3.47-.76,.56-.51,.83-1.69,.83-3.54Z"/><path class="c" d="M368.39,88.03h9.45v86.46h-9.45V88.03Z"/><path class="c" d="M403.98,138.35v36.14h-9.45V88.03h25.16c7.32,0,10.98,3.66,10.98,10.98v28.36c0,6.58-2.87,10.19-8.62,10.84l13.07,36.28h-10.29l-12.65-36.14h-8.2Zm0-42.12v33.92h12.93c1.85,0,3.03-.25,3.54-.76,.51-.51,.76-1.69,.76-3.54v-25.3c0-1.85-.26-3.03-.76-3.54-.51-.51-1.69-.76-3.54-.76h-12.93Z"/><path class="c" d="M454.71,166.29h23.77v8.2h-33.36V88.03h32.39v8.2h-22.8v29.19h18.63v8.2h-18.63v32.67Z"/><path class="c" d="M511.56,161.98v-23.63c0-1.85-.28-3.03-.83-3.54-.56-.51-1.72-.76-3.47-.76h-9.45c-7.32,0-10.98-3.66-10.98-10.98v-24.05c0-7.32,3.66-10.98,10.98-10.98h12.23c7.32,0,10.98,3.66,10.98,10.98v13.34h-9.59v-11.82c0-1.85-.26-3.03-.76-3.54-.51-.51-1.69-.76-3.54-.76h-6.39c-1.85,0-3.04,.26-3.54,.76-.51,.51-.76,1.69-.76,3.54v20.99c0,1.76,.25,2.92,.76,3.48,.51,.56,1.69,.83,3.54,.83h9.45c7.32,0,10.98,3.66,10.98,10.98v26.69c0,7.32-3.66,10.98-10.98,10.98h-12.09c-7.32,0-10.98-3.66-10.98-10.98v-13.34h9.59v11.82c0,1.85,.25,3.04,.76,3.54,.51,.51,1.69,.76,3.54,.76h6.25c1.76,0,2.92-.25,3.47-.76,.56-.51,.83-1.69,.83-3.54Z"/></g></g><g id="b"><g><path class="c" d="M152.75,128.83h0s5.67-13.7-11.13-15.3c-4.96,14.67,11.12,15.3,11.12,15.3Z"/><path class="d" d="M151.73,127.95s-1.18-2.46-3.06-5.52c-1.89-3.05-4.47-6.7-7.31-9.08l-.15,.19c2.8,2.35,5.39,5.98,7.26,9.02,.94,1.52,1.7,2.9,2.23,3.89,.26,.5,.47,.9,.61,1.18,.14,.28,.21,.43,.21,.43l.21-.11h0Z"/><polygon class="d" points="148.41 125.83 149.1 123.38 152.05 124.14 152.12 123.91 148.94 123.09 148.19 125.77 148.41 125.83 148.41 125.83"/><polygon class="d" points="146.84 123.38 147.5 121.03 150.26 121.43 150.3 121.19 147.33 120.77 146.62 123.32 146.84 123.38 146.84 123.38"/><polygon class="d" points="145.49 121.09 146.14 118.75 148.9 119.14 148.94 118.9 145.98 118.48 145.26 121.03 145.49 121.09 145.49 121.09"/><polygon class="d" points="143.55 118.66 144.21 116.31 146.97 116.7 147.01 116.47 144.04 116.05 143.32 118.6 143.55 118.66 143.55 118.66"/></g><g><path class="c" d="M78.43,113.13h0s-1.02-15.18-17.4-9.04c2.13,15.75,17.39,9.04,17.39,9.04Z"/><path class="d" d="M77.08,112.77s-2.23-1.73-5.39-3.69c-3.16-1.96-7.25-4.14-10.98-5.05l-.06,.24c3.69,.89,7.77,3.07,10.91,5.02,1.57,.98,2.92,1.9,3.87,2.57,.47,.34,.85,.61,1.11,.81,.26,.19,.4,.3,.4,.3l.15-.2h0Z"/><polygon class="d" points="73.01 112.33 72.52 109.76 75.62 109.13 75.58 108.88 72.24 109.57 72.78 112.38 73.01 112.33 73.01 112.33"/><polygon class="d" points="70.42 110.78 69.95 108.33 72.7 107.44 72.63 107.2 69.68 108.16 70.19 110.83 70.42 110.78 70.42 110.78"/><polygon class="d" points="68.11 109.29 67.64 106.83 70.39 105.95 70.32 105.71 67.36 106.66 67.87 109.34 68.11 109.29 68.11 109.29"/><polygon class="d" points="65.19 107.93 64.72 105.47 67.47 104.58 67.4 104.35 64.44 105.3 64.95 107.98 65.19 107.93 65.19 107.93"/></g><g><path class="c" d="M237.56,152.72h0s13.77-2.12,6.99-17.37c-14.21,3.23-6.99,17.37-6.99,17.37Z"/><path class="d" d="M237.78,151.4s1.42-2.27,2.98-5.45c1.56-3.18,3.25-7.27,3.81-10.92l-.22-.04c-.55,3.61-2.23,7.68-3.79,10.85-.78,1.58-1.52,2.94-2.06,3.9-.27,.48-.5,.86-.66,1.12-.16,.26-.24,.4-.24,.4l.19,.12h0Z"/><polygon class="d" points="237.89 147.47 240.2 146.81 241.01 149.73 241.22 149.67 240.36 146.52 237.83 147.25 237.89 147.47 237.89 147.47"/><polygon class="d" points="239.12 144.87 241.32 144.23 242.33 146.8 242.54 146.72 241.46 143.95 239.06 144.64 239.12 144.87 239.12 144.87"/><polygon class="d" points="240.31 142.54 242.52 141.9 243.53 144.47 243.74 144.39 242.65 141.62 240.25 142.31 240.31 142.54 240.31 142.54"/><polygon class="d" points="241.34 139.63 243.55 138.99 244.56 141.57 244.77 141.48 243.68 138.72 241.28 139.41 241.34 139.63 241.34 139.63"/></g><g><path class="c" d="M97.87,111.74h0s13.73,3.75,13.33-12.6c-14.57-2.95-13.33,12.6-13.33,12.6Z"/><path class="d" d="M98.59,110.66s2.22-1.44,4.92-3.63c2.7-2.19,5.89-5.14,7.83-8.16l-.2-.12c-1.92,2.99-5.09,5.92-7.78,8.11-1.35,1.09-2.57,2-3.46,2.63-.44,.32-.8,.56-1.05,.73-.25,.17-.39,.26-.39,.26l.13,.19h0Z"/><polygon class="d" points="100.23 107.2 102.65 107.56 102.26 110.49 102.49 110.52 102.91 107.37 100.26 106.98 100.23 107.2 100.23 107.2"/><polygon class="d" points="102.39 105.39 104.71 105.72 104.65 108.43 104.88 108.44 104.94 105.53 102.42 105.16 102.39 105.39 102.39 105.39"/><polygon class="d" points="104.42 103.8 106.74 104.14 106.68 106.84 106.91 106.85 106.97 103.94 104.45 103.57 104.42 103.8 104.42 103.8"/><polygon class="d" points="106.52 101.63 108.84 101.97 108.78 104.67 109.01 104.68 109.07 101.78 106.55 101.41 106.52 101.63 106.52 101.63"/></g><g><path class="c" d="M310.14,117.07h0s13.42-1.6,7.36-16.73c-13.88,2.67-7.37,16.73-7.37,16.73Z"/><path class="d" d="M310.4,115.79s1.45-2.17,3.07-5.22c1.62-3.05,3.4-6.99,4.06-10.54l-.22-.04c-.65,3.5-2.43,7.43-4.04,10.47-.81,1.52-1.57,2.82-2.13,3.74-.28,.46-.51,.83-.67,1.08-.16,.25-.25,.38-.25,.38l.18,.13h0Z"/><polygon class="d" points="310.64 111.95 312.9 111.38 313.58 114.26 313.8 114.21 313.06 111.1 310.59 111.73 310.64 111.95 310.64 111.95"/><polygon class="d" points="311.92 109.45 314.08 108.9 314.97 111.45 315.18 111.37 314.22 108.63 311.87 109.23 311.92 109.45 311.92 109.45"/><polygon class="d" points="313.16 107.21 315.32 106.66 316.21 109.21 316.41 109.13 315.46 106.4 313.1 106.99 313.16 107.21 313.16 107.21"/><polygon class="d" points="314.25 104.4 316.41 103.86 317.31 106.41 317.51 106.33 316.55 103.59 314.2 104.18 314.25 104.4 314.25 104.4"/></g><g><path class="c" d="M437.96,123.91h0s7.35-11.82-8.68-16.67c-6.8,12.87,8.67,16.67,8.67,16.67Z"/><path class="d" d="M437.1,122.88s-.81-2.56-2.21-5.83c-1.41-3.26-3.42-7.22-5.83-10.04l-.17,.15c2.39,2.78,4.39,6.72,5.8,9.97,.7,1.63,1.25,3.08,1.63,4.12,.19,.52,.33,.94,.43,1.23,.1,.29,.15,.45,.15,.45l.22-.06h0Z"/><polygon class="d" points="434.18 120.21 435.18 118.03 437.93 119.34 438.02 119.14 435.06 117.73 433.97 120.11 434.18 120.21 434.18 120.21"/><polygon class="d" points="432.99 117.58 433.95 115.5 436.57 116.42 436.64 116.2 433.82 115.21 432.78 117.48 432.99 117.58 432.99 117.58"/><polygon class="d" points="432 115.15 432.95 113.07 435.57 113.99 435.64 113.77 432.82 112.78 431.79 115.05 432 115.15 432 115.15"/><polygon class="d" points="430.45 112.47 431.41 110.38 434.02 111.3 434.1 111.08 431.28 110.1 430.24 112.37 430.45 112.47 430.45 112.47"/></g><g><path class="c" d="M258.68,122.25h0s11.14-7.48-.77-17.29c-11.09,8.58,.77,17.29,.77,17.29Z"/><path class="d" d="M258.35,121.07s.34-2.47,.44-5.75c.1-3.28-.04-7.37-.99-10.62l-.21,.06c.95,3.21,1.09,7.29,.98,10.56-.05,1.63-.16,3.07-.26,4.09-.05,.51-.09,.92-.13,1.2-.03,.28-.05,.43-.05,.43l.22,.02h0Z"/><polygon class="d" points="256.9 117.76 258.64 116.26 260.5 118.34 260.66 118.2 258.67 115.95 256.76 117.6 256.9 117.76 256.9 117.76"/><polygon class="d" points="256.94 115.1 258.61 113.66 260.5 115.37 260.65 115.21 258.61 113.37 256.8 114.94 256.94 115.1 256.94 115.1"/><polygon class="d" points="257.06 112.67 258.73 111.23 260.62 112.94 260.77 112.78 258.73 110.94 256.91 112.51 257.06 112.67 257.06 112.67"/><polygon class="d" points="256.81 109.84 258.48 108.39 260.37 110.1 260.52 109.95 258.48 108.11 256.67 109.68 256.81 109.84 256.81 109.84"/></g><g><path class="c" d="M200.07,114.64h0s10.38-11.5-5.71-19.14c-10.02,12.72,5.71,19.14,5.71,19.14Z"/><path class="d" d="M199.37,113.41s-.31-2.86-1.12-6.56c-.81-3.7-2.11-8.24-4.09-11.61l-.22,.13c1.96,3.33,3.26,7.86,4.06,11.54,.4,1.84,.68,3.48,.86,4.65,.09,.59,.15,1.06,.2,1.38,.04,.32,.06,.5,.06,.5l.25-.03h0Z"/><polygon class="d" points="196.82 110.11 198.35 107.94 201.01 109.76 201.15 109.55 198.29 107.59 196.61 109.98 196.82 110.11 196.82 110.11"/><polygon class="d" points="196.11 107.12 197.58 105.04 200.18 106.42 200.3 106.2 197.5 104.72 195.91 106.98 196.11 107.12 196.11 107.12"/><polygon class="d" points="195.56 104.37 197.03 102.29 199.63 103.67 199.75 103.45 196.96 101.96 195.36 104.23 195.56 104.37 195.56 104.37"/><polygon class="d" points="194.49 101.27 195.95 99.18 198.55 100.57 198.68 100.35 195.88 98.86 194.29 101.13 194.49 101.27 194.49 101.27"/></g><g><path class="c" d="M332.25,121.72h0s15.08,.77,10.96-16.09c-15.78,.25-10.96,16.09-10.96,16.09Z"/><path class="d" d="M332.76,120.43s1.97-2,4.27-4.88c2.3-2.89,4.93-6.66,6.26-10.24l-.23-.08c-1.31,3.53-3.93,7.3-6.23,10.17-1.15,1.44-2.21,2.66-2.99,3.51-.39,.43-.71,.77-.93,1-.22,.23-.34,.35-.34,.35l.18,.17h0Z"/><polygon class="d" points="333.68 116.47 336.26 116.29 336.53 119.42 336.77 119.4 336.49 116.03 333.66 116.23 333.68 116.47 333.68 116.47"/><polygon class="d" points="335.5 114.1 337.98 113.92 338.53 116.74 338.78 116.7 338.18 113.67 335.48 113.86 335.5 114.1 335.5 114.1"/><polygon class="d" points="337.25 111.99 339.72 111.82 340.28 114.63 340.52 114.59 339.92 111.56 337.23 111.75 337.25 111.99 337.25 111.99"/><polygon class="d" points="338.93 109.27 341.41 109.09 341.96 111.91 342.21 111.87 341.61 108.84 338.91 109.03 338.93 109.27 338.93 109.27"/></g><g><path class="c" d="M289.68,111.36h0s4.22-12.97-11.46-13.34c-3.49,13.82,11.45,13.34,11.45,13.34Z"/><path class="d" d="M288.68,110.62s-1.28-2.19-3.25-4.87c-1.98-2.69-4.65-5.87-7.45-7.87l-.13,.18c2.77,1.98,5.44,5.15,7.41,7.82,.98,1.34,1.8,2.55,2.36,3.43,.28,.44,.5,.8,.65,1.04,.15,.25,.23,.38,.23,.38l.19-.12h0Z"/><polygon class="d" points="285.44 108.89 285.89 106.59 288.69 107.09 288.73 106.88 285.72 106.33 285.23 108.85 285.44 108.89 285.44 108.89"/><polygon class="d" points="283.81 106.73 284.24 104.53 286.82 104.71 286.84 104.49 284.06 104.3 283.59 106.69 283.81 106.73 283.81 106.73"/><polygon class="d" points="282.38 104.72 282.81 102.52 285.4 102.7 285.42 102.48 282.63 102.28 282.17 104.68 282.38 104.72 282.38 104.72"/><polygon class="d" points="280.4 102.61 280.83 100.41 283.42 100.59 283.44 100.37 280.66 100.17 280.19 102.57 280.4 102.61 280.4 102.61"/></g><g><path class="c" d="M279.25,144.48h0s9.36,4.36,11.07-7.39c-10.06-3.88-11.07,7.39-11.07,7.39Z"/><path class="d" d="M279.91,143.79s1.76-.76,3.96-2c2.2-1.24,4.83-2.96,6.59-4.88l-.13-.11c-1.74,1.9-4.36,3.62-6.55,4.85-1.1,.62-2.08,1.12-2.79,1.46-.36,.17-.64,.31-.84,.4-.2,.09-.31,.14-.31,.14l.07,.15h0Z"/><polygon class="d" points="281.5 141.52 283.19 142.07 282.55 144.12 282.71 144.17 283.39 141.96 281.55 141.37 281.5 141.52 281.5 141.52"/><polygon class="d" points="283.27 140.49 284.88 141.01 284.51 142.94 284.67 142.97 285.07 140.9 283.32 140.33 283.27 140.49 283.27 140.49"/><polygon class="d" points="284.91 139.6 286.53 140.12 286.15 142.05 286.32 142.08 286.72 140.01 284.96 139.44 284.91 139.6 284.91 139.6"/><polygon class="d" points="286.68 138.31 288.29 138.83 287.92 140.76 288.08 140.79 288.48 138.72 286.73 138.15 286.68 138.31 286.68 138.31"/></g><g><path class="c" d="M311.63,156.59h0s-1.39-10.23-12.2-5.32c2.17,10.56,12.2,5.32,12.2,5.32Z"/><path class="d" d="M310.7,156.41s-1.59-1.07-3.82-2.25c-2.23-1.18-5.1-2.47-7.67-2.91l-.03,.17c2.54,.43,5.4,1.72,7.62,2.89,1.11,.59,2.06,1.15,2.74,1.56,.34,.21,.6,.38,.79,.5,.18,.12,.28,.18,.28,.18l.09-.14h0Z"/><polygon class="d" points="307.93 156.3 307.48 154.58 309.55 154.01 309.51 153.85 307.28 154.46 307.77 156.34 307.93 156.3 307.93 156.3"/><polygon class="d" points="306.1 155.37 305.67 153.73 307.49 153 307.44 152.84 305.48 153.63 305.95 155.41 306.1 155.37 306.1 155.37"/><polygon class="d" points="304.47 154.47 304.04 152.82 305.86 152.09 305.8 151.94 303.84 152.72 304.31 154.51 304.47 154.47 304.47 154.47"/><polygon class="d" points="302.43 153.68 301.99 152.04 303.82 151.31 303.76 151.15 301.8 151.93 302.27 153.72 302.43 153.68 302.43 153.68"/></g><g><path class="c" d="M341.62,178.79h0s13.66,.91,10.15-14.43c-14.3,.01-10.15,14.43-10.15,14.43Z"/><path class="d" d="M342.1,177.63s1.81-1.78,3.94-4.37c2.12-2.59,4.56-5.97,5.82-9.19l-.21-.08c-1.24,3.18-3.67,6.56-5.78,9.14-1.06,1.29-2.04,2.38-2.76,3.14-.36,.38-.65,.69-.85,.89-.2,.21-.31,.32-.31,.32l.16,.15h0Z"/><polygon class="d" points="342.98 174.05 345.33 173.92 345.52 176.77 345.75 176.75 345.53 173.69 342.97 173.84 342.98 174.05 342.98 174.05"/><polygon class="d" points="344.67 171.93 346.92 171.8 347.38 174.36 347.6 174.33 347.1 171.58 344.66 171.71 344.67 171.93 344.67 171.93"/><polygon class="d" points="346.28 170.04 348.53 169.92 348.99 172.48 349.21 172.44 348.71 169.69 346.26 169.83 346.28 170.04 346.28 170.04"/><polygon class="d" points="347.84 167.6 350.09 167.47 350.55 170.03 350.77 170 350.28 167.25 347.83 167.38 347.84 167.6 347.84 167.6"/></g><g><path class="c" d="M384.57,112.19h0s12.98,1.98,10.87-12.97c-13.67-1.15-10.88,12.97-10.88,12.97Z"/><path class="d" d="M385.12,111.12s1.88-1.56,4.12-3.85c2.24-2.3,4.85-5.33,6.31-8.31l-.19-.09c-1.44,2.94-4.04,5.97-6.27,8.26-1.12,1.14-2.14,2.1-2.89,2.78-.37,.34-.68,.6-.89,.78-.21,.18-.33,.28-.33,.28l.14,.16h0Z"/><polygon class="d" points="386.26 107.78 388.51 107.85 388.47 110.58 388.68 110.58 388.73 107.64 386.26 107.57 386.26 107.78 386.26 107.78"/><polygon class="d" points="388.04 105.88 390.2 105.95 390.44 108.43 390.65 108.42 390.4 105.75 388.05 105.68 388.04 105.88 388.04 105.88"/><polygon class="d" points="389.74 104.21 391.89 104.28 392.13 106.76 392.34 106.75 392.09 104.08 389.74 104.01 389.74 104.21 389.74 104.21"/><polygon class="d" points="391.43 102.01 393.59 102.07 393.82 104.55 394.03 104.54 393.78 101.87 391.43 101.8 391.43 102.01 391.43 102.01"/></g><g><path class="c" d="M355.39,111.57h0s12.94,6.54,15.87-9.87c-13.95-5.91-15.88,9.87-15.88,9.87Z"/><path class="d" d="M356.33,110.64s2.51-.99,5.65-2.63c3.14-1.64,6.92-3.93,9.48-6.56l-.17-.16c-2.53,2.59-6.29,4.88-9.42,6.51-1.57,.82-2.97,1.47-3.99,1.92-.51,.23-.92,.4-1.2,.52-.28,.12-.44,.18-.44,.18l.09,.22h0Z"/><polygon class="d" points="358.67 107.52 361.02 108.37 360.03 111.22 360.25 111.3 361.31 108.23 358.75 107.3 358.67 107.52 358.67 107.52"/><polygon class="d" points="361.2 106.15 363.44 106.96 362.84 109.64 363.06 109.7 363.72 106.81 361.28 105.93 361.2 106.15 361.2 106.15"/><polygon class="d" points="363.55 104.97 365.79 105.78 365.19 108.47 365.41 108.53 366.07 105.64 363.63 104.76 363.55 104.97 363.55 104.97"/><polygon class="d" points="366.09 103.24 368.33 104.05 367.72 106.74 367.95 106.79 368.61 103.9 366.17 103.02 366.09 103.24 366.09 103.24"/></g><g><path class="c" d="M417.26,113.19h0s9.12-9.96-4.86-16.71c-8.81,11.02,4.85,16.71,4.85,16.71Z"/><path class="d" d="M416.66,112.11s-.25-2.5-.93-5.73c-.68-3.23-1.78-7.19-3.49-10.15l-.19,.11c1.69,2.92,2.79,6.87,3.47,10.08,.34,1.61,.57,3.04,.72,4.06,.07,.51,.13,.92,.16,1.21,.03,.28,.05,.44,.05,.44l.22-.03h0Z"/><polygon class="d" points="414.45 109.23 415.8 107.34 418.11 108.94 418.24 108.76 415.75 107.04 414.28 109.11 414.45 109.23 414.45 109.23"/><polygon class="d" points="413.86 106.62 415.15 104.81 417.41 106.03 417.51 105.84 415.09 104.53 413.68 106.49 413.86 106.62 413.86 106.62"/><polygon class="d" points="413.4 104.22 414.69 102.41 416.95 103.63 417.05 103.44 414.63 102.13 413.22 104.09 413.4 104.22 413.4 104.22"/><polygon class="d" points="412.48 101.5 413.77 99.7 416.03 100.92 416.14 100.73 413.71 99.42 412.31 101.38 412.48 101.5 412.48 101.5"/></g><g><path class="c" d="M384.42,145.29h0s7.47-11.67-7.85-16.04c-6.97,12.69,7.85,16.04,7.85,16.04Z"/><path class="d" d="M383.62,144.3s-.7-2.48-1.95-5.62c-1.26-3.15-3.07-6.96-5.31-9.64l-.17,.15c2.22,2.65,4.03,6.45,5.28,9.58,.63,1.57,1.11,2.97,1.44,3.98,.16,.5,.29,.91,.38,1.19,.08,.28,.13,.43,.13,.43l.21-.07h0Z"/><polygon class="d" points="380.89 141.77 381.92 139.63 384.53 140.84 384.63 140.64 381.81 139.33 380.69 141.68 380.89 141.77 380.89 141.77"/><polygon class="d" points="379.83 139.24 380.81 137.18 383.31 138.02 383.38 137.81 380.7 136.91 379.63 139.14 379.83 139.24 379.83 139.24"/><polygon class="d" points="378.94 136.89 379.92 134.84 382.42 135.68 382.5 135.46 379.81 134.56 378.74 136.8 378.94 136.89 378.94 136.89"/><polygon class="d" points="377.53 134.31 378.52 132.26 381.02 133.09 381.09 132.88 378.41 131.98 377.34 134.22 377.53 134.31 377.53 134.31"/></g><g><path class="c" d="M81.15,157.97h0s2.9-13.87-13.33-12.48c-2.05,14.66,13.33,12.48,13.33,12.48Z"/><path class="d" d="M80.03,157.31s-1.57-2.12-3.91-4.67c-2.34-2.55-5.46-5.54-8.59-7.29l-.11,.2c3.09,1.73,6.2,4.7,8.53,7.24,1.17,1.27,2.14,2.43,2.82,3.28,.34,.42,.61,.77,.79,1,.18,.24,.28,.37,.28,.37l.18-.14h0Z"/><polygon class="d" points="76.49 155.89 76.7 153.47 79.64 153.68 79.66 153.45 76.49 153.22 76.27 155.88 76.49 155.89 76.49 155.89"/><polygon class="d" points="74.56 153.85 74.75 151.53 77.45 151.43 77.44 151.2 74.55 151.31 74.33 153.84 74.56 153.85 74.56 153.85"/><polygon class="d" points="72.86 151.93 73.05 149.61 75.74 149.51 75.74 149.28 72.85 149.39 72.63 151.92 72.86 151.93 72.86 151.93"/><polygon class="d" points="70.58 149.98 70.77 147.66 73.46 147.55 73.46 147.32 70.57 147.43 70.35 149.96 70.58 149.98 70.58 149.98"/></g><g><path class="c" d="M30.04,132.91h0s13.82,7,16.97-10.53c-14.9-6.33-16.97,10.53-16.97,10.53Z"/><path class="d" d="M31.06,131.91s2.68-1.05,6.04-2.8c3.36-1.75,7.4-4.19,10.14-6.99l-.18-.17c-2.7,2.77-6.73,5.21-10.07,6.95-1.67,.87-3.18,1.57-4.26,2.05-.54,.24-.98,.43-1.28,.55-.3,.13-.47,.19-.47,.19l.1,.23h0Z"/><polygon class="d" points="33.56 128.59 36.06 129.49 35.01 132.54 35.24 132.62 36.38 129.35 33.64 128.35 33.56 128.59 33.56 128.59"/><polygon class="d" points="36.26 127.12 38.66 127.99 38.01 130.86 38.25 130.92 38.95 127.83 36.34 126.89 36.26 127.12 36.26 127.12"/><polygon class="d" points="38.77 125.87 41.17 126.74 40.52 129.61 40.76 129.67 41.46 126.58 38.86 125.64 38.77 125.87 38.77 125.87"/><polygon class="d" points="41.49 124.02 43.88 124.89 43.23 127.76 43.48 127.82 44.18 124.73 41.57 123.79 41.49 124.02 41.49 124.02"/></g><g><path class="c" d="M173.33,151.8h0s12.46,.26,10.18-17.97c-13.11,.88-10.18,17.97-10.18,17.97Z"/><path class="d" d="M173.84,150.37s1.77-2.25,3.88-5.49c2.1-3.24,4.55-7.46,5.89-11.4l-.19-.08c-1.33,3.9-3.76,8.11-5.86,11.33-1.05,1.61-2.01,2.98-2.72,3.95-.35,.48-.64,.86-.84,1.12-.2,.26-.31,.4-.31,.4l.14,.18h0Z"/><polygon class="d" points="174.87 146.02 177.02 145.72 177.03 149.13 177.24 149.1 177.23 145.44 174.87 145.76 174.87 146.02 174.87 146.02"/><polygon class="d" points="176.54 143.36 178.61 143.08 178.88 146.13 179.08 146.07 178.79 142.79 176.54 143.1 176.54 143.36 176.54 143.36"/><polygon class="d" points="178.13 141 180.2 140.71 180.47 143.76 180.67 143.71 180.38 140.43 178.13 140.74 178.13 141 178.13 141"/><polygon class="d" points="179.72 137.97 181.78 137.68 182.05 140.73 182.26 140.67 181.97 137.4 179.72 137.71 179.72 137.97 179.72 137.97"/></g><g><path class="c" d="M76.67,135.89h0s13.66,.91,10.15-14.43c-14.3,.01-10.15,14.43-10.15,14.43Z"/><path class="d" d="M77.15,134.73s1.81-1.78,3.94-4.37c2.12-2.59,4.56-5.97,5.82-9.19l-.21-.08c-1.24,3.18-3.67,6.56-5.78,9.14-1.06,1.29-2.04,2.38-2.76,3.14-.36,.38-.65,.69-.85,.89-.2,.21-.31,.32-.31,.32l.16,.15h0Z"/><polygon class="d" points="78.03 131.16 80.38 131.03 80.58 133.87 80.8 133.86 80.59 130.8 78.02 130.94 78.03 131.16 78.03 131.16"/><polygon class="d" points="79.72 129.03 81.97 128.91 82.43 131.47 82.65 131.43 82.15 128.68 79.71 128.81 79.72 129.03 79.72 129.03"/><polygon class="d" points="81.33 127.15 83.58 127.02 84.04 129.58 84.26 129.55 83.76 126.79 81.32 126.93 81.33 127.15 81.33 127.15"/><polygon class="d" points="82.9 124.7 85.14 124.58 85.61 127.14 85.83 127.1 85.33 124.35 82.88 124.48 82.9 124.7 82.9 124.7"/></g><g><path class="c" d="M433.73,144.28h0s12.85,4.7,13.79-11c-13.73-4-13.79,11-13.79,11Z"/><path class="d" d="M434.51,143.29s2.24-1.2,5.01-3.09c2.77-1.88,6.06-4.45,8.16-7.19l-.18-.13c-2.08,2.71-5.36,5.27-8.11,7.14-1.38,.94-2.63,1.71-3.53,2.24-.45,.27-.82,.48-1.07,.62-.25,.14-.39,.22-.39,.22l.11,.19h0Z"/><polygon class="d" points="436.36 140.11 438.65 140.65 438.04 143.43 438.26 143.48 438.91 140.49 436.41 139.9 436.36 140.11 436.36 140.11"/><polygon class="d" points="438.58 138.55 440.77 139.06 440.5 141.65 440.72 141.67 441.01 138.89 438.63 138.33 438.58 138.55 438.58 138.55"/><polygon class="d" points="440.65 137.19 442.85 137.7 442.57 140.29 442.79 140.32 443.09 137.53 440.7 136.98 440.65 137.19 440.65 137.19"/><polygon class="d" points="442.84 135.28 445.03 135.79 444.76 138.38 444.98 138.41 445.27 135.63 442.89 135.07 442.84 135.28 442.84 135.28"/></g><g><path class="c" d="M479.45,108.35h0s1.56-13.6-13.93-10.83c-.67,14.28,13.93,10.83,13.93,10.83Z"/><path class="d" d="M478.31,107.81s-1.69-1.9-4.17-4.14c-2.48-2.25-5.75-4.84-8.9-6.25l-.09,.2c3.12,1.39,6.38,3.98,8.85,6.21,1.24,1.12,2.28,2.15,3.01,2.9,.37,.38,.65,.68,.85,.89,.2,.21,.3,.33,.3,.33l.16-.15h0Z"/><polygon class="d" points="474.78 106.76 474.77 104.41 477.62 104.35 477.61 104.13 474.55 104.19 474.57 106.76 474.78 106.76 474.78 106.76"/><polygon class="d" points="472.74 104.97 472.73 102.72 475.31 102.38 475.28 102.16 472.51 102.52 472.53 104.97 472.74 104.97 472.74 104.97"/><polygon class="d" points="470.94 103.27 470.92 101.02 473.5 100.68 473.48 100.46 470.7 100.83 470.72 103.28 470.94 103.27 470.94 103.27"/><polygon class="d" points="468.57 101.59 468.55 99.34 471.13 99 471.11 98.78 468.34 99.15 468.35 101.6 468.57 101.59 468.57 101.59"/></g><g><path class="c" d="M502.2,130.61h0s13.66,.91,10.15-14.43c-14.3,.01-10.15,14.43-10.15,14.43Z"/><path class="d" d="M502.67,129.45s1.81-1.78,3.94-4.37c2.12-2.59,4.56-5.97,5.82-9.19l-.21-.08c-1.24,3.18-3.67,6.56-5.78,9.14-1.06,1.29-2.04,2.38-2.76,3.14-.36,.38-.65,.69-.85,.89-.2,.21-.31,.32-.31,.32l.16,.15h0Z"/><polygon class="d" points="503.56 125.88 505.9 125.75 506.1 128.59 506.32 128.58 506.11 125.52 503.54 125.66 503.56 125.88 503.56 125.88"/><polygon class="d" points="505.25 123.75 507.49 123.63 507.96 126.19 508.18 126.15 507.68 123.4 505.23 123.54 505.25 123.75 505.25 123.75"/><polygon class="d" points="506.85 121.87 509.1 121.74 509.56 124.3 509.78 124.27 509.29 121.52 506.84 121.65 506.85 121.87 506.85 121.87"/><polygon class="d" points="508.42 119.42 510.67 119.3 511.13 121.86 511.35 121.82 510.85 119.07 508.4 119.21 508.42 119.42 508.42 119.42"/></g><g><path class="c" d="M523.03,111.64h0s9.92-9.43-3.75-17.24c-9.68,10.53,3.74,17.24,3.74,17.24Z"/><path class="d" d="M522.5,110.5s-.08-2.54-.55-5.86c-.46-3.31-1.3-7.4-2.82-10.51l-.2,.1c1.5,3.07,2.34,7.14,2.8,10.44,.23,1.65,.37,3.11,.44,4.16,.04,.52,.06,.94,.08,1.23,.01,.29,.02,.45,.02,.45h.22Z"/><polygon class="d" points="520.47 107.43 521.97 105.61 524.19 107.39 524.33 107.22 521.94 105.31 520.3 107.29 520.47 107.43 520.47 107.43"/><polygon class="d" points="520.05 104.74 521.48 103.01 523.68 104.4 523.8 104.22 521.44 102.72 519.88 104.61 520.05 104.74 520.05 104.74"/><polygon class="d" points="519.76 102.28 521.19 100.55 523.38 101.94 523.51 101.76 521.14 100.26 519.59 102.15 519.76 102.28 519.76 102.28"/><polygon class="d" points="519.02 99.48 520.45 97.74 522.65 99.13 522.77 98.95 520.41 97.45 518.85 99.34 519.02 99.48 519.02 99.48"/></g></g></svg>