<?xml version="1.0" encoding="UTF-8"?><svg xmlns="http://www.w3.org/2000/svg" viewBox="0 0 381.5 262"><defs><style>.c{fill:#afa57d;}.d{fill:#777159;}</style></defs><g id="a"><path class="c" d="M120.14,88.03h9.59v86.46h-9.59v-39.06h-18.63v39.06h-9.59V88.03h9.59v39.2h18.63v-39.2Z"/><path class="c" d="M155.31,88.03h14.18c7.32,0,10.98,3.66,10.98,10.98v64.5c0,7.32-3.66,10.98-10.98,10.98h-14.18c-7.32,0-10.98-3.66-10.98-10.98V99.01c0-7.32,3.66-10.98,10.98-10.98Zm15.71,73.95v-61.44c0-1.85-.28-3.03-.83-3.54-.56-.51-1.72-.76-3.47-.76h-8.62c-1.76,0-2.92,.26-3.47,.76-.56,.51-.83,1.69-.83,3.54v61.44c0,1.85,.28,3.04,.83,3.54,.56,.51,1.71,.76,3.47,.76h8.62c1.76,0,2.92-.25,3.47-.76,.56-.51,.83-1.69,.83-3.54Z"/><path class="c" d="M203.26,174.49h-8.2V88.03h10.43l14.87,55.6,15.01-55.6h10.42v86.46h-8.2V109.02l-12.09,46.7h-10.15l-12.09-46.7v65.47Z"/><path class="c" d="M270.67,166.29h23.77v8.2h-33.36V88.03h32.39v8.2h-22.8v29.19h18.63v8.2h-18.63v32.67Z"/></g><g id="b"><g><path class="c" d="M129.52,115.86h0s12.71-7.63,.17-18.91c-12.72,8.83-.17,18.91-.17,18.91Z"/><path class="d" d="M129.23,114.55s.52-2.68,.82-6.26c.3-3.58,.4-8.05-.47-11.65l-.23,.06c.85,3.55,.76,8.01,.46,11.58-.15,1.78-.36,3.34-.52,4.45-.08,.56-.16,1-.21,1.31-.05,.31-.09,.47-.09,.47l.24,.04h0Z"/><polygon class="d" points="127.82 110.87 129.83 109.31 131.75 111.68 131.94 111.53 129.87 108.98 127.67 110.69 127.82 110.87 127.82 110.87"/><polygon class="d" points="128.02 107.96 129.94 106.47 131.93 108.43 132.1 108.26 129.97 106.16 127.87 107.78 128.02 107.96 128.02 107.96"/><polygon class="d" points="128.29 105.32 130.22 103.83 132.2 105.78 132.38 105.62 130.24 103.51 128.15 105.14 128.29 105.32 128.29 105.32"/><polygon class="d" points="128.19 102.21 130.11 100.72 132.1 102.68 132.27 102.51 130.14 100.4 128.04 102.03 128.19 102.21 128.19 102.21"/></g><g><path class="c" d="M79.98,113.15h0s15.2,.45,10.68-16.44c-15.88,.59-10.68,16.44-10.68,16.44Z"/><path class="d" d="M80.46,111.83s1.94-2.05,4.2-5.01c2.25-2.96,4.82-6.82,6.08-10.44l-.23-.08c-1.24,3.59-3.8,7.43-6.05,10.38-1.12,1.47-2.17,2.72-2.93,3.6-.38,.44-.69,.79-.91,1.03-.22,.24-.34,.36-.34,.36l.18,.16h0Z"/><polygon class="d" points="81.3 107.83 83.9 107.59 84.23 110.74 84.48 110.72 84.12 107.33 81.27 107.59 81.3 107.83 81.3 107.83"/><polygon class="d" points="83.09 105.4 85.58 105.17 86.2 108 86.44 107.95 85.77 104.91 83.06 105.16 83.09 105.4 83.09 105.4"/><polygon class="d" points="84.8 103.24 87.29 103.02 87.91 105.84 88.15 105.79 87.48 102.76 84.77 103 84.8 103.24 84.8 103.24"/><polygon class="d" points="86.44 100.47 88.92 100.24 89.54 103.06 89.79 103.01 89.12 99.98 86.41 100.23 86.44 100.47 86.44 100.47"/></g><g><path class="c" d="M150.2,117.45h0s13.13,4.65,14.37-11.99c-14.05-3.88-14.37,11.99-14.37,11.99Z"/><path class="d" d="M151.03,116.39s2.33-1.33,5.2-3.39c2.88-2.06,6.3-4.86,8.52-7.82l-.18-.14c-2.19,2.92-5.6,5.71-8.47,7.77-1.43,1.03-2.73,1.87-3.67,2.46-.47,.29-.85,.52-1.11,.68-.26,.16-.41,.24-.41,.24l.11,.2h0Z"/><polygon class="d" points="152.99 112.98 155.33 113.49 154.65 116.44 154.88 116.49 155.6 113.31 153.04 112.75 152.99 112.98 152.99 112.98"/><polygon class="d" points="155.29 111.27 157.54 111.75 157.21 114.5 157.44 114.52 157.79 111.57 155.34 111.04 155.29 111.27 155.29 111.27"/><polygon class="d" points="157.45 109.78 159.69 110.26 159.37 113.01 159.59 113.03 159.94 110.08 157.5 109.55 157.45 109.78 157.45 109.78"/><polygon class="d" points="159.73 107.7 161.98 108.19 161.65 110.93 161.88 110.96 162.23 108.01 159.78 107.48 159.73 107.7 159.73 107.7"/></g><g><path class="c" d="M104.02,159.48h0s11.96-7.71-.48-18.34c-11.93,8.87,.47,18.34,.47,18.34Z"/><path class="d" d="M103.69,158.21s.41-2.61,.58-6.09c.17-3.47,.11-7.81-.84-11.28l-.22,.06c.94,3.42,1.01,7.75,.84,11.21-.09,1.73-.23,3.25-.35,4.33-.06,.54-.12,.98-.16,1.27-.04,.3-.07,.46-.07,.46l.23,.03h0Z"/><polygon class="d" points="102.22 154.68 104.1 153.12 106.02 155.37 106.2 155.22 104.13 152.8 102.07 154.51 102.22 154.68 102.22 154.68"/><polygon class="d" points="102.31 151.86 104.11 150.37 106.08 152.22 106.24 152.05 104.12 150.06 102.16 151.69 102.31 151.86 102.31 151.86"/><polygon class="d" points="102.48 149.29 104.28 147.8 106.26 149.64 106.42 149.48 104.3 147.49 102.34 149.12 102.48 149.29 102.48 149.29"/><polygon class="d" points="102.28 146.28 104.07 144.78 106.05 146.63 106.21 146.47 104.09 144.48 102.13 146.11 102.28 146.28 102.28 146.28"/></g><g><path class="c" d="M191.29,123.96h0s13.5,.47,9.84-15.41c-14.13,.51-9.84,15.41-9.84,15.41Z"/><path class="d" d="M191.74,122.73s1.77-1.92,3.83-4.69c2.07-2.77,4.43-6.39,5.63-9.79l-.21-.07c-1.18,3.36-3.54,6.97-5.59,9.73-1.03,1.38-1.98,2.55-2.68,3.37-.35,.41-.63,.74-.83,.96-.2,.22-.31,.34-.31,.34l.16,.15h0Z"/><polygon class="d" points="192.57 118.97 194.88 118.75 195.12 121.71 195.34 121.69 195.09 118.51 192.55 118.74 192.57 118.97 192.57 118.97"/><polygon class="d" points="194.21 116.69 196.43 116.49 196.92 119.14 197.13 119.1 196.61 116.24 194.19 116.47 194.21 116.69 194.21 116.69"/><polygon class="d" points="195.77 114.67 197.99 114.46 198.48 117.12 198.7 117.07 198.17 114.22 195.76 114.45 195.77 114.67 195.77 114.67"/><polygon class="d" points="197.29 112.07 199.51 111.86 200 114.51 200.21 114.47 199.69 111.62 197.27 111.84 197.29 112.07 197.29 112.07"/></g><g><path class="c" d="M247.18,117.79h0s10.39-9.26-3.62-18.44c-10.16,10.43,3.62,18.44,3.62,18.44Z"/><path class="d" d="M246.65,116.55s-.05-2.69-.48-6.21c-.43-3.53-1.24-7.89-2.76-11.27l-.21,.09c1.51,3.34,2.32,7.69,2.74,11.2,.21,1.76,.33,3.31,.4,4.41,.03,.55,.05,1,.06,1.3,.01,.31,.01,.47,.01,.47h.23Z"/><polygon class="d" points="244.6 113.18 246.17 111.37 248.44 113.4 248.59 113.23 246.14 111.04 244.42 113.02 244.6 113.18 244.6 113.18"/><polygon class="d" points="244.2 110.32 245.71 108.59 247.96 110.21 248.09 110.02 245.67 108.28 244.03 110.16 244.2 110.32 244.2 110.32"/><polygon class="d" points="243.93 107.7 245.44 105.97 247.69 107.59 247.82 107.4 245.4 105.66 243.76 107.55 243.93 107.7 243.93 107.7"/><polygon class="d" points="243.21 104.69 244.71 102.96 246.96 104.58 247.09 104.39 244.67 102.65 243.04 104.54 243.21 104.69 243.21 104.69"/></g><g><path class="c" d="M187.02,119.06h0s5.92-12.05-9.31-14.59c-5.32,12.97,9.3,14.59,9.3,14.59Z"/><path class="d" d="M186.14,118.2s-.94-2.31-2.49-5.2c-1.55-2.89-3.71-6.37-6.17-8.7l-.15,.16c2.43,2.31,4.58,5.77,6.13,8.65,.77,1.44,1.39,2.74,1.82,3.67,.21,.47,.38,.85,.49,1.11,.11,.26,.17,.4,.17,.4l.2-.09h0Z"/><polygon class="d" points="183.23 116.06 183.99 113.89 186.64 114.77 186.71 114.56 183.86 113.61 183.03 116 183.23 116.06 183.23 116.06"/><polygon class="d" points="181.93 113.74 182.66 111.66 185.15 112.19 185.2 111.98 182.52 111.4 181.73 113.67 181.93 113.74 181.93 113.74"/><polygon class="d" points="180.82 111.58 181.55 109.49 184.04 110.03 184.09 109.82 181.41 109.24 180.62 111.51 180.82 111.58 180.82 111.58"/><polygon class="d" points="179.19 109.25 179.92 107.16 182.41 107.7 182.46 107.48 179.78 106.91 178.99 109.18 179.19 109.25 179.19 109.25"/></g><g><path class="c" d="M135.34,147.93h0s8.45-12.99-8.64-18.01c-7.9,14.13,8.64,18.01,8.64,18.01Z"/><path class="d" d="M134.45,146.82s-.76-2.78-2.13-6.31c-1.38-3.53-3.37-7.81-5.86-10.83l-.19,.16c2.46,2.98,4.45,7.25,5.82,10.76,.69,1.76,1.22,3.33,1.58,4.46,.18,.57,.32,1.02,.41,1.34,.09,.31,.14,.49,.14,.49l.24-.07h0Z"/><polygon class="d" points="131.42 143.97 132.59 141.58 135.5 142.95 135.61 142.73 132.47 141.25 131.19 143.86 131.42 143.97 131.42 143.97"/><polygon class="d" points="130.25 141.12 131.37 138.83 134.16 139.79 134.24 139.56 131.25 138.53 130.03 141.02 130.25 141.12 130.25 141.12"/><polygon class="d" points="129.28 138.49 130.4 136.2 133.19 137.16 133.27 136.92 130.28 135.89 129.06 138.38 129.28 138.49 129.28 138.49"/><polygon class="d" points="127.73 135.59 128.85 133.3 131.64 134.26 131.72 134.03 128.73 133 127.51 135.49 127.73 135.59 127.73 135.59"/></g><g><path class="c" d="M221.6,123.08h0s15.08,.77,10.96-16.09c-15.78,.25-10.96,16.09-10.96,16.09Z"/><path class="d" d="M222.1,121.79s1.97-2,4.27-4.88c2.3-2.89,4.93-6.66,6.26-10.24l-.23-.08c-1.31,3.53-3.93,7.3-6.23,10.17-1.15,1.44-2.21,2.66-2.99,3.51-.39,.43-.71,.77-.93,1-.22,.23-.34,.35-.34,.35l.18,.17h0Z"/><polygon class="d" points="223.02 117.84 225.61 117.66 225.87 120.79 226.12 120.77 225.83 117.4 223 117.6 223.02 117.84 223.02 117.84"/><polygon class="d" points="224.85 115.46 227.33 115.29 227.88 118.11 228.12 118.06 227.53 115.04 224.83 115.23 224.85 115.46 224.85 115.46"/><polygon class="d" points="226.59 113.36 229.07 113.18 229.62 116 229.86 115.96 229.27 112.93 226.57 113.12 226.59 113.36 226.59 113.36"/><polygon class="d" points="228.28 110.63 230.75 110.46 231.31 113.28 231.55 113.23 230.95 110.21 228.26 110.4 228.28 110.63 228.28 110.63"/></g><g><path class="c" d="M220.91,144.62h0s3.38-13.21-12.28-12.58c-2.6,14.01,12.28,12.58,12.28,12.58Z"/><path class="d" d="M219.86,143.94s-1.42-2.1-3.56-4.66c-2.14-2.55-5.01-5.56-7.94-7.38l-.12,.19c2.89,1.79,5.76,4.79,7.89,7.33,1.07,1.27,1.95,2.43,2.57,3.27,.31,.42,.55,.76,.72,1,.17,.24,.25,.37,.25,.37l.18-.13h0Z"/><polygon class="d" points="216.53 142.42 216.83 140.1 219.65 140.43 219.68 140.21 216.64 139.85 216.31 142.4 216.53 142.42 216.53 142.42"/><polygon class="d" points="214.75 140.38 215.04 138.15 217.63 138.17 217.64 137.95 214.85 137.93 214.54 140.35 214.75 140.38 214.75 140.38"/><polygon class="d" points="213.2 138.46 213.49 136.23 216.08 136.25 216.09 136.03 213.3 136.01 212.98 138.43 213.2 138.46 213.2 138.46"/><polygon class="d" points="211.09 136.48 211.38 134.25 213.97 134.27 213.98 134.05 211.19 134.03 210.88 136.45 211.09 136.48 211.09 136.48"/></g><g><path class="c" d="M185.98,142.63h0s9.36,4.36,11.07-7.39c-10.06-3.88-11.07,7.39-11.07,7.39Z"/><path class="d" d="M186.63,141.94s1.76-.76,3.96-2c2.2-1.24,4.83-2.96,6.59-4.88l-.13-.11c-1.74,1.9-4.36,3.62-6.55,4.85-1.1,.62-2.08,1.12-2.79,1.46-.36,.17-.64,.31-.84,.4-.2,.09-.31,.14-.31,.14l.07,.15h0Z"/><polygon class="d" points="188.23 139.67 189.91 140.22 189.28 142.27 189.44 142.32 190.12 140.11 188.27 139.51 188.23 139.67 188.23 139.67"/><polygon class="d" points="189.99 138.63 191.61 139.16 191.24 141.09 191.4 141.12 191.8 139.05 190.04 138.48 189.99 138.63 189.99 138.63"/><polygon class="d" points="191.64 137.75 193.25 138.27 192.88 140.2 193.04 140.23 193.44 138.16 191.68 137.59 191.64 137.75 191.64 137.75"/><polygon class="d" points="193.4 136.45 195.02 136.98 194.65 138.9 194.81 138.94 195.21 136.87 193.45 136.3 193.4 136.45 193.4 136.45"/></g><g><path class="c" d="M235.45,162.16h0s-1.39-10.23-12.2-5.32c2.17,10.56,12.2,5.32,12.2,5.32Z"/><path class="d" d="M234.52,161.98s-1.59-1.07-3.82-2.25c-2.23-1.18-5.1-2.47-7.67-2.91l-.03,.17c2.54,.43,5.4,1.72,7.62,2.89,1.11,.59,2.06,1.15,2.74,1.56,.34,.21,.6,.38,.79,.5,.18,.12,.28,.18,.28,.18l.09-.14h0Z"/><polygon class="d" points="231.74 161.87 231.29 160.15 233.36 159.58 233.32 159.41 231.09 160.03 231.59 161.91 231.74 161.87 231.74 161.87"/><polygon class="d" points="229.92 160.94 229.49 159.3 231.31 158.57 231.25 158.41 229.29 159.2 229.76 160.98 229.92 160.94 229.92 160.94"/><polygon class="d" points="228.28 160.03 227.85 158.39 229.67 157.66 229.61 157.51 227.66 158.29 228.12 160.08 228.28 160.03 228.28 160.03"/><polygon class="d" points="226.24 159.25 225.81 157.61 227.63 156.88 227.57 156.72 225.61 157.5 226.08 159.29 226.24 159.25 226.24 159.25"/></g><g><path class="c" d="M294.83,152.37h0s7.59-11.98-8.11-16.38c-7.07,13.01,8.1,16.38,8.1,16.38Z"/><path class="c" d="M294,151.36s-.72-2.53-2.02-5.75c-1.3-3.21-3.17-7.11-5.48-9.84l-.17,.15c2.28,2.7,4.15,6.58,5.45,9.78,.65,1.6,1.15,3.03,1.49,4.06,.17,.52,.3,.93,.39,1.22,.09,.29,.13,.44,.13,.44l.22-.07h0Z"/><polygon class="c" points="291.19 148.79 292.24 146.59 294.92 147.82 295.02 147.61 292.13 146.29 290.99 148.69 291.19 148.79 291.19 148.79"/><polygon class="c" points="290.1 146.2 291.1 144.09 293.65 144.94 293.73 144.72 290.98 143.81 289.89 146.1 290.1 146.2 290.1 146.2"/><polygon class="c" points="289.18 143.8 290.18 141.69 292.74 142.54 292.81 142.32 290.06 141.41 288.97 143.71 289.18 143.8 289.18 143.8"/><polygon class="c" points="287.73 141.16 288.73 139.06 291.29 139.91 291.36 139.69 288.61 138.78 287.52 141.07 287.73 141.16 287.73 141.16"/></g><g><path class="c" d="M253.73,114.87h0s13.66,.91,10.15-14.43c-14.3,.01-10.15,14.43-10.15,14.43Z"/><path class="d" d="M254.2,113.71s1.81-1.78,3.94-4.37c2.12-2.59,4.56-5.97,5.82-9.19l-.21-.08c-1.24,3.18-3.67,6.56-5.78,9.14-1.06,1.29-2.04,2.38-2.76,3.14-.36,.38-.65,.69-.85,.89-.2,.21-.31,.32-.31,.32l.16,.15h0Z"/><polygon class="d" points="255.09 110.14 257.44 110.01 257.63 112.85 257.85 112.84 257.64 109.78 255.07 109.92 255.09 110.14 255.09 110.14"/><polygon class="d" points="256.78 108.01 259.03 107.89 259.49 110.45 259.71 110.41 259.21 107.66 256.76 107.8 256.78 108.01 256.78 108.01"/><polygon class="d" points="258.39 106.13 260.63 106 261.1 108.56 261.32 108.53 260.82 105.78 258.37 105.91 258.39 106.13 258.39 106.13"/><polygon class="d" points="259.95 103.68 262.2 103.56 262.66 106.12 262.88 106.08 262.38 103.33 259.94 103.47 259.95 103.68 259.95 103.68"/></g><g><path class="c" d="M277.99,121.59h0s9.16-9.41-4.22-16.39c-8.89,10.45,4.22,16.39,4.22,16.39Z"/><path class="d" d="M277.44,120.52s-.17-2.43-.74-5.59c-.57-3.16-1.52-7.05-3.09-9.97l-.19,.1c1.55,2.88,2.51,6.76,3.07,9.9,.28,1.57,.47,2.97,.58,3.97,.06,.5,.1,.9,.12,1.18,.02,.28,.04,.43,.04,.43l.21-.02h0Z"/><polygon class="d" points="275.38 117.65 276.74 115.86 278.94 117.48 279.07 117.31 276.71 115.57 275.21 117.53 275.38 117.65 275.38 117.65"/><polygon class="d" points="274.88 115.1 276.19 113.38 278.34 114.63 278.45 114.45 276.13 113.1 274.71 114.97 274.88 115.1 274.88 115.1"/><polygon class="d" points="274.5 112.75 275.81 111.03 277.97 112.29 278.08 112.11 275.76 110.76 274.34 112.63 274.5 112.75 274.5 112.75"/><polygon class="d" points="273.69 110.09 275 108.37 277.16 109.62 277.27 109.44 274.95 108.09 273.52 109.96 273.69 110.09 273.69 110.09"/></g><g><path class="c" d="M247.97,140.34h0s13.43,5.48,15.03-11.12c-14.38-4.77-15.03,11.12-15.03,11.12Z"/><path class="d" d="M248.84,139.33s2.42-1.19,5.42-3.07c3-1.89,6.58-4.48,8.92-7.3l-.18-.15c-2.31,2.79-5.88,5.37-8.87,7.25-1.49,.94-2.85,1.71-3.82,2.24-.49,.27-.88,.47-1.16,.61-.27,.14-.42,.21-.42,.21l.11,.21h0Z"/><polygon class="d" points="250.92 136.04 253.32 136.69 252.57 139.61 252.8 139.67 253.61 136.53 250.98 135.81 250.92 136.04 250.92 136.04"/><polygon class="d" points="253.33 134.46 255.63 135.09 255.24 137.82 255.47 137.86 255.89 134.92 253.39 134.24 253.33 134.46 253.33 134.46"/><polygon class="d" points="255.58 133.11 257.88 133.73 257.49 136.46 257.72 136.5 258.14 133.56 255.64 132.88 255.58 133.11 255.58 133.11"/><polygon class="d" points="257.97 131.17 260.27 131.8 259.88 134.53 260.11 134.56 260.53 131.63 258.03 130.95 257.97 131.17 257.97 131.17"/></g><g><path class="c" d="M296.31,107.77h0s12.24-5.7,1.92-17.29c-12.36,6.79-1.93,17.29-1.93,17.29Z"/><path class="d" d="M296.17,106.54s.72-2.4,1.33-5.65c.61-3.24,1.11-7.33,.67-10.71l-.22,.03c.44,3.34-.06,7.41-.67,10.64-.3,1.62-.64,3.02-.89,4.02-.13,.5-.24,.9-.31,1.18-.08,.27-.12,.42-.12,.42l.21,.06h0Z"/><polygon class="d" points="295.24 103.03 297.2 101.81 298.72 104.17 298.91 104.06 297.28 101.51 295.12 102.85 295.24 103.03 295.24 103.03"/><polygon class="d" points="295.69 100.39 297.57 99.22 299.19 101.21 299.36 101.08 297.62 98.94 295.57 100.21 295.69 100.39 295.69 100.39"/><polygon class="d" points="296.19 98 298.07 96.83 299.69 98.82 299.86 98.69 298.12 96.54 296.07 97.82 296.19 98 296.19 98"/><polygon class="d" points="296.38 95.15 298.26 93.97 299.88 95.97 300.05 95.83 298.31 93.69 296.26 94.96 296.38 95.15 296.38 95.15"/></g><g><path class="c" d="M289.39,111.53h0s11.37-7.91-1.1-17.82c-11.3,9.05,1.1,17.82,1.1,17.82Z"/><path class="d" d="M289.03,110.31s.31-2.56,.35-5.94c.05-3.39-.17-7.6-1.21-10.94l-.21,.07c1.03,3.3,1.25,7.5,1.2,10.88-.02,1.69-.11,3.17-.19,4.23-.04,.53-.08,.95-.11,1.24-.03,.29-.05,.45-.05,.45l.22,.02h0Z"/><polygon class="d" points="287.47 106.93 289.24 105.34 291.19 107.46 291.36 107.31 289.26 105.03 287.32 106.76 287.47 106.93 287.47 106.93"/><polygon class="d" points="287.46 104.18 289.16 102.66 291.14 104.39 291.29 104.22 289.16 102.36 287.31 104.02 287.46 104.18 287.46 104.18"/><polygon class="d" points="287.54 101.67 289.24 100.15 291.22 101.88 291.38 101.72 289.24 99.86 287.39 101.51 287.54 101.67 287.54 101.67"/><polygon class="d" points="287.23 98.75 288.93 97.23 290.92 98.96 291.07 98.8 288.93 96.93 287.09 98.59 287.23 98.75 287.23 98.75"/></g><g><path class="c" d="M161.39,141.38h0s14.16,.53,10.06-15.24c-14.8,.44-10.07,15.24-10.07,15.24Z"/><path class="d" d="M161.85,140.16s1.82-1.9,3.94-4.64c2.12-2.74,4.54-6.32,5.74-9.69l-.22-.08c-1.18,3.33-3.59,6.9-5.71,9.63-1.06,1.36-2.04,2.52-2.76,3.33-.36,.41-.65,.73-.85,.95-.2,.22-.32,.34-.32,.34l.17,.15h0Z"/><polygon class="d" points="162.66 136.44 165.08 136.23 165.37 139.16 165.6 139.14 165.29 135.99 162.63 136.21 162.66 136.44 162.66 136.44"/><polygon class="d" points="164.34 134.18 166.66 133.99 167.22 136.62 167.44 136.58 166.84 133.75 164.32 133.96 164.34 134.18 164.34 134.18"/><polygon class="d" points="165.95 132.19 168.27 131.99 168.83 134.62 169.05 134.58 168.45 131.75 165.92 131.96 165.95 132.19 165.95 132.19"/><polygon class="d" points="167.49 129.61 169.81 129.41 170.37 132.05 170.6 132 170 129.17 167.47 129.39 167.49 129.61 167.49 129.61"/></g></g></svg>