<?xml version="1.0" encoding="UTF-8"?><svg xmlns="http://www.w3.org/2000/svg" viewBox="0 0 381.5 262"><defs><style>.c{fill:#afa57d;}.d{fill:#777159;}</style></defs><g id="a"><path class="c" d="M120.14,88.03h9.59v86.46h-9.59v-39.06h-18.63v39.06h-9.59V88.03h9.59v39.2h18.63v-39.2Z"/><path class="c" d="M155.31,88.03h14.18c7.32,0,10.98,3.66,10.98,10.98v64.5c0,7.32-3.66,10.98-10.98,10.98h-14.18c-7.32,0-10.98-3.66-10.98-10.98V99.01c0-7.32,3.66-10.98,10.98-10.98Zm15.71,73.95v-61.44c0-1.85-.28-3.03-.83-3.54-.56-.51-1.72-.76-3.47-.76h-8.62c-1.76,0-2.92,.26-3.47,.76-.56,.51-.83,1.69-.83,3.54v61.44c0,1.85,.28,3.04,.83,3.54,.56,.51,1.71,.76,3.47,.76h8.62c1.76,0,2.92-.25,3.47-.76,.56-.51,.83-1.69,.83-3.54Z"/><path class="c" d="M203.26,174.49h-8.2V88.03h10.43l14.87,55.6,15.01-55.6h10.42v86.46h-8.2V109.02l-12.09,46.7h-10.15l-12.09-46.7v65.47Z"/><path class="c" d="M270.67,166.29h23.77v8.2h-33.36V88.03h32.39v8.2h-22.8v29.19h18.63v8.2h-18.63v32.67Z"/></g><g id="b"><g><path class="c" d="M124.34,118.65h0s14.76,1.43,11.39-15.1c-15.48-.47-11.39,15.1-11.39,15.1Z"/><path class="d" d="M124.89,117.42s2.01-1.85,4.39-4.54c2.37-2.69,5.11-6.23,6.56-9.64l-.22-.09c-1.43,3.36-4.15,6.89-6.52,9.58-1.18,1.34-2.28,2.47-3.07,3.27-.4,.4-.72,.71-.95,.93-.22,.21-.35,.33-.35,.33l.17,.17h0Z"/><polygon class="d" points="125.95 113.63 128.49 113.57 128.63 116.62 128.87 116.61 128.72 113.34 125.94 113.4 125.95 113.63 125.95 113.63"/><polygon class="d" points="127.84 111.42 130.27 111.36 130.7 114.11 130.94 114.08 130.48 111.12 127.83 111.18 127.84 111.42 127.84 111.42"/><polygon class="d" points="129.63 109.45 132.07 109.4 132.5 112.15 132.73 112.12 132.27 109.16 129.62 109.22 129.63 109.45 129.63 109.45"/><polygon class="d" points="131.39 106.89 133.83 106.83 134.26 109.59 134.5 109.56 134.04 106.6 131.38 106.66 131.39 106.89 131.39 106.89"/></g><g><path class="c" d="M78.56,120.64h0s15.2,.45,10.68-16.44c-15.88,.59-10.68,16.44-10.68,16.44Z"/><path class="d" d="M79.04,119.33s1.94-2.05,4.2-5.01c2.25-2.96,4.82-6.82,6.08-10.44l-.23-.08c-1.24,3.59-3.8,7.43-6.05,10.38-1.12,1.47-2.17,2.72-2.93,3.6-.38,.44-.69,.79-.91,1.03-.22,.24-.34,.36-.34,.36l.18,.16h0Z"/><polygon class="d" points="79.88 115.33 82.48 115.09 82.81 118.23 83.06 118.21 82.7 114.82 79.85 115.09 79.88 115.33 79.88 115.33"/><polygon class="d" points="81.67 112.9 84.16 112.67 84.78 115.49 85.02 115.44 84.35 112.41 81.64 112.66 81.67 112.9 81.67 112.9"/><polygon class="d" points="83.38 110.74 85.87 110.51 86.48 113.33 86.73 113.28 86.06 110.25 83.35 110.5 83.38 110.74 83.38 110.74"/><polygon class="d" points="85.01 107.96 87.5 107.73 88.12 110.55 88.37 110.51 87.7 107.47 84.99 107.72 85.01 107.96 85.01 107.96"/></g><g><path class="c" d="M153.4,120.47h0s13.13,4.65,14.37-11.99c-14.05-3.88-14.37,11.99-14.37,11.99Z"/><path class="d" d="M154.22,119.41s2.33-1.33,5.2-3.39c2.88-2.06,6.3-4.86,8.52-7.82l-.18-.14c-2.19,2.92-5.6,5.71-8.47,7.77-1.43,1.03-2.73,1.87-3.67,2.46-.47,.29-.85,.52-1.11,.68-.26,.16-.41,.24-.41,.24l.11,.2h0Z"/><polygon class="d" points="156.18 116 158.53 116.5 157.85 119.46 158.07 119.51 158.8 116.33 156.23 115.77 156.18 116 156.18 116"/><polygon class="d" points="158.49 114.28 160.73 114.77 160.41 117.51 160.63 117.54 160.99 114.59 158.54 114.06 158.49 114.28 158.49 114.28"/><polygon class="d" points="160.65 112.79 162.89 113.28 162.56 116.02 162.79 116.05 163.14 113.1 160.7 112.57 160.65 112.79 160.65 112.79"/><polygon class="d" points="162.93 110.72 165.17 111.21 164.85 113.95 165.07 113.97 165.42 111.02 162.98 110.49 162.93 110.72 162.93 110.72"/></g><g><path class="c" d="M106.66,167.53h0s11.96-7.71-.48-18.34c-11.93,8.87,.47,18.34,.47,18.34Z"/><path class="d" d="M106.33,166.26s.41-2.61,.58-6.09c.17-3.47,.11-7.81-.84-11.28l-.22,.06c.94,3.42,1.01,7.75,.84,11.21-.09,1.73-.23,3.25-.35,4.33-.06,.54-.12,.98-.16,1.27-.04,.3-.07,.46-.07,.46l.23,.03h0Z"/><polygon class="d" points="104.86 162.73 106.73 161.17 108.66 163.42 108.84 163.27 106.77 160.85 104.71 162.56 104.86 162.73 104.86 162.73"/><polygon class="d" points="104.95 159.91 106.75 158.42 108.72 160.27 108.88 160.1 106.76 158.11 104.8 159.74 104.95 159.91 104.95 159.91"/><polygon class="d" points="105.12 157.34 106.92 155.85 108.89 157.7 109.06 157.53 106.93 155.54 104.98 157.17 105.12 157.34 105.12 157.34"/><polygon class="d" points="104.91 154.33 106.71 152.83 108.69 154.68 108.85 154.52 106.72 152.53 104.77 154.16 104.91 154.33 104.91 154.33"/></g><g><path class="c" d="M190.73,127.03h0s13.5,.47,9.84-15.41c-14.13,.51-9.84,15.41-9.84,15.41Z"/><path class="d" d="M191.19,125.8s1.77-1.92,3.83-4.69c2.07-2.77,4.43-6.39,5.63-9.79l-.21-.07c-1.18,3.36-3.54,6.97-5.59,9.73-1.03,1.38-1.98,2.55-2.68,3.37-.35,.41-.63,.74-.83,.96-.2,.22-.31,.34-.31,.34l.16,.15h0Z"/><polygon class="d" points="192.02 122.05 194.33 121.83 194.56 124.79 194.78 124.77 194.53 121.58 192 121.82 192.02 122.05 192.02 122.05"/><polygon class="d" points="193.66 119.77 195.88 119.56 196.37 122.22 196.58 122.17 196.05 119.32 193.64 119.55 193.66 119.77 193.66 119.77"/><polygon class="d" points="195.22 117.75 197.44 117.54 197.93 120.19 198.15 120.15 197.62 117.3 195.2 117.52 195.22 117.75 195.22 117.75"/><polygon class="d" points="196.74 115.14 198.95 114.94 199.45 117.59 199.66 117.55 199.13 114.69 196.72 114.92 196.74 115.14 196.74 115.14"/></g><g><path class="c" d="M249.64,122.7h0s10.39-9.26-3.62-18.44c-10.16,10.43,3.62,18.44,3.62,18.44Z"/><path class="d" d="M249.1,121.46s-.05-2.69-.48-6.21c-.43-3.53-1.24-7.89-2.76-11.27l-.21,.09c1.51,3.34,2.32,7.69,2.74,11.2,.21,1.76,.33,3.31,.4,4.41,.03,.55,.05,1,.06,1.3,.01,.31,.01,.47,.01,.47h.23Z"/><polygon class="d" points="247.05 118.08 248.62 116.27 250.89 118.3 251.04 118.13 248.6 115.95 246.88 117.93 247.05 118.08 247.05 118.08"/><polygon class="d" points="246.66 115.22 248.16 113.49 250.41 115.11 250.54 114.93 248.12 113.18 246.48 115.07 246.66 115.22 246.66 115.22"/><polygon class="d" points="246.38 112.61 247.89 110.88 250.14 112.5 250.27 112.31 247.85 110.57 246.21 112.46 246.38 112.61 246.38 112.61"/><polygon class="d" points="245.66 109.6 247.17 107.87 249.42 109.49 249.55 109.3 247.13 107.56 245.49 109.44 245.66 109.6 245.66 109.6"/></g><g><path class="c" d="M182.31,126.9h0s11.53-6.87,.16-17.3c-11.54,7.97-.17,17.3-.17,17.3Z"/><path class="d" d="M182.05,125.7s.47-2.45,.75-5.72c.28-3.27,.36-7.36-.42-10.66l-.21,.05c.77,3.26,.69,7.34,.41,10.59-.14,1.63-.33,3.05-.48,4.07-.08,.51-.14,.92-.19,1.19-.05,.28-.08,.43-.08,.43l.21,.04h0Z"/><polygon class="d" points="180.78 122.32 182.6 120.91 184.34 123.09 184.51 122.96 182.64 120.61 180.64 122.15 180.78 122.32 180.78 122.32"/><polygon class="d" points="180.96 119.66 182.7 118.31 184.5 120.12 184.66 119.97 182.73 118.03 180.83 119.5 180.96 119.66 180.96 119.66"/><polygon class="d" points="181.21 117.25 182.95 115.9 184.75 117.7 184.91 117.55 182.98 115.61 181.08 117.08 181.21 117.25 181.21 117.25"/><polygon class="d" points="181.11 114.4 182.86 113.05 184.66 114.86 184.81 114.71 182.88 112.76 180.98 114.23 181.11 114.4 181.11 114.4"/></g><g><path class="c" d="M133.16,153.83h0s11.91-9.91-2.94-19.76c-11.72,11.16,2.93,19.76,2.93,19.76Z"/><path class="d" d="M132.65,152.5s.1-2.88-.18-6.66c-.27-3.78-.91-8.46-2.4-12.08l-.23,.1c1.47,3.58,2.11,8.24,2.38,12,.14,1.88,.18,3.54,.19,4.73,0,.59,0,1.07,0,1.4,0,.33-.01,.5-.01,.51h.25Z"/><polygon class="d" points="130.59 148.88 132.41 146.95 134.79 149.12 134.96 148.94 132.4 146.6 130.4 148.72 130.59 148.88 130.59 148.88"/><polygon class="d" points="130.31 145.82 132.06 143.97 134.44 145.71 134.59 145.51 132.03 143.64 130.13 145.66 130.31 145.82 130.31 145.82"/><polygon class="d" points="130.16 143.02 131.91 141.17 134.29 142.91 134.44 142.71 131.88 140.84 129.98 142.86 130.16 143.02 130.16 143.02"/><polygon class="d" points="129.54 139.8 131.29 137.94 133.66 139.68 133.82 139.48 131.26 137.61 129.36 139.63 129.54 139.8 129.54 139.8"/></g><g><path class="c" d="M217.76,125.54h0s15.08,.77,10.96-16.09c-15.78,.25-10.96,16.09-10.96,16.09Z"/><path class="d" d="M218.27,124.25s1.97-2,4.27-4.88c2.3-2.89,4.93-6.66,6.26-10.24l-.23-.08c-1.31,3.53-3.93,7.3-6.23,10.17-1.15,1.44-2.21,2.66-2.99,3.51-.39,.43-.71,.77-.93,1-.22,.23-.34,.35-.34,.35l.18,.17h0Z"/><polygon class="d" points="219.18 120.3 221.77 120.11 222.03 123.24 222.28 123.23 222 119.86 219.16 120.06 219.18 120.3 219.18 120.3"/><polygon class="d" points="221.01 117.92 223.49 117.75 224.04 120.56 224.28 120.52 223.69 117.49 220.99 117.68 221.01 117.92 221.01 117.92"/><polygon class="d" points="222.76 115.82 225.23 115.64 225.79 118.46 226.03 118.42 225.43 115.39 222.74 115.58 222.76 115.82 222.76 115.82"/><polygon class="d" points="224.44 113.09 226.92 112.92 227.47 115.73 227.71 115.69 227.12 112.66 224.42 112.85 224.44 113.09 224.44 113.09"/></g><g><path class="c" d="M214.44,155.56h0s10.28-8.97-2.99-17.33c-10.09,10.07,2.99,17.33,2.99,17.33Z"/><path class="d" d="M213.96,154.41s.03-2.53-.29-5.85c-.32-3.32-.98-7.42-2.36-10.58l-.2,.09c1.37,3.12,2.03,7.21,2.34,10.52,.16,1.65,.23,3.11,.26,4.16,.02,.52,.02,.94,.03,1.23,0,.29,0,.44,0,.44h.22Z"/><polygon class="d" points="212.07 151.26 213.64 149.52 215.78 151.39 215.92 151.22 213.62 149.21 211.91 151.12 212.07 151.26 212.07 151.26"/><polygon class="d" points="211.77 148.57 213.27 146.91 215.4 148.39 215.53 148.21 213.24 146.62 211.61 148.43 211.77 148.57 211.77 148.57"/><polygon class="d" points="211.58 146.11 213.08 144.45 215.21 145.93 215.34 145.75 213.05 144.15 211.42 145.97 211.58 146.11 211.58 146.11"/><polygon class="d" points="210.97 143.29 212.46 141.62 214.59 143.1 214.72 142.92 212.43 141.33 210.8 143.14 210.97 143.29 210.97 143.29"/></g><g><path class="c" d="M184.39,149.9h0s9.36,4.36,11.07-7.39c-10.06-3.88-11.07,7.39-11.07,7.39Z"/><path class="d" d="M185.04,149.21s1.76-.76,3.96-2c2.2-1.24,4.83-2.96,6.59-4.88l-.13-.11c-1.74,1.9-4.36,3.62-6.55,4.85-1.1,.62-2.08,1.12-2.79,1.46-.36,.17-.64,.31-.84,.4-.2,.09-.31,.14-.31,.14l.07,.15h0Z"/><polygon class="d" points="186.64 146.94 188.32 147.49 187.69 149.54 187.85 149.59 188.53 147.38 186.68 146.79 186.64 146.94 186.64 146.94"/><polygon class="d" points="188.4 145.91 190.02 146.43 189.65 148.36 189.81 148.39 190.21 146.32 188.45 145.75 188.4 145.91 188.4 145.91"/><polygon class="d" points="190.05 145.02 191.66 145.54 191.29 147.47 191.45 147.5 191.85 145.43 190.1 144.86 190.05 145.02 190.05 145.02"/><polygon class="d" points="191.81 143.72 193.43 144.25 193.06 146.18 193.22 146.21 193.62 144.14 191.86 143.57 191.81 143.72 191.81 143.72"/></g><g><path class="c" d="M235.58,163.66h0s-1.39-10.23-12.2-5.32c2.17,10.56,12.2,5.32,12.2,5.32Z"/><path class="d" d="M234.64,163.48s-1.59-1.07-3.82-2.25c-2.23-1.18-5.1-2.47-7.67-2.91l-.03,.17c2.54,.43,5.4,1.72,7.62,2.89,1.11,.59,2.06,1.15,2.74,1.56,.34,.21,.6,.38,.79,.5,.18,.12,.28,.18,.28,.18l.09-.14h0Z"/><polygon class="d" points="231.87 163.37 231.42 161.65 233.49 161.08 233.45 160.92 231.22 161.53 231.71 163.41 231.87 163.37 231.87 163.37"/><polygon class="d" points="230.05 162.44 229.61 160.8 231.44 160.07 231.38 159.91 229.42 160.7 229.89 162.48 230.05 162.44 230.05 162.44"/><polygon class="d" points="228.41 161.54 227.98 159.9 229.8 159.17 229.74 159.01 227.78 159.79 228.25 161.58 228.41 161.54 228.41 161.54"/><polygon class="d" points="226.37 160.75 225.94 159.11 227.76 158.38 227.7 158.22 225.74 159.01 226.21 160.79 226.37 160.75 226.37 160.75"/></g><g><path class="c" d="M290.4,160.67h0s7.59-11.98-8.11-16.38c-7.07,13.01,8.1,16.38,8.1,16.38Z"/><path class="c" d="M289.57,159.66s-.72-2.53-2.02-5.75c-1.3-3.21-3.17-7.11-5.48-9.84l-.17,.15c2.28,2.7,4.15,6.58,5.45,9.78,.65,1.6,1.15,3.03,1.49,4.06,.17,.52,.3,.93,.39,1.22,.09,.29,.13,.44,.13,.44l.22-.07h0Z"/><polygon class="c" points="286.76 157.09 287.81 154.89 290.49 156.12 290.59 155.91 287.7 154.59 286.56 156.99 286.76 157.09 286.76 157.09"/><polygon class="c" points="285.67 154.5 286.67 152.39 289.22 153.24 289.3 153.02 286.55 152.11 285.46 154.4 285.67 154.5 285.67 154.5"/><polygon class="c" points="284.75 152.1 285.75 149.99 288.31 150.84 288.38 150.62 285.63 149.71 284.54 152.01 284.75 152.1 284.75 152.1"/><polygon class="c" points="283.3 149.46 284.3 147.36 286.86 148.21 286.93 147.99 284.18 147.08 283.09 149.37 283.3 149.46 283.3 149.46"/></g><g><path class="c" d="M251.78,120.5h0s13.66,.91,10.15-14.43c-14.3,.01-10.15,14.43-10.15,14.43Z"/><path class="d" d="M252.25,119.34s1.81-1.78,3.94-4.37c2.12-2.59,4.56-5.97,5.82-9.19l-.21-.08c-1.24,3.18-3.67,6.56-5.78,9.14-1.06,1.29-2.04,2.38-2.76,3.14-.36,.38-.65,.69-.85,.89-.2,.21-.31,.32-.31,.32l.16,.15h0Z"/><polygon class="d" points="253.14 115.76 255.48 115.63 255.68 118.48 255.9 118.46 255.69 115.4 253.12 115.55 253.14 115.76 253.14 115.76"/><polygon class="d" points="254.83 113.64 257.07 113.51 257.54 116.07 257.76 116.04 257.26 113.29 254.81 113.42 254.83 113.64 254.83 113.64"/><polygon class="d" points="256.43 111.75 258.68 111.63 259.14 114.19 259.36 114.15 258.87 111.4 256.42 111.54 256.43 111.75 256.43 111.75"/><polygon class="d" points="258 109.31 260.25 109.18 260.71 111.74 260.93 111.71 260.43 108.96 257.98 109.09 258 109.31 258 109.31"/></g><g><path class="c" d="M279.98,126.12h0s8.3-10.17-5.64-15.96c-7.94,11.18,5.63,15.96,5.63,15.96Z"/><path class="d" d="M279.34,125.1s-.38-2.41-1.22-5.51c-.84-3.1-2.13-6.89-3.95-9.66l-.18,.12c1.8,2.74,3.09,6.51,3.92,9.6,.42,1.54,.72,2.92,.92,3.9,.1,.49,.17,.89,.22,1.16,.05,.27,.07,.42,.07,.42l.21-.04h0Z"/><polygon class="d" points="277.04 122.42 278.24 120.51 280.57 121.94 280.69 121.76 278.18 120.23 276.86 122.31 277.04 122.42 277.04 122.42"/><polygon class="d" points="276.32 119.92 277.47 118.09 279.73 119.16 279.82 118.96 277.4 117.82 276.14 119.81 276.32 119.92 276.32 119.92"/><polygon class="d" points="275.74 117.61 276.89 115.79 279.15 116.85 279.25 116.66 276.82 115.52 275.56 117.5 275.74 117.61 275.74 117.61"/><polygon class="d" points="274.7 115.03 275.85 113.21 278.11 114.27 278.21 114.08 275.78 112.94 274.52 114.92 274.7 115.03 274.7 115.03"/></g><g><path class="c" d="M253.18,148.58h0s13.53-5.21,3.33-18.39c-13.74,6.38-3.34,18.39-3.34,18.39Z"/><path class="d" d="M253.12,147.25s.95-2.52,1.84-5.95c.89-3.43,1.73-7.77,1.5-11.43l-.24,.02c.23,3.61-.6,7.94-1.49,11.36-.44,1.71-.9,3.19-1.25,4.25-.17,.53-.32,.95-.42,1.24-.1,.29-.16,.44-.16,.44l.22,.08h0Z"/><polygon class="d" points="252.38 143.42 254.58 142.25 256.03 144.89 256.24 144.78 254.68 141.94 252.27 143.22 252.38 143.42 252.38 143.42"/><polygon class="d" points="253.06 140.62 255.16 139.5 256.75 141.76 256.94 141.63 255.24 139.2 252.95 140.42 253.06 140.62 253.06 140.62"/><polygon class="d" points="253.77 138.09 255.87 136.97 257.46 139.23 257.65 139.1 255.95 136.67 253.66 137.89 253.77 138.09 253.77 138.09"/><polygon class="d" points="254.18 135.05 256.29 133.93 257.87 136.18 258.07 136.05 256.36 133.63 254.07 134.84 254.18 135.05 254.18 135.05"/></g><g><path class="c" d="M301.39,117.95h0s12.24-5.7,1.92-17.29c-12.36,6.79-1.93,17.29-1.93,17.29Z"/><path class="d" d="M301.25,116.72s.72-2.4,1.33-5.65c.61-3.24,1.11-7.33,.67-10.71l-.22,.03c.44,3.34-.06,7.41-.67,10.64-.3,1.62-.64,3.02-.89,4.02-.13,.5-.24,.9-.31,1.18-.08,.27-.12,.42-.12,.42l.21,.06h0Z"/><polygon class="d" points="300.32 113.21 302.29 111.99 303.81 114.35 304 114.23 302.36 111.69 300.21 113.03 300.32 113.21 300.32 113.21"/><polygon class="d" points="300.78 110.57 302.66 109.4 304.28 111.39 304.45 111.26 302.71 109.11 300.66 110.39 300.78 110.57 300.78 110.57"/><polygon class="d" points="301.27 108.18 303.16 107.01 304.77 109 304.94 108.87 303.21 106.72 301.16 108 301.27 108.18 301.27 108.18"/><polygon class="d" points="301.47 105.32 303.35 104.15 304.97 106.14 305.14 106.01 303.4 103.87 301.35 105.14 301.47 105.32 301.47 105.32"/></g><g><path class="c" d="M289.22,118.65h0s11.37-7.91-1.1-17.82c-11.3,9.05,1.1,17.82,1.1,17.82Z"/><path class="d" d="M288.86,117.43s.31-2.56,.35-5.94c.05-3.39-.17-7.6-1.21-10.94l-.21,.07c1.03,3.3,1.25,7.5,1.2,10.88-.02,1.69-.11,3.17-.19,4.23-.04,.53-.08,.95-.11,1.24-.03,.29-.05,.45-.05,.45l.22,.02h0Z"/><polygon class="d" points="287.31 114.05 289.08 112.46 291.03 114.58 291.2 114.43 289.1 112.15 287.16 113.89 287.31 114.05 287.31 114.05"/><polygon class="d" points="287.3 111.3 289 109.78 290.98 111.51 291.13 111.35 289 109.49 287.15 111.14 287.3 111.3 287.3 111.3"/><polygon class="d" points="287.38 108.79 289.08 107.28 291.06 109.01 291.21 108.84 289.08 106.98 287.23 108.63 287.38 108.79 287.38 108.79"/><polygon class="d" points="287.07 105.87 288.77 104.35 290.75 106.08 290.9 105.92 288.77 104.06 286.92 105.71 287.07 105.87 287.07 105.87"/></g><g><path class="c" d="M157.35,147.97h0s14.16,.53,10.06-15.24c-14.8,.44-10.07,15.24-10.07,15.24Z"/><path class="d" d="M157.81,146.75s1.82-1.9,3.94-4.64c2.12-2.74,4.54-6.32,5.74-9.69l-.22-.08c-1.18,3.33-3.59,6.9-5.71,9.63-1.06,1.36-2.04,2.52-2.76,3.33-.36,.41-.65,.73-.85,.95-.2,.22-.32,.34-.32,.34l.17,.15h0Z"/><polygon class="d" points="158.62 143.03 161.04 142.82 161.33 145.75 161.56 145.73 161.25 142.58 158.59 142.8 158.62 143.03 158.62 143.03"/><polygon class="d" points="160.3 140.77 162.62 140.58 163.18 143.21 163.4 143.17 162.8 140.34 160.28 140.55 160.3 140.77 160.3 140.77"/><polygon class="d" points="161.91 138.78 164.23 138.58 164.78 141.21 165.01 141.17 164.41 138.34 161.88 138.55 161.91 138.78 161.91 138.78"/><polygon class="d" points="163.45 136.2 165.77 136 166.33 138.64 166.56 138.59 165.96 135.76 163.43 135.98 163.45 136.2 163.45 136.2"/></g></g></svg>