<?xml version="1.0" encoding="UTF-8"?><svg xmlns="http://www.w3.org/2000/svg" viewBox="0 0 381.5 262"><defs><style>.c{fill:#afa57d;}.d{fill:#777159;}</style></defs><g id="a"><path class="c" d="M120.14,88.03h9.59v86.46h-9.59v-39.06h-18.63v39.06h-9.59V88.03h9.59v39.2h18.63v-39.2Z"/><path class="c" d="M155.31,88.03h14.18c7.32,0,10.98,3.66,10.98,10.98v64.5c0,7.32-3.66,10.98-10.98,10.98h-14.18c-7.32,0-10.98-3.66-10.98-10.98V99.01c0-7.32,3.66-10.98,10.98-10.98Zm15.71,73.95v-61.44c0-1.85-.28-3.03-.83-3.54-.56-.51-1.72-.76-3.47-.76h-8.62c-1.76,0-2.92,.26-3.47,.76-.56,.51-.83,1.69-.83,3.54v61.44c0,1.85,.28,3.04,.83,3.54,.56,.51,1.71,.76,3.47,.76h8.62c1.76,0,2.92-.25,3.47-.76,.56-.51,.83-1.69,.83-3.54Z"/><path class="c" d="M203.26,174.49h-8.2V88.03h10.43l14.87,55.6,15.01-55.6h10.42v86.46h-8.2V109.02l-12.09,46.7h-10.15l-12.09-46.7v65.47Z"/><path class="c" d="M270.67,166.29h23.77v8.2h-33.36V88.03h32.39v8.2h-22.8v29.19h18.63v8.2h-18.63v32.67Z"/></g><g id="b"><g><path class="c" d="M136.59,102.48h0s3-14.52-13.8-12.94c-2.12,15.34,13.79,12.94,13.79,12.94Z"/><path class="d" d="M135.43,101.8s-1.62-2.2-4.05-4.85c-2.43-2.65-5.65-5.74-8.88-7.55l-.11,.21c3.19,1.78,6.41,4.86,8.83,7.5,1.21,1.32,2.22,2.53,2.92,3.4,.35,.44,.63,.79,.82,1.04,.19,.25,.29,.38,.29,.38l.19-.15h0Z"/><polygon class="d" points="131.77 100.34 131.98 97.81 135.03 98 135.05 97.76 131.77 97.55 131.54 100.33 131.77 100.34 131.77 100.34"/><polygon class="d" points="129.77 98.23 129.97 95.8 132.76 95.67 132.75 95.43 129.76 95.57 129.54 98.21 129.77 98.23 129.77 98.23"/><polygon class="d" points="128.01 96.24 128.21 93.81 131 93.67 130.99 93.43 128 93.58 127.78 96.22 128.01 96.24 128.01 96.24"/><polygon class="d" points="125.65 94.21 125.85 91.78 128.64 91.65 128.63 91.41 125.64 91.55 125.42 94.19 125.65 94.21 125.65 94.21"/></g><g><path class="c" d="M81.42,104.86h0s15.2,.45,10.68-16.44c-15.88,.59-10.68,16.44-10.68,16.44Z"/><path class="d" d="M81.9,103.55s1.94-2.05,4.2-5.01c2.25-2.96,4.82-6.82,6.08-10.44l-.23-.08c-1.24,3.59-3.8,7.43-6.05,10.38-1.12,1.47-2.17,2.72-2.93,3.6-.38,.44-.69,.79-.91,1.03-.22,.24-.34,.36-.34,.36l.18,.16h0Z"/><polygon class="d" points="82.74 99.54 85.34 99.31 85.67 102.45 85.92 102.43 85.56 99.04 82.71 99.3 82.74 99.54 82.74 99.54"/><polygon class="d" points="84.53 97.12 87.02 96.89 87.64 99.71 87.88 99.66 87.21 96.63 84.5 96.88 84.53 97.12 84.53 97.12"/><polygon class="d" points="86.24 94.96 88.73 94.73 89.35 97.55 89.59 97.5 88.92 94.47 86.21 94.72 86.24 94.96 86.24 94.96"/><polygon class="d" points="87.88 92.18 90.37 91.95 90.99 94.77 91.23 94.73 90.56 91.69 87.85 91.94 87.88 92.18 87.88 92.18"/></g><g><path class="c" d="M161.24,112.64h0s9.41-10.27-5.42-17.92c-9.07,11.41,5.41,17.92,5.41,17.92Z"/><path class="d" d="M160.59,111.47s-.31-2.66-1.09-6.11c-.77-3.45-2.01-7.7-3.86-10.9l-.2,.11c1.83,3.15,3.06,7.39,3.83,10.83,.39,1.72,.66,3.24,.83,4.34,.09,.55,.15,.99,.19,1.29,.04,.3,.06,.47,.06,.47l.23-.02h0Z"/><polygon class="d" points="158.22 108.33 159.6 106.37 162.06 108.15 162.19 107.96 159.54 106.05 158.03 108.19 158.22 108.33 158.22 108.33"/><polygon class="d" points="157.54 105.53 158.87 103.66 161.26 105.03 161.37 104.83 158.8 103.36 157.36 105.4 157.54 105.53 157.54 105.53"/><polygon class="d" points="157.02 102.97 158.34 101.09 160.74 102.47 160.85 102.27 158.27 100.79 156.83 102.83 157.02 102.97 157.02 102.97"/><polygon class="d" points="156 100.06 157.33 98.18 159.72 99.55 159.83 99.36 157.26 97.88 155.81 99.92 156 100.06 156 100.06"/></g><g><path class="c" d="M101.53,151.97h0s14.12-1.73,7.56-16.72c-14.6,2.79-7.56,16.72-7.56,16.72Z"/><path class="d" d="M101.79,150.69s1.51-2.17,3.17-5.23c1.67-3.05,3.5-6.99,4.15-10.52l-.23-.04c-.64,3.49-2.47,7.41-4.13,10.45-.83,1.52-1.62,2.82-2.2,3.75-.29,.46-.53,.83-.7,1.08-.17,.25-.26,.38-.26,.38l.19,.13h0Z"/><polygon class="d" points="102 146.87 104.37 146.28 105.12 149.14 105.35 149.08 104.53 146 101.94 146.65 102 146.87 102 146.87"/><polygon class="d" points="103.31 144.37 105.58 143.8 106.55 146.33 106.77 146.25 105.72 143.53 103.25 144.15 103.31 144.37 103.31 144.37"/><polygon class="d" points="104.58 142.13 106.85 141.56 107.83 144.09 108.04 144.01 107 141.3 104.53 141.91 104.58 142.13 104.58 142.13"/><polygon class="d" points="105.71 139.33 107.98 138.76 108.95 141.29 109.17 141.21 108.12 138.49 105.65 139.11 105.71 139.33 105.71 139.33"/></g><g><path class="c" d="M191.54,108.97h0s13.5,.47,9.84-15.41c-14.13,.51-9.84,15.41-9.84,15.41Z"/><path class="d" d="M192,107.74s1.77-1.92,3.83-4.69c2.07-2.77,4.43-6.39,5.63-9.79l-.21-.07c-1.18,3.36-3.54,6.97-5.59,9.73-1.03,1.38-1.98,2.55-2.68,3.37-.35,.41-.63,.74-.83,.96-.2,.22-.31,.34-.31,.34l.16,.15h0Z"/><polygon class="d" points="192.83 103.99 195.14 103.77 195.37 106.73 195.59 106.71 195.34 103.53 192.81 103.76 192.83 103.99 192.83 103.99"/><polygon class="d" points="194.47 101.71 196.69 101.5 197.18 104.16 197.39 104.11 196.87 101.26 194.45 101.49 194.47 101.71 194.47 101.71"/><polygon class="d" points="196.03 99.69 198.25 99.48 198.74 102.14 198.96 102.09 198.43 99.24 196.01 99.46 196.03 99.69 196.03 99.69"/><polygon class="d" points="197.55 97.09 199.76 96.88 200.26 99.53 200.47 99.49 199.94 96.63 197.53 96.86 197.55 97.09 197.55 97.09"/></g><g><path class="c" d="M248.81,107.59h0s10.39-9.26-3.62-18.44c-10.16,10.43,3.62,18.44,3.62,18.44Z"/><path class="d" d="M248.28,106.35s-.05-2.69-.48-6.21c-.43-3.53-1.24-7.89-2.76-11.27l-.21,.09c1.51,3.34,2.32,7.69,2.74,11.2,.21,1.76,.33,3.31,.4,4.41,.03,.55,.05,1,.06,1.3,.01,.31,.01,.47,.01,.47h.23Z"/><polygon class="d" points="246.23 102.98 247.8 101.17 250.07 103.2 250.22 103.03 247.77 100.84 246.05 102.82 246.23 102.98 246.23 102.98"/><polygon class="d" points="245.83 100.12 247.34 98.39 249.59 100.01 249.72 99.82 247.3 98.08 245.66 99.96 245.83 100.12 245.83 100.12"/><polygon class="d" points="245.56 97.5 247.07 95.77 249.32 97.39 249.45 97.2 247.03 95.46 245.39 97.35 245.56 97.5 245.56 97.5"/><polygon class="d" points="244.84 94.49 246.34 92.76 248.6 94.38 248.72 94.19 246.3 92.45 244.67 94.34 244.84 94.49 244.84 94.49"/></g><g><path class="c" d="M185.9,109.84h0s5.92-12.05-9.31-14.59c-5.32,12.97,9.3,14.59,9.3,14.59Z"/><path class="d" d="M185.02,108.97s-.94-2.31-2.49-5.2c-1.55-2.89-3.71-6.37-6.17-8.7l-.15,.16c2.43,2.31,4.58,5.77,6.13,8.65,.77,1.44,1.39,2.74,1.82,3.67,.21,.47,.38,.85,.49,1.11,.11,.26,.17,.4,.17,.4l.2-.09h0Z"/><polygon class="d" points="182.11 106.84 182.87 104.66 185.52 105.54 185.59 105.34 182.74 104.39 181.91 106.77 182.11 106.84 182.11 106.84"/><polygon class="d" points="180.82 104.51 181.54 102.43 184.04 102.96 184.09 102.75 181.4 102.18 180.61 104.44 180.82 104.51 180.82 104.51"/><polygon class="d" points="179.71 102.35 180.43 100.27 182.93 100.8 182.98 100.59 180.29 100.01 179.5 102.28 179.71 102.35 179.71 102.35"/><polygon class="d" points="178.07 100.02 178.8 97.93 181.29 98.47 181.34 98.26 178.66 97.68 177.87 99.95 178.07 100.02 178.07 100.02"/></g><g><path class="c" d="M135.34,134.71h0s8.45-12.99-8.64-18.01c-7.9,14.13,8.64,18.01,8.64,18.01Z"/><path class="d" d="M134.45,133.59s-.76-2.78-2.13-6.31c-1.38-3.53-3.37-7.81-5.86-10.83l-.19,.16c2.46,2.98,4.45,7.25,5.82,10.76,.69,1.76,1.22,3.33,1.58,4.46,.18,.57,.32,1.02,.41,1.34,.09,.31,.14,.49,.14,.49l.24-.07h0Z"/><polygon class="d" points="131.42 130.74 132.59 128.35 135.5 129.73 135.61 129.51 132.47 128.02 131.19 130.64 131.42 130.74 131.42 130.74"/><polygon class="d" points="130.25 127.9 131.37 125.61 134.16 126.57 134.24 126.33 131.25 125.3 130.03 127.79 130.25 127.9 130.25 127.9"/><polygon class="d" points="129.28 125.27 130.4 122.98 133.19 123.94 133.27 123.7 130.28 122.67 129.06 125.16 129.28 125.27 129.28 125.27"/><polygon class="d" points="127.73 122.37 128.85 120.08 131.64 121.04 131.72 120.8 128.73 119.77 127.51 122.26 127.73 122.37 127.73 122.37"/></g><g><path class="c" d="M223.03,108.93h0s15.08,.77,10.96-16.09c-15.78,.25-10.96,16.09-10.96,16.09Z"/><path class="d" d="M223.53,107.64s1.97-2,4.27-4.88c2.3-2.89,4.93-6.66,6.26-10.24l-.23-.08c-1.31,3.53-3.93,7.3-6.23,10.17-1.15,1.44-2.21,2.66-2.99,3.51-.39,.43-.71,.77-.93,1-.22,.23-.34,.35-.34,.35l.18,.17h0Z"/><polygon class="d" points="224.45 103.69 227.04 103.5 227.3 106.64 227.55 106.62 227.26 103.25 224.43 103.45 224.45 103.69 224.45 103.69"/><polygon class="d" points="226.28 101.31 228.76 101.14 229.31 103.96 229.55 103.91 228.96 100.88 226.26 101.07 226.28 101.31 226.28 101.31"/><polygon class="d" points="228.02 99.21 230.5 99.03 231.05 101.85 231.3 101.81 230.7 98.78 228 98.97 228.02 99.21 228.02 99.21"/><polygon class="d" points="229.71 96.48 232.19 96.31 232.74 99.13 232.98 99.08 232.39 96.05 229.69 96.24 229.71 96.48 229.71 96.48"/></g><g><path class="c" d="M222.63,130.31h0s3.38-13.21-12.28-12.58c-2.6,14.01,12.28,12.58,12.28,12.58Z"/><path class="d" d="M221.57,129.63s-1.42-2.1-3.56-4.66c-2.14-2.55-5.01-5.56-7.94-7.38l-.12,.19c2.89,1.79,5.76,4.79,7.89,7.33,1.07,1.27,1.95,2.43,2.57,3.27,.31,.42,.55,.76,.72,1,.17,.24,.25,.37,.25,.37l.18-.13h0Z"/><polygon class="d" points="218.24 128.11 218.54 125.79 221.36 126.11 221.39 125.89 218.35 125.54 218.02 128.08 218.24 128.11 218.24 128.11"/><polygon class="d" points="216.46 126.06 216.75 123.84 219.35 123.86 219.35 123.63 216.56 123.62 216.25 126.04 216.46 126.06 216.46 126.06"/><polygon class="d" points="214.91 124.14 215.2 121.92 217.79 121.94 217.8 121.71 215.01 121.7 214.7 124.12 214.91 124.14 214.91 124.14"/><polygon class="d" points="212.8 122.16 213.09 119.94 215.69 119.95 215.69 119.73 212.9 119.72 212.59 122.14 212.8 122.16 212.8 122.16"/></g><g><path class="c" d="M185.33,134.45h0s9.36,4.36,11.07-7.39c-10.06-3.88-11.07,7.39-11.07,7.39Z"/><path class="d" d="M185.98,133.76s1.76-.76,3.96-2c2.2-1.24,4.83-2.96,6.59-4.88l-.13-.11c-1.74,1.9-4.36,3.62-6.55,4.85-1.1,.62-2.08,1.12-2.79,1.46-.36,.17-.64,.31-.84,.4-.2,.09-.31,.14-.31,.14l.07,.15h0Z"/><polygon class="d" points="187.58 131.49 189.26 132.04 188.63 134.09 188.79 134.14 189.47 131.93 187.62 131.33 187.58 131.49 187.58 131.49"/><polygon class="d" points="189.34 130.45 190.96 130.98 190.59 132.91 190.75 132.94 191.15 130.87 189.39 130.3 189.34 130.45 189.34 130.45"/><polygon class="d" points="190.99 129.57 192.6 130.09 192.23 132.02 192.39 132.05 192.79 129.98 191.04 129.41 190.99 129.57 190.99 129.57"/><polygon class="d" points="192.75 128.27 194.37 128.8 194 130.72 194.16 130.76 194.56 128.69 192.8 128.12 192.75 128.27 192.75 128.27"/></g><g><path class="c" d="M235.91,160.17h0s-1.39-10.23-12.2-5.32c2.17,10.56,12.2,5.32,12.2,5.32Z"/><path class="d" d="M234.98,159.99s-1.59-1.07-3.82-2.25c-2.23-1.18-5.1-2.47-7.67-2.91l-.03,.17c2.54,.43,5.4,1.72,7.62,2.89,1.11,.59,2.06,1.15,2.74,1.56,.34,.21,.6,.38,.79,.5,.18,.12,.28,.18,.28,.18l.09-.14h0Z"/><polygon class="d" points="232.21 159.88 231.76 158.16 233.83 157.59 233.79 157.43 231.56 158.04 232.05 159.92 232.21 159.88 232.21 159.88"/><polygon class="d" points="230.38 158.95 229.95 157.31 231.78 156.58 231.72 156.42 229.76 157.21 230.23 158.99 230.38 158.95 230.38 158.95"/><polygon class="d" points="228.75 158.05 228.32 156.41 230.14 155.68 230.08 155.52 228.12 156.3 228.59 158.09 228.75 158.05 228.75 158.05"/><polygon class="d" points="226.71 157.26 226.28 155.62 228.1 154.89 228.04 154.73 226.08 155.52 226.55 157.3 226.71 157.26 226.71 157.26"/></g><g><path class="c" d="M296.14,144.98h0s7.59-11.98-8.11-16.38c-7.07,13.01,8.1,16.38,8.1,16.38Z"/><path class="c" d="M295.31,143.97s-.72-2.53-2.02-5.75c-1.3-3.21-3.17-7.11-5.48-9.84l-.17,.15c2.28,2.7,4.15,6.58,5.45,9.78,.65,1.6,1.15,3.03,1.49,4.06,.17,.52,.3,.93,.39,1.22,.09,.29,.13,.44,.13,.44l.22-.07h0Z"/><polygon class="c" points="292.5 141.39 293.55 139.19 296.23 140.42 296.33 140.21 293.44 138.89 292.3 141.3 292.5 141.39 292.5 141.39"/><polygon class="c" points="291.41 138.8 292.41 136.7 294.96 137.54 295.04 137.33 292.29 136.42 291.2 138.71 291.41 138.8 291.41 138.8"/><polygon class="c" points="290.49 136.41 291.49 134.3 294.05 135.15 294.12 134.93 291.37 134.02 290.28 136.31 290.49 136.41 290.49 136.41"/><polygon class="c" points="289.04 133.77 290.04 131.67 292.6 132.51 292.67 132.3 289.92 131.39 288.83 133.68 289.04 133.77 289.04 133.77"/></g><g><path class="c" d="M253.47,110.74h0s13.66,.91,10.15-14.43c-14.3,.01-10.15,14.43-10.15,14.43Z"/><path class="d" d="M253.95,109.58s1.81-1.78,3.94-4.37c2.12-2.59,4.56-5.97,5.82-9.19l-.21-.08c-1.24,3.18-3.67,6.56-5.78,9.14-1.06,1.29-2.04,2.38-2.76,3.14-.36,.38-.65,.69-.85,.89-.2,.21-.31,.32-.31,.32l.16,.15h0Z"/><polygon class="d" points="254.84 106 257.18 105.87 257.38 108.72 257.6 108.7 257.39 105.65 254.82 105.79 254.84 106 254.84 106"/><polygon class="d" points="256.52 103.88 258.77 103.75 259.24 106.31 259.45 106.28 258.96 103.53 256.51 103.66 256.52 103.88 256.52 103.88"/><polygon class="d" points="258.13 101.99 260.38 101.87 260.84 104.43 261.06 104.39 260.56 101.64 258.12 101.78 258.13 101.99 258.13 101.99"/><polygon class="d" points="259.7 99.55 261.95 99.42 262.41 101.99 262.63 101.95 262.13 99.2 259.68 99.33 259.7 99.55 259.7 99.55"/></g><g><path class="c" d="M279.14,112.27h0s9.16-9.41-4.22-16.39c-8.89,10.45,4.22,16.39,4.22,16.39Z"/><path class="d" d="M278.59,111.2s-.17-2.43-.74-5.59c-.57-3.16-1.52-7.05-3.09-9.97l-.19,.1c1.55,2.88,2.51,6.76,3.07,9.9,.28,1.57,.47,2.97,.58,3.97,.06,.5,.1,.9,.12,1.18,.02,.28,.04,.43,.04,.43l.21-.02h0Z"/><polygon class="d" points="276.53 108.33 277.9 106.54 280.09 108.16 280.22 107.99 277.86 106.24 276.36 108.21 276.53 108.33 276.53 108.33"/><polygon class="d" points="276.03 105.77 277.34 104.06 279.5 105.31 279.61 105.13 277.29 103.78 275.86 105.65 276.03 105.77 276.03 105.77"/><polygon class="d" points="275.66 103.43 276.96 101.71 279.12 102.97 279.23 102.78 276.91 101.43 275.49 103.3 275.66 103.43 275.66 103.43"/><polygon class="d" points="274.85 100.76 276.15 99.05 278.31 100.3 278.42 100.12 276.1 98.77 274.68 100.64 274.85 100.76 274.85 100.76"/></g><g><path class="c" d="M247.65,135.44h0s13.43,5.48,15.03-11.12c-14.38-4.77-15.03,11.12-15.03,11.12Z"/><path class="d" d="M248.52,134.43s2.42-1.19,5.42-3.07c3-1.89,6.58-4.48,8.92-7.3l-.18-.15c-2.31,2.79-5.88,5.37-8.87,7.25-1.49,.94-2.85,1.71-3.82,2.24-.49,.27-.88,.47-1.16,.61-.27,.14-.42,.21-.42,.21l.11,.21h0Z"/><polygon class="d" points="250.6 131.13 253.01 131.79 252.26 134.71 252.48 134.77 253.29 131.63 250.66 130.91 250.6 131.13 250.6 131.13"/><polygon class="d" points="253.01 129.56 255.31 130.19 254.92 132.92 255.16 132.95 255.58 130.02 253.07 129.34 253.01 129.56 253.01 129.56"/><polygon class="d" points="255.26 128.2 257.56 128.83 257.17 131.56 257.4 131.6 257.82 128.66 255.32 127.98 255.26 128.2 255.26 128.2"/><polygon class="d" points="257.65 126.27 259.95 126.89 259.56 129.62 259.79 129.66 260.21 126.73 257.71 126.04 257.65 126.27 257.65 126.27"/></g><g><path class="c" d="M306.11,98.17h0s-1.82-13.38-15.95-6.96c2.84,13.82,15.95,6.96,15.95,6.96Z"/><path class="d" d="M304.9,97.94s-2.08-1.4-5-2.94c-2.92-1.54-6.67-3.23-10.03-3.8l-.04,.22c3.32,.57,7.06,2.25,9.97,3.78,1.45,.77,2.7,1.5,3.58,2.04,.44,.27,.79,.49,1.03,.65,.24,.15,.37,.24,.37,.24l.12-.18h0Z"/><polygon class="d" points="301.27 97.79 300.68 95.55 303.39 94.8 303.33 94.58 300.42 95.39 301.06 97.85 301.27 97.79 301.27 97.79"/><polygon class="d" points="298.88 96.58 298.32 94.43 300.7 93.48 300.62 93.27 298.06 94.3 298.68 96.63 298.88 96.58 298.88 96.58"/><polygon class="d" points="296.74 95.39 296.18 93.25 298.56 92.29 298.48 92.09 295.92 93.12 296.54 95.45 296.74 95.39 296.74 95.39"/><polygon class="d" points="294.07 94.37 293.51 92.22 295.89 91.26 295.81 91.06 293.25 92.09 293.87 94.42 294.07 94.37 294.07 94.37"/></g><g><path class="c" d="M290.38,108.25h0s11.37-7.91-1.1-17.82c-11.3,9.05,1.1,17.82,1.1,17.82Z"/><path class="d" d="M290.02,107.03s.31-2.56,.35-5.94c.05-3.39-.17-7.6-1.21-10.94l-.21,.07c1.03,3.3,1.25,7.5,1.2,10.88-.02,1.69-.11,3.17-.19,4.23-.04,.53-.08,.95-.11,1.24-.03,.29-.05,.45-.05,.45l.22,.02h0Z"/><polygon class="d" points="288.47 103.65 290.24 102.06 292.19 104.18 292.36 104.03 290.26 101.75 288.32 103.48 288.47 103.65 288.47 103.65"/><polygon class="d" points="288.46 100.9 290.16 99.38 292.14 101.11 292.29 100.95 290.16 99.08 288.31 100.74 288.46 100.9 288.46 100.9"/><polygon class="d" points="288.54 98.39 290.24 96.87 292.22 98.6 292.37 98.44 290.24 96.58 288.39 98.23 288.54 98.39 288.54 98.39"/><polygon class="d" points="288.23 95.47 289.93 93.95 291.91 95.68 292.06 95.52 289.93 93.66 288.08 95.31 288.23 95.47 288.23 95.47"/></g><g><path class="c" d="M157.44,133.85h0s10.75,9.23,17.37-5.65c-11.85-8.87-17.37,5.65-17.37,5.65Z"/><path class="d" d="M158.55,133.18s2.61-.35,5.97-1.17c3.36-.82,7.49-2.11,10.53-4l-.12-.19c-3,1.87-7.11,3.16-10.46,3.98-1.68,.41-3.17,.7-4.23,.89-.53,.09-.96,.16-1.26,.21-.3,.05-.46,.07-.46,.07l.04,.23h0Z"/><polygon class="d" points="161.5 130.77 163.53 132.12 161.93 134.59 162.12 134.72 163.84 132.06 161.63 130.58 161.5 130.77 161.5 130.77"/><polygon class="d" points="164.22 130.06 166.16 131.35 164.96 133.76 165.16 133.86 166.46 131.27 164.35 129.87 164.22 130.06 164.22 130.06"/><polygon class="d" points="166.73 129.49 168.66 130.79 167.46 133.19 167.66 133.3 168.96 130.71 166.85 129.3 166.73 129.49 166.73 129.49"/><polygon class="d" points="169.54 128.44 171.48 129.73 170.27 132.14 170.48 132.25 171.77 129.66 169.66 128.25 169.54 128.44 169.54 128.44"/></g></g></svg>