<?xml version="1.0" encoding="utf-8"?>
<!-- Generator: Adobe Illustrator 25.0.0, SVG Export Plug-In . SVG Version: 6.00 Build 0)  -->
<svg version="1.1" id="Calque_1" xmlns="http://www.w3.org/2000/svg" xmlns:xlink="http://www.w3.org/1999/xlink" x="0px" y="0px"
	 viewBox="0 0 43.28 55.89" style="enable-background:new 0 0 43.28 55.89;" xml:space="preserve">
<style type="text/css">
	.st0{fill-rule:evenodd;clip-rule:evenodd;fill:#456636;}
</style>
<path class="st0" d="M30.74,41.09c-0.32,1.16-1.47,2.33-2.35,2.94c-0.36,0.25,0.17-0.84-0.22-0.6c-2.17,1.32-3.05,1.46-4.68,1.52
	c-0.36,0.01,0.02-0.6-0.25-0.52c-1.59,0.43-2.04,1.05-3.91,0.74c-0.23-0.04,0.43-0.41,0.21-0.48c-0.53-0.15-1.97-0.17-2.5-0.47
	c-0.22-0.12,0.21-0.32-0.01-0.47c-0.29-0.2-1.89-0.62-2.18-0.86c-0.44-0.37,0.46-0.36,0.03-0.83c-0.95-0.56-2.2-1.6-2.69-3.04
	c-0.19-0.33,0.76-0.21,0.57-0.56c-0.12-0.22-1.92-1.58-2.03-1.81c-0.3-0.62,0.71-0.17,0.43-0.85c-0.26-0.61-1.67-2.25-1.89-2.91
	c0.03-0.41,0.82,0.14,0.37-0.99c-0.16-0.61-1.23-1.99-1.41-2.7c-0.06-0.24,0.67-0.02,0.62-0.24c-0.11-0.6-0.65-1.31-0.73-1.94
	c-0.04-0.25,0.45-0.06,0.42-0.33c-0.03-0.24-0.73-1.47-0.75-1.73c-0.06-0.61,0.36-0.42,0.32-1.05c-0.07-1.08-0.4-2.24-0.4-3.38
	c0-0.25,0.28,0.14,0.3-0.14c0.02-0.44-0.22-1.68-0.21-2.08c0.01-0.29,0.2-0.15,0.21-0.45c0.03-0.54-0.23-1.94-0.14-2.5
	c0.04-0.43,0.27,0.37,0.32-0.06c0.05-0.47,0.02-1.67,0.08-2.15c0.03-0.23,0.28,0.14,0.21-0.08c-0.04-0.13-0.15-1.11-0.02-1.35
	c0.04-0.25,0.32,0.23,0.25-0.02c-0.23-0.75,0.31-1.8,0.66-2.4c0.07,0.37-0.13,1.04,0.13,1.55c0.11,0.22,0.27-0.38,0.41-0.17
	c0.16,0.25,0.9,1.38,0.9,1.77c0.14,0.14,0.11-0.38,0.27-0.25c0.15,0.13,0.94,1.03,0.9,1.28c0.18,0.13,0.08-0.38,0.28-0.25
	c0.68,0.26,1.49,0.89,1.83,1.37c0.32,0.16-0.16-0.41,0.18-0.26c0.28,0.12,1.61,0.72,1.81,1.08c0.33,0.14-0.24-0.44,0.11-0.31
	c0.35,0.14,1.39,0.9,1.75,1.04c0.23,0.09-0.19-0.49,0.04-0.41c0.64,0.23,2.04,1.08,2.37,1.43c0.26,0.1-0.16-0.57,0.11-0.46
	c1.29,0.5,2.37,1.54,3.19,1.9c0.31,0.14,0.23-0.68,0.54-0.53c2.18,1.03,3.09,1.88,4.09,2.88c0.15,0.15-0.1-0.57,0.07-0.45
	c1.89,0.66,3.01,2.33,3.48,3.56c0.22,0.23,0.14-0.39,0.34-0.14c0.83,0.65,1.51,1.92,1.71,3.06c0.18,0.31,0.14-0.63,0.34-0.36
	c1.03,2.29,0.3,2.46,0.39,3.18c0.02,0.17,0.44-0.53,0.46-0.37c0.24,1.78-0.08,5.02-1.35,6.35c-0.21,0.22-0.37,0.65,0.4-0.04
	c0.62-0.55-0.43,1.81-0.99,2.46c-0.42,0.5-0.39,0.35,0.33,0.3c0.55-0.04-1.31,2.21-2.48,2.4c1.5,1.48,3.72,7.28,1.75,7.93
	C31.88,49.72,33.57,44.59,30.74,41.09L30.74,41.09L30.74,41.09z M27.06,31.5c1.27-1.39,1.62-3.42,1.56-5.25
	c-0.14,1.74-0.39,3.63-1.58,4.99c-0.17-1.97-1.09-3.87-2.34-5.51c1.7,2.94,2.96,6.24,1.26,9.39c-1.41-1.59-3.14-3.52-5.21-5.81
	c-0.58-0.64-1.12-1.26-1.63-1.86c0.27-0.79,0.39-1.6,0.38-2.4c1.13-1.52,1.26-3.58,1.01-5.41c0.05,1.74,0,3.62-1.02,5.09
	c-0.11-2.12-1.06-4.22-2.32-6.02c1.4,2.72,2.65,5.69,1.71,8.46c-4.22-5.06-6.35-9.29-8.84-16.06c1.62,4.8,3.22,8.66,5.55,12.35
	c-2.08,0-3.89-1.24-5.48-2.47c1.51,1.45,3.48,2.71,5.62,2.69c1.27,2,2.77,3.94,4.59,5.97l0,0L21,30.38c-3.3,0.44-6.37-1.25-9.1-2.94
	c2.6,2.04,5.9,3.69,9.27,3.27l0,0c0.03-0.01,0.06-0.03,0.08-0.05c1.05,1.16,2.01,2.22,2.89,3.18c-3.3,1.57-6.12,0.11-8.61-1.43
	c1.54,1.16,3.28,2.19,5.17,2.4c-0.01,0.01-0.01,0.01-0.02,0.02c-1.24,1.44-3.2,1.88-5.01,2.17c1.87-0.1,3.89-0.63,5.18-2.06l0,0
	c0.02-0.04,0.02-0.08,0-0.11c1.12,0.1,2.29-0.09,3.49-0.72l0,0c0.01,0,0.02-0.01,0.03-0.02c7.48,8.18,8.57,8.91,1.84,1.3
	C26.88,34.1,27.13,32.79,27.06,31.5z"/>
</svg>
