<?xml version="1.0" encoding="UTF-8"?><svg xmlns="http://www.w3.org/2000/svg" viewBox="0 0 827.97 262"><defs><style>.c,.d{fill:#afa57d;}.d{font-family:Teko-Light, Teko;font-size:139px;}.e{fill:#777159;}</style></defs><g id="a"><text class="d" transform="translate(16.85 174.18)"><tspan x="0" y="0">COFFRETS &amp; CADEAUX</tspan></text></g><g id="b"><g><path class="c" d="M151.6,137.27h0s12.55,7.89,16.95-8.4c-13.63-7.36-16.95,8.4-16.95,8.4Z"/><path class="e" d="M152.64,136.42s2.63-.75,5.96-2.09c3.33-1.35,7.36-3.29,10.18-5.68l-.16-.18c-2.79,2.37-6.8,4.3-10.12,5.64-1.66,.67-3.14,1.19-4.21,1.55-.53,.18-.97,.31-1.26,.4-.3,.09-.46,.14-.46,.14l.07,.23h0Z"/><polygon class="e" points="155.29 133.5 157.59 134.59 156.34 137.37 156.56 137.48 157.9 134.48 155.38 133.29 155.29 133.5 155.29 133.5"/><polygon class="e" points="157.97 132.37 160.17 133.41 159.32 136.06 159.55 136.14 160.46 133.29 158.07 132.16 157.97 132.37 157.97 132.37"/><polygon class="e" points="160.45 131.42 162.66 132.46 161.81 135.11 162.03 135.19 162.95 132.34 160.55 131.21 160.45 131.42 160.45 131.42"/><polygon class="e" points="163.18 129.92 165.38 130.96 164.53 133.61 164.76 133.69 165.67 130.84 163.27 129.7 163.18 129.92 163.18 129.92"/></g><g><path class="c" d="M156.66,121.31h0s6.6-13.55-10.62-16.45c-5.92,14.59,10.61,16.45,10.61,16.45Z"/><path class="e" d="M155.67,120.33s-1.08-2.6-2.85-5.86c-1.77-3.26-4.24-7.18-7.03-9.82l-.17,.18c2.76,2.61,5.22,6.51,6.98,9.76,.88,1.62,1.59,3.08,2.08,4.14,.24,.53,.43,.95,.56,1.25,.13,.29,.19,.45,.2,.45l.22-.1h0Z"/><polygon class="e" points="152.36 117.92 153.21 115.47 156.21 116.47 156.28 116.24 153.06 115.17 152.14 117.85 152.36 117.92 152.36 117.92"/><polygon class="e" points="150.88 115.3 151.69 112.96 154.51 113.57 154.56 113.33 151.53 112.67 150.65 115.23 150.88 115.3 150.88 115.3"/><polygon class="e" points="149.61 112.87 150.42 110.52 153.24 111.13 153.3 110.89 150.26 110.24 149.38 112.79 149.61 112.87 149.61 112.87"/><polygon class="e" points="147.75 110.24 148.56 107.89 151.38 108.5 151.43 108.26 148.4 107.61 147.52 110.16 147.75 110.24 147.75 110.24"/></g><g><path class="c" d="M400.08,123.9h0s13.83-1.63,7.6-17.11c-14.32,2.72-7.6,17.11-7.6,17.11Z"/><path class="e" d="M400.35,122.59s1.5-2.22,3.17-5.34c1.67-3.12,3.51-7.15,4.19-10.77l-.22-.04c-.67,3.58-2.51,7.6-4.17,10.71-.83,1.56-1.62,2.89-2.2,3.83-.29,.47-.53,.84-.7,1.1-.17,.26-.26,.39-.26,.39l.19,.13h0Z"/><polygon class="e" points="400.6 118.66 402.93 118.08 403.63 121.03 403.85 120.98 403.09 117.8 400.54 118.44 400.6 118.66 400.6 118.66"/><polygon class="e" points="401.91 116.11 404.14 115.55 405.06 118.16 405.27 118.08 404.28 115.28 401.86 115.88 401.91 116.11 401.91 116.11"/><polygon class="e" points="403.19 113.82 405.42 113.26 406.33 115.87 406.55 115.79 405.56 112.99 403.14 113.59 403.19 113.82 403.19 113.82"/><polygon class="e" points="404.32 110.95 406.55 110.39 407.47 113 407.68 112.92 406.69 110.12 404.27 110.72 404.32 110.95 404.32 110.95"/></g><g><path class="c" d="M380.48,130.97h0s3.65-13.45-13.04-13.44c-2.82,14.3,13.03,13.44,13.03,13.44Z"/><path class="e" d="M379.36,130.22s-1.5-2.22-3.77-4.93c-2.27-2.71-5.32-5.92-8.43-7.91l-.12,.19c3.07,1.96,6.11,5.16,8.38,7.86,1.13,1.35,2.07,2.58,2.73,3.47,.33,.45,.59,.81,.76,1.06,.18,.25,.27,.39,.27,.39l.19-.12h0Z"/><polygon class="e" points="375.81 128.53 376.14 126.15 379.14 126.6 379.17 126.38 375.94 125.89 375.58 128.49 375.81 128.53 375.81 128.53"/><polygon class="e" points="373.93 126.35 374.25 124.08 377.01 124.2 377.01 123.97 374.04 123.84 373.7 126.32 373.93 126.35 373.93 126.35"/><polygon class="e" points="372.28 124.31 372.6 122.04 375.36 122.16 375.37 121.93 372.4 121.8 372.05 124.28 372.28 124.31 372.28 124.31"/><polygon class="e" points="370.05 122.19 370.36 119.92 373.12 120.04 373.13 119.81 370.16 119.68 369.82 122.16 370.05 122.19 370.05 122.19"/></g><g><path class="c" d="M332.73,126.3h0s13.74-2.28,6.79-17.44c-14.17,3.38-6.79,17.44-6.79,17.44Z"/><path class="e" d="M332.93,124.97s1.39-2.29,2.92-5.48c1.52-3.2,3.17-7.3,3.68-10.96l-.22-.03c-.51,3.61-2.15,7.7-3.66,10.89-.76,1.59-1.48,2.96-2.02,3.93-.27,.48-.49,.87-.64,1.13-.15,.26-.24,.4-.24,.4l.19,.12h0Z"/><polygon class="e" points="333 121.04 335.3 120.35 336.14 123.27 336.35 123.2 335.45 120.06 332.94 120.81 333 121.04 333 121.04"/><polygon class="e" points="334.19 118.42 336.39 117.76 337.43 120.32 337.64 120.23 336.52 117.48 334.13 118.2 334.19 118.42 334.19 118.42"/><polygon class="e" points="335.36 116.08 337.56 115.42 338.6 117.98 338.81 117.89 337.69 115.14 335.3 115.85 335.36 116.08 335.36 116.08"/><polygon class="e" points="336.36 113.16 338.56 112.5 339.6 115.06 339.81 114.97 338.69 112.22 336.3 112.94 336.36 113.16 336.36 113.16"/></g><g><path class="c" d="M278.87,166.36h0s3.7-13.43-12.99-13.48c-2.87,14.29,12.99,13.48,12.99,13.48Z"/><path class="e" d="M277.76,165.61s-1.49-2.23-3.76-4.95c-2.26-2.72-5.3-5.94-8.4-7.94l-.12,.19c3.07,1.97,6.09,5.18,8.35,7.89,1.13,1.36,2.06,2.59,2.72,3.48,.33,.45,.58,.81,.76,1.06,.17,.25,.27,.39,.27,.39l.19-.12h0Z"/><polygon class="e" points="274.22 163.9 274.56 161.53 277.55 161.99 277.59 161.76 274.36 161.27 273.99 163.87 274.22 163.9 274.22 163.9"/><polygon class="e" points="272.34 161.72 272.67 159.45 275.43 159.58 275.44 159.35 272.47 159.21 272.12 161.69 272.34 161.72 272.34 161.72"/><polygon class="e" points="270.7 159.68 271.03 157.41 273.79 157.54 273.8 157.31 270.83 157.17 270.48 159.64 270.7 159.68 270.7 159.68"/><polygon class="e" points="268.47 157.55 268.8 155.27 271.56 155.41 271.57 155.18 268.6 155.04 268.25 157.51 268.47 157.55 268.47 157.55"/></g><g><path class="c" d="M334.14,157.17h0s13.42-3.74,4.87-18.07c-13.73,4.89-4.88,18.07-4.88,18.07Z"/><path class="e" d="M334.2,155.83s1.14-2.42,2.31-5.77c1.17-3.34,2.37-7.6,2.48-11.29h-.23c-.11,3.64-1.31,7.88-2.47,11.21-.58,1.67-1.16,3.1-1.59,4.12-.21,.51-.39,.92-.52,1.19-.12,.28-.19,.43-.2,.43l.2,.1h0Z"/><polygon class="e" points="333.84 151.91 336.05 150.98 337.2 153.79 337.41 153.7 336.17 150.68 333.76 151.7 333.84 151.91 333.84 151.91"/><polygon class="e" points="334.75 149.18 336.86 148.29 338.17 150.72 338.37 150.61 336.96 148 334.66 148.97 334.75 149.18 334.75 149.18"/><polygon class="e" points="335.66 146.73 337.77 145.83 339.08 148.27 339.28 148.16 337.87 145.54 335.57 146.51 335.66 146.73 335.66 146.73"/><polygon class="e" points="336.33 143.72 338.45 142.82 339.76 145.26 339.96 145.15 338.55 142.53 336.25 143.5 336.33 143.72 336.33 143.72"/></g><g><path class="c" d="M302.84,165.68h0s13.89-1.11,8.24-16.81c-14.41,2.18-8.24,16.81-8.24,16.81Z"/><path class="e" d="M303.16,164.38s1.58-2.16,3.37-5.22c1.79-3.06,3.78-7.01,4.6-10.61l-.22-.05c-.81,3.56-2.79,7.5-4.57,10.54-.89,1.52-1.73,2.82-2.35,3.74-.31,.46-.56,.82-.74,1.07-.18,.25-.27,.38-.27,.38l.18,.14h0Z"/><polygon class="e" points="303.56 160.47 305.91 159.98 306.5 162.95 306.72 162.91 306.09 159.7 303.52 160.24 303.56 160.47 303.56 160.47"/><polygon class="e" points="304.97 157.96 307.22 157.49 308.04 160.13 308.26 160.06 307.37 157.22 304.93 157.74 304.97 157.96 304.97 157.96"/><polygon class="e" points="306.33 155.73 308.58 155.25 309.4 157.89 309.62 157.82 308.74 154.99 306.29 155.5 306.33 155.73 306.33 155.73"/><polygon class="e" points="307.58 152.9 309.82 152.43 310.64 155.07 310.86 155 309.98 152.16 307.53 152.67 307.58 152.9 307.58 152.9"/></g><g><path class="c" d="M294.36,161.33h0s9.61-10.09-5.08-18.02c-9.28,11.23,5.07,18.02,5.07,18.02Z"/><path class="e" d="M293.73,160.14s-.26-2.67-.97-6.13c-.71-3.47-1.86-7.74-3.65-10.97l-.2,.11c1.77,3.19,2.92,7.45,3.63,10.9,.35,1.73,.6,3.26,.75,4.35,.08,.55,.13,.99,.17,1.29,.04,.3,.05,.47,.05,.47l.23-.02h0Z"/><polygon class="e" points="291.41 156.96 292.83 155.03 295.26 156.85 295.39 156.67 292.78 154.7 291.23 156.82 291.41 156.96 291.41 156.96"/><polygon class="e" points="290.79 154.15 292.15 152.3 294.52 153.72 294.64 153.52 292.09 152 290.61 154.01 290.79 154.15 290.79 154.15"/><polygon class="e" points="290.31 151.58 291.67 149.73 294.04 151.15 294.16 150.95 291.61 149.42 290.13 151.44 290.31 151.58 290.31 151.58"/><polygon class="e" points="289.35 148.65 290.71 146.8 293.08 148.22 293.2 148.02 290.65 146.49 289.17 148.51 289.35 148.65 289.35 148.65"/></g><g><path class="c" d="M297.83,128.03h0s13.52,3.38,13.17-13.3c-14.35-2.53-13.17,13.3-13.17,13.3Z"/><path class="e" d="M298.55,126.89s2.19-1.54,4.86-3.87c2.67-2.33,5.81-5.44,7.74-8.59l-.19-.12c-1.9,3.11-5.03,6.21-7.69,8.53-1.33,1.16-2.54,2.12-3.42,2.8-.44,.34-.79,.6-1.04,.78-.25,.18-.38,.28-.38,.28l.13,.19h0Z"/><polygon class="e" points="300.17 123.31 302.55 123.59 302.16 126.6 302.39 126.63 302.81 123.39 300.2 123.08 300.17 123.31 300.17 123.31"/><polygon class="e" points="302.31 121.39 304.59 121.66 304.52 124.42 304.75 124.42 304.82 121.45 302.34 121.16 302.31 121.39 302.31 121.39"/><polygon class="e" points="304.31 119.7 306.59 119.97 306.53 122.73 306.75 122.73 306.82 119.76 304.34 119.47 304.31 119.7 304.31 119.7"/><polygon class="e" points="306.39 117.42 308.67 117.69 308.6 120.45 308.83 120.45 308.9 117.48 306.42 117.19 306.39 117.42 306.39 117.42"/></g><g><path class="c" d="M251.31,128.72h0s13.88-1.2,8.13-16.86c-14.39,2.27-8.13,16.86-8.13,16.86Z"/><path class="e" d="M251.62,127.41s1.57-2.17,3.33-5.24c1.77-3.07,3.73-7.03,4.53-10.64l-.22-.05c-.79,3.56-2.74,7.51-4.5,10.57-.88,1.53-1.71,2.83-2.32,3.76-.31,.46-.56,.83-.73,1.08-.17,.25-.27,.38-.27,.38l.18,.14h0Z"/><polygon class="e" points="252 123.49 254.34 122.99 254.95 125.96 255.17 125.91 254.51 122.71 251.95 123.27 252 123.49 252 123.49"/><polygon class="e" points="253.39 120.98 255.63 120.49 256.47 123.13 256.68 123.06 255.79 120.22 253.34 120.75 253.39 120.98 253.39 120.98"/><polygon class="e" points="254.74 118.73 256.98 118.25 257.82 120.88 258.03 120.81 257.13 117.98 254.69 118.51 254.74 118.73 254.74 118.73"/><polygon class="e" points="255.96 115.9 258.2 115.42 259.04 118.05 259.25 117.98 258.35 115.15 255.91 115.67 255.96 115.9 255.96 115.9"/></g><g><path class="c" d="M204.15,118.34h0s3.3-13.85-13.04-12.91c-2.47,14.66,13.04,12.91,13.04,12.91Z"/><path class="e" d="M203.04,117.65s-1.51-2.17-3.8-4.79c-2.28-2.63-5.33-5.71-8.42-7.56l-.12,.2c3.05,1.82,6.09,4.89,8.36,7.51,1.14,1.31,2.08,2.5,2.74,3.37,.33,.43,.59,.79,.77,1.03,.18,.24,.27,.38,.27,.38l.19-.14h0Z"/><polygon class="e" points="199.53 116.12 199.81 113.69 202.76 113.99 202.78 113.76 199.61 113.44 199.31 116.1 199.53 116.12 199.53 116.12"/><polygon class="e" points="197.65 114.02 197.91 111.7 200.62 111.67 200.62 111.44 197.71 111.47 197.42 114 197.65 114.02 197.65 114.02"/><polygon class="e" points="195.99 112.05 196.26 109.72 198.96 109.69 198.96 109.46 196.06 109.49 195.77 112.02 195.99 112.05 195.99 112.05"/><polygon class="e" points="193.76 110.02 194.02 107.69 196.73 107.66 196.73 107.43 193.82 107.47 193.53 110 193.76 110.02 193.76 110.02"/></g><g><path class="c" d="M440.93,141.66h0s10.11-8.97-3.49-17.94c-9.88,10.11,3.49,17.94,3.49,17.94Z"/><path class="e" d="M440.42,140.45s-.04-2.61-.46-6.04c-.41-3.43-1.19-7.68-2.67-10.97l-.2,.09c1.46,3.25,2.24,7.49,2.65,10.9,.21,1.71,.32,3.21,.38,4.29,.03,.54,.05,.97,.06,1.27,.01,.3,.01,.46,.01,.46h.22Z"/><polygon class="e" points="438.43 137.16 439.96 135.41 442.16 137.39 442.31 137.22 439.93 135.09 438.26 137.01 438.43 137.16 438.43 137.16"/><polygon class="e" points="438.05 134.38 439.51 132.7 441.7 134.29 441.82 134.11 439.47 132.4 437.88 134.23 438.05 134.38 438.05 134.38"/><polygon class="e" points="437.79 131.84 439.25 130.16 441.44 131.74 441.56 131.56 439.21 129.86 437.62 131.69 437.79 131.84 437.79 131.84"/><polygon class="e" points="437.09 128.91 438.55 127.23 440.74 128.81 440.87 128.63 438.52 126.93 436.92 128.76 437.09 128.91 437.09 128.91"/></g><g><path class="c" d="M589.94,123.62h0s11.39,8,17.12-7.74c-12.48-7.5-17.12,7.74-17.12,7.74Z"/><path class="e" d="M591.02,122.82s2.6-.66,5.94-1.89c3.33-1.23,7.4-3.01,10.34-5.27l-.14-.18c-2.9,2.23-6.96,4.02-10.28,5.24-1.66,.61-3.14,1.08-4.2,1.4-.53,.16-.96,.28-1.25,.36-.29,.08-.46,.12-.46,.12l.05,.22h0Z"/><polygon class="e" points="593.84 120.05 595.96 121.16 594.51 123.84 594.71 123.94 596.27 121.06 593.95 119.84 593.84 120.05 593.84 120.05"/><polygon class="e" points="596.53 119.01 598.56 120.08 597.5 122.64 597.71 122.72 598.86 119.97 596.64 118.8 596.53 119.01 596.53 119.01"/><polygon class="e" points="599.02 118.15 601.05 119.21 599.98 121.78 600.2 121.86 601.34 119.1 599.13 117.94 599.02 118.15 599.02 118.15"/><polygon class="e" points="601.78 116.75 603.81 117.82 602.75 120.38 602.96 120.47 604.1 117.71 601.89 116.55 601.78 116.75 601.78 116.75"/></g><g><path class="c" d="M220.52,126.03h0s10.93-7.79-1.26-17.26c-10.85,8.89,1.26,17.26,1.26,17.26Z"/><path class="e" d="M220.16,124.85s.27-2.48,.28-5.76c0-3.28-.24-7.37-1.29-10.59l-.21,.07c1.04,3.19,1.29,7.25,1.28,10.52,0,1.63-.07,3.07-.14,4.1-.03,.51-.07,.92-.09,1.21-.03,.28-.04,.44-.04,.44l.22,.02h0Z"/><polygon class="e" points="218.62 121.59 220.32 120.03 222.23 122.07 222.39 121.92 220.33 119.73 218.47 121.43 218.62 121.59 218.62 121.59"/><polygon class="e" points="218.58 118.92 220.21 117.43 222.15 119.09 222.29 118.93 220.21 117.15 218.43 118.77 218.58 118.92 218.58 118.92"/><polygon class="e" points="218.63 116.49 220.26 115.01 222.2 116.66 222.34 116.5 220.26 114.72 218.48 116.34 218.63 116.49 218.63 116.49"/><polygon class="e" points="218.3 113.67 219.93 112.18 221.87 113.83 222.01 113.67 219.93 111.89 218.15 113.51 218.3 113.67 218.3 113.67"/></g><g><path class="c" d="M249.27,119.43h0s-.09-15.5-17.12-10.29c1.17,16.15,17.12,10.29,17.12,10.29Z"/><path class="e" d="M247.92,118.99s-2.16-1.9-5.25-4.09c-3.09-2.19-7.11-4.67-10.85-5.82l-.07,.24c3.7,1.14,7.7,3.61,10.78,5.79,1.54,1.09,2.85,2.11,3.77,2.86,.46,.37,.83,.68,1.08,.89,.25,.21,.38,.33,.38,.33l.16-.19h0Z"/><polygon class="e" points="243.81 118.28 243.47 115.64 246.67 115.19 246.63 114.94 243.2 115.42 243.57 118.31 243.81 118.28 243.81 118.28"/><polygon class="e" points="241.27 116.54 240.95 114.02 243.8 113.28 243.75 113.04 240.68 113.83 241.03 116.58 241.27 116.54 241.27 116.54"/><polygon class="e" points="239.01 114.88 238.69 112.35 241.54 111.62 241.49 111.38 238.42 112.16 238.77 114.91 239.01 114.88 239.01 114.88"/><polygon class="e" points="236.13 113.31 235.8 110.78 238.66 110.05 238.6 109.81 235.53 110.59 235.88 113.35 236.13 113.31 236.13 113.31"/></g><g><path class="c" d="M469.02,128.49h0s14.74,3.28,13.48-14.04c-15.6-2.38-13.49,14.04-13.49,14.04Z"/><path class="e" d="M469.73,127.3s2.28-1.64,5.03-4.1c2.75-2.46,5.98-5.75,7.88-9.05l-.21-.12c-1.88,3.27-5.1,6.54-7.84,9-1.37,1.23-2.62,2.25-3.53,2.97-.45,.36-.82,.64-1.08,.83-.26,.19-.4,.29-.4,.29l.15,.19h0Z"/><polygon class="e" points="471.3 123.55 473.88 123.8 473.62 126.93 473.86 126.96 474.14 123.59 471.32 123.31 471.3 123.55 471.3 123.55"/><polygon class="e" points="473.49 121.52 475.97 121.76 476.04 124.63 476.29 124.62 476.2 121.54 473.51 121.28 473.49 121.52 473.49 121.52"/><polygon class="e" points="475.56 119.73 478.04 119.97 478.11 122.84 478.36 122.84 478.27 119.75 475.58 119.49 475.56 119.73 475.56 119.73"/><polygon class="e" points="477.68 117.32 480.15 117.56 480.23 120.43 480.47 120.43 480.39 117.35 477.7 117.09 477.68 117.32 477.68 117.32"/></g><g><path class="c" d="M459.88,172.59h0s4.22-12.97-11.46-13.34c-3.49,13.82,11.45,13.34,11.45,13.34Z"/><path class="e" d="M458.87,171.85s-1.28-2.19-3.25-4.87c-1.98-2.69-4.65-5.87-7.45-7.87l-.13,.18c2.77,1.98,5.44,5.15,7.41,7.82,.98,1.34,1.8,2.55,2.36,3.43,.28,.44,.5,.8,.65,1.04,.15,.25,.23,.38,.23,.38l.19-.12h0Z"/><polygon class="e" points="455.64 170.12 456.09 167.82 458.88 168.33 458.92 168.11 455.92 167.56 455.42 170.08 455.64 170.12 455.64 170.12"/><polygon class="e" points="454 167.96 454.43 165.76 457.01 165.94 457.03 165.72 454.25 165.53 453.78 167.93 454 167.96 454 167.96"/><polygon class="e" points="452.57 165.95 453 163.75 455.59 163.93 455.61 163.71 452.83 163.52 452.36 165.91 452.57 165.95 452.57 165.95"/><polygon class="e" points="450.59 163.84 451.02 161.64 453.61 161.82 453.63 161.6 450.85 161.4 450.38 163.8 450.59 163.84 450.59 163.84"/></g><g><path class="c" d="M400.15,140.97h0s9.36,4.36,11.07-7.39c-10.06-3.88-11.07,7.39-11.07,7.39Z"/><path class="e" d="M400.81,140.28s1.76-.76,3.96-2c2.2-1.24,4.83-2.96,6.59-4.88l-.13-.11c-1.74,1.9-4.36,3.62-6.55,4.85-1.1,.62-2.08,1.12-2.79,1.46-.36,.17-.64,.31-.84,.4-.2,.09-.31,.14-.31,.14l.07,.15h0Z"/><polygon class="e" points="402.4 138.01 404.09 138.56 403.45 140.61 403.61 140.66 404.29 138.45 402.45 137.85 402.4 138.01 402.4 138.01"/><polygon class="e" points="404.17 136.98 405.78 137.5 405.41 139.43 405.57 139.46 405.97 137.39 404.22 136.82 404.17 136.98 404.17 136.98"/><polygon class="e" points="405.81 136.09 407.42 136.61 407.05 138.54 407.22 138.57 407.62 136.5 405.86 135.93 405.81 136.09 405.81 136.09"/><polygon class="e" points="407.58 134.79 409.19 135.32 408.82 137.24 408.98 137.28 409.38 135.21 407.63 134.64 407.58 134.79 407.58 134.79"/></g><g><path class="c" d="M501.52,136.36h0s-1.39-10.23-12.2-5.32c2.17,10.56,12.2,5.32,12.2,5.32Z"/><path class="e" d="M500.59,136.18s-1.59-1.07-3.82-2.25c-2.23-1.18-5.1-2.47-7.67-2.91l-.03,.17c2.54,.43,5.4,1.72,7.62,2.89,1.11,.59,2.06,1.15,2.74,1.56,.34,.21,.6,.38,.79,.5,.18,.12,.28,.18,.28,.18l.09-.14h0Z"/><polygon class="e" points="497.82 136.07 497.37 134.35 499.44 133.78 499.39 133.62 497.17 134.24 497.66 136.11 497.82 136.07 497.82 136.07"/><polygon class="e" points="495.99 135.14 495.56 133.5 497.38 132.77 497.32 132.61 495.37 133.4 495.83 135.19 495.99 135.14 495.99 135.14"/><polygon class="e" points="494.36 134.24 493.93 132.6 495.75 131.87 495.69 131.71 493.73 132.49 494.2 134.28 494.36 134.24 494.36 134.24"/><polygon class="e" points="492.31 133.45 491.88 131.81 493.7 131.08 493.65 130.92 491.69 131.71 492.16 133.49 492.31 133.45 492.31 133.45"/></g><g><path class="c" d="M521.21,143.54h0s13.66,.91,10.15-14.43c-14.3,.01-10.15,14.43-10.15,14.43Z"/><path class="e" d="M521.69,142.38s1.81-1.78,3.94-4.37c2.12-2.59,4.56-5.97,5.82-9.19l-.21-.08c-1.24,3.18-3.67,6.56-5.78,9.14-1.06,1.29-2.04,2.38-2.76,3.14-.36,.38-.65,.69-.85,.89-.2,.21-.31,.32-.31,.32l.16,.15h0Z"/><polygon class="e" points="522.57 138.8 524.92 138.67 525.12 141.52 525.34 141.5 525.13 138.45 522.56 138.59 522.57 138.8 522.57 138.8"/><polygon class="e" points="524.26 136.68 526.51 136.55 526.97 139.11 527.19 139.08 526.69 136.33 524.25 136.46 524.26 136.68 524.26 136.68"/><polygon class="e" points="525.87 134.79 528.12 134.67 528.58 137.23 528.8 137.19 528.3 134.44 525.86 134.58 525.87 134.79 525.87 134.79"/><polygon class="e" points="527.44 132.35 529.68 132.22 530.15 134.78 530.37 134.75 529.87 132 527.42 132.13 527.44 132.35 527.44 132.35"/></g><g><path class="c" d="M547.66,155.25h0s11.84-5.66,1.7-16.84c-11.95,6.73-1.7,16.84-1.7,16.84Z"/><path class="e" d="M547.51,154.05s.68-2.34,1.24-5.5c.56-3.16,1.01-7.14,.54-10.42l-.21,.03c.46,3.24,.02,7.21-.54,10.36-.28,1.57-.59,2.95-.83,3.92-.12,.49-.22,.88-.29,1.15-.07,.27-.11,.41-.11,.41l.21,.05h0Z"/><polygon class="e" points="546.57 150.65 548.47 149.44 549.97 151.72 550.15 151.61 548.53 149.15 546.45 150.48 546.57 150.65 546.57 150.65"/><polygon class="e" points="546.98 148.08 548.8 146.92 550.39 148.84 550.56 148.71 548.85 146.64 546.87 147.91 546.98 148.08 546.98 148.08"/><polygon class="e" points="547.44 145.75 549.26 144.59 550.85 146.51 551.02 146.38 549.31 144.31 547.33 145.57 547.44 145.75 547.44 145.75"/><polygon class="e" points="547.6 142.97 549.42 141.81 551.01 143.73 551.18 143.6 549.47 141.53 547.49 142.79 547.6 142.97 547.6 142.97"/></g><g><path class="c" d="M564.85,121.75h0s5.38-13.47-11.23-14.95c-4.67,14.41,11.22,14.95,11.22,14.95Z"/><path class="e" d="M563.83,120.89s-1.2-2.41-3.11-5.4c-1.91-2.99-4.52-6.55-7.36-8.87l-.15,.18c2.8,2.29,5.41,5.84,7.31,8.81,.95,1.49,1.73,2.83,2.27,3.81,.27,.49,.48,.88,.62,1.15,.14,.27,.22,.42,.22,.42l.21-.11h0Z"/><polygon class="e" points="560.52 118.84 561.16 116.43 564.08 117.16 564.14 116.93 560.99 116.14 560.3 118.78 560.52 118.84 560.52 118.84"/><polygon class="e" points="558.93 116.44 559.54 114.13 562.27 114.5 562.31 114.27 559.37 113.87 558.71 116.38 558.93 116.44 558.93 116.44"/><polygon class="e" points="557.56 114.2 558.17 111.9 560.9 112.27 560.93 112.03 558 111.64 557.33 114.14 557.56 114.2 557.56 114.2"/><polygon class="e" points="555.6 111.82 556.21 109.52 558.95 109.89 558.98 109.66 556.04 109.26 555.38 111.77 555.6 111.82 555.6 111.82"/></g><g><path class="c" d="M626.2,142.14h0s-.25-13.5-15.03-8.77c1.21,14.05,15.03,8.77,15.03,8.77Z"/><path class="e" d="M625.02,141.77s-1.9-1.63-4.62-3.51c-2.72-1.87-6.25-3.98-9.52-4.95l-.06,.21c3.23,.95,6.75,3.05,9.46,4.92,1.35,.93,2.51,1.81,3.32,2.45,.41,.32,.73,.58,.95,.76,.22,.18,.34,.28,.34,.28l.14-.17h0Z"/><polygon class="e" points="621.43 141.2 621.11 138.91 623.89 138.47 623.86 138.26 620.87 138.72 621.22 141.23 621.43 141.2 621.43 141.2"/><polygon class="e" points="619.2 139.72 618.89 137.52 621.37 136.85 621.32 136.64 618.65 137.36 618.99 139.75 619.2 139.72 619.2 139.72"/><polygon class="e" points="617.22 138.3 616.91 136.1 619.38 135.43 619.33 135.22 616.67 135.94 617 138.33 617.22 138.3 617.22 138.3"/><polygon class="e" points="614.68 136.96 614.37 134.76 616.85 134.09 616.8 133.88 614.13 134.6 614.47 136.99 614.68 136.96 614.68 136.96"/></g><g><path class="c" d="M501.46,159.72h0s.15-13.85-15.16-9.45c.81,14.45,15.15,9.45,15.15,9.45Z"/><path class="e" d="M500.26,159.31s-1.9-1.73-4.63-3.74c-2.73-2-6.29-4.28-9.62-5.36l-.07,.21c3.29,1.07,6.83,3.34,9.56,5.33,1.36,1,2.52,1.93,3.33,2.61,.41,.34,.73,.62,.95,.81,.22,.19,.34,.3,.34,.3l.15-.17h0Z"/><polygon class="e" points="496.6 158.61 496.34 156.25 499.2 155.89 499.18 155.67 496.1 156.05 496.38 158.64 496.6 158.61 496.6 158.61"/><polygon class="e" points="494.36 157.03 494.11 154.76 496.67 154.15 496.62 153.93 493.87 154.59 494.14 157.05 494.36 157.03 494.36 157.03"/><polygon class="e" points="492.36 155.51 492.11 153.24 494.67 152.63 494.63 152.41 491.87 153.07 492.15 155.53 492.36 155.51 492.36 155.51"/><polygon class="e" points="489.81 154.06 489.56 151.8 492.12 151.19 492.07 150.97 489.31 151.62 489.59 154.09 489.81 154.06 489.81 154.06"/></g><g><path class="c" d="M151.08,158.22h0s2.9-13.87-13.33-12.48c-2.05,14.66,13.33,12.48,13.33,12.48Z"/><path class="e" d="M149.95,157.56s-1.57-2.12-3.91-4.67c-2.34-2.55-5.46-5.54-8.59-7.29l-.11,.2c3.09,1.73,6.2,4.7,8.53,7.24,1.17,1.27,2.14,2.43,2.82,3.28,.34,.42,.61,.77,.79,1,.18,.24,.28,.37,.28,.37l.18-.14h0Z"/><polygon class="e" points="146.42 156.14 146.62 153.72 149.57 153.92 149.58 153.69 146.42 153.47 146.19 156.12 146.42 156.14 146.42 156.14"/><polygon class="e" points="144.48 154.1 144.68 151.78 147.37 151.68 147.37 151.45 144.47 151.56 144.26 154.09 144.48 154.1 144.48 154.1"/><polygon class="e" points="142.78 152.18 142.98 149.86 145.67 149.75 145.67 149.53 142.77 149.64 142.56 152.17 142.78 152.18 142.78 152.18"/><polygon class="e" points="140.5 150.23 140.7 147.9 143.39 147.8 143.39 147.57 140.49 147.68 140.28 150.21 140.5 150.23 140.5 150.23"/></g><g><path class="c" d="M109.39,143.44h0s15.05,3.68,14.13-14.11c-15.95-2.78-14.14,14.11-14.14,14.11Z"/><path class="e" d="M110.14,142.24s2.37-1.63,5.25-4.1c2.87-2.47,6.25-5.77,8.28-9.11l-.22-.13c-2,3.31-5.37,6.6-8.23,9.06-1.43,1.23-2.74,2.25-3.69,2.97-.47,.36-.86,.64-1.12,.83-.27,.19-.41,.29-.41,.29l.15,.2h0Z"/><polygon class="e" points="111.83 138.43 114.47 138.74 114.14 141.95 114.39 141.98 114.75 138.53 111.85 138.18 111.83 138.43 111.83 138.43"/><polygon class="e" points="114.13 136.39 116.66 136.69 116.67 139.63 116.93 139.64 116.91 136.47 114.15 136.14 114.13 136.39 114.13 136.39"/><polygon class="e" points="116.29 134.6 118.82 134.9 118.84 137.85 119.09 137.85 119.07 134.68 116.32 134.36 116.29 134.6 116.29 134.6"/><polygon class="e" points="118.51 132.18 121.04 132.48 121.06 135.43 121.31 135.43 121.29 132.26 118.54 131.94 118.51 132.18 118.51 132.18"/></g><g><path class="c" d="M191.86,163.24h0s10.44-6.8-1.71-20.58c-10.33,8.11,1.7,20.58,1.7,20.58Z"/><path class="e" d="M191.47,161.77s.19-2.86,.11-6.72c-.08-3.86-.44-8.72-1.55-12.74l-.2,.04c1.1,3.97,1.46,8.82,1.54,12.66,.04,1.92,.01,3.6-.02,4.79-.02,.6-.04,1.07-.06,1.4-.02,.33-.03,.5-.03,.5l.21,.07h0Z"/><polygon class="e" points="189.87 157.6 191.49 156.14 193.41 158.95 193.56 158.81 191.5 155.78 189.73 157.39 189.87 157.6 189.87 157.6"/><polygon class="e" points="189.76 154.46 191.31 153.06 193.25 155.43 193.39 155.27 191.3 152.72 189.62 154.24 189.76 154.46 189.76 154.46"/><polygon class="e" points="189.75 151.61 191.29 150.21 193.23 152.58 193.37 152.42 191.28 149.87 189.6 151.4 189.75 151.61 189.75 151.61"/><polygon class="e" points="189.35 148.21 190.89 146.81 192.83 149.18 192.97 149.02 190.88 146.47 189.2 148 189.35 148.21 189.35 148.21"/></g><g><path class="c" d="M115.78,171.9h0s13.66,.91,10.15-14.43c-14.3,.01-10.15,14.43-10.15,14.43Z"/><path class="e" d="M116.26,170.74s1.81-1.78,3.94-4.37c2.12-2.59,4.56-5.97,5.82-9.19l-.21-.08c-1.24,3.18-3.67,6.56-5.78,9.14-1.06,1.29-2.04,2.38-2.76,3.14-.36,.38-.65,.69-.85,.89-.2,.21-.31,.32-.31,.32l.16,.15h0Z"/><polygon class="e" points="117.14 167.16 119.49 167.03 119.68 169.88 119.91 169.86 119.7 166.81 117.13 166.95 117.14 167.16 117.14 167.16"/><polygon class="e" points="118.83 165.04 121.08 164.91 121.54 167.47 121.76 167.44 121.26 164.69 118.82 164.82 118.83 165.04 118.83 165.04"/><polygon class="e" points="120.44 163.15 122.69 163.03 123.15 165.59 123.37 165.55 122.87 162.8 120.42 162.94 120.44 163.15 120.44 163.15"/><polygon class="e" points="122 160.71 124.25 160.58 124.71 163.14 124.93 163.11 124.44 160.36 121.99 160.49 122 160.71 122 160.71"/></g><g><path class="c" d="M564.78,141.6h0s10.7,12.66,16.57-1c-11.75-12.59-16.57,1-16.57,1Z"/><path class="e" d="M565.83,141.22s2.51,.37,5.73,.46c3.22,.09,7.15-.09,10.02-1.21l-.13-.24c-2.83,1.1-6.75,1.29-9.96,1.2-1.6-.05-3.03-.16-4.06-.26-.51-.05-.92-.1-1.21-.14-.28-.04-.44-.06-.44-.06l.04,.25h0Z"/><polygon class="e" points="568.6 139.54 570.6 141.52 569.14 143.65 569.33 143.84 570.9 141.54 568.71 139.38 568.6 139.54 568.6 139.54"/><polygon class="e" points="571.2 139.56 573.11 141.46 572.03 143.63 572.23 143.8 573.39 141.46 571.31 139.4 571.2 139.56 571.2 139.56"/><polygon class="e" points="573.59 139.68 575.51 141.57 574.43 143.75 574.63 143.92 575.79 141.58 573.7 139.52 573.59 139.68 573.59 139.68"/><polygon class="e" points="576.27 139.37 578.19 141.27 577.11 143.44 577.31 143.61 578.47 141.27 576.38 139.21 576.27 139.37 576.27 139.37"/></g><g><path class="c" d="M660.37,119.31h0s9.85-9.51-3.88-17.21c-9.6,10.6,3.87,17.21,3.87,17.21Z"/><path class="e" d="M659.83,118.18s-.1-2.54-.59-5.85c-.49-3.31-1.36-7.39-2.9-10.48l-.2,.1c1.53,3.06,2.4,7.12,2.88,10.42,.24,1.65,.39,3.11,.48,4.15,.04,.52,.07,.94,.09,1.23,.02,.29,.02,.45,.02,.45h.22Z"/><polygon class="e" points="657.78 115.12 659.26 113.3 661.5 115.06 661.64 114.89 659.23 112.99 657.61 114.99 657.78 115.12 657.78 115.12"/><polygon class="e" points="657.34 112.44 658.76 110.69 660.97 112.07 661.09 111.89 658.71 110.41 657.17 112.31 657.34 112.44 657.34 112.44"/><polygon class="e" points="657.02 109.98 658.44 108.24 660.65 109.61 660.77 109.43 658.4 107.95 656.85 109.85 657.02 109.98 657.02 109.98"/><polygon class="e" points="656.27 107.18 657.68 105.44 659.89 106.81 660.01 106.63 657.64 105.15 656.09 107.05 656.27 107.18 656.27 107.18"/></g><g><path class="c" d="M619.59,173.33h0s12.27,6.06,14.89-9.46c-13.22-5.46-14.9,9.46-14.9,9.46Z"/><path class="e" d="M620.47,172.43s2.36-.95,5.31-2.53c2.95-1.58,6.5-3.77,8.89-6.27l-.16-.15c-2.36,2.47-5.89,4.66-8.84,6.23-1.47,.79-2.79,1.42-3.75,1.85-.48,.22-.86,.38-1.13,.5-.27,.11-.41,.17-.41,.17l.09,.2h0Z"/><polygon class="e" points="622.66 169.47 624.87 170.25 623.97 172.95 624.18 173.02 625.15 170.11 622.73 169.26 622.66 169.47 622.66 169.47"/><polygon class="e" points="625.03 168.15 627.15 168.9 626.6 171.44 626.82 171.49 627.41 168.76 625.1 167.95 625.03 168.15 625.03 168.15"/><polygon class="e" points="627.24 167.02 629.36 167.77 628.81 170.31 629.03 170.36 629.62 167.63 627.31 166.82 627.24 167.02 627.24 167.02"/><polygon class="e" points="629.62 165.36 631.74 166.11 631.19 168.65 631.41 168.7 632 165.97 629.69 165.16 629.62 165.36 629.62 165.36"/></g><g><path class="c" d="M662.15,154.32h0s3.38-13.27-12.34-12.61c-2.6,14.06,12.34,12.61,12.34,12.61Z"/><path class="e" d="M661.1,153.64s-1.42-2.11-3.58-4.67c-2.15-2.56-5.04-5.58-7.98-7.4l-.12,.19c2.9,1.8,5.78,4.8,7.93,7.35,1.07,1.28,1.96,2.44,2.59,3.28,.31,.42,.56,.76,.72,1,.17,.24,.25,.37,.25,.37l.18-.13h0Z"/><polygon class="e" points="657.75 152.12 658.05 149.79 660.88 150.11 660.91 149.89 657.86 149.54 657.53 152.09 657.75 152.12 657.75 152.12"/><polygon class="e" points="655.97 150.07 656.25 147.84 658.86 147.85 658.86 147.63 656.06 147.61 655.75 150.04 655.97 150.07 655.97 150.07"/><polygon class="e" points="654.41 148.14 654.69 145.91 657.3 145.92 657.3 145.7 654.5 145.69 654.19 148.12 654.41 148.14 654.41 148.14"/><polygon class="e" points="652.29 146.16 652.58 143.93 655.18 143.94 655.18 143.72 652.38 143.7 652.07 146.13 652.29 146.16 652.29 146.16"/></g><g><path class="c" d="M11.11,120.07h0s14.88,4.33,14.73-13.48c-15.81-3.47-14.74,13.48-14.74,13.48Z"/><path class="e" d="M11.92,118.9s2.44-1.53,5.42-3.87c2.98-2.34,6.5-5.49,8.67-8.75l-.21-.14c-2.14,3.22-5.65,6.36-8.62,8.69-1.48,1.17-2.83,2.13-3.81,2.8-.49,.34-.89,.6-1.16,.78-.27,.18-.42,.27-.42,.27l.14,.21h0Z"/><polygon class="e" points="13.77 115.17 16.39 115.59 15.92 118.78 16.17 118.82 16.68 115.39 13.8 114.92 13.77 115.17 13.77 115.17"/><polygon class="e" points="16.15 113.23 18.67 113.64 18.56 116.58 18.81 116.59 18.93 113.43 16.19 112.98 16.15 113.23 16.15 113.23"/><polygon class="e" points="18.39 111.53 20.9 111.94 20.79 114.89 21.04 114.9 21.16 111.74 18.43 111.29 18.39 111.53 18.39 111.53"/><polygon class="e" points="20.72 109.21 23.23 109.62 23.12 112.57 23.37 112.58 23.49 109.42 20.75 108.97 20.72 109.21 20.72 109.21"/></g><g><path class="c" d="M57.77,143.03h0s13.65-7.32,1.09-19.94c-13.72,8.59-1.09,19.94-1.09,19.94Z"/><path class="e" d="M57.53,141.62s.67-2.8,1.16-6.56c.49-3.76,.8-8.47,.07-12.31l-.25,.05c.72,3.8,.42,8.5-.07,12.24-.24,1.87-.53,3.5-.76,4.67-.11,.58-.21,1.05-.28,1.37-.07,.32-.11,.49-.11,.49l.24,.05h0Z"/><polygon class="e" points="56.23 137.66 58.41 136.13 60.3 138.74 60.51 138.6 58.47 135.79 56.09 137.46 56.23 137.66 56.23 137.66"/><polygon class="e" points="56.58 134.61 58.66 133.14 60.64 135.32 60.83 135.16 58.7 132.81 56.44 134.41 56.58 134.61 56.58 134.61"/><polygon class="e" points="56.99 131.84 59.08 130.37 61.06 132.55 61.25 132.38 59.12 130.04 56.85 131.64 56.99 131.84 56.99 131.84"/><polygon class="e" points="57.03 128.55 59.11 127.08 61.09 129.26 61.28 129.1 59.15 126.75 56.89 128.35 57.03 128.55 57.03 128.55"/></g><g><path class="c" d="M45.8,146.63h0s5.74-17.54-13.35-16.72c-4.9,18.6,13.34,16.72,13.34,16.72Z"/><path class="e" d="M44.61,145.73s-1.46-2.79-3.74-6.19c-2.28-3.39-5.4-7.39-8.72-9.81l-.16,.25c3.29,2.39,6.39,6.37,8.67,9.75,1.14,1.69,2.07,3.23,2.72,4.35,.32,.56,.58,1.01,.75,1.33,.17,.31,.26,.49,.26,.49l.23-.17h0Z"/><polygon class="e" points="40.75 143.7 41.4 140.62 44.78 141.06 44.85 140.77 41.21 140.3 40.49 143.67 40.75 143.7 40.75 143.7"/><polygon class="e" points="38.85 140.99 39.48 138.04 42.62 138.06 42.66 137.77 39.28 137.74 38.59 140.96 38.85 140.99 38.85 140.99"/><polygon class="e" points="37.2 138.44 37.83 135.49 40.98 135.51 41.01 135.21 37.63 135.19 36.95 138.4 37.2 138.44 37.2 138.44"/><polygon class="e" points="34.89 135.81 35.52 132.85 38.66 132.88 38.7 132.58 35.32 132.56 34.63 135.77 34.89 135.81 34.89 135.81"/></g><g><path class="c" d="M5.57,165.13h0s10.88,11.03,19.44-4.59c-12.12-10.74-19.44,4.59-19.44,4.59Z"/><path class="e" d="M6.84,164.5s2.88-.15,6.62-.74c3.74-.59,8.35-1.63,11.83-3.41l-.12-.22c-3.44,1.77-8.03,2.8-11.76,3.39-1.86,.29-3.51,.48-4.69,.59-.59,.06-1.07,.09-1.39,.11-.33,.02-.5,.03-.5,.03l.02,.25h0Z"/><polygon class="e" points="10.28 162.14 12.36 163.8 10.39 166.35 10.59 166.51 12.71 163.76 10.43 161.95 10.28 162.14 10.28 162.14"/><polygon class="e" points="13.31 161.61 15.3 163.2 13.77 165.71 13.98 165.85 15.63 163.14 13.46 161.42 13.31 161.61 13.31 161.61"/><polygon class="e" points="16.08 161.23 18.08 162.81 16.55 165.33 16.76 165.46 18.41 162.76 16.23 161.03 16.08 161.23 16.08 161.23"/><polygon class="e" points="19.25 160.33 21.24 161.92 19.71 164.43 19.92 164.57 21.57 161.86 19.4 160.14 19.25 160.33 19.25 160.33"/></g><g><path class="c" d="M63.48,121.11h0s14.66,5,15.33-12.8c-15.64-4.19-15.33,12.8-15.33,12.8Z"/><path class="e" d="M64.34,119.98s2.51-1.42,5.59-3.62c3.08-2.2,6.74-5.19,9.06-8.34l-.2-.15c-2.29,3.12-5.93,6.1-9,8.29-1.54,1.1-2.93,2-3.94,2.63-.5,.31-.91,.56-1.19,.73-.28,.17-.44,.25-.44,.25l.13,.21h0Z"/><polygon class="e" points="66.35 116.34 68.96 116.88 68.34 120.05 68.59 120.1 69.25 116.69 66.4 116.1 66.35 116.34 66.35 116.34"/><polygon class="e" points="68.83 114.51 71.32 115.03 71.07 117.97 71.32 117.99 71.59 114.84 68.87 114.27 68.83 114.51 68.83 114.51"/><polygon class="e" points="71.14 112.92 73.63 113.44 73.39 116.38 73.64 116.4 73.9 113.25 71.18 112.68 71.14 112.92 71.14 112.92"/><polygon class="e" points="73.57 110.71 76.06 111.23 75.81 114.17 76.06 114.19 76.33 111.04 73.61 110.47 73.57 110.71 73.57 110.71"/></g><g><path class="c" d="M118.63,124.3h0s.8-15.48-16.5-11.25c.25,16.19,16.5,11.25,16.5,11.25Z"/><path class="e" d="M117.31,123.78s-2.05-2.02-5.01-4.39c-2.96-2.36-6.83-5.07-10.5-6.43l-.09,.24c3.62,1.35,7.48,4.04,10.43,6.4,1.47,1.18,2.72,2.27,3.6,3.07,.44,.4,.79,.72,1.02,.95,.24,.23,.36,.35,.36,.35l.17-.18h0Z"/><polygon class="e" points="113.25 122.84 113.06 120.18 116.28 119.91 116.26 119.66 112.8 119.95 113 122.86 113.25 122.84 113.25 122.84"/><polygon class="e" points="110.82 120.96 110.64 118.42 113.53 117.85 113.49 117.6 110.38 118.21 110.57 120.98 110.82 120.96 110.82 120.96"/><polygon class="e" points="108.66 119.17 108.48 116.63 111.37 116.06 111.33 115.81 108.22 116.42 108.41 119.19 108.66 119.17 108.66 119.17"/><polygon class="e" points="105.86 117.44 105.69 114.9 108.58 114.33 108.53 114.08 105.43 114.69 105.62 117.46 105.86 117.44 105.86 117.44"/></g><g><path class="c" d="M90.39,169.02h0s1.85-15.39-15.7-12.35c-.85,16.17,15.7,12.35,15.7,12.35Z"/><path class="e" d="M89.1,168.41s-1.91-2.16-4.7-4.72c-2.79-2.56-6.47-5.52-10.04-7.13l-.1,.23c3.52,1.59,7.19,4.54,9.98,7.09,1.39,1.27,2.56,2.45,3.38,3.31,.41,.43,.74,.78,.96,1.02,.22,.24,.34,.37,.34,.37l.18-.17h0Z"/><polygon class="e" points="85.12 167.19 85.11 164.53 88.34 164.48 88.34 164.23 84.87 164.28 84.87 167.2 85.12 167.19 85.12 167.19"/><polygon class="e" points="82.82 165.15 82.81 162.61 85.73 162.24 85.71 161.99 82.57 162.39 82.57 165.16 82.82 165.15 82.82 165.15"/><polygon class="e" points="80.78 163.22 80.78 160.68 83.7 160.31 83.67 160.06 80.53 160.45 80.54 163.23 80.78 163.22 80.78 163.22"/><polygon class="e" points="78.11 161.3 78.11 158.76 81.03 158.39 81.01 158.14 77.86 158.54 77.87 161.31 78.11 161.3 78.11 161.3"/></g><g><path class="c" d="M202.22,154.37h0s13.15-4.58,3.72-18.35c-13.39,5.75-3.72,18.35-3.72,18.35Z"/><path class="e" d="M202.2,153.03s.98-2.49,1.94-5.9c.95-3.41,1.88-7.74,1.76-11.43h-.23c.12,3.65-.8,7.96-1.76,11.36-.48,1.7-.96,3.17-1.32,4.21-.18,.52-.33,.94-.44,1.22-.11,.29-.17,.44-.17,.44l.21,.09h0Z"/><polygon class="e" points="201.6 149.14 203.74 148.07 205.07 150.8 205.27 150.7 203.85 147.76 201.5 148.93 201.6 149.14 201.6 149.14"/><polygon class="e" points="202.33 146.36 204.38 145.33 205.84 147.68 206.03 147.56 204.46 145.03 202.23 146.15 202.33 146.36 202.33 146.36"/><polygon class="e" points="203.08 143.85 205.13 142.82 206.59 145.17 206.79 145.05 205.22 142.52 202.98 143.64 203.08 143.85 203.08 143.85"/><polygon class="e" points="203.57 140.8 205.62 139.78 207.08 142.12 207.27 142 205.7 139.48 203.47 140.59 203.57 140.8 203.57 140.8"/></g><g><path class="c" d="M250.36,152.85h0s8.65-10.92-6.7-17.48c-8.22,12.03,6.69,17.48,6.69,17.48Z"/><path class="e" d="M249.63,151.73s-.51-2.63-1.53-6.02c-1.02-3.39-2.56-7.54-4.64-10.59l-.19,.13c2.05,3.01,3.59,7.15,4.61,10.53,.51,1.69,.89,3.19,1.14,4.27,.13,.54,.22,.97,.28,1.27,.06,.3,.09,.46,.09,.46l.22-.04h0Z"/><polygon class="e" points="247.03 148.77 248.27 146.71 250.85 148.31 250.97 148.12 248.19 146.4 246.84 148.65 247.03 148.77 247.03 148.77"/><polygon class="e" points="246.16 146.03 247.35 144.06 249.84 145.26 249.93 145.05 247.25 143.77 245.96 145.91 246.16 146.03 246.16 146.03"/><polygon class="e" points="245.45 143.51 246.63 141.54 249.12 142.74 249.22 142.53 246.54 141.25 245.25 143.39 245.45 143.51 245.45 143.51"/><polygon class="e" points="244.23 140.68 245.41 138.71 247.9 139.91 248 139.7 245.32 138.41 244.03 140.55 244.23 140.68 244.23 140.68"/></g><g><path class="c" d="M707.25,122.87h0s2.66-13.68-13.98-12.46c-1.78,14.46,13.97,12.46,13.97,12.46Z"/><path class="e" d="M706.08,122.21s-1.66-2.11-4.12-4.65c-2.46-2.54-5.74-5.52-8.98-7.28l-.11,.2c3.21,1.74,6.47,4.7,8.92,7.23,1.23,1.27,2.25,2.42,2.97,3.26,.36,.42,.64,.76,.84,1,.19,.24,.3,.37,.3,.37l.18-.14h0Z"/><polygon class="e" points="702.42 120.78 702.58 118.38 705.6 118.62 705.62 118.39 702.36 118.14 702.19 120.76 702.42 120.78 702.42 120.78"/><polygon class="e" points="700.38 118.75 700.53 116.45 703.3 116.37 703.29 116.15 700.32 116.23 700.15 118.73 700.38 118.75 700.38 118.75"/><polygon class="e" points="698.59 116.83 698.74 114.54 701.51 114.46 701.5 114.23 698.53 114.32 698.36 116.82 698.59 116.83 698.59 116.83"/><polygon class="e" points="696.21 114.88 696.36 112.59 699.12 112.51 699.11 112.28 696.14 112.37 695.98 114.86 696.21 114.88 696.21 114.88"/></g><g><path class="c" d="M668.86,142.89h0s13.42-3.74,4.87-18.07c-13.73,4.89-4.88,18.07-4.88,18.07Z"/><path class="e" d="M668.92,141.55s1.14-2.42,2.31-5.77c1.17-3.34,2.37-7.6,2.48-11.29h-.23c-.11,3.64-1.31,7.88-2.47,11.21-.58,1.67-1.16,3.1-1.59,4.12-.21,.51-.39,.92-.52,1.19-.12,.28-.19,.43-.2,.43l.2,.1h0Z"/><polygon class="e" points="668.56 137.64 670.77 136.7 671.92 139.51 672.13 139.42 670.9 136.4 668.48 137.42 668.56 137.64 668.56 137.64"/><polygon class="e" points="669.47 134.91 671.58 134.02 672.89 136.45 673.09 136.34 671.68 133.72 669.38 134.69 669.47 134.91 669.47 134.91"/><polygon class="e" points="670.38 132.45 672.49 131.56 673.8 133.99 674 133.88 672.59 131.26 670.29 132.24 670.38 132.45 670.38 132.45"/><polygon class="e" points="671.05 129.44 673.17 128.55 674.48 130.98 674.68 130.87 673.27 128.26 670.97 129.23 671.05 129.44 671.05 129.44"/></g><g><path class="c" d="M713.94,151.46h0s-1.06-13.89-16.78-8.3c2.13,14.42,16.78,8.3,16.78,8.3Z"/><path class="e" d="M712.64,151.14s-2.16-1.59-5.21-3.39c-3.05-1.8-7-3.8-10.59-4.63l-.05,.22c3.55,.82,7.49,2.82,10.53,4.6,1.52,.89,2.82,1.74,3.73,2.36,.46,.31,.82,.56,1.07,.74,.25,.18,.38,.27,.38,.27l.14-.18h0Z"/><polygon class="e" points="708.73 150.73 708.24 148.38 711.22 147.8 711.18 147.58 707.97 148.2 708.5 150.77 708.73 150.73 708.73 150.73"/><polygon class="e" points="706.23 149.31 705.76 147.06 708.41 146.25 708.34 146.03 705.5 146.91 706 149.35 706.23 149.31 706.23 149.31"/><polygon class="e" points="703.99 147.94 703.53 145.69 706.17 144.88 706.1 144.67 703.26 145.54 703.77 147.99 703.99 147.94 703.99 147.94"/><polygon class="e" points="701.17 146.69 700.71 144.44 703.35 143.63 703.28 143.42 700.44 144.29 700.95 146.74 701.17 146.69 701.17 146.69"/></g><g><path class="c" d="M732.04,130.35h0s9.42-10.27-5.41-17.92c-9.07,11.4,5.41,17.92,5.41,17.92Z"/><path class="e" d="M731.39,129.18s-.31-2.66-1.09-6.11c-.77-3.45-2.01-7.7-3.86-10.9l-.2,.11c1.83,3.16,3.06,7.39,3.83,10.83,.39,1.72,.66,3.24,.83,4.34,.09,.55,.15,.99,.19,1.29,.04,.3,.06,.47,.06,.47l.23-.02h0Z"/><polygon class="e" points="729.02 126.04 730.4 124.08 732.86 125.86 732.99 125.68 730.34 123.76 728.83 125.91 729.02 126.04 729.02 126.04"/><polygon class="e" points="728.34 123.25 729.67 121.37 732.07 122.75 732.18 122.55 729.6 121.07 728.16 123.11 728.34 123.25 728.34 123.25"/><polygon class="e" points="727.82 120.68 729.14 118.81 731.54 120.18 731.65 119.98 729.07 118.5 727.63 120.54 727.82 120.68 727.82 120.68"/><polygon class="e" points="726.8 117.77 728.13 115.89 730.53 117.27 730.64 117.07 728.06 115.59 726.62 117.63 726.8 117.77 726.8 117.77"/></g><g><path class="c" d="M733.39,151.57h0s12.91,5.25,14.91-11.32c-13.85-4.52-14.91,11.32-14.91,11.32Z"/><path class="e" d="M734.26,150.55s2.38-1.22,5.35-3.15c2.97-1.93,6.52-4.57,8.87-7.42l-.17-.15c-2.32,2.81-5.86,5.45-8.82,7.37-1.48,.96-2.81,1.75-3.78,2.29-.48,.27-.87,.48-1.14,.63-.27,.14-.42,.22-.42,.22l.1,.21h0Z"/><polygon class="e" points="736.37 147.23 738.69 147.84 737.88 150.77 738.1 150.82 738.97 147.68 736.44 147 736.37 147.23 736.37 147.23"/><polygon class="e" points="738.76 145.62 740.98 146.21 740.53 148.94 740.75 148.97 741.24 146.04 738.82 145.4 738.76 145.62 738.76 145.62"/><polygon class="e" points="740.98 144.23 743.2 144.82 742.75 147.55 742.97 147.58 743.46 144.65 741.04 144.01 740.98 144.23 740.98 144.23"/><polygon class="e" points="743.36 142.27 745.58 142.86 745.12 145.58 745.35 145.62 745.83 142.68 743.42 142.04 743.36 142.27 743.36 142.27"/></g><g><path class="c" d="M811.72,137.4h0s9.42-10.27-5.41-17.92c-9.07,11.4,5.41,17.92,5.41,17.92Z"/><path class="e" d="M811.06,136.23s-.31-2.66-1.09-6.11c-.77-3.45-2.01-7.7-3.86-10.9l-.2,.11c1.83,3.16,3.06,7.39,3.83,10.83,.39,1.72,.66,3.24,.83,4.34,.09,.55,.15,.99,.19,1.29,.04,.3,.06,.47,.06,.47l.23-.02h0Z"/><polygon class="e" points="808.69 133.09 810.08 131.13 812.53 132.91 812.66 132.73 810.02 130.81 808.5 132.96 808.69 133.09 808.69 133.09"/><polygon class="e" points="808.02 130.3 809.34 128.42 811.74 129.8 811.85 129.6 809.27 128.12 807.83 130.16 808.02 130.3 808.02 130.3"/><polygon class="e" points="807.49 127.73 808.82 125.86 811.21 127.23 811.32 127.03 808.75 125.55 807.3 127.59 807.49 127.73 807.49 127.73"/><polygon class="e" points="806.48 124.82 807.8 122.94 810.2 124.32 810.31 124.12 807.73 122.64 806.29 124.68 806.48 124.82 806.48 124.82"/></g><g><path class="c" d="M760.41,135.08h0s13.11,4.7,14.42-11.93c-14.03-3.94-14.43,11.93-14.43,11.93Z"/><path class="e" d="M761.24,134.02s2.33-1.32,5.22-3.37c2.88-2.05,6.32-4.83,8.55-7.78l-.18-.14c-2.2,2.91-5.63,5.68-8.5,7.73-1.44,1.02-2.74,1.86-3.68,2.45-.47,.29-.85,.52-1.11,.68-.26,.16-.41,.24-.41,.24l.11,.2h0Z"/><polygon class="e" points="763.22 130.62 765.56 131.14 764.87 134.09 765.09 134.14 765.83 130.96 763.27 130.39 763.22 130.62 763.22 130.62"/><polygon class="e" points="765.53 128.92 767.77 129.41 767.43 132.15 767.66 132.18 768.02 129.23 765.58 128.69 765.53 128.92 765.53 128.92"/><polygon class="e" points="767.69 127.44 769.93 127.93 769.6 130.67 769.82 130.7 770.19 127.75 767.74 127.21 767.69 127.44 767.69 127.44"/><polygon class="e" points="769.98 125.37 772.23 125.87 771.89 128.61 772.11 128.63 772.48 125.69 770.04 125.15 769.98 125.37 769.98 125.37"/></g><g><path class="c" d="M789.5,178.25h0s.73-13.91-15.58-10.38c.26,14.57,15.58,10.38,15.58,10.38Z"/><path class="e" d="M788.25,177.76s-1.93-1.85-4.73-4.02c-2.8-2.17-6.45-4.66-9.91-5.95l-.08,.21c3.42,1.27,7.06,3.75,9.85,5.92,1.39,1.08,2.57,2.08,3.4,2.82,.41,.37,.74,.66,.97,.87,.22,.21,.34,.32,.34,.32l.16-.16h0Z"/><polygon class="e" points="784.42 176.85 784.24 174.46 787.27 174.26 787.25 174.04 784 174.24 784.19 176.86 784.42 176.85 784.42 176.85"/><polygon class="e" points="782.12 175.12 781.95 172.83 784.68 172.37 784.64 172.14 781.71 172.64 781.89 175.14 782.12 175.12 782.12 175.12"/><polygon class="e" points="780.09 173.48 779.91 171.19 782.64 170.72 782.6 170.5 779.67 171 779.85 173.49 780.09 173.48 780.09 173.48"/><polygon class="e" points="777.45 171.88 777.28 169.59 780 169.12 779.96 168.9 777.03 169.4 777.22 171.89 777.45 171.88 777.45 171.88"/></g></g></svg>