<?xml version="1.0" encoding="UTF-8"?><svg xmlns="http://www.w3.org/2000/svg" viewBox="0 0 827.97 262"><defs><style>.c,.d{fill:#afa57d;}.d{font-family:Teko-Light, Teko;font-size:139px;}.e{fill:#777159;}</style></defs><g id="a"><text class="d" transform="translate(16.85 174.18)"><tspan x="0" y="0">COFFRETS &amp; CADEAUX</tspan></text></g><g id="b"><g><path class="c" d="M150.75,123.49h0s12.55,7.89,16.95-8.4c-13.63-7.36-16.95,8.4-16.95,8.4Z"/><path class="e" d="M151.79,122.63s2.63-.75,5.96-2.09c3.33-1.35,7.36-3.29,10.18-5.68l-.16-.18c-2.79,2.37-6.8,4.3-10.12,5.64-1.66,.67-3.14,1.19-4.21,1.55-.53,.18-.97,.31-1.26,.4-.3,.09-.46,.14-.46,.14l.07,.23h0Z"/><polygon class="e" points="154.44 119.72 156.74 120.8 155.49 123.59 155.71 123.69 157.05 120.69 154.53 119.51 154.44 119.72 154.44 119.72"/><polygon class="e" points="157.12 118.58 159.32 119.62 158.47 122.28 158.7 122.36 159.61 119.5 157.21 118.37 157.12 118.58 157.12 118.58"/><polygon class="e" points="159.6 117.63 161.8 118.67 160.95 121.33 161.18 121.41 162.09 118.55 159.7 117.42 159.6 117.63 159.6 117.63"/><polygon class="e" points="162.32 116.13 164.53 117.17 163.68 119.83 163.9 119.9 164.82 117.05 162.42 115.92 162.32 116.13 162.32 116.13"/></g><g><path class="c" d="M158.09,109.29h0s6.6-13.55-10.62-16.45c-5.92,14.59,10.61,16.45,10.61,16.45Z"/><path class="e" d="M157.09,108.31s-1.08-2.6-2.85-5.86c-1.77-3.26-4.24-7.18-7.03-9.82l-.17,.18c2.76,2.61,5.22,6.51,6.98,9.76,.88,1.62,1.59,3.08,2.08,4.14,.24,.53,.43,.95,.56,1.25,.13,.29,.19,.45,.2,.45l.22-.1h0Z"/><polygon class="e" points="153.79 105.9 154.63 103.45 157.63 104.45 157.71 104.22 154.48 103.14 153.56 105.82 153.79 105.9 153.79 105.9"/><polygon class="e" points="152.31 103.28 153.12 100.93 155.94 101.54 155.99 101.3 152.96 100.65 152.08 103.2 152.31 103.28 152.31 103.28"/><polygon class="e" points="151.04 100.84 151.85 98.5 154.67 99.1 154.72 98.87 151.69 98.21 150.81 100.76 151.04 100.84 151.04 100.84"/><polygon class="e" points="149.18 98.21 149.98 95.87 152.81 96.47 152.86 96.24 149.83 95.58 148.95 98.13 149.18 98.21 149.18 98.21"/></g><g><path class="c" d="M399.67,112.11h0s13.83-1.63,7.6-17.11c-14.32,2.72-7.6,17.11-7.6,17.11Z"/><path class="e" d="M399.94,110.8s1.5-2.22,3.17-5.34c1.67-3.12,3.51-7.15,4.19-10.77l-.22-.04c-.67,3.58-2.51,7.6-4.17,10.71-.83,1.56-1.62,2.89-2.2,3.83-.29,.47-.53,.84-.7,1.1-.17,.26-.26,.39-.26,.39l.19,.13h0Z"/><polygon class="e" points="400.19 106.87 402.52 106.29 403.22 109.25 403.44 109.19 402.69 106.01 400.14 106.65 400.19 106.87 400.19 106.87"/><polygon class="e" points="401.51 104.32 403.73 103.76 404.65 106.37 404.87 106.29 403.88 103.49 401.45 104.09 401.51 104.32 401.51 104.32"/><polygon class="e" points="402.78 102.03 405.01 101.47 405.93 104.08 406.14 104 405.15 101.2 402.73 101.81 402.78 102.03 402.78 102.03"/><polygon class="e" points="403.92 99.16 406.14 98.61 407.06 101.21 407.28 101.13 406.29 98.33 403.86 98.94 403.92 99.16 403.92 99.16"/></g><g><path class="c" d="M379.22,118.21h0s3.65-13.45-13.04-13.44c-2.82,14.3,13.03,13.44,13.03,13.44Z"/><path class="e" d="M378.11,117.47s-1.5-2.22-3.77-4.93c-2.27-2.71-5.32-5.92-8.43-7.91l-.12,.19c3.07,1.96,6.11,5.16,8.38,7.86,1.13,1.35,2.07,2.58,2.73,3.47,.33,.45,.59,.81,.76,1.06,.18,.25,.27,.39,.27,.39l.19-.12h0Z"/><polygon class="e" points="374.56 115.77 374.89 113.4 377.89 113.85 377.92 113.62 374.69 113.14 374.33 115.74 374.56 115.77 374.56 115.77"/><polygon class="e" points="372.68 113.6 372.99 111.33 375.75 111.45 375.76 111.22 372.79 111.09 372.45 113.56 372.68 113.6 372.68 113.6"/><polygon class="e" points="371.03 111.56 371.35 109.29 374.11 109.41 374.11 109.18 371.14 109.05 370.8 111.53 371.03 111.56 371.03 111.56"/><polygon class="e" points="368.79 109.44 369.11 107.17 371.87 107.29 371.87 107.06 368.91 106.93 368.56 109.41 368.79 109.44 368.79 109.44"/></g><g><path class="c" d="M334.74,113.71h0s13.74-2.28,6.79-17.44c-14.17,3.38-6.79,17.44-6.79,17.44Z"/><path class="e" d="M334.94,112.38s1.39-2.29,2.92-5.48c1.52-3.2,3.17-7.3,3.68-10.96l-.22-.03c-.51,3.61-2.15,7.7-3.66,10.89-.76,1.59-1.48,2.96-2.02,3.93-.27,.48-.49,.87-.64,1.13-.15,.26-.24,.4-.24,.4l.19,.12h0Z"/><polygon class="e" points="335.01 108.45 337.31 107.76 338.15 110.67 338.36 110.61 337.46 107.47 334.95 108.22 335.01 108.45 335.01 108.45"/><polygon class="e" points="336.21 105.83 338.4 105.17 339.44 107.73 339.65 107.64 338.54 104.89 336.14 105.61 336.21 105.83 336.21 105.83"/><polygon class="e" points="337.37 103.49 339.57 102.83 340.61 105.39 340.82 105.3 339.7 102.55 337.31 103.26 337.37 103.49 337.37 103.49"/><polygon class="e" points="338.37 100.57 340.57 99.91 341.61 102.47 341.82 102.38 340.7 99.63 338.31 100.35 338.37 100.57 338.37 100.57"/></g><g><path class="c" d="M278.4,157.12h0s3.7-13.43-12.99-13.48c-2.87,14.29,12.99,13.48,12.99,13.48Z"/><path class="e" d="M277.29,156.37s-1.49-2.23-3.76-4.95c-2.26-2.72-5.3-5.94-8.4-7.94l-.12,.19c3.07,1.97,6.09,5.18,8.35,7.89,1.13,1.36,2.06,2.59,2.72,3.48,.33,.45,.58,.81,.76,1.06,.17,.25,.27,.39,.27,.39l.19-.12h0Z"/><polygon class="e" points="273.74 154.66 274.08 152.29 277.08 152.75 277.11 152.52 273.89 152.03 273.52 154.62 273.74 154.66 273.74 154.66"/><polygon class="e" points="271.87 152.48 272.19 150.21 274.96 150.34 274.96 150.11 271.99 149.97 271.64 152.44 271.87 152.48 271.87 152.48"/><polygon class="e" points="270.23 150.44 270.56 148.16 273.32 148.29 273.32 148.07 270.36 147.93 270 150.4 270.23 150.44 270.23 150.44"/><polygon class="e" points="268 148.31 268.33 146.03 271.09 146.16 271.09 145.94 268.13 145.8 267.77 148.27 268 148.31 268 148.31"/></g><g><path class="c" d="M338.53,144.81h0s13.42-3.74,4.87-18.07c-13.73,4.89-4.88,18.07-4.88,18.07Z"/><path class="e" d="M338.6,143.47s1.14-2.42,2.31-5.77c1.17-3.34,2.37-7.6,2.48-11.29h-.23c-.11,3.64-1.31,7.88-2.47,11.21-.58,1.67-1.16,3.1-1.59,4.12-.21,.51-.39,.92-.52,1.19-.12,.28-.19,.43-.2,.43l.2,.1h0Z"/><polygon class="e" points="338.24 139.55 340.45 138.62 341.6 141.43 341.81 141.34 340.57 138.32 338.15 139.34 338.24 139.55 338.24 139.55"/><polygon class="e" points="339.15 136.82 341.26 135.93 342.57 138.36 342.77 138.25 341.36 135.64 339.06 136.61 339.15 136.82 339.15 136.82"/><polygon class="e" points="340.05 134.36 342.17 133.47 343.48 135.91 343.68 135.79 342.27 133.18 339.97 134.15 340.05 134.36 340.05 134.36"/><polygon class="e" points="340.73 131.36 342.85 130.46 344.16 132.9 344.36 132.79 342.95 130.17 340.64 131.14 340.73 131.36 340.73 131.36"/></g><g><path class="c" d="M302.69,150.12h0s13.89-1.11,8.24-16.81c-14.41,2.18-8.24,16.81-8.24,16.81Z"/><path class="e" d="M303.01,148.82s1.58-2.16,3.37-5.22c1.79-3.06,3.78-7.01,4.6-10.61l-.22-.05c-.81,3.56-2.79,7.5-4.57,10.54-.89,1.52-1.73,2.82-2.35,3.74-.31,.46-.56,.82-.74,1.07-.18,.25-.27,.38-.27,.38l.18,.14h0Z"/><polygon class="e" points="303.41 144.9 305.75 144.41 306.34 147.39 306.57 147.34 305.93 144.14 303.36 144.68 303.41 144.9 303.41 144.9"/><polygon class="e" points="304.82 142.4 307.06 141.93 307.88 144.57 308.1 144.5 307.22 141.66 304.77 142.17 304.82 142.4 304.82 142.4"/><polygon class="e" points="306.18 140.16 308.43 139.69 309.24 142.33 309.46 142.26 308.58 139.42 306.13 139.93 306.18 140.16 306.18 140.16"/><polygon class="e" points="307.42 137.34 309.67 136.87 310.49 139.51 310.7 139.44 309.82 136.6 307.37 137.11 307.42 137.34 307.42 137.34"/></g><g><path class="c" d="M290.74,146.67h0s9.42-10.27-5.41-17.92c-9.07,11.4,5.41,17.92,5.41,17.92Z"/><path class="e" d="M290.08,145.49s-.31-2.66-1.09-6.11c-.77-3.45-2.01-7.7-3.86-10.9l-.2,.11c1.83,3.16,3.06,7.39,3.83,10.83,.39,1.72,.66,3.24,.83,4.34,.09,.55,.15,.99,.19,1.29,.04,.3,.06,.47,.06,.47l.23-.02h0Z"/><polygon class="e" points="287.71 142.36 289.1 140.4 291.55 142.18 291.68 141.99 289.04 140.08 287.52 142.22 287.71 142.36 287.71 142.36"/><polygon class="e" points="287.04 139.56 288.36 137.69 290.76 139.06 290.87 138.86 288.29 137.38 286.85 139.43 287.04 139.56 287.04 139.56"/><polygon class="e" points="286.51 137 287.84 135.12 290.23 136.5 290.34 136.3 287.77 134.82 286.32 136.86 286.51 137 286.51 137"/><polygon class="e" points="285.5 134.08 286.82 132.21 289.22 133.58 289.33 133.38 286.75 131.91 285.31 133.95 285.5 134.08 285.5 134.08"/></g><g><path class="c" d="M293.65,108.68h0s13.52,3.38,13.17-13.3c-14.35-2.53-13.17,13.3-13.17,13.3Z"/><path class="e" d="M294.37,107.54s2.19-1.54,4.86-3.87c2.67-2.33,5.81-5.44,7.74-8.59l-.19-.12c-1.9,3.11-5.03,6.21-7.69,8.53-1.33,1.16-2.54,2.12-3.42,2.8-.44,.34-.79,.6-1.04,.78-.25,.18-.38,.28-.38,.28l.13,.19h0Z"/><polygon class="e" points="296 103.96 298.38 104.24 297.99 107.25 298.21 107.28 298.63 104.04 296.03 103.73 296 103.96 296 103.96"/><polygon class="e" points="298.13 102.04 300.41 102.31 300.35 105.07 300.57 105.07 300.64 102.1 298.16 101.81 298.13 102.04 298.13 102.04"/><polygon class="e" points="300.13 100.35 302.41 100.62 302.35 103.38 302.58 103.38 302.65 100.41 300.16 100.12 300.13 100.35 300.13 100.35"/><polygon class="e" points="302.21 98.07 304.49 98.34 304.43 101.1 304.65 101.1 304.72 98.13 302.24 97.84 302.21 98.07 302.21 98.07"/></g><g><path class="c" d="M255.48,104.17h0s13.88-1.2,8.13-16.86c-14.39,2.27-8.13,16.86-8.13,16.86Z"/><path class="e" d="M255.79,102.87s1.57-2.17,3.33-5.24c1.77-3.07,3.73-7.03,4.53-10.64l-.22-.05c-.79,3.56-2.74,7.51-4.5,10.57-.88,1.53-1.71,2.83-2.32,3.76-.31,.46-.56,.83-.73,1.08-.17,.25-.27,.38-.27,.38l.18,.14h0Z"/><polygon class="e" points="256.16 98.95 258.51 98.44 259.12 101.42 259.34 101.37 258.68 98.17 256.12 98.73 256.16 98.95 256.16 98.95"/><polygon class="e" points="257.56 96.44 259.8 95.95 260.64 98.59 260.85 98.51 259.95 95.68 257.51 96.21 257.56 96.44 257.56 96.44"/><polygon class="e" points="258.9 94.19 261.15 93.7 261.98 96.34 262.2 96.27 261.3 93.44 258.86 93.96 258.9 94.19 258.9 94.19"/><polygon class="e" points="260.13 91.36 262.37 90.87 263.21 93.51 263.42 93.43 262.52 90.6 260.08 91.13 260.13 91.36 260.13 91.36"/></g><g><path class="c" d="M202.78,105.73h0s3.3-13.85-13.04-12.91c-2.47,14.66,13.04,12.91,13.04,12.91Z"/><path class="e" d="M201.68,105.05s-1.51-2.17-3.8-4.79c-2.28-2.63-5.33-5.71-8.42-7.56l-.12,.2c3.05,1.82,6.09,4.89,8.36,7.51,1.14,1.31,2.08,2.5,2.74,3.37,.33,.43,.59,.79,.77,1.03,.18,.24,.27,.38,.27,.38l.19-.14h0Z"/><polygon class="e" points="198.17 103.52 198.44 101.09 201.39 101.38 201.41 101.15 198.24 100.84 197.94 103.5 198.17 103.52 198.17 103.52"/><polygon class="e" points="196.28 101.42 196.54 99.09 199.25 99.06 199.25 98.83 196.34 98.87 196.06 101.4 196.28 101.42 196.28 101.42"/><polygon class="e" points="194.63 99.44 194.89 97.12 197.59 97.09 197.6 96.86 194.69 96.89 194.4 99.42 194.63 99.44 194.63 99.44"/><polygon class="e" points="192.39 97.41 192.65 95.09 195.36 95.06 195.36 94.83 192.45 94.86 192.17 97.39 192.39 97.41 192.39 97.41"/></g><g><path class="c" d="M440.22,127.48h0s10.11-8.97-3.49-17.94c-9.88,10.11,3.49,17.94,3.49,17.94Z"/><path class="e" d="M439.71,126.27s-.04-2.61-.46-6.04c-.41-3.43-1.19-7.68-2.67-10.97l-.2,.09c1.46,3.25,2.24,7.49,2.65,10.9,.21,1.71,.32,3.21,.38,4.29,.03,.54,.05,.97,.06,1.27,.01,.3,.01,.46,.01,.46h.22Z"/><polygon class="e" points="437.72 122.98 439.25 121.23 441.45 123.21 441.6 123.04 439.22 120.91 437.55 122.83 437.72 122.98 437.72 122.98"/><polygon class="e" points="437.34 120.2 438.8 118.52 440.99 120.11 441.11 119.93 438.76 118.22 437.17 120.05 437.34 120.2 437.34 120.2"/><polygon class="e" points="437.08 117.66 438.54 115.98 440.73 117.56 440.85 117.38 438.5 115.68 436.91 117.51 437.08 117.66 437.08 117.66"/><polygon class="e" points="436.38 114.73 437.84 113.05 440.03 114.63 440.16 114.45 437.81 112.75 436.21 114.58 436.38 114.73 436.38 114.73"/></g><g><path class="c" d="M591,106.55h0s11.39,8,17.12-7.74c-12.48-7.5-17.12,7.74-17.12,7.74Z"/><path class="e" d="M592.08,105.75s2.6-.66,5.94-1.89c3.33-1.23,7.4-3.01,10.34-5.27l-.14-.18c-2.9,2.23-6.96,4.02-10.28,5.24-1.66,.61-3.14,1.08-4.2,1.4-.53,.16-.96,.28-1.25,.36-.29,.08-.46,.12-.46,.12l.05,.22h0Z"/><polygon class="e" points="594.9 102.98 597.02 104.09 595.56 106.77 595.76 106.87 597.33 103.99 595.01 102.77 594.9 102.98 594.9 102.98"/><polygon class="e" points="597.59 101.94 599.62 103 598.56 105.57 598.77 105.65 599.91 102.9 597.7 101.73 597.59 101.94 597.59 101.94"/><polygon class="e" points="600.07 101.07 602.1 102.14 601.04 104.7 601.25 104.79 602.39 102.03 600.18 100.87 600.07 101.07 600.07 101.07"/><polygon class="e" points="602.84 99.68 604.87 100.75 603.8 103.31 604.02 103.4 605.16 100.64 602.95 99.48 602.84 99.68 602.84 99.68"/></g><g><path class="c" d="M218.7,111.29h0s10.93-7.79-1.26-17.26c-10.85,8.89,1.26,17.26,1.26,17.26Z"/><path class="e" d="M218.34,110.11s.27-2.48,.28-5.76c0-3.28-.24-7.37-1.29-10.59l-.21,.07c1.04,3.19,1.29,7.25,1.28,10.52,0,1.63-.07,3.07-.14,4.1-.03,.51-.07,.92-.09,1.21-.03,.28-.04,.44-.04,.44l.22,.02h0Z"/><polygon class="e" points="216.79 106.85 218.49 105.29 220.4 107.33 220.57 107.18 218.51 104.99 216.64 106.69 216.79 106.85 216.79 106.85"/><polygon class="e" points="216.75 104.18 218.38 102.7 220.32 104.35 220.47 104.19 218.38 102.41 216.61 104.03 216.75 104.18 216.75 104.18"/><polygon class="e" points="216.8 101.75 218.43 100.27 220.37 101.92 220.52 101.76 218.43 99.98 216.66 101.6 216.8 101.76 216.8 101.75"/><polygon class="e" points="216.47 98.93 218.1 97.44 220.04 99.09 220.19 98.93 218.1 97.15 216.33 98.77 216.47 98.93 216.47 98.93"/></g><g><path class="c" d="M250.6,104.23h0s-.09-15.5-17.12-10.29c1.17,16.15,17.12,10.29,17.12,10.29Z"/><path class="e" d="M249.25,103.79s-2.16-1.9-5.25-4.09c-3.09-2.19-7.11-4.67-10.85-5.82l-.07,.24c3.7,1.14,7.7,3.61,10.78,5.79,1.54,1.09,2.85,2.11,3.77,2.86,.46,.37,.83,.68,1.08,.89,.25,.21,.38,.33,.38,.33l.16-.19h0Z"/><polygon class="e" points="245.14 103.08 244.8 100.44 248 99.99 247.96 99.74 244.53 100.22 244.9 103.11 245.14 103.08 245.14 103.08"/><polygon class="e" points="242.6 101.34 242.28 98.82 245.13 98.09 245.08 97.84 242.01 98.63 242.36 101.38 242.6 101.34 242.6 101.34"/><polygon class="e" points="240.34 99.68 240.02 97.15 242.87 96.42 242.82 96.18 239.75 96.96 240.1 99.72 240.34 99.68 240.34 99.68"/><polygon class="e" points="237.46 98.11 237.13 95.59 239.99 94.85 239.93 94.61 236.86 95.4 237.21 98.15 237.46 98.11 237.46 98.11"/></g><g><path class="c" d="M466.65,116.06h0s14.74,3.28,13.48-14.04c-15.6-2.38-13.49,14.04-13.49,14.04Z"/><path class="e" d="M467.36,114.87s2.28-1.64,5.03-4.1c2.75-2.46,5.98-5.75,7.88-9.05l-.21-.12c-1.88,3.27-5.1,6.54-7.84,9-1.37,1.23-2.62,2.25-3.53,2.97-.45,.36-.82,.64-1.08,.83-.26,.19-.4,.29-.4,.29l.15,.19h0Z"/><polygon class="e" points="468.92 111.13 471.51 111.38 471.24 114.51 471.49 114.53 471.77 111.16 468.94 110.89 468.92 111.13 468.92 111.13"/><polygon class="e" points="471.12 109.09 473.59 109.33 473.67 112.2 473.92 112.2 473.83 109.11 471.14 108.85 471.12 109.09 471.12 109.09"/><polygon class="e" points="473.19 107.3 475.66 107.54 475.74 110.41 475.99 110.41 475.9 107.33 473.21 107.06 473.19 107.3 473.19 107.3"/><polygon class="e" points="475.31 104.9 477.78 105.14 477.86 108.01 478.1 108.01 478.02 104.92 475.33 104.66 475.31 104.9 475.31 104.9"/></g><g><path class="c" d="M458.6,157.94h0s4.22-12.97-11.46-13.34c-3.49,13.82,11.45,13.34,11.45,13.34Z"/><path class="e" d="M457.59,157.2s-1.28-2.19-3.25-4.87c-1.98-2.69-4.65-5.87-7.45-7.87l-.13,.18c2.77,1.98,5.44,5.15,7.41,7.82,.98,1.34,1.8,2.55,2.36,3.43,.28,.44,.5,.8,.65,1.04,.15,.25,.23,.38,.23,.38l.19-.12h0Z"/><polygon class="e" points="454.36 155.47 454.81 153.17 457.6 153.68 457.64 153.46 454.64 152.92 454.15 155.43 454.36 155.47 454.36 155.47"/><polygon class="e" points="452.72 153.32 453.15 151.12 455.74 151.3 455.76 151.08 452.97 150.88 452.51 153.28 452.72 153.32 452.72 153.32"/><polygon class="e" points="451.29 151.3 451.72 149.1 454.31 149.28 454.33 149.06 451.55 148.87 451.08 151.26 451.29 151.3 451.29 151.3"/><polygon class="e" points="449.31 149.19 449.75 146.99 452.33 147.17 452.35 146.95 449.57 146.76 449.1 149.15 449.31 149.19 449.31 149.19"/></g><g><path class="c" d="M398.26,129.15h0s9.36,4.36,11.07-7.39c-10.06-3.88-11.07,7.39-11.07,7.39Z"/><path class="e" d="M398.91,128.46s1.76-.76,3.96-2c2.2-1.24,4.83-2.96,6.59-4.88l-.13-.11c-1.74,1.9-4.36,3.62-6.55,4.85-1.1,.62-2.08,1.12-2.79,1.46-.36,.17-.64,.31-.84,.4-.2,.09-.31,.14-.31,.14l.07,.15h0Z"/><polygon class="e" points="400.51 126.19 402.19 126.74 401.56 128.79 401.72 128.84 402.4 126.63 400.56 126.03 400.51 126.19 400.51 126.19"/><polygon class="e" points="402.27 125.16 403.89 125.68 403.52 127.61 403.68 127.64 404.08 125.57 402.32 125 402.27 125.16 402.27 125.16"/><polygon class="e" points="403.92 124.27 405.53 124.79 405.16 126.72 405.32 126.75 405.72 124.68 403.97 124.11 403.92 124.27 403.92 124.27"/><polygon class="e" points="405.68 122.97 407.3 123.5 406.93 125.43 407.09 125.46 407.49 123.39 405.73 122.82 405.68 122.97 405.68 122.97"/></g><g><path class="c" d="M499.29,119.34h0s-1.39-10.23-12.2-5.32c2.17,10.56,12.2,5.32,12.2,5.32Z"/><path class="e" d="M498.36,119.17s-1.59-1.07-3.82-2.25c-2.23-1.18-5.1-2.47-7.67-2.91l-.03,.17c2.54,.43,5.4,1.72,7.62,2.89,1.11,.59,2.06,1.15,2.74,1.56,.34,.21,.6,.38,.79,.5,.18,.12,.28,.18,.28,.18l.09-.14h0Z"/><polygon class="e" points="495.59 119.05 495.14 117.34 497.21 116.77 497.17 116.6 494.94 117.22 495.43 119.1 495.59 119.05 495.59 119.05"/><polygon class="e" points="493.76 118.13 493.33 116.49 495.15 115.76 495.1 115.6 493.14 116.38 493.61 118.17 493.76 118.13 493.76 118.13"/><polygon class="e" points="492.13 117.22 491.7 115.58 493.52 114.85 493.46 114.7 491.5 115.48 491.97 117.27 492.13 117.22 492.13 117.22"/><polygon class="e" points="490.09 116.44 489.65 114.79 491.48 114.07 491.42 113.91 489.46 114.69 489.93 116.48 490.09 116.44 490.09 116.44"/></g><g><path class="c" d="M524.09,129.44h0s13.66,.91,10.15-14.43c-14.3,.01-10.15,14.43-10.15,14.43Z"/><path class="e" d="M524.56,128.27s1.81-1.78,3.94-4.37c2.12-2.59,4.56-5.97,5.82-9.19l-.21-.08c-1.24,3.18-3.67,6.56-5.78,9.14-1.06,1.29-2.04,2.38-2.76,3.14-.36,.38-.65,.69-.85,.89-.2,.21-.31,.32-.31,.32l.16,.15h0Z"/><polygon class="e" points="525.45 124.7 527.79 124.57 527.99 127.41 528.21 127.4 528 124.34 525.43 124.49 525.45 124.7 525.45 124.7"/><polygon class="e" points="527.14 122.58 529.38 122.45 529.85 125.01 530.07 124.98 529.57 122.22 527.12 122.36 527.14 122.58 527.14 122.58"/><polygon class="e" points="528.74 120.69 530.99 120.57 531.46 123.13 531.67 123.09 531.18 120.34 528.73 120.47 528.74 120.69 528.74 120.69"/><polygon class="e" points="530.31 118.25 532.56 118.12 533.02 120.68 533.24 120.65 532.74 117.89 530.3 118.03 530.31 118.25 530.31 118.25"/></g><g><path class="c" d="M540.27,141.54h0s12.98,1.98,10.87-12.97c-13.67-1.15-10.88,12.97-10.88,12.97Z"/><path class="e" d="M540.82,140.46s1.88-1.56,4.12-3.85c2.24-2.3,4.85-5.33,6.31-8.31l-.19-.09c-1.44,2.94-4.04,5.97-6.27,8.26-1.12,1.14-2.14,2.1-2.89,2.78-.37,.34-.68,.6-.89,.78-.21,.18-.33,.28-.33,.28l.14,.16h0Z"/><polygon class="e" points="541.96 137.12 544.21 137.19 544.17 139.92 544.38 139.93 544.43 136.99 541.96 136.91 541.96 137.12 541.96 137.12"/><polygon class="e" points="543.75 135.23 545.9 135.29 546.14 137.78 546.35 137.76 546.1 135.09 543.75 135.02 543.75 135.23 543.75 135.23"/><polygon class="e" points="545.44 133.56 547.59 133.62 547.83 136.11 548.04 136.09 547.79 133.42 545.44 133.35 545.44 133.56 545.44 133.56"/><polygon class="e" points="547.13 131.35 549.29 131.41 549.52 133.9 549.74 133.88 549.48 131.21 547.13 131.14 547.13 131.35 547.13 131.35"/></g><g><path class="c" d="M560.69,105.89h0s5.38-13.47-11.23-14.95c-4.67,14.41,11.22,14.95,11.22,14.95Z"/><path class="e" d="M559.67,105.03s-1.2-2.41-3.11-5.4c-1.91-2.99-4.52-6.55-7.36-8.87l-.15,.18c2.8,2.29,5.41,5.84,7.31,8.81,.95,1.49,1.73,2.83,2.27,3.81,.27,.49,.48,.88,.62,1.15,.14,.27,.22,.42,.22,.42l.21-.11h0Z"/><polygon class="e" points="556.36 102.97 557 100.57 559.92 101.3 559.99 101.07 556.83 100.28 556.14 102.92 556.36 102.97 556.36 102.97"/><polygon class="e" points="554.77 100.57 555.38 98.27 558.11 98.64 558.15 98.41 555.21 98.01 554.55 100.52 554.77 100.57 554.77 100.57"/><polygon class="e" points="553.4 98.34 554.01 96.03 556.74 96.4 556.77 96.17 553.84 95.77 553.17 98.28 553.4 98.34 553.4 98.34"/><polygon class="e" points="551.45 95.96 552.06 93.66 554.79 94.03 554.82 93.79 551.89 93.4 551.22 95.91 551.45 95.96 551.45 95.96"/></g><g><path class="c" d="M625.04,126.62h0s-.25-13.5-15.03-8.77c1.21,14.05,15.03,8.77,15.03,8.77Z"/><path class="e" d="M623.85,126.25s-1.9-1.63-4.62-3.51c-2.72-1.87-6.25-3.98-9.52-4.95l-.06,.21c3.23,.95,6.75,3.05,9.46,4.92,1.35,.93,2.51,1.81,3.32,2.45,.41,.32,.73,.58,.95,.76,.22,.18,.34,.28,.34,.28l.14-.17h0Z"/><polygon class="e" points="620.27 125.68 619.95 123.39 622.72 122.96 622.69 122.74 619.7 123.2 620.06 125.72 620.27 125.68 620.27 125.68"/><polygon class="e" points="618.04 124.2 617.73 122 620.21 121.33 620.15 121.12 617.49 121.84 617.83 124.23 618.04 124.2 618.04 124.2"/><polygon class="e" points="616.05 122.78 615.74 120.58 618.22 119.91 618.17 119.7 615.5 120.42 615.84 122.81 616.05 122.78 616.05 122.78"/><polygon class="e" points="613.52 121.44 613.21 119.25 615.69 118.58 615.63 118.36 612.97 119.08 613.31 121.48 613.52 121.44 613.52 121.44"/></g><g><path class="c" d="M500.27,144.94h0s.15-13.85-15.16-9.45c.81,14.45,15.15,9.45,15.15,9.45Z"/><path class="e" d="M499.07,144.52s-1.9-1.73-4.63-3.74c-2.73-2-6.29-4.28-9.62-5.36l-.07,.21c3.29,1.07,6.83,3.34,9.56,5.33,1.36,1,2.52,1.93,3.33,2.61,.41,.34,.73,.62,.95,.81,.22,.19,.34,.3,.34,.3l.15-.17h0Z"/><polygon class="e" points="495.41 143.83 495.15 141.46 498.01 141.1 497.98 140.88 494.9 141.27 495.19 143.85 495.41 143.83 495.41 143.83"/><polygon class="e" points="493.16 142.24 492.91 139.97 495.48 139.36 495.43 139.14 492.67 139.8 492.95 142.27 493.16 142.24 493.16 142.24"/><polygon class="e" points="491.17 140.72 490.92 138.45 493.48 137.84 493.43 137.62 490.68 138.28 490.95 140.75 491.17 140.72 491.17 140.72"/><polygon class="e" points="488.61 139.27 488.36 137.01 490.92 136.4 490.87 136.18 488.12 136.84 488.39 139.3 488.61 139.27 488.61 139.27"/></g><g><path class="c" d="M153.81,143.61h0s2.9-13.87-13.33-12.48c-2.05,14.66,13.33,12.48,13.33,12.48Z"/><path class="e" d="M152.69,142.95s-1.57-2.12-3.91-4.67c-2.34-2.55-5.46-5.54-8.59-7.29l-.11,.2c3.09,1.73,6.2,4.7,8.53,7.24,1.17,1.27,2.14,2.43,2.82,3.28,.34,.42,.61,.77,.79,1,.18,.24,.28,.37,.28,.37l.18-.14h0Z"/><polygon class="e" points="149.15 141.53 149.36 139.11 152.3 139.32 152.32 139.09 149.15 138.86 148.93 141.52 149.15 141.53 149.15 141.53"/><polygon class="e" points="147.22 139.49 147.41 137.17 150.1 137.07 150.1 136.84 147.21 136.95 146.99 139.48 147.22 139.49 147.22 139.49"/><polygon class="e" points="145.52 137.57 145.71 135.25 148.4 135.15 148.4 134.92 145.51 135.03 145.29 137.56 145.52 137.57 145.52 137.57"/><polygon class="e" points="143.24 135.62 143.43 133.3 146.12 133.19 146.12 132.96 143.22 133.07 143.01 135.6 143.24 135.62 143.24 135.62"/></g><g><path class="c" d="M113.42,125.13h0s15.05,3.68,14.13-14.11c-15.95-2.78-14.14,14.11-14.14,14.11Z"/><path class="e" d="M114.18,123.92s2.37-1.63,5.25-4.1c2.87-2.47,6.25-5.77,8.28-9.11l-.22-.13c-2,3.31-5.37,6.6-8.23,9.06-1.43,1.23-2.74,2.25-3.69,2.97-.47,.36-.86,.64-1.12,.83-.27,.19-.41,.29-.41,.29l.15,.2h0Z"/><polygon class="e" points="115.86 120.11 118.5 120.43 118.17 123.63 118.42 123.66 118.78 120.21 115.89 119.87 115.86 120.11 115.86 120.11"/><polygon class="e" points="118.16 118.07 120.69 118.37 120.7 121.32 120.96 121.32 120.94 118.16 118.18 117.83 118.16 118.07 118.16 118.07"/><polygon class="e" points="120.32 116.29 122.85 116.59 122.87 119.53 123.12 119.54 123.1 116.37 120.35 116.04 120.32 116.29 120.32 116.29"/><polygon class="e" points="122.54 113.87 125.07 114.17 125.09 117.11 125.34 117.12 125.32 113.95 122.57 113.62 122.54 113.87 122.54 113.87"/></g><g><path class="c" d="M193.02,149.96h0s10.44-6.8-1.71-20.58c-10.33,8.11,1.7,20.58,1.7,20.58Z"/><path class="e" d="M192.64,148.49s.19-2.86,.11-6.72c-.08-3.86-.44-8.72-1.55-12.74l-.2,.04c1.1,3.97,1.46,8.82,1.54,12.66,.04,1.92,.01,3.6-.02,4.79-.02,.6-.04,1.07-.06,1.4-.02,.33-.03,.5-.03,.5l.21,.07h0Z"/><polygon class="e" points="191.04 144.32 192.66 142.86 194.58 145.67 194.73 145.53 192.66 142.51 190.89 144.11 191.04 144.32 191.04 144.32"/><polygon class="e" points="190.93 141.18 192.48 139.78 194.42 142.15 194.55 141.99 192.47 139.44 190.78 140.96 190.93 141.18 190.93 141.18"/><polygon class="e" points="190.91 138.33 192.46 136.93 194.4 139.3 194.54 139.14 192.45 136.59 190.77 138.12 190.91 138.33 190.91 138.33"/><polygon class="e" points="190.51 134.93 192.06 133.53 194 135.9 194.14 135.74 192.05 133.19 190.37 134.72 190.51 134.93 190.51 134.93"/></g><g><path class="c" d="M115.87,161.67h0s13.66,.91,10.15-14.43c-14.3,.01-10.15,14.43-10.15,14.43Z"/><path class="e" d="M116.35,160.51s1.81-1.78,3.94-4.37c2.12-2.59,4.56-5.97,5.82-9.19l-.21-.08c-1.24,3.18-3.67,6.56-5.78,9.14-1.06,1.29-2.04,2.38-2.76,3.14-.36,.38-.65,.69-.85,.89-.2,.21-.31,.32-.31,.32l.16,.15h0Z"/><polygon class="e" points="117.23 156.94 119.58 156.81 119.78 159.65 120 159.63 119.79 156.58 117.22 156.72 117.23 156.94 117.23 156.94"/><polygon class="e" points="118.92 154.81 121.17 154.69 121.63 157.25 121.85 157.21 121.35 154.46 118.91 154.59 118.92 154.81 118.92 154.81"/><polygon class="e" points="120.53 152.92 122.78 152.8 123.24 155.36 123.46 155.33 122.96 152.57 120.52 152.71 120.53 152.92 120.53 152.92"/><polygon class="e" points="122.1 150.48 124.34 150.36 124.81 152.92 125.03 152.88 124.53 150.13 122.08 150.26 122.1 150.48 122.1 150.48"/></g><g><path class="c" d="M561.88,123.95h0s9.22,10.12,17.32-3.37c-10.32-9.9-17.32,3.37-17.32,3.37Z"/><path class="e" d="M563.02,123.44s2.54-.03,5.87-.42c3.32-.39,7.43-1.14,10.56-2.6l-.1-.2c-3.1,1.44-7.19,2.19-10.5,2.58-1.66,.19-3.12,.3-4.16,.36-.52,.03-.94,.04-1.23,.05-.29,0-.45,.01-.45,.01v.22h0Z"/><polygon class="e" points="566.14 121.48 567.92 123.01 566.09 125.2 566.26 125.34 568.23 122.99 566.28 121.31 566.14 121.48 566.14 121.48"/><polygon class="e" points="568.83 121.12 570.54 122.58 569.1 124.75 569.28 124.88 570.83 122.55 568.97 120.95 568.83 121.12 568.83 121.12"/><polygon class="e" points="571.3 120.87 573 122.34 571.56 124.51 571.74 124.63 573.29 122.3 571.43 120.71 571.3 120.87 571.3 120.87"/><polygon class="e" points="574.12 120.19 575.82 121.66 574.38 123.83 574.57 123.96 576.11 121.63 574.26 120.03 574.12 120.19 574.12 120.19"/></g><g><path class="c" d="M666.75,102.88h0s1.56-13.6-13.93-10.83c-.67,14.28,13.93,10.83,13.93,10.83Z"/><path class="e" d="M665.61,102.35s-1.69-1.9-4.17-4.14c-2.48-2.25-5.75-4.84-8.9-6.25l-.09,.2c3.12,1.39,6.38,3.98,8.85,6.21,1.24,1.12,2.28,2.15,3.01,2.9,.37,.38,.65,.68,.85,.89,.2,.21,.3,.33,.3,.33l.16-.15h0Z"/><polygon class="e" points="662.09 101.29 662.07 98.94 664.92 98.88 664.92 98.66 661.85 98.72 661.87 101.3 662.09 101.29 662.09 101.29"/><polygon class="e" points="660.04 99.5 660.03 97.25 662.61 96.91 662.58 96.69 659.81 97.06 659.83 99.51 660.04 99.5 660.04 99.5"/><polygon class="e" points="658.24 97.81 658.22 95.55 660.8 95.21 660.78 94.99 658 95.36 658.02 97.81 658.24 97.81 658.24 97.81"/><polygon class="e" points="655.87 96.12 655.86 93.87 658.43 93.53 658.41 93.31 655.64 93.68 655.65 96.13 655.87 96.12 655.87 96.12"/></g><g><path class="c" d="M617.5,161.32h0s12.27,6.06,14.89-9.46c-13.22-5.46-14.9,9.46-14.9,9.46Z"/><path class="e" d="M618.38,160.43s2.36-.95,5.31-2.53c2.95-1.58,6.5-3.77,8.89-6.27l-.16-.15c-2.36,2.47-5.89,4.66-8.84,6.23-1.47,.79-2.79,1.42-3.75,1.85-.48,.22-.86,.38-1.13,.5-.27,.11-.41,.17-.41,.17l.09,.2h0Z"/><polygon class="e" points="620.56 157.47 622.78 158.24 621.88 160.94 622.09 161.02 623.06 158.11 620.63 157.26 620.56 157.47 620.56 157.47"/><polygon class="e" points="622.94 156.15 625.06 156.89 624.51 159.43 624.73 159.49 625.32 156.75 623.01 155.94 622.94 156.15 622.94 156.15"/><polygon class="e" points="625.14 155.02 627.27 155.76 626.72 158.31 626.93 158.36 627.53 155.62 625.21 154.81 625.14 155.02 625.14 155.02"/><polygon class="e" points="627.53 153.36 629.65 154.1 629.1 156.65 629.31 156.7 629.91 153.96 627.59 153.15 627.53 153.36 627.53 153.36"/></g><g><path class="c" d="M661.6,141.42h0s3.38-13.27-12.34-12.61c-2.6,14.06,12.34,12.61,12.34,12.61Z"/><path class="e" d="M660.54,140.74s-1.42-2.11-3.58-4.67c-2.15-2.56-5.04-5.58-7.98-7.4l-.12,.19c2.9,1.8,5.78,4.8,7.93,7.35,1.07,1.28,1.96,2.44,2.59,3.28,.31,.42,.56,.76,.72,1,.17,.24,.25,.37,.25,.37l.18-.13h0Z"/><polygon class="e" points="657.19 139.22 657.49 136.88 660.32 137.21 660.35 136.99 657.31 136.64 656.98 139.19 657.19 139.22 657.19 139.22"/><polygon class="e" points="655.41 137.17 655.7 134.93 658.3 134.95 658.31 134.72 655.51 134.71 655.2 137.14 655.41 137.17 655.41 137.17"/><polygon class="e" points="653.85 135.24 654.14 133.01 656.74 133.02 656.75 132.8 653.95 132.79 653.64 135.22 653.85 135.24 653.85 135.24"/><polygon class="e" points="651.73 133.26 652.02 131.02 654.62 131.04 654.63 130.81 651.83 130.8 651.52 133.23 651.73 133.26 651.73 133.26"/></g><g><path class="c" d="M16.23,98.74h0s10.88,11.03,19.44-4.59c-12.12-10.74-19.44,4.59-19.44,4.59Z"/><path class="e" d="M17.51,98.11s2.88-.15,6.62-.74c3.74-.59,8.35-1.63,11.83-3.41l-.12-.22c-3.44,1.77-8.03,2.8-11.76,3.39-1.86,.29-3.51,.48-4.69,.59-.59,.06-1.07,.09-1.39,.11-.33,.02-.5,.03-.5,.03l.02,.25h0Z"/><polygon class="e" points="20.94 95.75 23.02 97.41 21.05 99.96 21.25 100.12 23.37 97.37 21.09 95.56 20.94 95.75 20.94 95.75"/><polygon class="e" points="23.97 95.22 25.96 96.81 24.43 99.32 24.64 99.46 26.29 96.75 24.12 95.03 23.97 95.22 23.97 95.22"/><polygon class="e" points="26.74 94.83 28.74 96.42 27.21 98.93 27.42 99.07 29.07 96.36 26.89 94.64 26.74 94.83 26.74 94.83"/><polygon class="e" points="29.91 93.94 31.9 95.52 30.37 98.04 30.58 98.18 32.23 95.47 30.06 93.75 29.91 93.94 29.91 93.94"/></g><g><path class="c" d="M55.6,131h0s13.65-7.32,1.09-19.94c-13.72,8.59-1.09,19.94-1.09,19.94Z"/><path class="e" d="M55.36,129.6s.67-2.8,1.16-6.56c.49-3.76,.8-8.47,.07-12.31l-.25,.05c.72,3.8,.42,8.5-.07,12.24-.24,1.87-.53,3.5-.76,4.67-.11,.58-.21,1.05-.28,1.37-.07,.32-.11,.49-.11,.49l.24,.05h0Z"/><polygon class="e" points="54.06 125.64 56.24 124.11 58.13 126.72 58.34 126.57 56.3 123.76 53.92 125.44 54.06 125.64 54.06 125.64"/><polygon class="e" points="54.41 122.58 56.49 121.12 58.47 123.3 58.66 123.13 56.53 120.79 54.27 122.38 54.41 122.58 54.41 122.58"/><polygon class="e" points="54.83 119.81 56.91 118.34 58.89 120.52 59.08 120.36 56.95 118.01 54.68 119.61 54.83 119.81 54.83 119.81"/><polygon class="e" points="54.86 116.52 56.94 115.06 58.93 117.24 59.11 117.07 56.99 114.73 54.72 116.32 54.86 116.52 54.86 116.52"/></g><g><path class="c" d="M43.07,128.58h0s5.74-17.54-13.35-16.72c-4.9,18.6,13.34,16.72,13.34,16.72Z"/><path class="e" d="M41.88,127.68s-1.46-2.79-3.74-6.19c-2.28-3.39-5.4-7.39-8.72-9.81l-.16,.25c3.29,2.39,6.39,6.37,8.67,9.75,1.14,1.69,2.07,3.23,2.72,4.35,.32,.56,.58,1.01,.75,1.33,.17,.31,.26,.49,.26,.49l.23-.17h0Z"/><polygon class="e" points="38.02 125.66 38.67 122.58 42.05 123.01 42.12 122.72 38.48 122.25 37.76 125.63 38.02 125.66 38.02 125.66"/><polygon class="e" points="36.12 122.94 36.75 119.99 39.89 120.01 39.93 119.72 36.54 119.7 35.86 122.91 36.12 122.94 36.12 122.94"/><polygon class="e" points="34.47 120.39 35.1 117.44 38.25 117.46 38.28 117.17 34.9 117.15 34.22 120.36 34.47 120.39 34.47 120.39"/><polygon class="e" points="32.16 117.76 32.79 114.81 35.93 114.83 35.97 114.54 32.59 114.51 31.9 117.73 32.16 117.76 32.16 117.76"/></g><g><path class="c" d="M7.62,152.7h0s10.88,11.03,19.44-4.59c-12.12-10.74-19.44,4.59-19.44,4.59Z"/><path class="e" d="M8.9,152.07s2.88-.15,6.62-.74c3.74-.59,8.35-1.63,11.83-3.41l-.12-.22c-3.44,1.77-8.03,2.8-11.76,3.39-1.86,.29-3.51,.48-4.69,.59-.59,.06-1.07,.09-1.39,.11-.33,.02-.5,.03-.5,.03l.02,.25h0Z"/><polygon class="e" points="12.33 149.71 14.42 151.36 12.45 153.92 12.65 154.07 14.76 151.33 12.48 149.52 12.33 149.71 12.33 149.71"/><polygon class="e" points="15.36 149.18 17.36 150.76 15.82 153.28 16.04 153.41 17.68 150.71 15.51 148.99 15.36 149.18 15.36 149.18"/><polygon class="e" points="18.14 148.79 20.13 150.38 18.6 152.89 18.82 153.03 20.46 150.32 18.29 148.6 18.14 148.79 18.14 148.79"/><polygon class="e" points="21.3 147.9 23.3 149.48 21.77 152 21.98 152.13 23.62 149.43 21.45 147.71 21.3 147.9 21.3 147.9"/></g><g><path class="c" d="M62.01,102.43h0s10.88,11.03,19.44-4.59c-12.12-10.74-19.44,4.59-19.44,4.59Z"/><path class="e" d="M63.28,101.8s2.88-.15,6.62-.74c3.74-.59,8.35-1.63,11.83-3.41l-.12-.22c-3.44,1.77-8.03,2.8-11.76,3.39-1.86,.29-3.51,.48-4.69,.59-.59,.06-1.07,.09-1.39,.11-.33,.02-.5,.03-.5,.03l.02,.25h0Z"/><polygon class="e" points="66.72 99.44 68.8 101.1 66.83 103.65 67.03 103.81 69.15 101.06 66.87 99.25 66.72 99.44 66.72 99.44"/><polygon class="e" points="69.74 98.91 71.74 100.49 70.21 103.01 70.42 103.15 72.07 100.44 69.89 98.72 69.74 98.91 69.74 98.91"/><polygon class="e" points="72.52 98.52 74.52 100.11 72.99 102.62 73.2 102.76 74.84 100.05 72.67 98.33 72.52 98.52 72.52 98.52"/><polygon class="e" points="75.68 97.63 77.68 99.21 76.15 101.73 76.36 101.86 78.01 99.16 75.83 97.44 75.68 97.63 75.68 97.63"/></g><g><path class="c" d="M116.18,109.44h0s.8-15.48-16.5-11.25c.25,16.19,16.5,11.25,16.5,11.25Z"/><path class="e" d="M114.86,108.92s-2.05-2.02-5.01-4.39c-2.96-2.36-6.83-5.07-10.5-6.43l-.09,.24c3.62,1.35,7.48,4.04,10.43,6.4,1.47,1.18,2.72,2.27,3.6,3.07,.44,.4,.79,.72,1.02,.95,.24,.23,.36,.35,.36,.35l.17-.18h0Z"/><polygon class="e" points="110.8 107.98 110.61 105.33 113.83 105.06 113.81 104.81 110.35 105.1 110.55 108 110.8 107.98 110.8 107.98"/><polygon class="e" points="108.36 106.1 108.19 103.56 111.08 103 111.03 102.75 107.93 103.36 108.12 106.12 108.36 106.1 108.36 106.1"/><polygon class="e" points="106.2 104.31 106.03 101.77 108.92 101.21 108.87 100.96 105.77 101.57 105.96 104.33 106.2 104.31 106.2 104.31"/><polygon class="e" points="103.41 102.58 103.23 100.04 106.13 99.47 106.08 99.23 102.97 99.83 103.17 102.6 103.41 102.58 103.41 102.58"/></g><g><path class="c" d="M89.76,156.1h0s1.85-15.39-15.7-12.35c-.85,16.17,15.7,12.35,15.7,12.35Z"/><path class="e" d="M88.48,155.49s-1.91-2.16-4.7-4.72c-2.79-2.56-6.47-5.52-10.04-7.13l-.1,.23c3.52,1.59,7.19,4.54,9.98,7.09,1.39,1.27,2.56,2.45,3.38,3.31,.41,.43,.74,.78,.96,1.02,.22,.24,.34,.37,.34,.37l.18-.17h0Z"/><polygon class="e" points="84.49 154.27 84.49 151.61 87.71 151.56 87.71 151.31 84.24 151.36 84.25 154.28 84.49 154.27 84.49 154.27"/><polygon class="e" points="82.19 152.23 82.19 149.69 85.11 149.32 85.09 149.07 81.94 149.46 81.95 152.24 82.19 152.23 82.19 152.23"/><polygon class="e" points="80.16 150.3 80.16 147.75 83.08 147.38 83.05 147.13 79.91 147.53 79.92 150.3 80.16 150.3 80.16 150.3"/><polygon class="e" points="77.49 148.38 77.49 145.84 80.41 145.47 80.38 145.22 77.24 145.61 77.25 148.39 77.49 148.38 77.49 148.38"/></g><g><path class="c" d="M203.05,142.29h0s13.15-4.58,3.72-18.35c-13.39,5.75-3.72,18.35-3.72,18.35Z"/><path class="e" d="M203.03,140.95s.98-2.49,1.94-5.9c.95-3.41,1.88-7.74,1.76-11.43h-.23c.12,3.65-.8,7.96-1.76,11.36-.48,1.7-.96,3.17-1.32,4.21-.18,.52-.33,.94-.44,1.22-.11,.29-.17,.44-.17,.44l.21,.09h0Z"/><polygon class="e" points="202.43 137.06 204.57 135.99 205.9 138.72 206.1 138.62 204.68 135.68 202.33 136.86 202.43 137.06 202.43 137.06"/><polygon class="e" points="203.16 134.28 205.21 133.26 206.67 135.61 206.87 135.48 205.3 132.96 203.06 134.08 203.16 134.28 203.16 134.28"/><polygon class="e" points="203.91 131.77 205.96 130.75 207.43 133.1 207.62 132.97 206.05 130.45 203.81 131.57 203.91 131.77 203.91 131.77"/><polygon class="e" points="204.4 128.73 206.45 127.7 207.91 130.05 208.1 129.93 206.53 127.41 204.3 128.52 204.4 128.73 204.4 128.73"/></g><g><path class="c" d="M249.63,138.92h0s8.65-10.92-6.7-17.48c-8.22,12.03,6.69,17.48,6.69,17.48Z"/><path class="e" d="M248.89,137.79s-.51-2.63-1.53-6.02c-1.02-3.39-2.56-7.54-4.64-10.59l-.19,.13c2.05,3.01,3.59,7.15,4.61,10.53,.51,1.69,.89,3.19,1.14,4.27,.13,.54,.22,.97,.28,1.27,.06,.3,.09,.46,.09,.46l.22-.04h0Z"/><polygon class="e" points="246.3 134.84 247.54 132.78 250.12 134.38 250.24 134.18 247.46 132.47 246.1 134.71 246.3 134.84 246.3 134.84"/><polygon class="e" points="245.43 132.1 246.61 130.13 249.1 131.33 249.2 131.12 246.52 129.84 245.23 131.98 245.43 132.1 245.43 132.1"/><polygon class="e" points="244.71 129.58 245.9 127.61 248.39 128.81 248.49 128.6 245.81 127.31 244.52 129.46 244.71 129.58 244.71 129.58"/><polygon class="e" points="243.49 126.75 244.68 124.78 247.17 125.98 247.26 125.77 244.59 124.48 243.29 126.62 243.49 126.75 243.49 126.75"/></g><g><path class="c" d="M705.18,104.83h0s2.66-13.68-13.98-12.46c-1.78,14.46,13.97,12.46,13.97,12.46Z"/><path class="e" d="M704.01,104.17s-1.66-2.11-4.12-4.65c-2.46-2.54-5.74-5.52-8.98-7.28l-.11,.2c3.21,1.74,6.47,4.7,8.92,7.23,1.23,1.27,2.25,2.42,2.97,3.26,.36,.42,.64,.76,.84,1,.19,.24,.3,.37,.3,.37l.18-.14h0Z"/><polygon class="e" points="700.35 102.73 700.5 100.34 703.53 100.57 703.54 100.35 700.29 100.1 700.12 102.72 700.35 102.73 700.35 102.73"/><polygon class="e" points="698.31 100.7 698.46 98.41 701.22 98.33 701.21 98.1 698.25 98.19 698.08 100.69 698.31 100.7 698.31 100.7"/><polygon class="e" points="696.52 98.79 696.67 96.5 699.43 96.42 699.42 96.19 696.46 96.28 696.29 98.77 696.52 98.79 696.52 98.79"/><polygon class="e" points="694.14 96.84 694.29 94.55 697.05 94.47 697.04 94.24 694.07 94.32 693.91 96.82 694.14 96.84 694.14 96.84"/></g><g><path class="c" d="M673.06,129.72h0s13.42-3.74,4.87-18.07c-13.73,4.89-4.88,18.07-4.88,18.07Z"/><path class="e" d="M673.13,128.38s1.14-2.42,2.31-5.77c1.17-3.34,2.37-7.6,2.48-11.29h-.23c-.11,3.64-1.31,7.88-2.47,11.21-.58,1.67-1.16,3.1-1.59,4.12-.21,.51-.39,.92-.52,1.19-.12,.28-.19,.43-.2,.43l.2,.1h0Z"/><polygon class="e" points="672.77 124.47 674.98 123.53 676.13 126.34 676.34 126.26 675.1 123.23 672.68 124.25 672.77 124.47 672.77 124.47"/><polygon class="e" points="673.68 121.74 675.79 120.85 677.1 123.28 677.3 123.17 675.89 120.55 673.59 121.52 673.68 121.74 673.68 121.74"/><polygon class="e" points="674.58 119.28 676.7 118.39 678.01 120.82 678.21 120.71 676.8 118.1 674.5 119.07 674.58 119.28 674.58 119.28"/><polygon class="e" points="675.26 116.27 677.38 115.38 678.69 117.81 678.89 117.7 677.48 115.09 675.18 116.06 675.26 116.27 675.26 116.27"/></g><g><path class="c" d="M713.83,136.45h0s-1.06-13.89-16.78-8.3c2.13,14.42,16.78,8.3,16.78,8.3Z"/><path class="e" d="M712.52,136.13s-2.16-1.59-5.21-3.39c-3.05-1.8-7-3.8-10.59-4.63l-.05,.22c3.55,.82,7.49,2.82,10.53,4.6,1.52,.89,2.82,1.74,3.73,2.36,.46,.31,.82,.56,1.07,.74,.25,.18,.38,.27,.38,.27l.14-.18h0Z"/><polygon class="e" points="708.61 135.71 708.13 133.36 711.11 132.79 711.06 132.56 707.85 133.19 708.38 135.76 708.61 135.71 708.61 135.71"/><polygon class="e" points="706.11 134.3 705.65 132.05 708.29 131.24 708.22 131.02 705.38 131.89 705.88 134.34 706.11 134.3 706.11 134.3"/><polygon class="e" points="703.88 132.93 703.41 130.68 706.06 129.87 705.99 129.65 703.15 130.52 703.65 132.97 703.88 132.93 703.88 132.93"/><polygon class="e" points="701.06 131.68 700.59 129.43 703.24 128.62 703.17 128.4 700.33 129.27 700.83 131.72 701.06 131.68 701.06 131.68"/></g><g><path class="c" d="M732.19,112.07h0s9.42-10.27-5.41-17.92c-9.07,11.4,5.41,17.92,5.41,17.92Z"/><path class="e" d="M731.53,110.89s-.31-2.66-1.09-6.11c-.77-3.45-2.01-7.7-3.86-10.9l-.2,.11c1.83,3.16,3.06,7.39,3.83,10.83,.39,1.72,.66,3.24,.83,4.34,.09,.55,.15,.99,.19,1.29,.04,.3,.06,.47,.06,.47l.23-.02h0Z"/><polygon class="e" points="729.16 107.75 730.55 105.8 733 107.58 733.14 107.39 730.49 105.48 728.97 107.62 729.16 107.75 729.16 107.75"/><polygon class="e" points="728.49 104.96 729.81 103.09 732.21 104.46 732.32 104.26 729.74 102.78 728.3 104.82 728.49 104.96 728.49 104.96"/><polygon class="e" points="727.96 102.39 729.29 100.52 731.68 101.89 731.79 101.7 729.22 100.22 727.78 102.26 727.96 102.39 727.96 102.39"/><polygon class="e" points="726.95 99.48 728.27 97.61 730.67 98.98 730.78 98.78 728.2 97.3 726.76 99.35 726.95 99.48 726.95 99.48"/></g><g><path class="c" d="M733.14,134.31h0s12.91,5.25,14.91-11.32c-13.85-4.52-14.91,11.32-14.91,11.32Z"/><path class="e" d="M734.01,133.29s2.38-1.22,5.35-3.15c2.97-1.93,6.52-4.57,8.87-7.42l-.17-.15c-2.32,2.81-5.86,5.45-8.82,7.37-1.48,.96-2.81,1.75-3.78,2.29-.48,.27-.87,.48-1.14,.63-.27,.14-.42,.22-.42,.22l.1,.21h0Z"/><polygon class="e" points="736.12 129.97 738.44 130.58 737.63 133.51 737.85 133.57 738.72 130.42 736.18 129.75 736.12 129.97 736.12 129.97"/><polygon class="e" points="738.5 128.36 740.72 128.95 740.27 131.68 740.5 131.71 740.98 128.78 738.57 128.14 738.5 128.36 738.5 128.36"/><polygon class="e" points="740.72 126.98 742.94 127.56 742.49 130.29 742.72 130.32 743.2 127.39 740.79 126.75 740.72 126.98 740.72 126.98"/><polygon class="e" points="743.1 125.01 745.32 125.6 744.87 128.32 745.09 128.36 745.58 125.43 743.16 124.79 743.1 125.01 743.1 125.01"/></g><g><path class="c" d="M808.06,118.2h0s9.42-10.27-5.41-17.92c-9.07,11.4,5.41,17.92,5.41,17.92Z"/><path class="e" d="M807.4,117.03s-.31-2.66-1.09-6.11c-.77-3.45-2.01-7.7-3.86-10.9l-.2,.11c1.83,3.16,3.06,7.39,3.83,10.83,.39,1.72,.66,3.24,.83,4.34,.09,.55,.15,.99,.19,1.29,.04,.3,.06,.47,.06,.47l.23-.02h0Z"/><polygon class="e" points="805.03 113.89 806.42 111.93 808.87 113.71 809.01 113.52 806.36 111.61 804.85 113.75 805.03 113.89 805.03 113.89"/><polygon class="e" points="804.36 111.09 805.69 109.22 808.08 110.59 808.19 110.39 805.62 108.92 804.17 110.96 804.36 111.09 804.36 111.09"/><polygon class="e" points="803.83 108.53 805.16 106.65 807.56 108.03 807.67 107.83 805.09 106.35 803.65 108.39 803.83 108.53 803.83 108.53"/><polygon class="e" points="802.82 105.61 804.15 103.74 806.54 105.11 806.65 104.92 804.08 103.44 802.63 105.48 802.82 105.61 802.82 105.61"/></g><g><path class="c" d="M760.1,117.81h0s13.11,4.7,14.42-11.93c-14.03-3.94-14.43,11.93-14.43,11.93Z"/><path class="e" d="M760.93,116.75s2.33-1.32,5.22-3.37c2.88-2.05,6.32-4.83,8.55-7.78l-.18-.14c-2.2,2.91-5.63,5.68-8.5,7.73-1.44,1.02-2.74,1.86-3.68,2.45-.47,.29-.85,.52-1.11,.68-.26,.16-.41,.24-.41,.24l.11,.2h0Z"/><polygon class="e" points="762.9 113.35 765.25 113.87 764.56 116.82 764.78 116.87 765.52 113.69 762.96 113.12 762.9 113.35 762.9 113.35"/><polygon class="e" points="765.22 111.65 767.46 112.14 767.12 114.88 767.35 114.91 767.71 111.96 765.27 111.42 765.22 111.65 765.22 111.65"/><polygon class="e" points="767.38 110.17 769.62 110.66 769.28 113.4 769.51 113.43 769.87 110.48 767.43 109.94 767.38 110.17 767.38 110.17"/><polygon class="e" points="769.67 108.1 771.92 108.6 771.58 111.34 771.8 111.36 772.17 108.42 769.73 107.88 769.67 108.1 769.67 108.1"/></g><g><path class="c" d="M787.53,166.41h0s9.42-10.27-5.41-17.92c-9.07,11.4,5.41,17.92,5.41,17.92Z"/><path class="e" d="M786.88,165.24s-.31-2.66-1.09-6.11c-.77-3.45-2.01-7.7-3.86-10.9l-.2,.11c1.83,3.16,3.06,7.39,3.83,10.83,.39,1.72,.66,3.24,.83,4.34,.09,.55,.15,.99,.19,1.29,.04,.3,.06,.47,.06,.47l.23-.02h0Z"/><polygon class="e" points="784.5 162.1 785.89 160.14 788.35 161.92 788.48 161.73 785.83 159.82 784.32 161.96 784.5 162.1 784.5 162.1"/><polygon class="e" points="783.83 159.3 785.16 157.43 787.55 158.8 787.66 158.6 785.09 157.13 783.64 159.17 783.83 159.3 783.83 159.3"/><polygon class="e" points="783.3 156.74 784.63 154.86 787.03 156.24 787.14 156.04 784.56 154.56 783.12 156.6 783.3 156.74 783.3 156.74"/><polygon class="e" points="782.29 153.82 783.62 151.95 786.01 153.32 786.12 153.13 783.55 151.65 782.1 153.69 782.29 153.82 782.29 153.82"/></g></g></svg>