<?xml version="1.0" encoding="UTF-8"?><svg xmlns="http://www.w3.org/2000/svg" viewBox="0 0 381.5 262"><defs><style>.c{fill:#afa57d;}.d{fill:#777159;}</style></defs><g id="a"><g><path class="c" d="M140.64,88.03v8.2h-13.9v78.26h-9.45V96.23h-13.9v-8.2h37.25Z"/><path class="c" d="M177.2,88.03h9.59v86.46h-9.59v-39.06h-18.63v39.06h-9.59V88.03h9.59v39.2h18.63v-39.2Z"/><path class="c" d="M211.67,133.62v32.67h23.77v8.2h-33.36V88.03h32.39v8.2h-22.79v29.19h18.62v8.2h-18.62Zm23.91-67.55l-13.62,17.65h-8.62l10.84-17.65h11.4Z"/><path class="c" d="M268.52,161.98v-23.63c0-1.85-.28-3.03-.83-3.54-.55-.51-1.71-.76-3.47-.76h-9.45c-7.32,0-10.98-3.66-10.98-10.98v-24.05c0-7.32,3.66-10.98,10.98-10.98h12.23c7.32,0,10.98,3.66,10.98,10.98v13.34h-9.59v-11.82c0-1.85-.26-3.03-.76-3.54-.51-.51-1.69-.76-3.54-.76h-6.39c-1.85,0-3.04,.26-3.54,.76-.51,.51-.76,1.69-.76,3.54v20.99c0,1.76,.25,2.92,.76,3.48,.51,.56,1.69,.83,3.54,.83h9.45c7.32,0,10.98,3.66,10.98,10.98v26.69c0,7.32-3.66,10.98-10.98,10.98h-12.09c-7.32,0-10.98-3.66-10.98-10.98v-13.34h9.59v11.82c0,1.85,.26,3.04,.77,3.54,.51,.51,1.69,.76,3.54,.76h6.25c1.76,0,2.92-.25,3.47-.76,.56-.51,.83-1.69,.83-3.54Z"/></g></g><g id="b"><g><path class="c" d="M133.01,149.47h0s12.28-8.31-.86-18.89c-12.22,9.51,.86,18.89,.86,18.89Z"/><path class="d" d="M132.64,148.18s.37-2.71,.48-6.29c.11-3.59-.05-8.06-1.1-11.6l-.23,.07c1.05,3.5,1.2,7.96,1.09,11.53-.05,1.79-.17,3.36-.28,4.48-.05,.56-.1,1.01-.14,1.32-.04,.31-.06,.48-.06,.48l.24,.02h0Z"/><polygon class="d" points="131.04 144.58 132.96 142.91 135.01 145.17 135.19 145.01 132.99 142.58 130.88 144.41 131.04 144.58 131.04 144.58"/><polygon class="d" points="131.08 141.67 132.92 140.07 135.01 141.92 135.17 141.74 132.93 139.76 130.92 141.5 131.08 141.67 131.08 141.67"/><polygon class="d" points="131.21 139.01 133.05 137.41 135.14 139.26 135.3 139.09 133.05 137.1 131.05 138.84 131.21 139.01 131.21 139.01"/><polygon class="d" points="130.93 135.91 132.77 134.32 134.86 136.16 135.02 135.99 132.78 134 130.77 135.74 130.93 135.91 130.93 135.91"/></g><g><path class="c" d="M106.53,168.95h0s13.72-6.55,1.98-19.5c-13.85,7.79-1.99,19.5-1.99,19.5Z"/><path class="d" d="M106.36,167.56s.79-2.71,1.44-6.37c.65-3.66,1.17-8.27,.64-12.07l-.24,.04c.53,3.76,.02,8.35-.64,12-.33,1.82-.68,3.41-.96,4.54-.14,.57-.26,1.02-.34,1.33-.08,.31-.13,.48-.13,.48l.24,.06h0Z"/><polygon class="d" points="105.28 163.62 107.48 162.22 109.22 164.87 109.42 164.73 107.56 161.88 105.14 163.42 105.28 163.62 105.28 163.62"/><polygon class="d" points="105.76 160.64 107.87 159.3 109.71 161.53 109.9 161.38 107.92 158.98 105.63 160.44 105.76 160.64 105.76 160.64"/><polygon class="d" points="106.29 157.94 108.4 156.6 110.24 158.83 110.44 158.67 108.46 156.28 106.16 157.74 106.29 157.94 106.29 157.94"/><polygon class="d" points="106.48 154.72 108.59 153.38 110.43 155.61 110.62 155.45 108.64 153.06 106.35 154.52 106.48 154.72 106.48 154.72"/></g><g><path class="c" d="M172.33,156h0s9.41-10.27-5.42-17.92c-9.07,11.41,5.41,17.92,5.41,17.92Z"/><path class="d" d="M171.67,154.83s-.31-2.66-1.09-6.11c-.77-3.45-2.01-7.7-3.86-10.9l-.2,.11c1.83,3.15,3.06,7.39,3.83,10.83,.39,1.72,.66,3.24,.83,4.34,.09,.55,.15,.99,.19,1.29,.04,.3,.06,.47,.06,.47l.23-.02h0Z"/><polygon class="d" points="169.3 151.69 170.68 149.73 173.14 151.51 173.27 151.33 170.63 149.41 169.11 151.56 169.3 151.69 169.3 151.69"/><polygon class="d" points="168.63 148.9 169.95 147.02 172.35 148.4 172.46 148.2 169.88 146.72 168.44 148.76 168.63 148.9 168.63 148.9"/><polygon class="d" points="168.1 146.33 169.42 144.46 171.82 145.83 171.93 145.63 169.35 144.16 167.91 146.2 168.1 146.33 168.1 146.33"/><polygon class="d" points="167.08 143.42 168.41 141.54 170.81 142.92 170.92 142.72 168.34 141.24 166.9 143.28 167.08 143.42 167.08 143.42"/></g><g><path class="c" d="M141.49,179.15h0s14.12-1.73,7.56-16.72c-14.6,2.79-7.56,16.72-7.56,16.72Z"/><path class="d" d="M141.75,177.87s1.51-2.17,3.17-5.23c1.67-3.05,3.5-6.99,4.15-10.52l-.23-.04c-.64,3.49-2.47,7.41-4.13,10.45-.83,1.52-1.62,2.82-2.2,3.75-.29,.46-.53,.83-.7,1.08-.17,.25-.26,.38-.26,.38l.19,.13h0Z"/><polygon class="d" points="141.96 174.05 144.33 173.46 145.09 176.32 145.31 176.27 144.5 173.19 141.9 173.83 141.96 174.05 141.96 174.05"/><polygon class="d" points="143.27 171.55 145.54 170.99 146.51 173.51 146.73 173.43 145.69 170.72 143.21 171.33 143.27 171.55 143.27 171.55"/><polygon class="d" points="144.55 169.31 146.82 168.75 147.79 171.27 148.01 171.19 146.96 168.48 144.49 169.09 144.55 169.31 144.55 169.31"/><polygon class="d" points="145.67 166.51 147.94 165.95 148.91 168.47 149.13 168.39 148.09 165.68 145.61 166.29 145.67 166.51 145.67 166.51"/></g><g><path class="c" d="M180.8,164.18h0s10.23,8.83,17.32-5.84c-11.33-8.45-17.32,5.84-17.32,5.84Z"/><path class="d" d="M181.92,163.5s2.58-.39,5.93-1.26c3.35-.86,7.45-2.2,10.52-4.1l-.11-.19c-3.03,1.88-7.12,3.22-10.46,4.08-1.67,.43-3.14,.74-4.2,.95-.53,.1-.96,.18-1.25,.23-.29,.05-.45,.07-.45,.07l.03,.22h0Z"/><polygon class="d" points="184.92 161.1 186.86 162.38 185.19 164.83 185.37 164.95 187.17 162.31 185.05 160.91 184.92 161.1 184.92 161.1"/><polygon class="d" points="187.62 160.35 189.48 161.58 188.2 163.95 188.4 164.05 189.78 161.5 187.75 160.16 187.62 160.35 187.62 160.35"/><polygon class="d" points="190.11 159.75 191.97 160.98 190.69 163.36 190.89 163.46 192.26 160.9 190.24 159.57 190.11 159.75 190.11 159.75"/><polygon class="d" points="192.92 158.67 194.78 159.9 193.5 162.28 193.7 162.38 195.07 159.82 193.05 158.49 192.92 158.67 192.92 158.67"/></g><g><path class="c" d="M235.84,146.46h0s10.39-9.26-3.62-18.44c-10.16,10.43,3.62,18.44,3.62,18.44Z"/><path class="d" d="M235.31,145.23s-.05-2.69-.48-6.21c-.43-3.53-1.24-7.89-2.76-11.27l-.21,.09c1.51,3.34,2.32,7.69,2.74,11.2,.21,1.76,.33,3.31,.4,4.41,.03,.55,.05,1,.06,1.3,.01,.31,.01,.47,.01,.47h.23Z"/><polygon class="d" points="233.25 141.85 234.83 140.04 237.1 142.07 237.25 141.9 234.8 139.71 233.08 141.69 233.25 141.85 233.25 141.85"/><polygon class="d" points="232.86 138.99 234.36 137.26 236.62 138.88 236.75 138.69 234.32 136.95 232.69 138.83 232.86 138.99 232.86 138.99"/><polygon class="d" points="232.59 136.37 234.09 134.64 236.34 136.26 236.47 136.08 234.05 134.33 232.42 136.22 232.59 136.37 232.59 136.37"/><polygon class="d" points="231.87 133.36 233.37 131.63 235.62 133.25 235.75 133.07 233.33 131.32 231.69 133.21 231.87 133.36 231.87 133.36"/></g><g><path class="c" d="M163.29,174.92h0s5.35,12.32,17.14,2.37c-6.43-12.46-17.14-2.37-17.14-2.37Z"/><path class="d" d="M164.51,174.81s2.37,.78,5.58,1.47c3.21,.69,7.25,1.3,10.63,.94l-.02-.22c-3.33,.35-7.36-.25-10.56-.94-1.6-.34-2.99-.71-3.98-.99-.49-.14-.89-.26-1.16-.34-.27-.08-.42-.13-.42-.13l-.06,.21h0Z"/><polygon class="d" points="168.02 173.98 169.19 175.97 166.8 177.42 166.91 177.6 169.48 176.05 168.21 173.87 168.02 173.98 168.02 173.98"/><polygon class="d" points="170.64 174.5 171.75 176.4 169.73 177.96 169.86 178.13 172.03 176.46 170.82 174.39 170.64 174.5 170.64 174.5"/><polygon class="d" points="173 175.06 174.12 176.96 172.1 178.51 172.22 178.69 174.4 177.02 173.18 174.94 173 175.06 173 175.06"/><polygon class="d" points="175.84 175.32 176.95 177.22 174.93 178.78 175.06 178.95 177.23 177.28 176.02 175.21 175.84 175.32 175.84 175.32"/></g><g><path class="c" d="M145.29,175.29h0s-8.14-13.19-19.97,.13c9.41,13.17,19.97-.13,19.97-.13Z"/><path class="d" d="M143.91,175.62s-2.84-.5-6.61-.76c-3.78-.26-8.5-.28-12.3,.68l.06,.24c3.75-.95,8.45-.93,12.22-.67,1.88,.13,3.53,.32,4.71,.48,.59,.08,1.06,.15,1.38,.2,.32,.05,.5,.08,.5,.08l.04-.25h0Z"/><polygon class="d" points="140.03 177.15 138.37 175.07 140.86 173.02 140.7 172.83 138.03 175.03 139.84 177.31 140.03 177.15 140.03 177.15"/><polygon class="d" points="136.96 176.99 135.37 175 137.43 172.89 137.25 172.71 135.04 174.98 136.77 177.15 136.96 176.99 136.96 176.99"/><polygon class="d" points="134.17 176.75 132.58 174.76 134.63 172.65 134.46 172.47 132.25 174.74 133.98 176.9 134.17 176.75 134.17 176.75"/><polygon class="d" points="130.89 176.91 129.3 174.92 131.35 172.81 131.18 172.63 128.97 174.9 130.7 177.07 130.89 176.91 130.89 176.91"/></g><g><path class="c" d="M193.96,153.6h0s15.08,.77,10.96-16.09c-15.78,.25-10.96,16.09-10.96,16.09Z"/><path class="d" d="M194.47,152.31s1.97-2,4.27-4.88c2.3-2.89,4.93-6.66,6.26-10.24l-.23-.08c-1.31,3.53-3.93,7.3-6.23,10.17-1.15,1.44-2.21,2.66-2.99,3.51-.39,.43-.71,.77-.93,1-.22,.23-.34,.35-.34,.35l.18,.17h0Z"/><polygon class="d" points="195.39 148.35 197.97 148.17 198.24 151.3 198.48 151.28 198.2 147.91 195.37 148.11 195.39 148.35 195.39 148.35"/><polygon class="d" points="197.21 145.98 199.69 145.8 200.25 148.62 200.49 148.58 199.89 145.55 197.19 145.74 197.21 145.98 197.21 145.98"/><polygon class="d" points="198.96 143.87 201.43 143.7 201.99 146.51 202.23 146.47 201.63 143.44 198.94 143.63 198.96 143.87 198.96 143.87"/><polygon class="d" points="200.64 141.15 203.12 140.97 203.67 143.79 203.92 143.75 203.32 140.72 200.62 140.91 200.64 141.15 200.64 141.15"/></g><g><path class="c" d="M224.25,168.77h0s3.38-13.21-12.28-12.58c-2.6,14.01,12.28,12.58,12.28,12.58Z"/><path class="d" d="M223.2,168.09s-1.42-2.1-3.56-4.66c-2.14-2.55-5.01-5.56-7.94-7.38l-.12,.19c2.89,1.79,5.76,4.79,7.89,7.33,1.07,1.27,1.95,2.43,2.57,3.27,.31,.42,.55,.76,.72,1,.17,.24,.25,.37,.25,.37l.18-.13h0Z"/><polygon class="d" points="219.86 166.57 220.17 164.25 222.99 164.58 223.01 164.36 219.98 164.01 219.65 166.55 219.86 166.57 219.86 166.57"/><polygon class="d" points="218.09 164.53 218.38 162.31 220.97 162.32 220.98 162.1 218.19 162.08 217.88 164.51 218.09 164.53 218.09 164.53"/><polygon class="d" points="216.54 162.61 216.83 160.39 219.42 160.4 219.43 160.18 216.64 160.16 216.32 162.59 216.54 162.61 216.54 162.61"/><polygon class="d" points="214.43 160.63 214.72 158.41 217.31 158.42 217.32 158.2 214.53 158.18 214.22 160.61 214.43 160.63 214.43 160.63"/></g><g><path class="c" d="M192.89,174.31h0s9.36,4.36,11.07-7.39c-10.06-3.88-11.07,7.39-11.07,7.39Z"/><path class="d" d="M193.55,173.62s1.76-.76,3.96-2c2.2-1.24,4.83-2.96,6.59-4.88l-.13-.11c-1.74,1.9-4.36,3.62-6.55,4.85-1.1,.62-2.08,1.12-2.79,1.46-.36,.17-.64,.31-.84,.4-.2,.09-.31,.14-.31,.14l.07,.15h0Z"/><polygon class="d" points="195.14 171.35 196.83 171.9 196.19 173.95 196.35 174 197.03 171.79 195.19 171.19 195.14 171.35 195.14 171.35"/><polygon class="d" points="196.91 170.31 198.52 170.84 198.15 172.76 198.31 172.8 198.71 170.73 196.96 170.16 196.91 170.31 196.91 170.31"/><polygon class="d" points="198.55 169.43 200.16 169.95 199.79 171.88 199.96 171.91 200.36 169.84 198.6 169.27 198.55 169.43 198.55 169.43"/><polygon class="d" points="200.32 168.13 201.93 168.66 201.56 170.58 201.72 170.62 202.12 168.55 200.37 167.98 200.32 168.13 200.32 168.13"/></g><g><path class="c" d="M241.23,167.97h0s-1.39-10.23-12.2-5.32c2.17,10.56,12.2,5.32,12.2,5.32Z"/><path class="d" d="M240.3,167.79s-1.59-1.07-3.82-2.25c-2.23-1.18-5.1-2.47-7.67-2.91l-.03,.17c2.54,.43,5.4,1.72,7.62,2.89,1.11,.59,2.06,1.15,2.74,1.56,.34,.21,.6,.38,.79,.5,.18,.12,.28,.18,.28,.18l.09-.14h0Z"/><polygon class="d" points="237.53 167.68 237.08 165.96 239.15 165.39 239.1 165.23 236.88 165.84 237.37 167.72 237.53 167.68 237.53 167.68"/><polygon class="d" points="235.7 166.75 235.27 165.11 237.09 164.38 237.03 164.22 235.07 165.01 235.54 166.79 235.7 166.75 235.7 166.75"/><polygon class="d" points="234.07 165.85 233.63 164.2 235.46 163.47 235.4 163.32 233.44 164.1 233.91 165.89 234.07 165.85 234.07 165.85"/><polygon class="d" points="232.02 165.06 231.59 163.42 233.41 162.69 233.35 162.53 231.4 163.31 231.87 165.1 232.02 165.06 232.02 165.06"/></g><g><path class="c" d="M285.95,145.27h0s13.36-4.75,3.72-17.89c-13.59,5.89-3.72,17.89-3.72,17.89Z"/><path class="d" d="M285.93,143.97s.99-2.44,1.95-5.77c.96-3.33,1.88-7.55,1.75-11.13h-.23c.13,3.55-.79,7.75-1.74,11.07-.48,1.66-.96,3.1-1.33,4.12-.18,.51-.34,.92-.44,1.2-.11,.28-.17,.43-.17,.43l.21,.08h0Z"/><polygon class="d" points="285.3 140.2 287.48 139.12 288.83 141.74 289.04 141.64 287.58 138.81 285.2 140.01 285.3 140.2 285.3 140.2"/><polygon class="d" points="286.03 137.49 288.12 136.45 289.61 138.69 289.8 138.57 288.2 136.16 285.93 137.29 286.03 137.49 286.03 137.49"/><polygon class="d" points="286.79 135.04 288.87 134 290.36 136.24 290.56 136.12 288.95 133.7 286.68 134.84 286.79 135.04 286.79 135.04"/><polygon class="d" points="287.27 132.07 289.36 131.03 290.85 133.27 291.04 133.15 289.44 130.74 287.17 131.87 287.27 132.07 287.27 132.07"/></g><g><path class="c" d="M233.12,125.53h0s13.66,.91,10.15-14.43c-14.3,.01-10.15,14.43-10.15,14.43Z"/><path class="d" d="M233.6,124.37s1.81-1.78,3.94-4.37c2.12-2.59,4.56-5.97,5.82-9.19l-.21-.08c-1.24,3.18-3.67,6.56-5.78,9.14-1.06,1.29-2.04,2.38-2.76,3.14-.36,.38-.65,.69-.85,.89-.2,.21-.31,.32-.31,.32l.16,.15h0Z"/><polygon class="d" points="234.48 120.79 236.83 120.66 237.03 123.51 237.25 123.49 237.04 120.44 234.47 120.58 234.48 120.79 234.48 120.79"/><polygon class="d" points="236.17 118.67 238.42 118.54 238.88 121.1 239.1 121.07 238.6 118.32 236.16 118.45 236.17 118.67 236.17 118.67"/><polygon class="d" points="237.78 116.78 240.03 116.66 240.49 119.22 240.71 119.18 240.21 116.43 237.77 116.57 237.78 116.78 237.78 116.78"/><polygon class="d" points="239.35 114.34 241.59 114.21 242.06 116.77 242.28 116.74 241.78 113.99 239.33 114.12 239.35 114.34 239.35 114.34"/></g><g><path class="c" d="M265.55,156.49h0s9.16-9.41-4.22-16.39c-8.89,10.45,4.22,16.39,4.22,16.39Z"/><path class="d" d="M264.99,155.42s-.17-2.43-.74-5.59c-.57-3.16-1.52-7.05-3.09-9.97l-.19,.1c1.55,2.88,2.51,6.76,3.07,9.9,.28,1.57,.47,2.97,.58,3.97,.06,.5,.1,.9,.12,1.18,.02,.28,.04,.43,.04,.43l.21-.02h0Z"/><polygon class="d" points="262.94 152.55 264.3 150.76 266.5 152.38 266.63 152.21 264.26 150.46 262.77 152.43 262.94 152.55 262.94 152.55"/><polygon class="d" points="262.44 149.99 263.74 148.28 265.9 149.53 266.01 149.35 263.69 148 262.27 149.87 262.44 149.99 262.44 149.99"/><polygon class="d" points="262.06 147.65 263.37 145.93 265.53 147.19 265.64 147 263.32 145.65 261.89 147.52 262.06 147.65 262.06 147.65"/><polygon class="d" points="261.25 144.98 262.56 143.27 264.72 144.52 264.83 144.34 262.51 142.99 261.08 144.86 261.25 144.98 261.25 144.98"/></g><g><path class="c" d="M237.66,153.75h0s13.43,5.48,15.03-11.12c-14.38-4.77-15.03,11.12-15.03,11.12Z"/><path class="d" d="M238.53,152.74s2.42-1.19,5.42-3.07c3-1.89,6.58-4.48,8.92-7.3l-.18-.15c-2.31,2.79-5.88,5.37-8.87,7.25-1.49,.94-2.85,1.71-3.82,2.24-.49,.27-.88,.47-1.16,.61-.27,.14-.42,.21-.42,.21l.11,.21h0Z"/><polygon class="d" points="240.62 149.44 243.02 150.09 242.27 153.02 242.49 153.08 243.3 149.93 240.67 149.22 240.62 149.44 240.62 149.44"/><polygon class="d" points="243.02 147.87 245.32 148.49 244.93 151.22 245.17 151.26 245.59 148.33 243.08 147.65 243.02 147.87 243.02 147.87"/><polygon class="d" points="245.27 146.51 247.57 147.14 247.18 149.87 247.41 149.9 247.83 146.97 245.33 146.29 245.27 146.51 245.27 146.51"/><polygon class="d" points="247.66 144.58 249.96 145.2 249.57 147.93 249.81 147.97 250.22 145.03 247.72 144.35 247.66 144.58 247.66 144.58"/></g><g><path class="c" d="M292.56,177.5h0s-1.82-13.38-15.95-6.96c2.84,13.82,15.95,6.96,15.95,6.96Z"/><path class="d" d="M291.34,177.27s-2.08-1.4-5-2.94c-2.92-1.54-6.67-3.23-10.03-3.8l-.04,.22c3.32,.57,7.06,2.25,9.97,3.78,1.45,.77,2.7,1.5,3.58,2.04,.44,.27,.79,.49,1.03,.65,.24,.15,.37,.24,.37,.24l.12-.18h0Z"/><polygon class="d" points="287.71 177.12 287.12 174.88 289.83 174.13 289.78 173.91 286.86 174.72 287.51 177.18 287.71 177.12 287.71 177.12"/><polygon class="d" points="285.33 175.91 284.76 173.76 287.14 172.81 287.07 172.6 284.51 173.63 285.12 175.96 285.33 175.91 285.33 175.91"/><polygon class="d" points="283.19 174.73 282.62 172.58 285.01 171.63 284.93 171.42 282.37 172.45 282.98 174.78 283.19 174.73 283.19 174.73"/><polygon class="d" points="280.52 173.7 279.95 171.55 282.33 170.6 282.26 170.39 279.7 171.42 280.31 173.75 280.52 173.7 280.52 173.7"/></g><g><path class="c" d="M255.01,178.97h0s11.6,7.57,16.11-7.71c-12.63-7.08-16.11,7.71-16.11,7.71Z"/><path class="d" d="M256.01,178.18s2.48-.67,5.64-1.9c3.16-1.23,6.99-3.01,9.69-5.23l-.14-.17c-2.67,2.2-6.49,3.97-9.63,5.2-1.57,.61-2.98,1.09-3.99,1.41-.51,.16-.91,.28-1.19,.36-.28,.08-.43,.12-.43,.12l.06,.21h0Z"/><polygon class="d" points="258.56 175.47 260.69 176.52 259.46 179.12 259.66 179.22 260.99 176.42 258.65 175.27 258.56 175.47 258.56 175.47"/><polygon class="d" points="261.1 174.43 263.15 175.43 262.29 177.92 262.5 178 263.42 175.33 261.2 174.23 261.1 174.43 261.1 174.43"/><polygon class="d" points="263.46 173.56 265.5 174.57 264.64 177.06 264.85 177.13 265.78 174.46 263.55 173.37 263.46 173.56 263.46 173.56"/><polygon class="d" points="266.05 172.18 268.09 173.19 267.23 175.68 267.44 175.75 268.37 173.08 266.14 171.98 266.05 172.18 266.05 172.18"/></g><g><path class="c" d="M232.97,177.91h0s10.75,9.23,17.37-5.65c-11.85-8.87-17.37,5.65-17.37,5.65Z"/><path class="d" d="M234.09,177.24s2.61-.35,5.97-1.17c3.36-.82,7.49-2.11,10.53-4l-.12-.19c-3,1.87-7.11,3.16-10.46,3.98-1.68,.41-3.17,.7-4.23,.89-.53,.09-.96,.16-1.26,.21-.3,.05-.46,.07-.46,.07l.04,.23h0Z"/><polygon class="d" points="237.04 174.83 239.06 176.18 237.46 178.66 237.65 178.79 239.38 176.12 237.16 174.64 237.04 174.83 237.04 174.83"/><polygon class="d" points="239.76 174.12 241.7 175.41 240.49 177.82 240.69 177.93 241.99 175.34 239.88 173.93 239.76 174.12 239.76 174.12"/><polygon class="d" points="242.26 173.56 244.2 174.85 242.99 177.26 243.2 177.37 244.49 174.78 242.38 173.37 242.26 173.56 242.26 173.56"/><polygon class="d" points="245.07 172.51 247.01 173.8 245.81 176.21 246.01 176.31 247.31 173.72 245.2 172.32 245.07 172.51 245.07 172.51"/></g></g></svg>