<?xml version="1.0" encoding="UTF-8"?><svg xmlns="http://www.w3.org/2000/svg" viewBox="0 0 381.5 262"><defs><style>.c{fill:#afa57d;}.d{fill:#777159;}</style></defs><g id="a"><g><path class="c" d="M140.64,88.03v8.2h-13.9v78.26h-9.45V96.23h-13.9v-8.2h37.25Z"/><path class="c" d="M177.2,88.03h9.59v86.46h-9.59v-39.06h-18.63v39.06h-9.59V88.03h9.59v39.2h18.63v-39.2Z"/><path class="c" d="M211.67,133.62v32.67h23.77v8.2h-33.36V88.03h32.39v8.2h-22.79v29.19h18.62v8.2h-18.62Zm23.91-67.55l-13.62,17.65h-8.62l10.84-17.65h11.4Z"/><path class="c" d="M268.52,161.98v-23.63c0-1.85-.28-3.03-.83-3.54-.55-.51-1.71-.76-3.47-.76h-9.45c-7.32,0-10.98-3.66-10.98-10.98v-24.05c0-7.32,3.66-10.98,10.98-10.98h12.23c7.32,0,10.98,3.66,10.98,10.98v13.34h-9.59v-11.82c0-1.85-.26-3.03-.76-3.54-.51-.51-1.69-.76-3.54-.76h-6.39c-1.85,0-3.04,.26-3.54,.76-.51,.51-.76,1.69-.76,3.54v20.99c0,1.76,.25,2.92,.76,3.48,.51,.56,1.69,.83,3.54,.83h9.45c7.32,0,10.98,3.66,10.98,10.98v26.69c0,7.32-3.66,10.98-10.98,10.98h-12.09c-7.32,0-10.98-3.66-10.98-10.98v-13.34h9.59v11.82c0,1.85,.26,3.04,.77,3.54,.51,.51,1.69,.76,3.54,.76h6.25c1.76,0,2.92-.25,3.47-.76,.56-.51,.83-1.69,.83-3.54Z"/></g></g><g id="b"><g><path class="c" d="M143.54,113.03h0s6.79-13.18-9.81-16.17c-6.17,14.21,9.81,16.17,9.81,16.17Z"/><path class="d" d="M142.6,112.07s-.97-2.55-2.59-5.75c-1.62-3.2-3.9-7.05-6.53-9.66l-.17,.17c2.6,2.57,4.87,6.41,6.49,9.6,.81,1.59,1.46,3.03,1.9,4.06,.22,.52,.39,.93,.51,1.22,.12,.29,.18,.45,.18,.45l.22-.09h0Z"/><polygon class="d" points="139.47 109.68 140.35 107.3 143.23 108.3 143.32 108.07 140.22 106.99 139.25 109.61 139.47 109.68 139.47 109.68"/><polygon class="d" points="138.11 107.11 138.96 104.82 141.67 105.44 141.73 105.21 138.81 104.54 137.89 107.03 138.11 107.11 138.11 107.11"/><polygon class="d" points="136.95 104.71 137.8 102.43 140.51 103.05 140.57 102.82 137.65 102.15 136.73 104.64 136.95 104.71 136.95 104.71"/><polygon class="d" points="135.22 102.13 136.07 99.84 138.79 100.46 138.85 100.23 135.92 99.57 135 102.05 135.22 102.13 135.22 102.13"/></g><g><path class="c" d="M110.84,142.97h0s13.72-6.55,1.98-19.5c-13.85,7.79-1.99,19.5-1.99,19.5Z"/><path class="d" d="M110.67,141.58s.79-2.71,1.44-6.37c.65-3.66,1.17-8.27,.64-12.07l-.24,.04c.53,3.76,.02,8.35-.64,12-.33,1.82-.68,3.41-.96,4.54-.14,.57-.26,1.02-.34,1.33-.08,.31-.13,.48-.13,.48l.24,.06h0Z"/><polygon class="d" points="109.58 137.64 111.78 136.24 113.52 138.88 113.73 138.75 111.86 135.9 109.45 137.44 109.58 137.64 109.58 137.64"/><polygon class="d" points="110.06 134.66 112.17 133.32 114.01 135.55 114.21 135.39 112.23 133 109.93 134.46 110.06 134.66 110.06 134.66"/><polygon class="d" points="110.6 131.96 112.7 130.62 114.55 132.85 114.74 132.69 112.76 130.3 110.46 131.76 110.6 131.96 110.6 131.96"/><polygon class="d" points="110.78 128.74 112.89 127.4 114.73 129.63 114.93 129.47 112.95 127.08 110.65 128.54 110.78 128.74 110.78 128.74"/></g><g><path class="c" d="M169.19,113.76h0s6.02-12.55-9.78-15.04c-5.4,13.5,9.78,15.04,9.78,15.04Z"/><path class="d" d="M168.27,112.87s-1-2.39-2.63-5.37c-1.64-2.98-3.91-6.57-6.48-8.97l-.15,.17c2.54,2.37,4.8,5.94,6.43,8.91,.81,1.49,1.47,2.82,1.92,3.79,.23,.48,.4,.87,.52,1.14,.12,.27,.18,.42,.18,.42l.21-.09h0Z"/><polygon class="d" points="165.24 110.68 166 108.42 168.76 109.31 168.83 109.09 165.87 108.14 165.03 110.61 165.24 110.68 165.24 110.68"/><polygon class="d" points="163.87 108.28 164.6 106.11 167.2 106.65 167.25 106.43 164.46 105.85 163.66 108.21 163.87 108.28 163.87 108.28"/><polygon class="d" points="162.7 106.05 163.43 103.88 166.03 104.41 166.07 104.19 163.29 103.62 162.49 105.98 162.7 106.05 162.7 106.05"/><polygon class="d" points="160.99 103.65 161.72 101.48 164.31 102.01 164.36 101.79 161.57 101.22 160.78 103.58 160.99 103.65 160.99 103.65"/></g><g><path class="c" d="M138.8,146.91h0s14.12-1.73,7.56-16.72c-14.6,2.79-7.56,16.72-7.56,16.72Z"/><path class="d" d="M139.06,145.63s1.51-2.17,3.17-5.23c1.67-3.05,3.5-6.99,4.15-10.52l-.23-.04c-.64,3.49-2.47,7.41-4.13,10.45-.83,1.52-1.62,2.82-2.2,3.75-.29,.46-.53,.83-.7,1.08-.17,.25-.26,.38-.26,.38l.19,.13h0Z"/><polygon class="d" points="139.27 141.81 141.64 141.22 142.39 144.08 142.62 144.02 141.81 140.94 139.21 141.59 139.27 141.81 139.27 141.81"/><polygon class="d" points="140.58 139.31 142.85 138.74 143.82 141.27 144.04 141.19 142.99 138.47 140.52 139.09 140.58 139.31 140.58 139.31"/><polygon class="d" points="141.85 137.07 144.12 136.5 145.1 139.03 145.31 138.95 144.27 136.24 141.8 136.85 141.85 137.07 141.85 137.07"/><polygon class="d" points="142.98 134.27 145.25 133.7 146.22 136.23 146.44 136.15 145.39 133.43 142.92 134.05 142.98 134.27 142.98 134.27"/></g><g><path class="c" d="M194.23,144.57h0s8.54-11.48-6.91-17.1c-8.11,12.56,6.91,17.1,6.91,17.1Z"/><path class="d" d="M193.47,143.49s-.54-2.6-1.6-5.94c-1.06-3.33-2.65-7.39-4.77-10.32l-.19,.14c2.09,2.89,3.68,6.94,4.74,10.26,.53,1.66,.93,3.14,1.19,4.2,.13,.53,.23,.96,.3,1.25,.07,.29,.1,.46,.1,.46l.23-.05h0Z"/><polygon class="d" points="190.84 140.69 192.06 138.56 194.66 140 194.78 139.79 191.98 138.24 190.64 140.58 190.84 140.69 190.84 140.69"/><polygon class="d" points="189.93 138 191.1 135.96 193.61 137 193.7 136.79 191 135.67 189.73 137.89 189.93 138 189.93 138"/><polygon class="d" points="189.19 135.52 190.36 133.48 192.87 134.52 192.96 134.31 190.26 133.19 188.99 135.41 189.19 135.52 189.19 135.52"/><polygon class="d" points="187.93 132.76 189.1 130.72 191.61 131.76 191.7 131.55 189.01 130.42 187.74 132.65 187.93 132.76 187.93 132.76"/></g><g><path class="c" d="M244.17,106.06h0s4.7-13.1-11.99-14.47c-3.94,14.02,11.99,14.47,11.99,14.47Z"/><path class="d" d="M243.11,105.23s-1.33-2.34-3.39-5.23c-2.06-2.89-4.86-6.34-7.82-8.58l-.14,.18c2.92,2.21,5.71,5.65,7.77,8.53,1.03,1.44,1.87,2.74,2.46,3.69,.29,.47,.52,.85,.68,1.11,.16,.26,.24,.41,.24,.41l.2-.11h0Z"/><polygon class="d" points="239.7 103.24 240.21 100.9 243.18 101.6 243.23 101.38 240.03 100.63 239.47 103.19 239.7 103.24 239.7 103.24"/><polygon class="d" points="237.98 100.92 238.48 98.68 241.23 99.03 241.25 98.8 238.29 98.43 237.76 100.87 237.98 100.92 237.98 100.92"/><polygon class="d" points="236.5 98.76 236.99 96.51 239.74 96.86 239.77 96.64 236.81 96.26 236.27 98.7 236.5 98.76 236.5 98.76"/><polygon class="d" points="234.42 96.46 234.92 94.21 237.67 94.56 237.69 94.34 234.73 93.96 234.2 96.4 234.42 96.46 234.42 96.46"/></g><g><path class="c" d="M168.29,161.22h0s13.42-.22,8.74-14.93c-13.97,1.17-8.75,14.93-8.75,14.93Z"/><path class="d" d="M168.66,160.04s1.63-1.89,3.49-4.59c1.87-2.7,3.97-6.21,4.94-9.46l-.21-.06c-.95,3.21-3.05,6.71-4.91,9.4-.93,1.34-1.8,2.49-2.44,3.29-.32,.4-.58,.72-.76,.94-.18,.22-.28,.33-.28,.34l.17,.14h0Z"/><polygon class="d" points="169.23 156.48 171.52 156.16 171.94 158.92 172.16 158.89 171.7 155.92 169.2 156.27 169.23 156.48 169.23 156.48"/><polygon class="d" points="170.71 154.26 172.9 153.96 173.56 156.42 173.77 156.37 173.06 153.72 170.68 154.05 170.71 154.26 170.71 154.26"/><polygon class="d" points="172.13 152.29 174.32 151.99 174.98 154.45 175.19 154.4 174.48 151.75 172.1 152.08 172.13 152.29 172.13 152.29"/><polygon class="d" points="173.46 149.77 175.65 149.47 176.31 151.94 176.52 151.88 175.81 149.23 173.43 149.56 173.46 149.77 173.46 149.77"/></g><g><path class="c" d="M134.14,168.66h0s9.03-12.59-7.81-18.38c-8.54,13.75,7.81,18.38,7.81,18.38Z"/><path class="d" d="M133.3,167.51s-.63-2.81-1.84-6.4c-1.22-3.59-3.01-7.96-5.36-11.09l-.2,.15c2.32,3.09,4.12,7.44,5.33,11.02,.61,1.79,1.06,3.38,1.37,4.53,.15,.57,.27,1.03,.35,1.35,.08,.32,.12,.49,.12,.49l.24-.06h0Z"/><polygon class="d" points="130.4 164.52 131.68 162.19 134.53 163.7 134.65 163.48 131.58 161.85 130.18 164.41 130.4 164.52 130.4 164.52"/><polygon class="d" points="129.36 161.63 130.59 159.39 133.33 160.48 133.42 160.24 130.48 159.08 129.15 161.51 129.36 161.63 129.36 161.63"/><polygon class="d" points="128.51 158.95 129.74 156.72 132.48 157.8 132.57 157.57 129.63 156.41 128.3 158.84 128.51 158.95 128.51 158.95"/><polygon class="d" points="127.1 155.99 128.32 153.75 131.06 154.84 131.16 154.61 128.21 153.44 126.88 155.87 127.1 155.99 127.1 155.99"/></g><g><path class="c" d="M193.61,115.24h0s15.08,.77,10.96-16.09c-15.78,.25-10.96,16.09-10.96,16.09Z"/><path class="d" d="M194.12,113.95s1.97-2,4.27-4.88c2.3-2.89,4.93-6.66,6.26-10.24l-.23-.08c-1.31,3.53-3.93,7.3-6.23,10.17-1.15,1.44-2.21,2.66-2.99,3.51-.39,.43-.71,.77-.93,1-.22,.23-.34,.35-.34,.35l.18,.17h0Z"/><polygon class="d" points="195.04 109.99 197.62 109.81 197.89 112.94 198.13 112.93 197.85 109.55 195.02 109.75 195.04 109.99 195.04 109.99"/><polygon class="d" points="196.86 107.62 199.34 107.45 199.9 110.26 200.14 110.22 199.54 107.19 196.84 107.38 196.86 107.62 196.86 107.62"/><polygon class="d" points="198.61 105.51 201.08 105.34 201.64 108.16 201.88 108.11 201.28 105.08 198.59 105.27 198.61 105.51 198.61 105.51"/><polygon class="d" points="200.29 102.79 202.77 102.62 203.32 105.43 203.57 105.39 202.97 102.36 200.27 102.55 200.29 102.79 200.29 102.79"/></g><g><path class="c" d="M223.45,125.73h0s3.38-13.21-12.28-12.58c-2.6,14.01,12.28,12.58,12.28,12.58Z"/><path class="d" d="M222.4,125.05s-1.42-2.1-3.56-4.66c-2.14-2.55-5.01-5.56-7.94-7.38l-.12,.19c2.89,1.79,5.76,4.79,7.89,7.33,1.07,1.27,1.95,2.43,2.57,3.27,.31,.42,.55,.76,.72,1,.17,.24,.25,.37,.25,.37l.18-.13h0Z"/><polygon class="d" points="219.06 123.53 219.36 121.21 222.18 121.53 222.21 121.31 219.18 120.96 218.85 123.5 219.06 123.53 219.06 123.53"/><polygon class="d" points="217.29 121.49 217.58 119.26 220.17 119.28 220.18 119.05 217.39 119.04 217.07 121.46 217.29 121.49 217.29 121.49"/><polygon class="d" points="215.74 119.57 216.03 117.34 218.62 117.36 218.62 117.13 215.84 117.12 215.52 119.54 215.74 119.57 215.74 119.57"/><polygon class="d" points="213.63 117.58 213.92 115.36 216.51 115.38 216.52 115.15 213.73 115.14 213.41 117.56 213.63 117.59 213.63 117.58"/></g><g><path class="c" d="M198.05,156.3h0s10.2-1.6,5.07-12.3c-10.52,2.38-5.07,12.3-5.07,12.3Z"/><path class="d" d="M198.2,155.36s1.04-1.61,2.17-3.87c1.13-2.25,2.37-5.15,2.75-7.73l-.17-.02c-.38,2.55-1.61,5.43-2.74,7.68-.57,1.12-1.11,2.09-1.51,2.77-.2,.34-.36,.61-.48,.8-.11,.19-.18,.29-.18,.29l.14,.09h0Z"/><polygon class="d" points="198.26 152.59 199.97 152.1 200.58 154.16 200.74 154.12 200.08 151.9 198.21 152.43 198.26 152.59 198.26 152.59"/><polygon class="d" points="199.15 150.75 200.78 150.28 201.55 152.09 201.7 152.02 200.88 150.08 199.1 150.59 199.15 150.75 199.15 150.75"/><polygon class="d" points="200.02 149.09 201.65 148.63 202.42 150.43 202.57 150.37 201.75 148.43 199.97 148.93 200.02 149.09 200.02 149.09"/><polygon class="d" points="200.77 147.03 202.4 146.57 203.17 148.38 203.32 148.31 202.5 146.37 200.72 146.88 200.77 147.03 200.77 147.03"/></g><g><path class="c" d="M237.32,146.67h0s-1.39-10.23-12.2-5.32c2.17,10.56,12.2,5.32,12.2,5.32Z"/><path class="d" d="M236.38,146.5s-1.59-1.07-3.82-2.25c-2.23-1.18-5.1-2.47-7.67-2.91l-.03,.17c2.54,.43,5.4,1.72,7.62,2.89,1.11,.59,2.06,1.15,2.74,1.56,.34,.21,.6,.38,.79,.5,.18,.12,.28,.18,.28,.18l.09-.14h0Z"/><polygon class="d" points="233.61 146.38 233.16 144.67 235.23 144.09 235.19 143.93 232.96 144.55 233.45 146.43 233.61 146.38 233.61 146.38"/><polygon class="d" points="231.79 145.46 231.35 143.81 233.18 143.08 233.12 142.93 231.16 143.71 231.63 145.5 231.79 145.46 231.79 145.46"/><polygon class="d" points="230.15 144.55 229.72 142.91 231.54 142.18 231.48 142.02 229.52 142.81 229.99 144.6 230.15 144.55 230.15 144.55"/><polygon class="d" points="228.11 143.76 227.68 142.12 229.5 141.39 229.44 141.24 227.48 142.02 227.95 143.81 228.11 143.76 228.11 143.76"/></g><g><path class="c" d="M290.43,104.52h0s.34-14.18-15.38-9.87c.64,14.8,15.38,9.87,15.38,9.87Z"/><path class="d" d="M289.2,104.07s-1.92-1.8-4.69-3.89c-2.77-2.09-6.38-4.46-9.77-5.62l-.07,.22c3.35,1.14,6.95,3.51,9.71,5.59,1.38,1.04,2.55,2.01,3.37,2.72,.41,.35,.74,.64,.96,.84,.22,.2,.34,.31,.34,.31l.15-.17h0Z"/><polygon class="d" points="285.47 103.31 285.23 100.89 288.16 100.56 288.14 100.33 284.98 100.69 285.24 103.34 285.47 103.31 285.47 103.31"/><polygon class="d" points="283.19 101.66 282.97 99.34 285.6 98.75 285.55 98.52 282.72 99.16 282.97 101.68 283.19 101.66 283.19 101.66"/><polygon class="d" points="281.17 100.08 280.94 97.76 283.57 97.17 283.53 96.94 280.7 97.58 280.95 100.1 281.17 100.08 281.17 100.08"/><polygon class="d" points="278.57 98.56 278.35 96.24 280.98 95.65 280.93 95.43 278.1 96.06 278.35 98.59 278.57 98.56 278.57 98.56"/></g><g><path class="c" d="M246.15,86.88h0s2.68-13.43-12.99-11.95c-1.85,14.18,12.99,11.95,12.99,11.95Z"/><path class="d" d="M245.06,86.25s-1.53-2.03-3.82-4.47c-2.29-2.44-5.32-5.3-8.36-6.97l-.11,.2c3,1.64,6.03,4.49,8.3,6.92,1.14,1.22,2.09,2.33,2.76,3.14,.33,.41,.59,.73,.77,.96,.18,.23,.27,.35,.27,.35l.17-.14h0Z"/><polygon class="d" points="241.64 84.91 241.82 82.57 244.66 82.74 244.67 82.52 241.62 82.33 241.42 84.9 241.64 84.91 241.64 84.91"/><polygon class="d" points="239.75 82.96 239.92 80.71 242.52 80.59 242.51 80.37 239.72 80.5 239.53 82.94 239.75 82.96 239.75 82.96"/><polygon class="d" points="238.09 81.12 238.26 78.87 240.86 78.75 240.85 78.52 238.06 78.66 237.87 81.1 238.09 81.12 238.09 81.12"/><polygon class="d" points="235.87 79.25 236.04 77 238.64 76.88 238.63 76.65 235.84 76.79 235.65 79.23 235.87 79.25 235.87 79.25"/></g><g><path class="c" d="M267.86,122.44h0s-1.77-13.01-15.51-6.77c2.76,13.44,15.51,6.77,15.51,6.77Z"/><path class="d" d="M266.68,122.22s-2.02-1.36-4.86-2.86c-2.84-1.5-6.49-3.14-9.76-3.7l-.03,.21c3.23,.55,6.87,2.18,9.69,3.68,1.41,.75,2.62,1.46,3.48,1.99,.43,.26,.77,.48,1,.63,.23,.15,.36,.23,.36,.23l.11-.18h0Z"/><polygon class="d" points="263.15 122.07 262.58 119.89 265.21 119.16 265.16 118.96 262.32 119.74 262.95 122.13 263.15 122.07 263.15 122.07"/><polygon class="d" points="260.83 120.89 260.28 118.81 262.6 117.88 262.52 117.68 260.03 118.68 260.63 120.95 260.83 120.89 260.83 120.89"/><polygon class="d" points="258.75 119.75 258.2 117.66 260.52 116.73 260.44 116.53 257.95 117.53 258.55 119.8 258.75 119.75 258.75 119.75"/><polygon class="d" points="256.15 118.74 255.6 116.66 257.92 115.73 257.84 115.53 255.35 116.53 255.95 118.8 256.15 118.74 256.15 118.74"/></g><g><path class="c" d="M235.62,139.92h0s13.43,5.48,15.03-11.12c-14.38-4.77-15.03,11.12-15.03,11.12Z"/><path class="d" d="M236.49,138.91s2.42-1.19,5.42-3.07c3-1.89,6.58-4.48,8.92-7.3l-.18-.15c-2.31,2.79-5.88,5.37-8.87,7.25-1.49,.94-2.85,1.71-3.82,2.24-.49,.27-.88,.47-1.16,.61-.27,.14-.42,.21-.42,.21l.11,.21h0Z"/><polygon class="d" points="238.57 135.62 240.98 136.27 240.22 139.19 240.45 139.26 241.26 136.11 238.63 135.39 238.57 135.62 238.57 135.62"/><polygon class="d" points="240.98 134.04 243.28 134.67 242.89 137.4 243.13 137.44 243.54 134.5 241.04 133.82 240.98 134.04 240.98 134.04"/><polygon class="d" points="243.23 132.69 245.53 133.31 245.14 136.04 245.37 136.08 245.79 133.15 243.29 132.46 243.23 132.69 243.23 132.69"/><polygon class="d" points="245.62 130.75 247.92 131.38 247.53 134.11 247.76 134.15 248.18 131.21 245.68 130.53 245.62 130.75 245.62 130.75"/></g><g><path class="c" d="M291.42,149h0s-1.82-13.38-15.95-6.96c2.84,13.82,15.95,6.96,15.95,6.96Z"/><path class="d" d="M290.2,148.77s-2.08-1.4-5-2.94c-2.92-1.54-6.67-3.23-10.03-3.8l-.04,.22c3.32,.57,7.06,2.25,9.97,3.78,1.45,.77,2.7,1.5,3.58,2.04,.44,.27,.79,.49,1.03,.65,.24,.15,.37,.24,.37,.24l.12-.18h0Z"/><polygon class="d" points="286.58 148.62 285.99 146.38 288.69 145.63 288.64 145.41 285.73 146.22 286.37 148.68 286.58 148.62 286.58 148.62"/><polygon class="d" points="284.19 147.41 283.63 145.26 286.01 144.31 285.93 144.1 283.37 145.13 283.98 147.46 284.19 147.41 284.19 147.41"/><polygon class="d" points="282.05 146.22 281.49 144.08 283.87 143.12 283.79 142.92 281.23 143.94 281.84 146.28 282.05 146.22 282.05 146.22"/><polygon class="d" points="279.38 145.19 278.81 143.05 281.2 142.09 281.12 141.89 278.56 142.92 279.17 145.25 279.38 145.19 279.38 145.19"/></g><g><path class="c" d="M255.5,160.3h0s11.6,7.57,16.11-7.71c-12.63-7.08-16.11,7.71-16.11,7.71Z"/><path class="d" d="M256.5,159.51s2.48-.67,5.64-1.9c3.16-1.23,6.99-3.01,9.69-5.23l-.14-.17c-2.67,2.2-6.49,3.97-9.63,5.2-1.57,.61-2.98,1.09-3.99,1.41-.51,.16-.91,.28-1.19,.36-.28,.08-.43,.12-.43,.12l.06,.21h0Z"/><polygon class="d" points="259.05 156.79 261.18 157.84 259.95 160.45 260.15 160.55 261.48 157.74 259.14 156.59 259.05 156.79 259.05 156.79"/><polygon class="d" points="261.59 155.75 263.64 156.76 262.78 159.25 262.99 159.33 263.91 156.65 261.69 155.56 261.59 155.75 261.59 155.75"/><polygon class="d" points="263.95 154.89 265.99 155.89 265.13 158.38 265.34 158.46 266.27 155.78 264.04 154.69 263.95 154.89 263.95 154.89"/><polygon class="d" points="266.54 153.51 268.58 154.51 267.72 157 267.93 157.08 268.86 154.4 266.63 153.31 266.54 153.51 266.54 153.51"/></g><g><path class="c" d="M241.14,172.46h0s12.41-6.84,.77-18.25c-12.45,8-.78,18.25-.78,18.25Z"/><path class="d" d="M240.91,171.18s.58-2.57,.99-6.01c.41-3.44,.64-7.75-.07-11.26l-.23,.05c.7,3.47,.47,7.76,.07,11.19-.2,1.71-.45,3.21-.65,4.28-.1,.53-.18,.96-.24,1.25-.06,.29-.1,.45-.1,.45l.22,.05h0Z"/><polygon class="d" points="239.68 167.57 241.66 166.15 243.42 168.51 243.6 168.38 241.71 165.83 239.55 167.39 239.68 167.57 239.68 167.57"/><polygon class="d" points="239.97 164.78 241.86 163.41 243.69 165.38 243.86 165.23 241.89 163.11 239.83 164.6 239.97 164.78 239.97 164.78"/><polygon class="d" points="240.32 162.24 242.2 160.87 244.04 162.84 244.21 162.69 242.24 160.57 240.18 162.05 240.32 162.24 240.32 162.24"/><polygon class="d" points="240.31 159.23 242.2 157.87 244.04 159.84 244.21 159.69 242.24 157.57 240.18 159.05 240.31 159.23 240.31 159.23"/></g></g></svg>