<?xml version="1.0" encoding="UTF-8"?><svg xmlns="http://www.w3.org/2000/svg" viewBox="0 0 254.67 262"><defs><style>.c,.d{fill:#afa57d;}.d{font-family:Teko-Light, Teko;font-size:139px;}.e{fill:#777159;}</style></defs><g id="a"><text class="d" transform="translate(32.68 174.44)"><tspan x="0" y="0">BLOG</tspan></text></g><g id="b"><g><path class="c" d="M120.26,136.85h0s13.05-1.23,7.11-13.45c-13.5,2.09-7.11,13.45-7.11,13.45Z"/><path class="e" d="M120.51,135.82s1.41-1.74,2.97-4.2c1.56-2.45,3.28-5.62,3.92-8.47l-.21-.04c-.62,2.82-2.34,5.98-3.89,8.42-.78,1.22-1.52,2.27-2.06,3.01-.27,.37-.5,.66-.65,.86-.16,.2-.24,.31-.24,.31l.18,.1h0Z"/><polygon class="e" points="120.73 132.73 122.92 132.28 123.6 134.61 123.81 134.57 123.08 132.06 120.68 132.55 120.73 132.73 120.73 132.73"/><polygon class="e" points="121.96 130.72 124.06 130.29 124.94 132.35 125.14 132.29 124.2 130.07 121.91 130.54 121.96 130.72 121.96 130.72"/><polygon class="e" points="123.16 128.92 125.26 128.49 126.13 130.55 126.34 130.49 125.39 128.28 123.11 128.74 123.16 128.92 123.16 128.92"/><polygon class="e" points="124.22 126.67 126.32 126.24 127.19 128.29 127.39 128.23 126.45 126.02 124.16 126.49 124.22 126.67 124.22 126.67"/></g><g><path class="c" d="M63.74,156.05h0s3.65-13.45-13.04-13.44c-2.82,14.3,13.03,13.44,13.03,13.44Z"/><path class="e" d="M62.62,155.31s-1.5-2.22-3.77-4.93c-2.27-2.71-5.32-5.92-8.43-7.91l-.12,.19c3.07,1.96,6.11,5.16,8.38,7.86,1.13,1.35,2.07,2.58,2.73,3.47,.33,.45,.59,.81,.76,1.06,.18,.25,.27,.39,.27,.39l.19-.12h0Z"/><polygon class="e" points="59.07 153.61 59.4 151.23 62.4 151.68 62.43 151.46 59.2 150.97 58.84 153.57 59.07 153.61 59.07 153.61"/><polygon class="e" points="57.19 151.43 57.5 149.16 60.26 149.28 60.27 149.05 57.3 148.92 56.96 151.4 57.19 151.43 57.19 151.43"/><polygon class="e" points="55.54 149.4 55.86 147.12 58.62 147.24 58.62 147.02 55.66 146.89 55.31 149.36 55.54 149.4 55.54 149.4"/><polygon class="e" points="53.3 147.28 53.62 145 56.38 145.12 56.39 144.89 53.42 144.77 53.07 147.24 53.3 147.28 53.3 147.28"/></g><g><path class="c" d="M110.15,125.33h0s8.99-10.64-6.14-17.69c-8.6,11.77,6.13,17.69,6.13,17.69Z"/><path class="e" d="M109.45,124.19s-.42-2.65-1.33-6.07c-.91-3.42-2.32-7.62-4.3-10.73l-.19,.12c1.96,3.08,3.36,7.26,4.27,10.67,.46,1.7,.79,3.22,1.01,4.3,.11,.54,.19,.98,.24,1.28,.05,.3,.08,.46,.08,.46l.23-.03h0Z"/><polygon class="e" points="106.95 121.15 108.26 119.13 110.79 120.81 110.91 120.62 108.19 118.81 106.76 121.02 106.95 121.15 106.95 121.15"/><polygon class="e" points="106.17 118.38 107.41 116.45 109.87 117.73 109.97 117.53 107.33 116.16 105.97 118.25 106.17 118.38 106.17 118.38"/><polygon class="e" points="105.54 115.84 106.78 113.91 109.23 115.19 109.34 114.98 106.7 113.61 105.34 115.71 105.54 115.84 105.54 115.84"/><polygon class="e" points="104.4 112.97 105.65 111.04 108.1 112.32 108.21 112.12 105.57 110.74 104.21 112.84 104.4 112.97 104.4 112.97"/></g><g><path class="c" d="M84.49,130.01h0s8.12-11.32-7.52-17.14c-7.64,12.41,7.52,17.14,7.52,17.14Z"/><path class="e" d="M83.7,128.93s-.63-2.6-1.81-5.94c-1.18-3.34-2.91-7.41-5.13-10.36l-.18,.14c2.19,2.91,3.92,6.97,5.1,10.29,.59,1.66,1.04,3.14,1.34,4.21,.15,.53,.27,.96,.34,1.25,.08,.29,.12,.46,.12,.46l.22-.05h0Z"/><polygon class="e" points="80.97 126.1 82.11 123.99 84.76 125.46 84.87 125.26 82.01 123.68 80.76 125.99 80.97 126.1 80.97 126.1"/><polygon class="e" points="79.96 123.4 81.05 121.38 83.6 122.46 83.68 122.25 80.95 121.09 79.76 123.29 79.96 123.4 79.96 123.4"/><polygon class="e" points="79.13 120.92 80.22 118.9 82.77 119.98 82.85 119.77 80.12 118.61 78.93 120.81 79.13 120.92 79.13 120.92"/><polygon class="e" points="77.78 118.15 78.87 116.13 81.41 117.21 81.5 117 78.76 115.84 77.58 118.04 77.78 118.15 77.78 118.15"/></g><g><path class="c" d="M28.25,120.32h0s9.62,10.08,18.24-4.2c-10.77-9.81-18.24,4.2-18.24,4.2Z"/><path class="e" d="M29.46,119.75s2.68-.13,6.17-.68c3.5-.54,7.82-1.49,11.13-3.12l-.1-.2c-3.27,1.61-7.58,2.56-11.06,3.1-1.74,.27-3.28,.44-4.38,.54-.55,.05-.99,.08-1.3,.11-.3,.02-.47,.03-.47,.03v.23h0Z"/><polygon class="e" points="32.75 117.59 34.61 119.1 32.67 121.43 32.85 121.58 34.93 119.06 32.9 117.41 32.75 117.59 32.75 117.59"/><polygon class="e" points="35.58 117.1 37.36 118.55 35.83 120.85 36.02 120.97 37.67 118.5 35.73 116.93 35.58 117.1 35.58 117.1"/><polygon class="e" points="38.18 116.75 39.96 118.2 38.43 120.5 38.62 120.62 40.26 118.15 38.32 116.57 38.18 116.75 38.18 116.75"/><polygon class="e" points="41.15 115.93 42.93 117.38 41.4 119.68 41.59 119.8 43.24 117.33 41.3 115.75 41.15 115.93 41.15 115.93"/></g><g><path class="c" d="M116.73,155.65h0s-.77-13.49-16.24-8.39c1.8,14.02,16.24,8.39,16.24,8.39Z"/><path class="e" d="M115.47,155.31s-2.08-1.59-5.02-3.39c-2.95-1.8-6.76-3.83-10.26-4.71l-.06,.21c3.46,.87,7.26,2.88,10.2,4.68,1.47,.9,2.72,1.74,3.6,2.36,.44,.31,.79,.56,1.03,.74,.24,.18,.37,.27,.37,.27l.14-.17h0Z"/><polygon class="e" points="111.65 154.83 111.22 152.54 114.15 152.04 114.11 151.82 110.96 152.36 111.43 154.86 111.65 154.83 111.65 154.83"/><polygon class="e" points="109.24 153.4 108.83 151.21 111.42 150.48 111.36 150.27 108.57 151.05 109.01 153.44 109.24 153.4 109.24 153.4"/><polygon class="e" points="107.08 152.03 106.67 149.84 109.27 149.11 109.2 148.89 106.41 149.68 106.86 152.06 107.08 152.03 107.08 152.03"/><polygon class="e" points="104.35 150.76 103.94 148.57 106.54 147.83 106.47 147.62 103.68 148.41 104.12 150.79 104.35 150.76 104.35 150.76"/></g><g><path class="c" d="M145.24,125.49h0s14.74,3.28,13.48-14.04c-15.6-2.38-13.49,14.04-13.49,14.04Z"/><path class="e" d="M145.95,124.3s2.28-1.64,5.03-4.1c2.75-2.46,5.98-5.75,7.88-9.05l-.21-.12c-1.88,3.27-5.1,6.54-7.84,9-1.37,1.23-2.62,2.25-3.53,2.97-.45,.36-.82,.64-1.08,.83-.26,.19-.4,.29-.4,.29l.15,.19h0Z"/><polygon class="e" points="147.52 120.55 150.1 120.81 149.84 123.94 150.08 123.96 150.36 120.59 147.54 120.32 147.52 120.55 147.52 120.55"/><polygon class="e" points="149.71 118.52 152.19 118.76 152.26 121.63 152.51 121.63 152.42 118.54 149.73 118.28 149.71 118.52 149.71 118.52"/><polygon class="e" points="151.78 116.73 154.26 116.97 154.33 119.84 154.58 119.84 154.49 116.75 151.8 116.49 151.78 116.73 151.78 116.73"/><polygon class="e" points="153.9 114.33 156.37 114.57 156.45 117.44 156.69 117.44 156.61 114.35 153.92 114.09 153.9 114.33 153.9 114.33"/></g><g><path class="c" d="M173.76,148.23h0s4.22-12.97-11.46-13.34c-3.49,13.82,11.45,13.34,11.45,13.34Z"/><path class="e" d="M172.75,147.48s-1.28-2.19-3.25-4.87c-1.98-2.69-4.65-5.87-7.45-7.87l-.13,.18c2.77,1.98,5.44,5.15,7.41,7.82,.98,1.34,1.8,2.55,2.36,3.43,.28,.44,.5,.8,.65,1.04,.15,.25,.23,.38,.23,.38l.19-.12h0Z"/><polygon class="e" points="169.52 145.76 169.97 143.46 172.76 143.96 172.8 143.75 169.79 143.2 169.3 145.72 169.52 145.76 169.52 145.76"/><polygon class="e" points="167.88 143.6 168.31 141.4 170.89 141.58 170.91 141.36 168.13 141.17 167.66 143.56 167.88 143.6 167.88 143.6"/><polygon class="e" points="166.45 141.59 166.88 139.39 169.47 139.57 169.49 139.35 166.71 139.15 166.24 141.55 166.45 141.59 166.45 141.59"/><polygon class="e" points="164.47 139.48 164.9 137.28 167.49 137.46 167.51 137.24 164.73 137.04 164.26 139.44 164.47 139.48 164.47 139.48"/></g><g><path class="c" d="M85.62,151.44h0s9.36,4.36,11.07-7.39c-10.06-3.88-11.07,7.39-11.07,7.39Z"/><path class="e" d="M86.28,150.75s1.76-.76,3.96-2c2.2-1.24,4.83-2.96,6.59-4.88l-.13-.11c-1.74,1.9-4.36,3.62-6.55,4.85-1.1,.62-2.08,1.12-2.79,1.46-.36,.17-.64,.31-.84,.4-.2,.09-.31,.14-.31,.14l.07,.15h0Z"/><polygon class="e" points="87.87 148.48 89.56 149.03 88.92 151.08 89.08 151.13 89.76 148.93 87.92 148.33 87.87 148.48 87.87 148.48"/><polygon class="e" points="89.64 147.45 91.25 147.97 90.88 149.9 91.04 149.93 91.44 147.86 89.68 147.29 89.64 147.45 89.64 147.45"/><polygon class="e" points="91.28 146.56 92.89 147.08 92.52 149.01 92.69 149.05 93.09 146.97 91.33 146.4 91.28 146.56 91.28 146.56"/><polygon class="e" points="93.05 145.27 94.66 145.79 94.29 147.72 94.45 147.75 94.85 145.68 93.1 145.11 93.05 145.27 93.05 145.27"/></g><g><path class="c" d="M225.32,151.88h0s-1.39-10.23-12.2-5.32c2.17,10.56,12.2,5.32,12.2,5.32Z"/><path class="e" d="M224.39,151.71s-1.59-1.07-3.82-2.25c-2.23-1.18-5.1-2.47-7.67-2.91l-.03,.17c2.54,.43,5.4,1.72,7.62,2.89,1.11,.59,2.06,1.15,2.74,1.56,.34,.21,.6,.38,.79,.5,.18,.12,.28,.18,.28,.18l.09-.14h0Z"/><polygon class="e" points="221.62 151.59 221.17 149.88 223.24 149.31 223.19 149.14 220.97 149.76 221.46 151.64 221.62 151.59 221.62 151.59"/><polygon class="e" points="219.79 150.67 219.36 149.03 221.18 148.3 221.12 148.14 219.16 148.92 219.63 150.71 219.79 150.67 219.79 150.67"/><polygon class="e" points="218.15 149.76 217.72 148.12 219.55 147.39 219.49 147.24 217.53 148.02 218 149.81 218.15 149.76 218.15 149.76"/><polygon class="e" points="216.11 148.98 215.68 147.34 217.5 146.61 217.44 146.45 215.48 147.23 215.95 149.02 216.11 148.98 216.11 148.98"/></g><g><path class="c" d="M195.92,160.82h0s13.54-2.01,6.85-16.26c-13.97,3.05-6.86,16.26-6.86,16.26Z"/><path class="e" d="M196.14,159.59s1.39-2.13,2.92-5.1c1.53-2.98,3.19-6.8,3.73-10.22l-.22-.03c-.53,3.37-2.19,7.19-3.71,10.15-.76,1.48-1.49,2.75-2.03,3.66-.27,.45-.49,.81-.64,1.05-.15,.24-.24,.38-.24,.38l.19,.12h0Z"/><polygon class="e" points="196.25 155.91 198.51 155.28 199.31 158.02 199.52 157.96 198.67 155.02 196.19 155.7 196.25 155.91 196.25 155.91"/><polygon class="e" points="197.45 153.47 199.62 152.87 200.61 155.28 200.82 155.2 199.75 152.61 197.39 153.26 197.45 153.47 197.45 153.47"/><polygon class="e" points="198.62 151.29 200.79 150.69 201.79 153.09 201.99 153.01 200.92 150.43 198.56 151.08 198.62 151.29 198.62 151.29"/><polygon class="e" points="199.63 148.57 201.8 147.97 202.8 150.37 203 150.29 201.93 147.71 199.57 148.36 199.63 148.57 199.63 148.57"/></g><g><path class="c" d="M199.48,123.89h0s4.35-12.39-10.72-13.09c-3.67,13.21,10.72,13.09,10.72,13.09Z"/><path class="e" d="M198.52,123.15s-1.18-2.14-3.02-4.76c-1.84-2.63-4.34-5.75-6.99-7.74l-.13,.17c2.62,1.96,5.12,5.08,6.95,7.7,.92,1.31,1.67,2.5,2.19,3.36,.26,.43,.47,.78,.6,1.02,.14,.24,.21,.37,.21,.37l.18-.11h0Z"/><polygon class="e" points="195.45 121.41 195.94 119.21 198.61 119.76 198.66 119.55 195.78 118.96 195.25 121.37 195.45 121.41 195.45 121.41"/><polygon class="e" points="193.92 119.31 194.39 117.2 196.87 117.43 196.9 117.22 194.22 116.97 193.72 119.26 193.92 119.31 193.92 119.31"/><polygon class="e" points="192.6 117.33 193.06 115.23 195.54 115.46 195.57 115.25 192.9 115 192.39 117.29 192.6 117.33 192.6 117.33"/><polygon class="e" points="190.74 115.26 191.2 113.15 193.69 113.38 193.71 113.17 191.04 112.92 190.54 115.22 190.74 115.26 190.74 115.26"/></g><g><path class="c" d="M151.09,165.02h0s5.38-13.47-11.23-14.95c-4.67,14.41,11.22,14.95,11.22,14.95Z"/><path class="e" d="M150.08,164.16s-1.2-2.41-3.11-5.4c-1.91-2.99-4.52-6.55-7.36-8.87l-.15,.18c2.8,2.29,5.41,5.84,7.31,8.81,.95,1.49,1.73,2.83,2.27,3.81,.27,.49,.48,.88,.62,1.15,.14,.27,.22,.42,.22,.42l.21-.11h0Z"/><polygon class="e" points="146.77 162.1 147.4 159.7 150.33 160.43 150.39 160.2 147.24 159.41 146.54 162.05 146.77 162.1 146.77 162.1"/><polygon class="e" points="145.18 159.71 145.79 157.4 148.52 157.77 148.55 157.54 145.62 157.14 144.95 159.65 145.18 159.71 145.18 159.71"/><polygon class="e" points="143.8 157.47 144.41 155.17 147.14 155.54 147.18 155.3 144.24 154.9 143.58 157.41 143.8 157.47 143.8 157.47"/><polygon class="e" points="141.85 155.09 142.46 152.79 145.19 153.16 145.23 152.93 142.29 152.53 141.63 155.04 141.85 155.09 141.85 155.09"/></g><g><path class="c" d="M230.33,115.54h0s.15-13.85-15.16-9.45c.81,14.45,15.15,9.45,15.15,9.45Z"/><path class="e" d="M229.12,115.12s-1.9-1.73-4.63-3.74c-2.73-2-6.29-4.28-9.62-5.36l-.07,.21c3.29,1.07,6.83,3.34,9.56,5.33,1.36,1,2.52,1.93,3.33,2.61,.41,.34,.73,.62,.95,.81,.22,.19,.34,.3,.34,.3l.15-.17h0Z"/><polygon class="e" points="225.46 114.43 225.2 112.06 228.06 111.7 228.04 111.48 224.96 111.86 225.25 114.45 225.46 114.43 225.46 114.43"/><polygon class="e" points="223.22 112.84 222.97 110.57 225.53 109.96 225.48 109.74 222.73 110.4 223 112.86 223.22 112.84 223.22 112.84"/><polygon class="e" points="221.23 111.32 220.98 109.05 223.54 108.44 223.49 108.22 220.73 108.88 221.01 111.34 221.23 111.32 221.23 111.32"/><polygon class="e" points="218.67 109.87 218.42 107.61 220.98 107 220.93 106.78 218.18 107.43 218.45 109.9 218.67 109.87 218.67 109.87"/></g></g></svg>