<?xml version="1.0" encoding="UTF-8"?><svg xmlns="http://www.w3.org/2000/svg" viewBox="0 0 254.67 262"><defs><style>.c,.d{fill:#afa57d;}.d{font-family:Teko-Light, Teko;font-size:139px;}.e{fill:#777159;}</style></defs><g id="a"><text class="d" transform="translate(32.68 174.44)"><tspan x="0" y="0">BLOG</tspan></text></g><g id="b"><g><path class="c" d="M121.75,162.58h0s13.05-1.23,7.11-13.45c-13.5,2.09-7.11,13.45-7.11,13.45Z"/><path class="e" d="M122,161.55s1.41-1.74,2.97-4.2c1.56-2.45,3.28-5.62,3.92-8.47l-.21-.04c-.62,2.82-2.34,5.98-3.89,8.42-.78,1.22-1.52,2.27-2.06,3.01-.27,.37-.5,.66-.65,.86-.16,.2-.24,.31-.24,.31l.18,.1h0Z"/><polygon class="e" points="122.22 158.46 124.42 158.01 125.09 160.34 125.3 160.3 124.57 157.79 122.17 158.28 122.22 158.46 122.22 158.46"/><polygon class="e" points="123.45 156.45 125.55 156.02 126.43 158.08 126.63 158.02 125.69 155.8 123.4 156.27 123.45 156.45 123.45 156.45"/><polygon class="e" points="124.65 154.65 126.75 154.22 127.63 156.28 127.83 156.22 126.88 154.01 124.6 154.47 124.65 154.65 124.65 154.65"/><polygon class="e" points="125.71 152.4 127.81 151.97 128.69 154.02 128.89 153.96 127.94 151.75 125.66 152.22 125.71 152.4 125.71 152.4"/></g><g><path class="c" d="M66.9,172.77h0s3.65-13.45-13.04-13.44c-2.82,14.3,13.03,13.44,13.03,13.44Z"/><path class="e" d="M65.78,172.03s-1.5-2.22-3.77-4.93c-2.27-2.71-5.32-5.92-8.43-7.91l-.12,.19c3.07,1.96,6.11,5.16,8.38,7.86,1.13,1.35,2.07,2.58,2.73,3.47,.33,.45,.59,.81,.76,1.06,.18,.25,.27,.39,.27,.39l.19-.12h0Z"/><polygon class="e" points="62.23 170.33 62.56 167.96 65.56 168.41 65.59 168.19 62.36 167.7 62 170.3 62.23 170.33 62.23 170.33"/><polygon class="e" points="60.35 168.16 60.67 165.89 63.43 166.01 63.43 165.78 60.47 165.65 60.12 168.13 60.35 168.16 60.35 168.16"/><polygon class="e" points="58.7 166.12 59.02 163.85 61.78 163.97 61.79 163.74 58.82 163.61 58.48 166.09 58.7 166.12 58.7 166.12"/><polygon class="e" points="56.47 164 56.78 161.73 59.54 161.85 59.55 161.62 56.58 161.49 56.24 163.97 56.47 164 56.47 164"/></g><g><path class="c" d="M112.24,161.17h0s8.99-10.64-6.14-17.69c-8.6,11.77,6.13,17.69,6.13,17.69Z"/><path class="e" d="M111.54,160.02s-.42-2.65-1.33-6.07c-.91-3.42-2.32-7.62-4.3-10.73l-.19,.12c1.96,3.08,3.36,7.26,4.27,10.67,.46,1.7,.79,3.22,1.01,4.3,.11,.54,.19,.98,.24,1.28,.05,.3,.08,.46,.08,.46l.23-.03h0Z"/><polygon class="e" points="109.04 156.98 110.34 154.97 112.87 156.65 112.99 156.46 110.27 154.65 108.85 156.85 109.04 156.98 109.04 156.98"/><polygon class="e" points="108.25 154.22 109.5 152.29 111.95 153.57 112.05 153.36 109.42 151.99 108.06 154.09 108.25 154.22 108.25 154.22"/><polygon class="e" points="107.62 151.68 108.87 149.75 111.32 151.02 111.42 150.82 108.79 149.45 107.43 151.55 107.62 151.68 107.62 151.68"/><polygon class="e" points="106.49 148.81 107.74 146.88 110.19 148.15 110.29 147.95 107.65 146.58 106.3 148.68 106.49 148.81 106.49 148.81"/></g><g><path class="c" d="M82.93,158.84h0s8.12-11.32-7.52-17.14c-7.64,12.41,7.52,17.14,7.52,17.14Z"/><path class="e" d="M82.14,157.75s-.63-2.6-1.81-5.94c-1.18-3.34-2.91-7.41-5.13-10.36l-.18,.14c2.19,2.91,3.92,6.97,5.1,10.29,.59,1.66,1.04,3.14,1.34,4.21,.15,.53,.27,.96,.34,1.25,.08,.29,.12,.46,.12,.46l.22-.05h0Z"/><polygon class="e" points="79.41 154.92 80.55 152.81 83.2 154.28 83.31 154.08 80.45 152.5 79.21 154.81 79.41 154.92 79.41 154.92"/><polygon class="e" points="78.41 152.23 79.5 150.21 82.04 151.28 82.13 151.07 79.39 149.91 78.2 152.11 78.41 152.23 78.41 152.23"/><polygon class="e" points="77.58 149.74 78.67 147.72 81.21 148.8 81.3 148.59 78.56 147.43 77.37 149.63 77.58 149.74 77.58 149.74"/><polygon class="e" points="76.22 146.97 77.31 144.95 79.86 146.03 79.94 145.82 77.21 144.66 76.02 146.86 76.22 146.97 76.22 146.97"/></g><g><path class="c" d="M27.12,157.83h0s9.62,10.08,18.24-4.2c-10.77-9.81-18.24,4.2-18.24,4.2Z"/><path class="e" d="M28.33,157.26s2.68-.13,6.17-.68c3.5-.54,7.82-1.49,11.13-3.12l-.1-.2c-3.27,1.61-7.58,2.56-11.06,3.1-1.74,.27-3.28,.44-4.38,.54-.55,.05-.99,.08-1.3,.11-.3,.02-.47,.03-.47,.03v.23h0Z"/><polygon class="e" points="31.62 155.1 33.48 156.61 31.54 158.95 31.72 159.09 33.8 156.58 31.77 154.92 31.62 155.1 31.62 155.1"/><polygon class="e" points="34.45 154.62 36.23 156.06 34.7 158.36 34.89 158.49 36.54 156.01 34.6 154.44 34.45 154.62 34.45 154.62"/><polygon class="e" points="37.05 154.26 38.83 155.71 37.3 158.01 37.49 158.13 39.14 155.66 37.19 154.08 37.05 154.26 37.05 154.26"/><polygon class="e" points="40.02 153.44 41.8 154.89 40.27 157.19 40.46 157.31 42.11 154.84 40.17 153.27 40.02 153.44 40.02 153.44"/></g><g><path class="c" d="M121.02,172.47h0s-.77-13.49-16.24-8.39c1.8,14.02,16.24,8.39,16.24,8.39Z"/><path class="e" d="M119.76,172.13s-2.08-1.59-5.02-3.39c-2.95-1.8-6.76-3.83-10.26-4.71l-.06,.21c3.46,.87,7.26,2.88,10.2,4.68,1.47,.9,2.72,1.74,3.6,2.36,.44,.31,.79,.56,1.03,.74,.24,.18,.37,.27,.37,.27l.14-.17h0Z"/><polygon class="e" points="115.94 171.65 115.51 169.36 118.44 168.86 118.39 168.64 115.25 169.18 115.72 171.69 115.94 171.65 115.94 171.65"/><polygon class="e" points="113.52 170.22 113.11 168.03 115.71 167.3 115.65 167.09 112.86 167.88 113.3 170.26 113.52 170.22 113.52 170.22"/><polygon class="e" points="111.37 168.85 110.96 166.66 113.56 165.93 113.49 165.72 110.7 166.5 111.14 168.89 111.37 168.85 111.37 168.85"/><polygon class="e" points="108.64 167.58 108.23 165.39 110.82 164.66 110.76 164.45 107.97 165.23 108.41 167.62 108.64 167.58 108.64 167.58"/></g><g><path class="c" d="M146.29,155.92h0s14.74,3.28,13.48-14.04c-15.6-2.38-13.49,14.04-13.49,14.04Z"/><path class="e" d="M147,154.73s2.28-1.64,5.03-4.1c2.75-2.46,5.98-5.75,7.88-9.05l-.21-.12c-1.88,3.27-5.1,6.54-7.84,9-1.37,1.23-2.62,2.25-3.53,2.97-.45,.36-.82,.64-1.08,.83-.26,.19-.4,.29-.4,.29l.15,.19h0Z"/><polygon class="e" points="148.56 150.98 151.14 151.23 150.88 154.36 151.13 154.39 151.41 151.01 148.58 150.74 148.56 150.98 148.56 150.98"/><polygon class="e" points="150.76 148.94 153.23 149.18 153.31 152.05 153.55 152.05 153.47 148.97 150.78 148.7 150.76 148.94 150.76 148.94"/><polygon class="e" points="152.83 147.16 155.3 147.4 155.38 150.27 155.62 150.26 155.54 147.18 152.85 146.92 152.83 147.16 152.83 147.16"/><polygon class="e" points="154.95 144.75 157.42 144.99 157.5 147.86 157.74 147.86 157.66 144.77 154.97 144.51 154.95 144.75 154.95 144.75"/></g><g><path class="c" d="M175.77,176.25h0s4.22-12.97-11.46-13.34c-3.49,13.82,11.45,13.34,11.45,13.34Z"/><path class="e" d="M174.76,175.5s-1.28-2.19-3.25-4.87c-1.98-2.69-4.65-5.87-7.45-7.87l-.13,.18c2.77,1.98,5.44,5.15,7.41,7.82,.98,1.34,1.8,2.55,2.36,3.43,.28,.44,.5,.8,.65,1.04,.15,.25,.23,.38,.23,.38l.19-.12h0Z"/><polygon class="e" points="171.53 173.77 171.98 171.47 174.77 171.98 174.81 171.76 171.81 171.22 171.31 173.73 171.53 173.77 171.53 173.77"/><polygon class="e" points="169.89 171.62 170.32 169.42 172.9 169.6 172.92 169.38 170.14 169.19 169.67 171.58 169.89 171.62 169.89 171.62"/><polygon class="e" points="168.46 169.6 168.89 167.4 171.48 167.58 171.5 167.36 168.72 167.17 168.25 169.57 168.46 169.6 168.46 169.6"/><polygon class="e" points="166.48 167.49 166.91 165.29 169.5 165.47 169.52 165.25 166.74 165.06 166.27 167.46 166.48 167.49 166.48 167.49"/></g><g><path class="c" d="M88.75,172.38h0s9.36,4.36,11.07-7.39c-10.06-3.88-11.07,7.39-11.07,7.39Z"/><path class="e" d="M89.4,171.69s1.76-.76,3.96-2c2.2-1.24,4.83-2.96,6.59-4.88l-.13-.11c-1.74,1.9-4.36,3.62-6.55,4.85-1.1,.62-2.08,1.12-2.79,1.46-.36,.17-.64,.31-.84,.4-.2,.09-.31,.14-.31,.14l.07,.15h0Z"/><polygon class="e" points="90.99 169.42 92.68 169.97 92.05 172.02 92.2 172.07 92.89 169.86 91.04 169.26 90.99 169.42 90.99 169.42"/><polygon class="e" points="92.76 168.38 94.37 168.91 94 170.84 94.17 170.87 94.57 168.8 92.81 168.23 92.76 168.38 92.76 168.38"/><polygon class="e" points="94.41 167.5 96.02 168.02 95.65 169.95 95.81 169.98 96.21 167.91 94.45 167.34 94.41 167.5 94.41 167.5"/><polygon class="e" points="96.17 166.2 97.79 166.73 97.41 168.65 97.58 168.69 97.98 166.62 96.22 166.05 96.17 166.2 96.17 166.2"/></g><g><path class="c" d="M224.08,176.25h0s-1.39-10.23-12.2-5.32c2.17,10.56,12.2,5.32,12.2,5.32Z"/><path class="e" d="M223.15,176.08s-1.59-1.07-3.82-2.25c-2.23-1.18-5.1-2.47-7.67-2.91l-.03,.17c2.54,.43,5.4,1.72,7.62,2.89,1.11,.59,2.06,1.15,2.74,1.56,.34,.21,.6,.38,.79,.5,.18,.12,.28,.18,.28,.18l.09-.14h0Z"/><polygon class="e" points="220.37 175.96 219.92 174.25 221.99 173.67 221.95 173.51 219.72 174.13 220.22 176.01 220.37 175.96 220.37 175.96"/><polygon class="e" points="218.55 175.03 218.12 173.39 219.94 172.66 219.88 172.51 217.92 173.29 218.39 175.08 218.55 175.03 218.55 175.03"/><polygon class="e" points="216.91 174.13 216.48 172.49 218.3 171.76 218.24 171.6 216.29 172.39 216.75 174.17 216.91 174.13 216.91 174.13"/><polygon class="e" points="214.87 173.34 214.44 171.7 216.26 170.97 216.2 170.82 214.24 171.6 214.71 173.39 214.87 173.34 214.87 173.34"/></g><g><path class="c" d="M186.8,174.92h0s9.64,9.72,17.16-4.11c-10.73-9.45-17.16,4.11-17.16,4.11Z"/><path class="e" d="M187.93,174.36s2.54-.14,5.84-.67c3.3-.53,7.37-1.46,10.44-3.05l-.1-.2c-3.03,1.57-7.09,2.5-10.38,3.03-1.65,.27-3.1,.43-4.15,.53-.52,.05-.94,.08-1.23,.11-.29,.02-.45,.03-.45,.03l.02,.22h0Z"/><polygon class="e" points="190.95 172.27 192.8 173.73 191.07 175.99 191.24 176.12 193.11 173.69 191.09 172.1 190.95 172.27 190.95 172.27"/><polygon class="e" points="193.63 171.79 195.4 173.19 194.05 175.41 194.24 175.53 195.68 173.14 193.76 171.62 193.63 171.79 193.63 171.79"/><polygon class="e" points="196.08 171.44 197.85 172.84 196.5 175.06 196.69 175.18 198.14 172.79 196.21 171.27 196.08 171.44 196.08 171.44"/><polygon class="e" points="198.87 170.65 200.64 172.04 199.29 174.27 199.48 174.38 200.93 171.99 199 170.47 198.87 170.65 198.87 170.65"/></g><g><path class="c" d="M197.75,158.26h0s4.35-12.39-10.72-13.09c-3.67,13.21,10.72,13.09,10.72,13.09Z"/><path class="e" d="M196.79,157.52s-1.18-2.14-3.02-4.76c-1.84-2.63-4.34-5.75-6.99-7.74l-.13,.17c2.62,1.96,5.12,5.08,6.95,7.7,.92,1.31,1.67,2.5,2.19,3.36,.26,.43,.47,.78,.6,1.02,.14,.24,.21,.37,.21,.37l.18-.11h0Z"/><polygon class="e" points="193.72 155.78 194.21 153.58 196.88 154.13 196.93 153.92 194.05 153.33 193.52 155.74 193.72 155.78 193.72 155.78"/><polygon class="e" points="192.19 153.68 192.66 151.57 195.14 151.8 195.17 151.59 192.49 151.34 191.99 153.63 192.19 153.68 192.19 153.68"/><polygon class="e" points="190.87 151.7 191.33 149.6 193.82 149.83 193.84 149.62 191.17 149.37 190.66 151.66 190.87 151.7 190.87 151.7"/><polygon class="e" points="189.01 149.63 189.48 147.52 191.96 147.75 191.98 147.54 189.31 147.29 188.81 149.59 189.01 149.63 189.01 149.63"/></g><g><path class="c" d="M155.8,182.14h0s5.38-13.47-11.23-14.95c-4.67,14.41,11.22,14.95,11.22,14.95Z"/><path class="e" d="M154.78,181.28s-1.2-2.41-3.11-5.4c-1.91-2.99-4.52-6.55-7.36-8.87l-.15,.18c2.8,2.29,5.41,5.84,7.31,8.81,.95,1.49,1.73,2.83,2.27,3.81,.27,.49,.48,.88,.62,1.15,.14,.27,.22,.42,.22,.42l.21-.11h0Z"/><polygon class="e" points="151.47 179.22 152.11 176.82 155.04 177.55 155.1 177.32 151.95 176.53 151.25 179.17 151.47 179.23 151.47 179.22"/><polygon class="e" points="149.88 176.83 150.49 174.52 153.23 174.89 153.26 174.66 150.33 174.26 149.66 176.77 149.88 176.83 149.88 176.83"/><polygon class="e" points="148.51 174.59 149.12 172.29 151.85 172.66 151.89 172.42 148.95 172.03 148.29 174.53 148.51 174.59 148.51 174.59"/><polygon class="e" points="146.56 172.21 147.17 169.91 149.9 170.28 149.94 170.05 147 169.65 146.34 172.16 146.56 172.21 146.56 172.21"/></g><g><path class="c" d="M230.36,157.7h0s.15-13.85-15.16-9.45c.81,14.45,15.15,9.45,15.15,9.45Z"/><path class="e" d="M229.15,157.28s-1.9-1.73-4.63-3.74c-2.73-2-6.29-4.28-9.62-5.36l-.07,.21c3.29,1.07,6.83,3.34,9.56,5.33,1.36,1,2.52,1.93,3.33,2.61,.41,.34,.73,.62,.95,.81,.22,.19,.34,.3,.34,.3l.15-.17h0Z"/><polygon class="e" points="225.49 156.59 225.23 154.23 228.09 153.87 228.07 153.64 224.99 154.03 225.28 156.62 225.49 156.59 225.49 156.59"/><polygon class="e" points="223.25 155 223 152.74 225.56 152.13 225.51 151.91 222.76 152.56 223.03 155.03 223.25 155 223.25 155"/><polygon class="e" points="221.26 153.48 221.01 151.22 223.57 150.61 223.52 150.39 220.77 151.04 221.04 153.51 221.26 153.48 221.26 153.48"/><polygon class="e" points="218.7 152.04 218.45 149.77 221.01 149.16 220.96 148.94 218.21 149.6 218.48 152.06 218.7 152.04 218.7 152.04"/></g></g></svg>