<?xml version="1.0" encoding="UTF-8"?><svg xmlns="http://www.w3.org/2000/svg" viewBox="0 0 254.67 262"><defs><style>.c,.d{fill:#afa57d;}.d{font-family:Teko-Light, Teko;font-size:139px;}.e{fill:#777159;}</style></defs><g id="a"><text class="d" transform="translate(32.68 174.44)"><tspan x="0" y="0">BLOG</tspan></text></g><g id="b"><g><path class="c" d="M126.84,124.15h0s13.05-1.23,7.11-13.45c-13.5,2.09-7.11,13.45-7.11,13.45Z"/><path class="e" d="M127.09,123.12s1.41-1.74,2.97-4.2c1.56-2.45,3.28-5.62,3.92-8.47l-.21-.04c-.62,2.82-2.34,5.98-3.89,8.42-.78,1.22-1.52,2.27-2.06,3.01-.27,.37-.5,.66-.65,.86-.16,.2-.24,.31-.24,.31l.18,.1h0Z"/><polygon class="e" points="127.31 120.02 129.51 119.58 130.18 121.9 130.39 121.86 129.66 119.36 127.26 119.85 127.31 120.02 127.31 120.02"/><polygon class="e" points="128.54 118.01 130.64 117.59 131.52 119.64 131.72 119.58 130.78 117.37 128.49 117.84 128.54 118.01 128.54 118.01"/><polygon class="e" points="129.74 116.22 131.84 115.79 132.72 117.84 132.92 117.78 131.98 115.57 129.69 116.04 129.74 116.22 129.74 116.22"/><polygon class="e" points="130.8 113.96 132.9 113.53 133.78 115.59 133.98 115.53 133.03 113.32 130.75 113.78 130.8 113.96 130.8 113.96"/></g><g><path class="c" d="M63.1,146.55h0s3.65-13.45-13.04-13.44c-2.82,14.3,13.03,13.44,13.03,13.44Z"/><path class="e" d="M61.98,145.81s-1.5-2.22-3.77-4.93c-2.27-2.71-5.32-5.92-8.43-7.91l-.12,.19c3.07,1.96,6.11,5.16,8.38,7.86,1.13,1.35,2.07,2.58,2.73,3.47,.33,.45,.59,.81,.76,1.06,.18,.25,.27,.39,.27,.39l.19-.12h0Z"/><polygon class="e" points="58.43 144.11 58.76 141.74 61.77 142.19 61.8 141.97 58.57 141.48 58.21 144.08 58.43 144.11 58.43 144.11"/><polygon class="e" points="56.55 141.94 56.87 139.67 59.63 139.79 59.64 139.56 56.67 139.43 56.32 141.91 56.55 141.94 56.55 141.94"/><polygon class="e" points="54.91 139.9 55.22 137.63 57.98 137.75 57.99 137.52 55.02 137.39 54.68 139.87 54.91 139.9 54.91 139.9"/><polygon class="e" points="52.67 137.78 52.99 135.51 55.75 135.63 55.75 135.4 52.78 135.27 52.44 137.75 52.67 137.78 52.67 137.78"/></g><g><path class="c" d="M108.54,111.53h0s8.99-10.64-6.14-17.69c-8.6,11.77,6.13,17.69,6.13,17.69Z"/><path class="e" d="M107.84,110.38s-.42-2.65-1.33-6.07c-.91-3.42-2.32-7.62-4.3-10.73l-.19,.12c1.96,3.08,3.36,7.26,4.27,10.67,.46,1.7,.79,3.22,1.01,4.3,.11,.54,.19,.98,.24,1.28,.05,.3,.08,.46,.08,.46l.23-.03h0Z"/><polygon class="e" points="105.34 107.34 106.65 105.33 109.18 107.01 109.3 106.82 106.58 105.01 105.15 107.21 105.34 107.34 105.34 107.34"/><polygon class="e" points="104.56 104.58 105.8 102.65 108.26 103.93 108.36 103.72 105.72 102.35 104.36 104.45 104.56 104.58 104.56 104.58"/><polygon class="e" points="103.93 102.03 105.17 100.11 107.62 101.38 107.73 101.18 105.09 99.81 103.73 101.91 103.93 102.03 103.93 102.03"/><polygon class="e" points="102.79 99.17 104.04 97.24 106.49 98.51 106.59 98.31 103.96 96.94 102.6 99.04 102.79 99.17 102.79 99.17"/></g><g><path class="c" d="M83.99,113.7h0s8.12-11.32-7.52-17.14c-7.64,12.41,7.52,17.14,7.52,17.14Z"/><path class="e" d="M83.21,112.62s-.63-2.6-1.81-5.94c-1.18-3.34-2.91-7.41-5.13-10.36l-.18,.14c2.19,2.91,3.92,6.97,5.1,10.29,.59,1.66,1.04,3.14,1.34,4.21,.15,.53,.27,.96,.34,1.25,.08,.29,.12,.46,.12,.46l.22-.05h0Z"/><polygon class="e" points="80.47 109.78 81.61 107.67 84.27 109.15 84.38 108.95 81.52 107.36 80.27 109.67 80.47 109.78 80.47 109.78"/><polygon class="e" points="79.47 107.09 80.56 105.07 83.11 106.15 83.19 105.94 80.46 104.78 79.27 106.98 79.47 107.09 79.47 107.09"/><polygon class="e" points="78.64 104.61 79.73 102.59 82.28 103.66 82.36 103.45 79.63 102.29 78.44 104.49 78.64 104.61 78.64 104.61"/><polygon class="e" points="77.29 101.84 78.38 99.82 80.92 100.89 81.01 100.68 78.27 99.52 77.08 101.72 77.29 101.84 77.29 101.84"/></g><g><path class="c" d="M27.41,109.38h0s9.62,10.08,18.24-4.2c-10.77-9.81-18.24,4.2-18.24,4.2Z"/><path class="e" d="M28.62,108.81s2.68-.13,6.17-.68c3.5-.54,7.82-1.49,11.13-3.12l-.1-.2c-3.27,1.61-7.58,2.56-11.06,3.1-1.74,.27-3.28,.44-4.38,.54-.55,.05-.99,.08-1.3,.11-.3,.02-.47,.03-.47,.03v.23h0Z"/><polygon class="e" points="31.91 106.65 33.77 108.16 31.83 110.5 32.01 110.64 34.1 108.13 32.06 106.47 31.91 106.65 31.91 106.65"/><polygon class="e" points="34.74 106.17 36.53 107.61 34.99 109.91 35.18 110.04 36.83 107.56 34.89 105.99 34.74 106.17 34.74 106.17"/><polygon class="e" points="37.34 105.81 39.12 107.26 37.59 109.56 37.78 109.68 39.43 107.21 37.49 105.63 37.34 105.81 37.34 105.81"/><polygon class="e" points="40.31 104.99 42.09 106.44 40.56 108.74 40.75 108.87 42.4 106.39 40.46 104.82 40.31 104.99 40.31 104.99"/></g><g><path class="c" d="M117.6,138.11h0s-.77-13.49-16.24-8.39c1.8,14.02,16.24,8.39,16.24,8.39Z"/><path class="e" d="M116.34,137.77s-2.08-1.59-5.02-3.39c-2.95-1.8-6.76-3.83-10.26-4.71l-.06,.21c3.46,.87,7.26,2.88,10.2,4.68,1.47,.9,2.72,1.74,3.6,2.36,.44,.31,.79,.56,1.03,.74,.24,.18,.37,.27,.37,.27l.14-.17h0Z"/><polygon class="e" points="112.52 137.29 112.09 135 115.01 134.5 114.97 134.29 111.83 134.82 112.3 137.33 112.52 137.29 112.52 137.29"/><polygon class="e" points="110.1 135.86 109.69 133.67 112.29 132.94 112.23 132.73 109.43 133.52 109.88 135.9 110.1 135.86 110.1 135.86"/><polygon class="e" points="107.95 134.49 107.54 132.3 110.14 131.57 110.07 131.36 107.28 132.14 107.72 134.53 107.95 134.49 107.95 134.49"/><polygon class="e" points="105.22 133.22 104.81 131.03 107.4 130.3 107.34 130.09 104.55 130.87 104.99 133.26 105.22 133.22 105.22 133.22"/></g><g><path class="c" d="M143.73,110.56h0s14.74,3.28,13.48-14.04c-15.6-2.38-13.49,14.04-13.49,14.04Z"/><path class="e" d="M144.44,109.37s2.28-1.64,5.03-4.1c2.75-2.46,5.98-5.75,7.88-9.05l-.21-.12c-1.88,3.27-5.1,6.54-7.84,9-1.37,1.23-2.62,2.25-3.53,2.97-.45,.36-.82,.64-1.08,.83-.26,.19-.4,.29-.4,.29l.15,.19h0Z"/><polygon class="e" points="146.01 105.62 148.59 105.87 148.33 109.01 148.57 109.03 148.85 105.66 146.03 105.38 146.01 105.62 146.01 105.62"/><polygon class="e" points="148.21 103.59 150.68 103.83 150.75 106.7 151 106.7 150.92 103.61 148.23 103.35 148.21 103.59 148.21 103.59"/><polygon class="e" points="150.28 101.8 152.75 102.04 152.82 104.91 153.07 104.91 152.99 101.82 150.3 101.56 150.28 101.8 150.28 101.8"/><polygon class="e" points="152.39 99.4 154.86 99.64 154.94 102.51 155.19 102.5 155.1 99.42 152.41 99.16 152.39 99.4 152.39 99.4"/></g><g><path class="c" d="M172.29,135.31h0s4.22-12.97-11.46-13.34c-3.49,13.82,11.45,13.34,11.45,13.34Z"/><path class="e" d="M171.29,134.57s-1.28-2.19-3.25-4.87c-1.98-2.69-4.65-5.87-7.45-7.87l-.13,.18c2.77,1.98,5.44,5.15,7.41,7.82,.98,1.34,1.8,2.55,2.36,3.43,.28,.44,.5,.8,.65,1.04,.15,.25,.23,.38,.23,.38l.19-.12h0Z"/><polygon class="e" points="168.05 132.84 168.5 130.54 171.3 131.05 171.34 130.83 168.33 130.28 167.84 132.8 168.05 132.84 168.05 132.84"/><polygon class="e" points="166.41 130.68 166.85 128.48 169.43 128.66 169.45 128.44 166.67 128.25 166.2 130.65 166.41 130.68 166.41 130.68"/><polygon class="e" points="164.99 128.67 165.42 126.47 168 126.65 168.02 126.43 165.24 126.24 164.77 128.63 164.99 128.67 164.99 128.67"/><polygon class="e" points="163.01 126.56 163.44 124.36 166.03 124.54 166.05 124.32 163.27 124.12 162.8 126.52 163.01 126.56 163.01 126.56"/></g><g><path class="c" d="M84.38,140.23h0s9.36,4.36,11.07-7.39c-10.06-3.88-11.07,7.39-11.07,7.39Z"/><path class="e" d="M85.03,139.54s1.76-.76,3.96-2c2.2-1.24,4.83-2.96,6.59-4.88l-.13-.11c-1.74,1.9-4.36,3.62-6.55,4.85-1.1,.62-2.08,1.12-2.79,1.46-.36,.17-.64,.31-.84,.4-.2,.09-.31,.14-.31,.14l.07,.15h0Z"/><polygon class="e" points="86.62 137.27 88.31 137.82 87.67 139.87 87.83 139.92 88.52 137.71 86.67 137.12 86.62 137.27 86.62 137.27"/><polygon class="e" points="88.39 136.24 90 136.76 89.63 138.69 89.8 138.72 90.19 136.65 88.44 136.08 88.39 136.24 88.39 136.24"/><polygon class="e" points="90.03 135.35 91.65 135.87 91.28 137.8 91.44 137.83 91.84 135.76 90.08 135.19 90.03 135.35 90.03 135.35"/><polygon class="e" points="91.8 134.05 93.41 134.58 93.04 136.51 93.21 136.54 93.6 134.47 91.85 133.9 91.8 134.05 91.8 134.05"/></g><g><path class="c" d="M227.19,140.08h0s-1.39-10.23-12.2-5.32c2.17,10.56,12.2,5.32,12.2,5.32Z"/><path class="e" d="M226.26,139.9s-1.59-1.07-3.82-2.25c-2.23-1.18-5.1-2.47-7.67-2.91l-.03,.17c2.54,.43,5.4,1.72,7.62,2.89,1.11,.59,2.06,1.15,2.74,1.56,.34,.21,.6,.38,.79,.5,.18,.12,.28,.18,.28,.18l.09-.14h0Z"/><polygon class="e" points="223.48 139.79 223.03 138.07 225.1 137.5 225.06 137.34 222.83 137.95 223.33 139.83 223.48 139.79 223.48 139.79"/><polygon class="e" points="221.66 138.86 221.23 137.22 223.05 136.49 222.99 136.33 221.03 137.12 221.5 138.9 221.66 138.86 221.66 138.86"/><polygon class="e" points="220.02 137.96 219.59 136.31 221.41 135.59 221.35 135.43 219.39 136.21 219.86 138 220.02 137.96 220.02 137.96"/><polygon class="e" points="217.98 137.17 217.55 135.53 219.37 134.8 219.31 134.64 217.35 135.43 217.82 137.21 217.98 137.17 217.98 137.17"/></g><g><path class="c" d="M193.3,152.41h0s13.54-2.01,6.85-16.26c-13.97,3.05-6.86,16.26-6.86,16.26Z"/><path class="e" d="M193.52,151.17s1.39-2.13,2.92-5.1c1.53-2.98,3.19-6.8,3.73-10.22l-.22-.03c-.53,3.37-2.19,7.19-3.71,10.15-.76,1.48-1.49,2.75-2.03,3.66-.27,.45-.49,.81-.64,1.05-.15,.24-.24,.38-.24,.38l.19,.12h0Z"/><polygon class="e" points="193.63 147.49 195.89 146.87 196.69 149.6 196.9 149.54 196.05 146.6 193.57 147.28 193.63 147.49 193.63 147.49"/><polygon class="e" points="194.83 145.06 197 144.46 197.99 146.86 198.2 146.78 197.13 144.2 194.77 144.85 194.83 145.06 194.83 145.06"/><polygon class="e" points="196 142.87 198.17 142.28 199.16 144.68 199.37 144.6 198.3 142.01 195.94 142.67 196 142.87 196 142.87"/><polygon class="e" points="197.01 140.15 199.18 139.56 200.18 141.96 200.38 141.88 199.31 139.29 196.95 139.94 197.01 140.15 197.01 140.15"/></g><g><path class="c" d="M200.32,112.34h0s4.35-12.39-10.72-13.09c-3.67,13.21,10.72,13.09,10.72,13.09Z"/><path class="e" d="M199.36,111.6s-1.18-2.14-3.02-4.76c-1.84-2.63-4.34-5.75-6.99-7.74l-.13,.17c2.62,1.96,5.12,5.08,6.95,7.7,.92,1.31,1.67,2.5,2.19,3.36,.26,.43,.47,.78,.6,1.02,.14,.24,.21,.37,.21,.37l.18-.11h0Z"/><polygon class="e" points="196.29 109.86 196.78 107.66 199.45 108.21 199.5 108 196.62 107.41 196.09 109.82 196.29 109.86 196.29 109.86"/><polygon class="e" points="194.76 107.75 195.23 105.64 197.71 105.88 197.74 105.66 195.06 105.42 194.56 107.71 194.76 107.75 194.76 107.75"/><polygon class="e" points="193.44 105.78 193.9 103.67 196.38 103.9 196.41 103.69 193.74 103.44 193.23 105.74 193.44 105.78 193.44 105.78"/><polygon class="e" points="191.58 103.7 192.04 101.6 194.53 101.83 194.55 101.62 191.88 101.37 191.38 103.66 191.58 103.7 191.58 103.7"/></g><g><path class="c" d="M149.16,154.16h0s5.38-13.47-11.23-14.95c-4.67,14.41,11.22,14.95,11.22,14.95Z"/><path class="e" d="M148.14,153.3s-1.2-2.41-3.11-5.4c-1.91-2.99-4.52-6.55-7.36-8.87l-.15,.18c2.8,2.29,5.41,5.84,7.31,8.81,.95,1.49,1.73,2.83,2.27,3.81,.27,.49,.48,.88,.62,1.15,.14,.27,.22,.42,.22,.42l.21-.11h0Z"/><polygon class="e" points="144.83 151.24 145.47 148.84 148.4 149.57 148.46 149.34 145.31 148.55 144.61 151.19 144.83 151.24 144.83 151.24"/><polygon class="e" points="143.24 148.85 143.85 146.54 146.58 146.91 146.62 146.68 143.68 146.28 143.02 148.79 143.24 148.85 143.24 148.85"/><polygon class="e" points="141.87 146.61 142.48 144.3 145.21 144.67 145.25 144.44 142.31 144.04 141.64 146.55 141.87 146.61 141.87 146.61"/><polygon class="e" points="139.92 144.23 140.53 141.93 143.26 142.3 143.29 142.07 140.36 141.67 139.69 144.18 139.92 144.23 139.92 144.23"/></g><g><path class="c" d="M227.75,108.28h0s.15-13.85-15.16-9.45c.81,14.45,15.15,9.45,15.15,9.45Z"/><path class="e" d="M226.55,107.87s-1.9-1.73-4.63-3.74c-2.73-2-6.29-4.28-9.62-5.36l-.07,.21c3.29,1.07,6.83,3.34,9.56,5.33,1.36,1,2.52,1.93,3.33,2.61,.41,.34,.73,.62,.95,.81,.22,.19,.34,.3,.34,.3l.15-.17h0Z"/><polygon class="e" points="222.89 107.17 222.63 104.81 225.49 104.45 225.46 104.23 222.38 104.61 222.67 107.2 222.89 107.17 222.89 107.17"/><polygon class="e" points="220.65 105.59 220.4 103.32 222.96 102.71 222.91 102.49 220.16 103.15 220.43 105.61 220.65 105.59 220.65 105.59"/><polygon class="e" points="218.65 104.07 218.4 101.8 220.96 101.19 220.91 100.97 218.16 101.63 218.43 104.09 218.65 104.07 218.65 104.07"/><polygon class="e" points="216.09 102.62 215.84 100.36 218.4 99.74 218.36 99.53 215.6 100.18 215.88 102.65 216.09 102.62 216.09 102.62"/></g></g></svg>