<?xml version="1.0" encoding="UTF-8"?><svg xmlns="http://www.w3.org/2000/svg" viewBox="0 0 254.67 262"><defs><style>.c,.d{fill:#afa57d;}.d{font-family:Teko-Light, Teko;font-size:139px;}.e{fill:#777159;}</style></defs><g id="a"><text class="d" transform="translate(32.68 174.44)"><tspan x="0" y="0">BLOG</tspan></text></g><g id="b"><g><path class="c" d="M118.6,178.07h0s13.05-1.23,7.11-13.45c-13.5,2.09-7.11,13.45-7.11,13.45Z"/><path class="e" d="M118.85,177.04s1.41-1.74,2.97-4.2c1.56-2.45,3.28-5.62,3.92-8.47l-.21-.04c-.62,2.82-2.34,5.98-3.89,8.42-.78,1.22-1.52,2.27-2.06,3.01-.27,.37-.5,.66-.65,.86-.16,.2-.24,.31-.24,.31l.18,.1h0Z"/><polygon class="e" points="119.07 173.94 121.26 173.5 121.94 175.82 122.15 175.78 121.42 173.28 119.02 173.77 119.07 173.94 119.07 173.94"/><polygon class="e" points="120.3 171.93 122.4 171.51 123.28 173.56 123.48 173.5 122.54 171.29 120.25 171.76 120.3 171.93 120.3 171.93"/><polygon class="e" points="121.5 170.14 123.6 169.71 124.47 171.76 124.67 171.7 123.73 169.49 121.44 169.96 121.5 170.14 121.5 170.14"/><polygon class="e" points="122.55 167.88 124.66 167.45 125.53 169.51 125.73 169.45 124.79 167.24 122.5 167.7 122.55 167.88 122.55 167.88"/></g><g><path class="c" d="M67.32,181.87h0s3.65-13.45-13.04-13.44c-2.82,14.3,13.03,13.44,13.03,13.44Z"/><path class="e" d="M66.2,181.12s-1.5-2.22-3.77-4.93c-2.27-2.71-5.32-5.92-8.43-7.91l-.12,.19c3.07,1.96,6.11,5.16,8.38,7.86,1.13,1.35,2.07,2.58,2.73,3.47,.33,.45,.59,.81,.76,1.06,.18,.25,.27,.39,.27,.39l.19-.12h0Z"/><polygon class="e" points="62.65 179.43 62.98 177.05 65.98 177.5 66.01 177.28 62.78 176.79 62.42 179.39 62.65 179.43 62.65 179.43"/><polygon class="e" points="60.77 177.25 61.09 174.98 63.85 175.1 63.85 174.87 60.88 174.74 60.54 177.22 60.77 177.25 60.77 177.25"/><polygon class="e" points="59.12 175.21 59.44 172.94 62.2 173.06 62.21 172.83 59.24 172.7 58.89 175.18 59.12 175.21 59.12 175.21"/><polygon class="e" points="56.89 173.09 57.2 170.82 59.96 170.94 59.97 170.71 57 170.58 56.66 173.06 56.89 173.09 56.89 173.09"/></g><g><path class="c" d="M112.42,179.03h0s8.28-10.01-6.51-17.36c-7.87,11.11,6.5,17.36,6.5,17.36Z"/><path class="e" d="M111.71,177.9s-.5-2.58-1.49-5.93c-1-3.35-2.49-7.46-4.5-10.55l-.18,.11c1.99,3.05,3.48,7.15,4.47,10.49,.5,1.67,.87,3.14,1.11,4.2,.12,.53,.22,.95,.28,1.25,.06,.29,.09,.45,.09,.45l.22-.02h0Z"/><polygon class="e" points="109.2 174.87 110.39 172.96 112.88 174.67 112.99 174.49 110.31 172.65 109.01 174.74 109.2 174.87 109.2 174.87"/><polygon class="e" points="108.35 172.16 109.49 170.33 111.89 171.65 111.98 171.46 109.4 170.04 108.16 172.03 108.35 172.16 108.35 172.16"/><polygon class="e" points="107.66 169.67 108.79 167.85 111.19 169.17 111.29 168.97 108.7 167.55 107.47 169.54 107.66 169.67 107.66 169.67"/><polygon class="e" points="106.47 166.85 107.61 165.03 110.01 166.35 110.1 166.15 107.52 164.73 106.28 166.72 106.47 166.85 106.47 166.85"/></g><g><path class="c" d="M81.98,177.06h0s8.12-11.32-7.52-17.14c-7.64,12.41,7.52,17.14,7.52,17.14Z"/><path class="e" d="M81.19,175.98s-.63-2.6-1.81-5.94c-1.18-3.34-2.91-7.41-5.13-10.36l-.18,.14c2.19,2.91,3.92,6.97,5.1,10.29,.59,1.66,1.04,3.14,1.34,4.21,.15,.53,.27,.96,.34,1.25,.08,.29,.12,.46,.12,.46l.22-.05h0Z"/><polygon class="e" points="78.46 173.15 79.6 171.04 82.26 172.51 82.36 172.31 79.51 170.73 78.26 173.04 78.46 173.15 78.46 173.15"/><polygon class="e" points="77.46 170.45 78.55 168.43 81.1 169.51 81.18 169.3 78.45 168.14 77.26 170.34 77.46 170.45 77.46 170.45"/><polygon class="e" points="76.63 167.97 77.72 165.95 80.27 167.03 80.35 166.82 77.61 165.66 76.43 167.86 76.63 167.97 76.63 167.97"/><polygon class="e" points="75.27 165.2 76.37 163.18 78.91 164.26 79 164.05 76.26 162.89 75.07 165.09 75.27 165.2 75.27 165.2"/></g><g><path class="c" d="M30.7,174.7h0s9.62,10.08,18.24-4.2c-10.77-9.81-18.24,4.2-18.24,4.2Z"/><path class="e" d="M31.91,174.13s2.68-.13,6.17-.68c3.5-.54,7.82-1.49,11.13-3.12l-.1-.2c-3.27,1.61-7.58,2.56-11.06,3.1-1.74,.27-3.28,.44-4.38,.54-.55,.05-.99,.08-1.3,.11-.3,.02-.47,.03-.47,.03v.23h0Z"/><polygon class="e" points="35.2 171.97 37.06 173.48 35.12 175.82 35.3 175.96 37.39 173.45 35.35 171.8 35.2 171.97 35.2 171.97"/><polygon class="e" points="38.03 171.49 39.82 172.94 38.29 175.24 38.48 175.36 40.12 172.89 38.18 171.31 38.03 171.49 38.03 171.49"/><polygon class="e" points="40.63 171.13 42.41 172.58 40.88 174.88 41.07 175 42.72 172.53 40.78 170.96 40.63 171.13 40.63 171.13"/><polygon class="e" points="43.6 170.32 45.39 171.76 43.85 174.06 44.05 174.19 45.69 171.71 43.75 170.14 43.6 170.32 43.6 170.32"/></g><g><path class="c" d="M121.02,172.47h0s-.77-13.49-16.24-8.39c1.8,14.02,16.24,8.39,16.24,8.39Z"/><path class="e" d="M119.76,172.13s-2.08-1.59-5.02-3.39c-2.95-1.8-6.76-3.83-10.26-4.71l-.06,.21c3.46,.87,7.26,2.88,10.2,4.68,1.47,.9,2.72,1.74,3.6,2.36,.44,.31,.79,.56,1.03,.74,.24,.18,.37,.27,.37,.27l.14-.17h0Z"/><polygon class="e" points="115.94 171.65 115.51 169.36 118.44 168.86 118.39 168.64 115.25 169.18 115.72 171.69 115.94 171.65 115.94 171.65"/><polygon class="e" points="113.52 170.22 113.11 168.03 115.71 167.3 115.65 167.09 112.86 167.88 113.3 170.26 113.52 170.22 113.52 170.22"/><polygon class="e" points="111.37 168.85 110.96 166.66 113.56 165.93 113.49 165.72 110.7 166.5 111.14 168.89 111.37 168.85 111.37 168.85"/><polygon class="e" points="108.64 167.58 108.23 165.39 110.82 164.66 110.76 164.45 107.97 165.23 108.41 167.62 108.64 167.58 108.64 167.58"/></g><g><path class="c" d="M144,180.42h0s14.74,3.28,13.48-14.04c-15.6-2.38-13.49,14.04-13.49,14.04Z"/><path class="e" d="M144.71,179.23s2.28-1.64,5.03-4.1c2.75-2.46,5.98-5.75,7.88-9.05l-.21-.12c-1.88,3.27-5.1,6.54-7.84,9-1.37,1.23-2.62,2.25-3.53,2.97-.45,.36-.82,.64-1.08,.83-.26,.19-.4,.29-.4,.29l.15,.19h0Z"/><polygon class="e" points="146.27 175.48 148.86 175.73 148.59 178.86 148.84 178.89 149.12 175.52 146.29 175.24 146.27 175.48 146.27 175.48"/><polygon class="e" points="148.47 173.44 150.94 173.68 151.02 176.55 151.27 176.55 151.18 173.47 148.49 173.21 148.47 173.44 148.47 173.44"/><polygon class="e" points="150.54 171.66 153.01 171.9 153.09 174.77 153.34 174.77 153.25 171.68 150.56 171.42 150.54 171.66 150.54 171.66"/><polygon class="e" points="152.66 169.25 155.13 169.49 155.21 172.36 155.45 172.36 155.37 169.28 152.68 169.01 152.66 169.25 152.66 169.25"/></g><g><path class="c" d="M173.98,181.19h0s4.22-12.97-11.46-13.34c-3.49,13.82,11.45,13.34,11.45,13.34Z"/><path class="e" d="M172.97,180.44s-1.28-2.19-3.25-4.87c-1.98-2.69-4.65-5.87-7.45-7.87l-.13,.18c2.77,1.98,5.44,5.15,7.41,7.82,.98,1.34,1.8,2.55,2.36,3.43,.28,.44,.5,.8,.65,1.04,.15,.25,.23,.38,.23,.38l.19-.12h0Z"/><polygon class="e" points="169.74 178.71 170.19 176.42 172.98 176.92 173.02 176.7 170.02 176.16 169.53 178.68 169.74 178.71 169.74 178.71"/><polygon class="e" points="168.1 176.56 168.53 174.36 171.12 174.54 171.14 174.32 168.35 174.13 167.89 176.52 168.1 176.56 168.1 176.56"/><polygon class="e" points="166.67 174.55 167.1 172.35 169.69 172.52 169.71 172.3 166.93 172.11 166.46 174.51 166.67 174.55 166.67 174.55"/><polygon class="e" points="164.69 172.44 165.13 170.23 167.71 170.41 167.73 170.19 164.95 170 164.48 172.4 164.69 172.44 164.69 172.44"/></g><g><path class="c" d="M88.75,172.38h0s9.36,4.36,11.07-7.39c-10.06-3.88-11.07,7.39-11.07,7.39Z"/><path class="e" d="M89.4,171.69s1.76-.76,3.96-2c2.2-1.24,4.83-2.96,6.59-4.88l-.13-.11c-1.74,1.9-4.36,3.62-6.55,4.85-1.1,.62-2.08,1.12-2.79,1.46-.36,.17-.64,.31-.84,.4-.2,.09-.31,.14-.31,.14l.07,.15h0Z"/><polygon class="e" points="90.99 169.42 92.68 169.97 92.05 172.02 92.2 172.07 92.89 169.86 91.04 169.26 90.99 169.42 90.99 169.42"/><polygon class="e" points="92.76 168.38 94.37 168.91 94 170.84 94.17 170.87 94.57 168.8 92.81 168.23 92.76 168.38 92.76 168.38"/><polygon class="e" points="94.41 167.5 96.02 168.02 95.65 169.95 95.81 169.98 96.21 167.91 94.45 167.34 94.41 167.5 94.41 167.5"/><polygon class="e" points="96.17 166.2 97.79 166.73 97.41 168.65 97.58 168.69 97.98 166.62 96.22 166.05 96.17 166.2 96.17 166.2"/></g><g><path class="c" d="M224.08,176.25h0s-1.39-10.23-12.2-5.32c2.17,10.56,12.2,5.32,12.2,5.32Z"/><path class="e" d="M223.15,176.08s-1.59-1.07-3.82-2.25c-2.23-1.18-5.1-2.47-7.67-2.91l-.03,.17c2.54,.43,5.4,1.72,7.62,2.89,1.11,.59,2.06,1.15,2.74,1.56,.34,.21,.6,.38,.79,.5,.18,.12,.28,.18,.28,.18l.09-.14h0Z"/><polygon class="e" points="220.37 175.96 219.92 174.25 221.99 173.67 221.95 173.51 219.72 174.13 220.22 176.01 220.37 175.96 220.37 175.96"/><polygon class="e" points="218.55 175.03 218.12 173.39 219.94 172.66 219.88 172.51 217.92 173.29 218.39 175.08 218.55 175.03 218.55 175.03"/><polygon class="e" points="216.91 174.13 216.48 172.49 218.3 171.76 218.24 171.6 216.29 172.39 216.75 174.17 216.91 174.13 216.91 174.13"/><polygon class="e" points="214.87 173.34 214.44 171.7 216.26 170.97 216.2 170.82 214.24 171.6 214.71 173.39 214.87 173.34 214.87 173.34"/></g><g><path class="c" d="M186.8,174.92h0s9.64,9.72,17.16-4.11c-10.73-9.45-17.16,4.11-17.16,4.11Z"/><path class="e" d="M187.93,174.36s2.54-.14,5.84-.67c3.3-.53,7.37-1.46,10.44-3.05l-.1-.2c-3.03,1.57-7.09,2.5-10.38,3.03-1.65,.27-3.1,.43-4.15,.53-.52,.05-.94,.08-1.23,.11-.29,.02-.45,.03-.45,.03l.02,.22h0Z"/><polygon class="e" points="190.95 172.27 192.8 173.73 191.07 175.99 191.24 176.12 193.11 173.69 191.09 172.1 190.95 172.27 190.95 172.27"/><polygon class="e" points="193.63 171.79 195.4 173.19 194.05 175.41 194.24 175.53 195.68 173.14 193.76 171.62 193.63 171.79 193.63 171.79"/><polygon class="e" points="196.08 171.44 197.85 172.84 196.5 175.06 196.69 175.18 198.14 172.79 196.21 171.27 196.08 171.44 196.08 171.44"/><polygon class="e" points="198.87 170.65 200.64 172.04 199.29 174.27 199.48 174.38 200.93 171.99 199 170.47 198.87 170.65 198.87 170.65"/></g><g><path class="c" d="M198.47,178.93h0s4.35-12.39-10.72-13.09c-3.67,13.21,10.72,13.09,10.72,13.09Z"/><path class="e" d="M197.52,178.19s-1.18-2.14-3.02-4.76c-1.84-2.63-4.34-5.75-6.99-7.74l-.13,.17c2.62,1.96,5.12,5.08,6.95,7.7,.92,1.31,1.67,2.5,2.19,3.36,.26,.43,.47,.78,.6,1.02,.14,.24,.21,.37,.21,.37l.18-.11h0Z"/><polygon class="e" points="194.45 176.45 194.93 174.25 197.61 174.8 197.66 174.59 194.78 174 194.25 176.41 194.45 176.45 194.45 176.45"/><polygon class="e" points="192.92 174.34 193.38 172.23 195.87 172.47 195.89 172.25 193.22 172.01 192.72 174.3 192.92 174.34 192.92 174.34"/><polygon class="e" points="191.59 172.37 192.06 170.26 194.54 170.49 194.57 170.28 191.89 170.03 191.39 172.33 191.59 172.37 191.59 172.37"/><polygon class="e" points="189.74 170.29 190.2 168.19 192.69 168.42 192.71 168.21 190.04 167.96 189.53 170.25 189.74 170.29 189.74 170.29"/></g><g><path class="c" d="M155.8,182.14h0s5.38-13.47-11.23-14.95c-4.67,14.41,11.22,14.95,11.22,14.95Z"/><path class="e" d="M154.78,181.28s-1.2-2.41-3.11-5.4c-1.91-2.99-4.52-6.55-7.36-8.87l-.15,.18c2.8,2.29,5.41,5.84,7.31,8.81,.95,1.49,1.73,2.83,2.27,3.81,.27,.49,.48,.88,.62,1.15,.14,.27,.22,.42,.22,.42l.21-.11h0Z"/><polygon class="e" points="151.47 179.22 152.11 176.82 155.04 177.55 155.1 177.32 151.95 176.53 151.25 179.17 151.47 179.23 151.47 179.22"/><polygon class="e" points="149.88 176.83 150.49 174.52 153.23 174.89 153.26 174.66 150.33 174.26 149.66 176.77 149.88 176.83 149.88 176.83"/><polygon class="e" points="148.51 174.59 149.12 172.29 151.85 172.66 151.89 172.42 148.95 172.03 148.29 174.53 148.51 174.59 148.51 174.59"/><polygon class="e" points="146.56 172.21 147.17 169.91 149.9 170.28 149.94 170.05 147 169.65 146.34 172.16 146.56 172.21 146.56 172.21"/></g><g><path class="c" d="M227.7,176.36h0s.15-13.85-15.16-9.45c.81,14.45,15.15,9.45,15.15,9.45Z"/><path class="e" d="M226.5,175.94s-1.9-1.73-4.63-3.74c-2.73-2-6.29-4.28-9.62-5.36l-.07,.21c3.29,1.07,6.83,3.34,9.56,5.33,1.36,1,2.52,1.93,3.33,2.61,.41,.34,.73,.62,.95,.81,.22,.19,.34,.3,.34,.3l.15-.17h0Z"/><polygon class="e" points="222.84 175.25 222.57 172.89 225.43 172.53 225.41 172.3 222.33 172.69 222.62 175.28 222.84 175.25 222.84 175.25"/><polygon class="e" points="220.59 173.66 220.34 171.4 222.9 170.79 222.86 170.57 220.1 171.22 220.38 173.69 220.59 173.66 220.59 173.66"/><polygon class="e" points="218.6 172.14 218.35 169.88 220.91 169.27 220.86 169.05 218.11 169.7 218.38 172.17 218.6 172.14 218.6 172.14"/><polygon class="e" points="216.04 170.7 215.79 168.43 218.35 167.82 218.3 167.6 215.55 168.26 215.82 170.72 216.04 170.7 216.04 170.7"/></g></g></svg>