<?xml version="1.0" encoding="UTF-8"?><svg xmlns="http://www.w3.org/2000/svg" viewBox="0 0 254.67 262"><defs><style>.c,.d{fill:#afa57d;}.d{font-family:Teko-Light, Teko;font-size:139px;}.e{fill:#777159;}</style></defs><g id="a"><text class="d" transform="translate(32.68 174.44)"><tspan x="0" y="0">BLOG</tspan></text></g><g id="b"><g><path class="c" d="M122.76,141.76h0s13.05-1.23,7.11-13.45c-13.5,2.09-7.11,13.45-7.11,13.45Z"/><path class="e" d="M123.01,140.72s1.41-1.74,2.97-4.2c1.56-2.45,3.28-5.62,3.92-8.47l-.21-.04c-.62,2.82-2.34,5.98-3.89,8.42-.78,1.22-1.52,2.27-2.06,3.01-.27,.37-.5,.66-.65,.86-.16,.2-.24,.31-.24,.31l.18,.1h0Z"/><polygon class="e" points="123.23 137.63 125.43 137.18 126.1 139.51 126.31 139.47 125.58 136.96 123.18 137.45 123.23 137.63 123.23 137.63"/><polygon class="e" points="124.46 135.62 126.56 135.19 127.44 137.25 127.64 137.19 126.7 134.98 124.41 135.44 124.46 135.62 124.46 135.62"/><polygon class="e" points="125.66 133.82 127.76 133.4 128.64 135.45 128.84 135.39 127.89 133.18 125.61 133.65 125.66 133.82 125.66 133.82"/><polygon class="e" points="126.72 131.57 128.82 131.14 129.7 133.2 129.9 133.14 128.95 130.92 126.67 131.39 126.72 131.57 126.72 131.57"/></g><g><path class="c" d="M65.39,162.27h0s3.65-13.45-13.04-13.44c-2.82,14.3,13.03,13.44,13.03,13.44Z"/><path class="e" d="M64.27,161.53s-1.5-2.22-3.77-4.93c-2.27-2.71-5.32-5.92-8.43-7.91l-.12,.19c3.07,1.96,6.11,5.16,8.38,7.86,1.13,1.35,2.07,2.58,2.73,3.47,.33,.45,.59,.81,.76,1.06,.18,.25,.27,.39,.27,.39l.19-.12h0Z"/><polygon class="e" points="60.73 159.83 61.06 157.45 64.06 157.9 64.09 157.68 60.86 157.19 60.5 159.79 60.73 159.83 60.73 159.83"/><polygon class="e" points="58.84 157.65 59.16 155.38 61.92 155.5 61.93 155.27 58.96 155.14 58.62 157.62 58.84 157.65 58.84 157.65"/><polygon class="e" points="57.2 155.62 57.51 153.34 60.27 153.46 60.28 153.24 57.31 153.11 56.97 155.58 57.2 155.62 57.2 155.62"/><polygon class="e" points="54.96 153.49 55.28 151.22 58.04 151.34 58.04 151.11 55.08 150.98 54.73 153.46 54.96 153.49 54.96 153.49"/></g><g><path class="c" d="M109.85,133.27h0s8.99-10.64-6.14-17.69c-8.6,11.77,6.13,17.69,6.13,17.69Z"/><path class="e" d="M109.15,132.13s-.42-2.65-1.33-6.07c-.91-3.42-2.32-7.62-4.3-10.73l-.19,.12c1.96,3.08,3.36,7.26,4.27,10.67,.46,1.7,.79,3.22,1.01,4.3,.11,.54,.19,.98,.24,1.28,.05,.3,.08,.46,.08,.46l.23-.03h0Z"/><polygon class="e" points="106.65 129.09 107.95 127.08 110.48 128.75 110.61 128.56 107.88 126.76 106.46 128.96 106.65 129.09 106.65 129.09"/><polygon class="e" points="105.86 126.32 107.11 124.4 109.56 125.67 109.66 125.47 107.03 124.1 105.67 126.2 105.86 126.32 105.86 126.32"/><polygon class="e" points="105.23 123.78 106.48 121.85 108.93 123.13 109.03 122.93 106.4 121.56 105.04 123.65 105.23 123.78 105.23 123.78"/><polygon class="e" points="104.1 120.91 105.35 118.99 107.8 120.26 107.9 120.06 105.27 118.69 103.91 120.79 104.1 120.91 104.1 120.91"/></g><g><path class="c" d="M83.91,138.09h0s8.12-11.32-7.52-17.14c-7.64,12.41,7.52,17.14,7.52,17.14Z"/><path class="e" d="M83.12,137s-.63-2.6-1.81-5.94c-1.18-3.34-2.91-7.41-5.13-10.36l-.18,.14c2.19,2.91,3.92,6.97,5.1,10.29,.59,1.66,1.04,3.14,1.34,4.21,.15,.53,.27,.96,.34,1.25,.08,.29,.12,.46,.12,.46l.22-.05h0Z"/><polygon class="e" points="80.39 134.17 81.53 132.06 84.19 133.53 84.29 133.33 81.44 131.75 80.19 134.06 80.39 134.17 80.39 134.17"/><polygon class="e" points="79.39 131.47 80.48 129.45 83.03 130.53 83.11 130.32 80.38 129.16 79.19 131.36 79.39 131.47 79.39 131.47"/><polygon class="e" points="78.56 128.99 79.65 126.97 82.2 128.05 82.28 127.84 79.55 126.68 78.36 128.88 78.56 128.99 78.56 128.99"/><polygon class="e" points="77.2 126.22 78.3 124.2 80.84 125.28 80.93 125.07 78.19 123.91 77 126.11 77.2 126.22 77.2 126.22"/></g><g><path class="c" d="M27.37,128.14h0s9.62,10.08,18.24-4.2c-10.77-9.81-18.24,4.2-18.24,4.2Z"/><path class="e" d="M28.58,127.56s2.68-.13,6.17-.68c3.5-.54,7.82-1.49,11.13-3.12l-.1-.2c-3.27,1.61-7.58,2.56-11.06,3.1-1.74,.27-3.28,.44-4.38,.54-.55,.05-.99,.08-1.3,.11-.3,.02-.47,.03-.47,.03v.23h0Z"/><polygon class="e" points="31.87 125.4 33.73 126.92 31.79 129.25 31.97 129.39 34.05 126.88 32.02 125.23 31.87 125.4 31.87 125.4"/><polygon class="e" points="34.7 124.92 36.48 126.37 34.95 128.67 35.14 128.79 36.79 126.32 34.85 124.74 34.7 124.92 34.7 124.92"/><polygon class="e" points="37.3 124.57 39.08 126.01 37.55 128.31 37.74 128.44 39.39 125.96 37.45 124.39 37.3 124.57 37.3 124.57"/><polygon class="e" points="40.27 123.75 42.05 125.2 40.52 127.5 40.71 127.62 42.36 125.15 40.42 123.57 40.27 123.75 40.27 123.75"/></g><g><path class="c" d="M119.26,160.98h0s-.77-13.49-16.24-8.39c1.8,14.02,16.24,8.39,16.24,8.39Z"/><path class="e" d="M118,160.64s-2.08-1.59-5.02-3.39c-2.95-1.8-6.76-3.83-10.26-4.71l-.06,.21c3.46,.87,7.26,2.88,10.2,4.68,1.47,.9,2.72,1.74,3.6,2.36,.44,.31,.79,.56,1.03,.74,.24,.18,.37,.27,.37,.27l.14-.17h0Z"/><polygon class="e" points="114.18 160.16 113.75 157.87 116.68 157.37 116.64 157.15 113.49 157.69 113.96 160.2 114.18 160.16 114.18 160.16"/><polygon class="e" points="111.77 158.73 111.36 156.54 113.95 155.81 113.89 155.6 111.1 156.38 111.54 158.77 111.77 158.73 111.77 158.73"/><polygon class="e" points="109.61 157.36 109.2 155.17 111.8 154.44 111.73 154.22 108.94 155.01 109.39 157.4 109.61 157.36 109.61 157.36"/><polygon class="e" points="106.88 156.09 106.47 153.9 109.07 153.17 109 152.95 106.21 153.74 106.65 156.12 106.88 156.09 106.88 156.09"/></g><g><path class="c" d="M145.74,133.43h0s14.74,3.28,13.48-14.04c-15.6-2.38-13.49,14.04-13.49,14.04Z"/><path class="e" d="M146.46,132.25s2.28-1.64,5.03-4.1c2.75-2.46,5.98-5.75,7.88-9.05l-.21-.12c-1.88,3.27-5.1,6.54-7.84,9-1.37,1.23-2.62,2.25-3.53,2.97-.45,.36-.82,.64-1.08,.83-.26,.19-.4,.29-.4,.29l.15,.19h0Z"/><polygon class="e" points="148.02 128.5 150.6 128.75 150.34 131.88 150.58 131.9 150.87 128.53 148.04 128.26 148.02 128.5 148.02 128.5"/><polygon class="e" points="150.22 126.46 152.69 126.7 152.77 129.57 153.01 129.57 152.93 126.48 150.24 126.22 150.22 126.46 150.22 126.46"/><polygon class="e" points="152.29 124.67 154.76 124.92 154.84 127.79 155.08 127.78 155 124.7 152.31 124.44 152.29 124.67 152.29 124.67"/><polygon class="e" points="154.4 122.27 156.88 122.51 156.95 125.38 157.2 125.38 157.12 122.29 154.42 122.03 154.4 122.27 154.4 122.27"/></g><g><path class="c" d="M173.76,151.98h0s4.22-12.97-11.46-13.34c-3.49,13.82,11.45,13.34,11.45,13.34Z"/><path class="e" d="M172.75,151.23s-1.28-2.19-3.25-4.87c-1.98-2.69-4.65-5.87-7.45-7.87l-.13,.18c2.77,1.98,5.44,5.15,7.41,7.82,.98,1.34,1.8,2.55,2.36,3.43,.28,.44,.5,.8,.65,1.04,.15,.25,.23,.38,.23,.38l.19-.12h0Z"/><polygon class="e" points="169.52 149.5 169.97 147.2 172.76 147.71 172.8 147.49 169.79 146.95 169.3 149.46 169.52 149.5 169.52 149.5"/><polygon class="e" points="167.88 147.35 168.31 145.15 170.89 145.33 170.91 145.11 168.13 144.91 167.66 147.31 167.88 147.35 167.88 147.35"/><polygon class="e" points="166.45 145.33 166.88 143.13 169.47 143.31 169.49 143.09 166.71 142.9 166.24 145.29 166.45 145.33 166.45 145.33"/><polygon class="e" points="164.47 143.22 164.9 141.02 167.49 141.2 167.51 140.98 164.73 140.79 164.26 143.18 164.47 143.22 164.47 143.22"/></g><g><path class="c" d="M87.45,156.81h0s9.36,4.36,11.07-7.39c-10.06-3.88-11.07,7.39-11.07,7.39Z"/><path class="e" d="M88.1,156.12s1.76-.76,3.96-2c2.2-1.24,4.83-2.96,6.59-4.88l-.13-.11c-1.74,1.9-4.36,3.62-6.55,4.85-1.1,.62-2.08,1.12-2.79,1.46-.36,.17-.64,.31-.84,.4-.2,.09-.31,.14-.31,.14l.07,.15h0Z"/><polygon class="e" points="89.69 153.85 91.38 154.4 90.74 156.45 90.9 156.5 91.58 154.29 89.74 153.7 89.69 153.85 89.69 153.85"/><polygon class="e" points="91.46 152.82 93.07 153.34 92.7 155.27 92.86 155.3 93.26 153.23 91.51 152.66 91.46 152.82 91.46 152.82"/><polygon class="e" points="93.1 151.93 94.72 152.45 94.35 154.38 94.51 154.41 94.91 152.34 93.15 151.77 93.1 151.93 93.1 151.93"/><polygon class="e" points="94.87 150.64 96.48 151.16 96.11 153.09 96.28 153.12 96.67 151.05 94.92 150.48 94.87 150.64 94.87 150.64"/></g><g><path class="c" d="M226.96,155.3h0s-1.39-10.23-12.2-5.32c2.17,10.56,12.2,5.32,12.2,5.32Z"/><path class="e" d="M226.03,155.13s-1.59-1.07-3.82-2.25c-2.23-1.18-5.1-2.47-7.67-2.91l-.03,.17c2.54,.43,5.4,1.72,7.62,2.89,1.11,.59,2.06,1.15,2.74,1.56,.34,.21,.6,.38,.79,.5,.18,.12,.28,.18,.28,.18l.09-.14h0Z"/><polygon class="e" points="223.26 155.01 222.81 153.3 224.88 152.72 224.83 152.56 222.61 153.18 223.1 155.06 223.26 155.01 223.26 155.01"/><polygon class="e" points="221.43 154.08 221 152.44 222.82 151.71 222.76 151.56 220.8 152.34 221.27 154.13 221.43 154.08 221.43 154.08"/><polygon class="e" points="219.79 153.18 219.36 151.54 221.18 150.81 221.13 150.65 219.17 151.44 219.64 153.22 219.79 153.18 219.79 153.18"/><polygon class="e" points="217.75 152.39 217.32 150.75 219.14 150.02 219.08 149.87 217.12 150.65 217.59 152.44 217.75 152.39 217.75 152.39"/></g><g><path class="c" d="M192.42,165.06h0s13.54-2.01,6.85-16.26c-13.97,3.05-6.86,16.26-6.86,16.26Z"/><path class="e" d="M192.64,163.82s1.39-2.13,2.92-5.1c1.53-2.98,3.19-6.8,3.73-10.22l-.22-.03c-.53,3.37-2.19,7.19-3.71,10.15-.76,1.48-1.49,2.75-2.03,3.66-.27,.45-.49,.81-.64,1.05-.15,.24-.24,.38-.24,.38l.19,.12h0Z"/><polygon class="e" points="192.75 160.14 195.01 159.52 195.81 162.26 196.02 162.2 195.17 159.25 192.69 159.94 192.75 160.14 192.75 160.14"/><polygon class="e" points="193.95 157.71 196.12 157.11 197.11 159.51 197.32 159.43 196.25 156.85 193.89 157.5 193.95 157.71 193.95 157.71"/><polygon class="e" points="195.12 155.53 197.29 154.93 198.28 157.33 198.49 157.25 197.42 154.67 195.06 155.32 195.12 155.53 195.12 155.53"/><polygon class="e" points="196.13 152.8 198.3 152.21 199.29 154.61 199.5 154.53 198.43 151.94 196.07 152.6 196.13 152.8 196.13 152.8"/></g><g><path class="c" d="M203.22,128.65h0s4.35-12.39-10.72-13.09c-3.67,13.21,10.72,13.09,10.72,13.09Z"/><path class="e" d="M202.27,127.91s-1.18-2.14-3.02-4.76c-1.84-2.63-4.34-5.75-6.99-7.74l-.13,.17c2.62,1.96,5.12,5.08,6.95,7.7,.92,1.31,1.67,2.5,2.19,3.36,.26,.43,.47,.78,.6,1.02,.14,.24,.21,.37,.21,.37l.18-.11h0Z"/><polygon class="e" points="199.2 126.18 199.68 123.98 202.36 124.53 202.4 124.32 199.52 123.73 198.99 126.14 199.2 126.18 199.2 126.18"/><polygon class="e" points="197.67 124.07 198.13 121.96 200.62 122.19 200.64 121.98 197.97 121.73 197.47 124.03 197.67 124.07 197.67 124.07"/><polygon class="e" points="196.34 122.1 196.81 119.99 199.29 120.22 199.31 120.01 196.64 119.76 196.14 122.06 196.34 122.1 196.34 122.1"/><polygon class="e" points="194.49 120.02 194.95 117.91 197.44 118.14 197.46 117.93 194.79 117.68 194.28 119.98 194.49 120.02 194.49 120.02"/></g><g><path class="c" d="M154.09,169.21h0s5.38-13.47-11.23-14.95c-4.67,14.41,11.22,14.95,11.22,14.95Z"/><path class="e" d="M153.07,168.35s-1.2-2.41-3.11-5.4c-1.91-2.99-4.52-6.55-7.36-8.87l-.15,.18c2.8,2.29,5.41,5.84,7.31,8.81,.95,1.49,1.73,2.83,2.27,3.81,.27,.49,.48,.88,.62,1.15,.14,.27,.22,.42,.22,.42l.21-.11h0Z"/><polygon class="e" points="149.76 166.29 150.4 163.89 153.33 164.62 153.39 164.39 150.24 163.6 149.54 166.24 149.76 166.29 149.76 166.29"/><polygon class="e" points="148.17 163.9 148.78 161.59 151.51 161.96 151.55 161.73 148.61 161.33 147.95 163.84 148.17 163.9 148.17 163.9"/><polygon class="e" points="146.8 161.66 147.41 159.35 150.14 159.72 150.18 159.49 147.24 159.09 146.58 161.6 146.8 161.66 146.8 161.66"/><polygon class="e" points="144.85 159.28 145.46 156.98 148.19 157.35 148.23 157.11 145.29 156.72 144.62 159.23 144.85 159.28 144.85 159.28"/></g><g><path class="c" d="M229.57,126.29h0s.15-13.85-15.16-9.45c.81,14.45,15.15,9.45,15.15,9.45Z"/><path class="e" d="M228.37,125.88s-1.9-1.73-4.63-3.74c-2.73-2-6.29-4.28-9.62-5.36l-.07,.21c3.29,1.07,6.83,3.34,9.56,5.33,1.36,1,2.52,1.93,3.33,2.61,.41,.34,.73,.62,.95,.81,.22,.19,.34,.3,.34,.3l.15-.17h0Z"/><polygon class="e" points="224.71 125.18 224.45 122.82 227.31 122.46 227.28 122.24 224.2 122.62 224.49 125.21 224.71 125.18 224.71 125.18"/><polygon class="e" points="222.47 123.6 222.22 121.33 224.78 120.72 224.73 120.5 221.98 121.16 222.25 123.62 222.47 123.6 222.47 123.6"/><polygon class="e" points="220.47 122.08 220.22 119.81 222.78 119.2 222.73 118.98 219.98 119.64 220.25 122.1 220.47 122.08 220.47 122.08"/><polygon class="e" points="217.91 120.63 217.66 118.37 220.22 117.76 220.18 117.54 217.42 118.19 217.7 120.66 217.91 120.63 217.91 120.63"/></g></g></svg>