<?xml version="1.0" encoding="UTF-8"?><svg xmlns="http://www.w3.org/2000/svg" viewBox="0 0 827.97 262"><defs><style>.c,.d{fill:#afa57d;}.d{font-family:Teko-Light, Teko;font-size:139px;}.e{fill:#777159;}</style></defs><g id="a"><text class="d" transform="translate(16.85 174.18)"><tspan x="0" y="0">COFFRETS &amp; CADEAUX</tspan></text></g><g id="b"><g><path class="c" d="M153.11,147.53h0s12.55,7.89,16.95-8.4c-13.63-7.36-16.95,8.4-16.95,8.4Z"/><path class="e" d="M154.15,146.67s2.63-.75,5.96-2.09c3.33-1.35,7.36-3.29,10.18-5.68l-.16-.18c-2.79,2.37-6.8,4.3-10.12,5.64-1.66,.67-3.14,1.19-4.21,1.55-.53,.18-.97,.31-1.26,.4-.3,.09-.46,.14-.46,.14l.07,.23h0Z"/><polygon class="e" points="156.8 143.76 159.1 144.84 157.85 147.63 158.07 147.73 159.41 144.73 156.89 143.54 156.8 143.76 156.8 143.76"/><polygon class="e" points="159.48 142.62 161.68 143.66 160.83 146.32 161.06 146.4 161.97 143.54 159.58 142.41 159.48 142.62 159.48 142.62"/><polygon class="e" points="161.96 141.67 164.17 142.71 163.32 145.37 163.54 145.44 164.46 142.59 162.06 141.46 161.96 141.67 161.96 141.67"/><polygon class="e" points="164.69 140.17 166.89 141.21 166.04 143.86 166.27 143.94 167.18 141.09 164.78 139.96 164.69 140.17 164.69 140.17"/></g><g><path class="c" d="M155.97,127.23h0s6.6-13.55-10.62-16.45c-5.92,14.59,10.61,16.45,10.61,16.45Z"/><path class="e" d="M154.97,126.25s-1.08-2.6-2.85-5.86c-1.77-3.26-4.24-7.18-7.03-9.82l-.17,.18c2.76,2.61,5.22,6.51,6.98,9.76,.88,1.62,1.59,3.08,2.08,4.14,.24,.53,.43,.95,.56,1.25,.13,.29,.19,.45,.2,.45l.22-.1h0Z"/><polygon class="e" points="151.67 123.84 152.51 121.39 155.51 122.39 155.59 122.16 152.36 121.09 151.44 123.77 151.67 123.84 151.67 123.84"/><polygon class="e" points="150.18 121.22 150.99 118.88 153.81 119.49 153.87 119.25 150.83 118.59 149.96 121.15 150.18 121.22 150.18 121.22"/><polygon class="e" points="148.92 118.78 149.72 116.44 152.54 117.05 152.6 116.81 149.56 116.16 148.69 118.71 148.92 118.78 148.92 118.78"/><polygon class="e" points="147.05 116.16 147.86 113.81 150.68 114.42 150.74 114.18 147.7 113.53 146.83 116.08 147.05 116.16 147.05 116.16"/></g><g><path class="c" d="M398.04,138.05h0s13.83-1.63,7.6-17.11c-14.32,2.72-7.6,17.11-7.6,17.11Z"/><path class="e" d="M398.31,136.73s1.5-2.22,3.17-5.34c1.67-3.12,3.51-7.15,4.19-10.77l-.22-.04c-.67,3.58-2.51,7.6-4.17,10.71-.83,1.56-1.62,2.89-2.2,3.83-.29,.47-.53,.84-.7,1.1-.17,.26-.26,.39-.26,.39l.19,.13h0Z"/><polygon class="e" points="398.56 132.81 400.89 132.23 401.59 135.18 401.81 135.12 401.05 131.95 398.51 132.58 398.56 132.81 398.56 132.81"/><polygon class="e" points="399.87 130.25 402.1 129.7 403.02 132.3 403.23 132.22 402.25 129.42 399.82 130.03 399.87 130.25 399.87 130.25"/><polygon class="e" points="401.15 127.96 403.38 127.41 404.3 130.01 404.51 129.94 403.52 127.13 401.1 127.74 401.15 127.96 401.15 127.96"/><polygon class="e" points="402.28 125.1 404.51 124.54 405.43 127.15 405.64 127.07 404.65 124.26 402.23 124.87 402.28 125.1 402.28 125.1"/></g><g><path class="c" d="M380.25,142.72h0s3.65-13.45-13.04-13.44c-2.82,14.3,13.03,13.44,13.03,13.44Z"/><path class="e" d="M379.13,141.98s-1.5-2.22-3.77-4.93c-2.27-2.71-5.32-5.92-8.43-7.91l-.12,.19c3.07,1.96,6.11,5.16,8.38,7.86,1.13,1.35,2.07,2.58,2.73,3.47,.33,.45,.59,.81,.76,1.06,.18,.25,.27,.39,.27,.39l.19-.12h0Z"/><polygon class="e" points="375.59 140.28 375.92 137.9 378.92 138.35 378.95 138.13 375.72 137.64 375.36 140.24 375.59 140.28 375.59 140.28"/><polygon class="e" points="373.71 138.1 374.02 135.83 376.78 135.95 376.79 135.72 373.82 135.59 373.48 138.07 373.71 138.1 373.71 138.1"/><polygon class="e" points="372.06 136.07 372.37 133.79 375.14 133.91 375.14 133.69 372.17 133.56 371.83 136.03 372.06 136.07 372.06 136.07"/><polygon class="e" points="369.82 133.95 370.14 131.67 372.9 131.79 372.9 131.56 369.94 131.43 369.59 133.91 369.82 133.95 369.82 133.95"/></g><g><path class="c" d="M334.68,132.74h0s13.74-2.28,6.79-17.44c-14.17,3.38-6.79,17.44-6.79,17.44Z"/><path class="e" d="M334.89,131.42s1.39-2.29,2.92-5.48c1.52-3.2,3.17-7.3,3.68-10.96l-.22-.03c-.51,3.61-2.15,7.7-3.66,10.89-.76,1.59-1.48,2.96-2.02,3.93-.27,.48-.49,.87-.64,1.13-.15,.26-.24,.4-.24,.4l.19,.12h0Z"/><polygon class="e" points="334.96 127.48 337.26 126.79 338.1 129.71 338.31 129.65 337.41 126.51 334.9 127.26 334.96 127.48 334.96 127.48"/><polygon class="e" points="336.15 124.87 338.35 124.21 339.39 126.77 339.6 126.68 338.48 123.93 336.09 124.65 336.15 124.87 336.15 124.87"/><polygon class="e" points="337.32 122.52 339.52 121.86 340.56 124.42 340.77 124.33 339.65 121.58 337.26 122.3 337.32 122.52 337.32 122.52"/><polygon class="e" points="338.32 119.6 340.52 118.95 341.56 121.51 341.77 121.42 340.65 118.66 338.26 119.38 338.32 119.6 338.32 119.6"/></g><g><path class="c" d="M278.91,174.7h0s3.7-13.43-12.99-13.48c-2.87,14.29,12.99,13.48,12.99,13.48Z"/><path class="e" d="M277.79,173.95s-1.49-2.23-3.76-4.95c-2.26-2.72-5.3-5.94-8.4-7.94l-.12,.19c3.07,1.97,6.09,5.18,8.35,7.89,1.13,1.36,2.06,2.59,2.72,3.48,.33,.45,.58,.81,.76,1.06,.17,.25,.27,.39,.27,.39l.19-.12h0Z"/><polygon class="e" points="274.25 172.24 274.59 169.86 277.59 170.33 277.62 170.1 274.39 169.6 274.02 172.2 274.25 172.24 274.25 172.24"/><polygon class="e" points="272.38 170.06 272.7 167.79 275.46 167.92 275.47 167.69 272.5 167.55 272.15 170.02 272.38 170.06 272.38 170.06"/><polygon class="e" points="270.74 168.02 271.06 165.74 273.82 165.87 273.83 165.65 270.86 165.51 270.51 167.98 270.74 168.02 270.74 168.02"/><polygon class="e" points="268.51 165.89 268.83 163.61 271.59 163.74 271.6 163.52 268.63 163.38 268.28 165.85 268.51 165.89 268.51 165.89"/></g><g><path class="c" d="M334.15,167.89h0s13.42-3.74,4.87-18.07c-13.73,4.89-4.88,18.07-4.88,18.07Z"/><path class="e" d="M334.21,166.55s1.14-2.42,2.31-5.77c1.17-3.34,2.37-7.6,2.48-11.29h-.23c-.11,3.64-1.31,7.88-2.47,11.21-.58,1.67-1.16,3.1-1.59,4.12-.21,.51-.39,.92-.52,1.19-.12,.28-.19,.43-.2,.43l.2,.1h0Z"/><polygon class="e" points="333.86 162.63 336.07 161.7 337.21 164.51 337.42 164.42 336.19 161.4 333.77 162.42 333.86 162.63 333.86 162.63"/><polygon class="e" points="334.76 159.9 336.88 159.01 338.19 161.44 338.38 161.33 336.98 158.72 334.67 159.69 334.76 159.9 334.76 159.9"/><polygon class="e" points="335.67 157.44 337.78 156.55 339.09 158.99 339.29 158.88 337.88 156.26 335.58 157.23 335.67 157.44 335.67 157.44"/><polygon class="e" points="336.35 154.44 338.46 153.54 339.77 155.98 339.97 155.87 338.56 153.25 336.26 154.22 336.35 154.44 336.35 154.44"/></g><g><path class="c" d="M302.84,173.65h0s13.89-1.11,8.24-16.81c-14.41,2.18-8.24,16.81-8.24,16.81Z"/><path class="e" d="M303.16,172.35s1.58-2.16,3.37-5.22c1.79-3.06,3.78-7.01,4.6-10.61l-.22-.05c-.81,3.56-2.79,7.5-4.57,10.54-.89,1.52-1.73,2.82-2.35,3.74-.31,.46-.56,.82-.74,1.07-.18,.25-.27,.38-.27,.38l.18,.14h0Z"/><polygon class="e" points="303.56 168.43 305.91 167.94 306.5 170.92 306.72 170.87 306.09 167.67 303.52 168.21 303.56 168.43 303.56 168.43"/><polygon class="e" points="304.97 165.93 307.22 165.46 308.04 168.1 308.26 168.03 307.37 165.19 304.93 165.7 304.97 165.93 304.97 165.93"/><polygon class="e" points="306.33 163.69 308.58 163.22 309.4 165.86 309.62 165.79 308.74 162.95 306.29 163.46 306.33 163.69 306.33 163.69"/><polygon class="e" points="307.58 160.87 309.82 160.4 310.64 163.04 310.86 162.96 309.98 160.13 307.53 160.64 307.58 160.87 307.58 160.87"/></g><g><path class="c" d="M292.95,169.27h0s9.61-10.09-5.08-18.02c-9.28,11.23,5.07,18.02,5.07,18.02Z"/><path class="e" d="M292.32,168.09s-.26-2.67-.97-6.13c-.71-3.47-1.86-7.74-3.65-10.97l-.2,.11c1.77,3.19,2.92,7.45,3.63,10.9,.35,1.73,.6,3.26,.75,4.35,.08,.55,.13,.99,.17,1.29,.04,.3,.05,.47,.05,.47l.23-.02h0Z"/><polygon class="e" points="290.01 164.91 291.43 162.98 293.85 164.8 293.98 164.62 291.37 162.65 289.82 164.77 290.01 164.91 290.01 164.91"/><polygon class="e" points="289.38 162.1 290.74 160.25 293.12 161.67 293.23 161.47 290.68 159.95 289.2 161.96 289.38 162.1 289.38 162.1"/><polygon class="e" points="288.91 159.53 290.27 157.68 292.64 159.1 292.75 158.9 290.2 157.37 288.72 159.39 288.91 159.53 288.91 159.53"/><polygon class="e" points="287.95 156.59 289.31 154.74 291.68 156.16 291.79 155.97 289.24 154.44 287.76 156.46 287.95 156.59 287.95 156.59"/></g><g><path class="c" d="M297.67,141.52h0s13.52,3.38,13.17-13.3c-14.35-2.53-13.17,13.3-13.17,13.3Z"/><path class="e" d="M298.39,140.39s2.19-1.54,4.86-3.87c2.67-2.33,5.81-5.44,7.74-8.59l-.19-.12c-1.9,3.11-5.03,6.21-7.69,8.53-1.33,1.16-2.54,2.12-3.42,2.8-.44,.34-.79,.6-1.04,.78-.25,.18-.38,.28-.38,.28l.13,.19h0Z"/><polygon class="e" points="300.01 136.81 302.39 137.09 302 140.1 302.23 140.12 302.65 136.88 300.04 136.58 300.01 136.81 300.01 136.81"/><polygon class="e" points="302.15 134.88 304.43 135.15 304.36 137.91 304.59 137.92 304.66 134.95 302.18 134.65 302.15 134.88 302.15 134.88"/><polygon class="e" points="304.15 133.19 306.43 133.46 306.37 136.23 306.59 136.23 306.66 133.26 304.18 132.96 304.15 133.19 304.15 133.19"/><polygon class="e" points="306.23 130.91 308.51 131.18 308.44 133.95 308.67 133.95 308.74 130.98 306.26 130.68 306.23 130.91 306.23 130.91"/></g><g><path class="c" d="M250.6,138.58h0s13.88-1.2,8.13-16.86c-14.39,2.27-8.13,16.86-8.13,16.86Z"/><path class="e" d="M250.91,137.28s1.57-2.17,3.33-5.24c1.77-3.07,3.73-7.03,4.53-10.64l-.22-.05c-.79,3.56-2.74,7.51-4.5,10.57-.88,1.53-1.71,2.83-2.32,3.76-.31,.46-.56,.83-.73,1.08-.17,.25-.27,.38-.27,.38l.18,.14h0Z"/><polygon class="e" points="251.29 133.36 253.63 132.85 254.24 135.83 254.46 135.78 253.81 132.58 251.24 133.13 251.29 133.36 251.29 133.36"/><polygon class="e" points="252.68 130.85 254.93 130.36 255.76 132.99 255.98 132.92 255.08 130.09 252.64 130.62 252.68 130.85 252.68 130.85"/><polygon class="e" points="254.03 128.6 256.27 128.11 257.11 130.75 257.32 130.67 256.42 127.84 253.98 128.37 254.03 128.6 254.03 128.6"/><polygon class="e" points="255.25 125.77 257.49 125.28 258.33 127.92 258.55 127.84 257.65 125.01 255.2 125.54 255.25 125.77 255.25 125.77"/></g><g><path class="c" d="M205.43,123.98h0s3.3-13.85-13.04-12.91c-2.47,14.66,13.04,12.91,13.04,12.91Z"/><path class="e" d="M204.32,123.29s-1.51-2.17-3.8-4.79c-2.28-2.63-5.33-5.71-8.42-7.56l-.12,.2c3.05,1.82,6.09,4.89,8.36,7.51,1.14,1.31,2.08,2.5,2.74,3.37,.33,.43,.59,.79,.77,1.03,.18,.24,.27,.38,.27,.38l.19-.14h0Z"/><polygon class="e" points="200.81 121.76 201.08 119.33 204.03 119.62 204.06 119.39 200.88 119.08 200.58 121.74 200.81 121.76 200.81 121.76"/><polygon class="e" points="198.92 119.66 199.19 117.34 201.89 117.31 201.89 117.07 198.98 117.11 198.7 119.64 198.92 119.66 198.92 119.66"/><polygon class="e" points="197.27 117.69 197.53 115.36 200.24 115.33 200.24 115.1 197.33 115.13 197.05 117.66 197.27 117.69 197.27 117.69"/><polygon class="e" points="195.04 115.66 195.3 113.33 198 113.3 198 113.07 195.1 113.1 194.81 115.64 195.04 115.66 195.04 115.66"/></g><g><path class="c" d="M440.93,154.36h0s10.11-8.97-3.49-17.94c-9.88,10.11,3.49,17.94,3.49,17.94Z"/><path class="e" d="M440.42,153.16s-.04-2.61-.46-6.04c-.41-3.43-1.19-7.68-2.67-10.97l-.2,.09c1.46,3.25,2.24,7.49,2.65,10.9,.21,1.71,.32,3.21,.38,4.29,.03,.54,.05,.97,.06,1.27,.01,.3,.01,.46,.01,.46h.22Z"/><polygon class="e" points="438.43 149.86 439.96 148.11 442.16 150.09 442.31 149.93 439.93 147.79 438.26 149.71 438.43 149.86 438.43 149.86"/><polygon class="e" points="438.05 147.08 439.51 145.41 441.7 146.99 441.82 146.81 439.47 145.11 437.88 146.93 438.05 147.08 438.05 147.08"/><polygon class="e" points="437.79 144.54 439.25 142.86 441.44 144.45 441.56 144.27 439.21 142.56 437.62 144.39 437.79 144.54 437.79 144.54"/><polygon class="e" points="437.09 141.61 438.55 139.93 440.74 141.52 440.87 141.33 438.52 139.63 436.92 141.46 437.09 141.61 437.09 141.61"/></g><g><path class="c" d="M587.85,134.88h0s11.39,8,17.12-7.74c-12.48-7.5-17.12,7.74-17.12,7.74Z"/><path class="e" d="M588.93,134.07s2.6-.66,5.94-1.89c3.33-1.23,7.4-3.01,10.34-5.27l-.14-.18c-2.9,2.23-6.96,4.02-10.28,5.24-1.66,.61-3.14,1.08-4.2,1.4-.53,.16-.96,.28-1.25,.36-.29,.08-.46,.12-.46,.12l.05,.22h0Z"/><polygon class="e" points="591.75 131.3 593.87 132.42 592.42 135.09 592.62 135.2 594.19 132.32 591.86 131.1 591.75 131.3 591.75 131.3"/><polygon class="e" points="594.44 130.26 596.48 131.33 595.41 133.89 595.62 133.98 596.77 131.22 594.56 130.06 594.44 130.26 594.44 130.26"/><polygon class="e" points="596.93 129.4 598.96 130.47 597.9 133.03 598.11 133.11 599.25 130.36 597.04 129.2 596.93 129.4 596.93 129.4"/><polygon class="e" points="599.69 128.01 601.72 129.07 600.66 131.64 600.87 131.72 602.02 128.97 599.8 127.8 599.69 128.01 599.69 128.01"/></g><g><path class="c" d="M219.57,134.81h0s10.93-7.79-1.26-17.26c-10.85,8.89,1.26,17.26,1.26,17.26Z"/><path class="e" d="M219.21,133.63s.27-2.48,.28-5.76c0-3.28-.24-7.37-1.29-10.59l-.21,.07c1.04,3.19,1.29,7.25,1.28,10.52,0,1.63-.07,3.07-.14,4.1-.03,.51-.07,.92-.09,1.21-.03,.28-.04,.44-.04,.44l.22,.02h0Z"/><polygon class="e" points="217.67 130.37 219.37 128.81 221.28 130.85 221.44 130.7 219.38 128.51 217.52 130.21 217.67 130.37 217.67 130.37"/><polygon class="e" points="217.63 127.7 219.26 126.21 221.2 127.87 221.34 127.71 219.26 125.93 217.48 127.55 217.63 127.7 217.63 127.7"/><polygon class="e" points="217.68 125.27 219.31 123.79 221.25 125.44 221.39 125.28 219.31 123.5 217.53 125.12 217.68 125.27 217.68 125.27"/><polygon class="e" points="217.35 122.45 218.98 120.96 220.92 122.61 221.06 122.45 218.98 120.67 217.2 122.29 217.35 122.45 217.35 122.45"/></g><g><path class="c" d="M247.42,127.35h0s-.09-15.5-17.12-10.29c1.17,16.15,17.12,10.29,17.12,10.29Z"/><path class="e" d="M246.07,126.91s-2.16-1.9-5.25-4.09c-3.09-2.19-7.11-4.67-10.85-5.82l-.07,.24c3.7,1.14,7.7,3.61,10.78,5.79,1.54,1.09,2.85,2.11,3.77,2.86,.46,.37,.83,.68,1.08,.89,.25,.21,.38,.33,.38,.33l.16-.19h0Z"/><polygon class="e" points="241.96 126.2 241.63 123.56 244.82 123.11 244.79 122.86 241.35 123.35 241.72 126.24 241.96 126.2 241.96 126.2"/><polygon class="e" points="239.43 124.47 239.1 121.94 241.96 121.21 241.9 120.97 238.83 121.75 239.18 124.5 239.43 124.47 239.43 124.47"/><polygon class="e" points="237.17 122.8 236.84 120.28 239.7 119.55 239.64 119.3 236.57 120.09 236.92 122.84 237.17 122.8 237.17 122.8"/><polygon class="e" points="234.28 121.24 233.96 118.71 236.81 117.98 236.75 117.73 233.68 118.52 234.04 121.27 234.28 121.24 234.28 121.24"/></g><g><path class="c" d="M468.7,143.96h0s14.74,3.28,13.48-14.04c-15.6-2.38-13.49,14.04-13.49,14.04Z"/><path class="e" d="M469.41,142.77s2.28-1.64,5.03-4.1c2.75-2.46,5.98-5.75,7.88-9.05l-.21-.12c-1.88,3.27-5.1,6.54-7.84,9-1.37,1.23-2.62,2.25-3.53,2.97-.45,.36-.82,.64-1.08,.83-.26,.19-.4,.29-.4,.29l.15,.19h0Z"/><polygon class="e" points="470.97 139.02 473.56 139.27 473.3 142.41 473.54 142.43 473.82 139.06 470.99 138.78 470.97 139.02 470.97 139.02"/><polygon class="e" points="473.17 136.99 475.64 137.23 475.72 140.1 475.97 140.09 475.88 137.01 473.19 136.75 473.17 136.99 473.17 136.99"/><polygon class="e" points="475.24 135.2 477.71 135.44 477.79 138.31 478.04 138.31 477.95 135.22 475.26 134.96 475.24 135.2 475.24 135.2"/><polygon class="e" points="477.36 132.79 479.83 133.04 479.91 135.91 480.15 135.9 480.07 132.82 477.38 132.56 477.36 132.79 477.36 132.79"/></g><g><path class="c" d="M462.76,183.98h0s4.22-12.97-11.46-13.34c-3.49,13.82,11.45,13.34,11.45,13.34Z"/><path class="e" d="M461.76,183.24s-1.28-2.19-3.25-4.87c-1.98-2.69-4.65-5.87-7.45-7.87l-.13,.18c2.77,1.98,5.44,5.15,7.41,7.82,.98,1.34,1.8,2.55,2.36,3.43,.28,.44,.5,.8,.65,1.04,.15,.25,.23,.38,.23,.38l.19-.12h0Z"/><polygon class="e" points="458.52 181.51 458.97 179.21 461.77 179.72 461.81 179.5 458.8 178.95 458.31 181.47 458.52 181.51 458.52 181.51"/><polygon class="e" points="456.89 179.35 457.32 177.15 459.9 177.33 459.92 177.11 457.14 176.92 456.67 179.32 456.89 179.35 456.89 179.35"/><polygon class="e" points="455.46 177.34 455.89 175.14 458.48 175.32 458.5 175.1 455.71 174.91 455.25 177.3 455.46 177.34 455.46 177.34"/><polygon class="e" points="453.48 175.23 453.91 173.03 456.5 173.21 456.52 172.99 453.74 172.79 453.27 175.19 453.48 175.23 453.48 175.23"/></g><g><path class="c" d="M396.15,148.97h0s9.36,4.36,11.07-7.39c-10.06-3.88-11.07,7.39-11.07,7.39Z"/><path class="e" d="M396.81,148.28s1.76-.76,3.96-2c2.2-1.24,4.83-2.96,6.59-4.88l-.13-.11c-1.74,1.9-4.36,3.62-6.55,4.85-1.1,.62-2.08,1.12-2.79,1.46-.36,.17-.64,.31-.84,.4-.2,.09-.31,.14-.31,.14l.07,.15h0Z"/><polygon class="e" points="398.4 146.01 400.09 146.56 399.45 148.61 399.61 148.66 400.29 146.45 398.45 145.85 398.4 146.01 398.4 146.01"/><polygon class="e" points="400.17 144.98 401.78 145.5 401.41 147.43 401.57 147.46 401.97 145.39 400.22 144.82 400.17 144.98 400.17 144.98"/><polygon class="e" points="401.81 144.09 403.42 144.61 403.05 146.54 403.22 146.57 403.62 144.5 401.86 143.93 401.81 144.09 401.81 144.09"/><polygon class="e" points="403.58 142.79 405.19 143.32 404.82 145.24 404.98 145.28 405.38 143.21 403.63 142.64 403.58 142.79 403.58 142.79"/></g><g><path class="c" d="M500.96,145.45h0s-1.39-10.23-12.2-5.32c2.17,10.56,12.2,5.32,12.2,5.32Z"/><path class="e" d="M500.03,145.27s-1.59-1.07-3.82-2.25c-2.23-1.18-5.1-2.47-7.67-2.91l-.03,.17c2.54,.43,5.4,1.72,7.62,2.89,1.11,.59,2.06,1.15,2.74,1.56,.34,.21,.6,.38,.79,.5,.18,.12,.28,.18,.28,.18l.09-.14h0Z"/><polygon class="e" points="497.26 145.16 496.81 143.44 498.88 142.87 498.84 142.7 496.61 143.32 497.1 145.2 497.26 145.16 497.26 145.16"/><polygon class="e" points="495.43 144.23 495 142.59 496.82 141.86 496.76 141.7 494.81 142.49 495.28 144.27 495.43 144.23 495.43 144.23"/><polygon class="e" points="493.8 143.32 493.37 141.68 495.19 140.95 495.13 140.8 493.17 141.58 493.64 143.37 493.8 143.32 493.8 143.32"/><polygon class="e" points="491.75 142.54 491.32 140.9 493.15 140.17 493.09 140.01 491.13 140.79 491.6 142.58 491.75 142.54 491.75 142.54"/></g><g><path class="c" d="M518.87,161.76h0s13.66,.91,10.15-14.43c-14.3,.01-10.15,14.43-10.15,14.43Z"/><path class="e" d="M519.34,160.59s1.81-1.78,3.94-4.37c2.12-2.59,4.56-5.97,5.82-9.19l-.21-.08c-1.24,3.18-3.67,6.56-5.78,9.14-1.06,1.29-2.04,2.38-2.76,3.14-.36,.38-.65,.69-.85,.89-.2,.21-.31,.32-.31,.32l.16,.15h0Z"/><polygon class="e" points="520.23 157.02 522.57 156.89 522.77 159.73 522.99 159.72 522.78 156.66 520.21 156.8 520.23 157.02 520.23 157.02"/><polygon class="e" points="521.92 154.9 524.16 154.77 524.63 157.33 524.85 157.3 524.35 154.54 521.9 154.68 521.92 154.9 521.92 154.9"/><polygon class="e" points="523.52 153.01 525.77 152.89 526.23 155.45 526.45 155.41 525.96 152.66 523.51 152.79 523.52 153.01 523.52 153.01"/><polygon class="e" points="525.09 150.57 527.34 150.44 527.8 153 528.02 152.97 527.52 150.21 525.07 150.35 525.09 150.57 525.09 150.57"/></g><g><path class="c" d="M547.85,161.31h0s11.84-5.66,1.7-16.84c-11.95,6.73-1.7,16.84-1.7,16.84Z"/><path class="e" d="M547.71,160.12s.68-2.34,1.24-5.5c.56-3.16,1.01-7.14,.54-10.42l-.21,.03c.46,3.24,.02,7.21-.54,10.36-.28,1.57-.59,2.95-.83,3.92-.12,.49-.22,.88-.29,1.15-.07,.27-.11,.41-.11,.41l.21,.05h0Z"/><polygon class="e" points="546.77 156.72 548.67 155.5 550.17 157.79 550.35 157.67 548.73 155.22 546.65 156.54 546.77 156.72 546.77 156.72"/><polygon class="e" points="547.18 154.14 549 152.98 550.59 154.91 550.76 154.77 549.05 152.71 547.06 153.97 547.18 154.14 547.18 154.14"/><polygon class="e" points="547.64 151.81 549.46 150.65 551.05 152.57 551.21 152.44 549.5 150.38 547.52 151.64 547.64 151.81 547.64 151.81"/><polygon class="e" points="547.8 149.03 549.62 147.87 551.21 149.8 551.37 149.66 549.66 147.6 547.68 148.86 547.8 149.03 547.8 149.03"/></g><g><path class="c" d="M566.56,129.91h0s5.38-13.47-11.23-14.95c-4.67,14.41,11.22,14.95,11.22,14.95Z"/><path class="e" d="M565.54,129.05s-1.2-2.41-3.11-5.4c-1.91-2.99-4.52-6.55-7.36-8.87l-.15,.18c2.8,2.29,5.41,5.84,7.31,8.81,.95,1.49,1.73,2.83,2.27,3.81,.27,.49,.48,.88,.62,1.15,.14,.27,.22,.42,.22,.42l.21-.11h0Z"/><polygon class="e" points="562.23 126.99 562.87 124.59 565.79 125.32 565.85 125.09 562.7 124.3 562.01 126.94 562.23 126.99 562.23 126.99"/><polygon class="e" points="560.64 124.6 561.25 122.29 563.98 122.66 564.02 122.43 561.08 122.03 560.42 124.54 560.64 124.6 560.64 124.6"/><polygon class="e" points="559.27 122.36 559.88 120.05 562.61 120.42 562.64 120.19 559.71 119.79 559.04 122.3 559.27 122.36 559.27 122.36"/><polygon class="e" points="557.32 119.98 557.93 117.68 560.66 118.05 560.69 117.82 557.76 117.42 557.09 119.93 557.32 119.98 557.32 119.98"/></g><g><path class="c" d="M627.28,148.77h0s-.25-13.5-15.03-8.77c1.21,14.05,15.03,8.77,15.03,8.77Z"/><path class="e" d="M626.1,148.4s-1.9-1.63-4.62-3.51c-2.72-1.87-6.25-3.98-9.52-4.95l-.06,.21c3.23,.95,6.75,3.05,9.46,4.92,1.35,.93,2.51,1.81,3.32,2.45,.41,.32,.73,.58,.95,.76,.22,.18,.34,.28,.34,.28l.14-.17h0Z"/><polygon class="e" points="622.51 147.83 622.19 145.54 624.97 145.11 624.94 144.89 621.95 145.35 622.3 147.87 622.51 147.83 622.51 147.83"/><polygon class="e" points="620.28 146.35 619.97 144.15 622.45 143.48 622.4 143.27 619.73 143.99 620.07 146.38 620.28 146.35 620.28 146.35"/><polygon class="e" points="618.3 144.93 617.99 142.73 620.46 142.06 620.41 141.85 617.75 142.57 618.08 144.96 618.3 144.93 618.3 144.93"/><polygon class="e" points="615.76 143.59 615.45 141.4 617.93 140.73 617.88 140.51 615.21 141.23 615.55 143.63 615.76 143.59 615.76 143.59"/></g><g><path class="c" d="M499.9,170.59h0s.15-13.85-15.16-9.45c.81,14.45,15.15,9.45,15.15,9.45Z"/><path class="e" d="M498.69,170.17s-1.9-1.73-4.63-3.74c-2.73-2-6.29-4.28-9.62-5.36l-.07,.21c3.29,1.07,6.83,3.34,9.56,5.33,1.36,1,2.52,1.93,3.33,2.61,.41,.34,.73,.62,.95,.81,.22,.19,.34,.3,.34,.3l.15-.17h0Z"/><polygon class="e" points="495.03 169.48 494.77 167.12 497.63 166.76 497.61 166.53 494.53 166.92 494.82 169.51 495.03 169.48 495.03 169.48"/><polygon class="e" points="492.79 167.89 492.54 165.63 495.1 165.02 495.05 164.8 492.3 165.46 492.57 167.92 492.79 167.89 492.79 167.89"/><polygon class="e" points="490.8 166.37 490.55 164.11 493.11 163.5 493.06 163.28 490.31 163.94 490.58 166.4 490.8 166.37 490.8 166.37"/><polygon class="e" points="488.24 164.93 487.99 162.66 490.55 162.05 490.5 161.83 487.75 162.49 488.02 164.95 488.24 164.93 488.24 164.93"/></g><g><path class="c" d="M151.18,171.29h0s2.9-13.87-13.33-12.48c-2.05,14.66,13.33,12.48,13.33,12.48Z"/><path class="e" d="M150.06,170.64s-1.57-2.12-3.91-4.67c-2.34-2.55-5.46-5.54-8.59-7.29l-.11,.2c3.09,1.73,6.2,4.7,8.53,7.24,1.17,1.27,2.14,2.43,2.82,3.28,.34,.42,.61,.77,.79,1,.18,.24,.28,.37,.28,.37l.18-.14h0Z"/><polygon class="e" points="146.52 169.22 146.73 166.79 149.67 167 149.69 166.77 146.52 166.55 146.3 169.2 146.52 169.22 146.52 169.22"/><polygon class="e" points="144.59 167.18 144.78 164.86 147.48 164.75 147.47 164.52 144.58 164.64 144.36 167.16 144.59 167.18 144.59 167.18"/><polygon class="e" points="142.89 165.26 143.08 162.94 145.78 162.83 145.77 162.6 142.88 162.72 142.66 165.24 142.89 165.26 142.89 165.26"/><polygon class="e" points="140.61 163.3 140.8 160.98 143.5 160.88 143.49 160.65 140.6 160.76 140.38 163.29 140.61 163.3 140.61 163.3"/></g><g><path class="c" d="M109.33,149.65h0s15.05,3.68,14.13-14.11c-15.95-2.78-14.14,14.11-14.14,14.11Z"/><path class="e" d="M110.09,148.44s2.37-1.63,5.25-4.1c2.87-2.47,6.25-5.77,8.28-9.11l-.22-.13c-2,3.31-5.37,6.6-8.23,9.06-1.43,1.23-2.74,2.25-3.69,2.97-.47,.36-.86,.64-1.12,.83-.27,.19-.41,.29-.41,.29l.15,.2h0Z"/><polygon class="e" points="111.78 144.63 114.42 144.95 114.08 148.15 114.33 148.18 114.69 144.73 111.8 144.39 111.78 144.63 111.78 144.63"/><polygon class="e" points="114.07 142.59 116.6 142.89 116.62 145.84 116.87 145.84 116.85 142.67 114.1 142.35 114.07 142.59 114.07 142.59"/><polygon class="e" points="116.24 140.8 118.77 141.11 118.78 144.05 119.03 144.05 119.02 140.89 116.26 140.56 116.24 140.8 116.24 140.8"/><polygon class="e" points="118.46 138.38 120.99 138.69 121.01 141.63 121.26 141.63 121.24 138.47 118.48 138.14 118.46 138.38 118.46 138.38"/></g><g><path class="c" d="M190.69,173.13h0s10.44-6.8-1.71-20.58c-10.33,8.11,1.7,20.58,1.7,20.58Z"/><path class="e" d="M190.3,171.67s.19-2.86,.11-6.72c-.08-3.86-.44-8.72-1.55-12.74l-.2,.04c1.1,3.97,1.46,8.82,1.54,12.66,.04,1.92,.01,3.6-.02,4.79-.02,.6-.04,1.07-.06,1.4-.02,.33-.03,.5-.03,.5l.21,.07h0Z"/><polygon class="e" points="188.7 167.49 190.32 166.03 192.24 168.84 192.4 168.7 190.33 165.68 188.56 167.28 188.7 167.49 188.7 167.49"/><polygon class="e" points="188.59 164.35 190.14 162.95 192.08 165.32 192.22 165.16 190.13 162.61 188.45 164.14 188.59 164.35 188.59 164.35"/><polygon class="e" points="188.58 161.5 190.12 160.1 192.06 162.47 192.2 162.31 190.11 159.77 188.43 161.29 188.58 161.5 188.58 161.5"/><polygon class="e" points="188.18 158.11 189.72 156.71 191.66 159.07 191.8 158.91 189.71 156.37 188.03 157.89 188.18 158.11 188.18 158.11"/></g><g><path class="c" d="M113.95,178.54h0s13.66,.91,10.15-14.43c-14.3,.01-10.15,14.43-10.15,14.43Z"/><path class="e" d="M114.43,177.38s1.81-1.78,3.94-4.37c2.12-2.59,4.56-5.97,5.82-9.19l-.21-.08c-1.24,3.18-3.67,6.56-5.78,9.14-1.06,1.29-2.04,2.38-2.76,3.14-.36,.38-.65,.69-.85,.89-.2,.21-.31,.32-.31,.32l.16,.15h0Z"/><polygon class="e" points="115.31 173.8 117.66 173.67 117.85 176.51 118.08 176.5 117.86 173.44 115.3 173.59 115.31 173.8 115.31 173.8"/><polygon class="e" points="117 171.68 119.25 171.55 119.71 174.11 119.93 174.08 119.43 171.33 116.99 171.46 117 171.68 117 171.68"/><polygon class="e" points="118.61 169.79 120.86 169.67 121.32 172.23 121.54 172.19 121.04 169.44 118.59 169.58 118.61 169.79 118.61 169.79"/><polygon class="e" points="120.17 167.35 122.42 167.22 122.88 169.78 123.1 169.75 122.61 167 120.16 167.13 120.17 167.35 120.17 167.35"/></g><g><path class="c" d="M564.99,150.5h0s10.7,12.66,16.57-1c-11.75-12.59-16.57,1-16.57,1Z"/><path class="e" d="M566.05,150.12s2.51,.37,5.73,.46c3.22,.09,7.15-.09,10.02-1.21l-.13-.24c-2.83,1.1-6.75,1.29-9.96,1.2-1.6-.05-3.03-.16-4.06-.26-.51-.05-.92-.1-1.21-.14-.28-.04-.44-.06-.44-.06l.04,.25h0Z"/><polygon class="e" points="568.81 148.43 570.81 150.41 569.35 152.54 569.54 152.73 571.11 150.44 568.92 148.27 568.81 148.43 568.81 148.43"/><polygon class="e" points="571.41 148.46 573.33 150.35 572.25 152.53 572.45 152.69 573.61 150.36 571.52 148.3 571.41 148.46 571.41 148.46"/><polygon class="e" points="573.81 148.58 575.72 150.47 574.64 152.64 574.84 152.81 576 150.48 573.92 148.41 573.81 148.58 573.81 148.58"/><polygon class="e" points="576.49 148.27 578.4 150.16 577.32 152.34 577.52 152.51 578.68 150.17 576.6 148.11 576.49 148.27 576.49 148.27"/></g><g><path class="c" d="M660.37,130.01h0s9.85-9.51-3.88-17.21c-9.6,10.6,3.87,17.21,3.87,17.21Z"/><path class="e" d="M659.83,128.87s-.1-2.54-.59-5.85c-.49-3.31-1.36-7.39-2.9-10.48l-.2,.1c1.53,3.06,2.4,7.12,2.88,10.42,.24,1.65,.39,3.11,.48,4.15,.04,.52,.07,.94,.09,1.23,.02,.29,.02,.45,.02,.45h.22Z"/><polygon class="e" points="657.78 125.82 659.26 123.99 661.5 125.75 661.64 125.58 659.23 123.68 657.61 125.68 657.78 125.82 657.78 125.82"/><polygon class="e" points="657.34 123.14 658.76 121.39 660.97 122.77 661.09 122.58 658.71 121.1 657.17 123 657.34 123.14 657.34 123.14"/><polygon class="e" points="657.02 120.68 658.44 118.93 660.65 120.31 660.77 120.12 658.4 118.64 656.85 120.55 657.02 120.68 657.02 120.68"/><polygon class="e" points="656.27 117.88 657.68 116.13 659.89 117.51 660.01 117.32 657.64 115.84 656.09 117.74 656.27 117.88 656.27 117.88"/></g><g><path class="c" d="M619.99,177.79h0s12.27,6.06,14.89-9.46c-13.22-5.46-14.9,9.46-14.9,9.46Z"/><path class="e" d="M620.87,176.9s2.36-.95,5.31-2.53c2.95-1.58,6.5-3.77,8.89-6.27l-.16-.15c-2.36,2.47-5.89,4.66-8.84,6.23-1.47,.79-2.79,1.42-3.75,1.85-.48,.22-.86,.38-1.13,.5-.27,.11-.41,.17-.41,.17l.09,.2h0Z"/><polygon class="e" points="623.05 173.94 625.27 174.71 624.37 177.42 624.58 177.49 625.55 174.58 623.12 173.73 623.05 173.94 623.05 173.94"/><polygon class="e" points="625.43 172.62 627.55 173.36 627 175.91 627.22 175.96 627.81 173.22 625.5 172.41 625.43 172.62 625.43 172.62"/><polygon class="e" points="627.64 171.49 629.76 172.24 629.21 174.78 629.43 174.83 630.02 172.1 627.7 171.29 627.64 171.49 627.64 171.49"/><polygon class="e" points="630.02 169.83 632.14 170.58 631.59 173.12 631.81 173.17 632.4 170.44 630.09 169.63 630.02 169.83 630.02 169.83"/></g><g><path class="c" d="M662.35,164.37h0s3.38-13.27-12.34-12.61c-2.6,14.06,12.34,12.61,12.34,12.61Z"/><path class="e" d="M661.29,163.69s-1.42-2.11-3.58-4.67c-2.15-2.56-5.04-5.58-7.98-7.4l-.12,.19c2.9,1.8,5.78,4.8,7.93,7.35,1.07,1.28,1.96,2.44,2.59,3.28,.31,.42,.56,.76,.72,1,.17,.24,.25,.37,.25,.37l.18-.13h0Z"/><polygon class="e" points="657.94 162.17 658.24 159.83 661.07 160.16 661.1 159.94 658.06 159.59 657.73 162.14 657.94 162.17 657.94 162.17"/><polygon class="e" points="656.16 160.12 656.45 157.89 659.05 157.9 659.06 157.67 656.26 157.66 655.95 160.09 656.16 160.12 656.16 160.12"/><polygon class="e" points="654.6 158.19 654.89 155.96 657.49 155.97 657.5 155.75 654.7 155.74 654.39 158.17 654.6 158.19 654.6 158.19"/><polygon class="e" points="652.48 156.21 652.77 153.97 655.37 153.99 655.38 153.76 652.58 153.75 652.27 156.18 652.48 156.21 652.48 156.21"/></g><g><path class="c" d="M11.81,128.12h0s14.88,4.33,14.73-13.48c-15.81-3.47-14.74,13.48-14.74,13.48Z"/><path class="e" d="M12.61,126.95s2.44-1.53,5.42-3.87c2.98-2.34,6.5-5.49,8.67-8.75l-.21-.14c-2.14,3.22-5.65,6.36-8.62,8.69-1.48,1.17-2.83,2.13-3.81,2.8-.49,.34-.89,.6-1.16,.78-.27,.18-.42,.27-.42,.27l.14,.21h0Z"/><polygon class="e" points="14.46 123.22 17.09 123.65 16.61 126.84 16.86 126.88 17.37 123.44 14.5 122.97 14.46 123.22 14.46 123.22"/><polygon class="e" points="16.85 121.28 19.36 121.69 19.25 124.63 19.5 124.65 19.62 121.48 16.88 121.04 16.85 121.28 16.85 121.28"/><polygon class="e" points="19.09 119.59 21.6 120 21.49 122.94 21.74 122.96 21.86 119.79 19.12 119.34 19.09 119.59 19.09 119.59"/><polygon class="e" points="21.41 117.27 23.93 117.68 23.81 120.62 24.07 120.63 24.18 117.47 21.45 117.02 21.41 117.27 21.41 117.27"/></g><g><path class="c" d="M55.54,152.08h0s13.65-7.32,1.09-19.94c-13.72,8.59-1.09,19.94-1.09,19.94Z"/><path class="e" d="M55.3,150.67s.67-2.8,1.16-6.56c.49-3.76,.8-8.47,.07-12.31l-.25,.05c.72,3.8,.42,8.5-.07,12.24-.24,1.87-.53,3.5-.76,4.67-.11,.58-.21,1.05-.28,1.37-.07,.32-.11,.49-.11,.49l.24,.05h0Z"/><polygon class="e" points="54.01 146.71 56.18 145.18 58.07 147.79 58.28 147.65 56.24 144.84 53.86 146.51 54.01 146.71 54.01 146.71"/><polygon class="e" points="54.35 143.66 56.43 142.19 58.42 144.37 58.6 144.21 56.48 141.86 54.21 143.46 54.35 143.66 54.35 143.66"/><polygon class="e" points="54.77 140.89 56.85 139.42 58.83 141.6 59.02 141.43 56.89 139.09 54.62 140.69 54.77 140.89 54.77 140.89"/><polygon class="e" points="54.8 137.6 56.89 136.13 58.87 138.31 59.06 138.15 56.93 135.8 54.66 137.4 54.8 137.6 54.8 137.6"/></g><g><path class="c" d="M44.98,152.34h0s5.74-17.54-13.35-16.72c-4.9,18.6,13.34,16.72,13.34,16.72Z"/><path class="e" d="M43.79,151.44s-1.46-2.79-3.74-6.19c-2.28-3.39-5.4-7.39-8.72-9.81l-.16,.25c3.29,2.39,6.39,6.37,8.67,9.75,1.14,1.69,2.07,3.23,2.72,4.35,.32,.56,.58,1.01,.75,1.33,.17,.31,.26,.49,.26,.49l.23-.17h0Z"/><polygon class="e" points="39.93 149.41 40.58 146.33 43.96 146.77 44.02 146.48 40.38 146 39.67 149.38 39.93 149.41 39.93 149.41"/><polygon class="e" points="38.03 146.7 38.65 143.75 41.8 143.77 41.83 143.47 38.45 143.45 37.77 146.66 38.03 146.7 38.03 146.7"/><polygon class="e" points="36.38 144.15 37.01 141.19 40.15 141.22 40.19 140.92 36.81 140.9 36.12 144.11 36.38 144.15 36.38 144.15"/><polygon class="e" points="34.07 141.51 34.69 138.56 37.84 138.58 37.87 138.29 34.49 138.27 33.81 141.48 34.07 141.51 34.07 141.51"/></g><g><path class="c" d="M5.42,173.45h0s10.88,11.03,19.44-4.59c-12.12-10.74-19.44,4.59-19.44,4.59Z"/><path class="e" d="M6.7,172.83s2.88-.15,6.62-.74c3.74-.59,8.35-1.63,11.83-3.41l-.12-.22c-3.44,1.77-8.03,2.8-11.76,3.39-1.86,.29-3.51,.48-4.69,.59-.59,.06-1.07,.09-1.39,.11-.33,.02-.5,.03-.5,.03l.02,.25h0Z"/><polygon class="e" points="10.13 170.47 12.22 172.12 10.25 174.68 10.45 174.83 12.57 172.08 10.28 170.27 10.13 170.47 10.13 170.47"/><polygon class="e" points="13.16 169.94 15.16 171.52 13.63 174.04 13.84 174.17 15.48 171.47 13.31 169.74 13.16 169.94 13.16 169.94"/><polygon class="e" points="15.94 169.55 17.94 171.13 16.4 173.65 16.62 173.79 18.26 171.08 16.09 169.36 15.94 169.55 15.94 169.55"/><polygon class="e" points="19.1 168.66 21.1 170.24 19.57 172.76 19.78 172.89 21.43 170.19 19.25 168.46 19.1 168.66 19.1 168.66"/></g><g><path class="c" d="M62.45,131.55h0s14.66,5,15.33-12.8c-15.64-4.19-15.33,12.8-15.33,12.8Z"/><path class="e" d="M63.31,130.42s2.51-1.42,5.59-3.62c3.08-2.2,6.74-5.19,9.06-8.34l-.2-.15c-2.29,3.12-5.93,6.1-9,8.29-1.54,1.1-2.93,2-3.94,2.63-.5,.31-.91,.56-1.19,.73-.28,.17-.44,.25-.44,.25l.13,.21h0Z"/><polygon class="e" points="65.33 126.78 67.93 127.32 67.31 130.49 67.56 130.54 68.23 127.13 65.38 126.53 65.33 126.78 65.33 126.78"/><polygon class="e" points="67.8 124.95 70.29 125.47 70.05 128.41 70.3 128.43 70.56 125.28 67.85 124.71 67.8 124.95 67.8 124.95"/><polygon class="e" points="70.11 123.36 72.61 123.88 72.36 126.82 72.61 126.84 72.87 123.69 70.16 123.12 70.11 123.36 70.11 123.36"/><polygon class="e" points="72.54 121.15 75.03 121.67 74.79 124.61 75.04 124.63 75.3 121.48 72.59 120.9 72.54 121.15 72.54 121.15"/></g><g><path class="c" d="M115.46,136.66h0s.8-15.48-16.5-11.25c.25,16.19,16.5,11.25,16.5,11.25Z"/><path class="e" d="M114.13,136.14s-2.05-2.02-5.01-4.39c-2.96-2.36-6.83-5.07-10.5-6.43l-.09,.24c3.62,1.35,7.48,4.04,10.43,6.4,1.47,1.18,2.72,2.27,3.6,3.07,.44,.4,.79,.72,1.02,.95,.24,.23,.36,.35,.36,.35l.17-.18h0Z"/><polygon class="e" points="110.07 135.2 109.89 132.54 113.1 132.28 113.08 132.02 109.63 132.31 109.83 135.22 110.07 135.2 110.07 135.2"/><polygon class="e" points="107.64 133.32 107.46 130.78 110.35 130.21 110.31 129.97 107.2 130.57 107.4 133.34 107.64 133.32 107.64 133.32"/><polygon class="e" points="105.48 131.53 105.3 128.99 108.19 128.42 108.15 128.18 105.04 128.79 105.24 131.55 105.48 131.53 105.48 131.53"/><polygon class="e" points="102.69 129.8 102.51 127.26 105.4 126.69 105.36 126.44 102.25 127.05 102.44 129.82 102.69 129.8 102.69 129.8"/></g><g><path class="c" d="M90.58,181.63h0s1.85-15.39-15.7-12.35c-.85,16.17,15.7,12.35,15.7,12.35Z"/><path class="e" d="M89.3,181.02s-1.91-2.16-4.7-4.72c-2.79-2.56-6.47-5.52-10.04-7.13l-.1,.23c3.52,1.59,7.19,4.54,9.98,7.09,1.39,1.27,2.56,2.45,3.38,3.31,.41,.43,.74,.78,.96,1.02,.22,.24,.34,.37,.34,.37l.18-.17h0Z"/><polygon class="e" points="85.31 179.8 85.31 177.14 88.53 177.09 88.53 176.84 85.06 176.89 85.07 179.8 85.31 179.8 85.31 179.8"/><polygon class="e" points="83.01 177.76 83.01 175.22 85.93 174.85 85.9 174.6 82.76 174.99 82.77 177.77 83.01 177.76 83.01 177.76"/><polygon class="e" points="80.98 175.83 80.98 173.28 83.9 172.91 83.87 172.66 80.73 173.06 80.73 175.83 80.98 175.83 80.98 175.83"/><polygon class="e" points="78.31 173.91 78.31 171.37 81.23 171 81.2 170.75 78.06 171.14 78.07 173.92 78.31 173.91 78.31 173.91"/></g><g><path class="c" d="M202.44,162.95h0s13.15-4.58,3.72-18.35c-13.39,5.75-3.72,18.35-3.72,18.35Z"/><path class="e" d="M202.42,161.61s.98-2.49,1.94-5.9c.95-3.41,1.88-7.74,1.76-11.43h-.23c.12,3.65-.8,7.96-1.76,11.36-.48,1.7-.96,3.17-1.32,4.21-.18,.52-.33,.94-.44,1.22-.11,.29-.17,.44-.17,.44l.21,.09h0Z"/><polygon class="e" points="201.82 157.72 203.96 156.65 205.29 159.38 205.49 159.28 204.07 156.34 201.72 157.51 201.82 157.72 201.82 157.72"/><polygon class="e" points="202.55 154.94 204.6 153.92 206.06 156.26 206.25 156.14 204.68 153.62 202.45 154.73 202.55 154.94 202.55 154.94"/><polygon class="e" points="203.3 152.43 205.35 151.41 206.81 153.75 207.01 153.63 205.44 151.11 203.2 152.22 203.3 152.43 203.3 152.43"/><polygon class="e" points="203.79 149.38 205.84 148.36 207.3 150.71 207.49 150.58 205.92 148.06 203.68 149.18 203.79 149.38 203.79 149.38"/></g><g><path class="c" d="M249.33,160.46h0s8.65-10.92-6.7-17.48c-8.22,12.03,6.69,17.48,6.69,17.48Z"/><path class="e" d="M248.59,159.34s-.51-2.63-1.53-6.02c-1.02-3.39-2.56-7.54-4.64-10.59l-.19,.13c2.05,3.01,3.59,7.15,4.61,10.53,.51,1.69,.89,3.19,1.14,4.27,.13,.54,.22,.97,.28,1.27,.06,.3,.09,.46,.09,.46l.22-.04h0Z"/><polygon class="e" points="246 156.39 247.24 154.33 249.82 155.93 249.94 155.73 247.16 154.02 245.8 156.26 246 156.39 246 156.39"/><polygon class="e" points="245.13 153.65 246.31 151.68 248.8 152.88 248.9 152.67 246.22 151.38 244.93 153.53 245.13 153.65 245.13 153.65"/><polygon class="e" points="244.42 151.13 245.6 149.16 248.09 150.36 248.19 150.15 245.51 148.86 244.22 151 244.42 151.13 244.42 151.13"/><polygon class="e" points="243.19 148.29 244.38 146.33 246.87 147.53 246.96 147.32 244.29 146.03 243 148.17 243.19 148.29 243.19 148.29"/></g><g><path class="c" d="M707.05,132.81h0s2.66-13.68-13.98-12.46c-1.78,14.46,13.97,12.46,13.97,12.46Z"/><path class="e" d="M705.88,132.16s-1.66-2.11-4.12-4.65c-2.46-2.54-5.74-5.52-8.98-7.28l-.11,.2c3.21,1.74,6.47,4.7,8.92,7.23,1.23,1.27,2.25,2.42,2.97,3.26,.36,.42,.64,.76,.84,1,.19,.24,.3,.37,.3,.37l.18-.14h0Z"/><polygon class="e" points="702.21 130.72 702.37 128.33 705.4 128.56 705.41 128.33 702.16 128.08 701.98 130.7 702.21 130.72 702.21 130.72"/><polygon class="e" points="700.18 128.69 700.33 126.4 703.09 126.32 703.08 126.09 700.11 126.18 699.95 128.67 700.18 128.69 700.18 128.69"/><polygon class="e" points="698.39 126.77 698.54 124.48 701.3 124.4 701.29 124.18 698.32 124.26 698.16 126.76 698.39 126.77 698.39 126.77"/><polygon class="e" points="696.01 124.82 696.16 122.53 698.92 122.45 698.91 122.22 695.94 122.31 695.77 124.8 696.01 124.82 696.01 124.82"/></g><g><path class="c" d="M666.26,152.33h0s13.42-3.74,4.87-18.07c-13.73,4.89-4.88,18.07-4.88,18.07Z"/><path class="e" d="M666.32,150.99s1.14-2.42,2.31-5.77c1.17-3.34,2.37-7.6,2.48-11.29h-.23c-.11,3.64-1.31,7.88-2.47,11.21-.58,1.67-1.16,3.1-1.59,4.12-.21,.51-.39,.92-.52,1.19-.12,.28-.19,.43-.2,.43l.2,.1h0Z"/><polygon class="e" points="665.97 147.07 668.18 146.14 669.32 148.95 669.53 148.86 668.3 145.83 665.88 146.85 665.97 147.07 665.97 147.07"/><polygon class="e" points="666.87 144.34 668.99 143.45 670.3 145.88 670.49 145.77 669.09 143.15 666.78 144.13 666.87 144.34 666.87 144.34"/><polygon class="e" points="667.78 141.88 669.9 140.99 671.2 143.42 671.4 143.31 670 140.7 667.69 141.67 667.78 141.88 667.78 141.88"/><polygon class="e" points="668.46 138.87 670.57 137.98 671.88 140.42 672.08 140.31 670.67 137.69 668.37 138.66 668.46 138.87 668.46 138.87"/></g><g><path class="c" d="M713.29,161.89h0s-1.06-13.89-16.78-8.3c2.13,14.42,16.78,8.3,16.78,8.3Z"/><path class="e" d="M711.99,161.56s-2.16-1.59-5.21-3.39c-3.05-1.8-7-3.8-10.59-4.63l-.05,.22c3.55,.82,7.49,2.82,10.53,4.6,1.52,.89,2.82,1.74,3.73,2.36,.46,.31,.82,.56,1.07,.74,.25,.18,.38,.27,.38,.27l.14-.18h0Z"/><polygon class="e" points="708.08 161.15 707.59 158.8 710.57 158.22 710.52 158 707.32 158.62 707.85 161.19 708.08 161.15 708.08 161.15"/><polygon class="e" points="705.58 159.73 705.11 157.48 707.75 156.67 707.68 156.46 704.84 157.33 705.35 159.78 705.58 159.73 705.58 159.73"/><polygon class="e" points="703.34 158.36 702.88 156.11 705.52 155.3 705.45 155.09 702.61 155.96 703.11 158.41 703.34 158.36 703.34 158.36"/><polygon class="e" points="700.52 157.11 700.06 154.86 702.7 154.05 702.63 153.84 699.79 154.71 700.3 157.16 700.52 157.11 700.52 157.11"/></g><g><path class="c" d="M731.35,139.63h0s9.42-10.27-5.41-17.92c-9.07,11.4,5.41,17.92,5.41,17.92Z"/><path class="e" d="M730.7,138.46s-.31-2.66-1.09-6.11c-.77-3.45-2.01-7.7-3.86-10.9l-.2,.11c1.83,3.16,3.06,7.39,3.83,10.83,.39,1.72,.66,3.24,.83,4.34,.09,.55,.15,.99,.19,1.29,.04,.3,.06,.47,.06,.47l.23-.02h0Z"/><polygon class="e" points="728.32 135.32 729.71 133.36 732.17 135.14 732.3 134.96 729.65 133.04 728.14 135.19 728.32 135.32 728.32 135.32"/><polygon class="e" points="727.65 132.53 728.98 130.65 731.37 132.03 731.48 131.83 728.91 130.35 727.46 132.39 727.65 132.53 727.65 132.53"/><polygon class="e" points="727.12 129.96 728.45 128.09 730.85 129.46 730.96 129.26 728.38 127.78 726.94 129.82 727.12 129.96 727.12 129.96"/><polygon class="e" points="726.11 127.05 727.44 125.17 729.83 126.55 729.94 126.35 727.37 124.87 725.92 126.91 726.11 127.05 726.11 127.05"/></g><g><path class="c" d="M733.3,157.75h0s12.91,5.25,14.91-11.32c-13.85-4.52-14.91,11.32-14.91,11.32Z"/><path class="e" d="M734.17,156.73s2.38-1.22,5.35-3.15c2.97-1.93,6.52-4.57,8.87-7.42l-.17-.15c-2.32,2.81-5.86,5.45-8.82,7.37-1.48,.96-2.81,1.75-3.78,2.29-.48,.27-.87,.48-1.14,.63-.27,.14-.42,.22-.42,.22l.1,.21h0Z"/><polygon class="e" points="736.28 153.41 738.6 154.02 737.79 156.95 738.01 157.01 738.88 153.86 736.35 153.19 736.28 153.41 736.28 153.41"/><polygon class="e" points="738.67 151.8 740.89 152.39 740.44 155.12 740.66 155.15 741.15 152.22 738.73 151.58 738.67 151.8 738.67 151.8"/><polygon class="e" points="740.89 150.41 743.11 151 742.66 153.73 742.88 153.76 743.37 150.83 740.95 150.19 740.89 150.41 740.89 150.41"/><polygon class="e" points="743.27 148.45 745.48 149.04 745.03 151.76 745.26 151.8 745.74 148.87 743.33 148.23 743.27 148.45 743.27 148.45"/></g><g><path class="c" d="M811.22,151.4h0s9.42-10.27-5.41-17.92c-9.07,11.4,5.41,17.92,5.41,17.92Z"/><path class="e" d="M810.57,150.23s-.31-2.66-1.09-6.11c-.77-3.45-2.01-7.7-3.86-10.9l-.2,.11c1.83,3.16,3.06,7.39,3.83,10.83,.39,1.72,.66,3.24,.83,4.34,.09,.55,.15,.99,.19,1.29,.04,.3,.06,.47,.06,.47l.23-.02h0Z"/><polygon class="e" points="808.2 147.09 809.58 145.13 812.04 146.91 812.17 146.72 809.53 144.81 808.01 146.95 808.2 147.09 808.2 147.09"/><polygon class="e" points="807.53 144.29 808.85 142.42 811.25 143.79 811.36 143.6 808.78 142.12 807.34 144.16 807.53 144.29 807.53 144.29"/><polygon class="e" points="807 141.73 808.33 139.85 810.72 141.23 810.83 141.03 808.26 139.55 806.81 141.59 807 141.73 807 141.73"/><polygon class="e" points="805.99 138.82 807.31 136.94 809.71 138.32 809.82 138.12 807.24 136.64 805.8 138.68 805.99 138.82 805.99 138.82"/></g><g><path class="c" d="M760.77,149.38h0s13.11,4.7,14.42-11.93c-14.03-3.94-14.43,11.93-14.43,11.93Z"/><path class="e" d="M761.6,148.32s2.33-1.32,5.22-3.37c2.88-2.05,6.32-4.83,8.55-7.78l-.18-.14c-2.2,2.91-5.63,5.68-8.5,7.73-1.44,1.02-2.74,1.86-3.68,2.45-.47,.29-.85,.52-1.11,.68-.26,.16-.41,.24-.41,.24l.11,.2h0Z"/><polygon class="e" points="763.57 144.92 765.92 145.43 765.23 148.39 765.45 148.44 766.19 145.26 763.63 144.69 763.57 144.92 763.57 144.92"/><polygon class="e" points="765.89 143.21 768.13 143.71 767.79 146.45 768.02 146.47 768.38 143.53 765.94 142.99 765.89 143.21 765.89 143.21"/><polygon class="e" points="768.05 141.73 770.29 142.23 769.95 144.97 770.18 144.99 770.54 142.05 768.1 141.51 768.05 141.73 768.05 141.73"/><polygon class="e" points="770.34 139.67 772.59 140.16 772.25 142.91 772.47 142.93 772.84 139.98 770.4 139.44 770.34 139.67 770.34 139.67"/></g><g><path class="c" d="M788.87,180.81h0s.73-13.91-15.58-10.38c.26,14.57,15.58,10.38,15.58,10.38Z"/><path class="e" d="M787.62,180.32s-1.93-1.85-4.73-4.02c-2.8-2.17-6.45-4.66-9.91-5.95l-.08,.21c3.42,1.27,7.06,3.75,9.85,5.92,1.39,1.08,2.57,2.08,3.4,2.82,.41,.37,.74,.66,.97,.87,.22,.21,.34,.32,.34,.32l.16-.16h0Z"/><polygon class="e" points="783.79 179.41 783.62 177.02 786.64 176.83 786.63 176.6 783.37 176.81 783.56 179.42 783.79 179.41 783.79 179.41"/><polygon class="e" points="781.5 177.68 781.33 175.39 784.05 174.93 784.01 174.7 781.08 175.2 781.27 177.7 781.5 177.68 781.5 177.68"/><polygon class="e" points="779.46 176.04 779.29 173.75 782.01 173.28 781.97 173.06 779.04 173.56 779.23 176.05 779.46 176.04 779.46 176.04"/><polygon class="e" points="776.82 174.44 776.65 172.15 779.37 171.68 779.33 171.46 776.4 171.96 776.59 174.45 776.82 174.44 776.82 174.44"/></g></g></svg>