<?xml version="1.0" encoding="UTF-8"?><svg xmlns="http://www.w3.org/2000/svg" viewBox="0 0 827.97 262"><defs><style>.c,.d{fill:#afa57d;}.d{font-family:Teko-Light, Teko;font-size:139px;}.e{fill:#777159;}</style></defs><g id="a"><text class="d" transform="translate(16.85 174.18)"><tspan x="0" y="0">COFFRETS &amp; CADEAUX</tspan></text></g><g id="b"><g><path class="c" d="M151.72,129.44h0s12.55,7.89,16.95-8.4c-13.63-7.36-16.95,8.4-16.95,8.4Z"/><path class="e" d="M152.76,128.58s2.63-.75,5.96-2.09c3.33-1.35,7.36-3.29,10.18-5.68l-.16-.18c-2.79,2.37-6.8,4.3-10.12,5.64-1.66,.67-3.14,1.19-4.21,1.55-.53,.18-.97,.31-1.26,.4-.3,.09-.46,.14-.46,.14l.07,.23h0Z"/><polygon class="e" points="155.4 125.67 157.7 126.75 156.46 129.54 156.67 129.64 158.02 126.64 155.5 125.45 155.4 125.67 155.4 125.67"/><polygon class="e" points="158.08 124.53 160.29 125.57 159.44 128.23 159.66 128.31 160.58 125.45 158.18 124.32 158.08 124.53 158.08 124.53"/><polygon class="e" points="160.57 123.58 162.77 124.62 161.92 127.28 162.15 127.36 163.06 124.5 160.66 123.37 160.57 123.58 160.57 123.58"/><polygon class="e" points="163.29 122.08 165.49 123.12 164.64 125.77 164.87 125.85 165.78 123 163.39 121.87 163.29 122.08 163.29 122.08"/></g><g><path class="c" d="M158.89,115.01h0s6.6-13.55-10.62-16.45c-5.92,14.59,10.61,16.45,10.61,16.45Z"/><path class="e" d="M157.89,114.03s-1.08-2.6-2.85-5.86c-1.77-3.26-4.24-7.18-7.03-9.82l-.17,.18c2.76,2.61,5.22,6.51,6.98,9.76,.88,1.62,1.59,3.08,2.08,4.14,.24,.53,.43,.95,.56,1.25,.13,.29,.19,.45,.2,.45l.22-.1h0Z"/><polygon class="e" points="154.59 111.62 155.43 109.17 158.43 110.17 158.51 109.94 155.28 108.86 154.36 111.54 154.59 111.62 154.59 111.62"/><polygon class="e" points="153.11 109 153.91 106.65 156.73 107.26 156.79 107.02 153.75 106.37 152.88 108.92 153.11 109 153.11 109"/><polygon class="e" points="151.84 106.56 152.64 104.22 155.46 104.82 155.52 104.59 152.48 103.93 151.61 106.48 151.84 106.56 151.84 106.56"/><polygon class="e" points="149.98 103.93 150.78 101.59 153.6 102.2 153.66 101.96 150.62 101.3 149.75 103.86 149.98 103.93 149.98 103.93"/></g><g><path class="c" d="M400.04,117.85h0s13.83-1.63,7.6-17.11c-14.32,2.72-7.6,17.11-7.6,17.11Z"/><path class="e" d="M400.31,116.54s1.5-2.22,3.17-5.34c1.67-3.12,3.51-7.15,4.19-10.77l-.22-.04c-.67,3.58-2.51,7.6-4.17,10.71-.83,1.56-1.62,2.89-2.2,3.83-.29,.47-.53,.84-.7,1.1-.17,.26-.26,.39-.26,.39l.19,.13h0Z"/><polygon class="e" points="400.56 112.61 402.89 112.03 403.59 114.98 403.81 114.93 403.06 111.75 400.51 112.39 400.56 112.61 400.56 112.61"/><polygon class="e" points="401.88 110.05 404.1 109.5 405.02 112.11 405.24 112.03 404.25 109.22 401.82 109.83 401.88 110.05 401.88 110.05"/><polygon class="e" points="403.15 107.77 405.38 107.21 406.3 109.82 406.51 109.74 405.52 106.94 403.1 107.54 403.15 107.77 403.15 107.77"/><polygon class="e" points="404.29 104.9 406.51 104.34 407.43 106.95 407.65 106.87 406.66 104.07 404.23 104.67 404.29 104.9 404.29 104.9"/></g><g><path class="c" d="M379.05,124.53h0s3.65-13.45-13.04-13.44c-2.82,14.3,13.03,13.44,13.03,13.44Z"/><path class="e" d="M377.93,123.79s-1.5-2.22-3.77-4.93c-2.27-2.71-5.32-5.92-8.43-7.91l-.12,.19c3.07,1.96,6.11,5.16,8.38,7.86,1.13,1.35,2.07,2.58,2.73,3.47,.33,.45,.59,.81,.76,1.06,.18,.25,.27,.39,.27,.39l.19-.12h0Z"/><polygon class="e" points="374.38 122.09 374.71 119.71 377.71 120.17 377.74 119.94 374.51 119.45 374.15 122.05 374.38 122.09 374.38 122.09"/><polygon class="e" points="372.5 119.92 372.81 117.64 375.57 117.76 375.58 117.54 372.61 117.41 372.27 119.88 372.5 119.92 372.5 119.92"/><polygon class="e" points="370.85 117.88 371.17 115.6 373.93 115.72 373.94 115.5 370.97 115.37 370.62 117.84 370.85 117.88 370.85 117.88"/><polygon class="e" points="368.61 115.76 368.93 113.48 371.69 113.6 371.7 113.38 368.73 113.25 368.38 115.72 368.61 115.76 368.61 115.76"/></g><g><path class="c" d="M334.22,119.14h0s13.74-2.28,6.79-17.44c-14.17,3.38-6.79,17.44-6.79,17.44Z"/><path class="e" d="M334.43,117.81s1.39-2.29,2.92-5.48c1.52-3.2,3.17-7.3,3.68-10.96l-.22-.03c-.51,3.61-2.15,7.7-3.66,10.89-.76,1.59-1.48,2.96-2.02,3.93-.27,.48-.49,.87-.64,1.13-.15,.26-.24,.4-.24,.4l.19,.12h0Z"/><polygon class="e" points="334.5 113.88 336.8 113.19 337.63 116.11 337.85 116.04 336.95 112.9 334.43 113.66 334.5 113.88 334.5 113.88"/><polygon class="e" points="335.69 111.27 337.89 110.61 338.93 113.17 339.14 113.08 338.02 110.33 335.63 111.04 335.69 111.27 335.69 111.27"/><polygon class="e" points="336.86 108.92 339.06 108.26 340.1 110.82 340.31 110.73 339.19 107.98 336.8 108.7 336.86 108.92 336.86 108.92"/><polygon class="e" points="337.86 106 340.06 105.34 341.1 107.9 341.31 107.81 340.19 105.06 337.79 105.78 337.86 106 337.86 106"/></g><g><path class="c" d="M277.43,161.16h0s3.7-13.43-12.99-13.48c-2.87,14.29,12.99,13.48,12.99,13.48Z"/><path class="e" d="M276.32,160.41s-1.49-2.23-3.76-4.95c-2.26-2.72-5.3-5.94-8.4-7.94l-.12,.19c3.07,1.97,6.09,5.18,8.35,7.89,1.13,1.36,2.06,2.59,2.72,3.48,.33,.45,.58,.81,.76,1.06,.17,.25,.27,.39,.27,.39l.19-.12h0Z"/><polygon class="e" points="272.77 158.7 273.11 156.33 276.11 156.79 276.14 156.57 272.91 156.07 272.54 158.67 272.77 158.7 272.77 158.7"/><polygon class="e" points="270.9 156.52 271.22 154.25 273.98 154.38 273.99 154.15 271.02 154.01 270.67 156.49 270.9 156.52 270.9 156.52"/><polygon class="e" points="269.26 154.48 269.58 152.21 272.35 152.34 272.35 152.11 269.38 151.97 269.03 154.44 269.26 154.48 269.26 154.48"/><polygon class="e" points="267.03 152.35 267.35 150.08 270.11 150.21 270.12 149.98 267.15 149.84 266.8 152.31 267.03 152.35 267.03 152.35"/></g><g><path class="c" d="M336.07,149.59h0s13.42-3.74,4.87-18.07c-13.73,4.89-4.88,18.07-4.88,18.07Z"/><path class="e" d="M336.13,148.25s1.14-2.42,2.31-5.77c1.17-3.34,2.37-7.6,2.48-11.29h-.23c-.11,3.64-1.31,7.88-2.47,11.21-.58,1.67-1.16,3.1-1.59,4.12-.21,.51-.39,.92-.52,1.19-.12,.28-.19,.43-.2,.43l.2,.1h0Z"/><polygon class="e" points="335.78 144.33 337.98 143.4 339.13 146.21 339.34 146.12 338.11 143.09 335.69 144.11 335.78 144.33 335.78 144.33"/><polygon class="e" points="336.68 141.6 338.8 140.71 340.1 143.14 340.3 143.03 338.9 140.41 336.59 141.39 336.68 141.6 336.68 141.6"/><polygon class="e" points="337.59 139.14 339.7 138.25 341.01 140.68 341.21 140.57 339.8 137.96 337.5 138.93 337.59 139.14 337.59 139.14"/><polygon class="e" points="338.27 136.13 340.38 135.24 341.69 137.68 341.89 137.56 340.48 134.95 338.18 135.92 338.27 136.13 338.27 136.13"/></g><g><path class="c" d="M303.26,157.63h0s13.89-1.11,8.24-16.81c-14.41,2.18-8.24,16.81-8.24,16.81Z"/><path class="e" d="M303.58,156.33s1.58-2.16,3.37-5.22c1.79-3.06,3.78-7.01,4.6-10.61l-.22-.05c-.81,3.56-2.79,7.5-4.57,10.54-.89,1.52-1.73,2.82-2.35,3.74-.31,.46-.56,.82-.74,1.07-.18,.25-.27,.38-.27,.38l.18,.14h0Z"/><polygon class="e" points="303.98 152.41 306.33 151.92 306.92 154.9 307.14 154.85 306.51 151.65 303.94 152.19 303.98 152.41 303.98 152.41"/><polygon class="e" points="305.39 149.91 307.64 149.44 308.46 152.08 308.68 152.01 307.79 149.17 305.35 149.68 305.39 149.91 305.39 149.91"/><polygon class="e" points="306.75 147.67 309 147.2 309.82 149.84 310.04 149.77 309.16 146.93 306.71 147.44 306.75 147.67 306.75 147.67"/><polygon class="e" points="308 144.85 310.24 144.38 311.06 147.01 311.28 146.94 310.4 144.11 307.95 144.62 308 144.85 308 144.85"/></g><g><path class="c" d="M292.94,152.97h0s9.42-10.27-5.41-17.92c-9.07,11.4,5.41,17.92,5.41,17.92Z"/><path class="e" d="M292.28,151.8s-.31-2.66-1.09-6.11c-.77-3.45-2.01-7.7-3.86-10.9l-.2,.11c1.83,3.16,3.06,7.39,3.83,10.83,.39,1.72,.66,3.24,.83,4.34,.09,.55,.15,.99,.19,1.29,.04,.3,.06,.47,.06,.47l.23-.02h0Z"/><polygon class="e" points="289.91 148.66 291.3 146.7 293.75 148.48 293.88 148.29 291.24 146.38 289.72 148.52 289.91 148.66 289.91 148.66"/><polygon class="e" points="289.24 145.86 290.56 143.99 292.96 145.36 293.07 145.16 290.49 143.69 289.05 145.73 289.24 145.86 289.24 145.86"/><polygon class="e" points="288.71 143.3 290.04 141.42 292.43 142.8 292.54 142.6 289.97 141.12 288.53 143.16 288.71 143.3 288.71 143.3"/><polygon class="e" points="287.7 140.38 289.02 138.51 291.42 139.88 291.53 139.69 288.95 138.21 287.51 140.25 287.7 140.38 287.7 140.38"/></g><g><path class="c" d="M297.99,117.09h0s13.52,3.38,13.17-13.3c-14.35-2.53-13.17,13.3-13.17,13.3Z"/><path class="e" d="M298.71,115.96s2.19-1.54,4.86-3.87c2.67-2.33,5.81-5.44,7.74-8.59l-.19-.12c-1.9,3.11-5.03,6.21-7.69,8.53-1.33,1.16-2.54,2.12-3.42,2.8-.44,.34-.79,.6-1.04,.78-.25,.18-.38,.28-.38,.28l.13,.19h0Z"/><polygon class="e" points="300.33 112.37 302.72 112.66 302.32 115.66 302.55 115.69 302.97 112.45 300.36 112.14 300.33 112.37 300.33 112.37"/><polygon class="e" points="302.47 110.45 304.75 110.72 304.68 113.48 304.91 113.48 304.98 110.51 302.5 110.22 302.47 110.45 302.47 110.45"/><polygon class="e" points="304.47 108.76 306.75 109.03 306.69 111.79 306.92 111.8 306.98 108.83 304.5 108.53 304.47 108.76 304.47 108.76"/><polygon class="e" points="306.55 106.48 308.83 106.75 308.76 109.51 308.99 109.52 309.06 106.55 306.58 106.25 306.55 106.48 306.55 106.48"/></g><g><path class="c" d="M254.76,117.26h0s13.88-1.2,8.13-16.86c-14.39,2.27-8.13,16.86-8.13,16.86Z"/><path class="e" d="M255.07,115.95s1.57-2.17,3.33-5.24c1.77-3.07,3.73-7.03,4.53-10.64l-.22-.05c-.79,3.56-2.74,7.51-4.5,10.57-.88,1.53-1.71,2.83-2.32,3.76-.31,.46-.56,.83-.73,1.08-.17,.25-.27,.38-.27,.38l.18,.14h0Z"/><polygon class="e" points="255.44 112.04 257.79 111.53 258.39 114.5 258.62 114.46 257.96 111.26 255.4 111.81 255.44 112.04 255.44 112.04"/><polygon class="e" points="256.84 109.52 259.08 109.04 259.92 111.67 260.13 111.6 259.23 108.77 256.79 109.3 256.84 109.52 256.84 109.52"/><polygon class="e" points="258.18 107.28 260.43 106.79 261.26 109.42 261.48 109.35 260.58 106.52 258.14 107.05 258.18 107.28 258.18 107.28"/><polygon class="e" points="259.4 104.45 261.65 103.96 262.49 106.59 262.7 106.52 261.8 103.69 259.36 104.22 259.4 104.45 259.4 104.45"/></g><g><path class="c" d="M204.3,111.1h0s3.3-13.85-13.04-12.91c-2.47,14.66,13.04,12.91,13.04,12.91Z"/><path class="e" d="M203.19,110.41s-1.51-2.17-3.8-4.79c-2.28-2.63-5.33-5.71-8.42-7.56l-.12,.2c3.05,1.82,6.09,4.89,8.36,7.51,1.14,1.31,2.08,2.5,2.74,3.37,.33,.43,.59,.79,.77,1.03,.18,.24,.27,.38,.27,.38l.19-.14h0Z"/><polygon class="e" points="199.68 108.89 199.96 106.46 202.9 106.75 202.93 106.52 199.76 106.21 199.46 108.86 199.68 108.89 199.68 108.89"/><polygon class="e" points="197.8 106.79 198.06 104.46 200.76 104.43 200.77 104.2 197.86 104.23 197.57 106.76 197.8 106.79 197.8 106.79"/><polygon class="e" points="196.14 104.81 196.4 102.49 199.11 102.45 199.11 102.22 196.2 102.26 195.92 104.79 196.14 104.81 196.14 104.81"/><polygon class="e" points="193.91 102.78 194.17 100.46 196.88 100.43 196.88 100.19 193.97 100.23 193.68 102.76 193.91 102.78 193.91 102.78"/></g><g><path class="c" d="M439.83,135.68h0s10.11-8.97-3.49-17.94c-9.88,10.11,3.49,17.94,3.49,17.94Z"/><path class="e" d="M439.31,134.48s-.04-2.61-.46-6.04c-.41-3.43-1.19-7.68-2.67-10.97l-.2,.09c1.46,3.25,2.24,7.49,2.65,10.9,.21,1.71,.32,3.21,.38,4.29,.03,.54,.05,.97,.06,1.27,.01,.3,.01,.46,.01,.46h.22Z"/><polygon class="e" points="437.32 131.18 438.85 129.43 441.06 131.41 441.2 131.25 438.83 129.11 437.15 131.03 437.32 131.18 437.32 131.18"/><polygon class="e" points="436.94 128.4 438.41 126.73 440.59 128.31 440.72 128.13 438.37 126.42 436.77 128.25 436.94 128.4 436.94 128.4"/><polygon class="e" points="436.68 125.86 438.15 124.18 440.33 125.77 440.46 125.58 438.11 123.88 436.51 125.71 436.68 125.86 436.68 125.86"/><polygon class="e" points="435.99 122.93 437.45 121.25 439.63 122.84 439.76 122.65 437.41 120.95 435.82 122.78 435.99 122.93 435.99 122.93"/></g><g><path class="c" d="M591.11,115.51h0s11.39,8,17.12-7.74c-12.48-7.5-17.12,7.74-17.12,7.74Z"/><path class="e" d="M592.19,114.71s2.6-.66,5.94-1.89c3.33-1.23,7.4-3.01,10.34-5.27l-.14-.18c-2.9,2.23-6.96,4.02-10.28,5.24-1.66,.61-3.14,1.08-4.2,1.4-.53,.16-.96,.28-1.25,.36-.29,.08-.46,.12-.46,.12l.05,.22h0Z"/><polygon class="e" points="595.01 111.94 597.13 113.05 595.67 115.73 595.87 115.83 597.44 112.95 595.12 111.73 595.01 111.94 595.01 111.94"/><polygon class="e" points="597.7 110.9 599.73 111.97 598.67 114.53 598.88 114.61 600.02 111.86 597.81 110.69 597.7 110.9 597.7 110.9"/><polygon class="e" points="600.18 110.03 602.21 111.1 601.15 113.67 601.36 113.75 602.51 110.99 600.3 109.83 600.18 110.03 600.18 110.03"/><polygon class="e" points="602.95 108.64 604.98 109.71 603.92 112.27 604.13 112.36 605.27 109.6 603.06 108.44 602.95 108.64 602.95 108.64"/></g><g><path class="c" d="M219.98,118.1h0s10.93-7.79-1.26-17.26c-10.85,8.89,1.26,17.26,1.26,17.26Z"/><path class="e" d="M219.61,116.92s.27-2.48,.28-5.76c0-3.28-.24-7.37-1.29-10.59l-.21,.07c1.04,3.19,1.29,7.25,1.28,10.52,0,1.63-.07,3.07-.14,4.1-.03,.51-.07,.92-.09,1.21-.03,.28-.04,.44-.04,.44l.22,.02h0Z"/><polygon class="e" points="218.07 113.66 219.77 112.1 221.68 114.14 221.84 113.99 219.78 111.8 217.92 113.5 218.07 113.66 218.07 113.66"/><polygon class="e" points="218.03 111 219.66 109.51 221.6 111.16 221.74 111 219.66 109.22 217.88 110.84 218.03 111 218.03 111"/><polygon class="e" points="218.08 108.57 219.71 107.08 221.65 108.73 221.8 108.57 219.71 106.79 217.93 108.41 218.08 108.57 218.08 108.57"/><polygon class="e" points="217.75 105.74 219.38 104.25 221.32 105.91 221.47 105.74 219.38 103.96 217.61 105.59 217.75 105.74 217.75 105.74"/></g><g><path class="c" d="M249.79,113.18h0s-.09-15.5-17.12-10.29c1.17,16.15,17.12,10.29,17.12,10.29Z"/><path class="e" d="M248.44,112.74s-2.16-1.9-5.25-4.09c-3.09-2.19-7.11-4.67-10.85-5.82l-.07,.24c3.7,1.14,7.7,3.61,10.78,5.79,1.54,1.09,2.85,2.11,3.77,2.86,.46,.37,.83,.68,1.08,.89,.25,.21,.38,.33,.38,.33l.16-.19h0Z"/><polygon class="e" points="244.33 112.03 244 109.39 247.19 108.94 247.16 108.69 243.72 109.17 244.09 112.06 244.33 112.03 244.33 112.03"/><polygon class="e" points="241.8 110.29 241.47 107.77 244.33 107.03 244.27 106.79 241.2 107.58 241.55 110.33 241.8 110.29 241.8 110.29"/><polygon class="e" points="239.54 108.63 239.21 106.1 242.07 105.37 242.01 105.13 238.94 105.91 239.29 108.66 239.54 108.63 239.54 108.63"/><polygon class="e" points="236.65 107.06 236.33 104.53 239.18 103.8 239.12 103.56 236.05 104.34 236.41 107.09 236.65 107.06 236.65 107.06"/></g><g><path class="c" d="M468.52,120.92h0s14.74,3.28,13.48-14.04c-15.6-2.38-13.49,14.04-13.49,14.04Z"/><path class="e" d="M469.23,119.73s2.28-1.64,5.03-4.1c2.75-2.46,5.98-5.75,7.88-9.05l-.21-.12c-1.88,3.27-5.1,6.54-7.84,9-1.37,1.23-2.62,2.25-3.53,2.97-.45,.36-.82,.64-1.08,.83-.26,.19-.4,.29-.4,.29l.15,.19h0Z"/><polygon class="e" points="470.79 115.98 473.37 116.23 473.11 119.37 473.36 119.39 473.64 116.02 470.81 115.74 470.79 115.98 470.79 115.98"/><polygon class="e" points="472.99 113.95 475.46 114.19 475.54 117.06 475.78 117.06 475.7 113.97 473.01 113.71 472.99 113.95 472.99 113.95"/><polygon class="e" points="475.06 112.16 477.53 112.4 477.61 115.27 477.85 115.27 477.77 112.18 475.08 111.92 475.06 112.16 475.06 112.16"/><polygon class="e" points="477.18 109.76 479.65 110 479.72 112.87 479.97 112.86 479.89 109.78 477.2 109.52 477.18 109.76 477.18 109.76"/></g><g><path class="c" d="M459.88,168.62h0s4.22-12.97-11.46-13.34c-3.49,13.82,11.45,13.34,11.45,13.34Z"/><path class="e" d="M458.87,167.88s-1.28-2.19-3.25-4.87c-1.98-2.69-4.65-5.87-7.45-7.87l-.13,.18c2.77,1.98,5.44,5.15,7.41,7.82,.98,1.34,1.8,2.55,2.36,3.43,.28,.44,.5,.8,.65,1.04,.15,.25,.23,.38,.23,.38l.19-.12h0Z"/><polygon class="e" points="455.64 166.15 456.09 163.85 458.88 164.36 458.92 164.14 455.92 163.59 455.42 166.11 455.64 166.15 455.64 166.15"/><polygon class="e" points="454 164 454.43 161.8 457.01 161.97 457.03 161.75 454.25 161.56 453.78 163.96 454 164 454 164"/><polygon class="e" points="452.57 161.98 453 159.78 455.59 159.96 455.61 159.74 452.83 159.55 452.36 161.94 452.57 161.98 452.57 161.98"/><polygon class="e" points="450.59 159.87 451.02 157.67 453.61 157.85 453.63 157.63 450.85 157.44 450.38 159.83 450.59 159.87 450.59 159.87"/></g><g><path class="c" d="M400.22,135.65h0s9.36,4.36,11.07-7.39c-10.06-3.88-11.07,7.39-11.07,7.39Z"/><path class="e" d="M400.87,134.96s1.76-.76,3.96-2c2.2-1.24,4.83-2.96,6.59-4.88l-.13-.11c-1.74,1.9-4.36,3.62-6.55,4.85-1.1,.62-2.08,1.12-2.79,1.46-.36,.17-.64,.31-.84,.4-.2,.09-.31,.14-.31,.14l.07,.15h0Z"/><polygon class="e" points="402.47 132.69 404.15 133.24 403.52 135.29 403.68 135.34 404.36 133.13 402.52 132.53 402.47 132.69 402.47 132.69"/><polygon class="e" points="404.23 131.66 405.85 132.18 405.48 134.11 405.64 134.14 406.04 132.07 404.28 131.5 404.23 131.66 404.23 131.66"/><polygon class="e" points="405.88 130.77 407.49 131.29 407.12 133.22 407.29 133.25 407.68 131.18 405.93 130.61 405.88 130.77 405.88 130.77"/><polygon class="e" points="407.65 129.47 409.26 130 408.89 131.92 409.05 131.96 409.45 129.89 407.69 129.32 407.65 129.47 407.65 129.47"/></g><g><path class="c" d="M498.48,130.12h0s-1.39-10.23-12.2-5.32c2.17,10.56,12.2,5.32,12.2,5.32Z"/><path class="e" d="M497.55,129.95s-1.59-1.07-3.82-2.25c-2.23-1.18-5.1-2.47-7.67-2.91l-.03,.17c2.54,.43,5.4,1.72,7.62,2.89,1.11,.59,2.06,1.15,2.74,1.56,.34,.21,.6,.38,.79,.5,.18,.12,.28,.18,.28,.18l.09-.14h0Z"/><polygon class="e" points="494.78 129.83 494.33 128.12 496.4 127.55 496.35 127.38 494.13 128 494.62 129.88 494.78 129.83 494.78 129.83"/><polygon class="e" points="492.95 128.91 492.52 127.27 494.34 126.54 494.28 126.38 492.32 127.16 492.79 128.95 492.95 128.91 492.95 128.91"/><polygon class="e" points="491.31 128 490.88 126.36 492.71 125.63 492.65 125.48 490.69 126.26 491.16 128.05 491.31 128 491.31 128"/><polygon class="e" points="489.27 127.22 488.84 125.57 490.66 124.85 490.6 124.69 488.64 125.47 489.11 127.26 489.27 127.22 489.27 127.22"/></g><g><path class="c" d="M522.17,136.45h0s13.66,.91,10.15-14.43c-14.3,.01-10.15,14.43-10.15,14.43Z"/><path class="e" d="M522.65,135.29s1.81-1.78,3.94-4.37c2.12-2.59,4.56-5.97,5.82-9.19l-.21-.08c-1.24,3.18-3.67,6.56-5.78,9.14-1.06,1.29-2.04,2.38-2.76,3.14-.36,.38-.65,.69-.85,.89-.2,.21-.31,.32-.31,.32l.16,.15h0Z"/><polygon class="e" points="523.53 131.71 525.88 131.58 526.08 134.43 526.3 134.41 526.09 131.36 523.52 131.5 523.53 131.71 523.53 131.71"/><polygon class="e" points="525.22 129.59 527.47 129.46 527.93 132.02 528.15 131.99 527.65 129.24 525.21 129.37 525.22 129.59 525.22 129.59"/><polygon class="e" points="526.83 127.7 529.08 127.58 529.54 130.14 529.76 130.1 529.26 127.35 526.81 127.49 526.83 127.7 526.83 127.7"/><polygon class="e" points="528.4 125.26 530.64 125.13 531.11 127.69 531.32 127.66 530.83 124.91 528.38 125.04 528.4 125.26 528.4 125.26"/></g><g><path class="c" d="M541.94,147.74h0s12.98,1.98,10.87-12.97c-13.67-1.15-10.88,12.97-10.88,12.97Z"/><path class="e" d="M542.49,146.67s1.88-1.56,4.12-3.85c2.24-2.3,4.85-5.33,6.31-8.31l-.19-.09c-1.44,2.94-4.04,5.97-6.27,8.26-1.12,1.14-2.14,2.1-2.89,2.78-.37,.34-.68,.6-.89,.78-.21,.18-.33,.28-.33,.28l.14,.16h0Z"/><polygon class="e" points="543.63 143.33 545.88 143.39 545.84 146.12 546.05 146.13 546.1 143.19 543.63 143.12 543.63 143.33 543.63 143.33"/><polygon class="e" points="545.42 141.43 547.58 141.5 547.81 143.98 548.02 143.97 547.77 141.29 545.42 141.22 545.42 141.43 545.42 141.43"/><polygon class="e" points="547.11 139.76 549.27 139.83 549.5 142.31 549.71 142.29 549.46 139.62 547.11 139.55 547.11 139.76 547.11 139.76"/><polygon class="e" points="548.8 137.55 550.96 137.62 551.2 140.1 551.41 140.09 551.16 137.42 548.81 137.34 548.8 137.55 548.8 137.55"/></g><g><path class="c" d="M561.76,113.77h0s5.38-13.47-11.23-14.95c-4.67,14.41,11.22,14.95,11.22,14.95Z"/><path class="e" d="M560.74,112.91s-1.2-2.41-3.11-5.4c-1.91-2.99-4.52-6.55-7.36-8.87l-.15,.18c2.8,2.29,5.41,5.84,7.31,8.81,.95,1.49,1.73,2.83,2.27,3.81,.27,.49,.48,.88,.62,1.15,.14,.27,.22,.42,.22,.42l.21-.11h0Z"/><polygon class="e" points="557.43 110.85 558.07 108.44 561 109.17 561.06 108.94 557.91 108.16 557.21 110.79 557.43 110.85 557.43 110.85"/><polygon class="e" points="555.84 108.45 556.45 106.15 559.19 106.52 559.22 106.28 556.29 105.89 555.62 108.4 555.84 108.45 555.84 108.45"/><polygon class="e" points="554.47 106.21 555.08 103.91 557.81 104.28 557.85 104.05 554.91 103.65 554.25 106.16 554.47 106.21 554.47 106.21"/><polygon class="e" points="552.52 103.84 553.13 101.53 555.86 101.9 555.9 101.67 552.96 101.27 552.3 103.78 552.52 103.84 552.52 103.84"/></g><g><path class="c" d="M626.68,135.1h0s-.25-13.5-15.03-8.77c1.21,14.05,15.03,8.77,15.03,8.77Z"/><path class="e" d="M625.5,134.73s-1.9-1.63-4.62-3.51c-2.72-1.87-6.25-3.98-9.52-4.95l-.06,.21c3.23,.95,6.75,3.05,9.46,4.92,1.35,.93,2.51,1.81,3.32,2.45,.41,.32,.73,.58,.95,.76,.22,.18,.34,.28,.34,.28l.14-.17h0Z"/><polygon class="e" points="621.92 134.15 621.59 131.86 624.37 131.43 624.34 131.21 621.35 131.68 621.71 134.19 621.92 134.15 621.92 134.15"/><polygon class="e" points="619.69 132.67 619.38 130.47 621.85 129.81 621.8 129.59 619.14 130.31 619.48 132.71 619.69 132.67 619.69 132.67"/><polygon class="e" points="617.7 131.25 617.39 129.05 619.87 128.38 619.81 128.17 617.15 128.89 617.49 131.28 617.7 131.25 617.7 131.25"/><polygon class="e" points="615.17 129.92 614.86 127.72 617.33 127.05 617.28 126.84 614.62 127.56 614.96 129.95 615.17 129.92 615.17 129.92"/></g><g><path class="c" d="M500.66,155.93h0s.15-13.85-15.16-9.45c.81,14.45,15.15,9.45,15.15,9.45Z"/><path class="e" d="M499.46,155.51s-1.9-1.73-4.63-3.74c-2.73-2-6.29-4.28-9.62-5.36l-.07,.21c3.29,1.07,6.83,3.34,9.56,5.33,1.36,1,2.52,1.93,3.33,2.61,.41,.34,.73,.62,.95,.81,.22,.19,.34,.3,.34,.3l.15-.17h0Z"/><polygon class="e" points="495.8 154.82 495.54 152.45 498.4 152.09 498.38 151.87 495.3 152.26 495.58 154.84 495.8 154.82 495.8 154.82"/><polygon class="e" points="493.56 153.23 493.31 150.96 495.87 150.35 495.82 150.13 493.07 150.79 493.34 153.26 493.56 153.23 493.56 153.23"/><polygon class="e" points="491.56 151.71 491.31 149.44 493.88 148.83 493.83 148.61 491.07 149.27 491.35 151.74 491.56 151.71 491.56 151.71"/><polygon class="e" points="489.01 150.26 488.76 148 491.32 147.39 491.27 147.17 488.52 147.83 488.79 150.29 489.01 150.26 489.01 150.26"/></g><g><path class="c" d="M152.83,151.64h0s2.9-13.87-13.33-12.48c-2.05,14.66,13.33,12.48,13.33,12.48Z"/><path class="e" d="M151.71,150.99s-1.57-2.12-3.91-4.67c-2.34-2.55-5.46-5.54-8.59-7.29l-.11,.2c3.09,1.73,6.2,4.7,8.53,7.24,1.17,1.27,2.14,2.43,2.82,3.28,.34,.42,.61,.77,.79,1,.18,.24,.28,.37,.28,.37l.18-.14h0Z"/><polygon class="e" points="148.17 149.57 148.38 147.14 151.32 147.35 151.34 147.12 148.17 146.9 147.95 149.55 148.17 149.57 148.17 149.57"/><polygon class="e" points="146.24 147.53 146.43 145.21 149.13 145.1 149.12 144.87 146.23 144.98 146.01 147.51 146.24 147.53 146.24 147.53"/><polygon class="e" points="144.54 145.61 144.73 143.29 147.43 143.18 147.42 142.95 144.53 143.06 144.31 145.59 144.54 145.61 144.54 145.61"/><polygon class="e" points="142.26 143.65 142.45 141.33 145.15 141.22 145.14 140.99 142.25 141.11 142.03 143.63 142.26 143.65 142.26 143.65"/></g><g><path class="c" d="M109.9,135.4h0s15.05,3.68,14.13-14.11c-15.95-2.78-14.14,14.11-14.14,14.11Z"/><path class="e" d="M110.66,134.19s2.37-1.63,5.25-4.1c2.87-2.47,6.25-5.77,8.28-9.11l-.22-.13c-2,3.31-5.37,6.6-8.23,9.06-1.43,1.23-2.74,2.25-3.69,2.97-.47,.36-.86,.64-1.12,.83-.27,.19-.41,.29-.41,.29l.15,.2h0Z"/><polygon class="e" points="112.34 130.38 114.98 130.7 114.65 133.9 114.9 133.93 115.26 130.48 112.37 130.14 112.34 130.38 112.34 130.38"/><polygon class="e" points="114.64 128.34 117.17 128.64 117.19 131.59 117.44 131.59 117.42 128.43 114.67 128.1 114.64 128.34 114.64 128.34"/><polygon class="e" points="116.8 126.56 119.33 126.86 119.35 129.8 119.6 129.81 119.58 126.64 116.83 126.31 116.8 126.56 116.8 126.56"/><polygon class="e" points="119.02 124.14 121.55 124.44 121.57 127.38 121.82 127.39 121.8 124.22 119.05 123.89 119.02 124.14 119.02 124.14"/></g><g><path class="c" d="M192.27,156.66h0s10.44-6.8-1.71-20.58c-10.33,8.11,1.7,20.58,1.7,20.58Z"/><path class="e" d="M191.89,155.2s.19-2.86,.11-6.72c-.08-3.86-.44-8.72-1.55-12.74l-.2,.04c1.1,3.97,1.46,8.82,1.54,12.66,.04,1.92,.01,3.6-.02,4.79-.02,.6-.04,1.07-.06,1.4-.02,.33-.03,.5-.03,.5l.21,.07h0Z"/><polygon class="e" points="190.29 151.02 191.9 149.56 193.83 152.37 193.98 152.23 191.91 149.21 190.14 150.81 190.29 151.02 190.29 151.02"/><polygon class="e" points="190.18 147.88 191.72 146.48 193.66 148.85 193.8 148.69 191.72 146.14 190.03 147.67 190.18 147.88 190.18 147.88"/><polygon class="e" points="190.16 145.03 191.71 143.63 193.65 146 193.78 145.84 191.7 143.3 190.01 144.82 190.16 145.03 190.16 145.03"/><polygon class="e" points="189.76 141.64 191.31 140.24 193.25 142.6 193.38 142.44 191.3 139.9 189.61 141.42 189.76 141.64 189.76 141.64"/></g><g><path class="c" d="M116.74,167.27h0s13.66,.91,10.15-14.43c-14.3,.01-10.15,14.43-10.15,14.43Z"/><path class="e" d="M117.21,166.1s1.81-1.78,3.94-4.37c2.12-2.59,4.56-5.97,5.82-9.19l-.21-.08c-1.24,3.18-3.67,6.56-5.78,9.14-1.06,1.29-2.04,2.38-2.76,3.14-.36,.38-.65,.69-.85,.89-.2,.21-.31,.32-.31,.32l.16,.15h0Z"/><polygon class="e" points="118.1 162.53 120.45 162.4 120.64 165.24 120.86 165.23 120.65 162.17 118.08 162.31 118.1 162.53 118.1 162.53"/><polygon class="e" points="119.79 160.41 122.04 160.28 122.5 162.84 122.72 162.81 122.22 160.05 119.77 160.19 119.79 160.41 119.79 160.41"/><polygon class="e" points="121.4 158.52 123.64 158.4 124.11 160.96 124.33 160.92 123.83 158.17 121.38 158.3 121.4 158.52 121.4 158.52"/><polygon class="e" points="122.96 156.08 125.21 155.95 125.67 158.51 125.89 158.48 125.39 155.72 122.95 155.86 122.96 156.08 122.96 156.08"/></g><g><path class="c" d="M562.13,135.36h0s9.22,10.12,17.32-3.37c-10.32-9.9-17.32,3.37-17.32,3.37Z"/><path class="e" d="M563.27,134.85s2.54-.03,5.87-.42c3.32-.39,7.43-1.14,10.56-2.6l-.1-.2c-3.1,1.44-7.19,2.19-10.5,2.58-1.66,.19-3.12,.3-4.16,.36-.52,.03-.94,.04-1.23,.05-.29,0-.45,.01-.45,.01v.22h0Z"/><polygon class="e" points="566.39 132.89 568.17 134.42 566.34 136.61 566.51 136.75 568.48 134.4 566.53 132.72 566.39 132.89 566.39 132.89"/><polygon class="e" points="569.08 132.53 570.78 133.99 569.34 136.16 569.53 136.29 571.08 133.96 569.22 132.36 569.08 132.53 569.08 132.53"/><polygon class="e" points="571.54 132.28 573.25 133.75 571.81 135.92 571.99 136.04 573.54 133.71 571.68 132.12 571.54 132.28 571.54 132.28"/><polygon class="e" points="574.37 131.6 576.07 133.07 574.63 135.24 574.82 135.37 576.36 133.04 574.51 131.44 574.37 131.6 574.37 131.6"/></g><g><path class="c" d="M660.18,111.25h0s9.85-9.51-3.88-17.21c-9.6,10.6,3.87,17.21,3.87,17.21Z"/><path class="e" d="M659.64,110.12s-.1-2.54-.59-5.85c-.49-3.31-1.36-7.39-2.9-10.48l-.2,.1c1.53,3.06,2.4,7.12,2.88,10.42,.24,1.65,.39,3.11,.48,4.15,.04,.52,.07,.94,.09,1.23,.02,.29,.02,.45,.02,.45h.22Z"/><polygon class="e" points="657.58 107.06 659.06 105.24 661.3 107 661.44 106.83 659.03 104.93 657.41 106.93 657.58 107.06 657.58 107.06"/><polygon class="e" points="657.14 104.38 658.56 102.63 660.77 104.01 660.89 103.82 658.52 102.34 656.97 104.25 657.14 104.38 657.14 104.38"/><polygon class="e" points="656.83 101.92 658.25 100.18 660.45 101.55 660.58 101.37 658.2 99.89 656.66 101.79 656.83 101.92 656.83 101.92"/><polygon class="e" points="656.07 99.12 657.49 97.37 659.69 98.75 659.82 98.56 657.44 97.08 655.9 98.99 656.07 99.12 656.07 99.12"/></g><g><path class="c" d="M619.19,168.74h0s12.27,6.06,14.89-9.46c-13.22-5.46-14.9,9.46-14.9,9.46Z"/><path class="e" d="M620.08,167.85s2.36-.95,5.31-2.53c2.95-1.58,6.5-3.77,8.89-6.27l-.16-.15c-2.36,2.47-5.89,4.66-8.84,6.23-1.47,.79-2.79,1.42-3.75,1.85-.48,.22-.86,.38-1.13,.5-.27,.11-.41,.17-.41,.17l.09,.2h0Z"/><polygon class="e" points="622.26 164.88 624.48 165.66 623.57 168.36 623.78 168.44 624.76 165.53 622.33 164.68 622.26 164.88 622.26 164.88"/><polygon class="e" points="624.63 163.57 626.76 164.31 626.21 166.85 626.42 166.9 627.01 164.17 624.7 163.36 624.63 163.57 624.63 163.57"/><polygon class="e" points="626.84 162.44 628.96 163.18 628.41 165.73 628.63 165.78 629.22 163.04 626.91 162.23 626.84 162.44 626.84 162.44"/><polygon class="e" points="629.22 160.78 631.34 161.52 630.79 164.07 631.01 164.12 631.6 161.38 629.29 160.57 629.22 160.78 629.22 160.78"/></g><g><path class="c" d="M661.45,147.92h0s3.38-13.27-12.34-12.61c-2.6,14.06,12.34,12.61,12.34,12.61Z"/><path class="e" d="M660.39,147.24s-1.42-2.11-3.58-4.67c-2.15-2.56-5.04-5.58-7.98-7.4l-.12,.19c2.9,1.8,5.78,4.8,7.93,7.35,1.07,1.28,1.96,2.44,2.59,3.28,.31,.42,.56,.76,.72,1,.17,.24,.25,.37,.25,.37l.18-.13h0Z"/><polygon class="e" points="657.04 145.72 657.34 143.39 660.17 143.72 660.2 143.5 657.15 143.15 656.82 145.7 657.04 145.72 657.04 145.72"/><polygon class="e" points="655.26 143.67 655.54 141.44 658.15 141.45 658.15 141.23 655.35 141.22 655.04 143.65 655.26 143.67 655.26 143.67"/><polygon class="e" points="653.7 141.75 653.98 139.52 656.59 139.53 656.59 139.31 653.79 139.29 653.48 141.72 653.7 141.75 653.7 141.75"/><polygon class="e" points="651.58 139.76 651.87 137.53 654.47 137.54 654.47 137.32 651.68 137.31 651.36 139.74 651.58 139.76 651.58 139.76"/></g><g><path class="c" d="M14.05,113.04h0s14.88,4.33,14.73-13.48c-15.81-3.47-14.74,13.48-14.74,13.48Z"/><path class="e" d="M14.86,111.87s2.44-1.53,5.42-3.87c2.98-2.34,6.5-5.49,8.67-8.75l-.21-.14c-2.14,3.22-5.65,6.36-8.62,8.69-1.48,1.17-2.83,2.13-3.81,2.8-.49,.34-.89,.6-1.16,.78-.27,.18-.42,.27-.42,.27l.14,.21h0Z"/><polygon class="e" points="16.71 108.13 19.34 108.56 18.86 111.75 19.11 111.79 19.62 108.36 16.75 107.89 16.71 108.13 16.71 108.13"/><polygon class="e" points="19.1 106.2 21.61 106.61 21.5 109.55 21.75 109.56 21.87 106.4 19.13 105.95 19.1 106.2 19.1 106.2"/><polygon class="e" points="21.33 104.5 23.85 104.91 23.74 107.86 23.99 107.87 24.11 104.71 21.37 104.26 21.33 104.5 21.33 104.5"/><polygon class="e" points="23.66 102.18 26.17 102.59 26.06 105.54 26.31 105.55 26.43 102.39 23.7 101.94 23.66 102.18 23.66 102.18"/></g><g><path class="c" d="M57.77,138.01h0s13.65-7.32,1.09-19.94c-13.72,8.59-1.09,19.94-1.09,19.94Z"/><path class="e" d="M57.53,136.61s.67-2.8,1.16-6.56c.49-3.76,.8-8.47,.07-12.31l-.25,.05c.72,3.8,.42,8.5-.07,12.24-.24,1.87-.53,3.5-.76,4.67-.11,.58-.21,1.05-.28,1.37-.07,.32-.11,.49-.11,.49l.24,.05h0Z"/><polygon class="e" points="56.23 132.65 58.41 131.12 60.3 133.73 60.51 133.59 58.47 130.78 56.09 132.45 56.23 132.65 56.23 132.65"/><polygon class="e" points="56.58 129.6 58.66 128.13 60.64 130.31 60.83 130.15 58.7 127.8 56.44 129.4 56.58 129.6 56.58 129.6"/><polygon class="e" points="56.99 126.82 59.08 125.36 61.06 127.54 61.25 127.37 59.12 125.03 56.85 126.62 56.99 126.82 56.99 126.82"/><polygon class="e" points="57.03 123.54 59.11 122.07 61.09 124.25 61.28 124.09 59.15 121.74 56.89 123.34 57.03 123.54 57.03 123.54"/></g><g><path class="c" d="M44.43,141.52h0s5.74-17.54-13.35-16.72c-4.9,18.6,13.34,16.72,13.34,16.72Z"/><path class="e" d="M43.24,140.62s-1.46-2.79-3.74-6.19c-2.28-3.39-5.4-7.39-8.72-9.81l-.16,.25c3.29,2.39,6.39,6.37,8.67,9.75,1.14,1.69,2.07,3.23,2.72,4.35,.32,.56,.58,1.01,.75,1.33,.17,.31,.26,.49,.26,.49l.23-.17h0Z"/><polygon class="e" points="39.38 138.6 40.03 135.51 43.41 135.95 43.48 135.66 39.84 135.19 39.12 138.56 39.38 138.6 39.38 138.6"/><polygon class="e" points="37.48 135.88 38.11 132.93 41.25 132.95 41.29 132.66 37.91 132.63 37.22 135.85 37.48 135.88 37.48 135.88"/><polygon class="e" points="35.83 133.33 36.46 130.38 39.61 130.4 39.64 130.1 36.26 130.08 35.58 133.29 35.83 133.33 35.83 133.33"/><polygon class="e" points="33.52 130.7 34.15 127.74 37.29 127.77 37.33 127.47 33.95 127.45 33.26 130.66 33.52 130.7 33.52 130.7"/></g><g><path class="c" d="M5.71,160.7h0s10.88,11.03,19.44-4.59c-12.12-10.74-19.44,4.59-19.44,4.59Z"/><path class="e" d="M6.99,160.08s2.88-.15,6.62-.74c3.74-.59,8.35-1.63,11.83-3.41l-.12-.22c-3.44,1.77-8.03,2.8-11.76,3.39-1.86,.29-3.51,.48-4.69,.59-.59,.06-1.07,.09-1.39,.11-.33,.02-.5,.03-.5,.03l.02,.25h0Z"/><polygon class="e" points="10.42 157.72 12.51 159.37 10.54 161.92 10.73 162.08 12.85 159.33 10.57 157.52 10.42 157.72 10.42 157.72"/><polygon class="e" points="13.45 157.19 15.45 158.77 13.91 161.29 14.13 161.42 15.77 158.71 13.6 156.99 13.45 157.19 13.45 157.19"/><polygon class="e" points="16.23 156.8 18.22 158.38 16.69 160.9 16.9 161.03 18.55 158.33 16.38 156.6 16.23 156.8 16.23 156.8"/><polygon class="e" points="19.39 155.91 21.39 157.49 19.85 160 20.07 160.14 21.71 157.43 19.54 155.71 19.39 155.91 19.39 155.91"/></g><g><path class="c" d="M62.19,113.86h0s14.66,5,15.33-12.8c-15.64-4.19-15.33,12.8-15.33,12.8Z"/><path class="e" d="M63.05,112.73s2.51-1.42,5.59-3.62c3.08-2.2,6.74-5.19,9.06-8.34l-.2-.15c-2.29,3.12-5.93,6.1-9,8.29-1.54,1.1-2.93,2-3.94,2.63-.5,.31-.91,.56-1.19,.73-.28,.17-.44,.25-.44,.25l.13,.21h0Z"/><polygon class="e" points="65.07 109.09 67.67 109.63 67.05 112.8 67.3 112.85 67.96 109.45 65.11 108.85 65.07 109.09 65.07 109.09"/><polygon class="e" points="67.54 107.26 70.03 107.78 69.79 110.72 70.04 110.74 70.3 107.59 67.59 107.02 67.54 107.26 67.54 107.26"/><polygon class="e" points="69.85 105.67 72.34 106.19 72.1 109.13 72.35 109.16 72.61 106 69.9 105.43 69.85 105.67 69.85 105.67"/><polygon class="e" points="72.28 103.46 74.77 103.98 74.53 106.92 74.78 106.94 75.04 103.79 72.33 103.22 72.28 103.46 72.28 103.46"/></g><g><path class="c" d="M118.42,118.14h0s.8-15.48-16.5-11.25c.25,16.19,16.5,11.25,16.5,11.25Z"/><path class="e" d="M117.1,117.62s-2.05-2.02-5.01-4.39c-2.96-2.36-6.83-5.07-10.5-6.43l-.09,.24c3.62,1.35,7.48,4.04,10.43,6.4,1.47,1.18,2.72,2.27,3.6,3.07,.44,.4,.79,.72,1.02,.95,.24,.23,.36,.35,.36,.35l.17-.18h0Z"/><polygon class="e" points="113.04 116.67 112.86 114.02 116.07 113.75 116.05 113.5 112.59 113.79 112.8 116.69 113.04 116.67 113.04 116.67"/><polygon class="e" points="110.61 114.8 110.43 112.25 113.32 111.69 113.28 111.44 110.17 112.05 110.36 114.82 110.61 114.8 110.61 114.8"/><polygon class="e" points="108.45 113.01 108.27 110.46 111.16 109.9 111.12 109.65 108.01 110.26 108.2 113.03 108.45 113.01 108.45 113.01"/><polygon class="e" points="105.66 111.27 105.48 108.73 108.37 108.17 108.32 107.92 105.22 108.53 105.41 111.29 105.66 111.27 105.66 111.27"/></g><g><path class="c" d="M90.17,162.32h0s1.85-15.39-15.7-12.35c-.85,16.17,15.7,12.35,15.7,12.35Z"/><path class="e" d="M88.89,161.71s-1.91-2.16-4.7-4.72c-2.79-2.56-6.47-5.52-10.04-7.13l-.1,.23c3.52,1.59,7.19,4.54,9.98,7.09,1.39,1.27,2.56,2.45,3.38,3.31,.41,.43,.74,.78,.96,1.02,.22,.24,.34,.37,.34,.37l.18-.17h0Z"/><polygon class="e" points="84.9 160.49 84.9 157.83 88.12 157.78 88.12 157.53 84.65 157.58 84.66 160.5 84.9 160.49 84.9 160.49"/><polygon class="e" points="82.6 158.45 82.6 155.91 85.52 155.54 85.5 155.29 82.35 155.68 82.36 158.46 82.6 158.45 82.6 158.45"/><polygon class="e" points="80.57 156.52 80.57 153.97 83.49 153.6 83.46 153.35 80.32 153.75 80.32 156.52 80.57 156.52 80.57 156.52"/><polygon class="e" points="77.9 154.6 77.9 152.06 80.82 151.69 80.79 151.44 77.65 151.83 77.66 154.61 77.9 154.6 77.9 154.6"/></g><g><path class="c" d="M202.19,147.23h0s13.15-4.58,3.72-18.35c-13.39,5.75-3.72,18.35-3.72,18.35Z"/><path class="e" d="M202.17,145.89s.98-2.49,1.94-5.9c.95-3.41,1.88-7.74,1.76-11.43h-.23c.12,3.65-.8,7.96-1.76,11.36-.48,1.7-.96,3.17-1.32,4.21-.18,.52-.33,.94-.44,1.22-.11,.29-.17,.44-.17,.44l.21,.09h0Z"/><polygon class="e" points="201.57 142 203.71 140.93 205.04 143.66 205.24 143.56 203.81 140.62 201.47 141.79 201.57 142 201.57 142"/><polygon class="e" points="202.3 139.22 204.35 138.19 205.81 140.54 206 140.42 204.43 137.89 202.2 139.01 202.3 139.22 202.3 139.22"/><polygon class="e" points="203.05 136.71 205.1 135.68 206.56 138.03 206.75 137.91 205.18 135.38 202.95 136.5 203.05 136.71 203.05 136.71"/><polygon class="e" points="203.53 133.66 205.59 132.64 207.05 134.98 207.24 134.86 205.67 132.34 203.43 133.45 203.53 133.66 203.53 133.66"/></g><g><path class="c" d="M250.12,148.5h0s8.65-10.92-6.7-17.48c-8.22,12.03,6.69,17.48,6.69,17.48Z"/><path class="e" d="M249.39,147.38s-.51-2.63-1.53-6.02c-1.02-3.39-2.56-7.54-4.64-10.59l-.19,.13c2.05,3.01,3.59,7.15,4.61,10.53,.51,1.69,.89,3.19,1.14,4.27,.13,.54,.22,.97,.28,1.27,.06,.3,.09,.46,.09,.46l.22-.04h0Z"/><polygon class="e" points="246.79 144.42 248.03 142.36 250.61 143.96 250.73 143.77 247.95 142.05 246.6 144.3 246.79 144.42 246.79 144.42"/><polygon class="e" points="245.92 141.68 247.11 139.71 249.6 140.91 249.69 140.7 247.01 139.42 245.72 141.56 245.92 141.68 245.92 141.68"/><polygon class="e" points="245.21 139.16 246.39 137.19 248.88 138.39 248.98 138.18 246.3 136.9 245.01 139.04 245.21 139.16 245.21 139.16"/><polygon class="e" points="243.99 136.33 245.17 134.36 247.66 135.56 247.76 135.35 245.08 134.06 243.79 136.2 243.99 136.33 243.99 136.33"/></g><g><path class="c" d="M705.88,114.7h0s2.66-13.68-13.98-12.46c-1.78,14.46,13.97,12.46,13.97,12.46Z"/><path class="e" d="M704.71,114.04s-1.66-2.11-4.12-4.65c-2.46-2.54-5.74-5.52-8.98-7.28l-.11,.2c3.21,1.74,6.47,4.7,8.92,7.23,1.23,1.27,2.25,2.42,2.97,3.26,.36,.42,.64,.76,.84,1,.19,.24,.3,.37,.3,.37l.18-.14h0Z"/><polygon class="e" points="701.05 112.61 701.21 110.21 704.23 110.45 704.25 110.22 700.99 109.97 700.82 112.59 701.05 112.61 701.05 112.61"/><polygon class="e" points="699.02 110.58 699.17 108.29 701.93 108.2 701.92 107.98 698.95 108.06 698.79 110.56 699.02 110.58 699.02 110.58"/><polygon class="e" points="697.23 108.66 697.38 106.37 700.14 106.29 700.13 106.07 697.16 106.15 697 108.65 697.23 108.66 697.23 108.66"/><polygon class="e" points="694.84 106.71 694.99 104.42 697.75 104.34 697.74 104.11 694.77 104.2 694.61 106.69 694.84 106.71 694.84 106.71"/></g><g><path class="c" d="M669.2,137.67h0s13.42-3.74,4.87-18.07c-13.73,4.89-4.88,18.07-4.88,18.07Z"/><path class="e" d="M669.27,136.33s1.14-2.42,2.31-5.77c1.17-3.34,2.37-7.6,2.48-11.29h-.23c-.11,3.64-1.31,7.88-2.47,11.21-.58,1.67-1.16,3.1-1.59,4.12-.21,.51-.39,.92-.52,1.19-.12,.28-.19,.43-.2,.43l.2,.1h0Z"/><polygon class="e" points="668.91 132.41 671.12 131.48 672.27 134.29 672.48 134.2 671.24 131.18 668.82 132.2 668.91 132.41 668.91 132.41"/><polygon class="e" points="669.81 129.68 671.93 128.79 673.24 131.22 673.44 131.11 672.03 128.5 669.73 129.47 669.81 129.68 669.81 129.68"/><polygon class="e" points="670.72 127.22 672.84 126.33 674.15 128.77 674.35 128.66 672.94 126.04 670.63 127.01 670.72 127.22 670.72 127.22"/><polygon class="e" points="671.4 124.22 673.52 123.32 674.82 125.76 675.02 125.65 673.62 123.03 671.31 124 671.4 124.22 671.4 124.22"/></g><g><path class="c" d="M713.14,146.31h0s-1.06-13.89-16.78-8.3c2.13,14.42,16.78,8.3,16.78,8.3Z"/><path class="e" d="M711.83,145.98s-2.16-1.59-5.21-3.39c-3.05-1.8-7-3.8-10.59-4.63l-.05,.22c3.55,.82,7.49,2.82,10.53,4.6,1.52,.89,2.82,1.74,3.73,2.36,.46,.31,.82,.56,1.07,.74,.25,.18,.38,.27,.38,.27l.14-.18h0Z"/><polygon class="e" points="707.92 145.57 707.44 143.22 710.42 142.64 710.37 142.42 707.16 143.04 707.69 145.61 707.92 145.57 707.92 145.57"/><polygon class="e" points="705.42 144.15 704.96 141.9 707.6 141.09 707.53 140.88 704.69 141.75 705.19 144.2 705.42 144.15 705.42 144.15"/><polygon class="e" points="703.19 142.78 702.72 140.53 705.37 139.72 705.3 139.51 702.46 140.38 702.96 142.83 703.19 142.78 703.19 142.78"/><polygon class="e" points="700.37 141.53 699.9 139.28 702.55 138.47 702.48 138.26 699.64 139.13 700.14 141.58 700.37 141.53 700.37 141.53"/></g><g><path class="c" d="M732.53,125.01h0s9.42-10.27-5.41-17.92c-9.07,11.4,5.41,17.92,5.41,17.92Z"/><path class="e" d="M731.88,123.84s-.31-2.66-1.09-6.11c-.77-3.45-2.01-7.7-3.86-10.9l-.2,.11c1.83,3.16,3.06,7.39,3.83,10.83,.39,1.72,.66,3.24,.83,4.34,.09,.55,.15,.99,.19,1.29,.04,.3,.06,.47,.06,.47l.23-.02h0Z"/><polygon class="e" points="729.51 120.7 730.89 118.74 733.35 120.52 733.48 120.34 730.84 118.42 729.32 120.56 729.51 120.7 729.51 120.7"/><polygon class="e" points="728.84 117.91 730.16 116.03 732.56 117.41 732.67 117.21 730.09 115.73 728.65 117.77 728.84 117.91 728.84 117.91"/><polygon class="e" points="728.31 115.34 729.63 113.47 732.03 114.84 732.14 114.64 729.56 113.16 728.12 115.2 728.31 115.34 728.31 115.34"/><polygon class="e" points="727.3 112.43 728.62 110.55 731.02 111.93 731.13 111.73 728.55 110.25 727.11 112.29 727.3 112.43 727.3 112.43"/></g><g><path class="c" d="M733.48,146.05h0s12.91,5.25,14.91-11.32c-13.85-4.52-14.91,11.32-14.91,11.32Z"/><path class="e" d="M734.35,145.03s2.38-1.22,5.35-3.15c2.97-1.93,6.52-4.57,8.87-7.42l-.17-.15c-2.32,2.81-5.86,5.45-8.82,7.37-1.48,.96-2.81,1.75-3.78,2.29-.48,.27-.87,.48-1.14,.63-.27,.14-.42,.22-.42,.22l.1,.21h0Z"/><polygon class="e" points="736.47 141.72 738.78 142.33 737.97 145.25 738.19 145.31 739.06 142.16 736.53 141.49 736.47 141.72 736.47 141.72"/><polygon class="e" points="738.85 140.11 741.07 140.7 740.62 143.42 740.84 143.46 741.33 140.53 738.91 139.89 738.85 140.11 738.85 140.11"/><polygon class="e" points="741.07 138.72 743.29 139.31 742.84 142.04 743.06 142.07 743.55 139.14 741.13 138.5 741.07 138.72 741.07 138.72"/><polygon class="e" points="743.45 136.76 745.67 137.34 745.21 140.07 745.44 140.1 745.92 137.17 743.51 136.53 743.45 136.76 743.45 136.76"/></g><g><path class="c" d="M809.65,125.91h0s9.42-10.27-5.41-17.92c-9.07,11.4,5.41,17.92,5.41,17.92Z"/><path class="e" d="M808.99,124.74s-.31-2.66-1.09-6.11c-.77-3.45-2.01-7.7-3.86-10.9l-.2,.11c1.83,3.16,3.06,7.39,3.83,10.83,.39,1.72,.66,3.24,.83,4.34,.09,.55,.15,.99,.19,1.29,.04,.3,.06,.47,.06,.47l.23-.02h0Z"/><polygon class="e" points="806.62 121.6 808.01 119.64 810.46 121.42 810.6 121.24 807.95 119.32 806.43 121.46 806.62 121.6 806.62 121.6"/><polygon class="e" points="805.95 118.8 807.27 116.93 809.67 118.31 809.78 118.11 807.2 116.63 805.76 118.67 805.95 118.8 805.95 118.8"/><polygon class="e" points="805.42 116.24 806.75 114.36 809.15 115.74 809.26 115.54 806.68 114.06 805.24 116.1 805.42 116.24 805.42 116.24"/><polygon class="e" points="804.41 113.33 805.73 111.45 808.13 112.83 808.24 112.63 805.67 111.15 804.22 113.19 804.41 113.33 804.41 113.33"/></g><g><path class="c" d="M759.19,130.88h0s13.11,4.7,14.42-11.93c-14.03-3.94-14.43,11.93-14.43,11.93Z"/><path class="e" d="M760.01,129.82s2.33-1.32,5.22-3.37c2.88-2.05,6.32-4.83,8.55-7.78l-.18-.14c-2.2,2.91-5.63,5.68-8.5,7.73-1.44,1.02-2.74,1.86-3.68,2.45-.47,.29-.85,.52-1.11,.68-.26,.16-.41,.24-.41,.24l.11,.2h0Z"/><polygon class="e" points="761.99 126.42 764.33 126.94 763.64 129.89 763.86 129.94 764.6 126.76 762.04 126.19 761.99 126.42 761.99 126.42"/><polygon class="e" points="764.3 124.72 766.55 125.21 766.21 127.95 766.43 127.98 766.8 125.03 764.36 124.49 764.3 124.72 764.3 124.72"/><polygon class="e" points="766.47 123.24 768.71 123.73 768.37 126.47 768.59 126.5 768.96 123.55 766.52 123.01 766.47 123.24 766.47 123.24"/><polygon class="e" points="768.76 121.17 771 121.67 770.66 124.41 770.89 124.43 771.25 121.49 768.81 120.95 768.76 121.17 768.76 121.17"/></g><g><path class="c" d="M787.68,173.58h0s9.42-10.27-5.41-17.92c-9.07,11.4,5.41,17.92,5.41,17.92Z"/><path class="e" d="M787.03,172.41s-.31-2.66-1.09-6.11c-.77-3.45-2.01-7.7-3.86-10.9l-.2,.11c1.83,3.16,3.06,7.39,3.83,10.83,.39,1.72,.66,3.24,.83,4.34,.09,.55,.15,.99,.19,1.29,.04,.3,.06,.47,.06,.47l.23-.02h0Z"/><polygon class="e" points="784.66 169.27 786.04 167.31 788.5 169.09 788.63 168.9 785.98 166.99 784.47 169.13 784.66 169.27 784.66 169.27"/><polygon class="e" points="783.98 166.47 785.31 164.6 787.71 165.97 787.82 165.77 785.24 164.3 783.8 166.34 783.98 166.47 783.98 166.47"/><polygon class="e" points="783.46 163.91 784.78 162.03 787.18 163.41 787.29 163.21 784.71 161.73 783.27 163.77 783.46 163.91 783.46 163.91"/><polygon class="e" points="782.44 160.99 783.77 159.12 786.17 160.49 786.28 160.3 783.7 158.82 782.26 160.86 782.44 160.99 782.44 160.99"/></g></g></svg>