<?xml version="1.0" encoding="UTF-8"?><svg xmlns="http://www.w3.org/2000/svg" viewBox="0 0 827.97 262"><defs><style>.c,.d{fill:#afa57d;}.d{font-family:Teko-Light, Teko;font-size:139px;}.e{fill:#777159;}</style></defs><g id="a"><text class="d" transform="translate(16.85 174.18)"><tspan x="0" y="0">COFFRETS &amp; CADEAUX</tspan></text></g><g id="b"><g><path class="c" d="M154.62,160.88h0s12.55,7.89,16.95-8.4c-13.63-7.36-16.95,8.4-16.95,8.4Z"/><path class="e" d="M155.66,160.03s2.63-.75,5.96-2.09c3.33-1.35,7.36-3.29,10.18-5.68l-.16-.18c-2.79,2.37-6.8,4.3-10.12,5.64-1.66,.67-3.14,1.19-4.21,1.55-.53,.18-.97,.31-1.26,.4-.3,.09-.46,.14-.46,.14l.07,.23h0Z"/><polygon class="e" points="158.31 157.11 160.61 158.2 159.36 160.98 159.58 161.09 160.92 158.09 158.4 156.9 158.31 157.11 158.31 157.11"/><polygon class="e" points="160.99 155.98 163.19 157.02 162.34 159.67 162.57 159.75 163.48 156.9 161.08 155.76 160.99 155.98 160.99 155.98"/><polygon class="e" points="163.47 155.03 165.68 156.07 164.83 158.72 165.05 158.8 165.97 155.95 163.57 154.81 163.47 155.03 163.47 155.03"/><polygon class="e" points="166.2 153.52 168.4 154.56 167.55 157.22 167.78 157.3 168.69 154.45 166.29 153.31 166.2 153.52 166.2 153.52"/></g><g><path class="c" d="M153.66,153.61h0s6.6-13.55-10.62-16.45c-5.92,14.59,10.61,16.45,10.61,16.45Z"/><path class="e" d="M152.66,152.63s-1.08-2.6-2.85-5.86c-1.77-3.26-4.24-7.18-7.03-9.82l-.17,.18c2.76,2.61,5.22,6.51,6.98,9.76,.88,1.62,1.59,3.08,2.08,4.14,.24,.53,.43,.95,.56,1.25,.13,.29,.19,.45,.2,.45l.22-.1h0Z"/><polygon class="e" points="149.36 150.22 150.2 147.77 153.2 148.77 153.28 148.54 150.05 147.46 149.13 150.14 149.36 150.22 149.36 150.22"/><polygon class="e" points="147.88 147.6 148.68 145.25 151.5 145.86 151.56 145.62 148.52 144.97 147.65 147.52 147.88 147.6 147.88 147.6"/><polygon class="e" points="146.61 145.16 147.41 142.82 150.23 143.43 150.29 143.19 147.26 142.53 146.38 145.09 146.61 145.16 146.61 145.16"/><polygon class="e" points="144.75 142.53 145.55 140.19 148.37 140.8 148.43 140.56 145.39 139.9 144.52 142.46 144.75 142.53 144.75 142.53"/></g><g><path class="c" d="M394.59,156.91h0s13.83-1.63,7.6-17.11c-14.32,2.72-7.6,17.11-7.6,17.11Z"/><path class="e" d="M394.86,155.59s1.5-2.22,3.17-5.34c1.67-3.12,3.51-7.15,4.19-10.77l-.22-.04c-.67,3.58-2.51,7.6-4.17,10.71-.83,1.56-1.62,2.89-2.2,3.83-.29,.47-.53,.84-.7,1.1-.17,.26-.26,.39-.26,.39l.19,.13h0Z"/><polygon class="e" points="395.11 151.67 397.43 151.08 398.14 154.04 398.36 153.98 397.6 150.8 395.05 151.44 395.11 151.67 395.11 151.67"/><polygon class="e" points="396.42 149.11 398.65 148.55 399.57 151.16 399.78 151.08 398.79 148.28 396.37 148.88 396.42 149.11 396.42 149.11"/><polygon class="e" points="397.7 146.82 399.93 146.27 400.84 148.87 401.06 148.79 400.07 145.99 397.64 146.6 397.7 146.82 397.7 146.82"/><polygon class="e" points="398.83 143.95 401.06 143.4 401.98 146 402.19 145.92 401.2 143.12 398.78 143.73 398.83 143.95 398.83 143.95"/></g><g><path class="c" d="M380.29,161.15h0s3.65-13.45-13.04-13.44c-2.82,14.3,13.03,13.44,13.03,13.44Z"/><path class="e" d="M379.17,160.41s-1.5-2.22-3.77-4.93c-2.27-2.71-5.32-5.92-8.43-7.91l-.12,.19c3.07,1.96,6.11,5.16,8.38,7.86,1.13,1.35,2.07,2.58,2.73,3.47,.33,.45,.59,.81,.76,1.06,.18,.25,.27,.39,.27,.39l.19-.12h0Z"/><polygon class="e" points="375.62 158.71 375.95 156.33 378.95 156.78 378.99 156.56 375.76 156.07 375.39 158.67 375.62 158.71 375.62 158.71"/><polygon class="e" points="373.74 156.54 374.06 154.26 376.82 154.38 376.83 154.15 373.86 154.03 373.51 156.5 373.74 156.54 373.74 156.54"/><polygon class="e" points="372.1 154.5 372.41 152.22 375.17 152.34 375.18 152.12 372.21 151.99 371.87 154.46 372.1 154.5 372.1 154.5"/><polygon class="e" points="369.86 152.38 370.17 150.1 372.93 150.22 372.94 150 369.97 149.87 369.63 152.34 369.86 152.38 369.86 152.38"/></g><g><path class="c" d="M331.17,160.88h0s13.74-2.28,6.79-17.44c-14.17,3.38-6.79,17.44-6.79,17.44Z"/><path class="e" d="M331.38,159.55s1.39-2.29,2.92-5.48c1.52-3.2,3.17-7.3,3.68-10.96l-.22-.03c-.51,3.61-2.15,7.7-3.66,10.89-.76,1.59-1.48,2.96-2.02,3.93-.27,.48-.49,.87-.64,1.13-.15,.26-.24,.4-.24,.4l.19,.12h0Z"/><polygon class="e" points="331.45 155.62 333.75 154.93 334.59 157.84 334.8 157.78 333.9 154.64 331.39 155.39 331.45 155.62 331.45 155.62"/><polygon class="e" points="332.64 153 334.84 152.34 335.88 154.9 336.09 154.81 334.97 152.06 332.58 152.78 332.64 153 332.64 153"/><polygon class="e" points="333.81 150.66 336.01 150 337.05 152.56 337.26 152.47 336.14 149.72 333.75 150.43 333.81 150.66 333.81 150.66"/><polygon class="e" points="334.81 147.74 337.01 147.08 338.05 149.64 338.26 149.55 337.14 146.8 334.75 147.52 334.81 147.74 334.81 147.74"/></g><g><path class="c" d="M278.91,174.7h0s3.7-13.43-12.99-13.48c-2.87,14.29,12.99,13.48,12.99,13.48Z"/><path class="e" d="M277.79,173.95s-1.49-2.23-3.76-4.95c-2.26-2.72-5.3-5.94-8.4-7.94l-.12,.19c3.07,1.97,6.09,5.18,8.35,7.89,1.13,1.36,2.06,2.59,2.72,3.48,.33,.45,.58,.81,.76,1.06,.17,.25,.27,.39,.27,.39l.19-.12h0Z"/><polygon class="e" points="274.25 172.24 274.59 169.86 277.59 170.33 277.62 170.1 274.39 169.6 274.02 172.2 274.25 172.24 274.25 172.24"/><polygon class="e" points="272.38 170.06 272.7 167.79 275.46 167.92 275.47 167.69 272.5 167.55 272.15 170.02 272.38 170.06 272.38 170.06"/><polygon class="e" points="270.74 168.02 271.06 165.74 273.82 165.87 273.83 165.65 270.86 165.51 270.51 167.98 270.74 168.02 270.74 168.02"/><polygon class="e" points="268.51 165.89 268.83 163.61 271.59 163.74 271.6 163.52 268.63 163.38 268.28 165.85 268.51 165.89 268.51 165.89"/></g><g><path class="c" d="M334.54,179.26h0s13.42-3.74,4.87-18.07c-13.73,4.89-4.88,18.07-4.88,18.07Z"/><path class="e" d="M334.61,177.92s1.14-2.42,2.31-5.77c1.17-3.34,2.37-7.6,2.48-11.29h-.23c-.11,3.64-1.31,7.88-2.47,11.21-.58,1.67-1.16,3.1-1.59,4.12-.21,.51-.39,.92-.52,1.19-.12,.28-.19,.43-.2,.43l.2,.1h0Z"/><polygon class="e" points="334.25 174 336.46 173.07 337.61 175.88 337.82 175.79 336.58 172.77 334.16 173.79 334.25 174 334.25 174"/><polygon class="e" points="335.16 171.27 337.27 170.38 338.58 172.82 338.78 172.7 337.37 170.09 335.07 171.06 335.16 171.27 335.16 171.27"/><polygon class="e" points="336.06 168.82 338.18 167.92 339.49 170.36 339.69 170.25 338.28 167.63 335.98 168.6 336.06 168.82 336.06 168.82"/><polygon class="e" points="336.74 165.81 338.86 164.92 340.17 167.35 340.37 167.24 338.96 164.62 336.66 165.59 336.74 165.81 336.74 165.81"/></g><g><path class="c" d="M302.84,173.65h0s13.89-1.11,8.24-16.81c-14.41,2.18-8.24,16.81-8.24,16.81Z"/><path class="e" d="M303.16,172.35s1.58-2.16,3.37-5.22c1.79-3.06,3.78-7.01,4.6-10.61l-.22-.05c-.81,3.56-2.79,7.5-4.57,10.54-.89,1.52-1.73,2.82-2.35,3.74-.31,.46-.56,.82-.74,1.07-.18,.25-.27,.38-.27,.38l.18,.14h0Z"/><polygon class="e" points="303.56 168.43 305.91 167.94 306.5 170.92 306.72 170.87 306.09 167.67 303.52 168.21 303.56 168.43 303.56 168.43"/><polygon class="e" points="304.97 165.93 307.22 165.46 308.04 168.1 308.26 168.03 307.37 165.19 304.93 165.7 304.97 165.93 304.97 165.93"/><polygon class="e" points="306.33 163.69 308.58 163.22 309.4 165.86 309.62 165.79 308.74 162.95 306.29 163.46 306.33 163.69 306.33 163.69"/><polygon class="e" points="307.58 160.87 309.82 160.4 310.64 163.04 310.86 162.96 309.98 160.13 307.53 160.64 307.58 160.87 307.58 160.87"/></g><g><path class="c" d="M292.95,169.27h0s9.61-10.09-5.08-18.02c-9.28,11.23,5.07,18.02,5.07,18.02Z"/><path class="e" d="M292.32,168.09s-.26-2.67-.97-6.13c-.71-3.47-1.86-7.74-3.65-10.97l-.2,.11c1.77,3.19,2.92,7.45,3.63,10.9,.35,1.73,.6,3.26,.75,4.35,.08,.55,.13,.99,.17,1.29,.04,.3,.05,.47,.05,.47l.23-.02h0Z"/><polygon class="e" points="290.01 164.91 291.43 162.98 293.85 164.8 293.98 164.62 291.37 162.65 289.82 164.77 290.01 164.91 290.01 164.91"/><polygon class="e" points="289.38 162.1 290.74 160.25 293.12 161.67 293.23 161.47 290.68 159.95 289.2 161.96 289.38 162.1 289.38 162.1"/><polygon class="e" points="288.91 159.53 290.27 157.68 292.64 159.1 292.75 158.9 290.2 157.37 288.72 159.39 288.91 159.53 288.91 159.53"/><polygon class="e" points="287.95 156.59 289.31 154.74 291.68 156.16 291.79 155.97 289.24 154.44 287.76 156.46 287.95 156.59 287.95 156.59"/></g><g><path class="c" d="M296.34,155.84h0s13.52,3.38,13.17-13.3c-14.35-2.53-13.17,13.3-13.17,13.3Z"/><path class="e" d="M297.06,154.71s2.19-1.54,4.86-3.87c2.67-2.33,5.81-5.44,7.74-8.59l-.19-.12c-1.9,3.11-5.03,6.21-7.69,8.53-1.33,1.16-2.54,2.12-3.42,2.8-.44,.34-.79,.6-1.04,.78-.25,.18-.38,.28-.38,.28l.13,.19h0Z"/><polygon class="e" points="298.68 151.13 301.06 151.41 300.67 154.42 300.9 154.45 301.32 151.21 298.71 150.9 298.68 151.13 298.68 151.13"/><polygon class="e" points="300.82 149.2 303.1 149.47 303.03 152.24 303.26 152.24 303.33 149.27 300.85 148.97 300.82 149.2 300.82 149.2"/><polygon class="e" points="302.82 147.52 305.1 147.79 305.04 150.55 305.26 150.55 305.33 147.58 302.85 147.29 302.82 147.52 302.82 147.52"/><polygon class="e" points="304.9 145.24 307.18 145.51 307.11 148.27 307.34 148.27 307.41 145.3 304.93 145.01 304.9 145.24 304.9 145.24"/></g><g><path class="c" d="M250.38,150.68h0s13.88-1.2,8.13-16.86c-14.39,2.27-8.13,16.86-8.13,16.86Z"/><path class="e" d="M250.69,149.37s1.57-2.17,3.33-5.24c1.77-3.07,3.73-7.03,4.53-10.64l-.22-.05c-.79,3.56-2.74,7.51-4.5,10.57-.88,1.53-1.71,2.83-2.32,3.76-.31,.46-.56,.83-.73,1.08-.17,.25-.27,.38-.27,.38l.18,.14h0Z"/><polygon class="e" points="251.06 145.46 253.41 144.95 254.01 147.92 254.24 147.87 253.58 144.67 251.02 145.23 251.06 145.46 251.06 145.46"/><polygon class="e" points="252.46 142.94 254.7 142.46 255.54 145.09 255.75 145.02 254.85 142.19 252.41 142.71 252.46 142.94 252.46 142.94"/><polygon class="e" points="253.8 140.69 256.05 140.21 256.88 142.84 257.1 142.77 256.2 139.94 253.76 140.47 253.8 140.69 253.8 140.69"/><polygon class="e" points="255.02 137.86 257.27 137.38 258.11 140.01 258.32 139.94 257.42 137.11 254.98 137.64 255.02 137.86 255.02 137.86"/></g><g><path class="c" d="M204.74,143.3h0s3.3-13.85-13.04-12.91c-2.47,14.66,13.04,12.91,13.04,12.91Z"/><path class="e" d="M203.63,142.61s-1.51-2.17-3.8-4.79c-2.28-2.63-5.33-5.71-8.42-7.56l-.12,.2c3.05,1.82,6.09,4.89,8.36,7.51,1.14,1.31,2.08,2.5,2.74,3.37,.33,.43,.59,.79,.77,1.03,.18,.24,.27,.38,.27,.38l.19-.14h0Z"/><polygon class="e" points="200.12 141.09 200.39 138.66 203.34 138.95 203.36 138.72 200.19 138.41 199.89 141.07 200.12 141.09 200.12 141.09"/><polygon class="e" points="198.23 138.99 198.49 136.66 201.2 136.63 201.2 136.4 198.29 136.43 198.01 138.97 198.23 138.99 198.23 138.99"/><polygon class="e" points="196.58 137.01 196.84 134.69 199.54 134.66 199.55 134.42 196.64 134.46 196.35 136.99 196.58 137.01 196.58 137.01"/><polygon class="e" points="194.34 134.98 194.6 132.66 197.31 132.63 197.31 132.4 194.4 132.43 194.12 134.96 194.34 134.98 194.34 134.98"/></g><g><path class="c" d="M432.04,161.77h0s10.11-8.97-3.49-17.94c-9.88,10.11,3.49,17.94,3.49,17.94Z"/><path class="e" d="M431.52,160.56s-.04-2.61-.46-6.04c-.41-3.43-1.19-7.68-2.67-10.97l-.2,.09c1.46,3.25,2.24,7.49,2.65,10.9,.21,1.71,.32,3.21,.38,4.29,.03,.54,.05,.97,.06,1.27,.01,.3,.01,.46,.01,.46h.22Z"/><polygon class="e" points="429.54 157.27 431.06 155.52 433.27 157.5 433.41 157.33 431.04 155.2 429.37 157.12 429.54 157.27 429.54 157.27"/><polygon class="e" points="429.16 154.49 430.62 152.81 432.81 154.4 432.93 154.22 430.58 152.51 428.99 154.34 429.16 154.49 429.16 154.49"/><polygon class="e" points="428.9 151.95 430.36 150.27 432.55 151.85 432.67 151.67 430.32 149.97 428.73 151.8 428.9 151.95 428.9 151.95"/><polygon class="e" points="428.2 149.02 429.66 147.34 431.85 148.92 431.97 148.74 429.63 147.04 428.03 148.87 428.2 149.02 428.2 149.02"/></g><g><path class="c" d="M586.92,147.74h0s11.39,8,17.12-7.74c-12.48-7.5-17.12,7.74-17.12,7.74Z"/><path class="e" d="M588.01,146.94s2.6-.66,5.94-1.89c3.33-1.23,7.4-3.01,10.34-5.27l-.14-.18c-2.9,2.23-6.96,4.02-10.28,5.24-1.66,.61-3.14,1.08-4.2,1.4-.53,.16-.96,.28-1.25,.36-.29,.08-.46,.12-.46,.12l.05,.22h0Z"/><polygon class="e" points="590.82 144.17 592.95 145.28 591.49 147.96 591.69 148.06 593.26 145.18 590.94 143.96 590.82 144.17 590.82 144.17"/><polygon class="e" points="593.52 143.13 595.55 144.19 594.48 146.76 594.7 146.84 595.84 144.08 593.63 142.92 593.52 143.13 593.52 143.13"/><polygon class="e" points="596 142.26 598.03 143.33 596.97 145.89 597.18 145.98 598.32 143.22 596.11 142.06 596 142.26 596 142.26"/><polygon class="e" points="598.77 140.87 600.8 141.94 599.73 144.5 599.95 144.58 601.09 141.83 598.88 140.67 598.77 140.87 598.77 140.87"/></g><g><path class="c" d="M218.62,158.5h0s10.93-7.79-1.26-17.26c-10.85,8.89,1.26,17.26,1.26,17.26Z"/><path class="e" d="M218.26,157.33s.27-2.48,.28-5.76c0-3.28-.24-7.37-1.29-10.59l-.21,.07c1.04,3.19,1.29,7.25,1.28,10.52,0,1.63-.07,3.07-.14,4.1-.03,.51-.07,.92-.09,1.21-.03,.28-.04,.44-.04,.44l.22,.02h0Z"/><polygon class="e" points="216.72 154.07 218.42 152.51 220.33 154.54 220.49 154.4 218.43 152.21 216.57 153.91 216.72 154.07 216.72 154.07"/><polygon class="e" points="216.68 151.4 218.31 149.91 220.25 151.57 220.39 151.41 218.31 149.63 216.53 151.25 216.68 151.4 216.68 151.4"/><polygon class="e" points="216.73 148.97 218.36 147.48 220.3 149.14 220.44 148.98 218.36 147.2 216.58 148.82 216.73 148.97 216.73 148.97"/><polygon class="e" points="216.4 146.15 218.03 144.66 219.97 146.31 220.11 146.15 218.03 144.37 216.25 145.99 216.4 146.15 216.4 146.15"/></g><g><path class="c" d="M246.74,143.47h0s-.09-15.5-17.12-10.29c1.17,16.15,17.12,10.29,17.12,10.29Z"/><path class="e" d="M245.39,143.03s-2.16-1.9-5.25-4.09c-3.09-2.19-7.11-4.67-10.85-5.82l-.07,.24c3.7,1.14,7.7,3.61,10.78,5.79,1.54,1.09,2.85,2.11,3.77,2.86,.46,.37,.83,.68,1.08,.89,.25,.21,.38,.33,.38,.33l.16-.19h0Z"/><polygon class="e" points="241.29 142.32 240.95 139.68 244.14 139.23 244.11 138.98 240.67 139.47 241.04 142.35 241.29 142.32 241.29 142.32"/><polygon class="e" points="238.75 140.58 238.43 138.06 241.28 137.33 241.22 137.08 238.15 137.87 238.5 140.62 238.75 140.58 238.75 140.58"/><polygon class="e" points="236.49 138.92 236.17 136.4 239.02 135.66 238.96 135.42 235.89 136.21 236.25 138.96 236.49 138.92 236.49 138.92"/><polygon class="e" points="233.6 137.35 233.28 134.83 236.13 134.1 236.07 133.85 233.01 134.64 233.36 137.39 233.6 137.35 233.6 137.35"/></g><g><path class="c" d="M467.81,159.1h0s14.74,3.28,13.48-14.04c-15.6-2.38-13.49,14.04-13.49,14.04Z"/><path class="e" d="M468.52,157.91s2.28-1.64,5.03-4.1c2.75-2.46,5.98-5.75,7.88-9.05l-.21-.12c-1.88,3.27-5.1,6.54-7.84,9-1.37,1.23-2.62,2.25-3.53,2.97-.45,.36-.82,.64-1.08,.83-.26,.19-.4,.29-.4,.29l.15,.19h0Z"/><polygon class="e" points="470.08 154.16 472.66 154.41 472.4 157.54 472.65 157.57 472.93 154.2 470.1 153.92 470.08 154.16 470.08 154.16"/><polygon class="e" points="472.28 152.12 474.75 152.36 474.83 155.24 475.07 155.23 474.99 152.15 472.3 151.89 472.28 152.12 472.28 152.12"/><polygon class="e" points="474.35 150.34 476.82 150.58 476.9 153.45 477.14 153.45 477.06 150.36 474.37 150.1 474.35 150.34 474.35 150.34"/><polygon class="e" points="476.47 147.93 478.94 148.17 479.02 151.04 479.26 151.04 479.18 147.96 476.49 147.69 476.47 147.93 476.47 147.93"/></g><g><path class="c" d="M462.76,186.97h0s4.22-12.97-11.46-13.34c-3.49,13.82,11.45,13.34,11.45,13.34Z"/><path class="e" d="M461.76,186.23s-1.28-2.19-3.25-4.87c-1.98-2.69-4.65-5.87-7.45-7.87l-.13,.18c2.77,1.98,5.44,5.15,7.41,7.82,.98,1.34,1.8,2.55,2.36,3.43,.28,.44,.5,.8,.65,1.04,.15,.25,.23,.38,.23,.38l.19-.12h0Z"/><polygon class="e" points="458.52 184.5 458.97 182.2 461.77 182.71 461.81 182.49 458.8 181.95 458.31 184.46 458.52 184.5 458.52 184.5"/><polygon class="e" points="456.89 182.35 457.32 180.15 459.9 180.33 459.92 180.11 457.14 179.91 456.67 182.31 456.89 182.35 456.89 182.35"/><polygon class="e" points="455.46 180.33 455.89 178.13 458.48 178.31 458.5 178.09 455.71 177.9 455.25 180.29 455.46 180.33 455.46 180.33"/><polygon class="e" points="453.48 178.22 453.91 176.02 456.5 176.2 456.52 175.98 453.74 175.79 453.27 178.18 453.48 178.22 453.48 178.22"/></g><g><path class="c" d="M394.4,166.15h0s9.36,4.36,11.07-7.39c-10.06-3.88-11.07,7.39-11.07,7.39Z"/><path class="e" d="M395.05,165.46s1.76-.76,3.96-2c2.2-1.24,4.83-2.96,6.59-4.88l-.13-.11c-1.74,1.9-4.36,3.62-6.55,4.85-1.1,.62-2.08,1.12-2.79,1.46-.36,.17-.64,.31-.84,.4-.2,.09-.31,.14-.31,.14l.07,.15h0Z"/><polygon class="e" points="396.64 163.19 398.33 163.74 397.69 165.79 397.85 165.84 398.53 163.63 396.69 163.04 396.64 163.19 396.64 163.19"/><polygon class="e" points="398.41 162.16 400.02 162.68 399.65 164.61 399.81 164.64 400.21 162.57 398.46 162 398.41 162.16 398.41 162.16"/><polygon class="e" points="400.05 161.27 401.67 161.79 401.3 163.72 401.46 163.75 401.86 161.68 400.1 161.11 400.05 161.27 400.05 161.27"/><polygon class="e" points="401.82 159.97 403.43 160.5 403.06 162.43 403.23 162.46 403.62 160.39 401.87 159.82 401.82 159.97 401.82 159.97"/></g><g><path class="c" d="M502.04,155.57h0s-1.39-10.23-12.2-5.32c2.17,10.56,12.2,5.32,12.2,5.32Z"/><path class="e" d="M501.11,155.4s-1.59-1.07-3.82-2.25c-2.23-1.18-5.1-2.47-7.67-2.91l-.03,.17c2.54,.43,5.4,1.72,7.62,2.89,1.11,.59,2.06,1.15,2.74,1.56,.34,.21,.6,.38,.79,.5,.18,.12,.28,.18,.28,.18l.09-.14h0Z"/><polygon class="e" points="498.34 155.28 497.89 153.57 499.96 152.99 499.91 152.83 497.69 153.45 498.18 155.33 498.34 155.28 498.34 155.28"/><polygon class="e" points="496.51 154.35 496.08 152.71 497.9 151.98 497.84 151.83 495.88 152.61 496.35 154.4 496.51 154.35 496.51 154.35"/><polygon class="e" points="494.87 153.45 494.44 151.81 496.26 151.08 496.21 150.92 494.25 151.71 494.72 153.49 494.87 153.45 494.87 153.45"/><polygon class="e" points="492.83 152.66 492.4 151.02 494.22 150.29 494.16 150.14 492.2 150.92 492.67 152.71 492.83 152.66 492.83 152.66"/></g><g><path class="c" d="M514.73,173.89h0s6.37,12.12,17.61,1.11c-7.48-12.19-17.61-1.11-17.61-1.11Z"/><path class="e" d="M515.97,173.69s2.47,.61,5.78,1.08c3.31,.46,7.48,.77,10.88,.15l-.04-.22c-3.36,.61-7.51,.3-10.81-.16-1.65-.23-3.09-.5-4.12-.71-.51-.11-.92-.2-1.21-.26-.28-.06-.43-.1-.43-.1l-.05,.22h0Z"/><polygon class="e" points="519.48 172.58 520.82 174.51 518.5 176.16 518.62 176.34 521.12 174.57 519.66 172.45 519.48 172.58 519.48 172.58"/><polygon class="e" points="522.17 172.91 523.45 174.76 521.51 176.49 521.66 176.66 523.74 174.79 522.35 172.78 522.17 172.91 522.17 172.91"/><polygon class="e" points="524.62 173.29 525.9 175.14 523.96 176.88 524.11 177.04 526.19 175.18 524.8 173.17 524.62 173.29 524.62 173.29"/><polygon class="e" points="527.52 173.35 528.8 175.2 526.86 176.93 527.01 177.1 529.09 175.24 527.7 173.22 527.52 173.35 527.52 173.35"/></g><g><path class="c" d="M545.79,172.29h0s11.84-5.66,1.7-16.84c-11.95,6.73-1.7,16.84-1.7,16.84Z"/><path class="e" d="M545.64,171.1s.68-2.34,1.24-5.5c.56-3.16,1.01-7.14,.54-10.42l-.21,.03c.46,3.24,.02,7.21-.54,10.36-.28,1.57-.59,2.95-.83,3.92-.12,.49-.22,.88-.29,1.15-.07,.27-.11,.41-.11,.41l.21,.05h0Z"/><polygon class="e" points="544.7 167.7 546.6 166.48 548.1 168.77 548.28 168.65 546.67 166.2 544.59 167.52 544.7 167.7 544.7 167.7"/><polygon class="e" points="545.12 165.12 546.94 163.96 548.53 165.89 548.69 165.75 546.98 163.69 545 164.95 545.12 165.12 545.12 165.12"/><polygon class="e" points="545.58 162.79 547.4 161.63 548.99 163.56 549.15 163.42 547.44 161.36 545.46 162.62 545.58 162.79 545.58 162.79"/><polygon class="e" points="545.73 160.01 547.55 158.85 549.15 160.78 549.31 160.64 547.6 158.58 545.62 159.84 545.73 160.01 545.73 160.01"/></g><g><path class="c" d="M569.35,144.95h0s5.38-13.47-11.23-14.95c-4.67,14.41,11.22,14.95,11.22,14.95Z"/><path class="e" d="M568.33,144.09s-1.2-2.41-3.11-5.4c-1.91-2.99-4.52-6.55-7.36-8.87l-.15,.18c2.8,2.29,5.41,5.84,7.31,8.81,.95,1.49,1.73,2.83,2.27,3.81,.27,.49,.48,.88,.62,1.15,.14,.27,.22,.42,.22,.42l.21-.11h0Z"/><polygon class="e" points="565.02 142.03 565.66 139.62 568.58 140.35 568.65 140.13 565.49 139.34 564.8 141.98 565.02 142.03 565.02 142.03"/><polygon class="e" points="563.43 139.63 564.04 137.33 566.77 137.7 566.81 137.47 563.87 137.07 563.21 139.58 563.43 139.63 563.43 139.63"/><polygon class="e" points="562.06 137.4 562.67 135.09 565.4 135.46 565.43 135.23 562.5 134.83 561.83 137.34 562.06 137.4 562.06 137.4"/><polygon class="e" points="560.11 135.02 560.72 132.71 563.45 133.08 563.48 132.85 560.55 132.45 559.88 134.96 560.11 135.02 560.11 135.02"/></g><g><path class="c" d="M626.8,158.15h0s-.25-13.5-15.03-8.77c1.21,14.05,15.03,8.77,15.03,8.77Z"/><path class="e" d="M625.61,157.78s-1.9-1.63-4.62-3.51c-2.72-1.87-6.25-3.98-9.52-4.95l-.06,.21c3.23,.95,6.75,3.05,9.46,4.92,1.35,.93,2.51,1.81,3.32,2.45,.41,.32,.73,.58,.95,.76,.22,.18,.34,.28,.34,.28l.14-.17h0Z"/><polygon class="e" points="622.03 157.21 621.71 154.92 624.48 154.48 624.45 154.27 621.46 154.73 621.82 157.24 622.03 157.21 622.03 157.21"/><polygon class="e" points="619.8 155.73 619.49 153.53 621.97 152.86 621.91 152.65 619.25 153.37 619.59 155.76 619.8 155.73 619.8 155.73"/><polygon class="e" points="617.81 154.3 617.5 152.11 619.98 151.44 619.93 151.23 617.26 151.95 617.6 154.34 617.81 154.3 617.81 154.3"/><polygon class="e" points="615.28 152.97 614.97 150.77 617.45 150.1 617.39 149.89 614.73 150.61 615.07 153 615.28 152.97 615.28 152.97"/></g><g><path class="c" d="M501.94,178.99h0s.15-13.85-15.16-9.45c.81,14.45,15.15,9.45,15.15,9.45Z"/><path class="e" d="M500.74,178.57s-1.9-1.73-4.63-3.74c-2.73-2-6.29-4.28-9.62-5.36l-.07,.21c3.29,1.07,6.83,3.34,9.56,5.33,1.36,1,2.52,1.93,3.33,2.61,.41,.34,.73,.62,.95,.81,.22,.19,.34,.3,.34,.3l.15-.17h0Z"/><polygon class="e" points="497.08 177.88 496.81 175.51 499.67 175.16 499.65 174.93 496.57 175.32 496.86 177.91 497.08 177.88 497.08 177.88"/><polygon class="e" points="494.83 176.29 494.58 174.03 497.14 173.41 497.1 173.19 494.34 173.85 494.62 176.32 494.83 176.29 494.83 176.29"/><polygon class="e" points="492.84 174.77 492.59 172.51 495.15 171.89 495.1 171.67 492.35 172.33 492.62 174.8 492.84 174.77 492.84 174.77"/><polygon class="e" points="490.28 173.32 490.03 171.06 492.59 170.45 492.54 170.23 489.79 170.89 490.06 173.35 490.28 173.32 490.28 173.32"/></g><g><path class="c" d="M151.18,171.29h0s2.9-13.87-13.33-12.48c-2.05,14.66,13.33,12.48,13.33,12.48Z"/><path class="e" d="M150.06,170.64s-1.57-2.12-3.91-4.67c-2.34-2.55-5.46-5.54-8.59-7.29l-.11,.2c3.09,1.73,6.2,4.7,8.53,7.24,1.17,1.27,2.14,2.43,2.82,3.28,.34,.42,.61,.77,.79,1,.18,.24,.28,.37,.28,.37l.18-.14h0Z"/><polygon class="e" points="146.52 169.22 146.73 166.79 149.67 167 149.69 166.77 146.52 166.55 146.3 169.2 146.52 169.22 146.52 169.22"/><polygon class="e" points="144.59 167.18 144.78 164.86 147.48 164.75 147.47 164.52 144.58 164.64 144.36 167.16 144.59 167.18 144.59 167.18"/><polygon class="e" points="142.89 165.26 143.08 162.94 145.78 162.83 145.77 162.6 142.88 162.72 142.66 165.24 142.89 165.26 142.89 165.26"/><polygon class="e" points="140.61 163.3 140.8 160.98 143.5 160.88 143.49 160.65 140.6 160.76 140.38 163.29 140.61 163.3 140.61 163.3"/></g><g><path class="c" d="M110.52,163.04h0s15.05,3.68,14.13-14.11c-15.95-2.78-14.14,14.11-14.14,14.11Z"/><path class="e" d="M111.28,161.83s2.37-1.63,5.25-4.1c2.87-2.47,6.25-5.77,8.28-9.11l-.22-.13c-2,3.31-5.37,6.6-8.23,9.06-1.43,1.23-2.74,2.25-3.69,2.97-.47,.36-.86,.64-1.12,.83-.27,.19-.41,.29-.41,.29l.15,.2h0Z"/><polygon class="e" points="112.97 158.02 115.61 158.34 115.27 161.54 115.52 161.57 115.88 158.12 112.99 157.78 112.97 158.02 112.97 158.02"/><polygon class="e" points="115.26 155.98 117.79 156.28 117.81 159.23 118.06 159.23 118.04 156.06 115.29 155.74 115.26 155.98 115.26 155.98"/><polygon class="e" points="117.43 154.19 119.96 154.49 119.97 157.44 120.22 157.44 120.21 154.28 117.45 153.95 117.43 154.19 117.43 154.19"/><polygon class="e" points="119.65 151.77 122.18 152.07 122.2 155.02 122.45 155.02 122.43 151.86 119.68 151.53 119.65 151.77 119.65 151.77"/></g><g><path class="c" d="M190.77,177.01h0s10.44-6.8-1.71-20.58c-10.33,8.11,1.7,20.58,1.7,20.58Z"/><path class="e" d="M190.39,175.55s.19-2.86,.11-6.72c-.08-3.86-.44-8.72-1.55-12.74l-.2,.04c1.1,3.97,1.46,8.82,1.54,12.66,.04,1.92,.01,3.6-.02,4.79-.02,.6-.04,1.07-.06,1.4-.02,.33-.03,.5-.03,.5l.21,.07h0Z"/><polygon class="e" points="188.79 171.37 190.4 169.91 192.33 172.72 192.48 172.58 190.41 169.56 188.64 171.16 188.79 171.37 188.79 171.37"/><polygon class="e" points="188.68 168.23 190.23 166.83 192.16 169.2 192.3 169.04 190.22 166.49 188.53 168.02 188.68 168.23 188.68 168.23"/><polygon class="e" points="188.66 165.38 190.21 163.98 192.15 166.35 192.28 166.19 190.2 163.65 188.51 165.17 188.66 165.38 188.66 165.38"/><polygon class="e" points="188.26 161.99 189.81 160.59 191.75 162.95 191.88 162.79 189.8 160.25 188.11 161.77 188.26 161.99 188.26 161.99"/></g><g><path class="c" d="M113.95,178.54h0s13.66,.91,10.15-14.43c-14.3,.01-10.15,14.43-10.15,14.43Z"/><path class="e" d="M114.43,177.38s1.81-1.78,3.94-4.37c2.12-2.59,4.56-5.97,5.82-9.19l-.21-.08c-1.24,3.18-3.67,6.56-5.78,9.14-1.06,1.29-2.04,2.38-2.76,3.14-.36,.38-.65,.69-.85,.89-.2,.21-.31,.32-.31,.32l.16,.15h0Z"/><polygon class="e" points="115.31 173.8 117.66 173.67 117.85 176.51 118.08 176.5 117.86 173.44 115.3 173.59 115.31 173.8 115.31 173.8"/><polygon class="e" points="117 171.68 119.25 171.55 119.71 174.11 119.93 174.08 119.43 171.33 116.99 171.46 117 171.68 117 171.68"/><polygon class="e" points="118.61 169.79 120.86 169.67 121.32 172.23 121.54 172.19 121.04 169.44 118.59 169.58 118.61 169.79 118.61 169.79"/><polygon class="e" points="120.17 167.35 122.42 167.22 122.88 169.78 123.1 169.75 122.61 167 120.16 167.13 120.17 167.35 120.17 167.35"/></g><g><path class="c" d="M562.71,165.13h0s10.7,12.66,16.57-1c-11.75-12.59-16.57,1-16.57,1Z"/><path class="e" d="M563.77,164.74s2.51,.37,5.73,.46c3.22,.09,7.15-.09,10.02-1.21l-.13-.24c-2.83,1.1-6.75,1.29-9.96,1.2-1.6-.05-3.03-.16-4.06-.26-.51-.05-.92-.1-1.21-.14-.28-.04-.44-.06-.44-.06l.04,.25h0Z"/><polygon class="e" points="566.53 163.06 568.53 165.04 567.07 167.17 567.26 167.36 568.83 165.07 566.64 162.9 566.53 163.06 566.53 163.06"/><polygon class="e" points="569.13 163.09 571.05 164.98 569.97 167.15 570.17 167.32 571.33 164.99 569.24 162.92 569.13 163.09 569.13 163.09"/><polygon class="e" points="571.53 163.2 573.44 165.1 572.36 167.27 572.56 167.44 573.72 165.1 571.64 163.04 571.53 163.2 571.53 163.2"/><polygon class="e" points="574.21 162.9 576.12 164.79 575.04 166.97 575.24 167.13 576.4 164.8 574.32 162.74 574.21 162.9 574.21 162.9"/></g><g><path class="c" d="M658.04,145.55h0s9.85-9.51-3.88-17.21c-9.6,10.6,3.87,17.21,3.87,17.21Z"/><path class="e" d="M657.5,144.42s-.1-2.54-.59-5.85c-.49-3.31-1.36-7.39-2.9-10.48l-.2,.1c1.53,3.06,2.4,7.12,2.88,10.42,.24,1.65,.39,3.11,.48,4.15,.04,.52,.07,.94,.09,1.23,.02,.29,.02,.45,.02,.45h.22Z"/><polygon class="e" points="655.45 141.36 656.93 139.54 659.17 141.3 659.31 141.13 656.9 139.23 655.28 141.23 655.45 141.36 655.45 141.36"/><polygon class="e" points="655.01 138.68 656.43 136.93 658.64 138.31 658.76 138.13 656.38 136.65 654.84 138.55 655.01 138.68 655.01 138.68"/><polygon class="e" points="654.7 136.22 656.11 134.48 658.32 135.85 658.44 135.67 656.07 134.19 654.53 136.09 654.7 136.22 654.7 136.22"/><polygon class="e" points="653.94 133.42 655.35 131.68 657.56 133.05 657.68 132.87 655.31 131.39 653.77 133.29 653.94 133.42 653.94 133.42"/></g><g><path class="c" d="M618.6,172.14h0s5.99,12.31,17.57,1.66c-7.1-12.41-17.57-1.66-17.57-1.66Z"/><path class="e" d="M619.84,171.98s2.45,.69,5.75,1.25c3.3,.56,7.45,1,10.87,.49l-.03-.22c-3.38,.5-7.51,.07-10.8-.49-1.64-.28-3.08-.59-4.1-.84-.51-.12-.92-.22-1.2-.3-.28-.07-.43-.12-.43-.12l-.05,.21h0Z"/><polygon class="e" points="623.38 170.97 624.66 172.95 622.29 174.53 622.41 174.72 624.96 173.01 623.57 170.85 623.38 170.97 623.38 170.97"/><polygon class="e" points="626.07 171.39 627.29 173.28 625.3 174.95 625.44 175.12 627.58 173.32 626.25 171.27 626.07 171.39 626.07 171.39"/><polygon class="e" points="628.5 171.85 629.73 173.74 627.73 175.41 627.87 175.58 630.01 173.79 628.68 171.73 628.5 171.85 628.5 171.85"/><polygon class="e" points="631.4 172 632.62 173.89 630.63 175.56 630.77 175.73 632.91 173.93 631.58 171.88 631.4 172 631.4 172"/></g><g><path class="c" d="M667.77,172.83h0s-4.02-10.32-16.99-2.29c5.1,10.47,16.99,2.29,16.99,2.29Z"/><path class="e" d="M666.52,172.89s-2.3-.69-5.45-1.33c-3.15-.63-7.16-1.21-10.59-.98v.18c3.39-.23,7.39,.34,10.53,.98,1.57,.32,2.93,.65,3.89,.9,.48,.13,.87,.23,1.13,.31,.26,.07,.41,.12,.41,.12l.09-.17h0Z"/><polygon class="e" points="662.9 173.52 661.94 171.85 664.51 170.69 664.42 170.53 661.66 171.78 662.7 173.61 662.9 173.52 662.9 173.52"/><polygon class="e" points="660.33 173.04 659.41 171.44 661.62 170.19 661.51 170.04 659.14 171.39 660.13 173.13 660.33 173.04 660.33 173.04"/><polygon class="e" points="658.01 172.54 657.09 170.94 659.3 169.68 659.19 169.54 656.82 170.88 657.81 172.62 658.01 172.54 658.01 172.54"/><polygon class="e" points="655.19 172.26 654.27 170.66 656.48 169.41 656.37 169.26 653.99 170.61 654.99 172.35 655.19 172.26 655.19 172.26"/></g><g><path class="c" d="M10.79,146.37h0s14.88,4.33,14.73-13.48c-15.81-3.47-14.74,13.48-14.74,13.48Z"/><path class="e" d="M11.6,145.2s2.44-1.53,5.42-3.87c2.98-2.34,6.5-5.49,8.67-8.75l-.21-.14c-2.14,3.22-5.65,6.36-8.62,8.69-1.48,1.17-2.83,2.13-3.81,2.8-.49,.34-.89,.6-1.16,.78-.27,.18-.42,.27-.42,.27l.14,.21h0Z"/><polygon class="e" points="13.45 141.47 16.08 141.9 15.6 145.09 15.85 145.13 16.36 141.7 13.49 141.23 13.45 141.47 13.45 141.47"/><polygon class="e" points="15.84 139.53 18.35 139.94 18.24 142.89 18.49 142.9 18.61 139.74 15.87 139.29 15.84 139.53 15.84 139.53"/><polygon class="e" points="18.07 137.84 20.59 138.25 20.48 141.19 20.73 141.21 20.85 138.04 18.11 137.6 18.07 137.84 18.07 137.84"/><polygon class="e" points="20.4 135.52 22.91 135.93 22.8 138.87 23.05 138.89 23.17 135.72 20.44 135.28 20.4 135.52 20.4 135.52"/></g><g><path class="c" d="M55.46,169.68h0s13.65-7.32,1.09-19.94c-13.72,8.59-1.09,19.94-1.09,19.94Z"/><path class="e" d="M55.22,168.28s.67-2.8,1.16-6.56c.49-3.76,.8-8.47,.07-12.31l-.25,.05c.72,3.8,.42,8.5-.07,12.24-.24,1.87-.53,3.5-.76,4.67-.11,.58-.21,1.05-.28,1.37-.07,.32-.11,.49-.11,.49l.24,.05h0Z"/><polygon class="e" points="53.92 164.32 56.1 162.79 57.99 165.4 58.2 165.26 56.16 162.45 53.78 164.12 53.92 164.32 53.92 164.32"/><polygon class="e" points="54.27 161.27 56.35 159.8 58.33 161.98 58.52 161.82 56.39 159.47 54.13 161.07 54.27 161.27 54.27 161.27"/><polygon class="e" points="54.68 158.49 56.77 157.03 58.75 159.21 58.94 159.04 56.81 156.7 54.54 158.29 54.68 158.49 54.68 158.49"/><polygon class="e" points="54.72 155.21 56.8 153.74 58.78 155.92 58.97 155.76 56.84 153.41 54.58 155.01 54.72 155.21 54.72 155.21"/></g><g><path class="c" d="M42.52,166.87h0s5.74-17.54-13.35-16.72c-4.9,18.6,13.34,16.72,13.34,16.72Z"/><path class="e" d="M41.33,165.97s-1.46-2.79-3.74-6.19c-2.28-3.39-5.4-7.39-8.72-9.81l-.16,.25c3.29,2.39,6.39,6.37,8.67,9.75,1.14,1.69,2.07,3.23,2.72,4.35,.32,.56,.58,1.01,.75,1.33,.17,.31,.26,.49,.26,.49l.23-.17h0Z"/><polygon class="e" points="37.47 163.95 38.12 160.86 41.51 161.3 41.57 161.01 37.93 160.54 37.21 163.91 37.47 163.95 37.47 163.95"/><polygon class="e" points="35.57 161.23 36.2 158.28 39.34 158.3 39.38 158.01 36 157.98 35.31 161.2 35.57 161.23 35.57 161.23"/><polygon class="e" points="33.93 158.68 34.55 155.73 37.7 155.75 37.73 155.46 34.35 155.43 33.67 158.65 33.93 158.68 33.93 158.68"/><polygon class="e" points="31.61 156.05 32.24 153.1 35.38 153.12 35.42 152.82 32.04 152.8 31.35 156.01 31.61 156.05 31.61 156.05"/></g><g><path class="c" d="M5.42,173.45h0s10.88,11.03,19.44-4.59c-12.12-10.74-19.44,4.59-19.44,4.59Z"/><path class="e" d="M6.7,172.83s2.88-.15,6.62-.74c3.74-.59,8.35-1.63,11.83-3.41l-.12-.22c-3.44,1.77-8.03,2.8-11.76,3.39-1.86,.29-3.51,.48-4.69,.59-.59,.06-1.07,.09-1.39,.11-.33,.02-.5,.03-.5,.03l.02,.25h0Z"/><polygon class="e" points="10.13 170.47 12.22 172.12 10.25 174.68 10.45 174.83 12.57 172.08 10.28 170.27 10.13 170.47 10.13 170.47"/><polygon class="e" points="13.16 169.94 15.16 171.52 13.63 174.04 13.84 174.17 15.48 171.47 13.31 169.74 13.16 169.94 13.16 169.94"/><polygon class="e" points="15.94 169.55 17.94 171.13 16.4 173.65 16.62 173.79 18.26 171.08 16.09 169.36 15.94 169.55 15.94 169.55"/><polygon class="e" points="19.1 168.66 21.1 170.24 19.57 172.76 19.78 172.89 21.43 170.19 19.25 168.46 19.1 168.66 19.1 168.66"/></g><g><path class="c" d="M64.79,153.15h0s14.66,5,15.33-12.8c-15.64-4.19-15.33,12.8-15.33,12.8Z"/><path class="e" d="M65.65,152.02s2.51-1.42,5.59-3.62c3.08-2.2,6.74-5.19,9.06-8.34l-.2-.15c-2.29,3.12-5.93,6.1-9,8.29-1.54,1.1-2.93,2-3.94,2.63-.5,.31-.91,.56-1.19,.73-.28,.17-.44,.25-.44,.25l.13,.21h0Z"/><polygon class="e" points="67.67 148.38 70.27 148.92 69.65 152.09 69.9 152.14 70.56 148.73 67.71 148.13 67.67 148.38 67.67 148.38"/><polygon class="e" points="70.14 146.55 72.63 147.07 72.38 150.01 72.63 150.03 72.9 146.88 70.18 146.31 70.14 146.55 70.14 146.55"/><polygon class="e" points="72.45 144.96 74.94 145.48 74.7 148.42 74.95 148.44 75.21 145.29 72.5 144.72 72.45 144.96 72.45 144.96"/><polygon class="e" points="74.88 142.75 77.37 143.27 77.13 146.21 77.38 146.23 77.64 143.08 74.93 142.51 74.88 142.75 74.88 142.75"/></g><g><path class="c" d="M113.43,166.52h0s.8-15.48-16.5-11.25c.25,16.19,16.5,11.25,16.5,11.25Z"/><path class="e" d="M112.1,166s-2.05-2.02-5.01-4.39c-2.96-2.36-6.83-5.07-10.5-6.43l-.09,.24c3.62,1.35,7.48,4.04,10.43,6.4,1.47,1.18,2.72,2.27,3.6,3.07,.44,.4,.79,.72,1.02,.95,.24,.23,.36,.35,.36,.35l.17-.18h0Z"/><polygon class="e" points="108.05 165.05 107.86 162.4 111.07 162.13 111.06 161.88 107.6 162.17 107.8 165.07 108.05 165.05 108.05 165.05"/><polygon class="e" points="105.61 163.18 105.44 160.63 108.33 160.07 108.28 159.82 105.17 160.43 105.37 163.2 105.61 163.18 105.61 163.18"/><polygon class="e" points="103.45 161.39 103.28 158.84 106.17 158.28 106.12 158.03 103.01 158.64 103.21 161.41 103.45 161.39 103.45 161.39"/><polygon class="e" points="100.66 159.65 100.48 157.11 103.37 156.55 103.33 156.3 100.22 156.91 100.41 159.67 100.66 159.65 100.66 159.65"/></g><g><path class="c" d="M90.58,181.63h0s1.85-15.39-15.7-12.35c-.85,16.17,15.7,12.35,15.7,12.35Z"/><path class="e" d="M89.3,181.02s-1.91-2.16-4.7-4.72c-2.79-2.56-6.47-5.52-10.04-7.13l-.1,.23c3.52,1.59,7.19,4.54,9.98,7.09,1.39,1.27,2.56,2.45,3.38,3.31,.41,.43,.74,.78,.96,1.02,.22,.24,.34,.37,.34,.37l.18-.17h0Z"/><polygon class="e" points="85.31 179.8 85.31 177.14 88.53 177.09 88.53 176.84 85.06 176.89 85.07 179.8 85.31 179.8 85.31 179.8"/><polygon class="e" points="83.01 177.76 83.01 175.22 85.93 174.85 85.9 174.6 82.76 174.99 82.77 177.77 83.01 177.76 83.01 177.76"/><polygon class="e" points="80.98 175.83 80.98 173.28 83.9 172.91 83.87 172.66 80.73 173.06 80.73 175.83 80.98 175.83 80.98 175.83"/><polygon class="e" points="78.31 173.91 78.31 171.37 81.23 171 81.2 170.75 78.06 171.14 78.07 173.92 78.31 173.91 78.31 173.91"/></g><g><path class="c" d="M202.44,162.95h0s13.15-4.58,3.72-18.35c-13.39,5.75-3.72,18.35-3.72,18.35Z"/><path class="e" d="M202.42,161.61s.98-2.49,1.94-5.9c.95-3.41,1.88-7.74,1.76-11.43h-.23c.12,3.65-.8,7.96-1.76,11.36-.48,1.7-.96,3.17-1.32,4.21-.18,.52-.33,.94-.44,1.22-.11,.29-.17,.44-.17,.44l.21,.09h0Z"/><polygon class="e" points="201.82 157.72 203.96 156.65 205.29 159.38 205.49 159.28 204.07 156.34 201.72 157.51 201.82 157.72 201.82 157.72"/><polygon class="e" points="202.55 154.94 204.6 153.92 206.06 156.26 206.25 156.14 204.68 153.62 202.45 154.73 202.55 154.94 202.55 154.94"/><polygon class="e" points="203.3 152.43 205.35 151.41 206.81 153.75 207.01 153.63 205.44 151.11 203.2 152.22 203.3 152.43 203.3 152.43"/><polygon class="e" points="203.79 149.38 205.84 148.36 207.3 150.71 207.49 150.58 205.92 148.06 203.68 149.18 203.79 149.38 203.79 149.38"/></g><g><path class="c" d="M254.61,168.39h0s8.65-10.92-6.7-17.48c-8.22,12.03,6.69,17.48,6.69,17.48Z"/><path class="e" d="M253.87,167.27s-.51-2.63-1.53-6.02c-1.02-3.39-2.56-7.54-4.64-10.59l-.19,.13c2.05,3.01,3.59,7.15,4.61,10.53,.51,1.69,.89,3.19,1.14,4.27,.13,.54,.22,.97,.28,1.27,.06,.3,.09,.46,.09,.46l.22-.04h0Z"/><polygon class="e" points="251.28 164.31 252.52 162.26 255.1 163.85 255.22 163.66 252.44 161.94 251.08 164.19 251.28 164.31 251.28 164.31"/><polygon class="e" points="250.41 161.57 251.59 159.61 254.08 160.8 254.18 160.6 251.5 159.31 250.21 161.45 250.41 161.57 250.41 161.57"/><polygon class="e" points="249.69 159.05 250.88 157.09 253.37 158.28 253.47 158.08 250.79 156.79 249.5 158.93 249.69 159.05 249.69 159.05"/><polygon class="e" points="248.47 156.22 249.66 154.25 252.15 155.45 252.24 155.25 249.57 153.96 248.27 156.1 248.47 156.22 248.47 156.22"/></g><g><path class="c" d="M704.46,147.22h0s2.66-13.68-13.98-12.46c-1.78,14.46,13.97,12.46,13.97,12.46Z"/><path class="e" d="M703.29,146.56s-1.66-2.11-4.12-4.65c-2.46-2.54-5.74-5.52-8.98-7.28l-.11,.2c3.21,1.74,6.47,4.7,8.92,7.23,1.23,1.27,2.25,2.42,2.97,3.26,.36,.42,.64,.76,.84,1,.19,.24,.3,.37,.3,.37l.18-.14h0Z"/><polygon class="e" points="699.63 145.12 699.78 142.73 702.81 142.96 702.82 142.74 699.57 142.49 699.39 145.11 699.63 145.12 699.63 145.12"/><polygon class="e" points="697.59 143.09 697.74 140.8 700.5 140.72 700.49 140.5 697.52 140.58 697.36 143.08 697.59 143.09 697.59 143.09"/><polygon class="e" points="695.8 141.18 695.95 138.89 698.71 138.81 698.7 138.58 695.73 138.67 695.57 141.16 695.8 141.18 695.8 141.18"/><polygon class="e" points="693.42 139.23 693.57 136.94 696.33 136.86 696.32 136.63 693.35 136.71 693.18 139.21 693.42 139.23 693.42 139.23"/></g><g><path class="c" d="M663.02,162.57h0s13.42-3.74,4.87-18.07c-13.73,4.89-4.88,18.07-4.88,18.07Z"/><path class="e" d="M663.08,161.23s1.14-2.42,2.31-5.77c1.17-3.34,2.37-7.6,2.48-11.29h-.23c-.11,3.64-1.31,7.88-2.47,11.21-.58,1.67-1.16,3.1-1.59,4.12-.21,.51-.39,.92-.52,1.19-.12,.28-.19,.43-.2,.43l.2,.1h0Z"/><polygon class="e" points="662.73 157.31 664.94 156.38 666.09 159.19 666.29 159.1 665.06 156.08 662.64 157.1 662.73 157.31 662.73 157.31"/><polygon class="e" points="663.63 154.58 665.75 153.69 667.06 156.12 667.26 156.01 665.85 153.4 663.55 154.37 663.63 154.58 663.63 154.58"/><polygon class="e" points="664.54 152.12 666.66 151.23 667.97 153.67 668.16 153.55 666.76 150.94 664.45 151.91 664.54 152.12 664.54 152.12"/><polygon class="e" points="665.22 149.12 667.33 148.22 668.64 150.66 668.84 150.55 667.44 147.93 665.13 148.9 665.22 149.12 665.22 149.12"/></g><g><path class="c" d="M717.52,173.61h0s-1.06-13.89-16.78-8.3c2.13,14.42,16.78,8.3,16.78,8.3Z"/><path class="e" d="M716.22,173.28s-2.16-1.59-5.21-3.39c-3.05-1.8-7-3.8-10.59-4.63l-.05,.22c3.55,.82,7.49,2.82,10.53,4.6,1.52,.89,2.82,1.74,3.73,2.36,.46,.31,.82,.56,1.07,.74,.25,.18,.38,.27,.38,.27l.14-.18h0Z"/><polygon class="e" points="712.31 172.87 711.82 170.52 714.8 169.94 714.75 169.72 711.55 170.34 712.08 172.92 712.31 172.87 712.31 172.87"/><polygon class="e" points="709.81 171.45 709.34 169.2 711.98 168.39 711.91 168.18 709.07 169.05 709.58 171.5 709.81 171.45 709.81 171.45"/><polygon class="e" points="707.57 170.08 707.11 167.84 709.75 167.03 709.68 166.81 706.84 167.68 707.34 170.13 707.57 170.08 707.57 170.08"/><polygon class="e" points="704.75 168.83 704.29 166.59 706.93 165.78 706.86 165.56 704.02 166.43 704.53 168.88 704.75 168.83 704.75 168.83"/></g><g><path class="c" d="M729.66,152.17h0s9.42-10.27-5.41-17.92c-9.07,11.4,5.41,17.92,5.41,17.92Z"/><path class="e" d="M729.01,151s-.31-2.66-1.09-6.11c-.77-3.45-2.01-7.7-3.86-10.9l-.2,.11c1.83,3.16,3.06,7.39,3.83,10.83,.39,1.72,.66,3.24,.83,4.34,.09,.55,.15,.99,.19,1.29,.04,.3,.06,.47,.06,.47l.23-.02h0Z"/><polygon class="e" points="726.63 147.86 728.02 145.9 730.48 147.68 730.61 147.49 727.96 145.58 726.45 147.72 726.63 147.86 726.63 147.86"/><polygon class="e" points="725.96 145.06 727.29 143.19 729.68 144.56 729.79 144.36 727.22 142.89 725.77 144.93 725.96 145.06 725.96 145.06"/><polygon class="e" points="725.43 142.5 726.76 140.62 729.16 142 729.27 141.8 726.69 140.32 725.25 142.36 725.43 142.5 725.43 142.5"/><polygon class="e" points="724.42 139.58 725.75 137.71 728.14 139.08 728.25 138.89 725.68 137.41 724.23 139.45 724.42 139.58 724.42 139.58"/></g><g><path class="c" d="M734.58,165.62h0s12.91,5.25,14.91-11.32c-13.85-4.52-14.91,11.32-14.91,11.32Z"/><path class="e" d="M735.45,164.6s2.38-1.22,5.35-3.15c2.97-1.93,6.52-4.57,8.87-7.42l-.17-.15c-2.32,2.81-5.86,5.45-8.82,7.37-1.48,.96-2.81,1.75-3.78,2.29-.48,.27-.87,.48-1.14,.63-.27,.14-.42,.22-.42,.22l.1,.21h0Z"/><polygon class="e" points="737.57 161.28 739.89 161.89 739.08 164.82 739.3 164.88 740.17 161.73 737.63 161.06 737.57 161.28 737.57 161.28"/><polygon class="e" points="739.95 159.67 742.17 160.26 741.72 162.99 741.94 163.02 742.43 160.09 740.01 159.45 739.95 159.67 739.95 159.67"/><polygon class="e" points="742.17 158.29 744.39 158.87 743.94 161.6 744.16 161.63 744.65 158.7 742.23 158.06 742.17 158.29 742.17 158.29"/><polygon class="e" points="744.55 156.32 746.77 156.91 746.32 159.63 746.54 159.67 747.03 156.74 744.61 156.1 744.55 156.32 744.55 156.32"/></g><g><path class="c" d="M812.54,166.58h0s9.42-10.27-5.41-17.92c-9.07,11.4,5.41,17.92,5.41,17.92Z"/><path class="e" d="M811.89,165.41s-.31-2.66-1.09-6.11c-.77-3.45-2.01-7.7-3.86-10.9l-.2,.11c1.83,3.16,3.06,7.39,3.83,10.83,.39,1.72,.66,3.24,.83,4.34,.09,.55,.15,.99,.19,1.29,.04,.3,.06,.47,.06,.47l.23-.02h0Z"/><polygon class="e" points="809.52 162.27 810.9 160.31 813.36 162.09 813.49 161.9 810.84 159.99 809.33 162.13 809.52 162.27 809.52 162.27"/><polygon class="e" points="808.84 159.47 810.17 157.6 812.57 158.97 812.68 158.77 810.1 157.29 808.66 159.34 808.84 159.47 808.84 159.47"/><polygon class="e" points="808.32 156.91 809.64 155.03 812.04 156.41 812.15 156.21 809.57 154.73 808.13 156.77 808.32 156.91 808.32 156.91"/><polygon class="e" points="807.3 153.99 808.63 152.12 811.03 153.49 811.14 153.29 808.56 151.82 807.12 153.86 807.3 153.99 807.3 153.99"/></g><g><path class="c" d="M758.59,162.57h0s13.11,4.7,14.42-11.93c-14.03-3.94-14.43,11.93-14.43,11.93Z"/><path class="e" d="M759.42,161.51s2.33-1.32,5.22-3.37c2.88-2.05,6.32-4.83,8.55-7.78l-.18-.14c-2.2,2.91-5.63,5.68-8.5,7.73-1.44,1.02-2.74,1.86-3.68,2.45-.47,.29-.85,.52-1.11,.68-.26,.16-.41,.24-.41,.24l.11,.2h0Z"/><polygon class="e" points="761.39 158.11 763.74 158.62 763.05 161.58 763.27 161.63 764.01 158.45 761.45 157.88 761.39 158.11 761.39 158.11"/><polygon class="e" points="763.71 156.4 765.95 156.9 765.61 159.64 765.84 159.67 766.2 156.72 763.76 156.18 763.71 156.4 763.71 156.4"/><polygon class="e" points="765.87 154.92 768.11 155.42 767.77 158.16 768 158.19 768.36 155.24 765.92 154.7 765.87 154.92 765.87 154.92"/><polygon class="e" points="768.16 152.86 770.4 153.36 770.07 156.1 770.29 156.12 770.66 153.17 768.22 152.64 768.16 152.86 768.16 152.86"/></g><g><path class="c" d="M788.87,180.81h0s.73-13.91-15.58-10.38c.26,14.57,15.58,10.38,15.58,10.38Z"/><path class="e" d="M787.62,180.32s-1.93-1.85-4.73-4.02c-2.8-2.17-6.45-4.66-9.91-5.95l-.08,.21c3.42,1.27,7.06,3.75,9.85,5.92,1.39,1.08,2.57,2.08,3.4,2.82,.41,.37,.74,.66,.97,.87,.22,.21,.34,.32,.34,.32l.16-.16h0Z"/><polygon class="e" points="783.79 179.41 783.62 177.02 786.64 176.83 786.63 176.6 783.37 176.81 783.56 179.42 783.79 179.41 783.79 179.41"/><polygon class="e" points="781.5 177.68 781.33 175.39 784.05 174.93 784.01 174.7 781.08 175.2 781.27 177.7 781.5 177.68 781.5 177.68"/><polygon class="e" points="779.46 176.04 779.29 173.75 782.01 173.28 781.97 173.06 779.04 173.56 779.23 176.05 779.46 176.04 779.46 176.04"/><polygon class="e" points="776.82 174.44 776.65 172.15 779.37 171.68 779.33 171.46 776.4 171.96 776.59 174.45 776.82 174.44 776.82 174.44"/></g></g></svg>