<?xml version="1.0" encoding="UTF-8"?><svg xmlns="http://www.w3.org/2000/svg" viewBox="0 0 827.97 262"><defs><style>.c,.d{fill:#afa57d;}.d{font-family:Teko-Light, Teko;font-size:139px;}.e{fill:#777159;}</style></defs><g id="a"><text class="d" transform="translate(16.85 174.18)"><tspan x="0" y="0">COFFRETS &amp; CADEAUX</tspan></text></g><g id="b"><g><path class="c" d="M156.13,177.13h0s12.55,7.89,16.95-8.4c-13.63-7.36-16.95,8.4-16.95,8.4Z"/><path class="e" d="M157.17,176.28s2.63-.75,5.96-2.09c3.33-1.35,7.36-3.29,10.18-5.68l-.16-.18c-2.79,2.37-6.8,4.3-10.12,5.64-1.66,.67-3.14,1.19-4.21,1.55-.53,.18-.97,.31-1.26,.4-.3,.09-.46,.14-.46,.14l.07,.23h0Z"/><polygon class="e" points="159.82 173.37 162.12 174.45 160.87 177.24 161.09 177.34 162.43 174.34 159.91 173.15 159.82 173.37 159.82 173.37"/><polygon class="e" points="162.5 172.23 164.7 173.27 163.85 175.93 164.08 176.01 164.99 173.15 162.59 172.02 162.5 172.23 162.5 172.23"/><polygon class="e" points="164.98 171.28 167.18 172.32 166.33 174.97 166.56 175.05 167.48 172.2 165.08 171.07 164.98 171.28 164.98 171.28"/><polygon class="e" points="167.71 169.78 169.91 170.82 169.06 173.47 169.29 173.55 170.2 170.7 167.8 169.57 167.71 169.78 167.71 169.78"/></g><g><path class="c" d="M159.99,173.43h0s-5.44-14.06-19.28-3.42c6.66,14.27,19.27,3.42,19.27,3.42Z"/><path class="e" d="M158.6,173.5s-2.64-.98-6.24-1.9c-3.59-.92-8.14-1.78-11.98-1.53l.02,.24c3.79-.25,8.32,.61,11.9,1.52,1.79,.46,3.34,.93,4.45,1.29,.55,.18,.99,.33,1.3,.44,.3,.11,.47,.17,.47,.17l.08-.23h0Z"/><polygon class="e" points="154.58 174.28 153.36 172 156.13 170.48 156.02 170.26 153.03 171.9 154.37 174.39 154.58 174.28 154.58 174.28"/><polygon class="e" points="151.65 173.58 150.48 171.4 152.85 169.74 152.71 169.54 150.17 171.32 151.44 173.7 151.65 173.58 151.65 173.58"/><polygon class="e" points="149 172.85 147.83 170.67 150.2 169.01 150.06 168.81 147.52 170.59 148.79 172.97 149 172.85 149 172.85"/><polygon class="e" points="145.81 172.43 144.64 170.24 147.01 168.59 146.87 168.38 144.32 170.16 145.6 172.54 145.81 172.43 145.81 172.43"/></g><g><path class="c" d="M398.9,182.05h0s13.05-1.23,7.11-13.45c-13.5,2.09-7.11,13.45-7.11,13.45Z"/><path class="e" d="M399.15,181.02s1.41-1.74,2.97-4.2c1.56-2.45,3.28-5.62,3.92-8.47l-.21-.04c-.62,2.82-2.34,5.98-3.89,8.42-.78,1.22-1.52,2.27-2.06,3.01-.27,.37-.5,.66-.65,.86-.16,.2-.24,.31-.24,.31l.18,.1h0Z"/><polygon class="e" points="399.37 177.92 401.56 177.48 402.24 179.81 402.44 179.76 401.72 177.26 399.32 177.75 399.37 177.92 399.37 177.92"/><polygon class="e" points="400.6 175.92 402.7 175.49 403.58 177.54 403.78 177.48 402.84 175.27 400.55 175.74 400.6 175.92 400.6 175.92"/><polygon class="e" points="401.8 174.12 403.9 173.69 404.77 175.75 404.97 175.68 404.03 173.47 401.74 173.94 401.8 174.12 401.8 174.12"/><polygon class="e" points="402.85 171.86 404.96 171.43 405.83 173.49 406.03 173.43 405.09 171.22 402.8 171.68 402.85 171.86 402.85 171.86"/></g><g><path class="c" d="M378.42,179.59h0s3.65-13.45-13.04-13.44c-2.82,14.3,13.03,13.44,13.03,13.44Z"/><path class="e" d="M377.3,178.85s-1.5-2.22-3.77-4.93c-2.27-2.71-5.32-5.92-8.43-7.91l-.12,.19c3.07,1.96,6.11,5.16,8.38,7.86,1.13,1.35,2.07,2.58,2.73,3.47,.33,.45,.59,.81,.76,1.06,.18,.25,.27,.39,.27,.39l.19-.12h0Z"/><polygon class="e" points="373.75 177.15 374.08 174.77 377.08 175.23 377.11 175 373.89 174.52 373.52 177.12 373.75 177.15 373.75 177.15"/><polygon class="e" points="371.87 174.98 372.19 172.7 374.95 172.82 374.95 172.6 371.99 172.47 371.64 174.94 371.87 174.98 371.87 174.98"/><polygon class="e" points="370.23 172.94 370.54 170.66 373.3 170.79 373.31 170.56 370.34 170.43 370 172.9 370.23 172.94 370.23 172.94"/><polygon class="e" points="367.99 170.82 368.3 168.54 371.06 168.66 371.07 168.44 368.1 168.31 367.76 170.78 367.99 170.82 367.99 170.82"/></g><g><path class="c" d="M343.13,180.93h0s13.74-2.28,6.79-17.44c-14.17,3.38-6.79,17.44-6.79,17.44Z"/><path class="e" d="M343.34,179.6s1.39-2.29,2.92-5.48c1.52-3.2,3.17-7.3,3.68-10.96l-.22-.03c-.51,3.61-2.15,7.7-3.66,10.89-.76,1.59-1.48,2.96-2.02,3.93-.27,.48-.49,.87-.64,1.13-.15,.26-.24,.4-.24,.4l.19,.12h0Z"/><polygon class="e" points="343.41 175.67 345.71 174.98 346.54 177.9 346.76 177.83 345.86 174.69 343.35 175.45 343.41 175.67 343.41 175.67"/><polygon class="e" points="344.6 173.05 346.8 172.39 347.84 174.96 348.05 174.87 346.93 172.11 344.54 172.83 344.6 173.05 344.6 173.05"/><polygon class="e" points="345.77 170.71 347.97 170.05 349.01 172.61 349.22 172.52 348.1 169.77 345.71 170.49 345.77 170.71 345.77 170.71"/><polygon class="e" points="346.77 167.79 348.97 167.13 350.01 169.69 350.22 169.6 349.1 166.85 346.7 167.57 346.77 167.79 346.77 167.79"/></g><g><path class="c" d="M278.91,174.7h0s3.7-13.43-12.99-13.48c-2.87,14.29,12.99,13.48,12.99,13.48Z"/><path class="e" d="M277.79,173.95s-1.49-2.23-3.76-4.95c-2.26-2.72-5.3-5.94-8.4-7.94l-.12,.19c3.07,1.97,6.09,5.18,8.35,7.89,1.13,1.36,2.06,2.59,2.72,3.48,.33,.45,.58,.81,.76,1.06,.17,.25,.27,.39,.27,.39l.19-.12h0Z"/><polygon class="e" points="274.25 172.24 274.59 169.86 277.59 170.33 277.62 170.1 274.39 169.6 274.02 172.2 274.25 172.24 274.25 172.24"/><polygon class="e" points="272.38 170.06 272.7 167.79 275.46 167.92 275.47 167.69 272.5 167.55 272.15 170.02 272.38 170.06 272.38 170.06"/><polygon class="e" points="270.74 168.02 271.06 165.74 273.82 165.87 273.83 165.65 270.86 165.51 270.51 167.98 270.74 168.02 270.74 168.02"/><polygon class="e" points="268.51 165.89 268.83 163.61 271.59 163.74 271.6 163.52 268.63 163.38 268.28 165.85 268.51 165.89 268.51 165.89"/></g><g><path class="c" d="M327.53,174.22h0s7.13,11.97,18.72-.04c-8.32-11.96-18.72,.04-18.72,.04Z"/><path class="e" d="M328.84,173.93s2.64,.46,6.17,.71c3.53,.25,7.96,.29,11.55-.57l-.05-.22c-3.55,.85-7.96,.81-11.48,.56-1.76-.12-3.3-.3-4.39-.45-.55-.07-.99-.14-1.29-.19-.3-.05-.46-.08-.46-.08l-.04,.22h0Z"/><polygon class="e" points="332.52 172.56 334 174.45 331.59 176.29 331.73 176.47 334.33 174.49 332.71 172.42 332.52 172.56 332.52 172.56"/><polygon class="e" points="335.39 172.72 336.81 174.53 334.8 176.43 334.96 176.59 337.12 174.55 335.58 172.58 335.39 172.72 335.39 172.72"/><polygon class="e" points="338 172.95 339.42 174.76 337.41 176.66 337.57 176.82 339.73 174.78 338.19 172.81 338 172.95 338 172.95"/><polygon class="e" points="341.08 172.82 342.5 174.62 340.49 176.53 340.65 176.69 342.81 174.64 341.27 172.68 341.08 172.82 341.08 172.82"/></g><g><path class="c" d="M303.17,172.68h0s9.62,10.08,18.24-4.2c-10.77-9.81-18.24,4.2-18.24,4.2Z"/><path class="e" d="M304.38,172.11s2.68-.13,6.17-.68c3.5-.54,7.82-1.49,11.13-3.12l-.1-.2c-3.27,1.61-7.58,2.56-11.06,3.1-1.74,.27-3.28,.44-4.38,.54-.55,.05-.99,.08-1.3,.11-.3,.02-.47,.03-.47,.03v.23h0Z"/><polygon class="e" points="307.67 169.95 309.53 171.46 307.6 173.8 307.77 173.94 309.86 171.43 307.82 169.77 307.67 169.95 307.67 169.95"/><polygon class="e" points="310.51 169.47 312.29 170.91 310.76 173.21 310.95 173.34 312.59 170.86 310.65 169.29 310.51 169.47 310.51 169.47"/><polygon class="e" points="313.1 169.11 314.88 170.56 313.35 172.86 313.54 172.98 315.19 170.51 313.25 168.93 313.1 169.11 313.1 169.11"/><polygon class="e" points="316.08 168.29 317.86 169.74 316.33 172.04 316.52 172.16 318.16 169.69 316.22 168.12 316.08 168.29 316.08 168.29"/></g><g><path class="c" d="M297.13,173.27h0s-3.54-13.48-18-5.15c4.68,13.8,18,5.15,18,5.15Z"/><path class="e" d="M295.79,173.19s-2.41-1.18-5.73-2.4c-3.32-1.22-7.56-2.48-11.25-2.66v.23c3.63,.17,7.86,1.43,11.17,2.64,1.66,.61,3.08,1.2,4.1,1.65,.51,.22,.91,.41,1.19,.54,.28,.13,.42,.2,.43,.2l.1-.2h0Z"/><polygon class="e" points="291.87 173.48 290.97 171.26 293.8 170.16 293.71 169.95 290.67 171.13 291.65 173.57 291.87 173.48 291.87 173.48"/><polygon class="e" points="289.15 172.54 288.29 170.41 290.75 169.14 290.64 168.94 288 170.3 288.94 172.62 289.15 172.54 289.15 172.54"/><polygon class="e" points="286.71 171.59 285.85 169.46 288.3 168.19 288.2 167.99 285.56 169.36 286.49 171.68 286.71 171.59 286.71 171.59"/><polygon class="e" points="283.71 170.87 282.85 168.74 285.31 167.47 285.2 167.27 282.56 168.63 283.5 170.95 283.71 170.87 283.71 170.87"/></g><g><path class="c" d="M290.84,168.66h0s3.59,13.46,18.02,5.08c-4.73-13.78-18.02-5.08-18.02-5.08Z"/><path class="e" d="M292.18,168.74s2.41,1.17,5.74,2.37c3.33,1.21,7.57,2.45,11.26,2.61v-.23c-3.63-.16-7.86-1.4-11.18-2.6-1.66-.6-3.09-1.19-4.1-1.63-.51-.22-.91-.4-1.19-.53-.28-.13-.43-.2-.43-.2l-.1,.2h0Z"/><polygon class="e" points="296.1 168.42 297.01 170.65 294.19 171.76 294.27 171.97 297.31 170.77 296.32 168.34 296.1 168.42 296.1 168.42"/><polygon class="e" points="298.82 169.36 299.69 171.49 297.24 172.77 297.35 172.97 299.98 171.59 299.04 169.28 298.82 169.36 298.82 169.36"/><polygon class="e" points="301.27 170.3 302.13 172.42 299.69 173.7 299.79 173.9 302.43 172.53 301.48 170.21 301.27 170.3 301.27 170.3"/><polygon class="e" points="304.27 171.01 305.13 173.14 302.69 174.42 302.79 174.62 305.43 173.24 304.48 170.93 304.27 171.01 304.27 171.01"/></g><g><path class="c" d="M246.41,176.79h0s13.88-1.2,8.13-16.86c-14.39,2.27-8.13,16.86-8.13,16.86Z"/><path class="e" d="M246.72,175.49s1.57-2.17,3.33-5.24c1.77-3.07,3.73-7.03,4.53-10.64l-.22-.05c-.79,3.56-2.74,7.51-4.5,10.57-.88,1.53-1.71,2.83-2.32,3.76-.31,.46-.56,.83-.73,1.08-.17,.25-.27,.38-.27,.38l.18,.14h0Z"/><polygon class="e" points="247.09 171.57 249.44 171.06 250.05 174.04 250.27 173.99 249.61 170.79 247.05 171.35 247.09 171.57 247.09 171.57"/><polygon class="e" points="248.49 169.06 250.73 168.57 251.57 171.21 251.78 171.13 250.88 168.3 248.44 168.83 248.49 169.06 248.49 169.06"/><polygon class="e" points="249.83 166.81 252.08 166.33 252.91 168.96 253.13 168.89 252.23 166.06 249.79 166.58 249.83 166.81 249.83 166.81"/><polygon class="e" points="251.06 163.98 253.3 163.49 254.14 166.13 254.35 166.05 253.45 163.22 251.01 163.75 251.06 163.98 251.06 163.98"/></g><g><path class="c" d="M198.72,174.58h0s3.3-13.85-13.04-12.91c-2.47,14.66,13.04,12.91,13.04,12.91Z"/><path class="e" d="M197.61,173.89s-1.51-2.17-3.8-4.79c-2.28-2.63-5.33-5.71-8.42-7.56l-.12,.2c3.05,1.82,6.09,4.89,8.36,7.51,1.14,1.31,2.08,2.5,2.74,3.37,.33,.43,.59,.79,.77,1.03,.18,.24,.27,.38,.27,.38l.19-.14h0Z"/><polygon class="e" points="194.1 172.37 194.37 169.94 197.32 170.23 197.34 170 194.17 169.69 193.87 172.35 194.1 172.37 194.1 172.37"/><polygon class="e" points="192.21 170.27 192.47 167.94 195.18 167.91 195.18 167.68 192.27 167.72 191.99 170.25 192.21 170.27 192.21 170.27"/><polygon class="e" points="190.56 168.29 190.82 165.97 193.52 165.94 193.53 165.71 190.62 165.74 190.33 168.27 190.56 168.29 190.56 168.29"/><polygon class="e" points="188.32 166.26 188.58 163.94 191.29 163.91 191.29 163.68 188.38 163.71 188.1 166.24 188.32 166.26 188.32 166.26"/></g><g><path class="c" d="M437.22,176.79h0s-.77-13.49-16.24-8.39c1.8,14.02,16.24,8.39,16.24,8.39Z"/><path class="e" d="M435.95,176.45s-2.08-1.59-5.02-3.39c-2.95-1.8-6.76-3.83-10.26-4.71l-.06,.21c3.46,.87,7.26,2.88,10.2,4.68,1.47,.9,2.72,1.74,3.6,2.36,.44,.31,.79,.56,1.03,.74,.24,.18,.37,.27,.37,.27l.14-.17h0Z"/><polygon class="e" points="432.13 175.97 431.71 173.69 434.63 173.19 434.59 172.97 431.44 173.51 431.91 176.01 432.13 175.97 432.13 175.97"/><polygon class="e" points="429.72 174.55 429.31 172.36 431.91 171.62 431.84 171.41 429.05 172.2 429.49 174.58 429.72 174.55 429.72 174.55"/><polygon class="e" points="427.56 173.17 427.15 170.98 429.75 170.25 429.68 170.04 426.89 170.83 427.34 173.21 427.56 173.17 427.56 173.17"/><polygon class="e" points="424.83 171.9 424.42 169.71 427.02 168.98 426.95 168.77 424.16 169.56 424.61 171.94 424.83 171.9 424.83 171.9"/></g><g><path class="c" d="M590.09,174.79h0s11.39,8,17.12-7.74c-12.48-7.5-17.12,7.74-17.12,7.74Z"/><path class="e" d="M591.17,173.99s2.6-.66,5.94-1.89c3.33-1.23,7.4-3.01,10.34-5.27l-.14-.18c-2.9,2.23-6.96,4.02-10.28,5.24-1.66,.61-3.14,1.08-4.2,1.4-.53,.16-.96,.28-1.25,.36-.29,.08-.46,.12-.46,.12l.05,.22h0Z"/><polygon class="e" points="593.99 171.22 596.11 172.33 594.65 175.01 594.85 175.11 596.42 172.23 594.1 171.01 593.99 171.22 593.99 171.22"/><polygon class="e" points="596.68 170.18 598.71 171.25 597.64 173.81 597.86 173.89 599 171.14 596.79 169.97 596.68 170.18 596.68 170.18"/><polygon class="e" points="599.16 169.32 601.19 170.38 600.13 172.95 600.34 173.03 601.48 170.27 599.27 169.11 599.16 169.32 599.16 169.32"/><polygon class="e" points="601.93 167.92 603.96 168.99 602.89 171.55 603.11 171.64 604.25 168.88 602.04 167.72 601.93 167.92 601.93 167.92"/></g><g><path class="c" d="M210.99,172.3h0s7.06,11.42,17.3-.12c-8.15-11.41-17.3,.12-17.3,.12Z"/><path class="e" d="M212.19,172.01s2.46,.43,5.73,.66c3.27,.22,7.37,.24,10.65-.59l-.06-.21c-3.25,.83-7.32,.81-10.59,.59-1.63-.11-3.06-.28-4.08-.41-.51-.07-.92-.13-1.2-.17-.28-.04-.43-.07-.43-.07l-.03,.21h0Z"/><polygon class="e" points="215.54 170.69 216.98 172.49 214.83 174.26 214.96 174.43 217.28 172.52 215.71 170.55 215.54 170.69 215.54 170.69"/><polygon class="e" points="218.2 170.82 219.58 172.55 217.8 174.37 217.95 174.53 219.87 172.56 218.37 170.69 218.2 170.82 218.2 170.82"/><polygon class="e" points="220.62 171.03 222 172.76 220.22 174.59 220.37 174.74 222.29 172.77 220.79 170.9 220.62 171.03 220.62 171.03"/><polygon class="e" points="223.47 170.89 224.84 172.61 223.06 174.44 223.22 174.6 225.13 172.63 223.63 170.76 223.47 170.89 223.47 170.89"/></g><g><path class="c" d="M253.47,172.1h0s-5.95-11.47-21.8-.31c7.33,11.48,21.8,.31,21.8,.31Z"/><path class="e" d="M251.89,172.35s-2.98-.49-7.04-.79c-4.06-.3-9.2-.42-13.55,.32l.02,.21c4.3-.74,9.42-.62,13.47-.32,2.02,.15,3.78,.35,5.03,.51,.62,.08,1.12,.15,1.46,.2,.34,.05,.52,.08,.53,.08l.1-.21h0Z"/><polygon class="e" points="247.33 173.58 245.98 171.76 249.15 170.06 249.02 169.89 245.61 171.72 247.09 173.71 247.33 173.58 247.33 173.58"/><polygon class="e" points="244.02 173.38 242.73 171.64 245.43 169.87 245.28 169.72 242.37 171.61 243.78 173.51 244.02 173.38 244.02 173.38"/><polygon class="e" points="241.03 173.11 239.73 171.37 242.44 169.61 242.29 169.45 239.38 171.35 240.79 173.24 241.03 173.11 241.03 173.11"/><polygon class="e" points="237.41 173.18 236.12 171.44 238.83 169.68 238.68 169.52 235.77 171.42 237.17 173.31 237.41 173.18 237.41 173.18"/></g><g><path class="c" d="M472.5,178.19h0s14.74,3.28,13.48-14.04c-15.6-2.38-13.49,14.04-13.49,14.04Z"/><path class="e" d="M473.21,177s2.28-1.64,5.03-4.1c2.75-2.46,5.98-5.75,7.88-9.05l-.21-.12c-1.88,3.27-5.1,6.54-7.84,9-1.37,1.23-2.62,2.25-3.53,2.97-.45,.36-.82,.64-1.08,.83-.26,.19-.4,.29-.4,.29l.15,.19h0Z"/><polygon class="e" points="474.77 173.26 477.35 173.51 477.09 176.64 477.34 176.66 477.62 173.29 474.79 173.02 474.77 173.26 474.77 173.26"/><polygon class="e" points="476.97 171.22 479.44 171.46 479.52 174.33 479.77 174.33 479.68 171.24 476.99 170.98 476.97 171.22 476.97 171.22"/><polygon class="e" points="479.04 169.43 481.51 169.67 481.59 172.54 481.84 172.54 481.75 169.46 479.06 169.19 479.04 169.43 479.04 169.43"/><polygon class="e" points="481.16 167.03 483.63 167.27 483.71 170.14 483.95 170.14 483.87 167.05 481.18 166.79 481.16 167.03 481.16 167.03"/></g><g><path class="c" d="M460.62,185.07h0s4.22-12.97-11.46-13.34c-3.49,13.82,11.45,13.34,11.45,13.34Z"/><path class="e" d="M459.62,184.32s-1.28-2.19-3.25-4.87c-1.98-2.69-4.65-5.87-7.45-7.87l-.13,.18c2.77,1.98,5.44,5.15,7.41,7.82,.98,1.34,1.8,2.55,2.36,3.43,.28,.44,.5,.8,.65,1.04,.15,.25,.23,.38,.23,.38l.19-.12h0Z"/><polygon class="e" points="456.38 182.59 456.83 180.29 459.63 180.8 459.67 180.58 456.66 180.04 456.17 182.55 456.38 182.59 456.38 182.59"/><polygon class="e" points="454.74 180.44 455.17 178.24 457.76 178.42 457.78 178.2 455 178 454.53 180.4 454.74 180.44 454.74 180.44"/><polygon class="e" points="453.32 178.42 453.75 176.22 456.33 176.4 456.35 176.18 453.57 175.99 453.1 178.38 453.32 178.42 453.32 178.42"/><polygon class="e" points="451.34 176.31 451.77 174.11 454.36 174.29 454.38 174.07 451.6 173.88 451.13 176.27 451.34 176.31 451.34 176.31"/></g><g><path class="c" d="M403.19,180.36h0s9.36,4.36,11.07-7.39c-10.06-3.88-11.07,7.39-11.07,7.39Z"/><path class="e" d="M403.84,179.68s1.76-.76,3.96-2c2.2-1.24,4.83-2.96,6.59-4.88l-.13-.11c-1.74,1.9-4.36,3.62-6.55,4.85-1.1,.62-2.08,1.12-2.79,1.46-.36,.17-.64,.31-.84,.4-.2,.09-.31,.14-.31,.14l.07,.15h0Z"/><polygon class="e" points="405.44 177.4 407.12 177.95 406.49 180 406.65 180.05 407.33 177.85 405.49 177.25 405.44 177.4 405.44 177.4"/><polygon class="e" points="407.2 176.37 408.82 176.89 408.45 178.82 408.61 178.85 409.01 176.78 407.25 176.21 407.2 176.37 407.2 176.37"/><polygon class="e" points="408.85 175.48 410.46 176 410.09 177.93 410.26 177.97 410.65 175.89 408.9 175.32 408.85 175.48 408.85 175.48"/><polygon class="e" points="410.61 174.19 412.23 174.71 411.86 176.64 412.02 176.67 412.42 174.6 410.66 174.03 410.61 174.19 410.61 174.19"/></g><g><path class="c" d="M508.27,175.91h0s-1.39-10.23-12.2-5.32c2.17,10.56,12.2,5.32,12.2,5.32Z"/><path class="e" d="M507.33,175.74s-1.59-1.07-3.82-2.25c-2.23-1.18-5.1-2.47-7.67-2.91l-.03,.17c2.54,.43,5.4,1.72,7.62,2.89,1.11,.59,2.06,1.15,2.74,1.56,.34,.21,.6,.38,.79,.5,.18,.12,.28,.18,.28,.18l.09-.14h0Z"/><polygon class="e" points="504.56 175.62 504.11 173.91 506.18 173.33 506.14 173.17 503.91 173.79 504.4 175.67 504.56 175.62 504.56 175.62"/><polygon class="e" points="502.74 174.69 502.31 173.05 504.13 172.32 504.07 172.17 502.11 172.95 502.58 174.74 502.74 174.69 502.74 174.69"/><polygon class="e" points="501.1 173.79 500.67 172.15 502.49 171.42 502.43 171.26 500.47 172.05 500.94 173.83 501.1 173.79 501.1 173.79"/><polygon class="e" points="499.06 173 498.63 171.36 500.45 170.63 500.39 170.48 498.43 171.26 498.9 173.05 499.06 173 499.06 173"/></g><g><path class="c" d="M514.73,173.89h0s6.37,12.12,17.61,1.11c-7.48-12.19-17.61-1.11-17.61-1.11Z"/><path class="e" d="M515.97,173.69s2.47,.61,5.78,1.08c3.31,.46,7.48,.77,10.88,.15l-.04-.22c-3.36,.61-7.51,.3-10.81-.16-1.65-.23-3.09-.5-4.12-.71-.51-.11-.92-.2-1.21-.26-.28-.06-.43-.1-.43-.1l-.05,.22h0Z"/><polygon class="e" points="519.48 172.58 520.82 174.51 518.5 176.16 518.62 176.34 521.12 174.57 519.66 172.45 519.48 172.58 519.48 172.58"/><polygon class="e" points="522.17 172.91 523.45 174.76 521.51 176.49 521.66 176.66 523.74 174.79 522.35 172.78 522.17 172.91 522.17 172.91"/><polygon class="e" points="524.62 173.29 525.9 175.14 523.96 176.88 524.11 177.04 526.19 175.18 524.8 173.17 524.62 173.29 524.62 173.29"/><polygon class="e" points="527.52 173.35 528.8 175.2 526.86 176.93 527.01 177.1 529.09 175.24 527.7 173.22 527.52 173.35 527.52 173.35"/></g><g><path class="c" d="M540.78,176.16h0s11.48,6.37,14.71-8.37c-12.41-5.84-14.71,8.37-14.71,8.37Z"/><path class="e" d="M541.67,175.35s2.3-.81,5.2-2.18c2.9-1.37,6.4-3.31,8.81-5.6l-.15-.15c-2.38,2.26-5.86,4.19-8.75,5.56-1.45,.68-2.74,1.23-3.68,1.6-.47,.19-.84,.33-1.1,.43-.26,.1-.4,.15-.4,.15l.08,.2h0Z"/><polygon class="e" points="543.9 172.61 545.99 173.46 544.99 176 545.19 176.08 546.26 173.34 543.97 172.42 543.9 172.61 543.9 172.61"/><polygon class="e" points="546.23 171.46 548.23 172.27 547.59 174.68 547.79 174.74 548.48 172.14 546.31 171.26 546.23 171.46 546.23 171.46"/><polygon class="e" points="548.4 170.48 550.4 171.29 549.75 173.7 549.96 173.76 550.65 171.17 548.47 170.28 548.4 170.48 548.4 170.48"/><polygon class="e" points="550.75 169 552.75 169.81 552.11 172.22 552.31 172.28 553.01 169.69 550.83 168.8 550.75 169 550.75 169"/></g><g><path class="c" d="M570.42,174.92h0s5.38-13.47-11.23-14.95c-4.67,14.41,11.22,14.95,11.22,14.95Z"/><path class="e" d="M569.4,174.06s-1.2-2.41-3.11-5.4c-1.91-2.99-4.52-6.55-7.36-8.87l-.15,.18c2.8,2.29,5.41,5.84,7.31,8.81,.95,1.49,1.73,2.83,2.27,3.81,.27,.49,.48,.88,.62,1.15,.14,.27,.22,.42,.22,.42l.21-.11h0Z"/><polygon class="e" points="566.09 172 566.73 169.6 569.66 170.33 569.72 170.1 566.57 169.31 565.87 171.95 566.09 172 566.09 172"/><polygon class="e" points="564.5 169.6 565.11 167.3 567.85 167.67 567.88 167.44 564.95 167.04 564.28 169.55 564.5 169.6 564.5 169.6"/><polygon class="e" points="563.13 167.37 563.74 165.06 566.47 165.43 566.51 165.2 563.57 164.8 562.91 167.31 563.13 167.37 563.13 167.37"/><polygon class="e" points="561.18 164.99 561.79 162.69 564.52 163.06 564.56 162.82 561.62 162.43 560.96 164.93 561.18 164.99 561.18 164.99"/></g><g><path class="c" d="M625.14,175.48h0s-.25-13.5-15.03-8.77c1.21,14.05,15.03,8.77,15.03,8.77Z"/><path class="e" d="M623.96,175.11s-1.9-1.63-4.62-3.51c-2.72-1.87-6.25-3.98-9.52-4.95l-.06,.21c3.23,.95,6.75,3.05,9.46,4.92,1.35,.93,2.51,1.81,3.32,2.45,.41,.32,.73,.58,.95,.76,.22,.18,.34,.28,.34,.28l.14-.17h0Z"/><polygon class="e" points="620.37 174.54 620.05 172.24 622.82 171.81 622.79 171.6 619.81 172.06 620.16 174.57 620.37 174.54 620.37 174.54"/><polygon class="e" points="618.14 173.06 617.83 170.86 620.31 170.19 620.26 169.98 617.59 170.7 617.93 173.09 618.14 173.06 618.14 173.06"/><polygon class="e" points="616.15 171.63 615.84 169.44 618.32 168.77 618.27 168.55 615.61 169.27 615.94 171.67 616.15 171.63 616.15 171.63"/><polygon class="e" points="613.62 170.3 613.31 168.1 615.79 167.43 615.74 167.22 613.07 167.94 613.41 170.33 613.62 170.3 613.62 170.3"/></g><g><path class="c" d="M501.94,178.99h0s.15-13.85-15.16-9.45c.81,14.45,15.15,9.45,15.15,9.45Z"/><path class="e" d="M500.74,178.57s-1.9-1.73-4.63-3.74c-2.73-2-6.29-4.28-9.62-5.36l-.07,.21c3.29,1.07,6.83,3.34,9.56,5.33,1.36,1,2.52,1.93,3.33,2.61,.41,.34,.73,.62,.95,.81,.22,.19,.34,.3,.34,.3l.15-.17h0Z"/><polygon class="e" points="497.08 177.88 496.81 175.51 499.67 175.16 499.65 174.93 496.57 175.32 496.86 177.91 497.08 177.88 497.08 177.88"/><polygon class="e" points="494.83 176.29 494.58 174.03 497.14 173.41 497.1 173.19 494.34 173.85 494.62 176.32 494.83 176.29 494.83 176.29"/><polygon class="e" points="492.84 174.77 492.59 172.51 495.15 171.89 495.1 171.67 492.35 172.33 492.62 174.8 492.84 174.77 492.84 174.77"/><polygon class="e" points="490.28 173.32 490.03 171.06 492.59 170.45 492.54 170.23 489.79 170.89 490.06 173.35 490.28 173.32 490.28 173.32"/></g><g><path class="c" d="M148.7,179.08h0s2.9-13.87-13.33-12.48c-2.05,14.66,13.33,12.48,13.33,12.48Z"/><path class="e" d="M147.58,178.42s-1.57-2.12-3.91-4.67c-2.34-2.55-5.46-5.54-8.59-7.29l-.11,.2c3.09,1.73,6.2,4.7,8.53,7.24,1.17,1.27,2.14,2.43,2.82,3.28,.34,.42,.61,.77,.79,1,.18,.24,.28,.37,.28,.37l.18-.14h0Z"/><polygon class="e" points="144.04 177 144.25 174.57 147.19 174.78 147.21 174.55 144.05 174.33 143.82 176.98 144.04 177 144.04 177"/><polygon class="e" points="142.11 174.96 142.31 172.64 145 172.53 144.99 172.3 142.1 172.42 141.88 174.94 142.11 174.96 142.11 174.96"/><polygon class="e" points="140.41 173.04 140.61 170.72 143.3 170.61 143.29 170.38 140.4 170.5 140.18 173.02 140.41 173.04 140.41 173.04"/><polygon class="e" points="138.13 171.08 138.32 168.76 141.02 168.66 141.01 168.43 138.12 168.54 137.9 171.07 138.13 171.08 138.13 171.08"/></g><g><path class="c" d="M110.86,179.46h0s15.05,3.68,14.13-14.11c-15.95-2.78-14.14,14.11-14.14,14.11Z"/><path class="e" d="M111.62,178.26s2.37-1.63,5.25-4.1c2.87-2.47,6.25-5.77,8.28-9.11l-.22-.13c-2,3.31-5.37,6.6-8.23,9.06-1.43,1.23-2.74,2.25-3.69,2.97-.47,.36-.86,.64-1.12,.83-.27,.19-.41,.29-.41,.29l.15,.2h0Z"/><polygon class="e" points="113.3 174.45 115.94 174.76 115.61 177.97 115.86 178 116.22 174.55 113.33 174.21 113.3 174.45 113.3 174.45"/><polygon class="e" points="115.6 172.41 118.13 172.71 118.15 175.66 118.4 175.66 118.38 172.49 115.63 172.17 115.6 172.41 115.6 172.41"/><polygon class="e" points="117.76 170.62 120.29 170.92 120.31 173.87 120.56 173.87 120.54 170.71 117.79 170.38 117.76 170.62 117.76 170.62"/><polygon class="e" points="119.99 168.2 122.52 168.5 122.53 171.45 122.78 171.45 122.77 168.29 120.01 167.96 119.99 168.2 119.99 168.2"/></g><g><path class="c" d="M177.73,172.47h0s3.64,11.92,20.25,4.07c-4.93-12.18-20.25-4.07-20.25-4.07Z"/><path class="e" d="M179.24,172.51s2.69,.98,6.43,1.97c3.73,.99,8.5,1.99,12.67,2.04l.02-.2c-4.12-.04-8.88-1.04-12.59-2.03-1.86-.49-3.46-.98-4.6-1.35-.57-.18-1.02-.34-1.33-.44-.31-.11-.48-.17-.48-.17l-.12,.18h0Z"/><polygon class="e" points="183.7 172.13 184.65 174.09 181.42 175.15 181.51 175.34 184.99 174.19 183.94 172.05 183.7 172.13 183.7 172.13"/><polygon class="e" points="186.75 172.89 187.66 174.77 184.85 175.97 184.96 176.15 187.99 174.85 186.99 172.81 186.75 172.89 186.75 172.89"/><polygon class="e" points="189.49 173.67 190.4 175.54 187.59 176.75 187.71 176.92 190.73 175.63 189.73 173.58 189.49 173.67 189.49 173.67"/><polygon class="e" points="192.86 174.22 193.78 176.1 190.97 177.31 191.08 177.48 194.11 176.18 193.11 174.14 192.86 174.22 192.86 174.22"/></g><g><path class="c" d="M113.95,178.54h0s13.66,.91,10.15-14.43c-14.3,.01-10.15,14.43-10.15,14.43Z"/><path class="e" d="M114.43,177.38s1.81-1.78,3.94-4.37c2.12-2.59,4.56-5.97,5.82-9.19l-.21-.08c-1.24,3.18-3.67,6.56-5.78,9.14-1.06,1.29-2.04,2.38-2.76,3.14-.36,.38-.65,.69-.85,.89-.2,.21-.31,.32-.31,.32l.16,.15h0Z"/><polygon class="e" points="115.31 173.8 117.66 173.67 117.85 176.51 118.08 176.5 117.86 173.44 115.3 173.59 115.31 173.8 115.31 173.8"/><polygon class="e" points="117 171.68 119.25 171.55 119.71 174.11 119.93 174.08 119.43 171.33 116.99 171.46 117 171.68 117 171.68"/><polygon class="e" points="118.61 169.79 120.86 169.67 121.32 172.23 121.54 172.19 121.04 169.44 118.59 169.58 118.61 169.79 118.61 169.79"/><polygon class="e" points="120.17 167.35 122.42 167.22 122.88 169.78 123.1 169.75 122.61 167 120.16 167.13 120.17 167.35 120.17 167.35"/></g><g><path class="c" d="M563.22,172.13h0s10.7,12.66,16.57-1c-11.75-12.59-16.57,1-16.57,1Z"/><path class="e" d="M564.27,171.75s2.51,.37,5.73,.46c3.22,.09,7.15-.09,10.02-1.21l-.13-.24c-2.83,1.1-6.75,1.29-9.96,1.2-1.6-.05-3.03-.16-4.06-.26-.51-.05-.92-.1-1.21-.14-.28-.04-.44-.06-.44-.06l.04,.25h0Z"/><polygon class="e" points="567.04 170.07 569.04 172.04 567.58 174.18 567.77 174.36 569.34 172.07 567.15 169.9 567.04 170.07 567.04 170.07"/><polygon class="e" points="569.64 170.09 571.55 171.98 570.47 174.16 570.67 174.32 571.83 171.99 569.75 169.93 569.64 170.09 569.64 170.09"/><polygon class="e" points="572.03 170.21 573.95 172.1 572.87 174.27 573.07 174.44 574.23 172.11 572.14 170.04 572.03 170.21 572.03 170.21"/><polygon class="e" points="574.71 169.9 576.63 171.8 575.55 173.97 575.75 174.14 576.91 171.8 574.82 169.74 574.71 169.9 574.71 169.9"/></g><g><path class="c" d="M657.23,176.24h0s9.85-9.51-3.88-17.21c-9.6,10.6,3.87,17.21,3.87,17.21Z"/><path class="e" d="M656.69,175.11s-.1-2.54-.59-5.85c-.49-3.31-1.36-7.39-2.9-10.48l-.2,.1c1.53,3.06,2.4,7.12,2.88,10.42,.24,1.65,.39,3.11,.48,4.15,.04,.52,.07,.94,.09,1.23,.02,.29,.02,.45,.02,.45h.22Z"/><polygon class="e" points="654.64 172.05 656.12 170.23 658.35 171.99 658.49 171.82 656.09 169.92 654.47 171.92 654.64 172.05 654.64 172.05"/><polygon class="e" points="654.2 169.37 655.61 167.63 657.82 169 657.94 168.82 655.57 167.34 654.03 169.24 654.2 169.37 654.2 169.37"/><polygon class="e" points="653.88 166.92 655.3 165.17 657.51 166.54 657.63 166.36 655.25 164.88 653.71 166.78 653.88 166.92 653.88 166.92"/><polygon class="e" points="653.12 164.11 654.54 162.37 656.75 163.74 656.87 163.56 654.49 162.08 652.95 163.98 653.12 164.11 653.12 164.11"/></g><g><path class="c" d="M618.6,172.14h0s5.99,12.31,17.57,1.66c-7.1-12.41-17.57-1.66-17.57-1.66Z"/><path class="e" d="M619.84,171.98s2.45,.69,5.75,1.25c3.3,.56,7.45,1,10.87,.49l-.03-.22c-3.38,.5-7.51,.07-10.8-.49-1.64-.28-3.08-.59-4.1-.84-.51-.12-.92-.22-1.2-.3-.28-.07-.43-.12-.43-.12l-.05,.21h0Z"/><polygon class="e" points="623.38 170.97 624.66 172.95 622.29 174.53 622.41 174.72 624.96 173.01 623.57 170.85 623.38 170.97 623.38 170.97"/><polygon class="e" points="626.07 171.39 627.29 173.28 625.3 174.95 625.44 175.12 627.58 173.32 626.25 171.27 626.07 171.39 626.07 171.39"/><polygon class="e" points="628.5 171.85 629.73 173.74 627.73 175.41 627.87 175.58 630.01 173.79 628.68 171.73 628.5 171.85 628.5 171.85"/><polygon class="e" points="631.4 172 632.62 173.89 630.63 175.56 630.77 175.73 632.91 173.93 631.58 171.88 631.4 172 631.4 172"/></g><g><path class="c" d="M667.77,172.83h0s-4.02-10.32-16.99-2.29c5.1,10.47,16.99,2.29,16.99,2.29Z"/><path class="e" d="M666.52,172.89s-2.3-.69-5.45-1.33c-3.15-.63-7.16-1.21-10.59-.98v.18c3.39-.23,7.39,.34,10.53,.98,1.57,.32,2.93,.65,3.89,.9,.48,.13,.87,.23,1.13,.31,.26,.07,.41,.12,.41,.12l.09-.17h0Z"/><polygon class="e" points="662.9 173.52 661.94 171.85 664.51 170.69 664.42 170.53 661.66 171.78 662.7 173.61 662.9 173.52 662.9 173.52"/><polygon class="e" points="660.33 173.04 659.41 171.44 661.62 170.19 661.51 170.04 659.14 171.39 660.13 173.13 660.33 173.04 660.33 173.04"/><polygon class="e" points="658.01 172.54 657.09 170.94 659.3 169.68 659.19 169.54 656.82 170.88 657.81 172.62 658.01 172.54 658.01 172.54"/><polygon class="e" points="655.19 172.26 654.27 170.66 656.48 169.41 656.37 169.26 653.99 170.61 654.99 172.35 655.19 172.26 655.19 172.26"/></g><g><path class="c" d="M10.63,173.67h0s14.88,4.33,14.73-13.48c-15.81-3.47-14.74,13.48-14.74,13.48Z"/><path class="e" d="M11.44,172.5s2.44-1.53,5.42-3.87c2.98-2.34,6.5-5.49,8.67-8.75l-.21-.14c-2.14,3.22-5.65,6.36-8.62,8.69-1.48,1.17-2.83,2.13-3.81,2.8-.49,.34-.89,.6-1.16,.78-.27,.18-.42,.27-.42,.27l.14,.21h0Z"/><polygon class="e" points="13.29 168.76 15.92 169.19 15.44 172.38 15.69 172.42 16.2 168.99 13.33 168.52 13.29 168.76 13.29 168.76"/><polygon class="e" points="15.68 166.83 18.19 167.24 18.08 170.18 18.33 170.19 18.45 167.03 15.71 166.58 15.68 166.83 15.68 166.83"/><polygon class="e" points="17.91 165.13 20.43 165.54 20.32 168.49 20.57 168.5 20.69 165.34 17.95 164.89 17.91 165.13 17.91 165.13"/><polygon class="e" points="20.24 162.81 22.75 163.22 22.64 166.17 22.89 166.18 23.01 163.02 20.28 162.57 20.24 162.81 20.24 162.81"/></g><g><path class="c" d="M44.44,175.13h0s10.7,11.21,19.51-4.27c-11.94-10.93-19.51,4.27-19.51,4.27Z"/><path class="e" d="M45.73,174.52s2.88-.1,6.63-.63c3.75-.53,8.38-1.49,11.89-3.22l-.11-.23c-3.47,1.71-8.08,2.67-11.81,3.2-1.87,.26-3.52,.42-4.7,.51-.59,.05-1.07,.07-1.39,.09-.33,.02-.5,.02-.5,.02l.02,.25h0Z"/><polygon class="e" points="49.2 172.22 51.26 173.91 49.25 176.43 49.44 176.59 51.6 173.88 49.35 172.03 49.2 172.22 49.2 172.22"/><polygon class="e" points="52.24 171.74 54.21 173.36 52.63 175.85 52.84 175.99 54.53 173.31 52.39 171.55 52.24 171.74 52.24 171.74"/><polygon class="e" points="55.02 171.4 56.99 173.01 55.42 175.51 55.63 175.64 57.32 172.97 55.17 171.21 55.02 171.4 55.02 171.4"/><polygon class="e" points="58.2 170.56 60.17 172.17 58.59 174.66 58.8 174.8 60.49 172.12 58.35 170.37 58.2 170.56 58.2 170.56"/></g><g><path class="c" d="M38.04,180.22h0s5.74-17.54-13.35-16.72c-4.9,18.6,13.34,16.72,13.34,16.72Z"/><path class="e" d="M36.84,179.32s-1.46-2.79-3.74-6.19c-2.28-3.39-5.4-7.39-8.72-9.81l-.16,.25c3.29,2.39,6.39,6.37,8.67,9.75,1.14,1.69,2.07,3.23,2.72,4.35,.32,.56,.58,1.01,.75,1.33,.17,.31,.26,.49,.26,.49l.23-.17h0Z"/><polygon class="e" points="32.98 177.3 33.64 174.21 37.02 174.65 37.08 174.36 33.44 173.89 32.72 177.26 32.98 177.3 32.98 177.3"/><polygon class="e" points="31.08 174.58 31.71 171.63 34.86 171.65 34.89 171.36 31.51 171.34 30.83 174.55 31.08 174.58 31.08 174.58"/><polygon class="e" points="29.44 172.03 30.06 169.08 33.21 169.1 33.24 168.81 29.86 168.78 29.18 172 29.44 172.03 29.44 172.03"/><polygon class="e" points="27.12 169.4 27.75 166.45 30.9 166.47 30.93 166.17 27.55 166.15 26.87 169.37 27.12 169.4 27.12 169.4"/></g><g><path class="c" d="M5.42,173.45h0s10.88,11.03,19.44-4.59c-12.12-10.74-19.44,4.59-19.44,4.59Z"/><path class="e" d="M6.7,172.83s2.88-.15,6.62-.74c3.74-.59,8.35-1.63,11.83-3.41l-.12-.22c-3.44,1.77-8.03,2.8-11.76,3.39-1.86,.29-3.51,.48-4.69,.59-.59,.06-1.07,.09-1.39,.11-.33,.02-.5,.03-.5,.03l.02,.25h0Z"/><polygon class="e" points="10.13 170.47 12.22 172.12 10.25 174.68 10.45 174.83 12.57 172.08 10.28 170.27 10.13 170.47 10.13 170.47"/><polygon class="e" points="13.16 169.94 15.16 171.52 13.63 174.04 13.84 174.17 15.48 171.47 13.31 169.74 13.16 169.94 13.16 169.94"/><polygon class="e" points="15.94 169.55 17.94 171.13 16.4 173.65 16.62 173.79 18.26 171.08 16.09 169.36 15.94 169.55 15.94 169.55"/><polygon class="e" points="19.1 168.66 21.1 170.24 19.57 172.76 19.78 172.89 21.43 170.19 19.25 168.46 19.1 168.66 19.1 168.66"/></g><g><path class="c" d="M63.76,177.67h0s14.66,5,15.33-12.8c-15.64-4.19-15.33,12.8-15.33,12.8Z"/><path class="e" d="M64.63,176.54s2.51-1.42,5.59-3.62c3.08-2.2,6.74-5.19,9.06-8.34l-.2-.15c-2.29,3.12-5.93,6.1-9,8.29-1.54,1.1-2.93,2-3.94,2.63-.5,.31-.91,.56-1.19,.73-.28,.17-.44,.25-.44,.25l.13,.21h0Z"/><polygon class="e" points="66.64 172.9 69.24 173.44 68.63 176.61 68.87 176.66 69.54 173.25 66.69 172.65 66.64 172.9 66.64 172.9"/><polygon class="e" points="69.11 171.07 71.6 171.59 71.36 174.53 71.61 174.55 71.87 171.4 69.16 170.83 69.11 171.07 69.11 171.07"/><polygon class="e" points="71.42 169.48 73.92 170 73.67 172.94 73.92 172.96 74.19 169.81 71.47 169.24 71.42 169.48 71.42 169.48"/><polygon class="e" points="73.85 167.27 76.35 167.79 76.1 170.73 76.35 170.75 76.61 167.6 73.9 167.02 73.85 167.27 73.85 167.27"/></g><g><path class="c" d="M108.68,177.99h0s.8-15.48-16.5-11.25c.25,16.19,16.5,11.25,16.5,11.25Z"/><path class="e" d="M107.35,177.47s-2.05-2.02-5.01-4.39c-2.96-2.36-6.83-5.07-10.5-6.43l-.09,.24c3.62,1.35,7.48,4.04,10.43,6.4,1.47,1.18,2.72,2.27,3.6,3.07,.44,.4,.79,.72,1.02,.95,.24,.23,.36,.35,.36,.35l.17-.18h0Z"/><polygon class="e" points="103.3 176.53 103.11 173.87 106.32 173.6 106.31 173.35 102.85 173.64 103.05 176.55 103.3 176.53 103.3 176.53"/><polygon class="e" points="100.86 174.65 100.68 172.11 103.58 171.54 103.53 171.29 100.42 171.9 100.62 174.67 100.86 174.65 100.86 174.65"/><polygon class="e" points="98.7 172.86 98.52 170.32 101.42 169.75 101.37 169.5 98.26 170.11 98.46 172.88 98.7 172.86 98.7 172.86"/><polygon class="e" points="95.91 171.13 95.73 168.58 98.62 168.02 98.58 167.77 95.47 168.38 95.66 171.15 95.91 171.13 95.91 171.13"/></g><g><path class="c" d="M90.58,181.63h0s1.85-15.39-15.7-12.35c-.85,16.17,15.7,12.35,15.7,12.35Z"/><path class="e" d="M89.3,181.02s-1.91-2.16-4.7-4.72c-2.79-2.56-6.47-5.52-10.04-7.13l-.1,.23c3.52,1.59,7.19,4.54,9.98,7.09,1.39,1.27,2.56,2.45,3.38,3.31,.41,.43,.74,.78,.96,1.02,.22,.24,.34,.37,.34,.37l.18-.17h0Z"/><polygon class="e" points="85.31 179.8 85.31 177.14 88.53 177.09 88.53 176.84 85.06 176.89 85.07 179.8 85.31 179.8 85.31 179.8"/><polygon class="e" points="83.01 177.76 83.01 175.22 85.93 174.85 85.9 174.6 82.76 174.99 82.77 177.77 83.01 177.76 83.01 177.76"/><polygon class="e" points="80.98 175.83 80.98 173.28 83.9 172.91 83.87 172.66 80.73 173.06 80.73 175.83 80.98 175.83 80.98 175.83"/><polygon class="e" points="78.31 173.91 78.31 171.37 81.23 171 81.2 170.75 78.06 171.14 78.07 173.92 78.31 173.91 78.31 173.91"/></g><g><path class="c" d="M190.88,176.86h0s8.82,10.79,18.51-2.79c-9.99-10.61-18.51,2.79-18.51,2.79Z"/><path class="e" d="M192.13,176.38s2.68,.07,6.21-.2c3.53-.27,7.91-.88,11.34-2.26l-.08-.21c-3.38,1.36-7.75,1.97-11.27,2.24-1.76,.14-3.31,.19-4.41,.2-.55,0-1,0-1.3,0-.3,0-.47,0-.47,0v.23h-.01Z"/><polygon class="e" points="195.58 174.48 197.32 176.13 195.21 178.31 195.37 178.46 197.65 176.12 195.74 174.31 195.58 174.48 195.58 174.48"/><polygon class="e" points="198.44 174.21 200.11 175.79 198.4 177.97 198.59 178.1 200.42 175.76 198.6 174.04 198.44 174.21 198.44 174.21"/><polygon class="e" points="201.06 174.06 202.72 175.64 201.02 177.81 201.2 177.95 203.03 175.61 201.22 173.89 201.06 174.06 201.06 174.06"/><polygon class="e" points="204.08 173.47 205.75 175.05 204.05 177.22 204.23 177.36 206.06 175.02 204.25 173.3 204.08 173.47 204.08 173.47"/></g><g><path class="c" d="M259.82,175.11h0s-1.38-13.87-16.97-7.91c2.46,14.36,16.96,7.91,16.96,7.91Z"/><path class="e" d="M258.51,174.82s-2.19-1.54-5.28-3.27c-3.09-1.73-7.08-3.64-10.69-4.39l-.05,.22c3.57,.74,7.55,2.64,10.63,4.36,1.54,.86,2.86,1.67,3.79,2.27,.47,.3,.83,.54,1.09,.72,.25,.17,.39,.27,.39,.27l.13-.18h0Z"/><polygon class="e" points="254.59 174.49 254.05 172.16 257.01 171.51 256.96 171.29 253.77 171.99 254.36 174.54 254.59 174.49 254.59 174.49"/><polygon class="e" points="252.05 173.13 251.54 170.9 254.16 170.02 254.09 169.81 251.27 170.75 251.83 173.18 252.05 173.13 252.05 173.13"/><polygon class="e" points="249.79 171.82 249.28 169.58 251.9 168.71 251.82 168.49 249 169.43 249.56 171.86 249.79 171.82 249.79 171.82"/><polygon class="e" points="246.94 170.63 246.43 168.39 249.05 167.52 248.98 167.31 246.16 168.24 246.72 170.68 246.94 170.63 246.94 170.63"/></g><g><path class="c" d="M707.48,172.65h0s2.66-13.68-13.98-12.46c-1.78,14.46,13.97,12.46,13.97,12.46Z"/><path class="e" d="M706.31,172s-1.66-2.11-4.12-4.65c-2.46-2.54-5.74-5.52-8.98-7.28l-.11,.2c3.21,1.74,6.47,4.7,8.92,7.23,1.23,1.27,2.25,2.42,2.97,3.26,.36,.42,.64,.76,.84,1,.19,.24,.3,.37,.3,.37l.18-.14h0Z"/><polygon class="e" points="702.65 170.56 702.8 168.17 705.83 168.4 705.84 168.17 702.59 167.92 702.42 170.54 702.65 170.56 702.65 170.56"/><polygon class="e" points="700.61 168.53 700.76 166.24 703.52 166.16 703.51 165.93 700.55 166.02 700.38 168.51 700.61 168.53 700.61 168.53"/><polygon class="e" points="698.82 166.61 698.97 164.32 701.73 164.24 701.72 164.02 698.76 164.1 698.59 166.6 698.82 166.61 698.82 166.61"/><polygon class="e" points="696.44 164.66 696.59 162.37 699.35 162.29 699.34 162.06 696.37 162.15 696.21 164.64 696.44 164.66 696.44 164.66"/></g><g><path class="c" d="M663.84,179.56h0s13.42-3.74,4.87-18.07c-13.73,4.89-4.88,18.07-4.88,18.07Z"/><path class="e" d="M663.9,178.22s1.14-2.42,2.31-5.77c1.17-3.34,2.37-7.6,2.48-11.29h-.23c-.11,3.64-1.31,7.88-2.47,11.21-.58,1.67-1.16,3.1-1.59,4.12-.21,.51-.39,.92-.52,1.19-.12,.28-.19,.43-.2,.43l.2,.1h0Z"/><polygon class="e" points="663.55 174.3 665.76 173.37 666.9 176.18 667.11 176.09 665.88 173.07 663.46 174.09 663.55 174.3 663.55 174.3"/><polygon class="e" points="664.45 171.57 666.57 170.68 667.88 173.11 668.07 173 666.67 170.39 664.36 171.36 664.45 171.57 664.45 171.57"/><polygon class="e" points="665.36 169.11 667.47 168.22 668.78 170.66 668.98 170.54 667.57 167.93 665.27 168.9 665.36 169.11 665.36 169.11"/><polygon class="e" points="666.04 166.11 668.15 165.21 669.46 167.65 669.66 167.54 668.25 164.92 665.95 165.89 666.04 166.11 666.04 166.11"/></g><g><path class="c" d="M717.52,173.61h0s-1.06-13.89-16.78-8.3c2.13,14.42,16.78,8.3,16.78,8.3Z"/><path class="e" d="M716.22,173.28s-2.16-1.59-5.21-3.39c-3.05-1.8-7-3.8-10.59-4.63l-.05,.22c3.55,.82,7.49,2.82,10.53,4.6,1.52,.89,2.82,1.74,3.73,2.36,.46,.31,.82,.56,1.07,.74,.25,.18,.38,.27,.38,.27l.14-.18h0Z"/><polygon class="e" points="712.31 172.87 711.82 170.52 714.8 169.94 714.75 169.72 711.55 170.34 712.08 172.92 712.31 172.87 712.31 172.87"/><polygon class="e" points="709.81 171.45 709.34 169.2 711.98 168.39 711.91 168.18 709.07 169.05 709.58 171.5 709.81 171.45 709.81 171.45"/><polygon class="e" points="707.57 170.08 707.11 167.84 709.75 167.03 709.68 166.81 706.84 167.68 707.34 170.13 707.57 170.08 707.57 170.08"/><polygon class="e" points="704.75 168.83 704.29 166.59 706.93 165.78 706.86 165.56 704.02 166.43 704.53 168.88 704.75 168.83 704.75 168.83"/></g><g><path class="c" d="M730.51,180.19h0s9.42-10.27-5.41-17.92c-9.07,11.4,5.41,17.92,5.41,17.92Z"/><path class="e" d="M729.85,179.02s-.31-2.66-1.09-6.11c-.77-3.45-2.01-7.7-3.86-10.9l-.2,.11c1.83,3.16,3.06,7.39,3.83,10.83,.39,1.72,.66,3.24,.83,4.34,.09,.55,.15,.99,.19,1.29,.04,.3,.06,.47,.06,.47l.23-.02h0Z"/><polygon class="e" points="727.48 175.88 728.86 173.92 731.32 175.7 731.45 175.52 728.81 173.6 727.29 175.75 727.48 175.88 727.48 175.88"/><polygon class="e" points="726.81 173.09 728.13 171.21 730.53 172.59 730.64 172.39 728.06 170.91 726.62 172.95 726.81 173.09 726.81 173.09"/><polygon class="e" points="726.28 170.52 727.61 168.65 730 170.02 730.11 169.82 727.54 168.35 726.09 170.39 726.28 170.52 726.28 170.52"/><polygon class="e" points="725.27 167.61 726.59 165.73 728.99 167.11 729.1 166.91 726.52 165.43 725.08 167.47 725.27 167.61 725.27 167.61"/></g><g><path class="c" d="M735.87,180.34h0s12.91,5.25,14.91-11.32c-13.85-4.52-14.91,11.32-14.91,11.32Z"/><path class="e" d="M736.74,179.31s2.38-1.22,5.35-3.15c2.97-1.93,6.52-4.57,8.87-7.42l-.17-.15c-2.32,2.81-5.86,5.45-8.82,7.37-1.48,.96-2.81,1.75-3.78,2.29-.48,.27-.87,.48-1.14,.63-.27,.14-.42,.22-.42,.22l.1,.21h0Z"/><polygon class="e" points="738.85 176 741.17 176.61 740.36 179.54 740.58 179.59 741.45 176.45 738.91 175.77 738.85 176 738.85 176"/><polygon class="e" points="741.23 174.39 743.45 174.98 743 177.71 743.23 177.74 743.71 174.81 741.3 174.17 741.23 174.39 741.23 174.39"/><polygon class="e" points="743.46 173 745.68 173.59 745.22 176.32 745.45 176.35 745.93 173.42 743.52 172.78 743.46 173 743.46 173"/><polygon class="e" points="745.83 171.04 748.05 171.62 747.6 174.35 747.82 174.38 748.31 171.45 745.89 170.81 745.83 171.04 745.83 171.04"/></g><g><path class="c" d="M810.88,181.93h0s9.42-10.27-5.41-17.92c-9.07,11.4,5.41,17.92,5.41,17.92Z"/><path class="e" d="M810.23,180.76s-.31-2.66-1.09-6.11c-.77-3.45-2.01-7.7-3.86-10.9l-.2,.11c1.83,3.16,3.06,7.39,3.83,10.83,.39,1.72,.66,3.24,.83,4.34,.09,.55,.15,.99,.19,1.29,.04,.3,.06,.47,.06,.47l.23-.02h0Z"/><polygon class="e" points="807.86 177.62 809.24 175.67 811.7 177.44 811.83 177.26 809.19 175.34 807.67 177.49 807.86 177.62 807.86 177.62"/><polygon class="e" points="807.19 174.83 808.51 172.95 810.91 174.33 811.02 174.13 808.44 172.65 807 174.69 807.19 174.83 807.19 174.83"/><polygon class="e" points="806.66 172.26 807.98 170.39 810.38 171.76 810.49 171.56 807.91 170.09 806.47 172.13 806.66 172.26 806.66 172.26"/><polygon class="e" points="805.65 169.35 806.97 167.48 809.37 168.85 809.48 168.65 806.9 167.17 805.46 169.21 805.65 169.35 805.65 169.35"/></g><g><path class="c" d="M757.66,177.93h0s13.11,4.7,14.42-11.93c-14.03-3.94-14.43,11.93-14.43,11.93Z"/><path class="e" d="M758.48,176.87s2.33-1.32,5.22-3.37c2.88-2.05,6.32-4.83,8.55-7.78l-.18-.14c-2.2,2.91-5.63,5.68-8.5,7.73-1.44,1.02-2.74,1.86-3.68,2.45-.47,.29-.85,.52-1.11,.68-.26,.16-.41,.24-.41,.24l.11,.2h0Z"/><polygon class="e" points="760.46 173.47 762.8 173.99 762.11 176.94 762.33 176.99 763.07 173.81 760.51 173.24 760.46 173.47 760.46 173.47"/><polygon class="e" points="762.77 171.77 765.02 172.26 764.68 175 764.9 175.03 765.27 172.08 762.83 171.54 762.77 171.77 762.77 171.77"/><polygon class="e" points="764.94 170.29 767.18 170.78 766.84 173.52 767.07 173.55 767.43 170.6 764.99 170.06 764.94 170.29 764.94 170.29"/><polygon class="e" points="767.23 168.22 769.47 168.72 769.13 171.46 769.36 171.49 769.72 168.54 767.28 168 767.23 168.22 767.23 168.22"/></g><g><path class="c" d="M788.87,180.81h0s.73-13.91-15.58-10.38c.26,14.57,15.58,10.38,15.58,10.38Z"/><path class="e" d="M787.62,180.32s-1.93-1.85-4.73-4.02c-2.8-2.17-6.45-4.66-9.91-5.95l-.08,.21c3.42,1.27,7.06,3.75,9.85,5.92,1.39,1.08,2.57,2.08,3.4,2.82,.41,.37,.74,.66,.97,.87,.22,.21,.34,.32,.34,.32l.16-.16h0Z"/><polygon class="e" points="783.79 179.41 783.62 177.02 786.64 176.83 786.63 176.6 783.37 176.81 783.56 179.42 783.79 179.41 783.79 179.41"/><polygon class="e" points="781.5 177.68 781.33 175.39 784.05 174.93 784.01 174.7 781.08 175.2 781.27 177.7 781.5 177.68 781.5 177.68"/><polygon class="e" points="779.46 176.04 779.29 173.75 782.01 173.28 781.97 173.06 779.04 173.56 779.23 176.05 779.46 176.04 779.46 176.04"/><polygon class="e" points="776.82 174.44 776.65 172.15 779.37 171.68 779.33 171.46 776.4 171.96 776.59 174.45 776.82 174.44 776.82 174.44"/></g></g></svg>