<?xml version="1.0" encoding="UTF-8"?><svg xmlns="http://www.w3.org/2000/svg" viewBox="0 0 827.97 262"><defs><style>.c,.d{fill:#afa57d;}.d{font-family:Teko-Light, Teko;font-size:139px;}.e{fill:#777159;}</style></defs><g id="a"><text class="d" transform="translate(16.85 174.18)"><tspan x="0" y="0">COFFRETS &amp; CADEAUX</tspan></text></g><g id="b"><g><path class="c" d="M151.23,126.58h0s12.55,7.89,16.95-8.4c-13.63-7.36-16.95,8.4-16.95,8.4Z"/><path class="e" d="M152.27,125.72s2.63-.75,5.96-2.09c3.33-1.35,7.36-3.29,10.18-5.68l-.16-.18c-2.79,2.37-6.8,4.3-10.12,5.64-1.66,.67-3.14,1.19-4.21,1.55-.53,.18-.97,.31-1.26,.4-.3,.09-.46,.14-.46,.14l.07,.23h0Z"/><polygon class="e" points="154.92 122.81 157.22 123.89 155.97 126.68 156.19 126.78 157.53 123.78 155.01 122.59 154.92 122.81 154.92 122.81"/><polygon class="e" points="157.6 121.67 159.8 122.71 158.95 125.37 159.18 125.45 160.09 122.59 157.7 121.46 157.6 121.67 157.6 121.67"/><polygon class="e" points="160.08 120.72 162.29 121.76 161.44 124.42 161.66 124.5 162.58 121.64 160.18 120.51 160.08 120.72 160.08 120.72"/><polygon class="e" points="162.81 119.22 165.01 120.26 164.16 122.91 164.39 122.99 165.3 120.14 162.9 119.01 162.81 119.22 162.81 119.22"/></g><g><path class="c" d="M158.09,109.29h0s6.6-13.55-10.62-16.45c-5.92,14.59,10.61,16.45,10.61,16.45Z"/><path class="e" d="M157.09,108.31s-1.08-2.6-2.85-5.86c-1.77-3.26-4.24-7.18-7.03-9.82l-.17,.18c2.76,2.61,5.22,6.51,6.98,9.76,.88,1.62,1.59,3.08,2.08,4.14,.24,.53,.43,.95,.56,1.25,.13,.29,.19,.45,.2,.45l.22-.1h0Z"/><polygon class="e" points="153.79 105.9 154.63 103.45 157.63 104.45 157.71 104.22 154.48 103.14 153.56 105.82 153.79 105.9 153.79 105.9"/><polygon class="e" points="152.31 103.28 153.12 100.93 155.94 101.54 155.99 101.3 152.96 100.65 152.08 103.2 152.31 103.28 152.31 103.28"/><polygon class="e" points="151.04 100.84 151.85 98.5 154.67 99.1 154.72 98.87 151.69 98.21 150.81 100.76 151.04 100.84 151.04 100.84"/><polygon class="e" points="149.18 98.21 149.98 95.87 152.81 96.47 152.86 96.24 149.83 95.58 148.95 98.13 149.18 98.21 149.18 98.21"/></g><g><path class="c" d="M399.67,112.94h0s13.83-1.63,7.6-17.11c-14.32,2.72-7.6,17.11-7.6,17.11Z"/><path class="e" d="M399.94,111.63s1.5-2.22,3.17-5.34c1.67-3.12,3.51-7.15,4.19-10.77l-.22-.04c-.67,3.58-2.51,7.6-4.17,10.71-.83,1.56-1.62,2.89-2.2,3.83-.29,.47-.53,.84-.7,1.1-.17,.26-.26,.39-.26,.39l.19,.13h0Z"/><polygon class="e" points="400.19 107.7 402.52 107.12 403.22 110.07 403.44 110.02 402.69 106.84 400.14 107.48 400.19 107.7 400.19 107.7"/><polygon class="e" points="401.51 105.15 403.73 104.59 404.65 107.2 404.87 107.12 403.88 104.32 401.45 104.92 401.51 105.15 401.51 105.15"/><polygon class="e" points="402.78 102.86 405.01 102.3 405.93 104.91 406.14 104.83 405.15 102.03 402.73 102.63 402.78 102.86 402.78 102.86"/><polygon class="e" points="403.92 99.99 406.14 99.43 407.06 102.04 407.28 101.96 406.29 99.16 403.86 99.76 403.92 99.99 403.92 99.99"/></g><g><path class="c" d="M379.01,120.8h0s3.65-13.45-13.04-13.44c-2.82,14.3,13.03,13.44,13.03,13.44Z"/><path class="e" d="M377.89,120.06s-1.5-2.22-3.77-4.93c-2.27-2.71-5.32-5.92-8.43-7.91l-.12,.19c3.07,1.96,6.11,5.16,8.38,7.86,1.13,1.35,2.07,2.58,2.73,3.47,.33,.45,.59,.81,.76,1.06,.18,.25,.27,.39,.27,.39l.19-.12h0Z"/><polygon class="e" points="374.34 118.36 374.67 115.98 377.67 116.44 377.7 116.21 374.47 115.73 374.11 118.33 374.34 118.36 374.34 118.36"/><polygon class="e" points="372.46 116.19 372.78 113.91 375.54 114.03 375.54 113.81 372.58 113.68 372.23 116.15 372.46 116.19 372.46 116.19"/><polygon class="e" points="370.81 114.15 371.13 111.88 373.89 112 373.9 111.77 370.93 111.64 370.59 114.11 370.81 114.15 370.81 114.15"/><polygon class="e" points="368.58 112.03 368.89 109.75 371.65 109.87 371.66 109.65 368.69 109.52 368.35 111.99 368.58 112.03 368.58 112.03"/></g><g><path class="c" d="M336.24,115.77h0s13.74-2.28,6.79-17.44c-14.17,3.38-6.79,17.44-6.79,17.44Z"/><path class="e" d="M336.44,114.45s1.39-2.29,2.92-5.48c1.52-3.2,3.17-7.3,3.68-10.96l-.22-.03c-.51,3.61-2.15,7.7-3.66,10.89-.76,1.59-1.48,2.96-2.02,3.93-.27,.48-.49,.87-.64,1.13-.15,.26-.24,.4-.24,.4l.19,.12h0Z"/><polygon class="e" points="336.51 110.51 338.81 109.83 339.65 112.74 339.86 112.68 338.96 109.54 336.45 110.29 336.51 110.51 336.51 110.51"/><polygon class="e" points="337.7 107.9 339.9 107.24 340.94 109.8 341.15 109.71 340.03 106.96 337.64 107.68 337.7 107.9 337.7 107.9"/><polygon class="e" points="338.87 105.55 341.07 104.89 342.11 107.45 342.32 107.37 341.2 104.61 338.81 105.33 338.87 105.55 338.87 105.55"/><polygon class="e" points="339.87 102.64 342.07 101.98 343.11 104.54 343.32 104.45 342.2 101.7 339.81 102.41 339.87 102.64 339.87 102.64"/></g><g><path class="c" d="M278.16,158.29h0s3.7-13.43-12.99-13.48c-2.87,14.29,12.99,13.48,12.99,13.48Z"/><path class="e" d="M277.05,157.54s-1.49-2.23-3.76-4.95c-2.26-2.72-5.3-5.94-8.4-7.94l-.12,.19c3.07,1.97,6.09,5.18,8.35,7.89,1.13,1.36,2.06,2.59,2.72,3.48,.33,.45,.58,.81,.76,1.06,.17,.25,.27,.39,.27,.39l.19-.12h0Z"/><polygon class="e" points="273.51 155.83 273.85 153.46 276.84 153.92 276.88 153.69 273.65 153.2 273.28 155.79 273.51 155.83 273.51 155.83"/><polygon class="e" points="271.63 153.65 271.96 151.38 274.72 151.51 274.73 151.28 271.76 151.14 271.4 153.61 271.63 153.65 271.63 153.65"/><polygon class="e" points="269.99 151.61 270.32 149.33 273.08 149.46 273.09 149.24 270.12 149.1 269.77 151.57 269.99 151.61 269.99 151.61"/><polygon class="e" points="267.76 149.48 268.09 147.2 270.85 147.33 270.86 147.11 267.89 146.97 267.54 149.44 267.76 149.48 267.76 149.48"/></g><g><path class="c" d="M335.18,145.42h0s13.42-3.74,4.87-18.07c-13.73,4.89-4.88,18.07-4.88,18.07Z"/><path class="e" d="M335.25,144.08s1.14-2.42,2.31-5.77c1.17-3.34,2.37-7.6,2.48-11.29h-.23c-.11,3.64-1.31,7.88-2.47,11.21-.58,1.67-1.16,3.1-1.59,4.12-.21,.51-.39,.92-.52,1.19-.12,.28-.19,.43-.2,.43l.2,.1h0Z"/><polygon class="e" points="334.89 140.16 337.1 139.23 338.25 142.04 338.46 141.95 337.22 138.93 334.8 139.95 334.89 140.16 334.89 140.16"/><polygon class="e" points="335.8 137.43 337.91 136.54 339.22 138.97 339.42 138.86 338.01 136.25 335.71 137.22 335.8 137.43 335.8 137.43"/><polygon class="e" points="336.7 134.98 338.82 134.08 340.13 136.52 340.33 136.41 338.92 133.79 336.62 134.76 336.7 134.98 336.7 134.98"/><polygon class="e" points="337.38 131.97 339.5 131.08 340.81 133.51 341.01 133.4 339.6 130.78 337.3 131.75 337.38 131.97 337.38 131.97"/></g><g><path class="c" d="M303.96,153.4h0s13.89-1.11,8.24-16.81c-14.41,2.18-8.24,16.81-8.24,16.81Z"/><path class="e" d="M304.28,152.1s1.58-2.16,3.37-5.22c1.79-3.06,3.78-7.01,4.6-10.61l-.22-.05c-.81,3.56-2.79,7.5-4.57,10.54-.89,1.52-1.73,2.82-2.35,3.74-.31,.46-.56,.82-.74,1.07-.18,.25-.27,.38-.27,.38l.18,.14h0Z"/><polygon class="e" points="304.68 148.18 307.03 147.69 307.61 150.67 307.84 150.62 307.2 147.42 304.63 147.95 304.68 148.18 304.68 148.18"/><polygon class="e" points="306.09 145.68 308.34 145.21 309.15 147.84 309.37 147.77 308.49 144.94 306.04 145.45 306.09 145.68 306.09 145.68"/><polygon class="e" points="307.45 143.44 309.7 142.97 310.52 145.61 310.73 145.54 309.85 142.7 307.4 143.21 307.45 143.44 307.45 143.44"/><polygon class="e" points="308.69 140.61 310.94 140.14 311.76 142.78 311.97 142.71 311.09 139.87 308.65 140.39 308.69 140.61 308.69 140.61"/></g><g><path class="c" d="M291.06,148.65h0s9.42-10.27-5.41-17.92c-9.07,11.4,5.41,17.92,5.41,17.92Z"/><path class="e" d="M290.4,147.48s-.31-2.66-1.09-6.11c-.77-3.45-2.01-7.7-3.86-10.9l-.2,.11c1.83,3.16,3.06,7.39,3.83,10.83,.39,1.72,.66,3.24,.83,4.34,.09,.55,.15,.99,.19,1.29,.04,.3,.06,.47,.06,.47l.23-.02h0Z"/><polygon class="e" points="288.03 144.34 289.42 142.38 291.87 144.16 292 143.98 289.36 142.06 287.84 144.21 288.03 144.34 288.03 144.34"/><polygon class="e" points="287.36 141.55 288.68 139.67 291.08 141.05 291.19 140.85 288.61 139.37 287.17 141.41 287.36 141.55 287.36 141.55"/><polygon class="e" points="286.83 138.98 288.16 137.11 290.55 138.48 290.66 138.28 288.09 136.81 286.64 138.85 286.83 138.98 286.83 138.98"/><polygon class="e" points="285.82 136.07 287.14 134.19 289.54 135.57 289.65 135.37 287.07 133.89 285.63 135.93 285.82 136.07 285.82 136.07"/></g><g><path class="c" d="M296.82,112.64h0s13.52,3.38,13.17-13.3c-14.35-2.53-13.17,13.3-13.17,13.3Z"/><path class="e" d="M297.54,111.5s2.19-1.54,4.86-3.87c2.67-2.33,5.81-5.44,7.74-8.59l-.19-.12c-1.9,3.11-5.03,6.21-7.69,8.53-1.33,1.16-2.54,2.12-3.42,2.8-.44,.34-.79,.6-1.04,.78-.25,.18-.38,.28-.38,.28l.13,.19h0Z"/><polygon class="e" points="299.17 107.92 301.55 108.2 301.16 111.21 301.38 111.24 301.8 108 299.2 107.69 299.17 107.92 299.17 107.92"/><polygon class="e" points="301.3 106 303.58 106.27 303.52 109.03 303.75 109.03 303.81 106.06 301.33 105.77 301.3 106 301.3 106"/><polygon class="e" points="303.31 104.31 305.59 104.58 305.52 107.34 305.75 107.34 305.82 104.37 303.34 104.08 303.31 104.31 303.31 104.31"/><polygon class="e" points="305.38 102.03 307.66 102.3 307.6 105.06 307.83 105.06 307.9 102.09 305.41 101.8 305.38 102.03 305.38 102.03"/></g><g><path class="c" d="M254.69,109.95h0s13.88-1.2,8.13-16.86c-14.39,2.27-8.13,16.86-8.13,16.86Z"/><path class="e" d="M255,108.64s1.57-2.17,3.33-5.24c1.77-3.07,3.73-7.03,4.53-10.64l-.22-.05c-.79,3.56-2.74,7.51-4.5,10.57-.88,1.53-1.71,2.83-2.32,3.76-.31,.46-.56,.83-.73,1.08-.17,.25-.27,.38-.27,.38l.18,.14h0Z"/><polygon class="e" points="255.38 104.73 257.72 104.22 258.33 107.19 258.55 107.14 257.9 103.95 255.33 104.5 255.38 104.73 255.38 104.73"/><polygon class="e" points="256.77 102.21 259.02 101.73 259.85 104.36 260.07 104.29 259.17 101.46 256.72 101.99 256.77 102.21 256.77 102.21"/><polygon class="e" points="258.12 99.97 260.36 99.48 261.2 102.11 261.41 102.04 260.51 99.21 258.07 99.74 258.12 99.97 258.12 99.97"/><polygon class="e" points="259.34 97.13 261.58 96.65 262.42 99.28 262.64 99.21 261.74 96.38 259.29 96.91 259.34 97.13 259.34 97.13"/></g><g><path class="c" d="M204.23,106.66h0s3.3-13.85-13.04-12.91c-2.47,14.66,13.04,12.91,13.04,12.91Z"/><path class="e" d="M203.12,105.97s-1.51-2.17-3.8-4.79c-2.28-2.63-5.33-5.71-8.42-7.56l-.12,.2c3.05,1.82,6.09,4.89,8.36,7.51,1.14,1.31,2.08,2.5,2.74,3.37,.33,.43,.59,.79,.77,1.03,.18,.24,.27,.38,.27,.38l.19-.14h0Z"/><polygon class="e" points="199.61 104.45 199.89 102.02 202.84 102.31 202.86 102.08 199.69 101.77 199.39 104.43 199.61 104.45 199.61 104.45"/><polygon class="e" points="197.73 102.35 197.99 100.02 200.7 99.99 200.7 99.76 197.79 99.79 197.5 102.33 197.73 102.35 197.73 102.35"/><polygon class="e" points="196.07 100.37 196.34 98.05 199.04 98.02 199.04 97.78 196.14 97.82 195.85 100.35 196.07 100.37 196.07 100.37"/><polygon class="e" points="193.84 98.34 194.1 96.02 196.81 95.99 196.81 95.76 193.9 95.79 193.62 98.32 193.84 98.34 193.84 98.34"/></g><g><path class="c" d="M439.15,132.55h0s10.11-8.97-3.49-17.94c-9.88,10.11,3.49,17.94,3.49,17.94Z"/><path class="e" d="M438.64,131.35s-.04-2.61-.46-6.04c-.41-3.43-1.19-7.68-2.67-10.97l-.2,.09c1.46,3.25,2.24,7.49,2.65,10.9,.21,1.71,.32,3.21,.38,4.29,.03,.54,.05,.97,.06,1.27,.01,.3,.01,.46,.01,.46h.22Z"/><polygon class="e" points="436.65 128.05 438.18 126.3 440.38 128.28 440.53 128.12 438.15 125.98 436.48 127.9 436.65 128.05 436.65 128.05"/><polygon class="e" points="436.27 125.27 437.73 123.6 439.92 125.18 440.04 125 437.69 123.29 436.1 125.12 436.27 125.27 436.27 125.27"/><polygon class="e" points="436.01 122.73 437.47 121.05 439.66 122.64 439.78 122.45 437.43 120.75 435.84 122.58 436.01 122.73 436.01 122.73"/><polygon class="e" points="435.31 119.8 436.78 118.12 438.96 119.71 439.09 119.52 436.74 117.82 435.14 119.65 435.31 119.8 435.31 119.8"/></g><g><path class="c" d="M591.23,110.24h0s11.39,8,17.12-7.74c-12.48-7.5-17.12,7.74-17.12,7.74Z"/><path class="e" d="M592.31,109.44s2.6-.66,5.94-1.89c3.33-1.23,7.4-3.01,10.34-5.27l-.14-.18c-2.9,2.23-6.96,4.02-10.28,5.24-1.66,.61-3.14,1.08-4.2,1.4-.53,.16-.96,.28-1.25,.36-.29,.08-.46,.12-.46,.12l.05,.22h0Z"/><polygon class="e" points="595.13 106.67 597.25 107.78 595.79 110.46 595.99 110.57 597.56 107.68 595.24 106.46 595.13 106.67 595.13 106.67"/><polygon class="e" points="597.82 105.63 599.85 106.7 598.79 109.26 599 109.34 600.14 106.59 597.93 105.43 597.82 105.63 597.82 105.63"/><polygon class="e" points="600.3 104.77 602.33 105.83 601.27 108.4 601.48 108.48 602.63 105.73 600.41 104.56 600.3 104.77 600.3 104.77"/><polygon class="e" points="603.07 103.37 605.1 104.44 604.04 107 604.25 107.09 605.39 104.33 603.18 103.17 603.07 103.37 603.07 103.37"/></g><g><path class="c" d="M219.42,114.01h0s10.93-7.79-1.26-17.26c-10.85,8.89,1.26,17.26,1.26,17.26Z"/><path class="e" d="M219.06,112.83s.27-2.48,.28-5.76c0-3.28-.24-7.37-1.29-10.59l-.21,.07c1.04,3.19,1.29,7.25,1.28,10.52,0,1.63-.07,3.07-.14,4.1-.03,.51-.07,.92-.09,1.21-.03,.28-.04,.44-.04,.44l.22,.02h0Z"/><polygon class="e" points="217.51 109.57 219.21 108.02 221.13 110.05 221.29 109.91 219.23 107.72 217.37 109.42 217.51 109.57 217.51 109.57"/><polygon class="e" points="217.48 106.91 219.1 105.42 221.05 107.08 221.19 106.91 219.1 105.13 217.33 106.76 217.48 106.91 217.48 106.91"/><polygon class="e" points="217.53 104.48 219.16 102.99 221.1 104.65 221.24 104.48 219.15 102.7 217.38 104.33 217.53 104.48 217.53 104.48"/><polygon class="e" points="217.2 101.65 218.83 100.16 220.77 101.82 220.91 101.66 218.82 99.88 217.05 101.5 217.2 101.65 217.2 101.65"/></g><g><path class="c" d="M251.64,106.98h0s-.09-15.5-17.12-10.29c1.17,16.15,17.12,10.29,17.12,10.29Z"/><path class="e" d="M250.29,106.54s-2.16-1.9-5.25-4.09c-3.09-2.19-7.11-4.67-10.85-5.82l-.07,.24c3.7,1.14,7.7,3.61,10.78,5.79,1.54,1.09,2.85,2.11,3.77,2.86,.46,.37,.83,.68,1.08,.89,.25,.21,.38,.33,.38,.33l.16-.19h0Z"/><polygon class="e" points="246.18 105.83 245.84 103.19 249.04 102.74 249 102.49 245.57 102.98 245.94 105.86 246.18 105.83 246.18 105.83"/><polygon class="e" points="243.64 104.1 243.32 101.57 246.17 100.84 246.12 100.59 243.05 101.38 243.4 104.13 243.64 104.1 243.64 104.1"/><polygon class="e" points="241.38 102.43 241.06 99.91 243.91 99.17 243.86 98.93 240.79 99.72 241.14 102.47 241.38 102.43 241.38 102.43"/><polygon class="e" points="238.5 100.86 238.17 98.34 241.03 97.61 240.97 97.36 237.9 98.15 238.25 100.9 238.5 100.86 238.5 100.86"/></g><g><path class="c" d="M466.62,118.35h0s14.74,3.28,13.48-14.04c-15.6-2.38-13.49,14.04-13.49,14.04Z"/><path class="e" d="M467.33,117.16s2.28-1.64,5.03-4.1c2.75-2.46,5.98-5.75,7.88-9.05l-.21-.12c-1.88,3.27-5.1,6.54-7.84,9-1.37,1.23-2.62,2.25-3.53,2.97-.45,.36-.82,.64-1.08,.83-.26,.19-.4,.29-.4,.29l.15,.19h0Z"/><polygon class="e" points="468.89 113.41 471.48 113.66 471.21 116.8 471.46 116.82 471.74 113.45 468.91 113.17 468.89 113.41 468.89 113.41"/><polygon class="e" points="471.09 111.38 473.56 111.62 473.64 114.49 473.89 114.49 473.8 111.4 471.11 111.14 471.09 111.38 471.09 111.38"/><polygon class="e" points="473.16 109.59 475.63 109.83 475.71 112.7 475.96 112.7 475.87 109.61 473.18 109.35 473.16 109.59 473.16 109.59"/><polygon class="e" points="475.28 107.19 477.75 107.43 477.83 110.3 478.07 110.29 477.99 107.21 475.3 106.95 475.28 107.19 475.28 107.19"/></g><g><path class="c" d="M459.88,165.79h0s4.22-12.97-11.46-13.34c-3.49,13.82,11.45,13.34,11.45,13.34Z"/><path class="e" d="M458.87,165.05s-1.28-2.19-3.25-4.87c-1.98-2.69-4.65-5.87-7.45-7.87l-.13,.18c2.77,1.98,5.44,5.15,7.41,7.82,.98,1.34,1.8,2.55,2.36,3.43,.28,.44,.5,.8,.65,1.04,.15,.25,.23,.38,.23,.38l.19-.12h0Z"/><polygon class="e" points="455.64 163.32 456.09 161.02 458.88 161.53 458.92 161.31 455.92 160.76 455.42 163.28 455.64 163.32 455.64 163.32"/><polygon class="e" points="454 161.17 454.43 158.97 457.01 159.15 457.03 158.93 454.25 158.73 453.78 161.13 454 161.17 454 161.17"/><polygon class="e" points="452.57 159.15 453 156.95 455.59 157.13 455.61 156.91 452.83 156.72 452.36 159.11 452.57 159.15 452.57 159.15"/><polygon class="e" points="450.59 157.04 451.02 154.84 453.61 155.02 453.63 154.8 450.85 154.61 450.38 157 450.59 157.04 450.59 157.04"/></g><g><path class="c" d="M399.26,132.74h0s9.36,4.36,11.07-7.39c-10.06-3.88-11.07,7.39-11.07,7.39Z"/><path class="e" d="M399.92,132.05s1.76-.76,3.96-2c2.2-1.24,4.83-2.96,6.59-4.88l-.13-.11c-1.74,1.9-4.36,3.62-6.55,4.85-1.1,.62-2.08,1.12-2.79,1.46-.36,.17-.64,.31-.84,.4-.2,.09-.31,.14-.31,.14l.07,.15h0Z"/><polygon class="e" points="401.51 129.78 403.2 130.32 402.56 132.38 402.72 132.43 403.4 130.22 401.56 129.62 401.51 129.78 401.51 129.78"/><polygon class="e" points="403.28 128.74 404.89 129.27 404.52 131.19 404.68 131.23 405.08 129.16 403.33 128.59 403.28 128.74 403.28 128.74"/><polygon class="e" points="404.92 127.85 406.54 128.38 406.16 130.3 406.33 130.34 406.73 128.27 404.97 127.7 404.92 127.85 404.92 127.85"/><polygon class="e" points="406.69 126.56 408.3 127.08 407.93 129.01 408.09 129.05 408.49 126.97 406.74 126.4 406.69 126.56 406.69 126.56"/></g><g><path class="c" d="M498.95,126.25h0s-1.39-10.23-12.2-5.32c2.17,10.56,12.2,5.32,12.2,5.32Z"/><path class="e" d="M498.02,126.08s-1.59-1.07-3.82-2.25c-2.23-1.18-5.1-2.47-7.67-2.91l-.03,.17c2.54,.43,5.4,1.72,7.62,2.89,1.11,.59,2.06,1.15,2.74,1.56,.34,.21,.6,.38,.79,.5,.18,.12,.28,.18,.28,.18l.09-.14h0Z"/><polygon class="e" points="495.24 125.96 494.79 124.25 496.86 123.68 496.82 123.51 494.59 124.13 495.08 126.01 495.24 125.96 495.24 125.96"/><polygon class="e" points="493.42 125.04 492.99 123.4 494.81 122.67 494.75 122.51 492.79 123.29 493.26 125.08 493.42 125.04 493.42 125.04"/><polygon class="e" points="491.78 124.13 491.35 122.49 493.17 121.76 493.11 121.61 491.15 122.39 491.62 124.18 491.78 124.13 491.78 124.13"/><polygon class="e" points="489.74 123.35 489.31 121.71 491.13 120.98 491.07 120.82 489.11 121.6 489.58 123.39 489.74 123.35 489.74 123.35"/></g><g><path class="c" d="M523.13,132.61h0s13.66,.91,10.15-14.43c-14.3,.01-10.15,14.43-10.15,14.43Z"/><path class="e" d="M523.6,131.45s1.81-1.78,3.94-4.37c2.12-2.59,4.56-5.97,5.82-9.19l-.21-.08c-1.24,3.18-3.67,6.56-5.78,9.14-1.06,1.29-2.04,2.38-2.76,3.14-.36,.38-.65,.69-.85,.89-.2,.21-.31,.32-.31,.32l.16,.15h0Z"/><polygon class="e" points="524.49 127.88 526.84 127.75 527.03 130.59 527.25 130.58 527.04 127.52 524.47 127.66 524.49 127.88 524.49 127.88"/><polygon class="e" points="526.18 125.75 528.43 125.63 528.89 128.19 529.11 128.15 528.61 125.4 526.16 125.53 526.18 125.75 526.18 125.75"/><polygon class="e" points="527.79 123.87 530.03 123.74 530.5 126.3 530.72 126.27 530.22 123.51 527.77 123.65 527.79 123.87 527.79 123.87"/><polygon class="e" points="529.35 121.42 531.6 121.3 532.06 123.86 532.28 123.82 531.78 121.07 529.34 121.2 529.35 121.42 529.35 121.42"/></g><g><path class="c" d="M540.91,143.79h0s12.98,1.98,10.87-12.97c-13.67-1.15-10.88,12.97-10.88,12.97Z"/><path class="e" d="M541.46,142.71s1.88-1.56,4.12-3.85c2.24-2.3,4.85-5.33,6.31-8.31l-.19-.09c-1.44,2.94-4.04,5.97-6.27,8.26-1.12,1.14-2.14,2.1-2.89,2.78-.37,.34-.68,.6-.89,.78-.21,.18-.33,.28-.33,.28l.14,.16h0Z"/><polygon class="e" points="542.6 139.37 544.85 139.44 544.81 142.17 545.02 142.18 545.07 139.24 542.6 139.16 542.6 139.37 542.6 139.37"/><polygon class="e" points="544.39 137.48 546.54 137.54 546.78 140.03 546.99 140.01 546.74 137.34 544.39 137.27 544.39 137.48 544.39 137.48"/><polygon class="e" points="546.08 135.81 548.24 135.87 548.47 138.36 548.68 138.34 548.43 135.67 546.08 135.6 546.08 135.81 546.08 135.81"/><polygon class="e" points="547.77 133.6 549.93 133.66 550.16 136.15 550.38 136.13 550.13 133.46 547.78 133.39 547.77 133.6 547.77 133.6"/></g><g><path class="c" d="M561.76,108.51h0s5.38-13.47-11.23-14.95c-4.67,14.41,11.22,14.95,11.22,14.95Z"/><path class="e" d="M560.74,107.65s-1.2-2.41-3.11-5.4c-1.91-2.99-4.52-6.55-7.36-8.87l-.15,.18c2.8,2.29,5.41,5.84,7.31,8.81,.95,1.49,1.73,2.83,2.27,3.81,.27,.49,.48,.88,.62,1.15,.14,.27,.22,.42,.22,.42l.21-.11h0Z"/><polygon class="e" points="557.43 105.59 558.07 103.18 561 103.91 561.06 103.69 557.91 102.9 557.21 105.53 557.43 105.59 557.43 105.59"/><polygon class="e" points="555.84 103.19 556.45 100.89 559.19 101.26 559.22 101.02 556.29 100.63 555.62 103.14 555.84 103.19 555.84 103.19"/><polygon class="e" points="554.47 100.95 555.08 98.65 557.81 99.02 557.85 98.79 554.91 98.39 554.25 100.9 554.47 100.95 554.47 100.95"/><polygon class="e" points="552.52 98.58 553.13 96.27 555.86 96.64 555.9 96.41 552.96 96.01 552.3 98.52 552.52 98.58 552.52 98.58"/></g><g><path class="c" d="M625.18,130.97h0s-.25-13.5-15.03-8.77c1.21,14.05,15.03,8.77,15.03,8.77Z"/><path class="e" d="M624,130.6s-1.9-1.63-4.62-3.51c-2.72-1.87-6.25-3.98-9.52-4.95l-.06,.21c3.23,.95,6.75,3.05,9.46,4.92,1.35,.93,2.51,1.81,3.32,2.45,.41,.32,.73,.58,.95,.76,.22,.18,.34,.28,.34,.28l.14-.17h0Z"/><polygon class="e" points="620.41 130.03 620.09 127.74 622.87 127.3 622.84 127.09 619.85 127.55 620.2 130.06 620.41 130.03 620.41 130.03"/><polygon class="e" points="618.18 128.55 617.87 126.35 620.35 125.68 620.3 125.47 617.63 126.19 617.97 128.58 618.18 128.55 618.18 128.55"/><polygon class="e" points="616.2 127.12 615.89 124.93 618.36 124.26 618.31 124.05 615.65 124.77 615.99 127.16 616.2 127.12 616.2 127.12"/><polygon class="e" points="613.66 125.79 613.35 123.59 615.83 122.92 615.78 122.71 613.11 123.43 613.45 125.82 613.66 125.79 613.66 125.79"/></g><g><path class="c" d="M500.48,151.19h0s.15-13.85-15.16-9.45c.81,14.45,15.15,9.45,15.15,9.45Z"/><path class="e" d="M499.28,150.77s-1.9-1.73-4.63-3.74c-2.73-2-6.29-4.28-9.62-5.36l-.07,.21c3.29,1.07,6.83,3.34,9.56,5.33,1.36,1,2.52,1.93,3.33,2.61,.41,.34,.73,.62,.95,.81,.22,.19,.34,.3,.34,.3l.15-.17h0Z"/><polygon class="e" points="495.62 150.08 495.36 147.71 498.22 147.36 498.19 147.13 495.11 147.52 495.4 150.11 495.62 150.08 495.62 150.08"/><polygon class="e" points="493.38 148.49 493.13 146.23 495.69 145.61 495.64 145.39 492.88 146.05 493.16 148.52 493.38 148.49 493.38 148.49"/><polygon class="e" points="491.38 146.97 491.13 144.71 493.69 144.09 493.64 143.87 490.89 144.53 491.16 147 491.38 146.97 491.38 146.97"/><polygon class="e" points="488.82 145.52 488.57 143.26 491.13 142.65 491.09 142.43 488.33 143.09 488.61 145.55 488.82 145.52 488.82 145.52"/></g><g><path class="c" d="M153.76,147.97h0s2.9-13.87-13.33-12.48c-2.05,14.66,13.33,12.48,13.33,12.48Z"/><path class="e" d="M152.63,147.31s-1.57-2.12-3.91-4.67c-2.34-2.55-5.46-5.54-8.59-7.29l-.11,.2c3.09,1.73,6.2,4.7,8.53,7.24,1.17,1.27,2.14,2.43,2.82,3.28,.34,.42,.61,.77,.79,1,.18,.24,.28,.37,.28,.37l.18-.14h0Z"/><polygon class="e" points="149.1 145.89 149.3 143.46 152.24 143.67 152.26 143.44 149.1 143.22 148.87 145.87 149.1 145.89 149.1 145.89"/><polygon class="e" points="147.16 143.85 147.36 141.53 150.05 141.42 150.04 141.19 147.15 141.31 146.94 143.84 147.16 143.85 147.16 143.85"/><polygon class="e" points="145.46 141.93 145.66 139.61 148.35 139.5 148.34 139.27 145.45 139.39 145.24 141.91 145.46 141.93 145.46 141.93"/><polygon class="e" points="143.18 139.97 143.38 137.65 146.07 137.55 146.06 137.32 143.17 137.43 142.96 139.96 143.18 139.97 143.18 139.97"/></g><g><path class="c" d="M110.11,127.56h0s15.05,3.68,14.13-14.11c-15.95-2.78-14.14,14.11-14.14,14.11Z"/><path class="e" d="M110.86,126.36s2.37-1.63,5.25-4.1c2.87-2.47,6.25-5.77,8.28-9.11l-.22-.13c-2,3.31-5.37,6.6-8.23,9.06-1.43,1.23-2.74,2.25-3.69,2.97-.47,.36-.86,.64-1.12,.83-.27,.19-.41,.29-.41,.29l.15,.2h0Z"/><polygon class="e" points="112.55 122.55 115.19 122.86 114.86 126.07 115.11 126.1 115.47 122.65 112.57 122.3 112.55 122.55 112.55 122.55"/><polygon class="e" points="114.85 120.51 117.38 120.81 117.39 123.75 117.65 123.76 117.63 120.59 114.87 120.26 114.85 120.51 114.85 120.51"/><polygon class="e" points="117.01 118.72 119.54 119.02 119.56 121.96 119.81 121.97 119.79 118.8 117.04 118.47 117.01 118.72 117.01 118.72"/><polygon class="e" points="119.23 116.3 121.76 116.6 121.78 119.54 122.03 119.55 122.01 116.38 119.26 116.05 119.23 116.3 119.23 116.3"/></g><g><path class="c" d="M191.62,152.09h0s10.44-6.8-1.71-20.58c-10.33,8.11,1.7,20.58,1.7,20.58Z"/><path class="e" d="M191.24,150.62s.19-2.86,.11-6.72c-.08-3.86-.44-8.72-1.55-12.74l-.2,.04c1.1,3.97,1.46,8.82,1.54,12.66,.04,1.92,.01,3.6-.02,4.79-.02,.6-.04,1.07-.06,1.4-.02,.33-.03,.5-.03,.5l.21,.07h0Z"/><polygon class="e" points="189.64 146.45 191.26 144.99 193.18 147.8 193.33 147.66 191.26 144.64 189.49 146.24 189.64 146.45 189.64 146.45"/><polygon class="e" points="189.53 143.31 191.08 141.91 193.02 144.28 193.15 144.12 191.07 141.57 189.38 143.1 189.53 143.31 189.53 143.31"/><polygon class="e" points="189.51 140.46 191.06 139.06 193 141.43 193.14 141.27 191.05 138.72 189.37 140.25 189.51 140.46 189.51 140.46"/><polygon class="e" points="189.11 137.06 190.66 135.66 192.6 138.03 192.74 137.87 190.65 135.32 188.97 136.85 189.11 137.06 189.11 137.06"/></g><g><path class="c" d="M115.87,164.44h0s13.66,.91,10.15-14.43c-14.3,.01-10.15,14.43-10.15,14.43Z"/><path class="e" d="M116.35,163.28s1.81-1.78,3.94-4.37c2.12-2.59,4.56-5.97,5.82-9.19l-.21-.08c-1.24,3.18-3.67,6.56-5.78,9.14-1.06,1.29-2.04,2.38-2.76,3.14-.36,.38-.65,.69-.85,.89-.2,.21-.31,.32-.31,.32l.16,.15h0Z"/><polygon class="e" points="117.23 159.71 119.58 159.58 119.78 162.42 120 162.41 119.79 159.35 117.22 159.49 117.23 159.71 117.23 159.71"/><polygon class="e" points="118.92 157.58 121.17 157.46 121.63 160.02 121.85 159.98 121.35 157.23 118.91 157.36 118.92 157.58 118.92 157.58"/><polygon class="e" points="120.53 155.69 122.78 155.57 123.24 158.13 123.46 158.1 122.96 155.34 120.52 155.48 120.53 155.69 120.53 155.69"/><polygon class="e" points="122.1 153.25 124.34 153.13 124.81 155.69 125.03 155.65 124.53 152.9 122.08 153.03 122.1 153.25 122.1 153.25"/></g><g><path class="c" d="M562.96,129.84h0s9.22,10.12,17.32-3.37c-10.32-9.9-17.32,3.37-17.32,3.37Z"/><path class="e" d="M564.11,129.33s2.54-.03,5.87-.42c3.32-.39,7.43-1.14,10.56-2.6l-.1-.2c-3.1,1.44-7.19,2.19-10.5,2.58-1.66,.19-3.12,.3-4.16,.36-.52,.03-.94,.04-1.23,.05-.29,0-.45,.01-.45,.01v.22h0Z"/><polygon class="e" points="567.23 127.37 569.01 128.9 567.18 131.09 567.35 131.23 569.32 128.88 567.37 127.2 567.23 127.37 567.23 127.37"/><polygon class="e" points="569.92 127.01 571.62 128.47 570.18 130.64 570.37 130.77 571.91 128.44 570.06 126.84 569.92 127.01 569.92 127.01"/><polygon class="e" points="572.38 126.76 574.09 128.23 572.65 130.4 572.83 130.52 574.38 128.19 572.52 126.6 572.38 126.76 572.38 126.76"/><polygon class="e" points="575.21 126.08 576.91 127.55 575.47 129.72 575.65 129.84 577.2 127.51 575.34 125.92 575.21 126.08 575.21 126.08"/></g><g><path class="c" d="M665.56,104.63h0s1.56-13.6-13.93-10.83c-.67,14.28,13.93,10.83,13.93,10.83Z"/><path class="e" d="M664.43,104.1s-1.69-1.9-4.17-4.14c-2.48-2.25-5.75-4.84-8.9-6.25l-.09,.2c3.12,1.39,6.38,3.98,8.85,6.21,1.24,1.12,2.28,2.15,3.01,2.9,.37,.38,.65,.68,.85,.89,.2,.21,.3,.33,.3,.33l.16-.15h0Z"/><polygon class="e" points="660.9 103.04 660.88 100.69 663.73 100.63 663.73 100.41 660.66 100.47 660.68 103.05 660.9 103.04 660.9 103.04"/><polygon class="e" points="658.86 101.25 658.84 99 661.42 98.66 661.4 98.44 658.62 98.81 658.64 101.26 658.86 101.25 658.86 101.25"/><polygon class="e" points="657.05 99.56 657.04 97.31 659.62 96.97 659.59 96.75 656.82 97.11 656.83 99.56 657.05 99.56 657.05 99.56"/><polygon class="e" points="654.68 97.88 654.67 95.63 657.25 95.29 657.22 95.06 654.45 95.43 654.47 97.88 654.68 97.88 654.68 97.88"/></g><g><path class="c" d="M618.79,163.48h0s12.27,6.06,14.89-9.46c-13.22-5.46-14.9,9.46-14.9,9.46Z"/><path class="e" d="M619.68,162.59s2.36-.95,5.31-2.53c2.95-1.58,6.5-3.77,8.89-6.27l-.16-.15c-2.36,2.47-5.89,4.66-8.84,6.23-1.47,.79-2.79,1.42-3.75,1.85-.48,.22-.86,.38-1.13,.5-.27,.11-.41,.17-.41,.17l.09,.2h0Z"/><polygon class="e" points="621.86 159.62 624.08 160.4 623.17 163.1 623.38 163.18 624.36 160.27 621.93 159.42 621.86 159.62 621.86 159.62"/><polygon class="e" points="624.23 158.31 626.36 159.05 625.81 161.59 626.02 161.64 626.62 158.91 624.3 158.1 624.23 158.31 624.23 158.31"/><polygon class="e" points="626.44 157.18 628.56 157.92 628.01 160.47 628.23 160.52 628.82 157.78 626.51 156.97 626.44 157.18 626.44 157.18"/><polygon class="e" points="628.82 155.52 630.95 156.26 630.4 158.8 630.61 158.86 631.2 156.12 628.89 155.31 628.82 155.52 628.82 155.52"/></g><g><path class="c" d="M661.4,144.09h0s3.38-13.27-12.34-12.61c-2.6,14.06,12.34,12.61,12.34,12.61Z"/><path class="e" d="M660.35,143.41s-1.42-2.11-3.58-4.67c-2.15-2.56-5.04-5.58-7.98-7.4l-.12,.19c2.9,1.8,5.78,4.8,7.93,7.35,1.07,1.28,1.96,2.44,2.59,3.28,.31,.42,.56,.76,.72,1,.17,.24,.25,.37,.25,.37l.18-.13h0Z"/><polygon class="e" points="657 141.89 657.3 139.56 660.13 139.88 660.16 139.66 657.11 139.31 656.78 141.87 657 141.89 657 141.89"/><polygon class="e" points="655.22 139.84 655.5 137.61 658.11 137.62 658.11 137.4 655.31 137.39 655 139.82 655.22 139.84 655.22 139.84"/><polygon class="e" points="653.66 137.92 653.94 135.68 656.55 135.7 656.55 135.47 653.75 135.46 653.44 137.89 653.66 137.92 653.66 137.92"/><polygon class="e" points="651.54 135.93 651.83 133.7 654.43 133.71 654.43 133.49 651.63 133.48 651.32 135.91 651.54 135.93 651.54 135.93"/></g><g><path class="c" d="M13.76,102.83h0s10.88,11.03,19.44-4.59c-12.12-10.74-19.44,4.59-19.44,4.59Z"/><path class="e" d="M15.04,102.2s2.88-.15,6.62-.74c3.74-.59,8.35-1.63,11.83-3.41l-.12-.22c-3.44,1.77-8.03,2.8-11.76,3.39-1.86,.29-3.51,.48-4.69,.59-.59,.06-1.07,.09-1.39,.11-.33,.02-.5,.03-.5,.03l.02,.25h0Z"/><polygon class="e" points="18.47 99.84 20.56 101.5 18.59 104.05 18.78 104.21 20.9 101.46 18.62 99.65 18.47 99.84 18.47 99.84"/><polygon class="e" points="21.5 99.31 23.49 100.9 21.96 103.41 22.17 103.55 23.82 100.84 21.65 99.12 21.5 99.31 21.5 99.31"/><polygon class="e" points="24.28 98.93 26.27 100.51 24.74 103.03 24.95 103.16 26.6 100.46 24.43 98.73 24.28 98.93 24.28 98.93"/><polygon class="e" points="27.44 98.03 29.43 99.62 27.9 102.13 28.12 102.27 29.76 99.56 27.59 97.84 27.44 98.03 27.44 98.03"/></g><g><path class="c" d="M57.79,133.43h0s13.65-7.32,1.09-19.94c-13.72,8.59-1.09,19.94-1.09,19.94Z"/><path class="e" d="M57.55,132.03s.67-2.8,1.16-6.56c.49-3.76,.8-8.47,.07-12.31l-.25,.05c.72,3.8,.42,8.5-.07,12.24-.24,1.87-.53,3.5-.76,4.67-.11,.58-.21,1.05-.28,1.37-.07,.32-.11,.49-.11,.49l.24,.05h0Z"/><polygon class="e" points="56.25 128.07 58.43 126.54 60.32 129.15 60.53 129 58.49 126.19 56.11 127.87 56.25 128.07 56.25 128.07"/><polygon class="e" points="56.6 125.02 58.68 123.55 60.66 125.73 60.85 125.56 58.72 123.22 56.46 124.82 56.6 125.02 56.6 125.02"/><polygon class="e" points="57.01 122.24 59.1 120.78 61.08 122.96 61.27 122.79 59.14 120.45 56.87 122.04 57.01 122.24 57.01 122.24"/><polygon class="e" points="57.05 118.96 59.13 117.49 61.11 119.67 61.3 119.5 59.17 117.16 56.91 118.76 57.05 118.96 57.05 118.96"/></g><g><path class="c" d="M46.61,133.66h0s5.74-17.54-13.35-16.72c-4.9,18.6,13.34,16.72,13.34,16.72Z"/><path class="e" d="M45.42,132.76s-1.46-2.79-3.74-6.19c-2.28-3.39-5.4-7.39-8.72-9.81l-.16,.25c3.29,2.39,6.39,6.37,8.67,9.75,1.14,1.69,2.07,3.23,2.72,4.35,.32,.56,.58,1.01,.75,1.33,.17,.31,.26,.49,.26,.49l.23-.17h0Z"/><polygon class="e" points="41.55 130.74 42.21 127.65 45.59 128.09 45.65 127.8 42.01 127.33 41.3 130.7 41.55 130.74 41.55 130.74"/><polygon class="e" points="39.65 128.02 40.28 125.07 43.43 125.09 43.46 124.8 40.08 124.77 39.4 127.99 39.65 128.02 39.65 128.02"/><polygon class="e" points="38.01 125.47 38.64 122.52 41.78 122.54 41.81 122.24 38.43 122.22 37.75 125.44 38.01 125.47 38.01 125.47"/><polygon class="e" points="35.7 122.84 36.32 119.88 39.47 119.91 39.5 119.61 36.12 119.59 35.44 122.8 35.7 122.84 35.7 122.84"/></g><g><path class="c" d="M3.9,157.67h0s10.88,11.03,19.44-4.59c-12.12-10.74-19.44,4.59-19.44,4.59Z"/><path class="e" d="M5.17,157.05s2.88-.15,6.62-.74c3.74-.59,8.35-1.63,11.83-3.41l-.12-.22c-3.44,1.77-8.03,2.8-11.76,3.39-1.86,.29-3.51,.48-4.69,.59-.59,.06-1.07,.09-1.39,.11-.33,.02-.5,.03-.5,.03l.02,.25h0Z"/><polygon class="e" points="8.61 154.69 10.69 156.34 8.72 158.89 8.92 159.05 11.04 156.3 8.76 154.49 8.61 154.69 8.61 154.69"/><polygon class="e" points="11.64 154.16 13.63 155.74 12.1 158.26 12.31 158.39 13.96 155.69 11.79 153.96 11.64 154.16 11.64 154.16"/><polygon class="e" points="14.41 153.77 16.41 155.35 14.88 157.87 15.09 158 16.74 155.3 14.56 153.57 14.41 153.77 14.41 153.77"/><polygon class="e" points="17.58 152.88 19.57 154.46 18.04 156.97 18.25 157.11 19.9 154.4 17.73 152.68 17.58 152.88 17.58 152.88"/></g><g><path class="c" d="M61.04,104.27h0s10.88,11.03,19.44-4.59c-12.12-10.74-19.44,4.59-19.44,4.59Z"/><path class="e" d="M62.32,103.65s2.88-.15,6.62-.74c3.74-.59,8.35-1.63,11.83-3.41l-.12-.22c-3.44,1.77-8.03,2.8-11.76,3.39-1.86,.29-3.51,.48-4.69,.59-.59,.06-1.07,.09-1.39,.11-.33,.02-.5,.03-.5,.03l.02,.25h0Z"/><polygon class="e" points="65.75 101.29 67.84 102.94 65.87 105.49 66.06 105.65 68.18 102.9 65.9 101.09 65.75 101.29 65.75 101.29"/><polygon class="e" points="68.78 100.76 70.77 102.34 69.24 104.86 69.46 104.99 71.1 102.29 68.93 100.56 68.78 100.76 68.78 100.76"/><polygon class="e" points="71.56 100.37 73.55 101.95 72.02 104.47 72.23 104.6 73.88 101.9 71.71 100.18 71.56 100.37 71.56 100.37"/><polygon class="e" points="74.72 99.48 76.72 101.06 75.18 103.58 75.4 103.71 77.04 101.01 74.87 99.28 74.72 99.48 74.72 99.48"/></g><g><path class="c" d="M118.81,111.76h0s.8-15.48-16.5-11.25c.25,16.19,16.5,11.25,16.5,11.25Z"/><path class="e" d="M117.48,111.24s-2.05-2.02-5.01-4.39c-2.96-2.36-6.83-5.07-10.5-6.43l-.09,.24c3.62,1.35,7.48,4.04,10.43,6.4,1.47,1.18,2.72,2.27,3.6,3.07,.44,.4,.79,.72,1.02,.95,.24,.23,.36,.35,.36,.35l.17-.18h0Z"/><polygon class="e" points="113.42 110.3 113.24 107.64 116.45 107.38 116.43 107.12 112.98 107.41 113.18 110.32 113.42 110.3 113.42 110.3"/><polygon class="e" points="110.99 108.42 110.81 105.88 113.7 105.31 113.66 105.07 110.55 105.67 110.74 108.44 110.99 108.42 110.99 108.42"/><polygon class="e" points="108.83 106.63 108.65 104.09 111.54 103.52 111.5 103.28 108.39 103.88 108.59 106.65 108.83 106.63 108.83 106.63"/><polygon class="e" points="106.04 104.9 105.86 102.36 108.75 101.79 108.71 101.54 105.6 102.15 105.79 104.92 106.04 104.9 106.04 104.9"/></g><g><path class="c" d="M89.98,160h0s1.85-15.39-15.7-12.35c-.85,16.17,15.7,12.35,15.7,12.35Z"/><path class="e" d="M88.69,159.39s-1.91-2.16-4.7-4.72c-2.79-2.56-6.47-5.52-10.04-7.13l-.1,.23c3.52,1.59,7.19,4.54,9.98,7.09,1.39,1.27,2.56,2.45,3.38,3.31,.41,.43,.74,.78,.96,1.02,.22,.24,.34,.37,.34,.37l.18-.17h0Z"/><polygon class="e" points="84.71 158.18 84.7 155.51 87.93 155.46 87.93 155.21 84.46 155.27 84.46 158.18 84.71 158.18 84.71 158.18"/><polygon class="e" points="82.41 156.14 82.4 153.59 85.32 153.22 85.3 152.97 82.16 153.37 82.16 156.14 82.41 156.14 82.41 156.14"/><polygon class="e" points="80.37 154.2 80.37 151.66 83.29 151.29 83.26 151.04 80.12 151.43 80.13 154.21 80.37 154.2 80.37 154.2"/><polygon class="e" points="77.7 152.29 77.7 149.74 80.62 149.37 80.6 149.12 77.45 149.52 77.46 152.29 77.7 152.29 77.7 152.29"/></g><g><path class="c" d="M202.34,143.35h0s13.15-4.58,3.72-18.35c-13.39,5.75-3.72,18.35-3.72,18.35Z"/><path class="e" d="M202.32,142.01s.98-2.49,1.94-5.9c.95-3.41,1.88-7.74,1.76-11.43h-.23c.12,3.65-.8,7.96-1.76,11.36-.48,1.7-.96,3.17-1.32,4.21-.18,.52-.33,.94-.44,1.22-.11,.29-.17,.44-.17,.44l.21,.09h0Z"/><polygon class="e" points="201.71 138.12 203.86 137.05 205.18 139.78 205.39 139.68 203.96 136.74 201.61 137.91 201.71 138.12 201.71 138.12"/><polygon class="e" points="202.44 135.34 204.5 134.31 205.96 136.66 206.15 136.54 204.58 134.01 202.34 135.13 202.44 135.34 202.44 135.34"/><polygon class="e" points="203.19 132.83 205.25 131.8 206.71 134.15 206.9 134.03 205.33 131.5 203.09 132.62 203.19 132.83 203.19 132.83"/><polygon class="e" points="203.68 129.78 205.74 128.76 207.2 131.1 207.39 130.98 205.82 128.46 203.58 129.57 203.68 129.78 203.68 129.78"/></g><g><path class="c" d="M250.67,142.95h0s8.65-10.92-6.7-17.48c-8.22,12.03,6.69,17.48,6.69,17.48Z"/><path class="e" d="M249.93,141.83s-.51-2.63-1.53-6.02c-1.02-3.39-2.56-7.54-4.64-10.59l-.19,.13c2.05,3.01,3.59,7.15,4.61,10.53,.51,1.69,.89,3.19,1.14,4.27,.13,.54,.22,.97,.28,1.27,.06,.3,.09,.46,.09,.46l.22-.04h0Z"/><polygon class="e" points="247.34 138.87 248.58 136.81 251.16 138.41 251.28 138.22 248.5 136.5 247.14 138.75 247.34 138.87 247.34 138.87"/><polygon class="e" points="246.47 136.13 247.65 134.16 250.14 135.36 250.24 135.15 247.56 133.87 246.27 136.01 246.47 136.13 246.47 136.13"/><polygon class="e" points="245.75 133.61 246.94 131.64 249.43 132.84 249.53 132.63 246.85 131.35 245.56 133.49 245.75 133.61 245.75 133.61"/><polygon class="e" points="244.53 130.78 245.72 128.81 248.21 130.01 248.3 129.8 245.63 128.51 244.33 130.66 244.53 130.78 244.53 130.78"/></g><g><path class="c" d="M704.51,109.95h0s2.66-13.68-13.98-12.46c-1.78,14.46,13.97,12.46,13.97,12.46Z"/><path class="e" d="M703.34,109.3s-1.66-2.11-4.12-4.65c-2.46-2.54-5.74-5.52-8.98-7.28l-.11,.2c3.21,1.74,6.47,4.7,8.92,7.23,1.23,1.27,2.25,2.42,2.97,3.26,.36,.42,.64,.76,.84,1,.19,.24,.3,.37,.3,.37l.18-.14h0Z"/><polygon class="e" points="699.68 107.86 699.84 105.47 702.86 105.7 702.88 105.47 699.62 105.22 699.45 107.84 699.68 107.86 699.68 107.86"/><polygon class="e" points="697.65 105.83 697.8 103.54 700.56 103.46 700.55 103.23 697.58 103.32 697.42 105.81 697.65 105.83 697.65 105.83"/><polygon class="e" points="695.86 103.92 696.01 101.63 698.77 101.55 698.76 101.32 695.79 101.4 695.63 103.9 695.86 103.92 695.86 103.92"/><polygon class="e" points="693.47 101.96 693.62 99.67 696.38 99.59 696.37 99.36 693.4 99.45 693.24 101.94 693.47 101.96 693.47 101.96"/></g><g><path class="c" d="M671.13,130.9h0s13.42-3.74,4.87-18.07c-13.73,4.89-4.88,18.07-4.88,18.07Z"/><path class="e" d="M671.2,129.56s1.14-2.42,2.31-5.77c1.17-3.34,2.37-7.6,2.48-11.29h-.23c-.11,3.64-1.31,7.88-2.47,11.21-.58,1.67-1.16,3.1-1.59,4.12-.21,.51-.39,.92-.52,1.19-.12,.28-.19,.43-.2,.43l.2,.1h0Z"/><polygon class="e" points="670.84 125.64 673.05 124.71 674.2 127.52 674.41 127.43 673.17 124.41 670.75 125.43 670.84 125.64 670.84 125.64"/><polygon class="e" points="671.75 122.92 673.86 122.02 675.17 124.46 675.37 124.35 673.96 121.73 671.66 122.7 671.75 122.92 671.75 122.92"/><polygon class="e" points="672.65 120.46 674.77 119.57 676.08 122 676.28 121.89 674.87 119.27 672.57 120.24 672.65 120.46 672.65 120.46"/><polygon class="e" points="673.33 117.45 675.45 116.56 676.76 118.99 676.95 118.88 675.55 116.26 673.24 117.24 673.33 117.45 673.33 117.45"/></g><g><path class="c" d="M713.25,141.15h0s-1.06-13.89-16.78-8.3c2.13,14.42,16.78,8.3,16.78,8.3Z"/><path class="e" d="M711.95,140.82s-2.16-1.59-5.21-3.39c-3.05-1.8-7-3.8-10.59-4.63l-.05,.22c3.55,.82,7.49,2.82,10.53,4.6,1.52,.89,2.82,1.74,3.73,2.36,.46,.31,.82,.56,1.07,.74,.25,.18,.38,.27,.38,.27l.14-.18h0Z"/><polygon class="e" points="708.03 140.41 707.55 138.06 710.53 137.48 710.48 137.26 707.28 137.88 707.81 140.45 708.03 140.41 708.03 140.41"/><polygon class="e" points="705.53 138.99 705.07 136.74 707.71 135.93 707.64 135.72 704.8 136.59 705.31 139.04 705.53 138.99 705.53 138.99"/><polygon class="e" points="703.3 137.62 702.84 135.37 705.48 134.56 705.41 134.35 702.57 135.22 703.07 137.67 703.3 137.62 703.3 137.62"/><polygon class="e" points="700.48 136.37 700.02 134.12 702.66 133.31 702.59 133.1 699.75 133.97 700.25 136.42 700.48 136.37 700.48 136.37"/></g><g><path class="c" d="M733.03,115.71h0s9.42-10.27-5.41-17.92c-9.07,11.4,5.41,17.92,5.41,17.92Z"/><path class="e" d="M732.38,114.53s-.31-2.66-1.09-6.11c-.77-3.45-2.01-7.7-3.86-10.9l-.2,.11c1.83,3.16,3.06,7.39,3.83,10.83,.39,1.72,.66,3.24,.83,4.34,.09,.55,.15,.99,.19,1.29,.04,.3,.06,.47,.06,.47l.23-.02h0Z"/><polygon class="e" points="730.01 111.4 731.39 109.44 733.85 111.22 733.98 111.03 731.34 109.12 729.82 111.26 730.01 111.4 730.01 111.4"/><polygon class="e" points="729.34 108.6 730.66 106.73 733.06 108.1 733.17 107.9 730.59 106.42 729.15 108.47 729.34 108.6 729.34 108.6"/><polygon class="e" points="728.81 106.03 730.13 104.16 732.53 105.53 732.64 105.34 730.06 103.86 728.62 105.9 728.81 106.03 728.81 106.03"/><polygon class="e" points="727.8 103.12 729.12 101.25 731.52 102.62 731.63 102.42 729.05 100.94 727.61 102.99 727.8 103.12 727.8 103.12"/></g><g><path class="c" d="M732.2,140.37h0s12.91,5.25,14.91-11.32c-13.85-4.52-14.91,11.32-14.91,11.32Z"/><path class="e" d="M733.07,139.35s2.38-1.22,5.35-3.15c2.97-1.93,6.52-4.57,8.87-7.42l-.17-.15c-2.32,2.81-5.86,5.45-8.82,7.37-1.48,.96-2.81,1.75-3.78,2.29-.48,.27-.87,.48-1.14,.63-.27,.14-.42,.22-.42,.22l.1,.21h0Z"/><polygon class="e" points="735.18 136.04 737.5 136.65 736.69 139.57 736.91 139.63 737.78 136.48 735.24 135.81 735.18 136.04 735.18 136.04"/><polygon class="e" points="737.57 134.43 739.79 135.02 739.33 137.74 739.56 137.78 740.04 134.85 737.63 134.21 737.57 134.43 737.57 134.43"/><polygon class="e" points="739.79 133.04 742.01 133.63 741.55 136.35 741.78 136.39 742.27 133.46 739.85 132.82 739.79 133.04 739.79 133.04"/><polygon class="e" points="742.16 131.07 744.38 131.66 743.93 134.39 744.16 134.42 744.64 131.49 742.23 130.85 742.16 131.07 742.16 131.07"/></g><g><path class="c" d="M808.06,121.37h0s9.42-10.27-5.41-17.92c-9.07,11.4,5.41,17.92,5.41,17.92Z"/><path class="e" d="M807.4,120.2s-.31-2.66-1.09-6.11c-.77-3.45-2.01-7.7-3.86-10.9l-.2,.11c1.83,3.16,3.06,7.39,3.83,10.83,.39,1.72,.66,3.24,.83,4.34,.09,.55,.15,.99,.19,1.29,.04,.3,.06,.47,.06,.47l.23-.02h0Z"/><polygon class="e" points="805.03 117.06 806.42 115.1 808.87 116.88 809.01 116.69 806.36 114.78 804.85 116.92 805.03 117.06 805.03 117.06"/><polygon class="e" points="804.36 114.26 805.69 112.39 808.08 113.76 808.19 113.56 805.62 112.09 804.17 114.13 804.36 114.26 804.36 114.26"/><polygon class="e" points="803.83 111.7 805.16 109.82 807.56 111.2 807.67 111 805.09 109.52 803.65 111.56 803.83 111.7 803.83 111.7"/><polygon class="e" points="802.82 108.78 804.15 106.91 806.54 108.28 806.65 108.09 804.08 106.61 802.63 108.65 802.82 108.78 802.82 108.78"/></g><g><path class="c" d="M762.38,121.68h0s13.11,4.7,14.42-11.93c-14.03-3.94-14.43,11.93-14.43,11.93Z"/><path class="e" d="M763.2,120.62s2.33-1.32,5.22-3.37c2.88-2.05,6.32-4.83,8.55-7.78l-.18-.14c-2.2,2.91-5.63,5.68-8.5,7.73-1.44,1.02-2.74,1.86-3.68,2.45-.47,.29-.85,.52-1.11,.68-.26,.16-.41,.24-.41,.24l.11,.2h0Z"/><polygon class="e" points="765.18 117.22 767.52 117.74 766.83 120.69 767.05 120.74 767.79 117.56 765.23 116.99 765.18 117.22 765.18 117.22"/><polygon class="e" points="767.49 115.52 769.73 116.01 769.4 118.75 769.62 118.78 769.99 115.83 767.54 115.29 767.49 115.52 767.49 115.52"/><polygon class="e" points="769.65 114.04 771.9 114.53 771.56 117.27 771.78 117.3 772.15 114.35 769.71 113.81 769.65 114.04 769.65 114.04"/><polygon class="e" points="771.95 111.97 774.19 112.47 773.85 115.21 774.08 115.23 774.44 112.29 772 111.75 771.95 111.97 771.95 111.97"/></g><g><path class="c" d="M786.84,169.11h0s9.42-10.27-5.41-17.92c-9.07,11.4,5.41,17.92,5.41,17.92Z"/><path class="e" d="M786.18,167.94s-.31-2.66-1.09-6.11c-.77-3.45-2.01-7.7-3.86-10.9l-.2,.11c1.83,3.16,3.06,7.39,3.83,10.83,.39,1.72,.66,3.24,.83,4.34,.09,.55,.15,.99,.19,1.29,.04,.3,.06,.47,.06,.47l.23-.02h0Z"/><polygon class="e" points="783.81 164.8 785.19 162.84 787.65 164.62 787.78 164.43 785.14 162.52 783.62 164.66 783.81 164.8 783.81 164.8"/><polygon class="e" points="783.14 162 784.46 160.13 786.86 161.5 786.97 161.31 784.39 159.83 782.95 161.87 783.14 162 783.14 162"/><polygon class="e" points="782.61 159.44 783.94 157.56 786.33 158.94 786.44 158.74 783.87 157.26 782.42 159.3 782.61 159.44 782.61 159.44"/><polygon class="e" points="781.6 156.52 782.92 154.65 785.32 156.02 785.43 155.83 782.85 154.35 781.41 156.39 781.6 156.52 781.6 156.52"/></g></g></svg>